<?xml version="1.0" standalone="no"?><!DOCTYPE svg PUBLIC "-//W3C//DTD SVG 1.1//EN" "http://www.w3.org/Graphics/SVG/1.1/DTD/svg11.dtd"><svg t="1647504583340" class="icon" viewBox="0 0 1024 1024" version="1.1" xmlns="http://www.w3.org/2000/svg" p-id="2191" xmlns:xlink="http://www.w3.org/1999/xlink" width="200" height="200"><defs><style type="text/css"></style></defs><path d="M695.744 981.312H419.712c-26.816 0-47.296-21.056-47.296-48.64V739.84c0-29.184 6.336-56.768 17.344-81.088-129.28-48.64-214.528-150.72-214.528-264.256 0-53.44 17.344-103.68 50.496-147.52C213.12 204.8 209.92 151.296 213.12 89.664c3.2-27.52 23.68-46.976 48.896-46.976 14.208 0 134.08 1.6 203.52 64.832a504.384 504.384 0 0 1 184.512 0C717.888 44.288 837.696 42.688 853.504 42.688a47.36 47.36 0 0 1 47.36 45.376c4.672 61.568 0 115.072-12.672 157.248 33.152 45.44 50.496 95.68 50.496 147.52 0 113.472-85.184 215.68-214.528 264.32 11.072 25.856 17.344 53.44 17.344 81.024v192.896c1.6 27.52-20.48 50.24-45.76 50.24z m-228.672-97.28h181.376V739.84c0-27.52-12.608-53.504-33.152-71.36a48.96 48.96 0 0 1-15.744-50.24c4.736-17.856 18.944-32.384 36.288-35.648 123.008-24.32 208.192-102.144 208.192-189.696 0-46.976-25.216-82.688-45.76-105.344a47.36 47.36 0 0 1-7.872-55.168c6.336-12.928 15.808-40.512 15.808-89.152-39.488 6.464-85.184 19.456-102.528 45.44a47.552 47.552 0 0 1-50.56 19.392 393.024 393.024 0 0 0-193.92 0c-18.944 4.864-37.888-3.2-50.56-19.456-17.28-25.92-63.04-38.912-102.464-45.376 1.6 48.64 9.472 76.16 15.744 89.152a53.696 53.696 0 0 1-7.872 55.168c-20.48 22.656-45.76 58.368-45.76 105.344 0 87.552 85.184 163.776 208.256 189.696 17.28 3.2 31.552 17.792 36.224 35.648a51.008 51.008 0 0 1-15.744 50.24c-20.48 17.856-33.152 43.776-33.152 71.36v144.256h3.2z" fill="#172B4D" p-id="2192"></path><path d="M403.968 788.416c-212.928 0-309.12-194.56-313.92-202.688-11.008-24.32-1.536-53.44 20.48-64.832a47.424 47.424 0 0 1 63.168 21.12c3.136 6.4 80.448 157.248 241.28 149.12a46.08 46.08 0 0 1 48.896 47.04c1.6 27.52-18.88 50.24-45.696 50.24h-14.208z" fill="#172B4D" p-id="2193"></path></svg>