<svg xmlns="http://www.w3.org/2000/svg" width="440" height="200" fill="none" viewBox="0 0 440 200">
    <defs>
        <radialGradient id="a" cx="0" cy="0" r="1" gradientTransform="translate(107.489 33.07) scale(91.792)"
                        gradientUnits="userSpaceOnUse">
            <stop offset=".003" stop-color="#E44857"/>
            <stop offset=".469" stop-color="#C711E1"/>
            <stop offset="1" stop-color="#7F52FF"/>
        </radialGradient>
    </defs>
    <path fill="url(#a)" d="M110 110.001H30v-80h80L69.365 69.366 110 110.001z"/>
    <path fill="#000"
          d="M202.103 30h-15.297l-34.705 36.702V30H140v79.912h12.101V71.268l34.933 38.644h15.811l-37.216-41.383L202.103 30zm45.223 24.116a32.249 32.249 0 00-30.994 0 28.997 28.997 0 00-10.931 10.93 30.97 30.97 0 00-3.996 15.698 31.185 31.185 0 003.968 15.669 28.717 28.717 0 0010.902 10.959 32.196 32.196 0 0030.966 0 28.87 28.87 0 0010.959-10.96 31.014 31.014 0 003.996-15.668 31.152 31.152 0 00-3.967-15.697 28.782 28.782 0 00-10.903-10.93zm.086 36.988a17.675 17.675 0 01-6.422 7.078 17.841 17.841 0 01-18.35 0 17.603 17.603 0 01-6.451-7.078 22.27 22.27 0 01-2.34-10.36c-.065-3.6.738-7.163 2.34-10.388a17.13 17.13 0 0115.64-9.59 16.986 16.986 0 019.161 2.54 17.677 17.677 0 016.422 7.078 22.286 22.286 0 012.341 10.36 22.284 22.284 0 01-2.341 10.36zm39.886-54.254h-11.244v10.045a4.79 4.79 0 01-1.085 3.454 4.784 4.784 0 01-3.539 1.113h-6.565l-.056 10.274h10.502l.057 34.191c0 4.339 1.313 7.754 3.939 10.246 2.626 2.493 6.241 3.739 10.845 3.739h10.845V99.638h-8.848a4.843 4.843 0 01-3.538-1.285 4.762 4.762 0 01-1.313-3.567l-.057-33.05h13.756l.058-10.274h-13.757V36.85zm23.301 73.062h11.929V30h-11.929v79.912zm25.649-67.754h12.501V30h-12.501v12.158zm.286 67.754h11.987v-58.45h-11.987v58.45zm74.511-48.918a19.14 19.14 0 00-7.478-8.048 24.339 24.339 0 00-22.147-.37 18.633 18.633 0 00-7.307 7.22v-8.334H362.47v58.45h11.986V77.034a20.162 20.162 0 011.798-8.82 13.371 13.371 0 015.108-5.764 14.585 14.585 0 017.764-2.027c3.957 0 7.039 1.218 9.247 3.654 2.206 2.435 3.31 5.84 3.311 10.217v35.618h11.986V73.038a26.37 26.37 0 00-2.625-12.044z"/>
    <path fill="#000"
          d="M156.023 149.864a9.959 9.959 0 00-5.228-1.414 9.19 9.19 0 00-4.346 1.035 8.733 8.733 0 00-3.239 2.942l.123-11.194h-3.279v7.708h-.021v20.993h3.156v-3.506a8.828 8.828 0 003.24 2.952 9.163 9.163 0 004.366 1.046 9.99 9.99 0 008.938-5.33 12.503 12.503 0 000-11.317 10.033 10.033 0 00-3.71-3.915zm.676 13.797a7.141 7.141 0 01-2.572 2.869 6.983 6.983 0 01-7.288 0 7.114 7.114 0 01-2.583-2.869 9.927 9.927 0 010-8.446 7.11 7.11 0 012.583-2.87 6.983 6.983 0 017.288 0 7.144 7.144 0 012.572 2.87 9.913 9.913 0 010 8.446zm15.282.143l-6.356-14.863h-3.464l8.077 18.738-3.854 8.815h3.383l11.848-27.553h-3.465l-6.169 14.863zm29.559-.225a3.066 3.066 0 01-1.988 3.093 3.07 3.07 0 01-1.291.186h-6.11v3.076h6.519a7.035 7.035 0 003.301-.739 5.293 5.293 0 002.193-2.091 6.196 6.196 0 00.779-3.157v-22.714h-3.403v22.346zm24.063-13.725a9.5 9.5 0 00-5.125-1.404 9.938 9.938 0 00-5.269 1.435 10.163 10.163 0 00-3.71 3.946 12.284 12.284 0 000 11.213 10.157 10.157 0 003.71 3.946 9.93 9.93 0 005.269 1.436 11.562 11.562 0 004.295-.8 9.514 9.514 0 003.372-2.193 6.199 6.199 0 001.702-3.117h-3.281a3.843 3.843 0 01-1.21 1.661 6.52 6.52 0 01-2.111 1.158 7.864 7.864 0 01-2.562.421 6.956 6.956 0 01-3.557-.912 6.79 6.79 0 01-2.511-2.574 9.063 9.063 0 01-1.107-3.853h16.891v-.78a12.356 12.356 0 00-1.27-5.678 9.627 9.627 0 00-3.526-3.905zm-11.993 7.698a7.58 7.58 0 012.266-4.582 6.528 6.528 0 014.602-1.671 6.08 6.08 0 014.418 1.64 7.66 7.66 0 012.101 4.613H213.61zm25.379-13.859h-3.054v3.609c.04.45-.096.898-.379 1.25a1.714 1.714 0 01-1.261.389h-2.357l-.021 2.912h3.772l.02 13.53a4.34 4.34 0 001.302 3.341 5.111 5.111 0 003.618 1.21h3.28v-2.912h-3.075a1.7 1.7 0 01-1.749-1.113 1.717 1.717 0 01-.096-.731l-.02-13.325h4.94l.021-2.912h-4.941v-5.248zm25.124 11.337a6.33 6.33 0 004.715-6.314 6.824 6.824 0 00-1.127-3.854 7.636 7.636 0 00-3.126-2.665c-1.414-.66-2.96-.99-4.52-.964h-11.399v28.701h11.645a10.809 10.809 0 004.776-1.025 8.08 8.08 0 003.301-2.829 7.286 7.286 0 001.188-4.1 6.916 6.916 0 00-1.475-4.439 7.285 7.285 0 00-3.978-2.511zm-12.176-10.762h8.118a5.901 5.901 0 012.695.594 4.342 4.342 0 011.825 1.681 4.81 4.81 0 01.646 2.501 4.864 4.864 0 01-.646 2.512 4.396 4.396 0 01-1.825 1.701 5.813 5.813 0 01-2.695.604h-8.118v-9.593zm13.314 20.212a4.735 4.735 0 01-1.998 1.784 6.59 6.59 0 01-2.952.635h-8.364v-10.086h8.364a6.604 6.604 0 012.952.636 4.768 4.768 0 011.998 1.774 4.84 4.84 0 01.708 2.613 4.93 4.93 0 01-.708 2.644zm15.65-14.688a7.239 7.239 0 00-2.552 3.045v-3.896h-3.28v20.993h3.28v-11.316a7.739 7.739 0 01.758-3.557 5.272 5.272 0 012.153-2.265 6.656 6.656 0 013.301-.779h.758v-3.281h-.635a6.748 6.748 0 00-3.783 1.056zm19.851-.461a9.156 9.156 0 00-4.089-.881 9.706 9.706 0 00-4.121.861 7.833 7.833 0 00-3.023 2.388 6.671 6.671 0 00-1.343 3.475h3.198a4.01 4.01 0 01.819-2.071 4.656 4.656 0 011.826-1.404 6.182 6.182 0 012.542-.503 5.742 5.742 0 012.49.513 3.91 3.91 0 011.671 1.456c.405.659.611 1.42.594 2.193a2.45 2.45 0 01-.4 1.497 1.456 1.456 0 01-1.076.594l-6.129.615a8.05 8.05 0 00-3.342 1.056 6.454 6.454 0 00-2.306 2.255 5.771 5.771 0 00-.831 3.023 5.466 5.466 0 00.923 3.117 6.144 6.144 0 002.563 2.142 8.636 8.636 0 003.71.769 8.822 8.822 0 004.049-.912 7.442 7.442 0 002.881-2.553v2.973h3.198v-14.555a6.555 6.555 0 00-1.005-3.588 6.776 6.776 0 00-2.799-2.46zm.564 12.587a5.892 5.892 0 01-.799 3.055 5.68 5.68 0 01-2.204 2.121 6.478 6.478 0 01-3.167.769 5.96 5.96 0 01-2.409-.461 3.816 3.816 0 01-1.64-1.292 3.204 3.204 0 01-.584-1.896 3.506 3.506 0 01.471-1.783 3.913 3.913 0 011.302-1.353 4.191 4.191 0 011.876-.636l7.154-.738v2.214zm8.68-16.789h3.526v-3.896h-3.526v3.896zm.123 24.805h3.279v-20.993h-3.279v20.993zm23.127-20.47a8.954 8.954 0 00-8.159-.061 6.834 6.834 0 00-2.686 2.757v-3.219h-3.156v20.993h3.279v-11.911a8.19 8.19 0 01.739-3.598 5.497 5.497 0 012.091-2.357 5.96 5.96 0 013.177-.831 4.83 4.83 0 013.762 1.477 5.9 5.9 0 011.343 4.12v13.1h3.28V156.69a9.445 9.445 0 00-.953-4.345 6.828 6.828 0 00-2.717-2.881zm22.536 10.486a7.98 7.98 0 00-4.438-2.091l-3.608-.635a3.998 3.998 0 01-2.172-1.036 2.593 2.593 0 01-.8-1.917 2.548 2.548 0 01.574-1.639 3.655 3.655 0 011.578-1.108 6.642 6.642 0 014.592.041c.634.25 1.187.668 1.599 1.21a3.04 3.04 0 01.594 1.784h3.28a5.674 5.674 0 00-1.004-3.188 6.276 6.276 0 00-2.726-2.153 10.246 10.246 0 00-4.121-.768 10.066 10.066 0 00-3.977.727 5.832 5.832 0 00-2.614 2.071 5.391 5.391 0 00-.912 3.106 5.251 5.251 0 001.558 3.874 7.784 7.784 0 004.326 2.03l3.484.594a4.23 4.23 0 012.338 1.117 2.868 2.868 0 01.84 2.101 3.251 3.251 0 01-.595 1.928 3.759 3.759 0 01-1.69 1.291 6.605 6.605 0 01-2.532.451 6.71 6.71 0 01-2.624-.482 4.367 4.367 0 01-1.825-1.363 3.397 3.397 0 01-.717-1.989h-3.281a5.822 5.822 0 001.076 3.404 6.874 6.874 0 002.973 2.295c1.429.576 2.96.855 4.5.821 1.432.033 2.854-.24 4.172-.8a6.273 6.273 0 002.736-2.255 5.981 5.981 0 00.964-3.383 5.516 5.516 0 00-1.548-4.038z"/>
</svg>