<svg xml:space="preserve" style="enable-background:new 0 0 500 500;" viewBox="0 0 500 500" y="0px" x="0px"
     xmlns="http://www.w3.org/2000/svg" id="图层_1" version="1.0">
<style type="text/css">
	.st0{fill:#FD913E;}
	.st1{opacity:0.2;fill:#A1312F;}
	.st2{fill:#A1312F;}
	.st3{fill:#91E6DD;}
	.st4{fill:#5ED6B6;}
	.st5{fill:#FB5555;}
	.st6{fill:#FDBD87;}
	.st7{fill:#FFFFFF;}
	.st8{opacity:0.48;fill:#FB5555;}
	.st9{fill:#C75325;}
	.st10{opacity:0.48;fill:#A1312F;}
	.st11{opacity:0.62;fill:#91E6DD;}
</style>
<g>
	<g>
		<g>
			<g>
				<path d="M468.7,256.4c-7.4,4.3-11.7-1.6-17.6-6.7c-4.1-3.6-9-6.8-16.3-5.9c-3.6,0.4-6.7,1.8-9.6,3.9
					c-5.3,3.8-9.8,9.7-15.2,15.4c-5.9,6.4-12.9,12.5-23.3,15.1c-21.2,5.2-41.2-11.8-46.4-16.5c-0.8-0.8-1.3-1.2-1.3-1.2l4.4-19.4
					c0,0,6.1,15.1,25.8,20.1c2.3,0.6,4.9,1.1,7.6,1.3c2.9,0.3,5.3,0.1,7.5-0.4c17-4.3,13.9-31.1,45.8-36.8c1.7-0.3,3.3-0.5,4.9-0.7
					c6.3-0.6,11.9,0,16.7,1.4c10.7,3.1,17.5,10.1,20,16.8C474.2,248.4,473.1,253.8,468.7,256.4z" class="st0"></path>
				<path d="M468.7,256.4c-7.4,4.3-11.7-1.6-17.6-6.7c-4.1-3.6-9-6.8-16.3-5.9c-3.6,0.4-6.7,1.8-9.6,3.9
					c-5.3,3.8-9.8,9.7-15.2,15.4c-5.9,6.4-12.9,12.5-23.3,15.1c-21.2,5.2-41.2-11.8-46.4-16.5c-0.8-0.8-1.3-1.2-1.3-1.2l4.4-19.4
					c0,0,6.1,15.1,25.8,20.1c2.3,0.6,4.9,1.1,7.6,1.3c2.9,0.3,5.3,0.1,7.5-0.4c17-4.3,13.9-31.1,45.8-36.8c1.7-0.3,3.3-0.5,4.9-0.7
					c6.3-0.6,11.9,0,16.7,1.4c10.7,3.1,17.5,10.1,20,16.8C474.2,248.4,473.1,253.8,468.7,256.4z" class="st1"></path>
			</g>
			<path d="M468.7,256.4c-7.4,4.3-11.7-1.6-17.6-6.7c5.2-3.4,12.9-7.2,20.9-7C474.2,248.4,473.1,253.8,468.7,256.4z" class="st2"></path>
			<path d="M452,225.9c-0.8,3.7-2.9,8-8,6.9c-5.3-1.1-7.7-5.2-8.7-8.3C441.7,223.9,447.3,224.5,452,225.9z" class="st2"></path>
			<path d="M425.3,247.7c-5.3,3.8-9.8,9.7-15.2,15.4c-1.7-3.9-3.2-9.6,0.2-13.4C413.9,245.8,420.7,246.6,425.3,247.7z" class="st2"></path>
			<path d="M384.7,262c-1.5,3.4-3.9,6.8-7.3,6c-3.3-0.7-6-3.9-7.8-6.9c2.3,0.6,4.9,1.1,7.6,1.3
				C380.1,262.7,382.5,262.6,384.7,262z" class="st2"></path>
		</g>
		<path d="M263.7,402.5c0,0,44-22.4,58.7-26.9c0,0-10.2-34.8-25.5-46l-58,26L263.7,402.5z" class="st3"></path>
		<path d="M280.2,381.1c0,0,30.4-34.7,63.5-50.3c0,0-27.1-43.4-45.2-54.5c0,0-44.8,39.6-58.2,58.3L280.2,381.1z" class="st4"></path>
		<g>
			<path d="M304.5,339.3l-0.4,0.2l-10,5.9l3.7-10.6c0,0,27-33.5,34.3-41.4c0.5-0.6,1-1,1.3-1.3c4.5-4.2,8.3,0.3,5.9,4.4
				c-0.2,0.3-0.6,0.9-1.1,1.6C331.9,306.6,304.5,339.3,304.5,339.3z" class="st5"></path>
			<path d="M304.1,339.6l-6.7,3.9l-3.3,1.9l1.3-3.6l2.4-7c0,0,6.1,0.5,6.3,4.6C304.1,339.5,304.1,339.5,304.1,339.6z" class="st6"></path>
			<path d="M338.1,298.2c-2.4-2.4-4.4-3.9-6.1-4.8c0.5-0.6,1-1,1.3-1.3c4.5-4.2,8.3,0.3,5.9,4.4
				C339.1,296.9,338.7,297.4,338.1,298.2z" class="st2"></path>
			<path d="M297.4,343.5l-3.3,1.9l1.3-3.6C295.9,342.1,296.7,342.6,297.4,343.5z" class="st2"></path>
		</g>
		<path d="M400.6,193.3c-7.3-4.3-19,9.5-29.4,6.9c-10.4-2.6-16.9,2.2-19.4,7.3l-17.3,1.7c0,0-17.3-44.1-67.4-50.2
			c0,0,0,0,0,0c1-0.5,21.6-0.4,12.8-18.8c-5-10.5-6.3-19.7-5.9-30c0.4-10.4-8.7-14.7-11.3-9.5c-2.6,5.2-6,25.1,0.4,36.3
			c0,0-53.2,9.1-66.2,48c-13,38.9-67,45-67,45s-11.4,6.2-16.3,21.9c-7.6-0.4-13.5-0.7-22.3,5.8c-5.8,4.3-16.5,20-16,25.2
			c-0.9,2.3-1.6,4.7-2,7.2c-0.9-0.1-1.8-0.2-2.7-0.2c-11.6,0.1-22,8.8-21.1,12.3c0.1,0.4,0.3,0.8,0.4,1.2c1.9,3.9,7.8,6.6,15,8
			c5.6,1.1,10,5.1,12.1,7.4c0.8,2.1,1.7,4.3,2.6,6.5c1.1,2.7,2.4,5.4,3.8,8.2c0.5,1.1,1.1,2.2,1.7,3.3c2.7,5,5.7,10,8.9,14.8
			c0.8,1.2,1.7,2.4,2.6,3.6c2.2,3.1,4.6,6,7,8.8c2.2,2.5,4.5,4.9,6.9,7c1.9,2.4,4,5.6,4.6,9.4c1.3,7.8,4.3,14.1,8.7,15.5
			c0.1,0,0.2,0.1,0.2,0.1c2.8,0.7,9.5-4.8,12.5-12.6c3.2,1.1,7.4,2.3,12.5,3.2c0,0,0,0,0,0c0,0,0,0,0.1,0c1.4,0.2,23.9,3.5,38.6-9.5
			c1.8-1.6,2.9-3.8,4.2-6.1c7.5,0.8,19.5,1.5,31.2-0.8c4.8-0.9,9.6-2.3,14.2-4.3c6.9-3,13.2-7.5,17.9-13.9c2.4-3.2,4.4-6.9,5.9-11.2
			c0.9-2.5,1.6-5.2,2.2-8.1c4.8-0.5,12.6-2.1,19.7-7.1c5.2-3.6,10.1-8.9,13.5-16.9c1.4-3.3,2.5-7,3.3-11.3c0,0,8.8-1.3,19.4-7.4
			c4.5-2.6,9.4-6.1,14-10.7c4.8-4.8,9.4-10.9,13-18.5c2-4.1,3.7-8.8,5-13.9c1.2-4.5,2.1-9.5,2.6-14.9c0,0,2.2-14.3,19.5-17.3
			C390.7,211.9,407.9,197.6,400.6,193.3z" class="st0"></path>
		<path d="M151.6,258.5L73.8,223c0,0,13.4-24.5,30.9-40.9c0.1-0.1,0.1-0.1,0.2-0.2c4.9-2.5,18.2-5.7,21.2-6.4
			c0.2,0.1,0.5,0.2,0.7,0.3c14.9,6.1,44.1,18.7,54.7,27.7C196.2,215.9,151.6,258.5,151.6,258.5z" class="st3"></path>
		<path d="M265.3,290.1c0,0-84.7-28.5-67-77.8C216,163,267,159.1,267,159.1c50.2,6.1,67.4,50.2,67.4,50.2
			C340.9,277.6,265.3,290.1,265.3,290.1z" class="st6"></path>
		<path d="M271.9,287.1l-71.8,49c0,0-4.4-16.4-9.8-25c-5.4-8.6-21.3-18.3-15.9-34.1c0,0-14.1,5.3-29.8-16.5
			c-9.1-12.6-24.4-19-24.4-19l50.7-33.2l67.5,19.8L271.9,287.1z" class="st7"></path>
		<path d="M70.6,289.9C70.6,289.9,70.6,289.9,70.6,289.9c0.2,0,1.6-0.1,3.3,0.2c0,0,0,0,0,0c1,0.2,2.1,0.8,3.2,1.6
			c1.9,1.5,3.6,3.8,3.6,6.5c-0.1,6.5-13.6,0.2-23.2,1.2c-3.1,0.3-5.9,1.4-7.6,4c-0.2-0.4-0.3-0.8-0.4-1.2
			C48.6,298.7,59,290,70.6,289.9z" class="st2"></path>
		<path d="M136.4,367.7c6.8,14.6-7.7,29.6-12.2,28.4c-0.1,0-0.2,0-0.2-0.1c0.8-1,1.9-2.6,2.6-5c0.7-2.4,1-5.7,0.3-10.1
			c-1.2-8,2.9-11.7,6.6-12.8C134.5,367.8,135.6,367.6,136.4,367.7z" class="st2"></path>
		<path d="M71.4,295.5c0,0,2.3-3.1,5.8-3.6c1.9,1.5,3.6,3.8,3.6,6.5c-0.1,6.5-13.6,0.2-23.2,1.2
			c2.1-1.4,5.5-3.1,9.6-2.8c0,0-2.9-2.1-2.6-2.9c0.3-0.8,4.2,1.4,4.4,1.5c-0.1-0.1-1.6-1.5-1-2.2C68.5,292.4,71.4,295.5,71.4,295.5z" class="st7"></path>
		<path d="M133.4,368.1c6,7.7-1.7,12.8-1.7,12.8s2.2,0.1,2,1.4c-0.1,1.3-2.3,0.5-2.4,0.5c0.1,0.1,1.4,1.8,1.2,2.6
			c-0.2,0.9-2-0.7-2-0.7c-0.2,3.5-2.7,5.4-4,6.3c0.7-2.4,1-5.7,0.3-10.1C125.5,373,129.7,369.3,133.4,368.1z" class="st7"></path>
		<path d="M102.1,326.5c1.6,0,3.4,0.7,4.2,2.1c1.1,2,0.1,4.4-1.1,6.3c-2.1,3.3-4.7,6.2-6.9,9.3c-1.6,2.2-3,4.5-3.9,7.1
			c-0.1,0.1-0.1,0.3-0.2,0.5c-3.3-4.8-6.3-9.8-8.9-14.8c3.5-3.7,7.6-6.7,12.2-9C98.9,327.2,100.5,326.5,102.1,326.5z" class="st2"></path>
		<path d="M87.4,323.7c1.2,0.4,2.2,1.4,2.2,2.7c-0.1,1.2-1.1,2.2-2.1,3c-1.4,1.2-2.6,2.5-3.8,3.9
			c-0.1,0.1-0.2,0.2-0.3,0.4c-1.4-2.7-2.7-5.5-3.8-8.1c1.3-0.7,2.7-1.2,4.1-1.6C84.9,323.5,86.2,323.3,87.4,323.7z" class="st2"></path>
		<path d="M104.5,350.7c1.1-0.1,2.3,0.5,2.6,1.6c0.2,0.5,0.1,1.1,0,1.6c-0.5,3.1-1.5,7.3-3.4,10.2
			c-2.4-2.8-4.8-5.7-7-8.8c1.5-1.3,3.1-2.4,4.8-3.4C102.4,351.3,103.4,350.8,104.5,350.7z" class="st2"></path>
		<path d="M120.3,287.2c2.5,1,5.3-0.5,5.2-3.5c-0.1-4-4-9.2-8-10.2c-3.3-0.9-5.9,2.7-4.9,5.5c0.8,2.3,2.4,4.3,4.2,5.8
			C117.6,285.5,118.9,286.6,120.3,287.2z" class="st8"></path>
		<path d="M160.2,345.5c1.9,1.8,5,1.4,5.9-1.3c1.3-3.7-0.5-9.7-3.7-12c-2.7-1.9-6.3,0.5-6.4,3.3
			c-0.1,2.4,0.7,4.7,1.8,6.8C158.4,343.1,159.2,344.5,160.2,345.5z" class="st8"></path>
		<path d="M148,273.2c-0.8-0.9-1.7-1.7-2.6-2.5c-0.9-0.8-1.7-1.6-2.7-2.4l-0.4-0.3l0.5-0.1c0.7-0.1,1.4-0.3,1.9-0.6
			c0.2-0.2,0.4-0.4,0.4-0.7c0-0.2,0-0.2-0.1-0.3c-0.1-0.1-0.2-0.1-0.3-0.2c-0.6-0.1-1.3,0-2,0.1c-0.7,0.1-1.4,0.3-2,0.5l-0.9,0.3
			l0.5-0.8c0.3-0.5,0.6-1.1,0.8-1.6c0.2-0.5,0.4-1.2,0.2-1.6c0-0.1,0-0.1,0-0.1c0,0-0.1,0-0.2,0.1c-0.2,0.1-0.5,0.3-0.7,0.4
			c-0.5,0.4-0.9,0.8-1.3,1.2l-0.3,0.3l-0.3-0.3c-1.3-1.3-2.8-2.5-4.3-3.5c-1.6-1-3.2-1.9-5-2.3l-0.9-0.2l0.8-0.3
			c0.7-0.3,1.5-0.7,1.9-1.2c0.1-0.1,0.1-0.1,0.1-0.2c0-0.1,0,0,0,0c0,0,0,0,0,0c-0.1-0.1-0.3-0.2-0.4-0.3c-0.4-0.1-0.8-0.3-1.1-0.4
			c-1.6-0.4-3.2-0.6-4.8-0.9c1.6,0.1,3.3,0.2,4.9,0.5c0.4,0.1,0.8,0.2,1.2,0.3c0.2,0.1,0.4,0.1,0.6,0.4c0.1,0.1,0.1,0.1,0.1,0.2
			c0,0.1,0,0.2,0,0.3c0,0.1-0.1,0.2-0.2,0.3c-0.6,0.7-1.3,1.1-2.1,1.5l-0.1-0.5c1,0.2,1.9,0.5,2.8,0.8c0.9,0.4,1.7,0.9,2.5,1.4
			c1.6,1,3.1,2.2,4.5,3.6l-0.6,0c0.4-0.5,0.9-0.9,1.4-1.3c0.3-0.2,0.5-0.4,0.9-0.5c0.2-0.1,0.4-0.1,0.7-0.1c0.3,0.1,0.5,0.4,0.5,0.6
			c0.2,0.8-0.1,1.4-0.3,2.1c-0.2,0.6-0.5,1.2-0.9,1.7l-0.4-0.5c0.7-0.2,1.4-0.4,2.1-0.5c0.7-0.1,1.4-0.3,2.3-0.1
			c0.2,0.1,0.4,0.2,0.6,0.4c0.2,0.2,0.2,0.5,0.2,0.7c0,0.4-0.3,0.8-0.7,1.1c-0.7,0.5-1.4,0.6-2.2,0.7l0.1-0.4
			c0.9,0.8,1.7,1.7,2.6,2.6C146.4,271.4,147.2,272.3,148,273.2z" class="st9"></path>
		<path d="M192.5,360.4c0.7-0.4,1.4-0.9,2.1-1.4c0.6-0.5,1.3-1,1.7-1.7c0.2-0.3,0.3-0.7,0.2-1c-0.1-0.3-0.4-0.5-0.7-0.6
			c-0.7-0.2-1.6-0.2-2.3-0.1l-1,0.2l0.8-0.7c0.7-0.6,1.3-1.2,1.9-1.9c0.6-0.7,1.1-1.4,1.4-2.2c0.2-0.4,0.2-0.8,0.1-1.1
			c-0.1-0.4-0.3-0.7-0.6-0.9c-0.6-0.4-1.6-0.2-2.3,0l-0.5,0.2l0-0.6c0.1-1.7,0.1-3.4-0.1-5.1c-0.1-1.7-0.4-3.4-0.8-5
			c-0.4-1.7-0.9-3.3-1.5-4.8c-0.6-1.6-1.5-3.1-2.3-4.5c1,1.4,2,2.8,2.7,4.4c0.7,1.6,1.3,3.2,1.7,4.9c0.5,1.7,0.7,3.4,0.9,5.1
			c0.2,1.7,0.2,3.4,0.1,5.2l-0.5-0.4c0.5-0.1,0.9-0.2,1.4-0.2c0.5,0,1,0.1,1.5,0.4c0.5,0.3,0.8,0.8,0.9,1.3c0.1,0.5,0,1.1-0.1,1.5
			c-0.3,0.9-0.9,1.7-1.5,2.4c-0.6,0.7-1.3,1.3-2,1.9l-0.2-0.5c0.9-0.1,1.7-0.1,2.6,0.2c0.4,0.1,0.9,0.5,1,1c0.1,0.5,0,1-0.3,1.3
			c-0.5,0.7-1.2,1.2-1.9,1.7C194,359.7,193.2,360.1,192.5,360.4z" class="st9"></path>
		<g>
			<path d="M116.6,280c-1-2.4-1.8-4.8-2.5-7.2c-0.7-2.4-1.3-4.9-1.8-7.4c1,2.4,1.8,4.8,2.5,7.2
				C115.5,275,116.2,277.5,116.6,280z" class="st2"></path>
			<path d="M106.3,267.3c1.5,2,2.8,4.1,4,6.2c1.2,2.1,2.4,4.3,3.4,6.6c-1.5-2-2.8-4.1-4-6.2
				C108.4,271.7,107.3,269.6,106.3,267.3z" class="st2"></path>
			<path d="M100.5,272.7c2.2,1.1,4.3,2.4,6.3,3.8c2,1.4,4,2.8,5.9,4.4c-2.2-1.1-4.3-2.4-6.3-3.8
				C104.4,275.7,102.4,274.3,100.5,272.7z" class="st2"></path>
		</g>
		<g>
			<path d="M164.5,342.4c1.9,1.7,3.6,3.6,5.3,5.5c1.7,1.9,3.3,3.9,4.8,6c-1.9-1.7-3.6-3.6-5.3-5.5
				C167.6,346.4,166,344.5,164.5,342.4z" class="st2"></path>
			<path d="M169.7,357.9c-1.4-2-2.6-4.2-3.7-6.4c-1.1-2.2-2.2-4.4-3.1-6.7c1.4,2,2.6,4.2,3.7,6.4
				C167.8,353.3,168.9,355.5,169.7,357.9z" class="st2"></path>
			<path d="M162.1,359.8c-0.4-2.4-0.5-4.9-0.6-7.4c-0.1-2.5,0-4.9,0.2-7.4c0.4,2.4,0.5,4.9,0.6,7.4
				C162.3,354.9,162.3,357.4,162.1,359.8z" class="st2"></path>
		</g>
		<path d="M160.3,373.2c1.2-0.7,2.7-0.3,3.8,0.4c3,2,4.1,5.8,4.9,9.2c0.2,0.8,0.5,2,0.8,3.3c-4.1,0.7-8.4,0.8-12.4,0.6
			c0.1-1.2,0.4-2.3,0.7-3.5c0.4-1.8,0.7-3.6,0.7-5.5C158.8,376.2,158.8,374.1,160.3,373.2z" class="st2"></path>
		<path d="M144.9,378.3c0.5-0.6,1.2-1.2,2-1.3c0.6-0.1,1.3,0.1,1.8,0.5c1.4,1,1.9,2.8,2.1,4.5c0.2,1.1,0.5,2.7,0.5,4.4
			c-3.2-0.4-6.1-0.9-8.4-1.4c-0.1-0.8,0-1.6,0.1-2.3C143.3,381.1,143.9,379.5,144.9,378.3z" class="st2"></path>
		<path d="M88.7,259.7c2.9,2.5,5.4,5.5,6.8,9c1,2.4-0.1,4.6-2.9,4.6c-2.5-0.1-4.7-1.9-6.4-3.6c-0.2-0.2-0.3-0.3-0.5-0.5
			c-1-1.1-2-2-3-2.9C84.7,263.7,86.7,261.5,88.7,259.7z" class="st2"></path>
		<path d="M79.5,271.7c1.3,0.9,2.6,1.9,4,2.8c0.9,0.6,1.8,1.2,2.4,2.1c0.6,0.9,0.9,2.1,0.5,3c-0.4,1-1.5,1.5-2.5,1.6
			c-2.1,0.2-5.1-1-7.5-2.4C77.3,276.2,78.4,273.8,79.5,271.7z" class="st2"></path>
		<g>
			<path d="M124.8,321.7c0,0-0.6,4.2,0.8,4.8c1.4,0.6,2.3-5.8,1.6-7.2c-0.7-1.4-6.9-0.3-7.1,1
				C119.9,321.6,124.8,321.7,124.8,321.7z" class="st2"></path>
			<path d="M137.2,303.1c-0.8,1.4-1.6,2.8-2.4,4.2l-2.5,4.2c-0.8,1.4-1.7,2.8-2.6,4.1c-0.9,1.4-1.8,2.7-2.8,4l-0.6-0.7
				c2.8-1.5,5.5-3.1,8.2-4.6c1.4-0.8,2.7-1.6,4-2.5c1.3-0.8,2.6-1.7,3.9-2.6c-1.2,1.1-2.4,2-3.7,3c-1.3,0.9-2.6,1.8-3.9,2.7
				c-2.6,1.7-5.4,3.3-8.1,4.9l-1.9,1.1l1.4-1.8c1-1.2,1.9-2.6,2.8-3.9l2.7-4l2.7-4C135.3,305.8,136.2,304.5,137.2,303.1z" class="st2"></path>
			<path d="M132.1,323.9c2.2,1.5,5,2.2,7.8,1.6c4.1-0.9,7.6-3.7,8.1-7.9c0.3-2.6-0.5-5.1-1.7-7.3
				c-2.2-4.2-4.7-8.3-8.9-10.8c-1.5-0.9-3.2-1.6-5.1-1.8c-2.8-0.3-5.9,0.9-8.2,3c-2.2,2.1-3.5,5.1-3.3,7.9c0.2,3.4,2.4,6.8,4.7,9.1
				C127.7,319.7,129.7,322.3,132.1,323.9z" class="st10"></path>
		</g>
		<path d="M148.2,358.7c-0.5,0-1.1-0.2-1.4-0.7L135,342.3c-0.6-0.8-0.4-1.9,0.4-2.5c0.8-0.6,1.9-0.4,2.5,0.4l11.7,15.7
			c0.6,0.8,0.4,1.9-0.4,2.5C148.9,358.5,148.5,358.7,148.2,358.7z" class="st2"></path>
		<path d="M108,303.6c-0.5,0-1.1-0.2-1.4-0.7L96.2,289c-0.6-0.8-0.4-1.9,0.4-2.5c0.8-0.6,1.9-0.4,2.5,0.4l10.4,13.8
			c0.6,0.8,0.4,1.9-0.4,2.5C108.8,303.5,108.4,303.6,108,303.6z" class="st2"></path>
		<path d="M388.3,201c1.7-1.4,3.3-2.4,4.7-3.7c0.7-0.6,1.4-1.3,1.9-2c0.5-0.8,1-1.6,1.3-2.6c0.4,1,0.4,2.2-0.1,3.3
			c-0.4,1.1-1.2,2-2,2.7c-0.8,0.7-1.8,1.3-2.8,1.7C390.5,200.7,389.4,201,388.3,201z" class="st2"></path>
		<path d="M260,188.1c1.3-0.6,2.8-0.8,4.2-0.8c1.4,0,2.9,0.2,4.3,0.6c2.8,0.8,5.3,2.5,7,4.8c-1.3-0.6-2.5-1.2-3.8-1.7
			c-1.2-0.5-2.5-1-3.8-1.4c-1.3-0.4-2.6-0.7-3.9-1C262.7,188.5,261.4,188.3,260,188.1z" class="st9"></path>
		<path d="M274.2,184.2c-0.9,0.7-1.6,1.5-2.3,2.2c-0.7,0.8-1.5,1.5-2.2,2.3l-2.2,2.3c-0.7,0.8-1.4,1.6-2.3,2.3
			c0.4-2.2,1.7-4.2,3.2-5.8c0.8-0.8,1.6-1.5,2.6-2.1C272,184.8,273,184.2,274.2,184.2z" class="st9"></path>
		<path d="M237.3,366c-4.6,2-9.4,3.4-14.2,4.3c-0.4-2.6-0.5-5.3-0.6-7.4c0-1.4,0-2.8,0.4-4.1c0.4-1.3,1.4-2.5,2.7-3
			c2.5-0.9,5.1,1.1,6.8,3.2C234.4,361,236,363.4,237.3,366z" class="st2"></path>
		<path d="M261.2,340.9c-1.5,4.3-3.5,7.9-5.9,11.2c-2.6-1.1-4.7-3.1-6.4-5.4c-1.1-1.5-2.1-3.6-1.1-5.2
			c0.8-1.3,2.7-1.6,4.3-1.6C254.1,339.9,257.9,340,261.2,340.9z" class="st2"></path>
		<path d="M296.5,308.8c-3.4,8-8.3,13.4-13.5,16.9c-0.1-0.2-0.2-0.3-0.2-0.5c-0.6-1.3-0.7-2.8-0.9-4.2
			c-0.7-5.1-2.2-10.1-4.2-14.8c-1.3-3.1-2.9-6.8-1-9.5c1.3-1.9,3.9-2.5,6.2-2C288.9,296.1,293.6,302.5,296.5,308.8z" class="st2"></path>
		<path d="M333.2,279.4c-4.6,4.6-9.5,8.1-14,10.7c-1.5-3.5-1.5-8.8-1.8-12c-0.1-1.2-0.2-2.5,0.3-3.6
			c0.4-1,1.2-1.8,2.1-2.4c1.9-1.3,4.6-1.7,6.7-0.6c1.2,0.6,2.1,1.7,3,2.7c1.3,1.5,2.5,3,3.5,4.7
			C333.1,279.1,333.1,279.2,333.2,279.4z" class="st2"></path>
		<path d="M351.3,247.1c-1.3,5.1-3,9.7-5,13.9c-4.4-1.8-8.6-5.9-10-9.2c-0.4-0.9-0.7-2-0.5-3c0.5-2.9,3.8-3.8,6.3-3.5
			c1,0.1,2.4,0.3,3.9,0.5C347.6,246,349.5,246.5,351.3,247.1z" class="st2"></path>
		<path d="M115.2,217.2c0,0-24,21.7-36.8,47.3L25,241.8c0,0,17.9-30.4,39-47.3L115.2,217.2z" class="st4"></path>
		<path d="M156.1,257.5l13.2,10.7l-10.3-5l8.6,6.5l-5.2-1.6c0,0,4.7,6.7,13.2,4.2c0,0,0.8,7.2,4.7,9.8
			c0,0-2.8-4.9-2.6-8.6c0,0,2.3,10.4,10.6,14.2c8.3,3.7-4.2-21-4.2-21l-9.3-1l-4.9,0.5L156.1,257.5z" class="st11"></path>
		<path d="M277.3,285.4l-69,49.2c0,0-24.9-56.3-25.1-58.8c0-0.1,0-0.2,0-0.4c0.1-5.6-5.4-11.6-12-8.8
			c0,0-0.1-0.1-0.2-0.1c-4-2.4-53.9-33.7-53.9-33.7s57-44.4,63.2-48.5c6.2-4.1,57.1,27.3,57.1,27.3s0.4,0.2,1.1,0.1c0,0,0.1,0,0.1,0
			c5.6-1.2,12.2,2.1,12.3,10.6L277.3,285.4z" class="st5"></path>
		<path d="M170,172.1c-14.7,6.3-14.3,31.3-14.3,31.3s10.9-8.2,10.9-8.3c-2.1,1.6,5.6,8.9,6.5,9.8
			c4.1,4.1,9.2,8.6,15.5,7.1c9.6-2.2,15.7-11.5,15.2-21.1C203.1,175,183.8,166.1,170,172.1z" class="st0"></path>
		<path d="M182,210.9c0.2-1.8,0.6-3.5,0.8-5.2c0.2-1.7,0.3-3.4,0.1-5.1c-0.1-1.7-0.3-3.4-0.7-5c-0.4-1.7-1-3.3-1.5-5
			c1.2,1.3,2.2,2.9,2.8,4.6c0.7,1.7,1.1,3.5,1.2,5.3c0.1,1.8-0.1,3.7-0.6,5.4C183.7,207.8,182.9,209.4,182,210.9z" class="st2"></path>
		<path d="M196.7,207.2c0-1.6,0-3.1,0-4.6c0-1.5,0-3-0.1-4.5c-0.1-3-0.4-5.9-1.5-8.8c1.1,1.1,1.9,2.6,2.4,4.1
			c0.5,1.5,0.7,3.1,0.8,4.7c0.1,1.6-0.1,3.1-0.3,4.7C197.8,204.3,197.4,205.8,196.7,207.2z" class="st2"></path>
		<path d="M230.3,319c0,0-16.2-24.7-2.5-32.4c13.7-7.8,29.2,12.3,35.2,29.2c6,16.9-14.8,21.8-14.8,21.8L230.3,319z" class="st0"></path>
		<path d="M223.3,294.8c1.3-0.4,2.7-0.2,3.9,0.2c1.3,0.4,2.4,1.1,3.4,2c1,0.8,1.9,1.9,2.6,2.9c0.4,0.5,0.7,1.1,0.9,1.7
			c0.2,0.6,0.5,1.2,0.7,1.8c-0.5-0.4-0.9-0.9-1.4-1.3c-0.5-0.4-0.9-0.9-1.3-1.3c-0.9-0.8-1.7-1.7-2.7-2.4c-0.9-0.8-1.9-1.5-2.9-2.1
			C225.6,295.7,224.6,295.1,223.3,294.8z" class="st2"></path>
		<path d="M231.8,285.2c1.4,0.1,2.7,0.5,3.9,1c1.3,0.5,2.4,1.2,3.5,2c1.1,0.9,2.1,1.8,2.8,3c0.7,1.2,1.2,2.5,1.3,3.9
			c-0.7-1.2-1.5-2.1-2.4-3c-0.9-0.9-1.8-1.7-2.8-2.5c-1-0.8-2-1.5-3.1-2.2L231.8,285.2z" class="st2"></path>
		<path d="M255.1,300.3c1.8,3.1,3.2,6.4,4.4,9.7c1.2,3.4,2.2,6.8,2.9,10.3c0.6,3.5,1.1,7.1,0.9,10.7
			c-0.2,3.6-0.9,7.2-2.4,10.4c0.9-3.5,1.1-7,1-10.4l-0.1-2.6l-0.3-2.6c-0.2-1.7-0.5-3.5-0.8-5.2c-0.6-3.4-1.5-6.8-2.4-10.2
			C257.3,307.1,256.3,303.7,255.1,300.3z" class="st9"></path>
		<path d="M229.4,318.9c1.4,4.5,1.9,9.3,1.4,14c-0.3,2.4-0.9,4.7-2,6.9c-1.1,2.2-2.9,4-5.2,4.8c1.9-1.4,3.1-3.4,3.9-5.4
			c0.8-2.1,1.3-4.3,1.5-6.5c0.3-2.2,0.4-4.5,0.4-6.8C229.5,323.5,229.5,321.2,229.4,318.9z" class="st9"></path>
		<path d="M251.2,222l-67.9,53.4c0.1-5.6-5.4-11.6-12-8.8c0,0-0.1-0.1-0.2-0.1l67.4-54.8c0,0,0.1,0,0.1,0
			C244.1,210.5,251,213.5,251.2,222z" class="st2"></path>
		<path d="M190.9,270.1c-0.4,0-0.8-0.3-0.9-0.7c-2.2-8.9-9.3-9.7-9.6-9.7c-0.5-0.1-0.8-0.5-0.8-1c0.1-0.5,0.5-0.8,1-0.8
			c0.1,0,8.7,1,11.2,11.1c0.1,0.5-0.2,1-0.7,1.1C191,270.1,190.9,270.1,190.9,270.1z" class="st0"></path>
		<path d="M240.2,230.6c-0.4,0-0.8-0.3-0.9-0.7c-2.2-8.9-9.5-9.7-9.6-9.7c-0.5,0-0.8-0.5-0.8-1c0-0.5,0.5-0.8,1-0.8
			c0.1,0,8.7,1,11.2,11.1c0.1,0.5-0.2,1-0.7,1.1C240.3,230.6,240.2,230.6,240.2,230.6z" class="st0"></path>
		<path d="M208.3,335.5c-0.3,0-0.7-0.2-0.8-0.5l-25-59.2c0-0.1-0.1-0.1-0.1-0.2c-0.5-3.6-1.8-6.2-3.9-7.5
			c-3.1-2-7.1-0.7-7.1-0.7c-0.3,0.1-0.5,0-0.7-0.1l-53.8-33.5c-0.4-0.3-0.5-0.8-0.3-1.2c0.3-0.4,0.8-0.5,1.2-0.3l53.5,33.3
			c1.2-0.3,5-1,8.2,1c2.6,1.6,4.2,4.5,4.8,8.7l25,59c0.2,0.5,0,1-0.5,1.2C208.5,335.5,208.4,335.5,208.3,335.5z" class="st2"></path>
		<path d="M121.1,191.7c-3.5-5.8-15.8-9.7-15.8-9.7l-0.5,0.1l-0.2,0.1c0.1-0.1,0.2-0.1,0.4-0.2
			c4.9-2.5,18.2-5.7,21.2-6.4c0.4-0.1,0.6-0.1,0.6-0.1c0.1,0.1,0.1,0.3,0.1,0.4C127.9,180.3,121.1,191.7,121.1,191.7z" class="st4"></path>
		<path d="M73.1,290.1c0.6-4.5,1.7-8.9,3.2-13.1c1.5-4.3,3.7-8.3,6.4-12c2.8-3.7,6.1-6.9,10.1-9.2
			c3.9-2.3,8.4-3.9,12.9-3.8c-2.2,0.3-4.4,1-6.4,1.8c-2,0.8-4,1.9-5.8,3.1c-3.6,2.5-6.8,5.6-9.4,9.1c-2.7,3.5-4.8,7.4-6.6,11.5
			c-0.9,2-1.7,4.1-2.4,6.2C74.4,285.8,73.7,287.9,73.1,290.1z" class="st9"></path>
		<path d="M189.7,374.8c-1.2,2.1-2.8,3.9-4.6,5.5c-1.8,1.6-3.9,2.9-6.1,3.9c-4.4,2.1-9.3,3-14.1,3.4
			c-2.4,0.2-4.8,0.2-7.2,0c-2.4-0.2-4.8-0.4-7.2-0.8l-7-1.4c-2.3-0.5-4.6-1.3-6.9-2c2.4,0.3,4.7,0.9,7,1.1l7,0.9
			c2.3,0.2,4.7,0.3,7,0.5c2.3,0.1,4.7,0,7-0.1c4.7-0.3,9.3-1.2,13.6-2.9C182.8,381.3,186.7,378.5,189.7,374.8z" class="st9"></path>
	</g>
	<path d="M266.5,114.3c0-1,0.3-1.9,0.6-2.7c0.3-0.9,0.8-1.7,1.4-2.4c0.6-0.7,1.3-1.4,2.1-1.9c0.8-0.5,1.8-0.8,2.8-0.7
		c-1.5,1.2-2.4,2.3-3.5,3.7C268.8,111.6,267.8,113,266.5,114.3z" class="st2"></path>
</g>
</svg>
