<svg xml:space="preserve" style="enable-background:new 0 0 500 500;" viewBox="0 0 500 500" y="0px" x="0px"
     xmlns="http://www.w3.org/2000/svg" id="图层_1" version="1.0">
<style type="text/css">
	.st0{fill:#5ED5B5;}
	.st1{fill:#FC903E;}
	.st2{fill:#FB5555;}
	.st3{opacity:0.2;fill:#A0312F;}
	.st4{fill:#A0312F;}
	.st5{fill:#FCBC86;}
	.st6{opacity:0.48;fill:#FB5555;}
	.st7{opacity:0.49;fill:#A0312F;}
	.st8{opacity:0.48;fill:#A0312F;}
	.st9{fill:#FFFFFF;}
	.st10{opacity:0.21;fill:#A0312F;}
</style>
<g>
	<path d="M452.1,334.5c-45.6-21-194.4-89.7-195.8-91.1l0.7-0.7l0.6-0.8c2.9,1.9,129.1,60.2,195.3,90.7L452.1,334.5z" class="st0"></path>
	<path d="M348.5,186.3c-3.4-5.9-8.4-12-15.2-18.3c-0.1-0.1-0.2-0.2-0.2-0.2c-0.3-0.3-0.5-0.5-0.9-0.8
		c-1.6-1.4-3.2-2.8-5-4.2c-0.6-0.5-1.3-1-2-1.5c-0.2-0.1-0.4-0.3-0.6-0.5c-6.1-4.6-11.9-8.7-17.6-12.3c-1.3-0.8-2.6-1.6-3.9-2.4l0,0
		c-3.1-1.9-6.2-3.5-9.2-5.1c-0.3-0.2-0.6-0.3-0.9-0.5c-17.8-8.9-32.9-11.6-44.8-8.4c-0.5,0.1-1.1,0.3-1.6,0.5
		c-2.9,0.9-5.6,2.3-8.1,3.9c-0.6,0.4-1.2,0.8-1.7,1.2c-0.3,0.2-0.5,0.4-0.8,0.6c-0.4,0.4-0.9,0.7-1.3,1.1c-0.3,0.2-0.5,0.4-0.7,0.6
		c-3.3,2.9-6.2,5.9-8.7,9.1l0,0.1c-0.4,0.5-0.8,1.1-1.2,1.6c-0.8,1.1-1.6,2.3-2.3,3.4c-0.9,1.4-1.6,2.8-2.3,4.2
		c-1.4,2.8-2.4,5.7-3.2,8.7c-0.2,1-0.5,2.1-0.6,3.1c-0.3,1.6-0.4,3.2-0.5,4.9c-18.6,1.5-79.9,7.4-102.1,19.6
		c-6.1,3.4-12.4,7.4-18.4,12.1c-8.3,6.5-16.2,14.3-22.9,23.7c-3.3,4.7-6.4,9.8-9,15.3c-3.2,6.7-5.8,14.1-7.7,22.1
		c-0.7,3.2-1.4,6.4-1.9,9.5c-1,5.6-1.7,11.1-2.1,16.5c-0.9,10.7-0.7,21,0.6,30.7c0.7,5.6,1.8,10.9,3.3,16
		c3.3,11.7,8.5,22.2,15.6,30.9c4.3,5.3,9.3,9.9,14.9,13.8c17.5,12.1,41.5,17.1,72.1,12.2c0,0,6.3,19.3,20.3,16.9
		c14-2.4,30.4-3.4,44.9,0c14.5,3.4,18.4-8.2,15-13.5c-3.4-5.3-27.5-14.8-44.4-13.3l1-5l0.6-3.1c0,0,63.6-8.5,67.5-72.3
		c0.9-14.5,25.7-26.7,39-39c1.5,0.8,2.4,1.2,2.4,1.2s13.2-8.8,15.6-9.7c4.9-1.8,13.6-5.9,21.3-14.7c0.4-0.5,0.9-1.1,1.4-1.6
		c1-1.2,2-2.5,2.9-3.9c0-0.1,0.1-0.1,0.1-0.2c0.7-1.1,1.5-2.3,2.2-3.5c0.1-0.3,0.3-0.5,0.4-0.8c0.1-0.3,0.3-0.5,0.4-0.8
		c1.2-2.4,2.4-4.8,3.3-7.3c0.2-0.5,0.4-1,0.6-1.5c0.4-1.1,0.7-2.2,1.1-3.3c0-0.1,0.1-0.2,0.1-0.3c0.6-2.2,1.1-4.5,1.4-6.8
		c0.1-0.6,0.2-1.2,0.2-1.7C355.5,204.9,354,195.8,348.5,186.3z" class="st1"></path>
	<path d="M448.5,414.9c-45.6-21-194.4-89.7-195.8-91.1l1.4-1.4l-0.7,0.7l0.6-0.8c2.9,1.9,129.1,60.2,195.3,90.7
		L448.5,414.9z" class="st0"></path>
	<path d="M327.6,383.1c-0.5,0-0.9-0.3-1-0.8c-0.1-0.5,0.2-1.1,0.8-1.2c1.1-0.2,2.2-0.7,3.4-1.3c0.5-0.3,1.1-0.1,1.4,0.3
		c0.3,0.5,0.1,1.1-0.3,1.4c-1.3,0.8-2.7,1.3-4,1.6C327.8,383.1,327.7,383.1,327.6,383.1z M323.7,382.9c-0.1,0-0.2,0-0.3,0
		c-1.3-0.4-2.6-1.2-3.7-2.3c-0.4-0.4-0.4-1,0-1.4c0.4-0.4,1-0.4,1.4,0c0.9,0.9,1.9,1.5,3,1.8c0.5,0.2,0.8,0.7,0.6,1.3
		C324.5,382.6,324.1,382.9,323.7,382.9z M334.5,379.2c-0.3,0-0.5-0.1-0.7-0.3c-0.4-0.4-0.3-1,0.1-1.4c0.9-0.8,1.8-1.8,2.6-2.8
		c0.4-0.4,1-0.5,1.4-0.1c0.4,0.4,0.5,1,0.1,1.4c-0.9,1.1-1.9,2.1-2.8,3C335,379.1,334.7,379.2,334.5,379.2z M317.9,377.7
		c-0.3,0-0.7-0.2-0.9-0.5c-0.3-0.4-0.5-0.9-0.8-1.4c-0.4-0.8-0.7-1.6-0.9-2.5c-0.1-0.5,0.2-1.1,0.7-1.2c0.5-0.1,1.1,0.2,1.2,0.7
		c0.2,0.8,0.4,1.5,0.8,2.1c0.2,0.5,0.4,0.9,0.7,1.3c0.3,0.5,0.1,1.1-0.4,1.4C318.2,377.7,318.1,377.7,317.9,377.7z M339.6,373.1
		c-0.2,0-0.4-0.1-0.6-0.2c-0.5-0.3-0.6-0.9-0.3-1.4c0.7-1,1.4-2.1,2.1-3.3c0.3-0.5,0.9-0.6,1.4-0.4c0.5,0.3,0.6,0.9,0.4,1.4
		c-0.7,1.2-1.4,2.4-2.1,3.4C340.2,373,339.9,373.1,339.6,373.1z M315.9,370.1C315.9,370.1,315.9,370.1,315.9,370.1c-0.6,0-1-0.5-1-1
		c0-1.3,0.2-2.7,0.5-4.1c0.1-0.5,0.6-0.9,1.2-0.8c0.5,0.1,0.9,0.6,0.8,1.2c-0.3,1.3-0.4,2.6-0.4,3.8
		C316.9,369.7,316.5,370.1,315.9,370.1z M343.6,366.2c-0.1,0-0.3,0-0.4-0.1c-0.5-0.2-0.7-0.8-0.4-1.3l1.8-3.6
		c0.2-0.5,0.8-0.7,1.3-0.5c0.5,0.2,0.7,0.8,0.5,1.3l-1.8,3.6C344.3,366,343.9,366.2,343.6,366.2z M317.3,362.3c-0.1,0-0.2,0-0.3,0
		c-0.5-0.2-0.8-0.7-0.7-1.2c0.4-1.2,0.9-2.5,1.4-3.8c0.2-0.5,0.8-0.8,1.3-0.5c0.5,0.2,0.8,0.8,0.5,1.3c-0.5,1.3-1,2.5-1.3,3.7
		C318.2,362,317.8,362.3,317.3,362.3z M347.1,359c-0.1,0-0.3,0-0.4-0.1c-0.5-0.2-0.7-0.8-0.5-1.3l1.7-3.6c0.2-0.5,0.8-0.7,1.3-0.5
		c0.5,0.2,0.7,0.8,0.5,1.3l-1.7,3.6C347.8,358.8,347.5,359,347.1,359z M320.3,354.9c-0.1,0-0.3,0-0.4-0.1c-0.5-0.2-0.7-0.8-0.5-1.3
		c0.6-1.3,1.3-2.5,1.9-3.6c0.3-0.5,0.9-0.7,1.4-0.4c0.5,0.3,0.7,0.9,0.4,1.4c-0.6,1.1-1.2,2.3-1.8,3.5
		C321.1,354.7,320.7,354.9,320.3,354.9z M350.6,351.8c-0.1,0-0.3,0-0.4-0.1c-0.5-0.2-0.7-0.8-0.5-1.3l1.7-3.6
		c0.2-0.5,0.8-0.7,1.3-0.5c0.5,0.2,0.7,0.8,0.5,1.3l-1.7,3.6C351.3,351.6,350.9,351.8,350.6,351.8z M324.2,347.9
		c-0.2,0-0.4,0-0.5-0.1c-0.5-0.3-0.6-0.9-0.3-1.4c1-1.6,1.8-2.7,2.2-3.4c0.3-0.5,0.9-0.6,1.4-0.2c0.5,0.3,0.6,0.9,0.2,1.4
		c-0.4,0.6-1.2,1.8-2.2,3.3C324.9,347.7,324.5,347.9,324.2,347.9z M354,344.7c-0.1,0-0.3,0-0.4-0.1c-0.5-0.2-0.7-0.8-0.5-1.3
		l1.8-3.6c0.2-0.5,0.8-0.7,1.3-0.5c0.5,0.2,0.7,0.8,0.5,1.3l-1.7,3.6C354.8,344.4,354.4,344.7,354,344.7z M357.5,337.5
		c-0.1,0-0.3,0-0.4-0.1c-0.5-0.2-0.7-0.8-0.5-1.3l1.8-3.6c0.2-0.5,0.8-0.7,1.3-0.5c0.5,0.2,0.7,0.8,0.5,1.3l-1.8,3.6
		C358.3,337.3,357.9,337.5,357.5,337.5z M362,329.8l-1.8-0.9l1.8-3.6c0.2-0.5,0.8-0.7,1.3-0.4c0.5,0.2,0.7,0.8,0.4,1.3L362,329.8z
		 M364.7,323.2c-0.2,0-0.3,0-0.5-0.1c-0.5-0.2-0.7-0.8-0.4-1.3c0.4-0.9,0.9-1.7,1.3-2.6c-0.3,0-0.5,0-0.8,0c-0.6,0.1-1-0.4-1-1
		c0-0.6,0.4-1,1-1c1.3,0,2.6-0.1,3.9-0.3c0.5-0.1,1,0.3,1.1,0.9c0.1,0.5-0.3,1-0.9,1.1c-0.3,0-0.7,0.1-1,0.1c0,0,0,0.1,0,0.1
		c-0.6,1.2-1.2,2.4-1.8,3.5C365.4,323,365,323.2,364.7,323.2z M360.3,319.1C360.3,319.1,360.3,319.1,360.3,319.1
		c-1.4-0.1-2.8-0.2-4.1-0.4c-0.5-0.1-0.9-0.6-0.8-1.1c0.1-0.5,0.6-0.9,1.1-0.8c1.3,0.2,2.6,0.3,3.9,0.4c0.5,0,1,0.5,0.9,1.1
		C361.3,318.7,360.9,319.1,360.3,319.1z M372.2,318.2c-0.5,0-0.9-0.3-1-0.8c-0.1-0.5,0.2-1.1,0.8-1.2c1.3-0.3,2.5-0.6,3.7-1.1
		c0.5-0.2,1.1,0.1,1.3,0.6c0.2,0.5-0.1,1.1-0.6,1.3c-1.3,0.4-2.6,0.8-3.9,1.1C372.4,318.2,372.3,318.2,372.2,318.2z M352.5,317.9
		c-0.1,0-0.1,0-0.2,0c-1.3-0.3-2.6-0.6-3.9-1c-0.5-0.2-0.8-0.7-0.7-1.2c0.2-0.5,0.7-0.8,1.2-0.7c1.2,0.3,2.4,0.7,3.8,1
		c0.5,0.1,0.9,0.6,0.8,1.2C353.3,317.6,352.9,317.9,352.5,317.9z M368.4,316.1c-0.2,0-0.3,0-0.5-0.1c-0.5-0.3-0.7-0.9-0.4-1.3
		c0.6-1.2,1.2-2.4,1.9-3.5c0.3-0.5,0.9-0.7,1.3-0.4c0.5,0.3,0.7,0.9,0.4,1.3c-0.6,1.2-1.2,2.3-1.9,3.5
		C369.1,315.9,368.7,316.1,368.4,316.1z M344.8,315.7c-0.1,0-0.2,0-0.3-0.1c-2.4-0.8-3.7-1.5-3.8-1.5c-0.5-0.2-0.7-0.8-0.5-1.3
		c0.2-0.5,0.8-0.7,1.3-0.5c0,0,1.4,0.7,3.6,1.5c0.5,0.2,0.8,0.8,0.6,1.3C345.6,315.4,345.2,315.7,344.8,315.7z M379.7,315.6
		c-0.4,0-0.7-0.2-0.9-0.5c-0.3-0.5-0.1-1.1,0.4-1.3c1.1-0.6,2.2-1.3,3.3-2c0.4-0.3,1.1-0.2,1.4,0.2c0.3,0.4,0.2,1.1-0.2,1.4
		c-1.1,0.8-2.3,1.6-3.5,2.2C380,315.5,379.9,315.6,379.7,315.6z M386.2,310.9c-0.3,0-0.5-0.1-0.7-0.3c-0.4-0.4-0.4-1,0.1-1.4
		c0.9-0.9,1.8-1.8,2.7-2.8c0.4-0.4,1-0.5,1.4-0.1c0.4,0.4,0.5,1,0.1,1.4c-0.9,1-1.9,2-2.8,2.9C386.7,310.8,386.4,310.9,386.2,310.9z
		 M372.1,309c-0.2,0-0.3,0-0.5-0.1c-0.5-0.3-0.7-0.9-0.4-1.4c0.6-1.2,1.3-2.4,1.9-3.5c0.3-0.5,0.9-0.7,1.4-0.4
		c0.5,0.3,0.7,0.9,0.4,1.4c-0.6,1.1-1.3,2.3-1.9,3.5C372.8,308.9,372.5,309,372.1,309z M391.4,304.9c-0.2,0-0.4-0.1-0.6-0.2
		c-0.4-0.3-0.6-0.9-0.2-1.4c0.8-1.1,1.5-2.2,2.1-3.3c0.3-0.5,0.9-0.6,1.4-0.4c0.5,0.3,0.6,0.9,0.4,1.4c-0.7,1.2-1.4,2.3-2.2,3.4
		C392,304.8,391.7,304.9,391.4,304.9z M376,302.1c-0.2,0-0.3,0-0.5-0.1c-0.5-0.3-0.6-0.9-0.4-1.4c0.7-1.2,1.3-2.3,2-3.5
		c0.3-0.5,0.9-0.6,1.4-0.4c0.5,0.3,0.6,0.9,0.4,1.4c-0.7,1.1-1.3,2.3-2,3.4C376.7,301.9,376.4,302.1,376,302.1z M395.5,298.1
		c-0.1,0-0.3,0-0.4-0.1c-0.5-0.2-0.7-0.8-0.5-1.3c0.6-1.2,1.1-2.4,1.5-3.6c0.2-0.5,0.8-0.8,1.3-0.6c0.5,0.2,0.8,0.8,0.6,1.3
		c-0.4,1.2-1,2.5-1.6,3.8C396.2,297.9,395.8,298.1,395.5,298.1z M380.1,295.2c-0.2,0-0.4,0-0.5-0.1c-0.5-0.3-0.6-0.9-0.3-1.4
		c0.7-1.2,1.4-2.3,2.1-3.4c0.3-0.5,0.9-0.6,1.4-0.3c0.5,0.3,0.6,0.9,0.3,1.4c-0.7,1.1-1.4,2.2-2.1,3.4
		C380.7,295,380.4,295.2,380.1,295.2z M398.1,290.6c-0.1,0-0.1,0-0.2,0c-0.5-0.1-0.9-0.7-0.7-1.2c0.3-1.3,0.5-2.6,0.6-3.8
		c0-0.5,0.5-1,1-0.9c0.5,0,1,0.5,0.9,1c-0.1,1.3-0.3,2.7-0.6,4.1C399,290.2,398.6,290.6,398.1,290.6z M384.4,288.5
		c-0.2,0-0.4-0.1-0.6-0.2c-0.5-0.3-0.6-0.9-0.2-1.4c0.8-1.2,1.6-2.3,2.4-3.3c0.3-0.4,1-0.5,1.4-0.2c0.4,0.3,0.5,1,0.2,1.4
		c-0.8,1-1.5,2-2.3,3.2C385.1,288.3,384.7,288.5,384.4,288.5z M398.3,282.7c-0.4,0-0.8-0.3-1-0.7c-0.3-1.2-0.9-2.1-1.8-2.6
		c-0.5-0.3-0.6-0.9-0.4-1.4c0.3-0.5,0.9-0.6,1.4-0.4c1.3,0.7,2.2,2,2.7,3.8c0.1,0.5-0.2,1.1-0.7,1.2
		C398.5,282.6,398.4,282.7,398.3,282.7z M389.4,282.2c-0.2,0-0.5-0.1-0.7-0.3c-0.4-0.4-0.4-1,0-1.4c1.2-1.3,2.3-2.2,3.2-2.8
		c0.5-0.3,1.1-0.1,1.4,0.3c0.3,0.5,0.1,1.1-0.3,1.4c-0.8,0.5-1.8,1.3-2.8,2.4C389.9,282.1,389.6,282.2,389.4,282.2z" class="st2"></path>
	<path d="M469,422.2c-0.7,0-1.4-0.1-2.1-0.3c-0.5-0.1-0.8-0.7-0.7-1.2c0.1-0.5,0.7-0.8,1.2-0.7c1.1,0.3,2.2,0.3,3.4,0
		c0.5-0.2,1.1,0.1,1.2,0.7c0.2,0.5-0.1,1.1-0.7,1.2C470.5,422.1,469.7,422.2,469,422.2z M474.5,420c-0.3,0-0.6-0.1-0.8-0.4
		c-0.3-0.4-0.3-1.1,0.2-1.4c0.9-0.7,1.8-1.6,2.7-2.7c0.4-0.4,1-0.5,1.4-0.1c0.4,0.4,0.5,1,0.1,1.4c-1,1.2-2,2.2-3,3
		C474.9,419.9,474.7,420,474.5,420z M464.2,419.5c-0.4,0-0.8-0.3-0.9-0.7c-0.2-0.7-0.4-1.5-0.4-2.4c0-0.6,0.1-1.3,0.2-2
		c0.1-0.5,0.6-0.9,1.1-0.8c0.5,0.1,0.9,0.6,0.8,1.1c-0.1,0.6-0.1,1.2-0.1,1.7c0,0.7,0.1,1.3,0.2,1.8c0.2,0.5-0.1,1.1-0.6,1.3
		C464.4,419.5,464.3,419.5,464.2,419.5z M479.6,413.9c-0.2,0-0.4,0-0.5-0.2c-0.5-0.3-0.6-0.9-0.3-1.4c0.7-1,1.3-2.2,1.9-3.4
		c0.3-0.5,0.9-0.7,1.3-0.4c0.5,0.3,0.7,0.9,0.4,1.3c-0.7,1.3-1.3,2.5-2,3.5C480.3,413.7,479.9,413.9,479.6,413.9z M464.9,411.6
		c-0.1,0-0.2,0-0.3,0c-0.5-0.2-0.8-0.7-0.7-1.2c0.4-1.2,0.8-2.5,1.3-3.8c0.2-0.5,0.8-0.8,1.3-0.6c0.5,0.2,0.8,0.8,0.6,1.3
		c-0.5,1.3-0.9,2.6-1.3,3.7C465.7,411.4,465.3,411.6,464.9,411.6z M437.4,406.8c-0.4,0-0.7-0.2-0.9-0.6c-0.1-0.3-0.1-0.6,0-0.8
		l0.8-1.8c0.2-0.5,0.8-0.7,1.3-0.5c0.2,0.1,0.3,0.2,0.4,0.3c0.2,0,0.3,0.1,0.5,0.2c0.4,0.4,0.4,1,0.1,1.4c-0.9,0.9-1.3,1.5-1.4,1.5
		l0,0C438,406.7,437.8,406.8,437.4,406.8z M483.3,406.8c-0.1,0-0.3,0-0.4-0.1c-0.5-0.2-0.7-0.8-0.5-1.3c0.3-0.7,0.5-1.2,0.5-1.3
		c0.2-0.4,0.6-0.7,1.1-0.7l-0.4,2l0.2-1l0.9,0.4c0,0.1-0.2,0.6-0.6,1.4C484,406.6,483.7,406.8,483.3,406.8z M467.7,404.2
		c-0.1,0-0.3,0-0.4-0.1c-0.5-0.2-0.7-0.8-0.5-1.3c0.5-1.2,1.1-2.4,1.6-3.7c0.2-0.5,0.8-0.7,1.3-0.5c0.5,0.2,0.7,0.8,0.5,1.3
		c-0.5,1.2-1.1,2.4-1.6,3.6C468.5,403.9,468.1,404.2,467.7,404.2z M441.5,402.4c-0.2,0-0.5-0.1-0.7-0.3c-0.4-0.4-0.4-1,0-1.4
		c0.8-0.9,1.8-1.9,2.8-2.9c0.4-0.4,1-0.4,1.4,0c0.4,0.4,0.4,1,0,1.4c-1,1-1.9,2-2.8,2.9C442,402.3,441.8,402.4,441.5,402.4z
		 M439.8,401.3c-0.1,0-0.3,0-0.4-0.1c-0.5-0.2-0.7-0.8-0.5-1.3l1.6-3.7c0.2-0.5,0.8-0.7,1.3-0.5c0.5,0.2,0.7,0.8,0.5,1.3l-1.6,3.7
		C440.5,401.1,440.2,401.3,439.8,401.3z M471,396.9c-0.1,0-0.3,0-0.4-0.1c-0.5-0.2-0.7-0.8-0.5-1.3l1.7-3.6c0.2-0.5,0.8-0.7,1.3-0.5
		c0.5,0.2,0.7,0.8,0.5,1.3l-1.7,3.6C471.7,396.7,471.3,396.9,471,396.9z M447.1,396.7c-0.3,0-0.5-0.1-0.7-0.3c-0.4-0.4-0.4-1,0-1.4
		c0.9-0.9,1.9-1.9,2.9-2.8c0.4-0.4,1-0.4,1.4,0c0.4,0.4,0.4,1,0,1.4c-1,0.9-1.9,1.9-2.8,2.8C447.6,396.6,447.3,396.7,447.1,396.7z
		 M408,395.5c-0.1,0-0.1,0-0.2,0c-0.6-0.1-1.2-0.3-1.8-0.4c-0.8-0.3-1.6-0.6-2.2-1c-0.5-0.3-0.6-0.9-0.4-1.4
		c0.3-0.5,0.9-0.7,1.4-0.4c0.5,0.3,1.2,0.6,1.9,0.8c0.5,0.2,1,0.3,1.5,0.4c0.5,0.1,0.9,0.6,0.8,1.1
		C408.9,395.2,408.5,395.5,408,395.5z M411.9,395.5c-0.5,0-0.9-0.3-1-0.8c-0.1-0.5,0.3-1.1,0.8-1.1c1.2-0.2,2.4-0.6,3.6-1.1
		c0.5-0.2,1.1,0,1.3,0.5c0.2,0.5,0,1.1-0.5,1.3c-1.4,0.6-2.7,1-4,1.2C412,395.5,412,395.5,411.9,395.5z M443,393.9
		c-0.1,0-0.3,0-0.4-0.1c-0.5-0.2-0.7-0.8-0.5-1.3l1.6-3.7c0.2-0.5,0.8-0.7,1.3-0.5c0.5,0.2,0.7,0.8,0.5,1.3l-1.6,3.7
		C443.7,393.7,443.4,393.9,443,393.9z M419.2,392.5c-0.3,0-0.6-0.2-0.8-0.4c-0.3-0.5-0.2-1.1,0.3-1.4c1-0.7,2-1.5,3-2.4
		c0.4-0.4,1-0.4,1.4,0c0.4,0.4,0.4,1,0,1.4c-1,1-2.1,1.8-3.2,2.6C419.6,392.4,419.4,392.5,419.2,392.5z M401.7,391.3
		c-0.4,0-0.8-0.3-1-0.7c-0.1-0.5-0.2-1-0.2-1.5c0-1,0.2-2,0.7-3c0.2-0.5,0.8-0.7,1.3-0.5c0.5,0.2,0.7,0.8,0.5,1.3
		c-0.4,0.8-0.5,1.6-0.5,2.3c0,0.3,0,0.6,0.1,0.9c0.2,0.5-0.2,1.1-0.7,1.2C401.9,391.3,401.8,391.3,401.7,391.3z M452.8,391.1
		c-0.3,0-0.5-0.1-0.7-0.3c-0.4-0.4-0.4-1,0-1.4c1-0.9,2-1.8,2.9-2.7c0.4-0.4,1-0.3,1.4,0.1c0.4,0.4,0.3,1-0.1,1.4
		c-1,0.9-2,1.8-2.9,2.7C453.3,391,453,391.1,452.8,391.1z M474.3,389.6c-0.1,0-0.3,0-0.4-0.1c-0.5-0.2-0.7-0.8-0.5-1.3
		c0.6-1.3,1.1-2.5,1.5-3.6c0.2-0.5,0.8-0.8,1.3-0.6c0.5,0.2,0.8,0.8,0.6,1.3c-0.5,1.2-1,2.4-1.6,3.7
		C475,389.4,474.7,389.6,474.3,389.6z M425.1,387c-0.2,0-0.4-0.1-0.6-0.2c-0.4-0.3-0.5-1-0.1-1.4c0.8-1,1.6-2.1,2.2-3.2
		c0.3-0.5,0.9-0.6,1.4-0.3c0.5,0.3,0.6,0.9,0.3,1.4c-0.7,1.2-1.5,2.3-2.4,3.4C425.6,386.9,425.3,387,425.1,387z M446.2,386.6
		c-0.1,0-0.3,0-0.4-0.1c-0.5-0.2-0.7-0.8-0.5-1.3l1.6-3.6c0.2-0.5,0.8-0.7,1.3-0.5c0.5,0.2,0.7,0.8,0.5,1.3l-1.6,3.6
		C447,386.4,446.6,386.6,446.2,386.6z M458.7,385.7c-0.3,0-0.6-0.1-0.8-0.3c-0.4-0.4-0.3-1,0.1-1.4c1-0.9,2.1-1.7,3.1-2.6
		c0.4-0.3,1.1-0.3,1.4,0.2c0.3,0.4,0.3,1.1-0.2,1.4c-1,0.8-2,1.7-3.1,2.5C459.2,385.7,458.9,385.7,458.7,385.7z M404.3,384.1
		c-0.2,0-0.4-0.1-0.6-0.2c-0.4-0.4-0.5-1-0.1-1.4c0.8-1,1.8-2,2.9-3c0.4-0.4,1-0.3,1.4,0.1c0.4,0.4,0.3,1-0.1,1.4
		c-1,0.9-1.9,1.8-2.7,2.7C404.8,384,404.6,384.1,404.3,384.1z M477.2,382.2c-0.1,0-0.2,0-0.3,0c-0.5-0.2-0.8-0.7-0.7-1.2
		c0.5-1.5,0.7-2.7,0.7-3.6c0-0.5,0.4-1,1-1h0c0.6,0,1,0.4,1,1c0,1.1-0.3,2.5-0.8,4.2C478,381.9,477.6,382.2,477.2,382.2z M465,380.8
		c-0.3,0-0.6-0.1-0.8-0.4c-0.3-0.4-0.2-1.1,0.2-1.4c1.2-0.9,2.3-1.6,3.4-2.3c0.5-0.3,1.1-0.1,1.4,0.3c0.3,0.5,0.1,1.1-0.3,1.4
		c-1,0.6-2.1,1.4-3.2,2.2C465.4,380.7,465.2,380.8,465,380.8z M429.2,380.2c-0.1,0-0.3,0-0.4-0.1c-0.5-0.2-0.7-0.8-0.5-1.3
		c0.5-1.2,0.9-2.4,1.2-3.6c0.1-0.5,0.7-0.9,1.2-0.7c0.5,0.1,0.9,0.7,0.7,1.2c-0.3,1.3-0.8,2.6-1.3,3.9
		C429.9,380,429.6,380.2,429.2,380.2z M374.7,379.5c-0.5,0-0.9-0.4-1-0.9c-0.1-0.5,0.3-1,0.9-1.1c0.9-0.1,2.1-0.5,3.5-1.1
		c0.5-0.2,1.1,0,1.3,0.5c0.2,0.5,0,1.1-0.5,1.3c-1.6,0.7-3,1.1-4.1,1.2C374.8,379.5,374.7,379.5,374.7,379.5z M449.5,379.3
		c-0.1,0-0.3,0-0.4-0.1c-0.5-0.2-0.7-0.8-0.5-1.3l1.7-3.6c0.2-0.5,0.8-0.7,1.3-0.5c0.5,0.2,0.7,0.8,0.5,1.3l-1.7,3.6
		C450.3,379.1,449.9,379.3,449.5,379.3z M410.2,378.8c-0.3,0-0.6-0.1-0.8-0.4c-0.3-0.5-0.2-1.1,0.3-1.4c1.1-0.8,2.3-1.5,3.5-2.1
		c0.5-0.3,1.1-0.1,1.4,0.4c0.3,0.5,0.1,1.1-0.4,1.4c-1.1,0.6-2.2,1.3-3.3,2C410.6,378.7,410.4,378.8,410.2,378.8z M371.5,377.9
		c-0.4,0-0.8-0.3-1-0.7c-0.2-0.6-0.3-1.3-0.3-2c0-0.7,0.1-1.5,0.2-2.4c0.1-0.5,0.6-0.9,1.1-0.8c0.5,0.1,0.9,0.6,0.8,1.1
		c-0.1,0.8-0.2,1.5-0.2,2.1c0,0.6,0.1,1.1,0.2,1.5c0.2,0.5-0.1,1.1-0.7,1.2C371.7,377.8,371.6,377.9,371.5,377.9z M471.8,376.6
		c-0.4,0-0.8-0.2-0.9-0.6c-0.2-0.5,0-1.1,0.5-1.3c1.6-0.7,3-1.1,4.2-1.1c0.6,0,1,0.4,1,1c0,0.6-0.4,1-1,1c-0.9,0-2.1,0.3-3.4,0.9
		C472.1,376.6,471.9,376.6,471.8,376.6z M382.1,376.6c-0.4,0-0.7-0.2-0.9-0.5c-0.3-0.5-0.1-1.1,0.4-1.4c1.1-0.6,2.2-1.3,3.4-2
		c0.5-0.3,1.1-0.2,1.4,0.3c0.3,0.5,0.2,1.1-0.3,1.4c-1.2,0.8-2.4,1.5-3.5,2.1C382.4,376.5,382.2,376.6,382.1,376.6z M417.2,375
		c-0.4,0-0.8-0.2-0.9-0.6c-0.2-0.5,0.1-1.1,0.6-1.3c1.4-0.5,2.8-0.9,4-1.2c0.5-0.1,1.1,0.3,1.2,0.8c0.1,0.5-0.3,1.1-0.8,1.2
		c-1.1,0.2-2.4,0.6-3.6,1C417.5,375,417.3,375,417.2,375z M425,373.5c-0.5,0-0.9-0.4-1-0.9c-0.1-0.5,0.3-1,0.9-1.1
		c1.2-0.1,2.5-0.3,3.9-0.5c0.5-0.1,1.1,0.3,1.1,0.8c0.1,0.5-0.3,1.1-0.8,1.1c-1.5,0.2-2.8,0.4-4,0.6
		C425.1,373.5,425,373.5,425,373.5z M431.1,372.5C431.1,372.5,431.1,372.5,431.1,372.5c-0.6,0-1-0.5-1-1.1c0-0.5,0.1-0.9,0.1-1.4
		c0-0.8,0-1.6-0.2-2.4c-0.1-0.5,0.3-1,0.9-1.1c0.5-0.1,1,0.3,1.1,0.9c0.1,0.9,0.2,1.7,0.2,2.6c0,0.2,0,0.4,0,0.5
		c0.1-0.2,0.3-0.3,0.6-0.3c1.3-0.2,2.6-0.5,3.9-0.8c0.5-0.1,1.1,0.2,1.2,0.8c0.1,0.5-0.2,1.1-0.8,1.2c-1.4,0.3-2.7,0.5-3.9,0.8
		c-0.4,0.1-0.8-0.1-1-0.4C432,372.2,431.6,372.5,431.1,372.5z M388.9,372.4c-0.3,0-0.6-0.2-0.8-0.4c-0.3-0.5-0.2-1.1,0.3-1.4
		c1.1-0.7,2.1-1.5,3.3-2.3c0.4-0.3,1.1-0.2,1.4,0.2c0.3,0.4,0.2,1.1-0.2,1.4c-1.1,0.8-2.2,1.6-3.3,2.3
		C389.3,372.3,389.1,372.4,388.9,372.4z M452.9,372.1c-0.1,0-0.3,0-0.4-0.1c-0.5-0.2-0.7-0.8-0.5-1.3c0.6-1.2,1.1-2.4,1.7-3.6
		c0.2-0.5,0.8-0.7,1.3-0.5c0.5,0.2,0.7,0.8,0.5,1.3c-0.6,1.2-1.1,2.4-1.7,3.6C453.6,371.9,453.2,372.1,452.9,372.1z M440.7,370.6
		c-0.5,0-0.9-0.3-1-0.8c-0.1-0.5,0.2-1.1,0.7-1.2c1.3-0.3,2.6-0.6,3.9-0.9c0.5-0.1,1.1,0.2,1.2,0.7c0.1,0.5-0.2,1.1-0.7,1.2
		c-1.3,0.3-2.6,0.7-3.9,1C440.9,370.6,440.8,370.6,440.7,370.6z M372.4,370c-0.1,0-0.2,0-0.3,0c-0.5-0.1-0.8-0.7-0.7-1.2
		c0.3-1.2,0.8-2.5,1.2-3.9c0.2-0.5,0.7-0.8,1.3-0.6c0.5,0.2,0.8,0.7,0.6,1.3c-0.5,1.3-0.9,2.6-1.2,3.8
		C373.2,369.7,372.8,370,372.4,370z M448.4,368.7c-0.4,0-0.8-0.3-1-0.7c-0.2-0.5,0.2-1.1,0.7-1.2c1.3-0.4,2.5-0.7,3.8-1.1
		c0.5-0.2,1.1,0.1,1.3,0.6c0.2,0.5-0.1,1.1-0.6,1.3c-1.3,0.4-2.6,0.8-3.9,1.2C448.6,368.6,448.5,368.7,448.4,368.7z M395.4,367.7
		c-0.3,0-0.6-0.1-0.8-0.4c-0.3-0.4-0.2-1.1,0.2-1.4c1-0.8,2.1-1.6,3.2-2.4c0.4-0.3,1.1-0.3,1.4,0.2c0.3,0.4,0.3,1.1-0.2,1.4
		c-1.1,0.8-2.1,1.7-3.2,2.4C395.8,367.6,395.6,367.7,395.4,367.7z M456.1,366.2c-0.4,0-0.8-0.3-0.9-0.7c-0.1-0.4,0-0.9,0.3-1.1
		c-0.2-0.3-0.3-0.7-0.1-1l1.7-3.6c0.2-0.5,0.8-0.7,1.3-0.5c0.5,0.2,0.7,0.8,0.5,1.3l-1.4,3c0.7-0.3,1.3-0.5,2-0.8
		c0.5-0.2,1.1,0,1.3,0.5c0.2,0.5,0,1.1-0.5,1.3c-1.2,0.5-2.5,1-3.8,1.4C456.3,366.2,456.2,366.2,456.1,366.2z M430.1,364.7
		c-0.4,0-0.8-0.2-0.9-0.7c-0.4-1.2-1-2.3-1.7-3.4c-0.3-0.5-0.2-1.1,0.3-1.4c0.5-0.3,1.1-0.2,1.4,0.3c0.8,1.2,1.4,2.5,1.9,3.8
		c0.2,0.5-0.1,1.1-0.6,1.3C430.3,364.7,430.2,364.7,430.1,364.7z M463.4,363.2c-0.4,0-0.7-0.2-0.9-0.6c-0.2-0.5,0-1.1,0.5-1.3
		c1.2-0.6,2.4-1.2,3.5-1.8c0.5-0.3,1.1-0.1,1.4,0.4c0.3,0.5,0.1,1.1-0.4,1.4c-1.1,0.6-2.3,1.3-3.6,1.9
		C463.7,363.1,463.6,363.2,463.4,363.2z M401.6,362.8c-0.3,0-0.6-0.1-0.8-0.4c-0.3-0.4-0.3-1.1,0.1-1.4c1-0.8,2.1-1.7,3.1-2.5
		c0.4-0.3,1-0.3,1.4,0.1c0.4,0.4,0.3,1-0.1,1.4c-1,0.9-2.1,1.7-3.1,2.6C402.1,362.7,401.9,362.8,401.6,362.8z M375,362.4
		c-0.1,0-0.2,0-0.4-0.1c-0.5-0.2-0.8-0.8-0.6-1.3c0.5-1.2,1-2.5,1.5-3.7c0.2-0.5,0.8-0.7,1.3-0.5c0.5,0.2,0.7,0.8,0.5,1.3
		c-0.5,1.2-1,2.5-1.5,3.7C375.7,362.2,375.4,362.4,375,362.4z M470.3,359.1c-0.3,0-0.6-0.1-0.8-0.4c-0.3-0.4-0.2-1.1,0.2-1.4
		c1.1-0.8,2-1.7,2.8-2.6c0.4-0.4,1-0.5,1.4-0.1c0.4,0.4,0.5,1,0.1,1.4c-0.8,1-1.9,1.9-3.1,2.8C470.7,359.1,470.5,359.1,470.3,359.1z
		 M426.1,357.8c-0.3,0-0.6-0.2-0.8-0.5c-0.7-1.1-1.4-2.3-2.1-3.4c-0.3-0.5-0.1-1.1,0.3-1.4c0.5-0.3,1.1-0.1,1.4,0.3
		c0.7,1.1,1.4,2.3,2.1,3.4c0.3,0.5,0.2,1.1-0.3,1.4C426.4,357.8,426.2,357.8,426.1,357.8z M459.7,357.6c-0.1,0-0.3,0-0.4-0.1
		c-0.5-0.2-0.7-0.8-0.5-1.3c0.6-1.2,1.2-2.4,1.8-3.6c0.2-0.5,0.8-0.7,1.3-0.5c0.5,0.2,0.7,0.8,0.5,1.3c-0.6,1.2-1.2,2.4-1.7,3.6
		C460.4,357.4,460.1,357.6,459.7,357.6z M407.8,357.6c-0.3,0-0.6-0.1-0.8-0.3c-0.4-0.4-0.3-1,0.1-1.4c1-0.9,2-1.8,3-2.6
		c0.4-0.4,1-0.3,1.4,0.1c0.4,0.4,0.3,1-0.1,1.4c-1,0.9-2,1.8-3,2.7C408.2,357.6,408,357.6,407.8,357.6z M378.1,355.1
		c-0.1,0-0.3,0-0.4-0.1c-0.5-0.2-0.7-0.8-0.5-1.3c0.5-1.2,1.1-2.4,1.7-3.7c0.2-0.5,0.8-0.7,1.3-0.5c0.5,0.2,0.7,0.8,0.5,1.3
		c-0.6,1.2-1.1,2.4-1.6,3.6C378.8,354.9,378.4,355.1,378.1,355.1z M475.5,353.2c-0.2,0-0.4-0.1-0.5-0.2c-0.5-0.3-0.6-0.9-0.3-1.4
		c0.7-1,1.4-2.2,2.1-3.4c0.3-0.5,0.9-0.6,1.4-0.4c0.5,0.3,0.6,0.9,0.4,1.4c-0.7,1.2-1.4,2.4-2.1,3.4
		C476.2,353,475.9,353.2,475.5,353.2z M413.7,352.3c-0.3,0-0.5-0.1-0.7-0.3c-0.4-0.4-0.4-1,0-1.4c1-0.9,2-1.9,2.9-2.8
		c0.4-0.4,1-0.4,1.4,0c0.4,0.4,0.4,1,0,1.4c-0.9,0.9-1.9,1.8-2.9,2.8C414.2,352.2,413.9,352.3,413.7,352.3z M422,351
		c-0.4,0-0.7-0.2-0.9-0.5c-0.7-1.2-1.3-2.4-1.9-3.6c0-0.1-0.1-0.2-0.1-0.3c-0.2,0-0.3-0.1-0.4-0.2c-0.4-0.4-0.4-1,0-1.4
		c1-1.1,1.9-2.1,2.6-2.9c0.3-0.4,1-0.5,1.4-0.1c0.4,0.3,0.5,1,0.1,1.4c-0.6,0.7-1.3,1.5-2.1,2.4c0.1,0.1,0.2,0.2,0.3,0.4
		c0.6,1.2,1.2,2.3,1.8,3.5c0.3,0.5,0.1,1.1-0.4,1.4C422.3,350.9,422.1,351,422,351z M463.2,350.5c-0.1,0-0.3,0-0.4-0.1
		c-0.5-0.2-0.7-0.8-0.4-1.3c0.6-1.2,1.2-2.4,1.8-3.6c0.3-0.5,0.9-0.7,1.3-0.4c0.5,0.2,0.7,0.8,0.4,1.3c-0.6,1.2-1.2,2.4-1.8,3.6
		C463.9,350.3,463.6,350.5,463.2,350.5z M381.4,347.8c-0.1,0-0.3,0-0.4-0.1c-0.5-0.2-0.7-0.8-0.5-1.3c0.6-1.2,1.2-2.4,1.8-3.6
		c0.2-0.5,0.8-0.7,1.3-0.5c0.5,0.2,0.7,0.8,0.5,1.3c-0.6,1.2-1.2,2.4-1.7,3.6C382.1,347.6,381.8,347.8,381.4,347.8z M479.6,346.3
		c-0.2,0-0.3,0-0.5-0.1c-0.5-0.3-0.7-0.9-0.4-1.3c0.6-1.2,1.2-2.3,1.7-3.5c0.2-0.5,0.8-0.7,1.3-0.5c0.5,0.2,0.7,0.8,0.5,1.3
		c-0.6,1.2-1.2,2.4-1.8,3.6C480.3,346.1,479.9,346.3,479.6,346.3z M418.4,343.9c-0.4,0-0.7-0.2-0.9-0.6c-0.6-1.3-1.1-2.6-1.5-3.8
		c-0.2-0.5,0.1-1.1,0.6-1.3c0.5-0.2,1.1,0.1,1.3,0.6c0.4,1.1,0.9,2.3,1.5,3.6c0.2,0.5,0,1.1-0.5,1.3
		C418.7,343.8,418.5,343.9,418.4,343.9z M466.8,343.3c-0.2,0-0.3,0-0.5-0.1c-0.5-0.3-0.7-0.9-0.4-1.3c0.6-1.2,1.3-2.4,1.9-3.5
		c0.3-0.5,0.9-0.7,1.3-0.4c0.5,0.3,0.7,0.9,0.4,1.3c-0.6,1.1-1.2,2.3-1.9,3.5C467.5,343.1,467.2,343.3,466.8,343.3z M384.9,340.7
		c-0.2,0-0.3,0-0.4-0.1c-0.5-0.2-0.7-0.8-0.4-1.3c0.6-1.2,1.2-2.4,1.8-3.6c0.3-0.5,0.9-0.7,1.3-0.4c0.5,0.3,0.7,0.9,0.4,1.3
		c-0.6,1.1-1.2,2.3-1.8,3.5C385.7,340.5,385.3,340.7,384.9,340.7z M424.2,340.3c-0.1,0-0.3,0-0.4-0.1c-0.5-0.2-0.7-0.8-0.5-1.3
		c0.5-1.1,0.7-2.2,0.7-3.1l0-0.3c0-0.5,0.4-1,0.9-1c0.6-0.1,1,0.4,1,0.9c0,0.1,0,0.3,0,0.4c0,1.2-0.3,2.5-0.9,3.9
		C425,340.1,424.6,340.3,424.2,340.3z M482.9,339.1c-0.1,0-0.3,0-0.4-0.1c-0.5-0.2-0.7-0.8-0.5-1.3c0.5-1.2,1-2.5,1.4-3.7
		c0.2-0.5,0.8-0.8,1.3-0.6c0.5,0.2,0.8,0.8,0.6,1.3c-0.4,1.2-0.9,2.5-1.5,3.8C483.7,338.8,483.3,339.1,482.9,339.1z M415.8,336.3
		c-0.5,0-0.9-0.3-1-0.8c-0.1-0.8-0.2-1.5-0.2-2.1c0-1.1,0.2-1.9,0.7-2.6c0.3-0.4,1-0.5,1.4-0.2c0.4,0.3,0.5,1,0.2,1.4
		c-0.2,0.3-0.3,0.7-0.3,1.4c0,0.5,0.1,1.1,0.2,1.7c0.1,0.5-0.3,1.1-0.8,1.2C415.9,336.3,415.9,336.3,415.8,336.3z M470.6,336.3
		c-0.2,0-0.3,0-0.5-0.1c-0.5-0.3-0.7-0.9-0.4-1.4c0.7-1.2,1.3-2.4,2-3.5c0.3-0.5,0.9-0.6,1.4-0.4c0.5,0.3,0.6,0.9,0.4,1.4
		c-0.6,1.1-1.3,2.3-2,3.5C471.3,336.1,471,336.3,470.6,336.3z M368.2,334.9C368.2,334.9,368.2,334.9,368.2,334.9
		c-1.3,0-2.7-0.1-4.1-0.2c-0.5,0-1-0.5-0.9-1.1c0-0.5,0.5-0.9,1.1-0.9c1.3,0.1,2.6,0.2,3.9,0.2c0.6,0,1,0.5,1,1
		C369.2,334.4,368.8,334.9,368.2,334.9z M372.2,334.7c-0.5,0-1-0.4-1-0.9c0-0.5,0.4-1,0.9-1.1c1.3-0.1,2.6-0.3,3.9-0.5
		c0.5-0.1,1.1,0.3,1.1,0.8c0.1,0.5-0.3,1.1-0.8,1.1C375,334.5,373.7,334.6,372.2,334.7C372.3,334.7,372.2,334.7,372.2,334.7z
		 M360.3,334.2c-0.1,0-0.1,0-0.2,0c-1.4-0.2-2.8-0.5-4-0.8c-0.5-0.1-0.9-0.7-0.8-1.2c0.1-0.5,0.6-0.9,1.2-0.8
		c1.2,0.3,2.5,0.5,3.9,0.7c0.5,0.1,0.9,0.6,0.8,1.1C361.2,333.8,360.8,334.2,360.3,334.2z M388.6,333.6c-0.2,0-0.3,0-0.5-0.1
		c-0.5-0.3-0.7-0.9-0.4-1.3c0.5-0.9,0.9-1.7,1.2-2.4c-0.3,0.2-0.7,0.4-1,0.6c-0.5,0.3-1.1,0.1-1.4-0.4c-0.3-0.5-0.1-1.1,0.4-1.4
		c1.1-0.6,2.2-1.3,3.3-2.1c0.4-0.3,1.1-0.2,1.4,0.2c0.3,0.4,0.2,1.1-0.2,1.4c-0.1,0.1-0.2,0.1-0.2,0.2c0.3,0.3,0.4,0.8,0.2,1.2
		c-0.5,0.9-1.1,2.1-1.9,3.5C389.3,333.4,389,333.6,388.6,333.6z M380.1,333.4c-0.4,0-0.8-0.3-1-0.7c-0.1-0.5,0.2-1.1,0.7-1.2
		c1.3-0.3,2.5-0.8,3.7-1.2c0.5-0.2,1.1,0,1.3,0.6c0.2,0.5,0,1.1-0.6,1.3c-1.2,0.5-2.6,0.9-3.9,1.3
		C380.2,333.4,380.2,333.4,380.1,333.4z M423.4,332.9c-0.2,0-0.5-0.1-0.7-0.3c-0.8-0.7-1.9-1.2-3-1.3c-0.5-0.1-1-0.5-0.9-1.1
		c0.1-0.5,0.6-0.9,1.1-0.9c1.6,0.1,3.1,0.8,4.2,1.8c0.4,0.4,0.4,1,0,1.4C423.9,332.8,423.7,332.9,423.4,332.9z M352.5,332.5
		c-0.1,0-0.2,0-0.3,0c-2.4-0.7-3.8-1.3-3.9-1.3c-0.5-0.2-0.8-0.8-0.5-1.3c0.2-0.5,0.8-0.8,1.3-0.5c0,0,1.4,0.6,3.7,1.2
		c0.5,0.2,0.8,0.7,0.7,1.2C353.3,332.2,352.9,332.5,352.5,332.5z M485.6,331.6c-0.1,0-0.2,0-0.3,0c-0.5-0.1-0.8-0.7-0.7-1.2
		c0.4-1.4,0.7-2.6,0.9-3.8c0.1-0.5,0.6-0.9,1.1-0.8c0.5,0.1,0.9,0.6,0.8,1.1c-0.2,1.2-0.5,2.6-0.9,4
		C486.4,331.3,486,331.6,485.6,331.6z M474.6,329.4c-0.2,0-0.4,0-0.5-0.1c-0.5-0.3-0.6-0.9-0.3-1.4c0.8-1.2,1.5-2.4,2.2-3.4
		c0.3-0.5,0.9-0.6,1.4-0.3c0.5,0.3,0.6,0.9,0.3,1.4c-0.7,1-1.4,2.1-2.1,3.3C475.3,329.2,474.9,329.4,474.6,329.4z M486.8,323.7
		c-0.5,0-1-0.4-1-0.9c-0.1-1.4-0.4-2.4-1-3c-0.4-0.4-0.4-1-0.1-1.4c0.4-0.4,1-0.4,1.4-0.1c1,0.9,1.6,2.4,1.7,4.3
		C487.8,323.2,487.4,323.7,486.8,323.7C486.8,323.7,486.8,323.7,486.8,323.7z M479.1,322.7c-0.2,0-0.4-0.1-0.6-0.2
		c-0.4-0.3-0.5-1-0.2-1.4c1.1-1.4,2.1-2.4,3-3c0.4-0.3,1.1-0.2,1.4,0.2c0.3,0.4,0.2,1.1-0.2,1.4c-0.7,0.5-1.6,1.4-2.6,2.7
		C479.7,322.6,479.4,322.7,479.1,322.7z" class="st2"></path>
	<path d="M404.9,309.6c0,2-1.6,3.6-3.6,3.6c-2,0-3.6-1.6-3.6-3.6s1.6-3.6,3.6-3.6C403.3,306,404.9,307.6,404.9,309.6z" class="st2"></path>
	<g>
		<path d="M260,309.4c0,0,14.3,29.3,6.1,63c0,0,44.3,8.5,42.6,22.1c-1.7,13.6-20.4-8.9-37.8-5.8
			c-17.4,3.1-26.2-5.1-26.6-10.9c0,0-34.4,9.5-45.3-23.8C188.2,320.6,260,309.4,260,309.4z" class="st1"></path>
		<path d="M260.1,309.3c0,0,14.3,29.3,6.1,63c0,0,44.3,8.5,42.6,22.1c-1.7,13.6-20.4-8.9-37.8-5.8
			c-17.4,3.1-26.2-5.1-26.6-10.9c0,0-34.4,9.5-45.3-23.8C188.2,320.5,260.1,309.3,260.1,309.3z" class="st3"></path>
		<path d="M297.1,395.8c0.2-0.8,0.1-1.6,0.1-2.4c0-0.8,0-1.5-0.1-2.2c0-0.7-0.1-1.4-0.2-2.2c-0.1-0.7-0.3-1.4-0.6-2.3
			c0.9,0.3,1.6,1,2,1.8c0.5,0.8,0.7,1.7,0.8,2.6c0,0.9-0.1,1.8-0.4,2.6c-0.1,0.4-0.3,0.8-0.6,1.2
			C297.9,395.2,297.6,395.7,297.1,395.8z" class="st4"></path>
	</g>
	<g>
		<g>
			<path d="M60.7,225c-0.8,5.5-2.4,10.8-5.1,15.7c-0.4,0.7-0.8,1.4-1.2,2.1c-0.4,0.6-0.7,1.1-1.1,1.7
				c-0.4,0.6-0.8,1.1-1.2,1.7c-0.1,0.2-0.3,0.4-0.5,0.6c-0.3,0.4-0.6,0.8-0.9,1.1c-0.5,0.6-1.1,1.2-1.7,1.9c-0.3,0.4-0.7,0.7-1,1.1
				c-0.5,0.6-1.1,1.1-1.7,1.7c-1.9,1.9-3.8,3.7-5.7,5.6c-0.3,0.3-0.6,0.6-0.9,0.9c0,0-0.1,0.1-0.1,0.1c-0.6,0.6-1.1,1.2-1.7,1.8
				c-0.4,0.5-0.9,1-1.3,1.5c-0.4,0.5-0.8,1-1.2,1.5c-0.5,0.5-0.9,1.1-1.3,1.7c-0.4,0.5-0.7,1-1,1.5c-0.6,0.9-1.1,1.8-1.5,2.7
				c-2,3.9-2.9,8.2-1.9,13.2c0,0.2,0.1,0.4,0.1,0.6c1.5,6.6,6.3,11.2,11.8,14.7c1.4,0.9,2.9,1.7,4.5,2.4c0.4,0.2,4.6,1.6,4.6,1.9
				c0,0,3.2,20.3,3.5,22.2c0,0.1,0,0.1,0,0.1c-21.4-3.8-42.5-15.8-44.6-39.4c-0.9-9.9,1.5-20.1,6.2-28.9c0.6-1.1,1.2-2.1,1.9-3
				c0.6-0.9,1.3-1.8,2-2.7c0.5-0.7,1.1-1.3,1.6-1.9c0.5-0.6,1.1-1.2,1.7-1.8c1.1-1.2,2.4-2.4,3.6-3.6h0c0,0,0,0,0,0
				c1.3-1.4,2.7-2.6,4-3.9c0.3-0.3,0.6-0.6,0.9-0.9c0.6-0.6,1.1-1.1,1.6-1.7c0.1-0.1,0.1-0.1,0.2-0.2c0.6-0.7,1.3-1.4,1.9-2.2
				c0,0,0.1-0.1,0.1-0.1c0.7-0.9,1.3-1.7,1.9-2.7c0.6-0.9,1.2-1.9,1.7-2.9c0.5-0.9,0.9-1.8,1.2-2.8c2.6-6.2,3.4-13.1,1.9-19.7
				c-1-4.4-3-8.4-5.2-12.4c-3.2-5.9-6.6-11.8-6.8-18.8c-0.1-3.3,0.8-6.8,3-9.2c0,0,0.1-0.1,0.1-0.1c0.2-0.2,0.4-0.5,0.7-0.7
				c4.9-4.2,9.2-2.3,12.8,2c0,0,0,0,0,0c5.3,6.3,9,17.7,10.4,22.2c1.3,3.9,2.3,8,3.1,12.1c0,0,0,0,0,0
				C61.4,209.6,61.8,217.5,60.7,225z" class="st1"></path>
			<path d="M60.8,225.1c-0.8,5.5-2.5,10.7-5.2,15.7c-0.4,0.7-0.8,1.4-1.2,2.1c-0.4,0.6-0.7,1.1-1.1,1.7
				c-0.3,0.5-0.7,1-1.1,1.6c-0.2,0.3-0.4,0.5-0.6,0.8c-0.3,0.4-0.6,0.8-0.9,1.1c-0.5,0.6-1.1,1.2-1.7,1.9c-0.3,0.4-0.7,0.7-1,1.1
				c-0.5,0.6-1.1,1.1-1.7,1.7c-1.9,1.9-3.8,3.7-5.7,5.6c-0.3,0.3-0.6,0.6-0.9,0.9c0,0-0.1,0.1-0.1,0.1c-0.6,0.6-1.1,1.2-1.7,1.8
				c-0.4,0.5-0.9,1-1.3,1.5c-0.4,0.5-0.8,1-1.2,1.5c-0.4,0.5-0.9,1.1-1.3,1.7c-0.4,0.5-0.7,1-1,1.5c-0.6,0.9-1.1,1.8-1.5,2.7
				c-1.9,3.9-2.7,8.1-1.8,13.1c0,0.2,0.1,0.4,0.1,0.5c1.5,6.6,6.3,11.3,11.9,14.7c1.4,0.9,2.9,1.7,4.4,2.4c0.4,0.2,4.6,1.6,4.6,1.9
				l3.5,22.4c0,0-0.1,0-0.1,0c-21.3-3.8-42.3-15.8-44.5-39.4c-0.9-9.9,1.5-20.1,6.1-28.9c0.5-1,1.1-2,1.8-2.9c0.6-0.9,1.3-1.8,2-2.7
				c0.5-0.7,1.1-1.3,1.6-1.9c0.5-0.6,1.1-1.2,1.7-1.8c1.1-1.2,2.4-2.4,3.6-3.6h0c0,0,0,0,0,0c1.3-1.3,2.7-2.6,4-3.9
				c0.3-0.3,0.6-0.6,0.9-0.9c0.6-0.6,1.1-1.1,1.6-1.7c0.1-0.1,0.1-0.1,0.2-0.2c0.6-0.7,1.3-1.4,1.9-2.2c0,0,0.1-0.1,0.1-0.1
				c0.7-0.9,1.3-1.7,1.9-2.7c0.7-0.9,1.3-1.9,1.8-3c0.4-0.8,0.8-1.7,1.2-2.6c2.6-6.3,3.5-13.2,2-19.9c-1-4.4-3.1-8.4-5.2-12.4
				c-3.2-6-6.6-11.8-6.8-18.8c-0.1-3.2,0.8-6.6,2.8-9c0,0,0.1-0.1,0.1-0.1c0.2-0.2,0.4-0.5,0.7-0.7c0-0.1,0.1-0.1,0.1-0.1
				c4.9-4.2,9.2-2.3,12.8,2c5.3,6.3,9,17.8,10.4,22.3c1.3,3.9,2.3,8,3.1,12.1C61.5,209.5,62,217.5,60.8,225.1z" class="st3"></path>
		</g>
		<path d="M46.5,167.5c0,0.1-0.1,0.1-0.1,0.2c0,0,0,0,0,0c-1.8,3.1-7.2,2.3-7.2,2.3c7.7,9.7,1.9,19.3-2.5,24.3
			c0,0-0.1,0.1-0.1,0.1c-3.2-5.9-6.6-11.8-6.8-18.8c-0.1-3.3,0.8-6.8,3-9.2c0,0,0.1-0.1,0.1-0.1c0.2-0.2,0.4-0.5,0.7-0.7
			c0-0.1,0.1-0.1,0.1-0.1C38.5,161.3,42.9,163.2,46.5,167.5z" class="st4"></path>
		<path d="M60.8,225.1c0,0-0.1,0-0.1-0.1c-3.3-2.2-6.2-5.5-6.2-9.9c0-5.8,3-10.3,5.5-13.1c0,0,0,0,0,0
			c0,0,0.1-0.1,0.1-0.1C61.5,209.5,62,217.5,60.8,225.1z" class="st4"></path>
		<path d="M40.6,240.1c-3.6,4.4-10.3,4.2-14.1,3.7c0,0,0,0,0,0c1.3-1.3,2.7-2.6,4-3.9c0.3-0.3,0.6-0.6,0.9-0.9
			c0.6-0.6,1.1-1.1,1.6-1.7c0.1-0.1,0.1-0.1,0.2-0.2c0.6-0.7,1.3-1.4,1.9-2.2c0,0,0.1-0.1,0.1-0.1c1.3-1.7,2.6-3.5,3.6-5.5
			c0.5-0.9,0.9-1.8,1.2-2.8c0,0,0,0,0,0.1C41.9,230.4,43.8,236.1,40.6,240.1z" class="st4"></path>
		<path d="M41.7,298.3c0,0-0.1,0.1-0.1,0.1c-2.8,2.7-8.8,7.4-13.9,2.5c-4.2-4-1-11.8,2.1-17.1c0-0.1,0.1-0.1,0.1-0.2
			C31.3,290.2,36.1,294.9,41.7,298.3z" class="st4"></path>
	</g>
	<path d="M262.4,307.3c-3.9,63.8-67.5,72.3-67.5,72.3l-0.6,3.1l-0.3,0c2.6-26.3-5.2-67.8-31.8-80.9
		c8.8-16.2,30.7-47.9,71.3-59.2c0.9-0.3,1.8-0.5,2.7-0.7C252,262,263.7,284.8,262.4,307.3z" class="st5"></path>
	<g>
		<path d="M344.6,348.3c-8.4,3.9-30.4-9.2-40.9-10c0,0,0,0,0,0c-0.9,0-1.7,0-2.5,0.1c-3.2,0.6-6.3-0.6-8.9-2.4
			c0,0,0,0,0,0c-0.7-0.5-1.4-1.1-2.1-1.6c-1.3-1.2-2.5-2.4-3.5-3.6c-0.4-0.4-0.7-0.9-1-1.2c0-0.1-0.1-0.1-0.1-0.2
			c-0.9-1-1.4-1.9-1.6-2.2c-0.1-0.1-0.1-0.2-0.1-0.2l0.1-0.1l34.8-42.2c0,0,0,0,0.2,0.2c0,0,0.1,0,0.2,0.2l0.6,0.6
			c0.1,0.1,0.2,0.2,0.4,0.4c0.7,0.7,1.6,1.7,2.7,2.9c0.4,0.5,0.9,0.9,1.3,1.5c0.3,0.4,0.7,0.8,1,1.2c0.2,0.2,0.4,0.4,0.6,0.7
			c0.5,0.7,1.1,1.3,1.6,2c3.4,4.5,6.5,9.6,6.1,13.1c0,0.3-0.1,0.6-0.1,0.8C331.2,314.1,353.7,344,344.6,348.3z" class="st2"></path>
		<path d="M344.7,348.4c-8.6,4-31-9.6-41.4-10c-0.7,0-1.4,0-2,0.1c-3.2,0.6-6.4-0.6-9.1-2.5c0,0,0,0,0,0
			c-0.7-0.5-1.4-1.1-2.1-1.6c-1.3-1.2-2.5-2.4-3.5-3.6c-0.4-0.4-0.7-0.9-1-1.2c0-0.1-0.1-0.1-0.1-0.2c-1-1.3-1.6-2.2-1.6-2.2
			l34.9-42.3c0,0,0.1,0,0.2,0.2l0.6,0.6c0.1,0.1,0.2,0.2,0.4,0.4c0.7,0.7,1.6,1.7,2.7,2.9c0.4,0.5,0.9,0.9,1.3,1.5
			c0.3,0.4,0.7,0.8,1,1.2c0.2,0.2,0.4,0.4,0.6,0.7c0.6,0.7,1.1,1.3,1.6,2c3.2,4.1,6.1,8.8,6.3,12.3c0,0.6,0,1.2-0.2,1.7
			C331.4,314.3,353.9,344.2,344.7,348.4z" class="st6"></path>
	</g>
	<path d="M333.4,306.7c0,0.3-0.1,0.5-0.2,0.8c-4.3,16.9-20.6,26.7-29.6,30.9c0,0,0,0,0,0c-0.1,0-0.2,0.1-0.3,0.1
		c-0.7,0-1.4,0-2,0.1c-3.2,0.6-6.4-0.6-9.1-2.5c0,0,0,0,0,0c-0.7-0.5-1.4-1.1-2.1-1.6c-1.3-1.2-2.5-2.4-3.5-3.6
		c-0.4-0.4-0.7-0.9-1-1.2c0-0.1-0.1-0.1-0.1-0.2c-0.9-1-1.4-1.9-1.6-2.2l0-0.3l34.8-42.2c0,0,0,0,0.2,0.2c0,0,0.1,0,0.2,0.2l0.6,0.6
		c0.1,0.1,0.2,0.2,0.4,0.4c0.7,0.7,1.6,1.7,2.7,2.9c0.4,0.5,0.9,0.9,1.3,1.5c0.3,0.4,0.7,0.8,1,1.2c0.2,0.2,0.4,0.4,0.6,0.7
		c0.6,0.7,1.1,1.3,1.6,2C330.3,298.5,333.3,303.2,333.4,306.7z" class="st7"></path>
	<path d="M330.8,166.9c0.1,0.4,2.3,6.5,5.4,12c1.1,1.9,2.2,3.7,3.4,5.1c1.9,2.4,4,3.9,6,3.4c0.9-0.2,1.8-0.6,2.8-1.2
		c0.1-0.1,0.2-0.1,0.3-0.2c5-3.1,10.8-10.1,12.5-15.1c0.5-1.4,0.7-2.6,0.4-3.5c-0.1-0.4-0.2-0.7-0.5-0.9c-3.6-4.3-9.1-4.9-14.1-3.5
		c-3.4,0.9-6.8,2.8-10.3,3.4c-0.3,0-2.6,0.4-4.3,0.6l-0.4,0C331.5,167,330.9,167,330.8,166.9z" class="st1"></path>
	<path d="M246.5,132.7c0.5,0.2,32.3,16.1,38.9,7.6c0.6-0.8,1.2-1.7,1.7-2.6c4.6-8.6,3.1-20.7,0-23l0,0
		c-3.5-2.6-10.7,3.7-17.4,7.7C263.1,126.3,247,132.5,246.5,132.7z" class="st1"></path>
	<path d="M267.3,133.1c4.8-0.2,9.6,0.9,13.3,2c3.8,1.2,6.4,2.5,6.6,2.6c4.6-8.6,3.1-20.7,0-23l0,0
		c-1.9,1.3-4.1,3-6.5,8.4c-0.2,0.5-0.5,1-0.8,1.5C275.8,131.7,268.4,133.1,267.3,133.1z" class="st4"></path>
	<path d="M339.4,173.9c0,0,3.8,4.8,6.9,8.9c0.9,1.2,1.8,2.4,2.5,3.3c5-3.1,10.8-10.1,12.5-15.1c0.5-1.4,0.7-2.6,0.4-3.5
		c0,0-2.2-0.5-6.4,2.3c-1.5,1-3,2-4.4,2.9C347.7,174.6,344.3,175.7,339.4,173.9z" class="st4"></path>
	<path d="M265.3,205.8c0.9,4.2-2.3,9.3-7.2,9.5c-6.5,0.4-13.8-5.6-14.4-12.3c-0.5-5.6,6.2-10.6,10.4-9.4
		c3.6,1,6.3,3.5,8.4,6.4C263.4,201.4,264.8,203.5,265.3,205.8z" class="st6"></path>
	<path d="M314.7,229.9c-3.9,1.2-7.4,6.6-6.1,11.2c1.7,6.2,9.1,10,15,7.3c5-2.3,7.4-10.8,5-14c-2-2.8-4.9-4.1-8.1-4.6
		C319.1,229.5,316.9,229.2,314.7,229.9z" class="st6"></path>
	<path d="M307.1,148.5c1.4,5.9,0.6,12.8,0.1,18.1c-0.3,2.9-0.7,5.8-1.2,8.7c-0.4,2.2-0.1,4.7,1.6,6.3
		c2.1,2,5.3,2,7.9,0.9c3.2-1.3,5.3-4.2,6.9-7.2c2.2-4.3,3.1-9.2,2.9-14c-0.2-0.1-0.4-0.3-0.6-0.4C318.6,156.1,312.7,152,307.1,148.5
		z" class="st4"></path>
	<path d="M338.5,232.3c2.2,2.2,5.5,3.2,8.7,3.7c0.1-0.3,0.3-0.5,0.4-0.8c0.1-0.3,0.3-0.5,0.4-0.8
		c1.2-2.4,2.4-4.8,3.3-7.3C343.4,228,334.3,228.1,338.5,232.3z" class="st4"></path>
	<path d="M334.8,239.5c1,2.2,3.4,4.1,5.9,5.6c0.5-0.5,0.9-1.1,1.4-1.6c1-1.2,1.9-2.5,2.9-3.9c0-0.1,0.1-0.1,0.1-0.2
		C339.1,237.3,333.1,235.7,334.8,239.5z" class="st4"></path>
	<path d="M347.2,221.3c1.5,0.8,3.6,1,5.8,0.9c0-0.1,0.1-0.2,0.1-0.3c0.6-2.2,1.1-4.5,1.4-6.8
		C348.8,217,343.7,219.5,347.2,221.3z" class="st4"></path>
	<path d="M294.1,141c0.2,1.7,0.5,3.6,0.7,5.1c0.5,4.5,0.4,10.2,2,11.9c3.4,3.7,7.7,0.9,7.9-4.9c0.1-2.6-0.6-5.1-1.5-7
		l0,0C300.1,144.2,297,142.5,294.1,141z" class="st4"></path>
	<path d="M327.2,162.8c0.2,4.1-0.7,10.1,0.9,12.3c2.4,3.3,6.6,2.5,6.5-0.2c-0.1-2.6-0.7-5.1-1.4-7
		C331.4,166.2,329.4,164.5,327.2,162.8z" class="st4"></path>
	<path d="M233.4,212.8c-0.9-1.3-1.7-2.6-2.5-3.9c-0.8-1.3-1.6-2.6-2.3-4l-0.4-0.7l-0.2,0.8c-0.1,0.4-0.2,0.9-0.4,1.2
		c-0.2,0.4-0.5,0.7-0.7,0.8c-0.1,0-0.3,0-0.4-0.1c-0.1-0.1-0.2-0.2-0.2-0.4c-0.1-0.4-0.1-0.8-0.1-1.3c0-0.9,0.2-1.8,0.3-2.7
		c0.2-0.9,0.4-1.8,0.7-2.6l0.5-1.4l-1.2,0.9c-0.6,0.4-1.2,0.8-1.8,1.1c-0.6,0.3-1.3,0.5-1.6,0.1c-0.4-0.3-0.4-1.1-0.3-1.8
		c0.1-0.7,0.3-1.4,0.5-2.1l0.1-0.2l-0.2-0.1c-1.3-1-2.6-2.1-3.6-3.4c-0.6-0.6-1.1-1.3-1.5-2c-0.5-0.7-0.9-1.4-1.3-2.2
		c0.3,0.8,0.6,1.6,1.1,2.3c0.4,0.7,0.9,1.5,1.4,2.1c1.1,1.4,2.2,2.6,3.6,3.7l-0.1-0.4c-0.3,0.7-0.5,1.4-0.6,2.2c0,0.4-0.1,0.8,0,1.2
		c0,0.4,0.2,0.9,0.5,1.2c0.2,0.2,0.4,0.3,0.6,0.4c0.2,0.1,0.5,0.1,0.7,0c0.4,0,0.8-0.2,1.2-0.3c0.7-0.3,1.4-0.7,2-1.1l-0.7-0.5
		c-0.3,0.9-0.5,1.8-0.7,2.8c-0.2,0.9-0.3,1.9-0.3,2.8c0,0.5,0,1,0.2,1.5c0.1,0.3,0.2,0.5,0.5,0.8c0.3,0.2,0.6,0.3,1,0.2
		c0.7-0.2,0.9-0.8,1.1-1.2c0.2-0.5,0.3-0.9,0.4-1.4l-0.6,0.1c0.8,1.4,1.7,2.6,2.6,3.9C231.5,210.4,232.4,211.6,233.4,212.8z" class="st8"></path>
	<path d="M324.7,257.6c-1.5,0.6-3,1.3-4.6,1.9c-0.8,0.3-1.5,0.6-2.3,0.8c-0.8,0.2-1.6,0.4-2.3,0.4l-0.2,0l-0.1,0.2
		c-0.4,0.6-0.8,1.1-1.3,1.6c-0.5,0.5-1.1,0.9-1.5,0.7c-0.2-0.1-0.2-0.2-0.2-0.5c0-0.3,0.1-0.6,0.3-0.9c0.3-0.6,0.7-1.2,1.1-1.8
		l1-1.4l-1.6,0.8c-0.7,0.3-1.4,0.7-2.1,0.9c-0.7,0.3-1.5,0.5-2.2,0.5c-0.4,0-0.7,0-0.9-0.1c-0.3-0.1-0.4-0.3-0.4-0.6
		c0.1-0.5,0.8-1.1,1.4-1.5l0.8-0.5l-0.9,0c-1.3-0.1-2.6-0.2-3.9-0.4c-1.3-0.2-2.6-0.5-3.8-1c1.2,0.6,2.4,1,3.7,1.4
		c1.3,0.3,2.6,0.5,3.9,0.7l-0.1-0.6c-0.4,0.2-0.7,0.5-1,0.7c-0.3,0.3-0.6,0.6-0.8,1.1c-0.1,0.3,0,0.6,0.1,0.8
		c0.1,0.1,0.2,0.2,0.2,0.3c0.1,0.1,0.2,0.2,0.3,0.2c0.5,0.3,0.9,0.3,1.4,0.3c0.9,0,1.6-0.3,2.4-0.5c0.8-0.3,1.5-0.6,2.2-0.9
		l-0.5-0.6c-0.5,0.6-0.8,1.2-1.2,2c-0.2,0.4-0.3,0.7-0.3,1.2c0,0.1,0,0.2,0,0.4c0,0.1,0.1,0.3,0.1,0.4c0.1,0.3,0.4,0.4,0.6,0.5
		c0.5,0.2,1,0,1.4-0.2c0.4-0.2,0.7-0.5,0.9-0.8c0.5-0.6,1-1.1,1.4-1.8l-0.3,0.2c0.9-0.1,1.7-0.3,2.5-0.6c0.8-0.3,1.5-0.6,2.3-0.9
		C321.8,259.1,323.2,258.4,324.7,257.6z" class="st8"></path>
	<g>
		<g>
			<path d="M255.7,189.4c2.1,5.8,8,11.5,14.1,13c1.3,0.3,2.6,0.5,4,0.4c5.8-0.5,11.8-4.4,15.2-9.1
				c0.1-0.1,0.2-0.2,0.2-0.3c3.3-4.8,3.7-11.1,1.1-16.4c-3-6.2-9.6-12.2-16.9-11.6c-2.9,0.2-5.8,1.4-8.4,3.1l0,0
				C258,172.8,252.9,181.5,255.7,189.4z" class="st9"></path>
			<path d="M255,183.2c0.2-2.1,0.8-4.1,1.7-5.9c0.9-1.9,2.1-3.6,3.5-5.2c1.4-1.6,2.9-3,4.7-4.1l0.2-0.1l0.2,0.2l0,0
				l-0.4,0c1.7-1.1,3.5-2.1,5.5-2.7c2-0.6,4.1-0.9,6.2-0.6c4.2,0.6,7.9,3.1,10.7,6.1c1.4,1.5,2.6,3.3,3.6,5.1c1,1.9,1.6,3.9,1.9,6
				c0.5,4.2-0.6,8.6-3.2,12l0,0c-2.2,2.9-5,5.2-8.2,6.9c-1.6,0.8-3.3,1.4-5,1.8c-1.7,0.4-3.6,0.5-5.3,0.2c-1.8-0.3-3.4-1-5-1.9
				c-1.5-0.9-3-1.9-4.3-3.1c-2.6-2.4-4.7-5.3-6-8.5C255,187.4,254.8,185.3,255,183.2z M261.8,197.8c2.6,2.3,5.8,4,9.2,4.5
				c1.7,0.2,3.4,0.1,5.1-0.4c1.7-0.4,3.3-1.1,4.7-2c3-1.7,5.6-4.1,7.5-6.8l0,0c0.2-0.3,0.5-0.8,0.8-1.2c0.2-0.4,0.5-0.8,0.6-1.3
				c0.4-0.9,0.7-1.8,0.9-2.7c0.2-0.9,0.3-1.9,0.4-2.8c0-1,0-1.9-0.1-2.9c-0.5-3.8-2.4-7.3-5-10.3c-1.3-1.5-2.7-2.8-4.4-3.8
				c-1.6-1-3.4-1.8-5.3-2.2c-1.9-0.4-3.8-0.2-5.7,0.3c-1.9,0.5-3.7,1.3-5.4,2.3l-0.2,0.1l-0.2-0.2l0,0l0.4,0
				c-1.7,1.1-3.3,2.4-4.8,3.8c-1.4,1.5-2.6,3.1-3.6,5c-0.9,1.8-1.6,3.8-1.8,5.9c-0.2,2,0,4.2,0.7,6.1
				C257,192.6,259.2,195.5,261.8,197.8z" class="st4"></path>
		</g>
		<path d="M266.3,195.3c-4-2.5-6.8-7.2-6.5-11.9c0.6-7.6,8.2-13.8,15.7-12.5c4,0.7,8,3.4,9.9,7c5,9.7-5.5,21-15.6,18.9
			C268.6,196.5,267.4,196,266.3,195.3z" class="st4"></path>
		<path d="M265.1,168.3c21.9,5.7,23.7,23.1,23.9,25.3c0.1-0.1,0.2-0.2,0.2-0.3c3.3-4.8,3.7-11.1,1.1-16.4
			c-3-6.2-9.6-12.2-16.9-11.6C270.6,165.5,267.7,166.6,265.1,168.3z" class="st10"></path>
	</g>
	<g>
		<g>
			<path d="M316.5,217.6c-1.1,5.3,2.3,10.5,6.3,13.6c0.6,0.4,1.1,0.8,1.7,1.1c7.3,3.7,17.9-1.5,20.6-9.3
				c0.3-0.8,0.5-1.6,0.6-2.5c0.8-7.4-5.8-16-13.4-16.7c-1.8-0.1-3.7,0.5-5.3,1.4c-1.1,0.6-2.2,1.3-3.3,2.1
				C320.4,209.9,317.3,213.6,316.5,217.6z" class="st9"></path>
			<path d="M318.8,212.4c1.1-1.6,2.3-3,3.8-4.3c1.4-1.3,3-2.4,4.7-3.3c0.9-0.5,1.7-0.8,2.7-1.1c0.9-0.2,2-0.4,3-0.2
				c2,0.2,3.9,0.9,5.5,2c1.7,1,3.2,2.4,4.4,3.9c2.5,3.1,4.1,7,3.7,11.1c-0.1,1-0.3,2-0.7,3c-0.2,0.5-0.4,0.9-0.6,1.4l-0.7,1.3
				c-1.1,1.7-2.5,3.1-4.1,4.3c-3.2,2.3-7.1,3.7-11,3.4c-2-0.1-3.9-0.7-5.5-1.7c-0.8-0.5-1.6-1.2-2.2-1.8c-0.7-0.7-1.3-1.4-1.9-2.1
				c-1.2-1.5-2.1-3.2-2.7-5c-0.3-0.9-0.5-1.8-0.6-2.8c-0.1-1,0-1.9,0.2-2.8C316.9,215.7,317.7,213.9,318.8,212.4z M316.4,220.4
				c0.1,0.9,0.3,1.9,0.6,2.8c0.6,1.8,1.6,3.4,2.8,4.9c0.6,0.7,1.3,1.4,2,2c0.7,0.6,1.5,1.2,2.3,1.6c1.6,0.9,3.5,1.3,5.3,1.3
				c3.7,0.1,7.3-1.5,10.1-3.7c1.4-1.1,2.7-2.5,3.6-4l0.6-1.2c0.2-0.4,0.3-0.8,0.5-1.2c0.3-0.8,0.5-1.7,0.6-2.6
				c0.2-1.7-0.1-3.6-0.7-5.3c-0.6-1.7-1.4-3.3-2.5-4.8c-2.1-2.9-5.3-5.3-8.9-5.9c-1.8-0.4-3.6,0.2-5.3,0.9c-1.7,0.8-3.3,1.8-4.8,3
				c-2.9,2.4-5.4,5.5-6.2,9.3C316.4,218.5,316.3,219.4,316.4,220.4z" class="st4"></path>
		</g>
		<path d="M330.8,228.7c-0.4,0-5.1,1-9.1-4.8c-4-5.8,2-12.1,4.6-13.7c2.6-1.6,9-3.9,13.7,2.5
			C344.6,219.2,338.1,228.6,330.8,228.7z" class="st4"></path>
		<path d="M323.8,207.3c10.3,1.6,17.9,10.6,21.4,15.7c0.3-0.8,0.5-1.6,0.6-2.5c0.8-7.4-5.8-16-13.4-16.7
			c-1.8-0.1-3.7,0.5-5.3,1.4C326,205.7,324.9,206.5,323.8,207.3z" class="st10"></path>
	</g>
	<path d="M225.4,149.3L225.4,149.3c-0.3,0.4-0.5,0.7-0.7,1c3.7,6.5,9.3,13.1,16.3,15.1c2.6,0.8,5.9,0.2,6.8-2.3
		c0.4-1,0.3-2.2-0.1-3.3c-1.1-3.3-4-6.1-6.4-8.7c-2.8-2.9-5.3-7.3-7.1-10.9C230.8,143,227.9,146.1,225.4,149.3z" class="st4"></path>
	<path d="M331.9,254.2c-1.6-2.7-3.5-5.2-5.3-7.7c-1.9-2.5-3.9-4.9-6-7.2c1.6,2.7,3.5,5.2,5.3,7.7
		C327.7,249.4,329.7,251.9,331.9,254.2z" class="st4"></path>
	<path d="M337.9,249.3c-2.1-2.2-4.4-4.1-6.8-6c-2.4-1.9-4.8-3.7-7.3-5.4c2.1,2.2,4.4,4.1,6.8,6
		C333,245.8,335.4,247.6,337.9,249.3z" class="st4"></path>
	<path d="M342.1,240.5c-2.9-1-5.8-1.7-8.7-2.4c-3-0.7-5.9-1.2-8.9-1.6c2.9,1,5.8,1.7,8.7,2.4
		C336.2,239.6,339.1,240.2,342.1,240.5z" class="st4"></path>
	<path d="M280.1,131.5c0,0,1.8,1.3,2.5,1.3c0.8,0-1.7-2.2-1.7-2.2c1.7,0.5,4.1-0.1,3.6-0.5c-0.4-0.4-2.9-0.6-2.9-0.6
		c3.5-1,5.3-5.3,3.3-6.6c-0.8-0.5-3,0.4-5.2,1.7c-4,7.1-11.4,8.5-12.6,8.5c4.8-0.2,9.6,0.9,13.3,2
		C281.1,133.5,280.1,131.5,280.1,131.5z" class="st9"></path>
	<path d="M346.3,182.7c0.9-1.6,1.1-4.7,1.1-5c0.1,0.1,0.8,1.6,1.6,1.8c0.9,0.2-0.5-2.3-0.5-2.3s1.4,1.4,1.9,1
		c0.5-0.3-1.1-1.5-1.1-1.5c1.6,0.3,6.1-1,5.4-3c-0.5-1.3-2.4-1.3-3.8-1.2c-3.4,2-6.7,3.1-11.6,1.3
		C339.4,173.9,343.3,178.7,346.3,182.7z" class="st9"></path>
	<g>
		<path d="M308.5,212.7c1.9,2.2,3.1,5.2,2.8,8.3c-0.4,4.6-2.9,8.9-7.4,10c-2.8,0.7-5.7,0.2-8.2-0.8
			c-4.9-1.8-9.7-3.9-13.1-8.1c-1.2-1.5-2.3-3.3-2.7-5.2c-0.7-3.1,0.1-6.6,2.1-9.3c2-2.7,5.1-4.5,8.1-4.7c3.8-0.3,7.8,1.7,10.6,3.8
			C303.2,208.5,306.4,210.3,308.5,212.7z" class="st6"></path>
		<path d="M305,205c0,0,4.5-1.2,5.3,0.2c0.8,1.4-6,3.3-7.6,2.7c-1.7-0.6-1.3-7.5,0.1-7.9C304.2,199.7,305,205,305,205z" class="st4"></path>
		<path d="M286.6,221.2c1.4-1.1,2.8-2.2,4.3-3.2l4.2-3.4c1.4-1.1,2.7-2.3,4.1-3.4c1.4-1.2,2.7-2.3,4-3.6l-0.7-0.4
			c-1.2,3.2-2.5,6.4-3.9,9.6c-0.7,1.6-1.4,3.2-2.1,4.7c-0.7,1.6-1.5,3.1-2.3,4.6c1-1.4,1.8-2.9,2.7-4.5c0.8-1.5,1.6-3.1,2.3-4.7
			c0.8-1.6,1.4-3.2,2.1-4.8c0.7-1.6,1.3-3.2,2-4.8l0.8-1.9l-1.5,1.5c-1.2,1.2-2.6,2.4-3.9,3.6l-4,3.5l-4,3.5L286.6,221.2z" class="st4"></path>
	</g>
	<path d="M249.9,197.4c-2.6-1.7-5.4-3.3-8.1-4.7c-2.8-1.4-5.6-2.8-8.5-3.9c2.6,1.7,5.4,3.3,8.1,4.7
		C244.2,194.9,247,196.2,249.9,197.4z" class="st4"></path>
	<path d="M237.4,182.5c2,2.2,4.3,4.3,6.5,6.3c2.3,2,4.6,3.9,7.1,5.7c-2-2.2-4.3-4.3-6.5-6.3
		C242.2,186.2,239.8,184.2,237.4,182.5z" class="st4"></path>
	<path d="M246.2,177.7c0.9,2.9,1.9,5.7,3.1,8.5c1.2,2.8,2.4,5.5,3.9,8.2c-0.8-2.9-1.9-5.7-3.1-8.5
		C248.9,183.1,247.7,180.3,246.2,177.7z" class="st4"></path>
	<path d="M238.7,136.6c0.2,0.2,0.4,0.4,0.5,0.6c3.2,3.7,7.4,6.8,12.2,7.3c0.7,0.1,1.5,0.1,2.2-0.3
		c1.2-0.6,1.7-2.3,1.3-3.6c-0.3-1.3-1.3-2.4-2.2-3.5c-1.5-1.7-3-3.3-4.4-5.1c-0.5,0.1-1.1,0.3-1.6,0.5
		C243.9,133.6,241.2,134.9,238.7,136.6z" class="st4"></path>
	<path d="M219.5,158.6c-1.4,2.8-2.4,5.7-3.2,8.7c-0.2,1-0.5,2.1-0.6,3.1c2.1,1.8,4.7,3.1,7.4,3.7c1,0.2,2.1,0.3,2.9-0.1
		c0.5-0.3,0.9-0.7,1.2-1.2c1-1.7,0.5-4-0.5-5.8c-1.1-1.7-2.7-3-4.1-4.5C221.5,161.3,220.4,160,219.5,158.6z" class="st4"></path>
	<path d="M325.9,289c0,0,0.4,38.4-48.2,41.4c0,0-12.6-13-31.1-32.3c-1.7-1.7-3.4-3.5-5.1-5.3
		c-7.8-8.2-15.6-16.3-23.4-24.5c-8.5-9-17-18-25.6-27c-8.6-9.1-17.2-18.3-25.7-27.4c-8-8.6-15.9-17.2-23.7-25.8
		c-6.7-7.3-13.3-14.6-19.8-22.1c-4.7-5.3-9.3-10.7-13.7-16.2c-1.3-1.7-2.6-3.2-3.2-4.9c-0.6-1.6-0.7-3.3,0.3-5.4
		c2.8-6.3,6.9-12.3,11.4-17.4c8.1-9,18.5-15.7,30.1-19.3c0.3-0.1,0.7-0.2,1-0.3c0.9-0.3,1.7-0.3,2.6-0.2c1.3,0.2,2.5,0.8,3.4,1.8
		c14,14.9,86.2,91.8,134.7,144c2,2.2,4,4.3,6,6.4C309,268.6,319.6,280.7,325.9,289z" class="st2"></path>
	<path d="M296,254.3c-1.3,6.5-9,32.3-49.3,43.7c-1.7-1.7-3.4-3.5-5.1-5.3c12.5-4,43-16.5,48.5-44.8
		C292,250.1,294,252.2,296,254.3z" class="st4"></path>
	<path d="M151.9,102.1c-2.5,24.9-35.4,40.2-45.4,42.6c-0.6-1.6-0.7-3.3,0.3-5.4c2.8-6.3,6.9-12.3,11.4-17.4
		c8.1-9,18.5-15.7,30.1-19.3c0.3-0.1,0.7-0.2,1-0.3C150.2,102,151.1,101.9,151.9,102.1z" class="st7"></path>
	<path d="M103.8,338.9c0.4-3.8,1.2-7.5,2.3-11.1c1.1-3.6,2.5-7.2,4.3-10.5c3.5-6.7,8.8-12.7,15.6-16.4
		c6.8-3.8,14.8-4.7,22.4-4c3.8,0.3,7.6,1.2,11.2,2.6c1.8,0.7,3.5,1.6,5.2,2.6l2.5,1.4c0.8,0.5,1.5,1.2,2.3,1.7
		c6.1,4.7,10.8,11,14.4,17.7c3.6,6.7,6.2,13.9,7.9,21.3c3.4,14.7,4.2,30.2,1.3,45c1-7.5,1.3-15,0.7-22.5c-0.5-7.5-1.6-14.9-3.5-22.2
		c-1.9-7.2-4.4-14.3-8-20.8c-3.5-6.5-8.2-12.5-14-17c-0.7-0.6-1.4-1.2-2.2-1.7l-2.4-1.4c-1.6-1-3.2-1.8-4.9-2.5
		c-3.4-1.4-7-2.2-10.7-2.5c-7.3-0.8-14.9,0.2-21.5,3.6c-6.6,3.3-11.8,9-15.5,15.5C107.4,324.3,105,331.5,103.8,338.9z" class="st8"></path>
	<path d="M222.1,414.2c-0.2-0.3-0.1-0.7-0.1-1l0.1-1c0.1-0.6,0.1-1.3,0.1-1.9c0-1.2,0-2.4-0.2-3.5
		c-0.3-2.3-1.4-4.4-2.7-6.7c1.2,0.6,2.3,1.5,3.1,2.6c0.8,1.1,1.4,2.4,1.6,3.8c0.2,1.4,0.1,2.8-0.3,4.1c-0.2,0.7-0.4,1.3-0.7,1.9
		C222.8,413.1,222.3,413.6,222.1,414.2z" class="st4"></path>
	<path d="M230.8,399.6c1.1,0.5,2.1,1.4,2.8,2.4c0.7,1,1.2,2.2,1.4,3.5c0.4,2.5,0,5.1-1.4,7.1c-0.1-1.2-0.1-2.4-0.1-3.5
		c0-1.1-0.2-2.2-0.4-3.2c-0.2-1.1-0.5-2.1-0.9-3.1C231.8,401.7,231.3,400.7,230.8,399.6z" class="st4"></path>
	<path d="M398.8,97c-3.1-8.3-7.5-21.5-17.9-17.5c-9.5,3.6-3.8,13-3.8,13s-9.2-3.5-21.5,5.7c-12.3,9.2-3.8,38,14.7,41.2
		c18.5,3.1,23.8-14.9,23.8-14.9s1.4,8.5,9.5,4.6C410.4,125.9,401.9,105.3,398.8,97z M377.1,119.9c-1.9,0.6-4.1,0-5.8-1.2
		c-1.6-1.2-2.8-2.9-3.6-4.8c-0.5-1.2-0.9-2.5-0.9-3.8c0-1.3,0.5-2.7,1.4-3.6c2.5-2.5,6.7-1.6,8.7,0.9c0.8,1,1.3,2.1,1.9,3.3
		C380.4,114,381.7,118.6,377.1,119.9z" class="st2"></path>
	<path d="M190.6,275c-0.7,2.2-2.1,4.1-3.3,6.1c-1.3,2.3-2.3,4.8-3,7.4c-6.2-1.2-12.6-4.1-18.9-9.4c0,0,0,0,0,0
		c-0.1,0-0.1-0.1-0.2-0.1l0,0c0.8-1.9,2-3.6,3.4-5c3.8-4,9.1-6.6,14.6-7.1c2.3-0.2,4.9,0,6.5,1.7C191.2,270.1,191.3,272.8,190.6,275
		z" class="st4"></path>
	<path d="M235.1,233.8c-0.1,0.1-0.3,0.3-0.5,0.4c-0.4,0.4-0.9,0.7-1.3,1c-3.6,2.5-7.8,4.5-10.3,8.2
		c-1.1,1.6-1.9,3.6-3.5,4.6c-2,1.3-4.7,1-6.9,0.1c-1.3-0.5-2.5-1.1-3.4-2.1c-2.2-2.5-1.6-6.5-0.3-9.5c0.4-0.9,0.9-1.9,1.4-2.8
		c0-0.1,0.1-0.2,0.2-0.3c4.1-0.5,8.5-0.7,13.2-0.6C227.9,232.7,231.6,233.1,235.1,233.8z" class="st4"></path>
	<path d="M129.3,219.2c-0.5,2.9-3.2,5-6.1,5.5c-2.9,0.5-5.8-0.4-8.5-1.7c-4.5-2.1-8.4-5.2-12.2-8.5
		c-2.7-2.4-5.4-4.9-7.9-7.5c6-4.7,12.2-8.7,18.4-12.1c1.8,1.9,3.3,3.9,4.9,6c2.7,3.4,5.3,6.7,7.9,10.1
		C127.8,213.4,129.8,216.2,129.3,219.2z" class="st4"></path>
	<path d="M73.1,252.5c-3.7-1.8-7-4-10.3-6.5c2.6-5.5,5.7-10.6,9-15.3c6.4,4.3,12.2,9.8,17.4,15.2
		c1.4,1.5,2.7,3.1,2.9,5.1C93.3,261.5,76.9,254.3,73.1,252.5z" class="st4"></path>
	<path d="M83.5,293.5c-0.9,3.1-4.9,3.8-8.1,3.8c-8.2,0-16.3-1.4-24.3-3.2c0.4-5.4,1.1-10.9,2.1-16.5
		c5.4,1.9,10.9,3.4,16.4,4.8c4.6,1.1,9.6,2.3,12.5,6C83.3,289.9,84,291.8,83.5,293.5z" class="st4"></path>
	<path d="M78.7,328.6c0.3,2.9-2.6,5.1-5.3,6.4c-5.8,2.8-12.1,4.8-18.5,5.8c-1.5-5.1-2.6-10.4-3.3-16
		c7.5-1.3,15-3.2,22-0.8C76,324.7,78.4,326.2,78.7,328.6z" class="st4"></path>
	<path d="M93,368.7c0.3,6.3-3.5,11.9-7.6,16.8c-5.7-3.9-10.6-8.5-14.9-13.8c3.4-3,7.1-5.6,11.2-7.7
		c2.8-1.4,6.4-2.5,8.9-0.7C92.3,364.5,92.9,366.6,93,368.7z" class="st4"></path>
	<path d="M224.3,209.8c24,24.9,39.7,48.7,34.9,53.3c-4.8,4.6-28.1-11.8-52.1-36.7c-24-24.9-39.7-48.7-34.9-53.3
		C176.9,168.5,200.3,184.9,224.3,209.8z" class="st7"></path>
	<g>
		<path d="M266.2,260.6c-2.3,5.7-10.4,10.3-20.9,12.7c0,0,0,0-0.1,0c-5.8,1.3-12.2,2-18.9,1.9c0,0-4.5,4.2-11.8,8
			c-7.7,4-18.5,7.6-30.1,5.4c-0.1,0-0.1,0-0.1,0c-1.2-0.2-2.3-0.5-3.5-0.8c-5.1-1.5-10.3-4.2-15.4-8.6c0,0,0,0,0-0.1
			c-0.1,0-0.1-0.1-0.2-0.2c-0.9-0.8-1.9-1.7-2.8-2.6c-4.3-4.2-8.5-9.6-12.6-16.5c0,0,17-11.8,31.6-18.4c0.4-0.2,0.8-0.4,1.2-0.6
			c0.8-0.4,1.7-0.7,2.6-1.1c2.3-0.9,4.6-1.7,6.6-2.2c3.5-0.8,7.5-1.9,12-2.7c2.2-0.4,4.4-0.8,6.7-1.1c6.4-0.8,13.3-1.1,20.5-0.1
			c1.2,0.2,2.4,0.4,3.6,0.6c7.8,1.5,15.7,4.7,23.5,10.4c1.5,1.1,2.7,2.1,3.8,3.2C266.7,252.4,267.7,256.8,266.2,260.6z" class="st1"></path>
		<path d="M174.2,245.4c2.2-1.6,4.6-2.9,7.1-4.2l0,0l0,0c3.6-1.7,7.3-3.2,11.1-4.5c3.8-1.2,7.7-2.2,11.6-3l0,0l0,0l0,0
			l-0.1,0c2.6-0.4,5.1-0.8,7.7-1.1c2.6-0.3,5.2-0.5,7.8-0.6c1.3,0,2.6-0.1,3.9-0.1c1.3,0,2.6,0.1,3.9,0.2l3.9,0.2l3.9,0.6l-0.1,0
			l0,0l0.1,0l0.1,0c5.9,1,11.6,2.9,16.9,5.8c5.2,2.9,10.1,6.8,13.1,12.2c1.5,2.7,2.4,5.9,1.9,9.1c-0.4,3.2-2.5,6.1-4.9,7.9
			c-2.5,1.9-5.3,3.1-8.1,4.1c-2.9,1-5.8,1.6-8.7,2.1l-0.1,0l-0.1,0l-0.1,0l0.2,0c-6.7,1.1-13.4,1.5-20.1,1.4l0.7-0.3
			c-2.7,2.8-5.7,5.1-8.9,7.2c-3.2,2.1-6.6,3.8-10.2,5.1c-3.6,1.3-7.4,2.1-11.2,2.3c-3.8,0.2-7.7-0.1-11.4-0.9l0.1,0
			c-0.1,0-0.2,0-0.3-0.1L184,289c0,0,0,0.1,0.3,0.1l-0.1,0c-1.7-0.5-3.5-0.9-5.2-1.6c-1.7-0.6-3.3-1.4-4.9-2.2
			c-3.2-1.7-6.2-3.7-8.9-5.9l-0.1-0.1c0,0,0,0,0,0l0.1,0.1l-0.2-0.1l-0.1,0c-1.3-1.2-2.7-2.3-3.9-3.5c-1.3-1.2-2.5-2.4-3.7-3.7
			c-2.4-2.5-4.6-5.3-6.6-8c2.2,2.7,4.5,5.3,6.9,7.8c1.2,1.2,2.5,2.4,3.8,3.6c1.3,1.2,2.7,2.2,4,3.3l-0.1,0l0.2,0.1l0.1,0l0,0
			c0,0,0.1,0.1,0.1,0.2l-0.1-0.1c2.8,2.1,5.8,4,9,5.6c1.6,0.8,3.2,1.5,4.8,2.1c1.6,0.6,3.4,1,5,1.5l-0.1,0c0.4,0.1,0.3,0.1,0.4,0.1
			l-0.1,0c-0.1,0-0.2-0.1-0.2-0.1l0.1,0c3.6,0.8,7.3,1,11,0.7c3.7-0.3,7.3-1.2,10.7-2.5c3.4-1.3,6.7-3,9.8-5c3.1-2,6-4.4,8.5-7
			l0.3-0.3l0.4,0c6.6,0.1,13.2-0.4,19.7-1.5l0.1,0l0.1,0l0.1,0l-0.2,0c5.7-1.1,11.5-2.6,16-5.9c2.2-1.7,3.9-4,4.2-6.6
			c0.4-2.7-0.4-5.5-1.7-7.9c-2.7-5-7.3-8.8-12.3-11.6c-5-2.8-10.6-4.6-16.3-5.8l0.1,0l0,0l-0.1,0l-0.1,0l-3.8-0.6l-3.8-0.3
			c-1.3-0.1-2.6-0.2-3.8-0.3c-1.3,0-2.6,0-3.9,0c-2.6,0-5.1,0.2-7.7,0.4c-2.6,0.3-5.1,0.7-7.7,1l-0.1,0l0,0l0,0l0.1,0
			c-3.9,0.6-7.8,1.5-11.6,2.6c-3.8,1.1-7.5,2.5-11.2,4.1l0,0C178.9,242.6,176.5,243.9,174.2,245.4z" class="st8"></path>
		<path d="M251.1,271.5c-0.7-3.3-1.6-6.4-3.2-9c-0.8-1.4-1.7-2.6-2.9-3.7c-1.1-1.1-2.4-2-3.8-3.1
			c1.7,0.3,3.4,0.8,4.8,1.9c0.8,0.4,1.4,1.1,2,1.7c0.6,0.7,1.1,1.4,1.6,2.1c0.9,1.5,1.5,3.2,1.7,4.9
			C251.6,268.1,251.5,269.8,251.1,271.5z" class="st4"></path>
		<path d="M263.1,264.4c-1.2-3.2-2.4-6.1-4-8.8c-0.8-1.3-1.8-2.6-2.9-3.7c-1.1-1.1-2.4-2-3.9-2.9
			c1.7,0.1,3.4,0.7,4.9,1.7c1.4,1,2.6,2.4,3.6,3.8c0.9,1.5,1.6,3.1,2,4.8C263.1,260.9,263.3,262.7,263.1,264.4z" class="st4"></path>
	</g>
	<path d="M425.7,228.6c-1.1-4.9-4.8-9-9.2-11.5c-6.1-3.5-12.8-2.2-18.2,1.9c-0.8,0.6-1.6,1.3-2.3,2
		c0,0,4.3-17.4,3.8-23.4c-0.5-5.9-8.5-10-12.7-5.6c-4.1,4.4-14.6,52.5-11.5,56.6c3,4,13.4,6.8,15.9-1.5c0,0,6.9,11.3,20.7,7.5
		c5.7-1.6,9.9-6,12-11.5C425.9,238.5,426.8,233.4,425.7,228.6z M412,232.5c-0.4,3.2-2.5,8.2-6.6,6.8c-3.8-1.3-2.4-5.8-1.6-8.6
		c0.8-2.4,3-4.8,5.8-4.1C412,227.2,412.2,230.5,412,232.5z" class="st1"></path>
	<path d="M468.1,177.8c2-0.3,4.1-0.4,6.1-0.3c3.6,0.3,6.6,3,6.3,6.8c-0.2,2.6-2.2,4.8-4.5,5.7c-2.5,0.9-5.9,0.5-7.6,2.9
		c-0.8,1.1-1.2,2.3-1.3,3.6c-0.3,2.5,0.2,5.7,2.1,7.5c2.2,2.1,6,0.5,7.2-2c0.7-1.5,0.6-3,2-4.1c0.7-0.6,1.6-0.9,2.5-1.2
		c7.3-1.9,9.5,7.4,8.3,12.8c-1.3,6-6.3,9.1-12.1,10.2c-9,1.8-17.8-1.4-22.3-9.6c-2.5-4.6-3.7-9.9-3.7-15.1c0-1.9,0-3.8,0.5-5.6
		c1.1-4.6,4.3-7.6,8.5-9.4c0.7-0.3,1.4-0.6,2.2-0.8C464,178.6,466.1,178.1,468.1,177.8z" class="st0"></path>
	<path d="M229.7,320.1c1.1,0.5,2.1,1.4,2.9,2.3c0.8,0.9,1.5,2,2,3.1c1,2.2,1.4,5,0.3,7.2c-0.3-1.2-0.5-2.3-0.9-3.4
		c-0.4-1-0.7-2.1-1.2-3.1C231.8,324.2,230.7,322.3,229.7,320.1z" class="st8"></path>
	<path d="M227.6,327.7c1.6-1.6,3.4-2.7,5.2-3.7c0.9-0.5,1.8-1,2.8-1.5c0.9-0.5,1.9-0.9,2.8-1.5c-0.4,1.1-1.2,2-2,2.7
		c-0.8,0.8-1.7,1.4-2.7,1.9C231.9,326.7,229.9,327.5,227.6,327.7z" class="st8"></path>
	<path d="M188.4,268.1c-0.5,1.7-1.7,3.2-2.6,4.8c-2.1,3.7-2.6,8.1-3.9,12.1c-0.3,0.9-0.6,1.7-1,2.6c0,0,0,0.1-0.1,0.1
		c-5.1-1.5-10.3-4.2-15.4-8.6c0,0,0,0,0-0.1c-0.1,0-0.1-0.1-0.2-0.1c-1-0.8-1.9-1.6-2.9-2.4c0-0.1,0-0.1,0.1-0.2
		c1.4-3.4,3.5-6.6,5.9-8.8c4.5-4,10.7-5.9,16.6-5c0.8,0.1,1.7,0.3,2.3,0.8C188.7,264.2,188.9,266.4,188.4,268.1z" class="st4"></path>
	<path d="M231.3,233.2c-0.1,0.1-0.2,0.3-0.3,0.4c-0.1,0.2-0.3,0.3-0.5,0.5c-2.4,2.1-5.6,3-8.2,4.8
		c-2.7,1.9-4.7,4.7-7.2,6.9c-2.5,2.2-5.9,3.9-9,3c-3-0.9-4.9-4-4.9-7.1c0-2.6,1-4.9,2.5-6.9h0c0.1-0.2,0.2-0.4,0.4-0.5h0
		c2.1-0.4,4.3-0.7,6.5-0.9c4.1-0.5,8.5-0.7,13.2-0.6C226.5,232.7,229,232.9,231.3,233.2z" class="st4"></path>
</g>
</svg>
