<svg xml:space="preserve" style="enable-background:new 0 0 500 500;" viewBox="0 0 500 500" y="0px" x="0px"
     xmlns="http://www.w3.org/2000/svg" id="图层_1" version="1.0">
<style type="text/css">
	.st0{fill:#5ED6B6;}
	.st1{fill:#FD913E;}
	.st2{fill:#A1312F;}
	.st3{fill:#FDBD87;}
	.st4{fill:#91E6DD;}
	.st5{opacity:0.48;fill:#FB5555;}
	.st6{fill:#FFFFFF;}
	.st7{opacity:0.21;fill:#A1312F;}
	.st8{opacity:0.48;fill:#A1312F;}
	.st9{fill:#C75325;}
	.st10{opacity:0.2;fill:#A1312F;}
</style>
<g>
	<path d="M438.1,243.6c-0.2,0-0.5,0-0.7-0.1c-1.1-0.4-1.7-1.6-1.3-2.8c0.2-0.7,0.5-1.3,0.7-2c0.4-1.1,1.6-1.8,2.7-1.4
		c1.1,0.4,1.8,1.6,1.4,2.7c-0.2,0.7-0.5,1.4-0.7,2.1C439.8,243,438.9,243.6,438.1,243.6z M440.9,233.1c-0.1,0-0.3,0-0.4,0
		c-1.2-0.2-1.9-1.4-1.7-2.5c0.1-0.7,0.3-1.4,0.4-2.1c0.2-1.2,1.3-2,2.5-1.8c1.2,0.2,2,1.3,1.8,2.5c-0.1,0.7-0.3,1.5-0.4,2.2
		C442.8,232.4,441.9,233.1,440.9,233.1z M442.2,222.4c0,0-0.1,0-0.1,0c-1.2-0.1-2.1-1.1-2.1-2.3c0-0.7,0.1-1.4,0.1-2.1
		c0-1.2,1.1-2.2,2.2-2.1c1.2,0,2.1,1,2.1,2.2c0,0.7-0.1,1.5-0.1,2.2C444.3,221.5,443.4,222.4,442.2,222.4z M442.1,211.6
		c-1.1,0-2.1-0.9-2.2-2c-0.1-0.7-0.1-1.4-0.2-2.1c-0.1-1.2,0.8-2.2,2-2.4c1.2-0.1,2.2,0.8,2.4,2c0.1,0.7,0.1,1.5,0.2,2.2
		c0.1,1.2-0.8,2.2-2,2.3C442.2,211.6,442.2,211.6,442.1,211.6z M440.7,200.8c-1,0-1.9-0.7-2.1-1.8c-0.1-0.7-0.3-1.4-0.4-2.1
		c-0.2-1.2,0.5-2.3,1.7-2.5c1.2-0.2,2.3,0.5,2.5,1.7c0.1,0.7,0.3,1.4,0.4,2.2c0.2,1.2-0.6,2.3-1.8,2.5
		C441,200.8,440.9,200.8,440.7,200.8z M438.3,190.3c-0.9,0-1.8-0.6-2.1-1.6c-0.2-0.7-0.4-1.4-0.6-2c-0.3-1.1,0.3-2.4,1.4-2.7
		c1.2-0.4,2.4,0.3,2.7,1.4c0.2,0.7,0.4,1.4,0.6,2.1c0.3,1.2-0.4,2.3-1.5,2.7C438.7,190.2,438.5,190.3,438.3,190.3z M434.8,180
		c-0.8,0-1.7-0.5-2-1.3c-0.3-0.7-0.6-1.3-0.8-1.9c-0.5-1.1,0-2.4,1.1-2.9c1.1-0.5,2.4,0,2.9,1.1c0.3,0.7,0.6,1.4,0.9,2
		c0.5,1.1-0.1,2.4-1.2,2.8C435.4,180,435.1,180,434.8,180z M430,170.4c-0.7,0-1.5-0.4-1.9-1.1c-0.4-0.6-0.7-1.2-1.1-1.8
		c-0.6-1-0.4-2.3,0.7-3c1-0.7,2.3-0.4,3,0.7c0.4,0.6,0.8,1.3,1.2,1.9c0.6,1,0.3,2.4-0.7,3C430.7,170.3,430.3,170.4,430,170.4z
		 M423.7,161.5c-0.6,0-1.2-0.3-1.7-0.8c-0.5-0.5-0.9-1.1-1.4-1.6c-0.8-0.9-0.7-2.3,0.2-3.1c0.9-0.8,2.3-0.7,3.1,0.2
		c0.5,0.6,1,1.1,1.5,1.7c0.8,0.9,0.6,2.3-0.3,3.1C424.7,161.4,424.2,161.5,423.7,161.5z M416.1,153.9c-0.5,0-1-0.2-1.4-0.5
		c-0.5-0.5-1.1-0.9-1.6-1.3c-0.9-0.7-1.1-2.1-0.3-3c0.7-0.9,2.1-1.1,3-0.3c0.6,0.5,1.2,0.9,1.7,1.4c0.9,0.8,1,2.1,0.2,3.1
		C417.3,153.6,416.7,153.9,416.1,153.9z M407.3,147.5c-0.4,0-0.8-0.1-1.1-0.3c-0.6-0.4-1.2-0.7-1.8-1.1c-1-0.6-1.4-1.9-0.8-3
		c0.6-1,1.9-1.4,3-0.8c0.6,0.4,1.3,0.8,1.9,1.1c1,0.6,1.3,2,0.7,3C408.8,147.1,408.1,147.5,407.3,147.5z M397.7,142.5
		c-0.3,0-0.6-0.1-0.9-0.2c-0.6-0.3-1.3-0.6-1.9-0.8c-1.1-0.4-1.6-1.7-1.2-2.8c0.4-1.1,1.7-1.6,2.8-1.2c0.7,0.3,1.4,0.6,2,0.9
		c1.1,0.5,1.6,1.8,1.1,2.9C399.4,142,398.6,142.5,397.7,142.5z M387.6,138.8c-0.2,0-0.4,0-0.6-0.1c-0.7-0.2-1.4-0.4-2-0.6
		c-1.2-0.3-1.8-1.5-1.5-2.7c0.3-1.2,1.5-1.8,2.7-1.5c0.7,0.2,1.4,0.4,2.1,0.6c1.1,0.3,1.8,1.5,1.5,2.7
		C389.4,138.2,388.5,138.8,387.6,138.8z M377,136.3c-0.1,0-0.3,0-0.4,0c-0.7-0.1-1.4-0.3-2.1-0.4c-1.2-0.2-2-1.3-1.8-2.5
		c0.2-1.2,1.3-2,2.5-1.8c0.7,0.1,1.5,0.3,2.2,0.4c1.2,0.2,1.9,1.4,1.7,2.5C379,135.5,378,136.3,377,136.3z" class="st0"></path>
	<g>
		<g>
			<path d="M115.3,345.4c-1.2,0-2.1-0.9-2.2-2.1c0-1.2,0.9-2.2,2.1-2.2c0.7,0,1.4-0.1,2.1-0.1c1.2-0.1,2.2,0.8,2.3,2
				c0.1,1.2-0.8,2.2-2,2.3C116.8,345.4,116.1,345.4,115.3,345.4C115.3,345.4,115.3,345.4,115.3,345.4z M106.6,345.4c0,0-0.1,0-0.1,0
				c-0.7,0-1.5-0.1-2.2-0.2c-1.2-0.1-2.1-1.1-2-2.3c0.1-1.2,1.2-2.1,2.3-2c0.7,0.1,1.4,0.1,2.1,0.1c1.2,0.1,2.1,1.1,2,2.3
				C108.7,344.5,107.8,345.4,106.6,345.4z M126.1,344.4c-1.1,0-2-0.8-2.1-1.8c-0.2-1.2,0.6-2.3,1.8-2.5c0.7-0.1,1.4-0.2,2.1-0.3
				c1.2-0.2,2.3,0.6,2.5,1.8c0.2,1.2-0.6,2.3-1.8,2.5c-0.7,0.1-1.5,0.2-2.2,0.3C126.3,344.4,126.2,344.4,126.1,344.4z M95.9,344.1
				c-0.1,0-0.3,0-0.4,0c-0.7-0.1-1.5-0.3-2.2-0.4c-1.2-0.3-1.9-1.4-1.7-2.6c0.2-1.2,1.4-1.9,2.6-1.7c0.7,0.1,1.4,0.3,2.1,0.4
				c1.2,0.2,2,1.4,1.7,2.5C97.8,343.3,96.9,344.1,95.9,344.1z M85.4,341.4c-0.2,0-0.5,0-0.7-0.1c-0.7-0.2-1.4-0.5-2.1-0.8
				c-1.1-0.4-1.7-1.7-1.3-2.8c0.4-1.1,1.7-1.7,2.8-1.3c0.7,0.2,1.3,0.5,2,0.7c1.1,0.4,1.7,1.6,1.4,2.7
				C87.1,340.8,86.3,341.4,85.4,341.4z M75.5,337.1c-0.3,0-0.7-0.1-1-0.3c-0.7-0.4-1.3-0.7-2-1.1c-1-0.6-1.4-1.9-0.8-3
				c0.6-1,1.9-1.4,3-0.8c0.6,0.3,1.2,0.7,1.8,1c1.1,0.6,1.5,1.9,0.9,2.9C77,336.7,76.2,337.1,75.5,337.1z M66.4,331.2
				c-0.5,0-0.9-0.2-1.3-0.5c-0.6-0.5-1.2-0.9-1.7-1.4c-0.9-0.8-1-2.1-0.2-3.1c0.8-0.9,2.2-1,3.1-0.2c0.5,0.4,1.1,0.9,1.6,1.3
				c0.9,0.7,1.1,2.1,0.4,3C67.7,330.9,67,331.2,66.4,331.2z M58.6,323.7c-0.6,0-1.2-0.3-1.7-0.8c-0.5-0.6-1-1.2-1.4-1.8
				c-0.7-0.9-0.6-2.3,0.4-3c0.9-0.7,2.3-0.6,3,0.4c0.4,0.5,0.9,1.1,1.3,1.6c0.8,0.9,0.7,2.3-0.3,3.1
				C59.6,323.5,59.1,323.7,58.6,323.7z M52.6,314.7c-0.8,0-1.5-0.4-1.9-1.2c-0.4-0.7-0.7-1.3-1-2c-0.5-1.1-0.1-2.4,1-2.9
				c1.1-0.5,2.4-0.1,2.9,1c0.3,0.6,0.6,1.2,0.9,1.9c0.6,1.1,0.2,2.4-0.9,2.9C53.3,314.6,52.9,314.7,52.6,314.7z M48.6,304.7
				c-0.9,0-1.8-0.6-2.1-1.6c-0.2-0.7-0.4-1.4-0.6-2.2c-0.3-1.2,0.5-2.3,1.6-2.6c1.2-0.3,2.3,0.5,2.6,1.6c0.2,0.7,0.3,1.3,0.5,2
				c0.3,1.2-0.4,2.3-1.5,2.7C49,304.6,48.8,304.7,48.6,304.7z M46.7,294c-1.1,0-2.1-0.9-2.2-2c-0.1-0.7-0.1-1.5-0.1-2.2
				c0-1.2,0.9-2.2,2.1-2.2c1.2,0,2.2,0.9,2.2,2.1c0,0.7,0.1,1.4,0.1,2.1c0.1,1.2-0.8,2.2-2,2.3C46.8,294,46.8,294,46.7,294z
				 M47,283.2c-0.1,0-0.2,0-0.2,0c-1.2-0.1-2.1-1.2-1.9-2.4c0.1-0.7,0.2-1.5,0.3-2.2c0.2-1.2,1.2-2,2.4-1.8c1.2,0.2,2,1.3,1.8,2.4
				c-0.1,0.7-0.2,1.4-0.3,2.1C49,282.4,48.1,283.2,47,283.2z M49,272.5c-0.2,0-0.4,0-0.6-0.1c-1.2-0.3-1.9-1.5-1.5-2.6
				c0.2-0.7,0.4-1.4,0.6-2.1c0.3-1.1,1.5-1.8,2.7-1.5c1.1,0.3,1.8,1.5,1.5,2.7c-0.2,0.7-0.4,1.4-0.6,2
				C50.8,271.9,49.9,272.5,49,272.5z M52.3,262.3c-0.2,0-0.5,0-0.7-0.1c-1.1-0.4-1.8-1.6-1.4-2.7c0.2-0.7,0.4-1.3,0.6-2
				c0.3-1.1,1.5-1.8,2.7-1.5c1.1,0.3,1.8,1.5,1.5,2.7c-0.2,0.7-0.4,1.4-0.7,2.1C54.1,261.7,53.3,262.3,52.3,262.3z M54.8,251.7
				c-0.1,0-0.2,0-0.3,0c-1.2-0.2-2-1.3-1.8-2.4c0.1-0.7,0.2-1.4,0.3-2.1c0.1-1.2,1.2-2.1,2.4-1.9c1.2,0.1,2.1,1.2,1.9,2.4
				c-0.1,0.7-0.2,1.5-0.3,2.2C56.8,250.9,55.9,251.7,54.8,251.7z M55.4,240.9c-1.2,0-2.1-0.9-2.2-2.1c0-0.7,0-1.4-0.1-2.1
				c-0.1-1.2,0.9-2.2,2.1-2.3c1.2,0,2.2,0.9,2.3,2.1c0,0.7,0.1,1.5,0.1,2.2C57.6,239.9,56.7,240.9,55.4,240.9
				C55.4,240.9,55.4,240.9,55.4,240.9z M54.5,230.1c-1.1,0-2-0.8-2.1-1.8c-0.1-0.7-0.2-1.4-0.3-2.1c-0.2-1.2,0.6-2.3,1.8-2.5
				c1.2-0.2,2.3,0.6,2.5,1.8c0.1,0.7,0.2,1.5,0.3,2.2c0.2,1.2-0.6,2.3-1.8,2.5C54.7,230.1,54.6,230.1,54.5,230.1z M52.3,219.5
				c-1,0-1.9-0.7-2.1-1.6c-0.2-0.7-0.3-1.4-0.5-2.1c-0.3-1.2,0.4-2.3,1.5-2.7c1.2-0.3,2.3,0.4,2.7,1.5c0.2,0.7,0.4,1.4,0.6,2.1
				c0.3,1.2-0.4,2.3-1.6,2.6C52.7,219.5,52.5,219.5,52.3,219.5z M49.3,209.1c-0.9,0-1.7-0.5-2-1.4c0,0-0.1-0.2-0.1-0.2
				c-0.2-0.6-0.4-1.3-0.6-1.9c-0.4-1.1,0.2-2.4,1.3-2.8c1.1-0.4,2.4,0.2,2.8,1.3c0.2,0.7,0.5,1.3,0.7,2c0.4,1.1-0.2,2.4-1.3,2.8
				C49.8,209,49.6,209.1,49.3,209.1z M45.6,198.9c-0.9,0-1.7-0.5-2-1.4l-0.8-2c-0.4-1.1,0.1-2.4,1.2-2.8c1.1-0.5,2.4,0.1,2.8,1.2
				l0.8,2c0.4,1.1-0.1,2.4-1.2,2.8C46.1,198.9,45.9,198.9,45.6,198.9z M41.6,188.9c-0.9,0-1.7-0.5-2-1.4l-0.8-2
				c-0.4-1.1,0.1-2.4,1.2-2.8c1.1-0.4,2.4,0.1,2.8,1.2l0.8,2c0.4,1.1-0.1,2.4-1.2,2.8C42.1,188.8,41.8,188.9,41.6,188.9z
				 M37.8,178.7c-0.9,0-1.8-0.6-2.1-1.5c-0.2-0.7-0.5-1.4-0.7-2.1c-0.3-1.1,0.3-2.4,1.4-2.7c1.2-0.3,2.4,0.3,2.7,1.4
				c0.2,0.7,0.4,1.3,0.6,2c0.4,1.1-0.2,2.4-1.4,2.7C38.3,178.6,38.1,178.7,37.8,178.7z M35.1,168.2c-1,0-1.9-0.7-2.1-1.8
				c-0.1-0.7-0.3-1.5-0.4-2.2c-0.2-1.2,0.6-2.3,1.8-2.5c1.2-0.2,2.3,0.6,2.5,1.8c0.1,0.7,0.2,1.4,0.4,2.1c0.2,1.2-0.6,2.3-1.7,2.5
				C35.4,168.2,35.2,168.2,35.1,168.2z M34.1,157.4C34.1,157.4,34.1,157.4,34.1,157.4c-1.2,0-2.2-1-2.2-2.1c0-0.8,0-1.6,0.1-2.3
				c0.1-1.2,1.2-2.1,2.3-2c1.2,0.1,2.1,1.1,2,2.3c-0.1,0.7-0.1,1.3-0.1,2C36.2,156.5,35.3,157.4,34.1,157.4z M87.1,147.9
				c-0.3,0-0.6-0.1-0.9-0.2c-0.8-0.4-1.5-0.8-2.2-1.4c-0.9-0.7-1.1-2.1-0.3-3c0.7-0.9,2.1-1.1,3-0.3c0.4,0.4,0.9,0.7,1.4,0.9
				c1.1,0.5,1.5,1.8,1,2.9C88.7,147.5,87.9,147.9,87.1,147.9z M95.5,147.7c-0.8,0-1.6-0.4-1.9-1.2c-0.5-1.1-0.1-2.4,1-2.9
				c0.5-0.2,0.9-0.5,1.3-0.9c0.9-0.8,2.2-0.8,3.1,0.1c0.8,0.9,0.8,2.2-0.1,3.1c-0.7,0.6-1.4,1.1-2.3,1.6
				C96.1,147.7,95.8,147.7,95.5,147.7z M36.1,146.9c-0.3,0-0.5,0-0.8-0.2c-1.1-0.4-1.7-1.7-1.2-2.8c0.3-0.7,0.6-1.4,0.9-2.1
				c0.5-1.1,1.8-1.5,2.9-1c1.1,0.5,1.5,1.8,1,2.9c-0.3,0.6-0.6,1.2-0.8,1.8C37.8,146.3,37,146.9,36.1,146.9z M80.7,139.6
				c-0.9,0-1.8-0.6-2.1-1.5c-0.2-0.7-0.5-1.5-0.6-2.3c-0.3-1.2,0.4-2.3,1.6-2.6c1.2-0.3,2.3,0.4,2.6,1.6c0.2,0.7,0.3,1.3,0.5,1.9
				c0.4,1.1-0.2,2.4-1.4,2.7C81.1,139.5,80.9,139.6,80.7,139.6z M195.8,139c-0.8,0-1.6-0.5-2-1.3c0,0-0.3-0.7-0.9-1.9
				c-0.5-1.1-0.1-2.4,1-2.9c1.1-0.5,2.4-0.1,2.9,1c0.7,1.3,1,2,1,2c0.5,1.1,0,2.4-1.1,2.9C196.4,138.9,196.1,139,195.8,139z
				 M99.4,138.5c-1,0-1.9-0.7-2.1-1.7c-0.1-0.6-0.3-1.2-0.5-1.7c-0.4-1.1,0.1-2.4,1.2-2.8c1.1-0.4,2.4,0.1,2.8,1.2
				c0.3,0.8,0.6,1.6,0.7,2.4c0.3,1.2-0.5,2.3-1.7,2.6C99.7,138.5,99.5,138.5,99.4,138.5z M41.9,137.8c-0.5,0-1.1-0.2-1.5-0.6
				c-0.9-0.8-0.9-2.2-0.1-3.1c0.5-0.6,1.1-1.1,1.7-1.6c0.9-0.8,2.3-0.7,3.1,0.1c0.8,0.9,0.7,2.3-0.1,3.1c-0.5,0.5-1,0.9-1.4,1.4
				C43.1,137.6,42.5,137.8,41.9,137.8z M50.6,131.4c-0.8,0-1.5-0.4-1.9-1.2c-0.6-1.1-0.2-2.4,0.9-2.9c0.7-0.4,1.3-0.7,2-1
				c1.1-0.5,2.4-0.1,2.9,1c0.5,1.1,0.1,2.4-1,2.9c-0.6,0.3-1.3,0.6-1.9,1C51.3,131.3,51,131.4,50.6,131.4z M93.6,129.6
				c-0.5,0-1-0.2-1.4-0.5c-0.5-0.4-1-0.8-1.6-1.2c-1-0.7-1.3-2-0.6-3c0.7-1,2-1.3,3-0.6c0.7,0.5,1.3,0.9,1.9,1.4
				c0.9,0.8,1.1,2.1,0.3,3.1C94.8,129.3,94.2,129.6,93.6,129.6z M190.6,129.4c-0.7,0-1.5-0.4-1.9-1.1c-0.3-0.6-0.7-1.2-1.1-1.8
				c-0.6-1-0.3-2.4,0.7-3c1-0.6,2.4-0.3,3,0.7c0.4,0.6,0.8,1.3,1.1,1.9c0.6,1,0.3,2.4-0.8,3C191.4,129.3,191,129.4,190.6,129.4z
				 M79.3,128.9C79.3,128.9,79.3,128.9,79.3,128.9c-1.3-0.1-2.2-1.1-2.2-2.3c0-0.8,0.1-1.5,0.2-2.3c0.1-1.2,1.1-2,2.3-2
				c0-0.2,0-0.3,0-0.5c0.2-1.2,1.3-2,2.5-1.8c0.8,0.1,1.5,0.3,2.3,0.5c1.2,0.3,1.9,1.5,1.6,2.6c-0.3,1.2-1.5,1.9-2.6,1.6
				c-0.6-0.1-1.1-0.3-1.7-0.4c0,0.1,0,0.2,0,0.3c-0.1,0.7-0.1,1.4-0.1,2C81.5,128,80.5,128.9,79.3,128.9z M60.5,127
				c-0.9,0-1.7-0.6-2-1.4c-0.4-1.1,0.2-2.4,1.3-2.8c0.7-0.3,1.4-0.5,2.1-0.7c1.1-0.4,2.4,0.3,2.7,1.4c0.4,1.1-0.3,2.4-1.4,2.7
				c-0.6,0.2-1.3,0.4-2,0.7C61,127,60.8,127,60.5,127z M71,124.4c-1.1,0-2-0.8-2.1-1.9c-0.2-1.2,0.7-2.3,1.9-2.4
				c0.8-0.1,1.5-0.2,2.3-0.3c1.2-0.1,2.2,0.8,2.3,2c0.1,1.2-0.8,2.2-2,2.3c-0.7,0.1-1.4,0.1-2,0.2C71.2,124.4,71.1,124.4,71,124.4z
				 M184.8,120.2c-0.7,0-1.4-0.3-1.8-0.9c-0.4-0.6-0.8-1.2-1.2-1.8c-0.7-1-0.5-2.3,0.5-3c1-0.7,2.3-0.5,3,0.5
				c0.4,0.6,0.9,1.2,1.3,1.8c0.7,1,0.4,2.3-0.5,3C185.6,120.1,185.2,120.2,184.8,120.2z M81.2,118.2c-0.2,0-0.4,0-0.7-0.1
				c-1.1-0.4-1.8-1.6-1.4-2.7c0.2-0.7,0.5-1.4,0.7-2.1c0.4-1.1,1.7-1.7,2.8-1.3c1.1,0.4,1.7,1.7,1.3,2.8c-0.2,0.7-0.5,1.3-0.7,2
				C83,117.7,82.2,118.2,81.2,118.2z M178.3,111.5c-0.6,0-1.3-0.3-1.7-0.8c-0.4-0.5-0.9-1.1-1.4-1.6c-0.8-0.9-0.7-2.3,0.3-3.1
				c0.9-0.8,2.3-0.7,3.1,0.3c0.5,0.6,1,1.1,1.4,1.7c0.8,0.9,0.6,2.3-0.3,3C179.2,111.4,178.7,111.5,178.3,111.5z M85.7,108.4
				c-0.4,0-0.8-0.1-1.1-0.3c-1-0.6-1.4-2-0.7-3c0.4-0.6,0.8-1.3,1.2-1.9c0.7-1,2-1.3,3-0.6c1,0.7,1.3,2,0.6,3
				c-0.4,0.6-0.8,1.2-1.1,1.7C87.1,108,86.4,108.4,85.7,108.4z M171,103.5c-0.6,0-1.1-0.2-1.5-0.6c-0.5-0.5-1-1-1.5-1.5
				c-0.9-0.8-0.9-2.2-0.1-3.1c0.8-0.9,2.2-0.9,3.1-0.1c0.5,0.5,1.1,1,1.6,1.6c0.8,0.8,0.8,2.2,0,3.1
				C172.1,103.3,171.6,103.5,171,103.5z M92.3,99.8c-0.5,0-1.1-0.2-1.5-0.6c-0.9-0.8-0.9-2.2,0-3.1c0.5-0.5,1.1-1.1,1.6-1.6
				c0.9-0.8,2.2-0.8,3.1,0.1c0.8,0.9,0.8,2.2-0.1,3.1c-0.5,0.5-1,1-1.5,1.4C93.4,99.6,92.9,99.8,92.3,99.8z M162.9,96.2
				c-0.5,0-0.9-0.2-1.3-0.5c-0.6-0.4-1.1-0.9-1.7-1.3c-1-0.7-1.2-2.1-0.4-3c0.7-1,2.1-1.2,3-0.4c0.6,0.4,1.2,0.9,1.8,1.4
				c0.9,0.7,1.1,2.1,0.4,3C164.2,96,163.6,96.2,162.9,96.2z M100.7,93c-0.7,0-1.4-0.3-1.8-1c-0.7-1-0.4-2.3,0.6-3
				c0.6-0.4,1.3-0.8,1.9-1.2c1-0.6,2.4-0.3,3,0.7c0.6,1,0.3,2.4-0.7,3c-0.6,0.4-1.2,0.7-1.8,1.1C101.5,92.9,101.1,93,100.7,93z
				 M154,90.2c-0.4,0-0.7-0.1-1.1-0.3c-0.6-0.3-1.2-0.7-1.8-1c-1.1-0.5-1.5-1.9-0.9-2.9c0.5-1.1,1.8-1.5,2.9-0.9
				c0.7,0.3,1.3,0.7,2,1.1c1,0.6,1.4,1.9,0.8,3C155.4,89.8,154.7,90.2,154,90.2z M110.2,87.9c-0.8,0-1.7-0.5-2-1.3
				c-0.5-1.1,0.1-2.4,1.2-2.8c0.7-0.3,1.4-0.6,2.1-0.8c1.1-0.4,2.4,0.1,2.8,1.3c0.4,1.1-0.1,2.4-1.3,2.8c-0.7,0.2-1.3,0.5-1.9,0.8
				C110.8,87.9,110.5,87.9,110.2,87.9z M144.1,85.8c-0.2,0-0.4,0-0.7-0.1c-0.7-0.2-1.3-0.4-2-0.6c-1.2-0.3-1.8-1.5-1.5-2.7
				c0.3-1.2,1.5-1.8,2.7-1.5c0.7,0.2,1.5,0.4,2.2,0.6c1.1,0.4,1.8,1.6,1.4,2.7C145.8,85.3,145,85.8,144.1,85.8z M120.5,84.7
				c-1,0-1.9-0.7-2.1-1.7c-0.3-1.2,0.5-2.3,1.7-2.6c0.7-0.2,1.5-0.3,2.2-0.4c1.2-0.2,2.3,0.6,2.5,1.8c0.2,1.2-0.6,2.3-1.8,2.5
				c-0.7,0.1-1.3,0.2-2,0.4C120.9,84.6,120.7,84.7,120.5,84.7z M133.5,83.7c-0.1,0-0.1,0-0.2,0c-0.7-0.1-1.4-0.1-2.1-0.1
				c-1.2,0-2.1-1-2.1-2.2c0-1.2,1.1-2.2,2.2-2.1c0.8,0,1.5,0.1,2.3,0.1c1.2,0.1,2.1,1.1,2,2.3C135.5,82.9,134.6,83.7,133.5,83.7z" class="st0"></path>
			<path d="M355.9,216.3c-0.7-5.3-2.1-10.9-4.2-17c-2.2-6.2-5.2-12.7-9.2-19.7c3.7-4.2,9.2-12,11.9-23.2
				c0.2-0.7,0.3-1.4,0.5-2.2c0.3-1.6,0.6-3.3,0.7-5l0-0.2c0.1-1.4,0.2-2.8,0.3-4.3c0-0.3,0-0.6,0-0.9c0-0.3,0-0.6,0-0.9
				c0-2.8-0.2-5.6-0.5-8.4c0-0.6-0.1-1.1-0.2-1.7c-0.2-1.2-0.4-2.4-0.6-3.6c0-0.1,0-0.2-0.1-0.3c-0.5-2.4-1.2-4.7-2-7
				c-0.2-0.6-0.4-1.1-0.6-1.7c-3.4-8.2-9.2-15.8-19-22c0.1-0.1,0.1-0.2,0.2-0.3c3.1-5.3,5.1-14.7,4.2-20.1c-0.2-1.5-0.6-2.7-1.3-3.5
				c-0.3-0.3-0.6-0.5-0.9-0.6c-5.4-2.3-10.8-0.1-14.8,3.6c-2.7,2.5-4.9,5.9-7.9,8.2c-0.2,0.2-2.2,1.7-3.7,2.7l-0.3,0.2c0,0,0,0,0,0
				c-2.1-0.5-4.3-1-6.6-1.5c-0.8-0.2-1.7-0.3-2.6-0.5c-0.2,0-0.5-0.1-0.8-0.1c-7.9-1.3-15.3-2.3-22.3-2.8c-1.6-0.1-3.2-0.2-4.7-0.3
				l0,0c-3.8-0.2-7.4-0.3-10.9-0.2c-0.4,0-0.7,0-1.1,0c-2.8,0.1-5.5,0.2-8.1,0.4c0-0.1,0-0.2,0-0.3c0.1-5.1-1.7-10.3-4.1-14.3
				c-2.3-4-5.2-6.7-7.2-7c-4.5-0.7-8.1,8.6-12.4,15.6c-4.2,6.8-15.1,20.9-15.1,20.9c-2.2,2.3-4.1,4.8-5.5,7.5c-0.4,0.7-0.7,1.3-1,2
				c-0.2,0.3-0.3,0.7-0.4,1c-0.2,0.6-0.5,1.1-0.7,1.7c-0.1,0.3-0.2,0.6-0.4,0.9c-0.8,2-1.5,4.1-2.1,6.1c-3.4,0.9-6.8,1.8-10.2,2.8
				c-2.7,0.8-5.4,1.7-8.1,2.6c-7.1,2.4-14,5.1-20.9,8.1c-0.7,0.3-1.3,0.6-2,0.9c0,0-4.6,1.7-11.5,5.6c-6.2,3.5-14.4,8.8-22.7,16.2
				c-3.7,3.3-7.5,7.1-11.1,11.3c-5.1,5.9-10,12.8-14.3,20.7c-4.4,8.1-8,17.2-10.5,27.5c-0.2,0.7-0.4,1.5-0.5,2.3
				c-0.5,2.3-1,4.7-1.4,7.1c-0.8,5.2-1.5,10.3-1.9,15.4c-0.1,1.1-0.2,2.1-0.2,3.2c-0.6,9.4-0.5,18.5,0.4,27.2
				c0.5,5.5,1.3,10.7,2.4,15.9c1.4,6.7,3.4,13,5.8,19c2.1,5.2,4.6,10.1,7.4,14.7c12.4,20.2,31.6,34.3,57.3,39.2
				c56.8,11,181.4-90.2,181.4-90.2s3.1-2.9,6.5-8.6c2.5-4.3,5.2-10.1,6.8-17.4C356.6,233.9,357.2,225.7,355.9,216.3z" class="st1"></path>
			<path d="M388.2,358.6c-41,60.8-116.8,37.5-116.8,37.5l-1.8-7.2c47,6.8,115.6-5.9,117.4-78.6
				c0.8-33.1-15.4-53.9-32.8-66.6c1.1-4,2-8.5,2.1-12.4C401.9,258.5,416.1,317.4,388.2,358.6z" class="st2"></path>
			<path d="M277.9,382.6l0.6,22.3l30.7,17.8c0,0-14.9,15.5-39.4,15.1c-10.8-0.2-24.3-5-37.6-14.3l29.9-17l0.7-25.9
				L277.9,382.6z" class="st2"></path>
			<path d="M158.1,245.6c1.3-0.3,49.2-48.3,110.4-37.4c61.3,10.9,19.4,90.6,19.4,90.6l-101.5-6.9L158.1,245.6z" class="st3"></path>
			<path d="M359.2,304.6c0,20.6-7,39.6-18.9,54.6c-16.2,20.6-41.3,33.8-69.6,33.8c-12.2,0-23.8-2.5-34.4-6.9
				c-12.2-5.1-22.9-12.9-31.6-22.7c-14-15.6-22.4-36.2-22.4-58.8c0-48.9,39.6-88.4,88.5-88.4c6.6,0,13,0.7,19.2,2.1c0,0,0,0,0,0
				c18.3,4,34.4,13.7,46.5,27.2c13.5,15,21.9,34.5,22.6,56.1C359.2,302.6,359.2,303.6,359.2,304.6z" class="st0"></path>
			<path d="M359.2,304.6c0,20.6-7,39.6-18.9,54.6c-0.4-0.1-0.9-0.3-1.3-0.5c-3.1-1.5-5.5-4.3-8.8-5.5
				c-4.9-1.8-11.2,0.2-15.1-3.4c-1.8-1.6-2.6-4.2-4.2-5.9c-3.8-4.1-10.4-3-15.5-0.8c-2.1,0.9-4.6,2-6.7,1c-2.9-1.5-2.4-5.9-1-8.8
				c4.3-9,13.8-15.3,23.7-15.7c4-0.2,8,0.5,12,0.5c4,0.1,8.2-0.6,11.4-3.1c3.3-2.6,4.9-6.7,7.6-9.9c4.1-4.9,10.6-6.7,16.6-5.5
				C359.2,302.6,359.2,303.6,359.2,304.6z" class="st4"></path>
			<path d="M259.4,351.9c-2.2,6.2-8.8,10.4-9.8,17c-0.5,3.2,0.5,6.5-0.5,9.6c-0.9,2.7-3.2,4.7-5.9,5.9
				c-2.2,1-4.5,1.4-6.9,1.8c-12.2-5.1-22.9-12.9-31.6-22.7c0.5-0.5,1.1-1,1.6-1.4c6.3-4.8,14.5-6.1,22.4-7.1
				c2.8-0.3,5.7-0.7,8.2-1.8c2.1-0.9,3.9-2.3,5.8-3.5c3-1.8,6.2-3.2,9.6-4c2.4-0.6,5.5-0.6,6.9,1.5
				C260.2,348.5,260,350.3,259.4,351.9z" class="st4"></path>
			<path d="M336.6,245.5c-0.4,4-1.7,7.9-4.1,11.1c-2.8,3.6-6.9,5.9-11.2,7.7c-11.3,4.7-24.3,5.9-35.9,1.9
				c-4.1-1.5-8-3.5-12.1-4.9c-6.1-2-12.7-2.2-18.9-0.9c-4.7,1-9.1,3-13.8,3.9c-2.4,0.5-4.8,0.7-7.1-0.1c-2.3-0.7-4.4-2.4-4.9-4.8
				c-0.7-2.8,0.9-5.7,2.9-7.7c5.7-5.8,14.5-7,22.5-8.1c8.1-1.1,16.9-2.7,22-9.1c2.4-3,3.8-6.8,6-9.9c2.1-2.8,4.9-5,8-6.5
				c0,0,0,0,0,0C308.3,222.3,324.5,232,336.6,245.5z" class="st4"></path>
			<path d="M254.2,228.7c-1.2-0.5-2.1,1.1-1.1,1.8c17.3,12.2,73.4,51.2,76.3,49.1c0.4-0.3,2.5-2.1,1.4-3.2
				C323.2,268.7,272.1,237,254.2,228.7z" class="st2"></path>
			<path d="M231.7,88.5c4.4-2.5,9.3-3.9,13.3-4.6c4.1-0.7,7.2-0.8,7.3-0.8c0.1-10.2-7.2-20.7-11.3-21.3l0,0
				c-1.1,2.2-2.3,4.7-1.9,11c0,0.6,0.1,1.2,0,1.8C239,83,232.8,88,231.7,88.5z" class="st2"></path>
			<path d="M318.4,91.1c0,0,5.9,2.6,10.7,4.8c1.5,0.7,2.9,1.3,3.9,1.9c3.1-5.3,5-14.7,4.2-20.1
				c-0.2-1.5-0.7-2.7-1.3-3.5c0,0-2.3,0.6-4.8,5.2c-0.9,1.7-1.7,3.3-2.6,4.8C326.4,87.8,323.8,90.4,318.4,91.1z" class="st2"></path>
			<path d="M255.4,173c2.9,2.7,2.7,7.3-1.3,9c-5.4,2.3-14.6,0.4-18.4-4.1c-3.2-3.8-0.1-9.5,4.1-9.9
				c3.5-0.4,7.1,0.4,10.3,1.9C251.6,170.5,253.7,171.5,255.4,173z" class="st5"></path>
			<path d="M318.8,170.8c-3.4,2.1-4.1,6.8-0.4,9.3c5,3.4,14.6,3.2,19.3-0.6c4-3.2,1.9-9.5-2.2-10.8
				c-3.5-1.1-7.2-0.9-10.7-0.1C323.1,169,320.8,169.6,318.8,170.8z" class="st5"></path>
			<path d="M276.1,83.3c4.1,4.8,6.8,11.5,8.9,16.7c1.2,2.8,2.2,5.7,3.1,8.6c0.7,2.2,2.2,4.5,4.6,5.1
				c2.9,0.8,5.9-0.7,7.8-3c2.3-2.8,2.9-6.5,2.8-10c-0.1-5-1.7-10-4.2-14.4c-0.2,0-0.5-0.1-0.8-0.1C290.5,84.8,283,83.9,276.1,83.3z" class="st2"></path>
			<path d="M346.1,145.6c3.1,1,6.6,0.3,9.8-0.9c0-0.3,0-0.6,0-0.9c0-0.3,0-0.6,0-0.9c0-2.8-0.2-5.6-0.5-8.4
				C348.4,139.3,340.2,143.8,346.1,145.6z" class="st2"></path>
			<path d="M346.1,154.2c1.9,1.5,5.2,2.2,8.2,2.3c0.2-0.7,0.3-1.4,0.5-2.2c0.3-1.6,0.6-3.3,0.7-5c0-0.1,0-0.1,0-0.2
				C349.1,150,342.7,151.4,346.1,154.2z" class="st2"></path>
			<path d="M348.8,131.2c1.8,0,3.8-0.8,5.8-2c0-0.1,0-0.2-0.1-0.3c-0.5-2.4-1.2-4.7-2-7
				C348.2,126.5,344.6,131.3,348.8,131.2z" class="st2"></path>
			<path d="M260.4,82.8c1.1,1.5,2.3,3.1,3.1,4.3c2.7,3.9,5.3,9.2,7.7,10.1c4.9,1.8,7.6-2.9,4.9-8.4
				c-1.2-2.5-3.1-4.4-4.8-5.8l0,0C267.5,82.8,263.9,82.7,260.4,82.8z" class="st2"></path>
			<path d="M301.7,86.7c2.2,3.7,4.3,9.7,6.9,11c3.9,1.9,7.4-0.9,5.9-3.4c-1.4-2.4-3.1-4.3-4.7-5.8
				C307.3,87.9,304.6,87.3,301.7,86.7z" class="st2"></path>
			<g>
				<g>
					<path d="M237.5,163.2c4.8,4.4,13,6.7,19.4,5.2c1.4-0.3,2.7-0.9,3.9-1.6c5.2-3.3,8.8-9.8,9.6-15.8
						c0-0.1,0-0.3,0.1-0.4c0.7-6.1-2-12.1-6.9-15.7c-5.8-4.3-14.9-6.7-21.3-2.6c-2.5,1.6-4.7,4.1-6.3,6.9l0,0
						C231.5,146.7,231,157.3,237.5,163.2z" class="st6"></path>
					<path d="M233.8,157.9c-0.8-2-1.2-4.2-1.3-6.3c-0.1-2.2,0.2-4.4,0.7-6.5c0.5-2.1,1.3-4.2,2.3-6.1l0.1-0.2l0.3,0.1
						l0,0l-0.4,0.2c1-1.9,2.3-3.7,3.8-5.2c1.5-1.5,3.4-2.8,5.5-3.6c4.2-1.5,8.9-1,12.9,0.5c2.1,0.8,4,1.8,5.8,3
						c1.8,1.2,3.4,2.9,4.7,4.7c2.5,3.7,3.6,8.3,2.9,12.8l0-0.1c-0.6,3.8-2.1,7.3-4.3,10.4c-1.1,1.5-2.4,2.9-3.8,4.1
						c-1.4,1.2-3.1,2.2-4.9,2.7c-1.8,0.6-3.7,0.7-5.5,0.7c-1.8,0-3.7-0.3-5.5-0.8c-3.5-1-7-2.6-9.7-5
						C235.9,161.7,234.6,159.9,233.8,157.9z M247.2,168c3.5,0.8,7.3,0.9,10.7-0.3c1.7-0.6,3.2-1.6,4.5-2.8c1.3-1.2,2.5-2.6,3.4-4.1
						c1.9-3,3.2-6.5,3.6-10l0-0.1c0.1-0.4,0.1-1,0.1-1.4c0-0.5,0-1,0-1.5c0-1-0.2-2-0.5-2.9c-0.2-1-0.6-1.9-1-2.8
						c-0.4-0.9-0.9-1.8-1.5-2.6c-2.3-3.3-5.8-5.6-9.6-7c-3.8-1.5-8-2-11.8-0.9c-1.9,0.6-3.7,1.6-5.2,3c-1.5,1.4-2.8,3-3.9,4.8
						l-0.2,0.3l-0.3-0.1l0,0l0.4-0.2c-1.1,1.8-2,3.8-2.5,5.9c-0.6,2.1-0.9,4.2-0.9,6.4c0,2.1,0.3,4.3,1.1,6.3c0.8,2,2,3.9,3.6,5.3
						C240.2,165.6,243.6,167.2,247.2,168z" class="st2"></path>
				</g>
				<path d="M250.2,163.5c-4.9-0.3-9.8-3.3-11.8-7.9c-3.2-7.3,0.9-16.8,8.5-19.3c4-1.3,9-0.7,12.6,1.7
					c9.4,6.5,5.2,22.1-5.2,25.1C252.9,163.5,251.5,163.6,250.2,163.5z" class="st2"></path>
				<path d="M235.8,139.1c23.1-5.3,33.3,9.8,34.5,11.8c0-0.1,0-0.3,0.1-0.4c0.7-6.1-2-12.1-6.9-15.7
					c-5.8-4.3-14.9-6.7-21.3-2.6C239.6,133.8,237.4,136.2,235.8,139.1z" class="st7"></path>
			</g>
			<g>
				<g>
					<path d="M311.5,157c1.6,5.4,7.3,8.6,12.5,9.5c0.7,0.1,1.4,0.2,2.2,0.2c8.6-0.1,15.9-10.2,14.5-18.6
						c-0.1-0.9-0.4-1.7-0.7-2.6c-2.9-7.2-13.2-12-20.5-8.9c-1.8,0.8-3.1,2.3-4.2,3.8c-0.7,1.1-1.4,2.3-2,3.6
						C311.3,148,310.4,152.9,311.5,157z" class="st6"></path>
					<path d="M311.1,151c0.2-2,0.7-3.9,1.4-5.8c0.7-1.9,1.6-3.7,2.7-5.4c1.1-1.6,2.6-3.3,4.6-4c3.9-1.5,8.3-1,12.1,0.6
						c3.8,1.6,7.2,4.5,8.9,8.5c0.4,1,0.7,2.1,0.8,3.1c0,0.5,0.1,1.1,0.1,1.6l0,1.6c-0.2,2.1-0.8,4.1-1.7,6c-1.8,3.7-4.8,6.9-8.6,8.6
						c-1.9,0.8-4,1.2-6,1.1c-1-0.1-2-0.3-3-0.6c-1-0.3-1.9-0.6-2.8-1c-1.8-0.8-3.5-1.9-5-3.3c-1.4-1.4-2.5-3.1-3.1-5
						C311,155,310.9,153,311.1,151z M314.7,161.9c1.5,1.4,3.2,2.4,5,3.1c0.9,0.4,1.9,0.7,2.8,0.9c1,0.2,1.9,0.4,2.9,0.4
						c1.9,0,3.8-0.5,5.5-1.4c3.4-1.8,6-4.9,7.5-8.4c0.8-1.7,1.2-3.6,1.4-5.4l0-1.4c0-0.5-0.1-0.9-0.1-1.4c-0.1-0.9-0.3-1.8-0.7-2.6
						c-0.7-1.7-1.8-3.2-3.1-4.5c-1.3-1.3-2.9-2.4-4.6-3.2c-3.4-1.6-7.4-2.4-11.1-1.2c-1.8,0.5-3.3,1.9-4.5,3.4
						c-1.2,1.6-2.2,3.3-2.9,5.1c-1.5,3.6-2.3,7.7-1.2,11.6C312.1,158.9,313.3,160.6,314.7,161.9z" class="st2"></path>
				</g>
				<path d="M330.2,160.4c-0.4,0.2-4.3,3.5-10.8,0c-6.5-3.5-4-12.2-2.4-14.9c1.6-2.7,6.4-8,13.9-4.3
					C338.3,144.8,336.9,156.6,330.2,160.4z" class="st2"></path>
				<path d="M313.2,143.9c10.3-3.6,21.7,1.1,27.4,4.1c-0.1-0.9-0.4-1.7-0.7-2.6c-2.9-7.2-13.2-12-20.5-8.9
					c-1.8,0.8-3.1,2.3-4.2,3.8C314.5,141.4,313.8,142.6,313.2,143.9z" class="st7"></path>
			</g>
			<path d="M206.9,105.6c16.5,13.6,24.9,2.3,17.6-1.4c-4.1-2.1-7.8-5.1-10.5-7.6c-0.5,0.5-1,1-1.5,1.5
				C210.3,100.3,208.4,102.9,206.9,105.6z" class="st2"></path>
			<path d="M200.8,123.9L200.8,123.9c-0.1,0.5-0.1,0.8-0.2,1.2c6.6,4.2,15,7.6,22.5,6c2.8-0.6,5.5-2.7,5.2-5.4
				c-0.2-1.1-0.8-2.2-1.7-3c-2.6-2.5-6.7-3.7-10.2-4.9c-4-1.3-8.5-4.1-11.9-6.6C202.8,115.5,201.6,119.7,200.8,123.9z" class="st2"></path>
			<g>
				<path d="M351.1,182.4c-2.8-1.7-5.7-3.2-8.7-4.6c-3-1.4-6-2.7-9.1-3.7c2.8,1.7,5.7,3.2,8.7,4.6
					C345,180.1,348,181.4,351.1,182.4z" class="st2"></path>
				<path d="M354.2,175.9c-3-1-6.1-1.7-9.2-2.3c-3.1-0.6-6.2-1.1-9.4-1.3c3,1,6.1,1.7,9.2,2.3
					C347.9,175.2,351.1,175.7,354.2,175.9z" class="st2"></path>
				<path d="M354.3,165.8c-3.2,0.4-6.2,1.2-9.3,2c-3.1,0.8-6.1,1.7-9,2.9c3.2-0.4,6.2-1.2,9.3-2
					C348.3,167.9,351.3,167,354.3,165.8z" class="st2"></path>
			</g>
			<path d="M242.8,80.7c0,0,2.3,0.3,3-0.1c0.7-0.4-2.7-1.2-2.7-1.2c1.9-0.4,3.7-2.1,3.1-2.2c-0.6-0.2-2.9,0.9-2.9,0.9
				c2.7-2.6,2.3-7.5-0.1-7.7c-1-0.1-2.6,1.9-4,4.1c-0.2,8.5-6.4,13.4-7.5,14c4.4-2.5,9.3-3.9,13.3-4.6
				C244.8,82.2,242.8,80.7,242.8,80.7z" class="st6"></path>
			<path d="M329.1,95.9c0.1-1.9-1.3-4.9-1.4-5.2c0.1,0.1,1.6,1.1,2.4,0.9c0.9-0.3-1.5-1.9-1.5-1.9s2,0.6,2.3,0
				c0.3-0.6-1.8-0.8-1.8-0.8c1.7-0.6,5.2-4,3.6-5.4c-1-0.9-2.9,0-4.1,0.7c-2.1,3.5-4.7,6.2-10.1,6.8
				C318.4,91.1,324.3,93.7,329.1,95.9z" class="st6"></path>
			<g>
				<path d="M293.1,158.6c0,0,3.3-3.6,4.9-2.8c1.5,0.8-3.5,6.2-5.3,6.6c-1.8,0.4-5.3-6-4.2-7.1
					C289.5,154.3,293.1,158.6,293.1,158.6z" class="st2"></path>
				<path d="M285.7,183.2c0.7-1.7,1.4-3.5,2-5.2l1.9-5.3c0.6-1.8,1.2-3.5,1.8-5.3c0.6-1.8,1.1-3.6,1.5-5.4l-1,0
					c0.7,3.5,1.3,7.1,1.8,10.7c0.3,1.8,0.5,3.6,0.7,5.4c0.2,1.8,0.4,3.6,0.5,5.4c0.1-1.8,0-3.6,0-5.5c-0.1-1.8-0.3-3.6-0.5-5.4
					c-0.4-3.6-1-7.2-1.6-10.8l-0.4-2.4l-0.5,2.4c-0.4,1.8-0.9,3.6-1.5,5.4l-1.6,5.4l-1.6,5.4C286.8,179.6,286.2,181.3,285.7,183.2z" class="st2"></path>
				<path d="M300.5,163.5c2.9,0.9,5.6,2.9,7.1,5.9c2.2,4.3,2.3,9.5-1.1,13c-2.1,2.2-4.9,3.3-7.7,3.8
					c-5.4,1.1-10.8,1.8-16.1,0c-1.9-0.7-3.8-1.7-5.3-3.2c-2.3-2.3-3.6-5.9-3.3-9.4c0.3-3.5,2-6.8,4.7-8.7c3.2-2.3,7.8-2.8,11.5-2.5
					C293.6,162.7,297.3,162.6,300.5,163.5z" class="st8"></path>
			</g>
			<g>
				<path d="M243.2,174.2c-3.3-0.4-6.6-0.4-9.8-0.4c-3.3,0-6.6,0.1-9.8,0.6c3.3,0.4,6.6,0.4,9.8,0.4
					C236.7,174.7,239.9,174.6,243.2,174.2z" class="st2"></path>
				<path d="M223.5,166.1c3,1.1,6,2,9.1,2.7c3.1,0.7,6.2,1.4,9.3,1.7c-3-1.1-6-2-9.1-2.7
					C229.8,167.1,226.7,166.5,223.5,166.1z" class="st2"></path>
				<path d="M228.1,158.3c2.2,2.3,4.6,4.4,7,6.4c2.4,2,4.9,4,7.6,5.7c-2.2-2.3-4.6-4.4-7-6.4
					C233.3,162,230.8,160,228.1,158.3z" class="st2"></path>
			</g>
			<path d="M239.1,186.8c-1.6-0.6-3.1-1.3-4.6-2c-1.5-0.7-3-1.5-4.3-2.5l-1.3-1l0.7,1.6c0.2,0.4,0.3,0.8,0.3,1.1
				c0,0.1,0,0.1-0.1,0.1c0,0-0.3,0-0.4,0c-0.2,0-0.5-0.4-0.7-0.8c-0.2-0.4-0.4-0.8-0.6-1.2c-0.3-0.9-0.6-1.7-0.8-2.7
				c-0.2-0.9-0.4-1.8-0.5-2.7l-0.2-1.9l-0.9,1.7c-0.4,0.7-0.8,1.4-1.3,1.9c-0.5,0.6-1.1,1-1.5,0.9c-0.5-0.1-0.9-0.9-1.1-1.6
				c-0.2-0.7-0.4-1.5-0.5-2.3l0-0.4l-0.3,0c-0.9-0.1-1.8-0.4-2.7-0.8c-0.9-0.4-1.8-0.8-2.6-1.4c-0.8-0.5-1.6-1.1-2.3-1.8
				c-0.7-0.7-1.4-1.4-2-2.2c0.5,0.8,1.1,1.6,1.8,2.4c0.7,0.8,1.4,1.4,2.2,2c0.8,0.6,1.7,1.1,2.6,1.6c0.9,0.4,1.9,0.8,2.9,1l-0.4-0.4
				c0.1,0.9,0.2,1.7,0.4,2.5c0.1,0.4,0.3,0.8,0.5,1.2c0.2,0.4,0.6,0.8,1.2,1c0.3,0.1,0.6,0.1,0.9,0.1c0.3-0.1,0.5-0.2,0.8-0.3
				c0.4-0.3,0.8-0.6,1.1-0.9c0.6-0.7,1.1-1.4,1.5-2.1l-1.1-0.2c0.1,1,0.3,1.9,0.5,2.9c0.2,0.9,0.5,1.9,0.9,2.8
				c0.2,0.5,0.4,0.9,0.7,1.4c0.3,0.4,0.6,0.9,1.3,1.2c0.2,0,0.3,0,0.5,0c0.2,0,0.3,0,0.5-0.1c0.4-0.1,0.7-0.6,0.7-1
				c0-0.7-0.2-1.1-0.5-1.6l-0.6,0.5c1.5,1,3,1.7,4.6,2.3C235.8,185.9,237.4,186.5,239.1,186.8z" class="st9"></path>
			<path d="M335.8,186.3c-1.6,1.1-3.2,2.3-4.9,3.3c-0.8,0.5-1.7,1-2.5,1.5c-0.8,0.5-1.7,0.9-2.6,1.1l-0.2,0.1l-0.1,0.2
				c-0.3,0.8-0.7,1.5-1.1,2.2c-0.4,0.7-1.1,1.3-1.5,1.2c-0.2,0-0.3-0.1-0.3-0.4c0-0.3,0-0.7,0.1-1.1c0.2-0.8,0.5-1.6,0.8-2.3
				l0.9-2.2l-1.8,1.5c-0.7,0.6-1.5,1.1-2.2,1.6c-0.8,0.5-1.6,0.9-2.4,1.2c-0.4,0.1-0.8,0.2-1.1,0.1c-0.3-0.1-0.5-0.3-0.5-0.5
				c0-0.6,0.6-1.5,1.2-2.1l0.9-0.9l-1.2,0.2c-1.5,0.3-3.1,0.4-4.7,0.5c-1.6,0.1-3.1,0.1-4.7-0.2c1.5,0.4,3.1,0.6,4.7,0.7
				c1.6,0.1,3.2,0,4.8-0.2l-0.3-0.7c-0.4,0.3-0.7,0.7-1,1.1c-0.3,0.4-0.6,0.9-0.6,1.6c0,0.3,0.1,0.7,0.4,1c0.1,0.1,0.2,0.2,0.4,0.3
				c0.1,0.1,0.3,0.2,0.4,0.2c0.6,0.2,1.2,0.1,1.7,0c1-0.3,1.9-0.7,2.7-1.2c0.8-0.5,1.6-1.1,2.4-1.7l-0.9-0.7
				c-0.4,0.8-0.7,1.7-0.9,2.6c-0.1,0.5-0.2,0.9-0.1,1.5c0,0.1,0.1,0.3,0.1,0.4c0.1,0.1,0.1,0.3,0.3,0.4c0.2,0.3,0.6,0.4,0.9,0.5
				c0.7,0.1,1.2-0.3,1.6-0.6c0.4-0.3,0.6-0.7,0.9-1.1c0.5-0.8,0.9-1.6,1.1-2.5l-0.3,0.3c1.1-0.3,1.9-0.8,2.8-1.4
				c0.8-0.5,1.7-1.1,2.5-1.7C332.8,188.9,334.3,187.7,335.8,186.3z" class="st9"></path>
			<g>
				<g>
					<path d="M235.4,420.8c-6.3,9.8-18.6-2.2-26.4-7.6c-1.8-1.2-4.3-2.7-7.4-4.2c0,0,0,0,0,0c-5.9-2.8-14.3-5.6-25.3-7
						c-7.5-1-16.3-1.3-26.4-0.4h0c-0.9,0.1-1.9,0.1-2.9,0.2c-20.8,2.1-39-9.5-42.7-27c-1.6-7.3-0.6-15.7,3.9-24.5
						c2.5-4.9,6-9.9,10.8-15l14.5,7.3c0,0-17.2,15-12.9,32.6c0,0.1,0,0.1,0,0.2c1.8,7.1,7.6,10.3,15.8,11.4
						c12.1,1.6,29.6-1.3,47.8-2.6c3.4-0.2,6.7-0.1,9.9,0.3c8.5,1.2,16.5,4.5,23.2,8.8c5.5,3.5,10.1,7.6,13.4,11.7
						C235.6,411.3,237.7,417.3,235.4,420.8z" class="st1"></path>
					<path d="M235.4,420.8c-6.3,9.8-18.6-2.2-26.4-7.6c-1.8-1.2-4.3-2.7-7.4-4.2c0,0,0,0,0,0c-5.9-2.8-14.3-5.6-25.3-7
						c-7.5-1-16.3-1.3-26.4-0.4h0c-0.9,0.1-1.9,0.1-2.9,0.2c-20.8,2.1-39-9.5-42.7-27c-1.6-7.3-0.6-15.7,3.9-24.5
						c2.5-4.9,6-9.9,10.8-15l14.5,7.3c0,0-17.2,15-12.9,32.6c0,0.1,0,0.1,0,0.2c1.8,7.1,7.6,10.3,15.8,11.4
						c12.1,1.6,29.6-1.3,47.8-2.6c3.4-0.2,6.7-0.1,9.9,0.3c8.5,1.2,16.5,4.5,23.2,8.8c5.5,3.5,10.1,7.6,13.4,11.7
						C235.6,411.3,237.7,417.3,235.4,420.8z" class="st10"></path>
				</g>
				<path d="M235.4,420.8c-6.3,9.8-18.6-2.2-26.4-7.6c-1.8-1.2-4.3-2.7-7.4-4.2c5.1-1.8,17.3-5.5,29-4
					C235.6,411.3,237.7,417.3,235.4,420.8z" class="st2"></path>
				<path d="M217.2,393.4c-2.6,2.1-6.2,3.5-10.7,2.3c-7.4-2-10.9-7.4-12.5-11.1C202.5,385.8,210.5,389.1,217.2,393.4z" class="st2"></path>
				<path d="M176.2,402.1c-7.5-1-16.3-1.3-26.4-0.4c2.5-3.9,6.2-7.9,10.9-8.5C167.3,392.5,173.2,398.4,176.2,402.1z" class="st2"></path>
				<path d="M136.3,386.9c-4.8,2.4-11.8,4.8-15.5,1.1c-3.4-3.4-2.1-8.7-0.3-12.7c0,0.1,0,0.1,0,0.2
					C122.3,382.6,128,385.8,136.3,386.9z" class="st2"></path>
				<path d="M104.7,374.6c-0.1,0.1-0.3,0.2-0.4,0.4c-1.6-7.3-0.6-15.7,3.9-24.5C111.7,357,114,366.7,104.7,374.6z" class="st2"></path>
			</g>
			<g>
				<path d="M210.5,259.5c-0.5,0-1.1,0-1.6-0.1c-0.2,0-0.4,0-0.7-0.1c-0.5,0-1-0.1-1.5-0.2c-0.1,0-0.1,0-0.2,0
					c-0.5-0.1-1-0.2-1.4-0.3c-0.1,0-0.2-0.1-0.4-0.1c-0.4-0.1-0.9-0.2-1.3-0.3c-0.6-0.2-1.1-0.4-1.6-0.5c-0.5-0.2-0.9-0.4-1.3-0.6
					c-0.1,0-0.1,0-0.2-0.1c-0.4-0.2-0.9-0.4-1.3-0.6c-1-0.5-1.8-1.1-2.7-1.7c-0.4-0.3-0.7-0.6-1.1-0.9c-0.4-0.3-0.8-0.6-1.1-1
					c-0.4-0.4-0.9-0.8-1.3-1.2c-0.2-0.2-0.5-0.5-0.8-0.8c-1.1-1.2-2.2-2.4-3.2-3.8c-0.3-0.4-0.7-0.9-1-1.3c-0.7-0.9-1.3-1.7-2-2.6
					c-0.7-0.9-1.3-1.7-2.1-2.6c-0.5-0.6-1-1.3-1.5-1.9c-0.9-1.1-1.8-2.2-2.9-3.2c-0.5-0.5-0.9-1-1.4-1.5c-1-1-2-1.9-3.1-2.9
					c-0.4-0.4-0.9-0.7-1.3-1.1c-1.6-1.3-3.3-2.4-5.2-3.6c-0.1-0.1-0.2-0.1-0.3-0.2c-0.4-0.3-0.9-0.5-1.3-0.8c-2.9-1.9-5.2-4.3-7.2-7
					c-3.7-5.1-6-11.3-7.4-17.3c-0.6-2.5-1-4.9-1.4-7.2c4.3-0.4,30.3-2.8,34.1-2.2c3.8,0.7,23.2,20.7,26.8,24.5
					c0.1,0.1,0.2,0.2,0.3,0.3C226.4,234.3,229.8,259.8,210.5,259.5z" class="st1"></path>
				<path d="M206.7,211.5l2.6,2.6c0.9,0.9,1.8,1.7,2.6,2.6l0,0l0,0c3.1,3.6,5.9,7.7,8.1,12c2.1,4.3,3.8,9,4.4,13.9
					c0.3,2.4,0.3,4.9-0.2,7.4c-0.5,2.5-1.5,4.9-3.4,6.8c-1.8,1.9-4.3,3-6.8,3.4c-2.5,0.4-5,0.3-7.5,0l0.1,0l-0.2,0l-0.1,0l-1.5-0.3
					l0.1,0l-0.4-0.1l-0.1,0c-0.8-0.2-1.5-0.4-2.3-0.6c-0.8-0.2-1.5-0.6-2.2-0.9l0.1,0c-0.1-0.1-0.3-0.1-0.4-0.2l0.1,0.1
					c-1-0.4-1.9-1-2.7-1.5l-1.3-0.8l-1.3-1l0.1,0c-2.6-2.1-4.7-4.7-6.8-7.2l-6-7.6c-2.1-2.4-4.1-4.9-6.5-6.9c-2.3-2.2-5-3.8-7.5-5.7
					l0.1,0l-0.3-0.2l-0.1,0c-4.6-2.7-8.6-6.4-11.8-10.7c-3.1-4.3-5.4-9.2-6.6-14.4l0,0.1c-0.8-3.1-1.1-6.1-1.1-9.2
					c0-3.1,0.4-6.1,1-9.1c1.3-6,3.4-11.7,6.4-17c-2.6,5.5-4.6,11.3-5.5,17.2c-0.5,3-0.7,6-0.7,9c0.1,3,0.5,6,1.2,8.8l0,0.1
					c2.7,9.9,9.3,18.6,18,23.7l-0.1,0l0.3,0.2l0.1,0c2.7,1.9,5.6,3.6,7.9,5.9c2.5,2.1,4.7,4.7,6.8,7.1c2.1,2.5,4,5.1,6,7.6
					c2,2.4,4,4.9,6.4,6.9l0.1,0l1.1,0.9l1.2,0.8c0.8,0.5,1.6,1,2.5,1.4l0.1,0.1c0,0,0,0-0.1,0l0.1,0c0.7,0.3,1.3,0.6,2,0.8
					c0.7,0.2,1.4,0.4,2.1,0.6l-0.1,0l0.4,0.1l0.1,0l1.4,0.3l-0.1,0l0.2,0l0.1,0c2.3,0.3,4.7,0.4,6.9,0.1c2.2-0.4,4.3-1.3,5.9-2.8
					c1.6-1.5,2.6-3.6,3.1-5.8c0.5-2.2,0.6-4.6,0.3-6.9c-0.5-4.7-1.9-9.2-3.9-13.6c-2-4.3-4.5-8.4-7.5-12.2l0,0
					c-0.8-0.9-1.7-1.8-2.5-2.7L206.7,211.5z" class="st9"></path>
				<path d="M203.9,258.2c0.2-1.9,0.2-3.7,0-5.5c-0.2-1.8-0.4-3.5-0.9-5.2c-0.5-1.7-1-3.4-1.7-5c-0.7-1.7-1.6-3.3-2.4-5
					c1.5,1.2,2.8,2.6,3.8,4.2c1.1,1.6,1.8,3.4,2.3,5.3c0.5,1.9,0.6,3.8,0.5,5.8C205.5,254.7,205,256.6,203.9,258.2z" class="st2"></path>
				<path d="M217.2,257c-0.4-3.8-0.5-7.5-1-11.1c-0.2-1.8-0.5-3.6-1-5.3c-0.5-1.7-1.1-3.4-2.1-5.1
					c1.6,1,2.9,2.7,3.7,4.5c0.9,1.8,1.3,3.7,1.6,5.6c0.2,1.9,0.3,3.8,0.1,5.8C218.3,253.3,217.9,255.2,217.2,257z" class="st2"></path>
			</g>
			<g>
				<path d="M117.3,256.1c0.6,0,11.7-10.8,30.1-12.9c27.9-3.1,68.4,9.5,81.5,76.4c0,0,12-10.8,28.7-12.8
					c16.7-1.9,15.9,8.5,13.2,12.4c-2.7,3.9-27.1,9.7-36.8,24c-9.7,14.3-20.5-3.1-20.5-3.1s-26.3,32.1-76.7,9.3
					C86.3,326.6,117.3,256.1,117.3,256.1z" class="st1"></path>
				<path d="M262.1,323.7c-1.7-1.8-3.1-3.5-4.6-5c-0.8-0.8-1.6-1.4-2.5-2.1c-0.9-0.7-1.9-1.2-3-1.8
					c1.2-0.2,2.5-0.2,3.7,0.3c1.2,0.4,2.3,1.2,3.2,2c0.9,0.9,1.6,1.9,2.2,3C261.7,321.2,262.1,322.4,262.1,323.7z" class="st2"></path>
			</g>
			<path d="M228.9,319.7c-1.1-5.8-2.6-11.5-4.6-17.1c-1.9-5.6-4.2-11-6.9-16.2c-5.4-10.4-12.4-20.1-21.5-27.4
				c-4.5-3.7-9.5-6.8-14.8-9.3c-5.3-2.5-11-4-16.7-5.3c-11.5-2.1-23.5-1.8-35.2-0.1c2.9-0.5,5.8-1.2,8.7-1.6l4.4-0.5
				c1.5-0.2,3-0.3,4.4-0.4l4.5-0.1c1.5-0.1,3,0.1,4.5,0.2c3,0,5.9,0.5,8.9,0.9c5.9,1,11.7,2.6,17.2,5.1c5.5,2.5,10.6,5.6,15.3,9.4
				c9.3,7.7,16.5,17.6,21.7,28.3C224,296.3,227.5,307.9,228.9,319.7z" class="st9"></path>
			<path d="M318.9,227.3c0,0-28.4,22.4-23,37.5c5.4,15.1,40.8,10.6,52.4-7.7S318.9,227.3,318.9,227.3z" class="st1"></path>
			<path d="M310.5,272.6c0.2-0.8-0.2-1.8-0.2-2.7c-0.1-0.9-0.1-1.8,0-2.8c0.2-1.9,0.7-3.7,1.5-5.4
				c0.9-1.7,1.9-3.2,3.3-4.5c1.3-1.3,2.9-2.3,4.6-3c-1.1,1.5-2.3,2.7-3.3,4.1c-1,1.4-1.9,2.8-2.6,4.3c-0.8,1.5-1.3,3.1-1.8,4.7
				c-0.2,0.8-0.5,1.7-0.6,2.5C311.1,270.9,311.1,271.9,310.5,272.6z" class="st2"></path>
			<path d="M296.6,265.6c-0.1-2,0.4-4,1.1-5.9c0.7-1.9,1.8-3.6,3.1-5.2c1.3-1.5,2.9-2.9,4.7-3.9c1.7-1,3.7-1.7,5.6-2
				c-1.6,1.1-3.3,2.1-4.7,3.4c-1.5,1.2-2.8,2.5-4,3.9C300,258.8,298.2,262,296.6,265.6z" class="st2"></path>
			<path d="M317.1,229.4c0,0,5.4-5.7,6.3-16.1" class="st9"></path>
			<path d="M175,205.2c0,3.1-3.5,4.8-6.2,6.3c-3.4,1.9-6.3,4.6-9.3,7.1c-0.1,0.1-0.2,0.1-0.2,0.2
				c-0.1,0.1-0.2,0.2-0.3,0.3c-4.3-4.8-7.6-10.7-9.2-17c0.8-0.3,1.5-0.5,2.3-0.7c2.9-0.9,5.7-1.6,8.1-2c4.8-1,10.7-1.1,13.7,2.8
				C174.5,203,175,204.1,175,205.2z" class="st2"></path>
			<path d="M182.2,238.9c-0.9-1.1-1.8-2.2-2.9-3.2c-0.5-0.5-0.9-1-1.4-1.5c-1-1-2-1.9-3.1-2.9c-0.4-0.4-0.9-0.7-1.3-1.1
				c-1.6-1.3-3.3-2.4-5.2-3.6c1.2-0.6,2.4-1.1,3.7-1.6c2.5-0.9,6.6-2.1,10.1-2C191.7,223.6,187.2,234.1,182.2,238.9z" class="st2"></path>
			<path d="M355.1,240.7c-1.6,7.3-4.3,13.1-6.8,17.4c-0.1-0.1-0.2-0.2-0.3-0.3c0-0.1-0.1-0.1-0.1-0.2
				c-2.8-2.8-6.7-4.2-9.8-6.5c-3.2-2.3-5.7-6.5-4.1-10.1c1.1-2.4,3.8-3.7,6.5-4.1c0.7-0.1,1.4-0.1,2.1-0.1
				C347.1,236.8,351.1,238.5,355.1,240.7z" class="st2"></path>
			<path d="M355.9,216.3c-1.9,0-3.9,0.1-5.8,0.4c-2.3,0.3-4.8,0.8-7-0.1c-3-1.3-4.3-5.2-3.4-8.4c0.9-3.1,3.6-5.5,6.5-7
				c1.4-0.7,3.3-1.4,5.4-1.9C353.8,205.4,355.1,211.1,355.9,216.3z" class="st2"></path>
			<path d="M192.2,120.1c-1.4,3-4.3,5-6.6,7.4c-2.1,2.2-3.8,5-4.9,7.9c-1.2,3.3-1.9,7.2-4.7,9c-2.1,1.4-4.7,0.9-6.6-0.3
				c-4-2.6-6.1-7.9-6.1-13.4c6.8-3,13.8-5.7,20.9-8.1C186.8,121.8,189.5,120.9,192.2,120.1z" class="st2"></path>
			<path d="M149.7,137.2c-0.9,2.5-2.5,5-3.4,7.6c-1.4,4.1-1.1,8.6-2,12.8c-0.9,4.2-3.7,8.7-8,9.1c-4,0.4-7.6-3.1-8.7-7
				c-0.5-1.8-0.6-4-0.5-6.3C135.3,146,143.5,140.7,149.7,137.2z" class="st2"></path>
			<path d="M115.8,191.1c-2.1,2.6-6.3,2.3-9.1,0.5c-2.3-1.5-3.9-3.7-5.1-6.2c4.2-7.9,9.1-14.7,14.3-20.7
				c-0.1,1.1-0.3,2.1-0.5,3.1c-0.7,4.1-0.5,8.4,0.5,12.5C116.8,184,118.2,188.2,115.8,191.1z" class="st2"></path>
			<path d="M100.6,237.6c-1.4,0.9-3.2,1.1-4.9,1.2c-2.7,0.1-5.6-0.2-8.2-1c0.4-5.1,1-10.2,1.9-15.4
				c0.4-2.4,0.9-4.8,1.4-7.1c0.2-0.8,0.3-1.5,0.5-2.3c3.7,3.2,6.8,8,8.9,11.1c1.4,2.1,2.7,4.3,3.1,6.8
				C103.5,233.4,102.7,236.2,100.6,237.6z" class="st2"></path>
			<path d="M101.8,282.5c-2.5,1.5-5.5,1.7-8.4,1.7c-1.2,0-2.3-0.1-3.5-0.2c-1.1-5.1-1.9-10.4-2.4-15.9
				c5.3-0.2,10.7,0.6,14.9,3.8c1.1,0.9,2.1,1.9,2.6,3.3C106,277.9,104.3,281.1,101.8,282.5z" class="st2"></path>
			<path d="M116.5,306.9c0,2-1.4,3.7-2.9,5c-3.1,2.7-6.7,4.5-10.6,5.7c-2.8-4.6-5.3-9.5-7.4-14.7
				c3.1-0.8,6.2-1.4,9.3-1.6C108.9,301,116.5,301.4,116.5,306.9z" class="st2"></path>
			<path d="M269.8,215.8c0,0,5.6,3.2,10.2,0.2c0,0-1.4-16-4.4-16.4C272.6,199.1,269.8,215.8,269.8,215.8z" class="st2"></path>
		</g>
		<g>
			<polygon points="425,248.7 387,298.4 454.4,280.1" class="st0"></polygon>
			<polygon points="415.6,246.4 422.2,254.8 387,298.4" class="st0"></polygon>
			<polygon points="387,298.4 395.6,243.1 415.6,246.4" class="st4"></polygon>
			<polygon points="425,248.7 466.7,258.5 387,298.4" class="st4"></polygon>
		</g>
	</g>
</g>
</svg>
