<svg xml:space="preserve" style="enable-background:new 0 0 500 500;" viewBox="0 0 500 500" y="0px" x="0px"
     xmlns="http://www.w3.org/2000/svg" id="图层_1" version="1.0">
<style type="text/css">
	.st0{fill:#FB5555;}
	.st1{fill:#FC903E;}
	.st2{opacity:0.2;fill:#A0312F;}
	.st3{fill:#A0312F;}
	.st4{fill:#FCBC86;}
	.st5{fill:#5ED5B5;}
	.st6{fill:#90E5DC;}
	.st7{opacity:0.48;fill:#A0312F;}
	.st8{opacity:0.48;fill:#FB5555;}
	.st9{fill:#FFFFFF;}
	.st10{opacity:0.21;fill:#A0312F;}
</style>
<g>
	<g>
		<path d="M354.8,186.9c0,0,17.8-37.6,22.9-37.4c12.9,0.6,81.2,50.8,81.2,57.1c0,6.3-69.3,103.8-73.2,103.8
			c-4,0-64.8-37.3-67.8-42.2C314.9,263.2,354.8,186.9,354.8,186.9z" class="st0"></path>
		<path d="M384.3,301.3c2.9,1.3,5.8,2.3,8.9,2.9c1.5,0.3,3.1,0.5,4.6,0.4c1.5-0.1,3.1-0.3,4.4-1.1
			c0.4-0.1,0.6-0.5,0.9-0.7c0.3-0.2,0.6-0.5,0.8-0.8c0.4-0.6,0.6-1.3,0.7-2.1c0.2-1.5-0.1-3-0.6-4.5c-1-2.9-2.6-5.6-4.6-8
			c-1-1.2-2.1-2.3-3.3-3.2c-1.1-0.9-2.7-1.7-3.7-1.1c-0.2,0.2-0.4,0.3-0.3,0.4c0,0.1,0.2,0.4,0.5,0.6c0.5,0.4,1.2,0.8,1.9,1.1
			c1.4,0.6,2.9,1.1,4.3,1.5c3,0.7,6.1,1.2,9.1,1.1c1.5,0,3-0.2,4.5-0.6c1.4-0.4,2.8-1,3.6-2c0.8-1,1-2.4,0.6-3.8
			c-0.3-1.4-0.9-2.8-1.7-4.1c-1.6-2.6-3.6-4.9-6-6.8c-1.2-0.9-2.5-1.8-3.8-2.1c-1.3-0.3-2.1,0.3-1.4,1.2c0.7,1,2.1,1.8,3.4,2.4
			c1.4,0.6,2.8,1.1,4.3,1.5c2.9,0.7,6.1,0.9,8.8,0.2c1.4-0.4,2.7-1.1,3.4-2.2c0.8-1,1-2.4,0.9-3.9c-0.3-2.9-1.6-5.7-3.3-8.1
			c-0.9-1.2-1.9-2.4-3-3.3c-0.5-0.5-1.1-0.9-1.7-1c-0.6-0.2-0.8,0-0.8,0c-0.1-0.1,0.2,0.6,0.7,1c0.5,0.5,1.1,0.9,1.7,1.3
			c1.2,0.8,2.6,1.5,4,2c2.8,1.1,5.9,1.8,8.7,1.5c1.4-0.2,2.7-0.8,3.4-1.7c0.7-1,0.7-2.5,0.4-3.9c-0.6-2.9-2.1-5.6-3.9-8
			c-0.9-1.2-2-2.3-3.1-3.1c-0.6-0.4-1.2-0.7-1.7-0.8c-0.2,0-0.4,0-0.6,0.1c-0.2,0.1-0.3,0.3-0.3,0.4c-0.1,0.2,0.2,0.8,0.6,1.2
			c0.5,0.5,1.1,0.9,1.7,1.3c1.3,0.7,2.7,1.3,4.1,1.7c2.9,0.8,6,1.1,8.7,0c1.3-0.5,2.3-1.4,2.7-2.7c0.4-1.3,0.3-2.8-0.1-4.3
			c-0.7-2.9-2.2-5.7-4-8.1c-0.9-1.2-2-2.4-3.1-3.1c-0.6-0.4-1.2-0.6-1.6-0.3c-0.4,0.3-0.5,0.6-0.2,1.2c0.7,1.1,2,2,3.3,2.7
			c1.3,0.7,2.8,1.3,4.2,1.7c1.5,0.4,3,0.6,4.5,0.4c1.4-0.2,3.1-0.6,3.7-1.7c0.7-1.2,0.4-2.8-0.1-4.2c-0.5-1.4-1.2-2.8-2-4.1
			c-1.6-2.6-3.6-5.1-6.2-6.9c-0.6-0.4-1.3-0.8-2-0.9c-0.3,0-0.7,0.1-0.9,0.3c-0.2,0.2,0.1,0.5,0.4,0.7c1.2,0.9,2.7,1.5,4.2,2
			c1.5,0.5,3,0.9,4.5,1.3c0.8,0.2,1.5,0.3,2.3,0.3c0.8,0,1.6,0.1,2.3-0.3c-0.7,0.5-1.5,0.4-2.3,0.4c-0.8,0-1.6-0.1-2.3-0.3
			c-1.5-0.3-3.1-0.7-4.6-1.1c-1.5-0.5-3-1-4.3-1.9c-0.2-0.1-0.3-0.3-0.4-0.5c-0.1-0.2-0.2-0.5,0-0.8c0.3-0.4,0.8-0.5,1.2-0.5
			c0.9,0,1.6,0.5,2.3,0.9c2.7,1.8,4.7,4.2,6.5,6.9c0.9,1.3,1.6,2.7,2.2,4.2c0.5,1.5,1,3.2,0.1,4.9c-0.4,0.8-1.2,1.4-2,1.7
			c-0.8,0.3-1.6,0.5-2.4,0.6c-1.6,0.2-3.3,0-4.8-0.4c-1.6-0.4-3.1-0.9-4.5-1.7c-1.4-0.8-2.8-1.6-3.8-3.2c-0.2-0.4-0.4-0.9-0.4-1.5
			c0.1-0.6,0.5-1.1,1-1.4c0.5-0.3,1.1-0.3,1.6-0.2c0.5,0.1,0.9,0.3,1.3,0.5c1.5,0.9,2.6,2.1,3.6,3.4c2,2.6,3.5,5.4,4.3,8.6
			c0.4,1.6,0.6,3.3,0.1,5c-0.2,0.9-0.7,1.7-1.4,2.3c-0.7,0.7-1.4,1.1-2.2,1.4c-3.2,1.3-6.7,0.9-9.8,0.1c-1.6-0.4-3.1-1-4.5-1.9
			c-0.7-0.4-1.4-0.9-2.1-1.5c-0.3-0.3-0.6-0.7-0.9-1.2c-0.2-0.4-0.4-1.1-0.2-1.7c0.2-0.6,0.5-1.1,1.1-1.4c0.5-0.4,1.1-0.5,1.7-0.4
			c1.1,0.1,1.8,0.6,2.6,1.1c1.4,1,2.5,2.2,3.5,3.5c2,2.6,3.6,5.4,4.3,8.7c0.3,1.6,0.4,3.5-0.7,5.2c-1.2,1.7-3,2.3-4.7,2.5
			c-3.4,0.4-6.6-0.4-9.6-1.6c-1.5-0.6-3-1.3-4.4-2.2c-0.7-0.5-1.4-0.9-2-1.6c-0.3-0.3-0.6-0.7-0.9-1.1c-0.2-0.4-0.5-1.1-0.3-1.9
			c0.3-0.8,0.9-1.2,1.5-1.3c0.7-0.2,1.2,0,1.7,0.1c0.9,0.3,1.6,0.9,2.3,1.4c1.3,1.1,2.3,2.4,3.3,3.7c1.8,2.7,3.3,5.7,3.6,9.1
			c0.1,1.7-0.1,3.6-1.3,5.1c-1.1,1.5-2.7,2.3-4.4,2.8c-3.3,0.9-6.6,0.6-9.8-0.2c-1.6-0.4-3.1-0.9-4.6-1.6c-1.5-0.7-3-1.5-4.1-3.1
			c-0.3-0.4-0.5-1-0.5-1.6c0-0.7,0.4-1.2,0.8-1.6c0.9-0.8,2.2-0.8,3-0.6c1.8,0.5,3.1,1.4,4.4,2.4c2.5,2,4.7,4.5,6.4,7.3
			c0.8,1.4,1.5,2.9,1.9,4.6c0.3,1.6,0.2,3.6-1,5.1c-1.2,1.4-2.8,2.1-4.4,2.5c-1.6,0.4-3.2,0.5-4.8,0.5c-3.2,0-6.4-0.5-9.4-1.3
			c-1.5-0.4-3.1-0.9-4.5-1.6c-0.7-0.3-1.5-0.7-2.1-1.3c-0.3-0.3-0.7-0.6-0.8-1.3c-0.1-0.8,0.5-1.2,0.9-1.5c0.9-0.5,2-0.3,2.7,0
			c0.8,0.3,1.5,0.8,2.1,1.3c1.3,1,2.4,2.2,3.4,3.4c1.9,2.5,3.6,5.3,4.5,8.3c0.5,1.5,0.8,3.1,0.5,4.8c-0.1,0.8-0.4,1.6-0.9,2.3
			c-0.2,0.3-0.5,0.6-0.9,0.9c-0.3,0.2-0.6,0.6-1,0.7c-1.4,0.9-3.1,1-4.6,1.1c-1.6,0-3.2-0.2-4.7-0.5
			C390.1,303.8,387.1,302.7,384.3,301.3z" class="st1"></path>
	</g>
	<g>
		<g>
			<path d="M266.7,328c0,0,23.4,38.8,5.5,70.1c0,0,22.4,37,14,46.7c-8.5,9.7-14.3-29.7-25.8-37.3
				c-11.5-7.6-14.6-15.8-14.6-15.8s-36.7,7.3-37.3-23.7C207.8,337.1,266.7,328,266.7,328z" class="st1"></path>
			<path d="M266.7,328c0,0,23.4,38.8,5.5,70.1c0,0,22.4,37,14,46.7c-8.5,9.7-14.3-29.7-25.8-37.3
				c-11.5-7.6-14.6-15.8-14.6-15.8s-36.7,7.3-37.3-23.7C207.8,337.1,266.7,328,266.7,328z" class="st2"></path>
		</g>
		<path d="M275.4,435.6c1.1-2,2.2-3.6,3.1-5.4c0.5-0.9,0.9-1.8,1.3-2.7c0.4-0.9,0.6-1.9,1-3c1,2.1,0.5,4.6-0.5,6.6
			c-0.6,1-1.2,1.9-2,2.7C277.4,434.5,276.5,435.2,275.4,435.6z" class="st3"></path>
	</g>
	<g>
		<g>
			<path d="M100.1,324c0,0-0.1,0-0.3,0c-0.1,0-0.2,0-0.3,0c-0.5,0-1.3-0.1-2.4-0.2c-0.3,0-0.6-0.1-0.9-0.1
				c0,0-0.1,0-0.1,0c-0.3,0-0.6-0.1-0.9-0.1c-0.3,0-0.6-0.1-0.9-0.1c-0.8-0.1-1.7-0.2-2.5-0.3c-1.3-0.1-2.5-0.3-3.7-0.5
				c-0.6-0.1-1.1-0.2-1.6-0.2c-0.2,0-0.3,0-0.5-0.1c-1-0.2-1.8-0.3-2.1-0.4c-1.1-0.2-2.1-0.5-3.2-0.8c-3.2-0.9-6.3-2-9.3-3.5
				c-3.7-1.8-6.8-4-9.5-6.5c-11.8-11.2-14.7-28.9-10-45c1.2-4.1,2.8-8.2,4-12.4c0.9-3.1,1.5-6.2,1.8-9.3c0.2-2.4,0.1-4.7-0.3-7.1
				c-0.8-5.3-2.9-10.4-6.5-14.4c-0.7-0.8-1.6-1.6-2.4-2.3c-2.7-2.3-4.8-4.6-6.2-8c-2.5-5.8-2.7-14,4.8-15.8c0.8-0.2,1.5-0.3,2.3-0.3
				c0.6,0,1.3,0,1.9,0c1.8,0.1,3.5,0.7,5.1,1.6c10.4,5.5,16.8,24.2,18.8,37.3c1.3,8.5-1.8,17.4-4.7,26.9c-1.7,5.6-3.3,11.5-3.8,17.5
				c-0.3,3.5-0.2,7.1,0.4,10.7c2.2,11.9,12.8,15.7,21.3,16.9c0.6,0.1,1.2,0.1,1.8,0.2c0.6,0.1,1.1,0.1,1.7,0.1
				c1.9,0.1,3.6,0.1,4.9,0.1c0.3,0,0.6,0,0.9,0c0.3,0,0.6,0,0.9,0c0.1,0,0.3,0,0.4,0c0.1,0,0.2,0,0.2,0H99c0.1,0,0.2,0,0.2,0
				L100.1,324z" class="st1"></path>
			<path d="M99.9,324c0,0,0,0-0.1,0c-0.1,0-0.2,0-0.3,0c-0.5,0-1.3-0.1-2.4-0.2c-0.3,0-0.6-0.1-0.9-0.1c0,0-0.1,0-0.1,0
				c-0.6-0.1-1.2-0.1-1.8-0.2c-0.8-0.1-1.7-0.2-2.5-0.3c-0.1,0-0.2,0-0.3,0c-1-0.1-1.9-0.3-2.8-0.4c-0.2,0-0.4,0-0.5-0.1
				c-0.4,0-0.8-0.1-1.2-0.2c-0.4,0-0.9-0.1-1.3-0.2c-1-0.1-1.6-0.2-1.9-0.3c-1-0.2-2-0.5-3-0.8c-3.2-0.9-6.4-2-9.5-3.5
				c-3.6-1.8-6.8-4-9.5-6.5c-11.9-11.2-14.8-28.9-10-45c1.2-4.1,2.8-8.2,4-12.4c0.9-3.1,1.5-6.2,1.8-9.3c0.1-2.4,0.1-4.8-0.3-7.2
				c-0.8-5.2-2.9-10.2-6.4-14.2c-0.8-0.9-1.6-1.7-2.5-2.5c-2.7-2.3-4.8-4.6-6.2-8c-2.5-5.8-2.7-14,4.8-15.8c0.8-0.2,1.6-0.3,2.4-0.3
				c0.6,0,1.3,0,1.9,0c1.8,0.2,3.5,0.8,5.1,1.7c10.3,5.7,16.5,24.2,18.6,37.2c1.3,8.5-1.8,17.5-4.7,26.9c-1.7,5.6-3.3,11.4-3.8,17.4
				c-0.3,3.5-0.2,7.1,0.4,10.8c2.2,11.9,13,15.8,21.5,16.9c0.6,0.1,1.2,0.1,1.8,0.2c0.6,0.1,1.1,0.1,1.7,0.1
				c1.9,0.1,3.6,0.1,4.9,0.1c0.3,0,0.6,0,0.9,0c0.3,0,0.6,0,0.9,0c0.1,0,0.3,0,0.4,0c0.1,0,0.2,0,0.2,0c0,0,0.1,0,0.1,0v0L99.9,324z" class="st2"></path>
		</g>
		<path d="M49.4,208.3c3.1,5.6,3.7,12.1,1.3,14.7c0,0-0.1,0.1-0.1,0.1c-0.8-0.9-1.6-1.7-2.5-2.5c-2.7-2.3-4.8-4.6-6.2-8
			c-2.5-5.8-2.7-14,4.8-15.8c0.8-0.2,1.6-0.3,2.4-0.3c0.6,0,1.3,0,1.9,0c1.8,0.1,3.5,0.7,5.1,1.6c0,0,0,0.1,0,0.1
			C56.7,202.9,49.4,208.3,49.4,208.3z" class="st3"></path>
		<path d="M55.9,253.7h-0.2c0.9-3.1,1.5-6.2,1.8-9.3c0.1-2.4,0.1-4.8-0.3-7.2c0.1,0,0.1,0,0.2,0.1
			c2.6,1.2,5.7,3.2,6.4,6.2C64.7,247.9,61.1,253.6,55.9,253.7z" class="st3"></path>
		<path d="M70.3,262.3c-1.7,5.6-3.3,11.5-3.8,17.5c-0.1,0-0.1,0-0.2-0.1c-2.5-0.9-6-2.8-6-7.2
			c-0.1-5.4,4.8-9.1,9.8-10.2C70.1,262.4,70.2,262.3,70.3,262.3z" class="st3"></path>
		<path d="M80.7,321.1C80.7,321.1,80.7,321.1,80.7,321.1c-3.2-0.9-6.4-2-9.5-3.5c-3.6-1.8-6.8-4-9.5-6.5
			c0,0,0.1,0,0.1,0c4.3-0.8,9.7-1,13.5,1.7C78.9,315.4,80.2,318.5,80.7,321.1z" class="st3"></path>
	</g>
	<path d="M370.3,215.2c-1.9,7.1-4.2,13.9-7.1,20.2c-16.9,36.4-75.8,111.5-131.5,111.5c0,0,1.2,9.3,2,16.1
		c0.2,1.7,0.3,3.6,0.3,4.7c0,5.5-0.8,13.2-7.3,14.3c-3.9,0.7-13.8,2.4-24.3-17.2c0.6,1.2-3.8,6.9-4.4,7.8
		c-3.9,5.6-9.1,10.5-15.2,13.7c-6.3,3.3-13.1,4.8-20,4.8c-0.2,0-0.4,0-0.6,0c-6.2-0.1-12.4-1.3-18.3-3.5c-0.1,0-0.1,0-0.2-0.1
		c-9.5-3.4-18.3-9.1-25.3-15.6c-0.2-0.2-0.4-0.4-0.6-0.6l-1.4-1.4c-4.7-4.8-8.5-9.9-11.4-15.3c-0.5-1-1-2-1.5-3
		c-4-8.3-6-17.1-6.6-26.2c-0.4-7.2,0.1-14.6,1.5-21.9c4.9-27.6,20.8-55.2,37.4-75c29.4-35.1,70.2-60.1,114.7-70.9
		c7.3-1.8,16.8-1.4,23.7-4.1L375.5,115C375.5,115,382.1,170.6,370.3,215.2z" class="st1"></path>
	<path d="M233.6,360.9c0.1,0.9,0.2,1.8,0.3,2.7c0,0-0.1-0.1-0.1-0.1C233.8,362.7,233.7,361.8,233.6,360.9z" class="st4"></path>
	<path d="M370.3,215.6c-1.9,7.1-4.2,13.9-7.1,20.2c-16.9,36.4-75.8,111.5-131.5,111.5c-0.2-1.3-0.5-2.6-0.8-3.9
		c-2.2-10.7,0.7-23.3,2.2-33.1c7.1-16.4,19.9-29.1,33.7-31.5c46.8-8.1,41.4-58.7,71-71.4C354.7,200.2,364.5,207.6,370.3,215.6z" class="st4"></path>
	<path d="M269.7,175c-1.2,0.2,42.9,0.8,49.6,28.8c6.7,27.9-41,74-77.7,70.2c-36.7-3.8-51.5-39.4-51.5-39.4l-6.3,2.9
		c0,0,22,58.2,75.7,49.5c53.8-8.8,76-57,68.5-81.5C320.6,180.8,288.9,172.5,269.7,175z" class="st5"></path>
	<path d="M235.8,216.8c-11.6,17.9-43.8,47.7-102,36.1c-41.6-8.3-55.6-28.6-61.1-44c-2.2-6.1-3-11.4-3.7-14.9
		c-2.5-12.3-13-42.8,9.4-55.7c13.6-7.9,39.4-5.2,60.6-1.1c13.7,2.6,25.5,5.8,30.8,7c13.7,3.2,66.9,27.3,66.9,27.3
		S247.3,198.9,235.8,216.8z" class="st6"></path>
	<path d="M232.4,127.8c0,0-20.1-19.7-42.5-21.2c-22.4-1.5-37.8,16.6-37.1,30.5c0.8,13.9,22.4,22.4,34.7,30.5
		c12.4,8.1,17.8,28.6,40.9,26.3c23.2-2.3,27.9-27.7,27.9-27.7L232.4,127.8z" class="st5"></path>
	<path d="M369.8,100.3c0.9,1.6,1.7,3.2,2.4,4.9c0.6,1.4,1.1,2.9,1.6,4.4c1,3.3,1.7,6.7,2,10.1c0.1,1.2,0.2,2.4,0.2,3.6
		c0,1.6,1.1,22.2,0.9,23.8c-0.2,2.7-1.9-13.7-2.7-11.2c-6.8,21.6-34.6,33.7-54.9,38.1c-7.4,1.6-18.3-1-26.9-0.7
		c-18.6,0.7-35.5,1-48.3-11.4c-0.6-0.5-1.1-1.1-1.6-1.7c-3.8-4-6.7-8.8-8.6-13.9c-0.9-2.4-1.7-5-2.2-7.6c-0.3-1.3-0.5-2.6-0.7-4
		c-0.1-0.8-0.2-1.6-0.2-2.3c-0.3-3.4-0.1-6.9,0.4-10.4c0.3-1.8,0.6-3.6,1.1-5.4c0.6-2.5,1.5-5,2.5-7.3c1.2-2.8,2.8-5.5,4.6-7.9
		c7.4-10,20.1-17,31.9-21.3c1.8-0.7,3.6-1.3,5.4-1.8c2.7-0.8,5.2-1.5,7.7-2c1.1-0.3,2.1-0.5,3.2-0.7c0.5-0.1,0.9-0.2,1.4-0.3
		c6.8-1.2,13.2-1.7,20.2-1.7c0.5,0,1.1,0,1.6,0c1.1,0,2.2,0,3.3,0c0.8,0,1.6,0,2.3,0.1c2.5,0.1,5.1,0.2,7.7,0.5
		c11.9,1.3,23.8,5,33.5,12C362.6,90,366.8,94.8,369.8,100.3z" class="st1"></path>
	<path d="M304.4,116.7c-3.6,0.7-6.8,2.5-10,4.9c-3.9,3-7.3,7.1-7.2,12.3c0,2.3,0.7,4.6,1.7,6.7
		c8.2,16.5,30.1,8.5,33.8-1.1c2.1-5.4,2.6-12.3-0.9-17.2C318.1,116.9,310.4,115.6,304.4,116.7z" class="st7"></path>
	<path d="M303.6,113.8c0,0-4.3-2.7-5.9-1.5c-1.6,1.3,2.9,4.5,6.7,4.4c0,0,5-4.9,2.7-7
		C305,107.6,303.6,113.8,303.6,113.8z" class="st3"></path>
	<path d="M279.6,152.3c0.9-0.8,1.7-1.7,2.2-2.8c1.7-3.5-0.2-8-3.4-10.2c-3.3-2.2-7.5-2.4-11.3-1.6
		c-1.4,0.3-2.7,0.7-3.9,1.4c-1.3,0.9-2.4,2.1-3.2,3.5c-1.2,2-2,4.3-2,6.7c0,1.1,0.3,2.3,0.7,3.4C262,161.9,274.4,156.9,279.6,152.3z" class="st8"></path>
	<path d="M330.4,127.2c-0.8,0.9-1.5,1.9-1.9,3c-1.3,3.6,1,7.8,4.3,9.6c3.4,1.8,7.5,1.5,11.1,0.4
		c1.3-0.4,2.6-0.9,3.6-1.8c1.2-1,2.1-2.3,2.7-3.7c1-2.1,1.5-4.4,1.3-6.7c-0.1-1.1-0.5-2.2-1-3.2C346.5,116.1,335,122.2,330.4,127.2z" class="st8"></path>
	<path d="M308.9,73.8c-0.9,7.4-2.4,17.1-3.7,20.2c-0.9,2-2.2,4.1-4.3,4.5c-1.5,0.3-3-0.5-4-1.5c-1-1.1-1.7-2.4-2.3-3.8
		c-1.6-3.5-3.8-11.1-5.8-17.6C295.5,74.3,301.9,73.9,308.9,73.8z" class="st3"></path>
	<path d="M323.8,74.4c-0.6,1.3-1.2,2.5-1.8,3.7c-0.7,1.3-1.5,2.7-2.8,3.6c-0.7,0.5-1.6,0.8-2.5,0.7
		c-1.3-0.2-2.4-1.4-2.7-2.7c-0.4-1.5-0.5-3.8-0.2-5.8c0.8,0,1.6,0,2.3,0.1C318.7,73.9,321.3,74.1,323.8,74.4z" class="st3"></path>
	<path d="M284.1,76.5c0.1,1.3,0,2.6-0.1,3.8c-0.2,1.3-0.4,2.6-0.9,3.8c-0.6,1.2-1.5,2.2-2.8,2.6c-2,0.6-4.1-0.7-5.7-2.2
		c-1-0.9-2.6-2.5-3.6-4.1c1.8-0.7,3.6-1.3,5.4-1.8C279,77.7,281.6,77,284.1,76.5z" class="st3"></path>
	<path d="M244.7,129.4c-0.2,0.7-0.8,1.2-1.4,1.6c-2.9,2.2-8,3.9-12.6,3.8c-0.1-0.8-0.2-1.6-0.2-2.3
		c-0.3-3.4-0.1-6.9,0.4-10.4c0.4,0.1,0.8,0.2,1.2,0.3c2.8,0.8,5.7,1.7,8.5,2.5c1.1,0.3,2.2,0.7,3.1,1.4
		C244.5,127.1,245,128.4,244.7,129.4z" class="st3"></path>
	<path d="M238.3,116.3c-2,0.9-4.2,0.9-6.4,0.5c0.6-2.5,1.5-5,2.5-7.3c1.3,0.7,2.6,1.6,3.7,2.5
		C239.5,113.2,240.4,115.2,238.3,116.3z" class="st3"></path>
	<path d="M241.2,140.2c0.4,0.5,0.4,1.2,0.1,1.8c-0.3,0.6-0.8,1-1.4,1.3c-2,1.4-4.1,2.4-6.4,3.1c-0.9-2.4-1.7-5-2.2-7.6
		c0.2,0,0.4,0,0.5,0c2.7,0,5.5,0.1,8.1,0.7C240.5,139.7,240.9,139.8,241.2,140.2z" class="st3"></path>
	<path d="M373.6,109.7c1,3.3,1.7,6.7,2,10.1c0.1,1.2,0.2,2.4,0.2,3.6c-7.5,0-15.1-1.8-14.1-6.2c0.2-0.7,0.7-1.4,1.3-2
		c1.8-1.9,4-3.2,6.4-4.2C370.7,110.4,372.2,110,373.6,109.7z" class="st3"></path>
	<path d="M369.7,100.4c0.9,1.6,1.7,3.2,2.4,4.9c-1.2,0.2-2.4,0.5-3.5,0.6c-0.8,0.1-1.5,0.2-2.3,0.1
		c-0.3-0.1-0.6-0.2-0.9-0.4c-0.5-0.6-0.1-1.6,0.4-2.2C366.8,102.1,368.2,101.2,369.7,100.4z" class="st3"></path>
	<g>
		<g>
			<path d="M344.8,119.9c-4.5,3.5-11.9,5-17.4,3.3c-1.2-0.4-2.3-0.9-3.3-1.7c-4.3-3.2-7-9.2-7.4-14.5c0-0.1,0-0.2,0-0.4
				c-0.2-5.4,2.6-10.5,7.1-13.4c5.3-3.4,13.5-4.9,18.9-0.8c2.1,1.6,3.9,3.9,5.1,6.5l0,0C351.1,105.9,350.8,115.2,344.8,119.9z" class="st9"></path>
			<path d="M344.8,119.9c-2.6,2-5.7,3.2-8.8,3.8c-1.6,0.3-3.2,0.4-4.8,0.3c-1.6-0.1-3.3-0.4-4.8-1
				c-1.5-0.6-2.9-1.6-4.1-2.7c-1.2-1.1-2.2-2.5-3.1-3.9c-1.7-2.8-2.8-6.1-3.1-9.4l0,0.1c-0.4-4,0.9-7.9,3.4-11
				c1.2-1.5,2.7-2.8,4.4-3.8c1.7-1,3.4-1.7,5.3-2.3c3.7-1,7.8-1.2,11.4,0.4c1.8,0.8,3.3,2,4.6,3.5c1.3,1.4,2.2,3.1,3,4.8l-0.3-0.2
				l0,0l0.2,0l0.1,0.2c0.8,1.8,1.3,3.6,1.6,5.5c0.3,1.9,0.4,3.8,0.2,5.7c-0.2,1.9-0.7,3.8-1.6,5.5
				C347.5,117.3,346.3,118.8,344.8,119.9z M344.8,119.9c1.5-1.2,2.7-2.7,3.5-4.4c0.8-1.7,1.3-3.6,1.4-5.5c0.2-1.9,0-3.8-0.4-5.6
				c-0.4-1.8-1-3.6-1.8-5.3l0.3,0.2l0,0l-0.2,0l-0.1-0.2c-0.8-1.6-1.8-3.2-3.1-4.5c-1.2-1.3-2.7-2.4-4.4-3c-1.6-0.6-3.4-0.9-5.2-0.9
				c-1.8,0-3.6,0.3-5.3,0.9c-3.4,1-6.7,2.8-8.9,5.6c-0.6,0.7-1,1.4-1.5,2.2c-0.4,0.8-0.8,1.6-1.1,2.4c-0.3,0.8-0.5,1.7-0.6,2.6
				c-0.1,0.4-0.1,0.9-0.1,1.3c0,0.4,0,0.9,0,1.3l0,0.1c0.1,3.1,1,6.2,2.5,9c0.8,1.4,1.7,2.7,2.7,3.8c1.1,1.2,2.3,2.1,3.8,2.8
				c2.9,1.3,6.3,1.5,9.4,1C339.1,123.1,342.2,121.9,344.8,119.9z" class="st3"></path>
		</g>
		<path d="M333.6,119.4c4.3,0,8.8-2.3,10.9-6.2c3.3-6.2,0.3-14.8-6.2-17.5c-3.5-1.4-7.9-1.2-11.1,0.7
			c-8.7,5.1-6,19.1,3,22.4C331.2,119.2,332.4,119.4,333.6,119.4z" class="st3"></path>
		<path d="M347.8,98.9c-19.9-6.2-29.9,6.4-31,8.1c0-0.1,0-0.2,0-0.4c-0.2-5.4,2.6-10.5,7.1-13.4
			c5.3-3.4,13.5-4.9,18.9-0.8C344.8,94,346.6,96.3,347.8,98.9z" class="st10"></path>
	</g>
	<g>
		<g>
			<path d="M276.3,136.2c-4.5,3.5-11.9,5-17.4,3.3c-1.2-0.4-2.3-0.9-3.3-1.7c-4.3-3.2-7-9.2-7.4-14.5c0-0.1,0-0.2,0-0.4
				c-0.2-5.4,2.6-10.5,7.1-13.4c5.3-3.4,13.5-4.9,18.9-0.8c2.1,1.6,3.9,3.9,5.1,6.5l0,0C282.6,122.2,282.4,131.5,276.3,136.2z" class="st9"></path>
			<path d="M276.3,136.2c-2.6,2-5.7,3.2-8.8,3.8c-1.6,0.3-3.2,0.4-4.8,0.3c-1.6-0.1-3.3-0.4-4.8-1
				c-1.5-0.6-2.9-1.6-4.1-2.7c-1.2-1.1-2.2-2.5-3.1-3.9c-1.7-2.8-2.8-6.1-3.1-9.4l0,0.1c-0.4-4,0.9-7.9,3.4-11
				c1.2-1.5,2.7-2.8,4.4-3.8c1.7-1,3.4-1.7,5.3-2.3c3.7-1,7.8-1.2,11.4,0.4c1.8,0.8,3.3,2,4.6,3.5c1.3,1.4,2.2,3.1,3,4.8l-0.4-0.2
				l0,0l0.3,0l0.1,0.2c0.8,1.8,1.3,3.6,1.6,5.5c0.3,1.9,0.4,3.8,0.2,5.7c-0.2,1.9-0.7,3.8-1.6,5.5
				C279.1,133.5,277.8,135,276.3,136.2z M276.3,136.2c1.5-1.2,2.7-2.7,3.5-4.4c0.8-1.7,1.3-3.6,1.4-5.5c0.2-1.9,0-3.8-0.4-5.6
				c-0.4-1.8-1-3.6-1.8-5.3l0.4,0.2l0,0l-0.2,0l-0.1-0.2c-0.8-1.6-1.8-3.2-3.1-4.5c-1.2-1.3-2.7-2.4-4.4-3c-1.6-0.6-3.4-0.9-5.2-0.9
				c-1.8,0-3.6,0.3-5.3,0.9c-3.4,1-6.7,2.8-8.9,5.6c-0.6,0.7-1,1.4-1.5,2.2c-0.4,0.8-0.8,1.6-1.1,2.4c-0.3,0.8-0.5,1.7-0.6,2.6
				c-0.1,0.4-0.1,0.9-0.1,1.3c0,0.4,0,0.9,0,1.3l0,0.1c0.1,3.1,1,6.2,2.5,9c0.8,1.4,1.7,2.7,2.7,3.8c1.1,1.2,2.3,2.1,3.8,2.8
				c2.9,1.3,6.3,1.5,9.4,1C270.6,139.3,273.7,138.1,276.3,136.2z" class="st3"></path>
		</g>
		<path d="M265.1,135.7c4.3,0,8.8-2.3,10.9-6.2c3.3-6.2,0.3-14.8-6.2-17.5c-3.5-1.4-7.9-1.2-11.1,0.7
			c-8.7,5.1-6,19.1,3,22.4C262.8,135.5,263.9,135.7,265.1,135.7z" class="st3"></path>
		<path d="M279.3,115.2c-19.9-6.2-29.9,6.4-31,8.1c0-0.1,0-0.2,0-0.4c-0.2-5.4,2.6-10.5,7.1-13.4
			c5.3-3.4,13.5-4.9,18.9-0.8C276.4,110.3,278.1,112.6,279.3,115.2z" class="st10"></path>
	</g>
	<path d="M303.5,143.6c-0.1-2.2-0.2-4.5-0.2-6.7l0-6.7c0-4.5,0.1-9,0.3-13.4l0.1-3.5l1.7,3.1c2,3.7,4,7.3,5.9,11.1
		c1.9,3.7,3.7,7.5,5.4,11.3c-2.4-3.5-4.6-7-6.7-10.6c-2.2-3.6-4.2-7.2-6.3-10.8l1.8-0.4c-0.2,4.5-0.4,8.9-0.7,13.4l-0.5,6.7
		C303.9,139.1,303.8,141.3,303.5,143.6z" class="st3"></path>
	<g>
		<path d="M341.3,127.8c2.7,0.1,5.4,0.4,8.1,0.8c2.7,0.4,5.3,0.9,8,1.6c-2.7-0.1-5.4-0.4-8.1-0.8
			C346.6,129,344,128.6,341.3,127.8z" class="st3"></path>
		<path d="M358.2,123.5c-2.6,0.6-5.2,0.9-7.8,1.2c-2.6,0.2-5.2,0.4-7.8,0.3c2.6-0.6,5.2-0.9,7.8-1.2
			C352.9,123.6,355.5,123.4,358.2,123.5z" class="st3"></path>
		<path d="M355.5,115.6c-2.1,1.6-4.2,3.1-6.5,4.4c-2.2,1.4-4.5,2.7-6.9,3.8c2.1-1.6,4.2-3.1,6.5-4.4
			C350.8,118,353.1,116.7,355.5,115.6z" class="st3"></path>
	</g>
	<g>
		<path d="M262.2,145.9c-2.3,1.5-4.8,2.8-7.3,4.1c-2.5,1.2-5,2.4-7.6,3.3c2.3-1.5,4.8-2.8,7.3-4.1
			C257.1,148,259.6,146.9,262.2,145.9z" class="st3"></path>
		<path d="M244.5,147.1c2.5-0.9,5.1-1.6,7.7-2.2c2.6-0.6,5.2-1.1,7.9-1.3c-2.5,0.9-5.1,1.6-7.7,2.2
			C249.8,146.3,247.1,146.8,244.5,147.1z" class="st3"></path>
		<path d="M244.5,138.5c2.7,0.3,5.3,0.9,7.9,1.5c2.6,0.6,5.2,1.3,7.7,2.3c-2.7-0.3-5.3-0.9-7.9-1.5
			C249.6,140.1,247,139.4,244.5,138.5z" class="st3"></path>
	</g>
	<path d="M270.9,172.3c0.1,0.4-0.5,0.9-1.3,1c-0.8,0.2-1.5-0.1-1.6-0.5c-0.1-0.4,0.5-0.9,1.3-1
		C270.1,171.7,270.9,171.9,270.9,172.3z" class="st1"></path>
	<path d="M264.7,82.8c-1.3,8.2-22.6,16.1-22.6,16.1c-0.2-0.2-0.3-0.4-0.5-0.5c-7.2-8.7-4.2-31.4,1.6-34.6
		c0.2-0.1,0.4-0.2,0.6-0.3c6.3-2,10.1,3.1,12.6,9.3C259,78.9,264.7,82.8,264.7,82.8z" class="st1"></path>
	<path d="M250.6,78.7c-1,4.9-3.2,10.2-0.5,14.7c0,0-2.9,1.5-5.9,3.3c-0.9,0.5-1.8,1.1-2.6,1.6
		c-7.2-8.7-4.2-31.4,1.6-34.6c0.9,0.5,5,2.8,7.2,8.5C251.2,74.2,251.1,76.4,250.6,78.7z" class="st3"></path>
	<path d="M347.9,80.7c-0.3,0.4-0.5,0.7-0.8,1.1l-21.5-6.7l-1.3-0.2c0,0,6.3-5.2,8.6-13.6c2.2-8.3,2.7-11.3,7.8-12.5
		c0.3-0.1,0.7-0.1,1.1,0.1l0.3,0.1C347.4,51.3,355.9,69.5,347.9,80.7z" class="st1"></path>
	<path d="M347.9,80.7c-0.7-0.3-1.3-0.6-2-0.9c-3.3-1.5-6.3-2.8-6.3-2.8c4.6-4.1,4.1-10.2,2.7-16.1
		c-0.2-0.9-0.4-1.7-0.7-2.6c-1.8-6.7,0.2-9.2,0.2-9.2l0.3,0.1C347.4,51.3,355.9,69.5,347.9,80.7z" class="st3"></path>
	<path d="M345.9,79.8c-3.3-1.5-6.3-2.8-6.3-2.8c4.6-4.1,4.1-10.2,2.7-16.1c0.9,1.2,3,4.2,3,7.1c0,0,0.9-3,2-2.6
		c1.2,0.4-0.5,5.2-0.5,5.2s1.2-2.2,2.4-1C350.1,70.7,352.3,76.7,345.9,79.8z" class="st9"></path>
	<path d="M250.6,78.7c-1,4.9-3.2,10.2-0.5,14.7c0,0-2.9,1.5-5.9,3.3c-5.2-6.6-0.7-15.2-0.7-15.2s-2.8-2-1.4-3.4
		c1.4-1.4,5.2,1.1,5.2,1.1s-1.9-6.5,0.2-6.5C248.9,72.7,250,76.3,250.6,78.7z" class="st9"></path>
	<path d="M255,164.1c0.2,1.2,0.4,2.4,0.6,3.6c0.3,1.1,0.5,2.4,1,3.3c0.1,0.2,0.3,0.4,0.4,0.4c0,0,0,0,0,0
		c0,0,0.1,0,0.2-0.1c0.3-0.2,0.6-0.6,0.8-1c0.4-0.9,0.6-2.1,0.6-3.2l0.2-3.4l1.6,3.1c1,1.9,2.1,4,3.5,5.4c0.3,0.3,0.7,0.6,1,0.6
		c0.1,0.1,0.1,0,0.1,0c0,0,0.1-0.1,0.2-0.3c0.3-0.7,0.3-1.9,0.3-2.9l-0.1-1.8l1.5,1c0.6,0.4,1.6,0.8,2.5,1.1
		c0.9,0.3,1.9,0.5,2.9,0.7c2,0.3,4,0.5,6,0.5c-2,0.4-4.1,0.6-6.2,0.5c-1,0-2.1-0.1-3.1-0.4c-1.1-0.3-2-0.5-3.2-1.2l1.3-0.8
		c0.1,1.2,0.3,2.4-0.2,3.8c-0.1,0.3-0.4,0.8-0.8,1.1c-0.5,0.3-1.1,0.4-1.5,0.3c-0.9-0.2-1.4-0.7-1.9-1.1c-1-0.9-1.6-1.9-2.2-2.9
		c-0.6-1-1.1-2-1.6-3.1l1.7-0.3c-0.2,1.3-0.4,2.5-1,3.8c-0.3,0.6-0.8,1.3-1.6,1.6c-0.3,0.2-1.1,0.3-1.5-0.1c-0.4-0.3-0.6-0.7-0.7-1
		c-0.5-1.3-0.6-2.5-0.6-3.7C254.9,166.5,254.9,165.3,255,164.1z" class="st7"></path>
	<path d="M342.4,164.4c1.9-0.6,3.8-1.3,5.5-2.3l0.6-0.3l0.1,0.7c0.1,0.7,0.3,1.5,0.7,2c0.3,0.5,1,0.5,1,0.3
		c0.2-0.4,0.3-1.2,0.3-1.9c0-0.7-0.1-1.5-0.3-2.2l-0.5-2.5l1.7,1.9c0.6,0.7,1.3,1.3,2.1,1.9c0.7,0.5,1.6,1,2.2,0.9
		c0.6-0.1,1-0.5,0.9-1.3c-0.1-0.8-0.5-1.7-1-2.5l-0.4-0.6l0.6-0.1c0.8-0.2,1.7-0.5,2.5-0.9c0.8-0.4,1.5-0.9,2.2-1.5
		c-0.5,0.8-1.2,1.4-1.9,2c-0.8,0.6-1.6,1-2.5,1.3l0.3-0.7c0.6,0.8,1.2,1.7,1.5,2.8c0.1,0.5,0.2,1.2-0.2,1.9c-0.4,0.6-1,1-1.7,1.1
		c-1.4,0.1-2.3-0.6-3.2-1.1c-0.9-0.6-1.6-1.3-2.3-2.1l1.2-0.6c0.2,0.8,0.2,1.6,0.3,2.5c0,0.8,0,1.7-0.6,2.7c-1,1.2-2.5,0.4-3-0.4
		c-0.5-0.8-0.6-1.7-0.7-2.6l0.7,0.4c-0.9,0.4-1.9,0.8-2.9,1C344.4,164.2,343.4,164.3,342.4,164.4z" class="st7"></path>
	<path d="M85.2,227.1c-0.2,0-0.4-0.2-0.5-0.4c-0.1-0.6-0.2-1.3-0.3-1.9c0-0.3,0.2-0.5,0.4-0.5c0.3,0,0.5,0.2,0.5,0.4
		c0.1,0.6,0.2,1.2,0.3,1.9C85.7,226.8,85.6,227,85.2,227.1C85.3,227.1,85.2,227.1,85.2,227.1z M160.7,226.6
		C160.7,226.6,160.7,226.6,160.7,226.6c-0.7,0-1.3,0-2-0.1c-0.3,0-0.5-0.2-0.5-0.5c0-0.3,0.2-0.5,0.5-0.5c0.6,0,1.3,0,1.9,0.1
		c0.3,0,0.5,0.2,0.5,0.5C161.2,226.4,161,226.6,160.7,226.6z M164.6,226.5c-0.3,0-0.5-0.2-0.5-0.4c0-0.3,0.2-0.5,0.4-0.5
		c0.6,0,1.3-0.1,1.9-0.2c0.3,0,0.5,0.2,0.5,0.4c0,0.3-0.2,0.5-0.4,0.5C165.9,226.4,165.3,226.5,164.6,226.5
		C164.6,226.5,164.6,226.5,164.6,226.5z M154.9,226.3C154.9,226.3,154.9,226.3,154.9,226.3c-0.7-0.1-1.3-0.2-2-0.3
		c-0.3,0-0.4-0.3-0.4-0.5c0-0.3,0.3-0.5,0.5-0.4c0.6,0.1,1.3,0.2,1.9,0.2c0.3,0,0.5,0.3,0.4,0.5
		C155.4,226.1,155.2,226.3,154.9,226.3z M170.3,225.6c-0.2,0-0.4-0.1-0.5-0.4c-0.1-0.3,0.1-0.5,0.4-0.6c0.6-0.1,1.2-0.3,1.8-0.5
		c0.3-0.1,0.5,0.1,0.6,0.3c0.1,0.3-0.1,0.5-0.3,0.6c-0.6,0.2-1.3,0.4-1.9,0.5C170.4,225.6,170.4,225.6,170.3,225.6z M149.2,225.4
		C149.2,225.4,149.1,225.4,149.2,225.4c-0.7-0.1-1.4-0.3-2-0.4c-0.3-0.1-0.4-0.3-0.4-0.6c0.1-0.3,0.3-0.4,0.6-0.4
		c0.6,0.1,1.3,0.3,1.9,0.4c0.3,0.1,0.4,0.3,0.4,0.6C149.6,225.2,149.4,225.4,149.2,225.4z M143.5,224.1c0,0-0.1,0-0.1,0
		c-0.6-0.2-1.3-0.3-1.9-0.5c-0.3-0.1-0.4-0.3-0.3-0.6c0.1-0.3,0.3-0.4,0.6-0.3c0.6,0.2,1.2,0.3,1.9,0.5c0.3,0.1,0.4,0.3,0.3,0.6
		C143.9,223.9,143.7,224.1,143.5,224.1z M175.8,223.8c-0.2,0-0.4-0.1-0.4-0.3c-0.1-0.2,0-0.5,0.3-0.6c0.6-0.3,1.2-0.5,1.7-0.8
		c0.2-0.1,0.5,0,0.6,0.2c0.1,0.2,0,0.5-0.2,0.6c-0.6,0.3-1.2,0.6-1.8,0.8C176,223.8,175.9,223.8,175.8,223.8z M137.9,222.5
		c0,0-0.1,0-0.1,0c-0.6-0.2-1.2-0.4-1.9-0.6c-0.3-0.1-0.4-0.4-0.3-0.6c0.1-0.3,0.4-0.4,0.6-0.3c0.6,0.2,1.2,0.4,1.8,0.6
		c0.3,0.1,0.4,0.3,0.3,0.6C138.3,222.4,138.1,222.5,137.9,222.5z M84.9,221.3C84.9,221.3,84.8,221.3,84.9,221.3
		c-0.3,0-0.5-0.3-0.5-0.5c0.1-0.7,0.2-1.4,0.4-2c0.1-0.3,0.3-0.4,0.6-0.3c0.3,0.1,0.4,0.3,0.3,0.6c-0.2,0.6-0.3,1.2-0.3,1.8
		C85.3,221.1,85.1,221.3,84.9,221.3z M181,221.1c-0.2,0-0.3-0.1-0.4-0.2c-0.1-0.2-0.1-0.5,0.2-0.7c0.5-0.3,1.1-0.7,1.6-1
		c0.2-0.1,0.5-0.1,0.7,0.1c0.1,0.2,0.1,0.5-0.1,0.7c-0.5,0.4-1.1,0.7-1.6,1.1C181.1,221.1,181.1,221.1,181,221.1z M132.4,220.7
		c-0.1,0-0.1,0-0.2,0c-0.6-0.2-1.2-0.4-1.8-0.6c-0.3-0.1-0.4-0.4-0.3-0.6c0.1-0.3,0.4-0.4,0.6-0.3c0.6,0.2,1.2,0.4,1.8,0.6
		c0.3,0.1,0.4,0.4,0.3,0.6C132.8,220.6,132.6,220.7,132.4,220.7z M126.9,218.8c-0.1,0-0.1,0-0.2,0l-1.8-0.6
		c-0.3-0.1-0.4-0.4-0.3-0.6c0.1-0.3,0.4-0.4,0.6-0.3l1.8,0.6c0.3,0.1,0.4,0.4,0.3,0.6C127.3,218.7,127.1,218.8,126.9,218.8z
		 M185.7,217.8c-0.1,0-0.3-0.1-0.4-0.2c-0.2-0.2-0.1-0.5,0.1-0.7c0.5-0.4,1-0.8,1.5-1.2c0.2-0.2,0.5-0.1,0.7,0.1
		c0.2,0.2,0.1,0.5-0.1,0.7c-0.5,0.4-1,0.8-1.5,1.2C185.9,217.8,185.8,217.8,185.7,217.8z M121.4,216.9c-0.1,0-0.1,0-0.2,0l-1.8-0.6
		c-0.3-0.1-0.4-0.4-0.3-0.6c0.1-0.3,0.4-0.4,0.6-0.3l1.8,0.6c0.3,0.1,0.4,0.4,0.3,0.6C121.8,216.8,121.6,216.9,121.4,216.9z
		 M86.9,215.9c-0.1,0-0.2,0-0.3-0.1c-0.2-0.2-0.3-0.5-0.1-0.7c0.4-0.5,0.9-1,1.4-1.5c0.2-0.2,0.5-0.2,0.7,0c0.2,0.2,0.2,0.5,0,0.7
		c-0.5,0.4-0.9,0.9-1.2,1.4C87.2,215.9,87,215.9,86.9,215.9z M115.9,215c-0.1,0-0.1,0-0.2,0c-0.6-0.2-1.2-0.4-1.8-0.6
		c-0.3-0.1-0.4-0.4-0.3-0.6c0.1-0.3,0.4-0.4,0.6-0.3c0.6,0.2,1.2,0.4,1.8,0.6c0.3,0.1,0.4,0.4,0.3,0.6
		C116.3,214.9,116.1,215,115.9,215z M190.2,214.1c-0.1,0-0.3-0.1-0.4-0.2c-0.2-0.2-0.2-0.5,0-0.7c0.5-0.4,1-0.9,1.4-1.3
		c0.2-0.2,0.5-0.2,0.7,0c0.2,0.2,0.2,0.5,0,0.7c-0.5,0.4-1,0.9-1.4,1.3C190.4,214.1,190.3,214.1,190.2,214.1z M110.4,213.3
		c0,0-0.1,0-0.1,0c-0.6-0.2-1.2-0.3-1.9-0.5c-0.3-0.1-0.4-0.3-0.3-0.6c0.1-0.3,0.3-0.4,0.6-0.3c0.6,0.2,1.2,0.3,1.9,0.5
		c0.3,0.1,0.4,0.3,0.3,0.6C110.8,213.1,110.6,213.3,110.4,213.3z M91.4,212.4c-0.2,0-0.4-0.1-0.4-0.3c-0.1-0.2,0-0.5,0.2-0.6
		c0.3-0.1,0.6-0.3,1-0.4c0.3-0.1,0.6-0.2,0.9-0.3c0.3-0.1,0.5,0.1,0.6,0.3c0.1,0.3-0.1,0.5-0.3,0.6c-0.3,0.1-0.6,0.2-0.9,0.3
		c-0.3,0.1-0.6,0.2-0.9,0.4C91.6,212.4,91.5,212.4,91.4,212.4z M104.7,211.9C104.7,211.9,104.7,211.9,104.7,211.9
		c-0.7-0.1-1.4-0.2-2-0.3c-0.3,0-0.4-0.3-0.4-0.6c0-0.3,0.3-0.4,0.6-0.4c0.6,0.1,1.3,0.2,1.9,0.3c0.3,0.1,0.4,0.3,0.4,0.6
		C105.2,211.7,105,211.9,104.7,211.9z M97,211.2c-0.3,0-0.5-0.2-0.5-0.5c0-0.3,0.2-0.5,0.5-0.5c0.6,0,1.3,0,2,0
		c0.3,0,0.5,0.2,0.5,0.5c0,0.3-0.2,0.5-0.5,0.5C98.3,211.1,97.7,211.1,97,211.2C97.1,211.2,97.1,211.2,97,211.2z M194.4,210.1
		c-0.1,0-0.2,0-0.3-0.1c-0.2-0.2-0.2-0.5,0-0.7c0.5-0.5,0.9-0.9,1.4-1.4c0.2-0.2,0.5-0.2,0.7,0c0.2,0.2,0.2,0.5,0,0.7
		c-0.5,0.5-0.9,0.9-1.4,1.4C194.7,210.1,194.6,210.1,194.4,210.1z M198.5,206c-0.1,0-0.2,0-0.3-0.1c-0.2-0.2-0.2-0.5,0-0.7l1.3-1.4
		c0.2-0.2,0.5-0.2,0.7,0c0.2,0.2,0.2,0.5,0,0.7l-1.3,1.4C198.8,205.9,198.6,206,198.5,206z M202.9,201.6l-0.7-0.7l1.3-1.4
		c0.2-0.2,0.5-0.2,0.7,0c0.2,0.2,0.2,0.5,0,0.7L202.9,201.6z M202.5,201.3L202.5,201.3L202.5,201.3z M206.6,197.6
		c-0.1,0-0.2,0-0.3-0.1c-0.2-0.2-0.2-0.5,0-0.7c0.5-0.5,0.9-0.9,1.4-1.4c0.2-0.2,0.5-0.2,0.7,0c0.2,0.2,0.2,0.5,0,0.7
		c-0.5,0.4-0.9,0.9-1.4,1.3C206.9,197.6,206.7,197.6,206.6,197.6z M210.8,193.7c-0.1,0-0.3-0.1-0.4-0.2c-0.2-0.2-0.2-0.5,0-0.7
		c0.5-0.4,1-0.9,1.5-1.3c0.2-0.2,0.5-0.1,0.7,0.1c0.2,0.2,0.1,0.5-0.1,0.7c-0.5,0.4-1,0.8-1.5,1.3
		C211.1,193.6,211,193.7,210.8,193.7z" class="st9"></path>
	<path d="M164.3,370.5c-0.1,6.9-0.9,13.7-2.5,20.4c-6.2-0.1-12.4-1.3-18.3-3.5c-0.1,0-0.1,0-0.2-0.1
		c1.1-3.1,2.2-6.2,3.2-9.3c1.9-5.5,3.9-11.2,8.1-15.3c0.9-0.9,2-1.8,3.3-2c2.2-0.4,4.4,1.2,5.4,3.2
		C164.2,365.9,164.3,368.2,164.3,370.5z" class="st3"></path>
	<path d="M130.1,359.3c-0.9,1.3-2,2.6-3.1,3.9c-2.7,3-5.7,5.9-9,8.5c-0.2-0.2-0.4-0.4-0.6-0.6l-1.4-1.4
		c-4.7-4.8-8.5-9.9-11.4-15.3c3.7-1.8,7.7-2.9,11.6-4.4c3.7-1.4,8.5-3.1,12.5-2.3C134.5,349,132.6,355.6,130.1,359.3z" class="st3"></path>
	<path d="M111.9,317.1c-0.4,5.4-6.4,7.4-10.9,7.8c-1.4,0.1-2.9,0.2-4.5,0.2c-0.4-7.2,0.1-14.6,1.5-21.9
		c3,0.8,5.7,2.7,8.2,4.7C109.1,310.3,112.2,313.4,111.9,317.1z" class="st3"></path>
	<path d="M217.3,299c0,0,5-0.3,7.1,3.4" class="st3"></path>
	<path d="M168.5,138.9c0,1.1,0.5,2.2,1.4,2.8c0.5,0.4,1.1,0.6,1.7,0.8c4.6,1.1,13.4-3.9,8.8-9.1
		C176.4,129,168.2,133.5,168.5,138.9z" class="st9"></path>
	<path d="M154,204.6c-9.1,3.4-45.1-5.9-60.9-8.9c-10.5-2-17.1,6.9-20.4,13.1c-2.2-6.1-3-11.4-3.7-14.9
		c-2.5-12.3-13-42.8,9.4-55.7c13.6-7.9,39.4-5.2,60.6-1.1c-1.8,13.7,21.1,41.5,23.8,50C166.1,197,163.1,201.2,154,204.6z" class="st5"></path>
	<path d="M73.1,208.5c0,0-0.1,0-0.1,0c-0.3-0.1-0.4-0.4-0.3-0.6c0,0,0.2-0.8,0.8-1.9c0.1-0.2,0.4-0.3,0.7-0.2
		c0.2,0.1,0.3,0.4,0.2,0.7c-0.5,1-0.8,1.7-0.8,1.7C73.5,208.4,73.3,208.5,73.1,208.5z M148.6,205.7c-0.3,0-0.5-0.2-0.5-0.5
		c0-0.3,0.2-0.5,0.5-0.5c0.6,0,1.3,0,1.9-0.1c0.3,0,0.5,0.2,0.5,0.4c0,0.3-0.2,0.5-0.4,0.5C150,205.6,149.3,205.7,148.6,205.7
		C148.6,205.7,148.6,205.7,148.6,205.7z M144.8,205.6C144.7,205.6,144.7,205.6,144.8,205.6c-0.7,0-1.3-0.1-2-0.2
		c-0.3,0-0.5-0.3-0.4-0.5c0-0.3,0.2-0.5,0.5-0.4c0.6,0.1,1.3,0.1,1.9,0.2c0.3,0,0.5,0.2,0.5,0.5C145.2,205.4,145,205.6,144.8,205.6z
		 M154.4,205c-0.2,0-0.4-0.1-0.5-0.4c-0.1-0.3,0.1-0.5,0.4-0.6c0.6-0.1,1.2-0.3,1.8-0.5c0.3-0.1,0.5,0,0.6,0.3
		c0.1,0.3,0,0.5-0.3,0.6c-0.6,0.2-1.2,0.4-1.9,0.6C154.5,205,154.4,205,154.4,205z M139,204.9C139,204.9,138.9,204.9,139,204.9
		c-0.7-0.1-1.4-0.2-2-0.3c-0.3,0-0.4-0.3-0.4-0.6c0-0.3,0.3-0.4,0.6-0.4c0.6,0.1,1.3,0.2,1.9,0.3c0.3,0,0.4,0.3,0.4,0.6
		C139.4,204.7,139.2,204.9,139,204.9z M133.3,203.9C133.2,203.9,133.2,203.9,133.3,203.9c-0.7-0.1-1.4-0.3-2-0.4
		c-0.3-0.1-0.4-0.3-0.4-0.6c0.1-0.3,0.3-0.4,0.6-0.4c0.6,0.1,1.3,0.3,1.9,0.4c0.3,0.1,0.4,0.3,0.4,0.6
		C133.7,203.7,133.5,203.9,133.3,203.9z M76.1,203.6c-0.1,0-0.2,0-0.3-0.1c-0.2-0.2-0.2-0.5,0-0.7c0.4-0.5,0.9-1,1.4-1.4
		c0.2-0.2,0.5-0.2,0.7,0c0.2,0.2,0.2,0.5,0,0.7c-0.5,0.4-0.9,0.9-1.3,1.4C76.3,203.5,76.2,203.6,76.1,203.6z M159.7,202.7
		c-0.2,0-0.3-0.1-0.4-0.2c-0.2-0.2-0.1-0.5,0.1-0.7c0.5-0.4,1-0.8,1.4-1.2c0.2-0.2,0.5-0.2,0.7,0c0.2,0.2,0.2,0.5,0,0.7
		c-0.5,0.5-1,0.9-1.5,1.3C159.9,202.7,159.8,202.7,159.7,202.7z M127.6,202.7c0,0-0.1,0-0.1,0l-1.9-0.4c-0.3-0.1-0.4-0.3-0.4-0.6
		c0.1-0.3,0.3-0.4,0.6-0.4l1.9,0.4c0.3,0.1,0.4,0.3,0.4,0.6C128,202.5,127.8,202.7,127.6,202.7z M121.9,201.3c0,0-0.1,0-0.1,0
		l-1.9-0.5c-0.3-0.1-0.4-0.3-0.4-0.6c0.1-0.3,0.3-0.4,0.6-0.4l1.9,0.5c0.3,0.1,0.4,0.3,0.4,0.6C122.3,201.2,122.1,201.3,121.9,201.3
		z M116.3,199.9c0,0-0.1,0-0.1,0c-0.6-0.2-1.3-0.3-1.9-0.5c-0.3-0.1-0.4-0.3-0.4-0.6c0.1-0.3,0.3-0.4,0.6-0.4
		c0.6,0.1,1.3,0.3,1.9,0.5c0.3,0.1,0.4,0.3,0.4,0.6C116.7,199.8,116.5,199.9,116.3,199.9z M80.5,199.9c-0.2,0-0.3-0.1-0.4-0.2
		c-0.1-0.2-0.1-0.5,0.2-0.7c0.6-0.3,1.1-0.7,1.7-1c0.2-0.1,0.5,0,0.6,0.2c0.1,0.2,0,0.5-0.2,0.6c-0.6,0.3-1.1,0.6-1.6,0.9
		C80.6,199.8,80.6,199.9,80.5,199.9z M110.6,198.6c0,0-0.1,0-0.1,0c-0.6-0.1-1.3-0.3-1.9-0.4c-0.3-0.1-0.4-0.3-0.4-0.6
		c0.1-0.3,0.3-0.4,0.6-0.4c0.6,0.1,1.3,0.3,1.9,0.4c0.3,0.1,0.4,0.3,0.4,0.6C111,198.5,110.8,198.6,110.6,198.6z M163.3,198.3
		c-0.1,0-0.1,0-0.2,0c-0.2-0.1-0.4-0.4-0.3-0.6c0.2-0.5,0.4-1.1,0.5-1.8c0.1-0.3,0.3-0.4,0.6-0.4c0.3,0.1,0.4,0.3,0.4,0.6
		c-0.1,0.7-0.3,1.3-0.6,1.9C163.7,198.2,163.5,198.3,163.3,198.3z M85.8,197.5c-0.2,0-0.4-0.1-0.5-0.3c-0.1-0.3,0.1-0.5,0.3-0.6
		c0.6-0.2,1.2-0.3,1.9-0.5c0.3-0.1,0.5,0.1,0.6,0.4c0.1,0.3-0.1,0.5-0.4,0.6c-0.6,0.1-1.2,0.3-1.8,0.5
		C85.9,197.5,85.8,197.5,85.8,197.5z M104.9,197.4C104.9,197.4,104.9,197.4,104.9,197.4c-0.7-0.1-1.4-0.2-2-0.3
		c-0.3,0-0.4-0.3-0.4-0.6c0-0.3,0.3-0.4,0.6-0.4c0.6,0.1,1.3,0.2,1.9,0.3c0.3,0,0.4,0.3,0.4,0.6
		C105.4,197.3,105.2,197.4,104.9,197.4z M99.2,196.6C99.2,196.6,99.1,196.6,99.2,196.6c-0.4,0-0.7-0.1-1-0.1c-0.3,0-0.7-0.1-1-0.1
		c-0.3,0-0.5-0.2-0.4-0.5c0-0.3,0.3-0.5,0.5-0.4c0.3,0,0.7,0,1,0.1c0.3,0,0.6,0.1,0.9,0.1c0.3,0,0.5,0.3,0.4,0.5
		C99.6,196.4,99.4,196.6,99.2,196.6z M91.5,196.4c-0.2,0-0.5-0.2-0.5-0.4c0-0.3,0.2-0.5,0.4-0.5c0.6-0.1,1.3-0.1,2-0.1
		c0.3,0,0.5,0.2,0.5,0.5c0,0.3-0.2,0.5-0.5,0.5C92.7,196.3,92.1,196.4,91.5,196.4C91.5,196.4,91.5,196.4,91.5,196.4z M164.1,192.6
		c-0.2,0-0.5-0.2-0.5-0.4c-0.1-0.6-0.2-1.2-0.3-1.9c-0.1-0.3,0.1-0.5,0.4-0.6c0.3-0.1,0.5,0.1,0.6,0.4c0.1,0.7,0.2,1.3,0.3,2
		C164.6,192.3,164.4,192.6,164.1,192.6C164.1,192.6,164.1,192.6,164.1,192.6z M162.7,187c-0.2,0-0.4-0.1-0.5-0.3
		c-0.2-0.6-0.4-1.2-0.7-1.8c-0.1-0.2,0-0.5,0.3-0.6c0.2-0.1,0.5,0,0.6,0.3c0.3,0.6,0.5,1.2,0.7,1.8c0.1,0.3,0,0.5-0.3,0.6
		C162.8,187,162.8,187,162.7,187z M160.4,181.6c-0.2,0-0.3-0.1-0.4-0.3c-0.3-0.6-0.6-1.1-0.9-1.7c-0.1-0.2,0-0.5,0.2-0.7
		c0.2-0.1,0.5,0,0.7,0.2c0.3,0.6,0.6,1.2,0.9,1.7c0.1,0.2,0,0.5-0.2,0.6C160.6,181.6,160.5,181.6,160.4,181.6z M157.7,176.5
		c-0.2,0-0.3-0.1-0.4-0.2c-0.3-0.6-0.6-1.1-1-1.7c-0.1-0.2-0.1-0.5,0.2-0.7c0.2-0.1,0.5-0.1,0.7,0.2c0.3,0.6,0.7,1.1,1,1.7
		c0.1,0.2,0.1,0.5-0.2,0.7C157.9,176.5,157.8,176.5,157.7,176.5z M154.7,171.5c-0.2,0-0.3-0.1-0.4-0.2c-0.3-0.5-0.7-1.1-1-1.6
		c-0.1-0.2-0.1-0.5,0.1-0.7c0.2-0.1,0.5-0.1,0.7,0.1c0.3,0.5,0.7,1.1,1,1.6c0.1,0.2,0.1,0.5-0.2,0.7
		C154.9,171.5,154.8,171.5,154.7,171.5z M151.6,166.6c-0.2,0-0.3-0.1-0.4-0.2l-1.1-1.6c-0.1-0.2-0.1-0.5,0.1-0.7
		c0.2-0.1,0.5-0.1,0.7,0.1l1.1,1.6c0.1,0.2,0.1,0.5-0.1,0.7C151.7,166.6,151.7,166.6,151.6,166.6z M148.4,161.7
		c-0.2,0-0.3-0.1-0.4-0.2l-1-1.6c-0.1-0.2-0.1-0.5,0.1-0.7c0.2-0.1,0.5-0.1,0.7,0.1l1,1.6c0.1,0.2,0.1,0.5-0.1,0.7
		C148.6,161.7,148.5,161.7,148.4,161.7z M145.3,156.8c-0.2,0-0.3-0.1-0.4-0.2c-0.3-0.6-0.7-1.1-1-1.7c-0.1-0.2-0.1-0.5,0.2-0.7
		c0.2-0.1,0.5-0.1,0.7,0.2c0.3,0.5,0.7,1.1,1,1.6c0.1,0.2,0.1,0.5-0.2,0.7C145.5,156.8,145.4,156.8,145.3,156.8z M142.3,151.8
		c-0.2,0-0.3-0.1-0.4-0.2c-0.3-0.6-0.6-1.1-0.9-1.7c-0.1-0.2,0-0.5,0.2-0.7c0.2-0.1,0.5,0,0.7,0.2c0.3,0.6,0.6,1.1,0.9,1.7
		c0.1,0.2,0,0.5-0.2,0.7C142.5,151.8,142.4,151.8,142.3,151.8z M139.7,146.6c-0.2,0-0.4-0.1-0.4-0.3c-0.3-0.6-0.5-1.2-0.7-1.8
		c-0.1-0.2,0-0.5,0.3-0.6c0.3-0.1,0.5,0,0.6,0.3c0.2,0.6,0.5,1.2,0.7,1.8c0.1,0.2,0,0.5-0.3,0.6
		C139.8,146.6,139.8,146.6,139.7,146.6z M137.9,141.1c-0.2,0-0.4-0.2-0.5-0.4c-0.1-0.7-0.2-1.4-0.2-2c0-0.3,0.2-0.5,0.5-0.5
		c0.3,0,0.5,0.2,0.5,0.5c0,0.6,0.1,1.2,0.2,1.8C138.4,140.8,138.3,141.1,137.9,141.1C138,141.1,137.9,141.1,137.9,141.1z" class="st9"></path>
	<path d="M239.6,287.6c-0.2,0-0.5-0.2-0.5-0.4c0-0.3,0.2-0.5,0.4-0.5l0.9-0.1c0.3,0,0.5,0.2,0.5,0.4
		c0,0.3-0.2,0.5-0.4,0.5L239.6,287.6C239.7,287.6,239.6,287.6,239.6,287.6z M244.3,287c-0.2,0-0.4-0.2-0.5-0.4
		c0-0.3,0.2-0.5,0.4-0.5c0.6-0.1,1.3-0.2,1.9-0.2c0.3,0,0.5,0.2,0.5,0.4c0,0.3-0.2,0.5-0.4,0.5C245.7,286.9,245,286.9,244.3,287
		C244.4,287,244.4,287,244.3,287z M250.1,286.2c-0.2,0-0.4-0.2-0.5-0.4c0-0.3,0.1-0.5,0.4-0.6c0.6-0.1,1.3-0.2,1.9-0.3
		c0.3,0,0.5,0.1,0.6,0.4c0,0.3-0.1,0.5-0.4,0.6C251.5,286,250.8,286.1,250.1,286.2C250.1,286.2,250.1,286.2,250.1,286.2z
		 M255.8,285.3c-0.2,0-0.4-0.2-0.5-0.4c0-0.3,0.1-0.5,0.4-0.6c0.6-0.1,1.3-0.2,1.9-0.4c0.3,0,0.5,0.1,0.6,0.4
		c0.1,0.3-0.1,0.5-0.4,0.6C257.2,285,256.5,285.1,255.8,285.3C255.9,285.3,255.8,285.3,255.8,285.3z M261.5,284.1
		c-0.2,0-0.4-0.2-0.5-0.4c-0.1-0.3,0.1-0.5,0.4-0.6c0.6-0.1,1.3-0.3,1.9-0.4c0.3-0.1,0.5,0.1,0.6,0.4c0.1,0.3-0.1,0.5-0.4,0.6
		c-0.6,0.1-1.3,0.3-1.9,0.4C261.6,284.1,261.5,284.1,261.5,284.1z M267.1,282.7c-0.2,0-0.4-0.1-0.5-0.4c-0.1-0.3,0.1-0.5,0.3-0.6
		c0.6-0.2,1.2-0.3,1.9-0.5c0.3-0.1,0.5,0.1,0.6,0.3c0.1,0.3-0.1,0.5-0.3,0.6c-0.6,0.2-1.2,0.3-1.9,0.5
		C267.2,282.7,267.2,282.7,267.1,282.7z M272.7,281.1c-0.2,0-0.4-0.1-0.5-0.3c-0.1-0.3,0.1-0.5,0.3-0.6c0.6-0.2,1.2-0.4,1.8-0.6
		c0.2-0.1,0.5,0.1,0.6,0.3c0.1,0.3-0.1,0.5-0.3,0.6c-0.6,0.2-1.2,0.4-1.8,0.6C272.8,281.1,272.8,281.1,272.7,281.1z M278.2,279.2
		c-0.2,0-0.4-0.1-0.5-0.3c-0.1-0.2,0-0.5,0.3-0.6c0.6-0.2,1.2-0.4,1.8-0.7c0.2-0.1,0.5,0,0.6,0.3c0.1,0.2,0,0.5-0.3,0.6
		c-0.6,0.2-1.2,0.5-1.8,0.7C278.3,279.2,278.3,279.2,278.2,279.2z M283.6,277.1c-0.2,0-0.4-0.1-0.4-0.3c-0.1-0.2,0-0.5,0.3-0.6
		c0.6-0.3,1.2-0.5,1.8-0.8c0.2-0.1,0.5,0,0.6,0.2c0.1,0.2,0,0.5-0.2,0.6c-0.6,0.3-1.2,0.5-1.8,0.8
		C283.7,277.1,283.7,277.1,283.6,277.1z M288.9,274.7c-0.2,0-0.3-0.1-0.4-0.3c-0.1-0.2,0-0.5,0.2-0.7c0.6-0.3,1.1-0.6,1.7-0.9
		c0.2-0.1,0.5,0,0.7,0.2c0.1,0.2,0,0.5-0.2,0.7c-0.6,0.3-1.1,0.6-1.7,0.9C289,274.6,289,274.7,288.9,274.7z M294,271.9
		c-0.2,0-0.3-0.1-0.4-0.2c-0.1-0.2-0.1-0.5,0.2-0.7c0.6-0.3,1.1-0.7,1.6-1c0.2-0.1,0.5-0.1,0.7,0.2c0.1,0.2,0.1,0.5-0.2,0.7
		c-0.5,0.3-1.1,0.7-1.7,1C294.1,271.9,294.1,271.9,294,271.9z M298.9,268.7c-0.2,0-0.3-0.1-0.4-0.2c-0.2-0.2-0.1-0.5,0.1-0.7
		c0.5-0.4,1.1-0.7,1.6-1.1c0.2-0.2,0.5-0.1,0.7,0.1c0.2,0.2,0.1,0.5-0.1,0.7c-0.5,0.4-1,0.8-1.6,1.1
		C299,268.7,298.9,268.7,298.9,268.7z M303.5,265.2c-0.1,0-0.3-0.1-0.4-0.2c-0.2-0.2-0.1-0.5,0.1-0.7c0.5-0.4,1-0.8,1.5-1.2
		c0.2-0.2,0.5-0.2,0.7,0c0.2,0.2,0.2,0.5,0,0.7c-0.5,0.4-1,0.8-1.5,1.3C303.7,265.2,303.6,265.2,303.5,265.2z M307.8,261.3
		c-0.1,0-0.2,0-0.3-0.1c-0.2-0.2-0.2-0.5,0-0.7c0.5-0.5,0.9-0.9,1.3-1.4c0.2-0.2,0.5-0.2,0.7,0c0.2,0.2,0.2,0.5,0,0.7
		c-0.4,0.5-0.9,0.9-1.4,1.4C308,261.3,307.9,261.3,307.8,261.3z M311.7,257.1c-0.1,0-0.2,0-0.3-0.1c-0.2-0.2-0.2-0.5-0.1-0.7
		c0.4-0.5,0.8-1,1.2-1.5c0.2-0.2,0.5-0.2,0.7-0.1c0.2,0.2,0.2,0.5,0.1,0.7c-0.4,0.5-0.8,1-1.2,1.5C312,257,311.8,257.1,311.7,257.1z
		 M315.2,252.4c-0.1,0-0.2,0-0.3-0.1c-0.2-0.1-0.3-0.4-0.1-0.7c0.4-0.5,0.7-1.1,1-1.6c0.1-0.2,0.4-0.3,0.7-0.2
		c0.2,0.1,0.3,0.4,0.2,0.7c-0.3,0.5-0.7,1.1-1.1,1.6C315.5,252.4,315.3,252.4,315.2,252.4z M318.2,247.5c-0.1,0-0.2,0-0.2-0.1
		c-0.2-0.1-0.3-0.4-0.2-0.7c0.3-0.6,0.6-1.1,0.9-1.7c0.1-0.2,0.4-0.3,0.6-0.2c0.2,0.1,0.3,0.4,0.2,0.6c-0.3,0.6-0.6,1.2-0.9,1.7
		C318.5,247.4,318.3,247.5,318.2,247.5z M320.7,242.2c-0.1,0-0.1,0-0.2,0c-0.2-0.1-0.4-0.4-0.3-0.6c0.2-0.6,0.5-1.2,0.7-1.8
		c0.1-0.3,0.4-0.4,0.6-0.3c0.3,0.1,0.4,0.4,0.3,0.6c-0.2,0.6-0.5,1.2-0.7,1.8C321,242.1,320.8,242.2,320.7,242.2z M322.6,236.7
		c0,0-0.1,0-0.1,0c-0.3-0.1-0.4-0.3-0.3-0.6c0.2-0.6,0.4-1.2,0.5-1.9c0.1-0.3,0.3-0.4,0.6-0.3c0.3,0.1,0.4,0.3,0.3,0.6
		c-0.2,0.6-0.3,1.2-0.5,1.9C323,236.6,322.8,236.7,322.6,236.7z M324,231.1C324,231.1,323.9,231.1,324,231.1
		c-0.4-0.1-0.5-0.3-0.5-0.6c0.1-0.6,0.2-1.3,0.3-1.9c0-0.3,0.3-0.5,0.6-0.4c0.3,0,0.4,0.3,0.4,0.6c-0.1,0.6-0.2,1.3-0.4,1.9
		C324.4,230.9,324.2,231.1,324,231.1z M324.9,225.4C324.9,225.4,324.8,225.4,324.9,225.4c-0.3,0-0.5-0.3-0.5-0.5
		c0.1-0.6,0.1-1.3,0.2-1.9c0-0.3,0.2-0.5,0.5-0.4c0.3,0,0.5,0.3,0.4,0.5c-0.1,0.6-0.1,1.3-0.2,1.9
		C325.3,225.2,325.1,225.4,324.9,225.4z M325.3,219.6C325.3,219.6,325.3,219.6,325.3,219.6c-0.3,0-0.5-0.2-0.5-0.5
		c0-0.6,0-1.3,0-1.9c0-0.3,0.2-0.5,0.5-0.5s0.5,0.2,0.5,0.5c0,0.6,0,1.3,0,2C325.8,219.4,325.5,219.6,325.3,219.6z M325.2,213.8
		c-0.3,0-0.5-0.2-0.5-0.5c0-0.7-0.1-1.3-0.1-1.9c0-0.3,0.2-0.5,0.4-0.5c0.2-0.1,0.5,0.2,0.5,0.4c0,0.6,0.1,1.3,0.1,1.9
		C325.7,213.5,325.5,213.7,325.2,213.8C325.2,213.8,325.2,213.8,325.2,213.8z M324.7,208c-0.2,0-0.4-0.2-0.5-0.4
		c-0.1-0.7-0.2-1.3-0.3-1.9c0-0.3,0.1-0.5,0.4-0.6c0.3,0,0.5,0.1,0.6,0.4c0.1,0.6,0.2,1.3,0.3,1.9C325.2,207.7,325,207.9,324.7,208
		C324.7,208,324.7,208,324.7,208z M323.8,202.2c-0.2,0-0.4-0.2-0.5-0.4c-0.1-0.7-0.3-1.3-0.4-1.9c-0.1-0.3,0.1-0.5,0.4-0.6
		c0.3-0.1,0.5,0.1,0.6,0.4c0.1,0.6,0.3,1.2,0.4,1.9C324.3,201.9,324.1,202.2,323.8,202.2C323.8,202.2,323.8,202.2,323.8,202.2z
		 M322.4,196.6c-0.2,0-0.4-0.1-0.5-0.3c-0.3-1.2-0.6-1.8-0.6-1.8c-0.1-0.3,0-0.5,0.3-0.6c0.3-0.1,0.5,0,0.6,0.3c0,0,0.2,0.7,0.6,1.9
		c0.1,0.3-0.1,0.5-0.3,0.6C322.5,196.6,322.5,196.6,322.4,196.6z" class="st9"></path>
	<g>
		<path d="M267.2,238c0,0,9.2,33,21.2,47.3c12.1,14.3,28.8,35.3,51.4,27.5c22.6-7.8-8.5-47.1-10.9-50.5
			c-2.5-3.3-21.4-40-23-48L267.2,238z" class="st1"></path>
		<path d="M271.9,253.3c3.2,7.9,7,15.5,11.3,22.7c4.3,7.3,9.1,14.3,14.8,20.5c5.7,6.2,12.3,11.7,20.1,14.8
			c3.9,1.5,8,2.3,12.2,2.2c4.1-0.1,8.4-0.8,11.8-2.9c1.7-1.1,3.1-2.5,3.9-4.4c0.8-1.8,1.1-3.8,1-5.9c-0.2-4.1-1.5-8.2-3.1-12
			c-3.3-7.8-7.8-14.9-12.4-22l-7-10.6c-2.4-3.5-4.4-7.3-6.3-11.1c-3.8-7.6-7.3-15.4-10.4-23.2c3.3,7.8,7,15.5,11,22.9
			c2,3.7,4.1,7.4,6.5,10.9l7.2,10.5c4.7,7,9.3,14.3,12.7,22.1c1.6,3.9,3.1,8.1,3.3,12.5c0.1,2.2-0.2,4.5-1.1,6.5
			c-0.9,2.1-2.5,3.8-4.4,5c-3.9,2.3-8.3,3-12.6,3.1c-4.3,0.1-8.7-0.8-12.7-2.4c-8.1-3.2-14.8-8.9-20.4-15.3
			C286,284.4,278,269.1,271.9,253.3z" class="st7"></path>
		<path d="M345.9,306.4c-3-1.5-5.7-3.6-8-6.1c-2.3-2.5-4.2-5.4-5.2-8.6c1.2,1.2,2.2,2.5,3.3,3.7
			c1.1,1.2,2.1,2.4,3.3,3.6l3.3,3.6C343.7,303.8,344.9,305,345.9,306.4z" class="st3"></path>
		<path d="M335.1,313.7c-1.3-0.7-2.5-1.5-3.5-2.5c-1.1-0.9-2.1-2-3-3.1c-0.9-1.1-1.8-2.3-2.5-3.6
			c-0.7-1.3-1.3-2.6-1.5-4.1c1.9,2.2,3.7,4.3,5.5,6.4C331.8,309,333.6,311.2,335.1,313.7z" class="st3"></path>
	</g>
	<path d="M233.1,305.2c-0.2,2.1-0.5,4.5-0.9,7c-0.1,0-0.3,0-0.4,0c-0.5-0.1-0.9-0.3-1.3-0.5c-0.5-0.4-1-0.9-1.3-1.5
		c-0.3-0.8-0.1-1.7,0.3-2.5c0.3-0.8,0.7-1.5,1.3-2C231.6,305,232.4,304.9,233.1,305.2z" class="st4"></path>
	<path d="M223.4,313.1c2.2,1.8,2.9-3,1-4.1C222,307.5,222.1,312,223.4,313.1z" class="st4"></path>
	<path d="M233.3,359.2c-0.3,0.2-0.6,0.1-0.8,0.1c-5.4-1-7.7-8-8.9-12.6c-1.4-5.4-1.5-11-1.1-16.5
		c0.4-4.9,1.2-10.8,6.4-12.9c0.8-0.3,1.7-0.5,2.6-0.4c-1.4,8.4-2.7,17.8-1,26.1C231.5,348.5,232.6,354.1,233.3,359.2z" class="st4"></path>
	<path d="M229.1,380.7c-17-19.8-10.7-70.8-6.4-77c3.1-4.4,7.7-3.4,10.4-2.2c0,1.1,0,2.4-0.1,3.7c-0.2,2.1-0.5,4.5-0.9,7
		c-0.2,1.5-0.5,3-0.8,4.6c-1.4,8.4-2.7,17.8-1,26.1c1.2,5.6,2.3,11.2,3,16.3C234.7,369.3,234.4,377.6,229.1,380.7z" class="st2"></path>
	<path d="M118.7,308.2c1.1-6.8,3-13.5,5.5-19.9c2.5-6.4,5.8-12.7,10.4-17.9c4.6-5.2,11.1-9,18.3-9.2
		c3.5,0,7,1.1,10.1,2.7c3.1,1.6,5.9,3.7,8.5,6.1c5.1,4.7,9.4,10.2,13.3,15.9c3.9,5.8,7.3,11.7,10.5,17.9c6.3,12.3,11.7,25.1,16,38.2
		l-1.4,0.3c-0.4-9.4-0.2-18.9,1.4-28.3c0.9-4.6,2-9.3,4.3-13.6c1.2-2.1,2.7-4.1,4.8-5.5c2.1-1.4,4.7-1.9,7.1-1.7
		c1.2,0.1,2.5,0.5,3.6,1.2c1.1,0.8,1.7,2,2.1,3.1c0.7,2.4,0.6,4.8,0.5,7.2c-0.4,4.7-1.3,9.3-2,14c-0.8,4.6-1.4,9.3-1.5,13.9
		c-0.1,2.3,0,4.7,0.3,7c0.3,2.3,0.8,4.6,1.2,6.9l-0.1-0.2c0.1,0.1,0.1,0.2,0.1,0.4l0-0.1c0,0.2,0.1,0.3,0.1,0.5l0-0.1l0.1,0.6l0,0
		l1.8,11.1c0.6,3.7,0.9,7.5,0.7,11.2c-0.1,1.9-0.4,3.8-1,5.6c-0.6,1.8-1.6,3.5-3.1,4.7c-1.5,1.2-3.4,1.8-5.3,1.9
		c-1.9,0.1-3.8-0.1-5.6-0.4c1.8,0.3,3.7,0.5,5.6,0.3c1.9-0.2,3.7-0.8,5.1-1.9c1.5-1.2,2.4-2.8,3-4.6c0.6-1.8,0.8-3.6,0.9-5.5
		c0.1-3.7-0.2-7.5-0.9-11.1l-2-11l0,0l-0.1-0.4l0-0.1c0-0.1,0-0.1,0-0.2l0-0.2l0,0.1c0,0.1,0,0.1,0.1,0.2l-0.1-0.2
		c-0.4-2.3-1-4.6-1.3-7c-0.3-2.4-0.4-4.7-0.3-7.1c0.1-4.7,0.7-9.4,1.5-14.1c0.7-4.6,1.6-9.3,1.9-13.9c0.1-2.3,0.2-4.7-0.5-6.8
		c-0.3-1-0.9-2-1.8-2.6c-0.8-0.6-1.9-0.9-3-1c-2.2-0.2-4.5,0.3-6.4,1.6c-1.9,1.2-3.3,3.1-4.4,5.1c-2.2,4-3.3,8.6-4.1,13.2
		c-1.5,9.2-1.7,18.6-1.2,27.9l0.3,5.4l-1.7-5.2c-4.3-13.1-9.5-25.9-15.8-38.1c-3.1-6.1-6.5-12.1-10.3-17.8
		c-3.8-5.7-8.1-11.2-13.1-15.8c-2.5-2.3-5.2-4.4-8.2-6c-3-1.6-6.3-2.6-9.7-2.6c-6.8,0.1-13.2,3.8-17.7,8.8c-4.6,5-8,11.2-10.6,17.5
		C122,294.8,120,301.4,118.7,308.2z" class="st7"></path>
</g>
</svg>
