<svg xml:space="preserve" style="enable-background:new 0 0 500 500;" viewBox="0 0 500 500" y="0px" x="0px"
     xmlns="http://www.w3.org/2000/svg" id="图层_1" version="1.0">
<style type="text/css">
	.st0{fill:#5DD4B4;}
	.st1{fill:#8EE4DB;}
	.st2{fill:#FC903E;}
	.st3{opacity:0.3;fill:#A0312F;}
	.st4{opacity:0.2;fill:#A0312F;}
	.st5{fill:#A0312F;}
	.st6{fill:#FCBB85;}
	.st7{opacity:0.48;fill:#A0312F;}
	.st8{opacity:0.48;fill:#DC4949;}
	.st9{fill:#FFFFFF;}
	.st10{opacity:0.21;fill:#A0312F;}
	.st11{fill:#F25555;}
	.st12{opacity:0.52;fill:#FFFFFF;}
</style>
<g>
	<g>
		<path d="M414,374.1c0-35.7-80.2-64.6-179.1-64.6c-66.1,0-123.8,12.9-154.9,32.2c1.5-6.2,2.3-11.9,0.6-13
			c-3.9-2.6-13.8,23.1-13.8,23.1s1.1-21.7-2.5-21.1c-3.6,0.6-1.2,25.1-1.2,25.1s-8.4-29.9-11.7-27.1c-3.3,2.9,9.5,30.1,9.5,30.1h0
			c-3.3,4.9-5.1,10.1-5.1,15.4c0,24.2,36.8,45.3,91.3,56.4c-14.4,3.9-23.7,10-23.7,17c0,11.7,26.2,21.1,58.6,21.1
			c32.3,0,58.6-9.5,58.6-21.1c0-3.1-1.9-6.1-5.2-8.7C334,438.6,414,409.7,414,374.1z" class="st0"></path>
		<path d="M268.8,445.5c0,2.5-5.7,4.6-12.7,4.6c-7,0-12.7-2.1-12.7-4.6c0-2.5,5.7-4.6,12.7-4.6
			C263.1,440.9,268.8,442.9,268.8,445.5z" class="st0"></path>
		<path d="M279.9,423.4c0,2.5-5.7,4.6-12.7,4.6c-7,0-12.7-2.1-12.7-4.6s5.7-4.6,12.7-4.6
			C274.2,418.8,279.9,420.9,279.9,423.4z" class="st1"></path>
		<path d="M227.7,450.6c0,1.6-3.5,2.8-7.9,2.8c-4.4,0-7.9-1.3-7.9-2.8c0-1.6,3.5-2.8,7.9-2.8
			C224.2,447.8,227.7,449,227.7,450.6z" class="st1"></path>
		<path d="M207,435.8c0,2.3-5.2,4.2-11.6,4.2c-6.4,0-11.6-1.9-11.6-4.2c0-2.3,5.2-4.2,11.6-4.2
			C201.7,431.6,207,433.5,207,435.8z" class="st1"></path>
	</g>
	<g>
		<path d="M156.3,53.5c12.7-14.9,30.1-23.9,51.3-21c42.6,6,73.4,42.7,114.1,55.2c35.3,10.9,75.8,3,110,16.6
			c23.6,9.4,42.7,29.1,51.9,53.8c20.8,55.9-14.8,126.2-66.8,154c-31.8,17-66.9,11.2-98.8,4.2c-39.5-8.7-76.6-28.7-107.7-54
			c-37.9-30.9-69.3-73.2-77.4-124.2C128.6,110.6,137.3,75.6,156.3,53.5z" class="st1"></path>
		<path d="M217.1,194.5l-35.9,34.9l-3.3,0.2l-33.9,2.5l-7.1-20.3l-5.8-16.8l-0.1-0.2c0,0,0.9-0.8,2.6-2.2c0,0,0,0,0.1,0
			c0.1-0.1,0.2-0.1,0.2-0.2h0c2.9-2.3,7.8-6.1,14.1-10.3c2.8-1.8,5.8-3.8,9-5.7c0,0,0,0,0,0c1.6-1,3.3-1.9,5-2.8
			c6.3-3.5,13.1-6.7,20.1-9c3.8-1.3,7.7-2.3,11.5-3.1C224.5,155.9,217.1,194.5,217.1,194.5z" class="st2"></path>
		<g>
			<path d="M168.3,240.9c0,0-74.2-36.1-102.6,51.6c-7.3-4.9-15.2-9.1-23.2-12.6c-6.5-2.8-13.3-5.5-20.3-6.7
				c-4.8-0.8-14.3-3.6-17.9,1.6c-3.5,5.1,4.5,10.3,8.6,11.6c9.7,2.9,42.2,16.5,52.3,29.4c10.1,12.9,19.3-5,19.3-5s38.7,31.2,72,2.4
				C189.9,284.5,168.3,240.9,168.3,240.9z" class="st2"></path>
			<path d="M168.3,240.9c0,0-74.2-36.1-102.6,51.6c-7.3-4.9-15.2-9.1-23.2-12.6c-6.5-2.8-13.3-5.5-20.3-6.7
				c-4.8-0.8-14.3-3.6-17.9,1.6c-3.5,5.1,4.5,10.3,8.6,11.6c9.7,2.9,42.2,16.5,52.3,29.4c10.1,12.9,19.3-5,19.3-5s38.7,31.2,72,2.4
				C189.9,284.5,168.3,240.9,168.3,240.9z" class="st3"></path>
		</g>
		<g>
			<g>
				<path d="M453.6,323.3c-3.4,0.8-8.7,0.2-14.6,0.3l0,0c-8.1,0.2-17.3,1.8-24.6,10.4c-3.6,4.2-8.1,11.5-13.4,19.9l0,0
					c-3.6,5.5-7.6,11.5-12,17.2c-12.4,16.1-28,30.8-47.4,30.3c-12.3-0.3-22.5-3.1-30.8-7.8c-8.8-4.9-15.5-11.7-20.6-19.6
					c-3.8-5.7-6.7-12-9-18.5l11.5-22.9c0,0,3.1,34.1,29.9,46.9c4.2,2,8.4,3.1,12.6,3.4c8.4,0.6,16.5-1.9,23.8-6.2
					c11.8-7.1,21.2-19.2,25.6-30.6c1.4-3.5,3-7.2,4.9-11c3.8-7.5,8.6-15.1,14.3-21.6c6.9-7.8,15.1-13.8,24.4-15.5
					c3.1-0.6,6.2-0.7,9.5-0.2C463.2,301.5,461.7,321.4,453.6,323.3z" class="st2"></path>
				<path d="M453.6,323.3c-3.4,0.8-8.7,0.2-14.6,0.3l0,0c-8.1,0.2-17.3,1.8-24.6,10.4c-3.6,4.2-8.1,11.5-13.4,19.9l0,0
					c-3.6,5.5-7.6,11.5-12,17.2c-12.4,16.1-28,30.8-47.4,30.3c-12.3-0.3-22.5-3.1-30.8-7.8c-8.8-4.9-15.5-11.7-20.6-19.6
					c-3.8-5.7-6.7-12-9-18.5l11.5-22.9c0,0,3.1,34.1,29.9,46.9c4.2,2,8.4,3.1,12.6,3.4c8.4,0.6,16.5-1.9,23.8-6.2
					c11.8-7.1,21.2-19.2,25.6-30.6c1.4-3.5,3-7.2,4.9-11c3.8-7.5,8.6-15.1,14.3-21.6c6.9-7.8,15.1-13.8,24.4-15.5
					c3.1-0.6,6.2-0.7,9.5-0.2C463.2,301.5,461.7,321.4,453.6,323.3z" class="st4"></path>
			</g>
			<path d="M453.6,323.3c-3.4,0.8-8.7,0.2-14.6,0.3c2.5-2.8,7.3-6.9,14.2-8.3c0,0-23.1-3.4-25-17.1
				c3.1-0.6,6.2-0.7,9.5-0.2C463.2,301.5,461.7,321.4,453.6,323.3z" class="st5"></path>
			<path d="M405.2,329c-2.6,5.3-9.9,6.3-15.7,6.2c3.8-7.5,8.6-15.1,14.3-21.6C405.9,317.9,407.8,323.9,405.2,329z" class="st5"></path>
			<path d="M401,353.8c-3.6,5.5-7.6,11.5-12,17.2C388.7,364.4,390.3,355.2,401,353.8z" class="st5"></path>
			<path d="M349,393.6c-7.1-0.2-11.6-6.3-13.8-10.6c8.4,0.6,16.5-1.9,23.8-6.2C358.2,384.2,355.8,393.8,349,393.6z" class="st5"></path>
			<path d="M310.8,393.7c-8.8-4.9-15.5-11.7-20.6-19.6c4.8,0.1,11.6,1,16.8,5.6C311.3,383.5,311.6,389,310.8,393.7z" class="st5"></path>
		</g>
		<path d="M100.5,312.4c0.3,0.8,0.7,1.8,1.2,2.7c6.8,13.1,12.1,23.9,8,41.6c-1.8,7.5-3.1,17.1-2.4,24.3
			c1,9.7,5.7,15.3,18.2,6.3c0,0,22.6,28.9,75.9,27c6.8-0.2,14.2-1,22-2.4c7.5-1.3,15.4-3.2,23.9-5.8c9.3-2.8,19.2-6.5,29.7-11.1
			c0.8-0.3,1.5-0.7,2.3-1c18.9-8.5,35.7-20.1,49.8-33.5c7.5-7.1,14.3-14.8,20.2-22.7c7.8-10.5,14.2-21.6,18.8-32.7
			c0.8-1.8,1.4-3.6,2.1-5.3c1.8-5,3.4-10.1,4.7-15.2c3.7-15,5.2-30.5,4.6-46c-0.3-7.5-1.1-14.9-2.3-22.2c-1-6-2.3-12-4-17.9
			c-1.5-5.5-3.3-10.9-5.4-16.2c-2.7-7-5.8-13.7-9.4-20.2c-3-5.5-6.4-10.8-10-15.8c-3.2-4.5-6.7-8.8-10.4-12.8
			c-56.3-61.5-151.6,43.4-151.9,81.5c0,5.1-4.2,6.9-4.2,6.9l-29.2,23.1c0,0-39.2,20.4-43.1,58.6c0,0-1.2-0.1-2.7,0
			C103.5,303.8,98,305.3,100.5,312.4z" class="st2"></path>
		<path d="M159.8,221.1c-8,3.9-15.3,9.6-21.7,15.7c-13,12.3-24.3,28.4-28.2,46.1c-1.5,6.7-1.8,13.8-0.2,20.6
			c0,0,0.1,0.5-0.6,0.6c0,0,28.7,4.4,21.9,61.3c0.6-1.8,10.1-31.3,33.6-40.7c24.3-9.7,38.4,2.2,45,12.5c0,0,28-2.5,47.1-22.1
			c15.3-15.7,24.7-45.1,11.3-72.3c-7.3-14.8-19.5-26.6-35.7-30.9C208.9,205.7,181.3,210.7,159.8,221.1z" class="st6"></path>
		<path d="M307.6,160c1.2-1.3,2.4-2.6,3.6-3.9c1.2-1.3,2.3-2.7,3.4-4.1l0.7-0.9l0.1,1.2c0,0.5,0.1,1,0.2,1.5
			c0.1,0.5,0.4,0.9,0.6,1c0.1,0,0.2,0,0.4,0c0.1,0,0.2-0.2,0.3-0.4c0.2-0.4,0.3-0.9,0.3-1.4c0.1-1,0.2-2,0.1-3.1
			c0-1-0.1-2.1-0.3-3.1l-0.4-1.9l1.3,1.4c0.5,0.6,1.2,1.1,1.8,1.5c0.6,0.4,1.4,0.7,1.7,0.4c0.4-0.3,0.6-1.1,0.7-1.9
			c0-0.8,0-1.6-0.1-2.4l0-0.3l0.3-0.1c1.7-0.8,3.3-1.9,4.8-3.1c0.8-0.6,1.5-1.2,2.1-1.9c0.7-0.7,1.3-1.4,1.9-2.2
			c-0.9,1.7-2.2,3.2-3.6,4.6c-1.4,1.3-3,2.5-4.8,3.5l0.2-0.5c0.2,0.9,0.3,1.7,0.3,2.6c0,0.4-0.1,0.9-0.2,1.4c-0.1,0.5-0.4,1-0.9,1.3
			c-0.2,0.2-0.5,0.3-0.8,0.3c-0.3,0-0.6,0-0.8-0.1c-0.5-0.1-0.9-0.4-1.3-0.6c-0.8-0.5-1.4-1.1-2-1.7l1-0.5c0.2,1.1,0.3,2.2,0.3,3.3
			c0,1.1,0,2.2-0.2,3.3c-0.1,0.6-0.2,1.1-0.5,1.7c-0.1,0.3-0.3,0.6-0.7,0.8c-0.4,0.2-0.8,0.2-1.2,0.1c-0.8-0.4-0.9-1.1-1.1-1.6
			c-0.1-0.6-0.2-1.1-0.2-1.7l0.7,0.3c-1.2,1.4-2.4,2.7-3.7,3.9C310.2,157.7,308.9,158.9,307.6,160z" class="st7"></path>
		<path d="M210.1,361c1.4-5.2,1.9-10.7,1.2-16c-0.7-5.3-2.9-10.4-6.7-14.1c-3.8-3.7-8.8-5.9-13.9-7.2
			c-5.1-1.3-10.5-1.6-15.8-0.8c-10.5,1.5-20.1,7.4-27.1,15.4c-7.1,8-12.1,17.6-15.9,27.6l-2.6,7l0.7-7.5c0.6-6.8,0.5-13.8,0.3-20.7
			c-0.1-3.5-0.2-6.9-0.6-10.3c-0.3-3.4-1.2-6.7-2.2-10c-2.2-6.5-5.9-12.6-11.5-16.5c-2.8-1.9-5.9-3.6-9.3-4c-1.7-0.2-3.5,0-4.8,1.1
			c-1.4,1.1-2,2.8-2.1,4.5c0.1-1.7,0.6-3.6,1.9-4.7c1.4-1.2,3.3-1.5,5-1.3c3.6,0.3,6.8,1.9,9.8,3.8c6,3.9,10,10.2,12.4,16.8
			c1.2,3.3,2.1,6.7,2.5,10.3c0.4,3.5,0.6,7,0.8,10.5c0.2,7,0.4,13.9-0.2,21l-2-0.5c3.8-10.2,8.8-20.2,16.2-28.4
			c7.3-8.2,17.3-14.4,28.4-15.8c5.5-0.8,11.1-0.3,16.4,1.1c5.3,1.5,10.5,3.9,14.4,7.9c4,4,6,9.5,6.5,14.9
			C212.5,350.3,211.8,355.8,210.1,361z" class="st7"></path>
		<path d="M101.7,315.1c6.8,13.1,12.1,23.9,8,41.6c-1.8,7.5-3.1,17.1-2.4,24.3c1.9,0.7,4.4,0.3,7.4-2.6
			c0.1-0.1,0.2-0.2,0.3-0.3c2.3-2.6,3.1-6.5,3.7-9.8c0.9-5.1,1.2-10.4,1.2-15.6c0-3.6,0-7.3-0.2-10.9c-0.5-8.8-1.3-35.5-16.2-31.1
			c-0.6,0.2-1.9,0.8-3,1.6C100.8,313.2,101.2,314.1,101.7,315.1z" class="st4"></path>
		<path d="M119.7,310.2c-1.6,0.5-2.9,0.6-4.1,0.8c-0.6,0.1-1.1,0.2-1.7,0.4c-0.6,0.2-1.2,0.4-1.9,0.8
			c0-0.8,0.4-1.7,1-2.2c0.6-0.6,1.5-0.9,2.3-1.1c0.8-0.1,1.6-0.1,2.4,0.1C118.4,309.3,119.1,309.6,119.7,310.2z" class="st5"></path>
		<path d="M299.8,252.1c0.7,1.7,1.8,3.2,2.6,4.9c1.1,2.1,1.7,4.5,2.4,6.9c0,0.1,0.1,0.2,0.1,0.4
			c5.9-0.4,11.8-1.6,17.7-4c-0.1-0.2-0.2-0.5-0.3-0.7c-2.2-4.5-5.8-8.9-8.7-11.7c-2-2-4.3-3.8-7.1-4.3c-2.8-0.5-6,0.7-7.1,3.3
			C298.7,248.5,299.1,250.5,299.8,252.1z" class="st5"></path>
		<path d="M267.2,257.7c7.4,3.1,14.4,4.9,20.9,5.9c0-0.1,0-0.1,0-0.2c0.5-3,0.7-6,0.5-9c-0.2-2.9-0.8-5.9-2.5-8.2
			c-1.7-2.3-4.8-3.9-7.6-3.1c-3.3,1-5,4.6-6.6,7.6c-1.3,2.5-2.9,4.8-4.6,6.9C267.3,257.6,267.2,257.7,267.2,257.7z" class="st5"></path>
		<path d="M323.5,173.2c2.2,4.1,8.7,2.4,12,1.2c8.2-2.9,16-7.1,23-12.4c-3-5.5-6.4-10.8-10-15.8
			c-3.8,3.9-7.1,8.2-11.2,11.7c-2.8,2.5-6,4.5-8.9,6.8C326.1,166.6,321.7,169.8,323.5,173.2z" class="st5"></path>
		<path d="M346.1,200.6c1.8,1.1,4,1.3,6.1,1.3c7.2,0,14.2-1.4,21.1-3.5c-1.5-5.5-3.3-10.9-5.4-16.2
			c-6.9,3.5-13.8,7-20.6,10.6c-1.2,0.6-2.4,1.3-3,2.4C343.2,197.1,344.3,199.5,346.1,200.6z" class="st5"></path>
		<path d="M235.3,373.6c1.2,8.7,3.8,17.2,7.7,25.1c1.3,2.6,2.7,5,4.3,7.4c9.3-2.8,19.2-6.5,29.7-11.1
			c-9.4-8.6-16-21.1-26.3-29.1c-2-1.5-4.2-2.9-6.7-3.5c-2.5-0.5-5.3,0-7,1.8C234.8,366.6,234.9,370.3,235.3,373.6z" class="st5"></path>
		<path d="M200.9,401.8c0.1,4.2,0.3,8.3,0.5,12.5c6.8-0.2,14.2-1,22-2.4c-1.7-5-3.8-10-6-14.6c-1.1-2.3-2.2-4.6-4-6.3
			c-1.8-1.7-4.4-2.8-6.8-2.2c-2.5,0.6-4.3,2.9-5.1,5.4C200.8,396.5,200.8,399.2,200.9,401.8z" class="st5"></path>
		<path d="M379.6,238.5c-0.3-7.5-1.1-14.9-2.3-22.2c-3.5,0.9-7,1.9-10.5,2.9c-4.2,1.3-8.9,2.9-10.5,7.4
			C352.6,236.6,369.9,238.3,379.6,238.5z" class="st5"></path>
		<path d="M344.3,291.3c1.5,2.1,3.6,3.6,5.7,5c5.7,3.6,11.8,6.6,18.2,8.8c0.8-1.8,1.4-3.6,2.1-5.3
			c1.8-5,3.4-10.1,4.7-15.2c-5.8-1-11.6-2.7-17.3-4.1c-2.7-0.6-5.4-1.2-8.1-0.8c-2.7,0.4-5.4,1.9-6.4,4.5
			C342.2,286.5,342.9,289.3,344.3,291.3z" class="st5"></path>
		<path d="M311.8,338c0.1,2.1,1.2,4.1,2.3,5.9c4,6.4,9.1,12,15.1,16.6c7.5-7.1,14.3-14.8,20.2-22.7
			c-6.6-3.5-13.2-6.8-20.4-8.3c-3.6-0.8-7.5-1.1-11,0.2C314.6,331,311.7,334.3,311.8,338z" class="st5"></path>
		<path d="M288,180.9c0.6,0.8,1,1.7,1.4,2.7c0.2,0.5,0.3,1,0.4,1.5c0,0.5,0,1.3-0.6,1.9c-0.2,0.1-0.4,0.3-0.6,0.3
			c-0.2,0-0.5,0-0.7,0c-0.4-0.1-0.7-0.4-0.9-0.6c-0.4-0.4-0.8-0.9-1-1.3c-0.6-0.9-1-1.8-1.3-2.8l2-0.4c0.1,1.1,0,2.1-0.1,3.1
			c-0.2,1-0.3,2.1-1.2,3.3c-0.2,0.3-0.6,0.5-1,0.7c-0.4,0.2-0.9,0.2-1.2,0.2c-0.4,0-0.9-0.2-1.2-0.5c-0.3-0.3-0.6-0.7-0.7-1
			c-0.4-1.4-0.2-2.4,0-3.5l1.2,1.1c-1,0.2-1.7,0.2-2.6,0.1c-0.8-0.1-1.6-0.4-2.3-0.6c-0.7-0.3-1.4-0.7-2-1.2c-0.6-0.5-1.2-1-1.7-1.5
			c1.3,0.7,2.7,1.3,4.1,1.6c0.7,0.2,1.4,0.2,2.1,0.2c0.7,0,1.4-0.1,1.9-0.3l1.4-0.5l-0.2,1.6c-0.1,0.8-0.1,1.8,0.1,2.3
			c0.2,0.2,0.1,0.2,0.2,0.2c0.2,0,0.2,0,0.4-0.2c0.3-0.4,0.6-1.3,0.7-2.2c0.1-0.9,0.2-1.8,0.2-2.7l0.2-6.2l1.8,5.9
			c0.3,0.9,0.6,1.8,1,2.6c0.2,0.4,0.4,0.8,0.6,1.1c0.1,0.1,0.2,0.2,0.3,0.3c0,0-0.1,0,0,0.1c0.4-0.1,0.5-1.3,0.3-2.1
			C288.5,182.8,288.3,181.8,288,180.9z" class="st7"></path>
		<path d="M360.5,127.2c-0.2,3.5-0.7,6.9-1.7,10.2c-0.3,1.1-0.7,2.3-1.1,3.4c-4.9,13.4-16.3,25.1-36.2,33.9
			c-39.4,17.4-109,3.9-109,3.9s-3.1-4.9-5-7.1c-3.8-4.4-10.1-13.2-12.8-26c-0.2-0.8-0.3-1.5-0.4-2.3c-0.3-1.7-0.5-3.5-0.7-5.4
			c0-0.1,0-0.1,0-0.2c-0.1-1.5-0.2-3-0.2-4.6c0-0.3,0-0.7,0-1c0-0.3,0-0.6,0-1c0.1-3,0.3-6,0.7-9c0.1-0.6,0.2-1.2,0.3-1.8
			c0.2-1.3,0.5-2.6,0.8-3.8c0-0.1,0-0.2,0.1-0.4c0.6-2.5,1.4-5,2.3-7.5c0.2-0.6,0.5-1.2,0.7-1.8c3.8-8.7,10.3-16.7,20.9-23.1
			c6.6-3.9,14.7-7.2,24.9-9.6c0.1,0,0.2-0.1,0.4-0.1c0.4-0.1,0.8-0.2,1.3-0.3c2.3-0.5,4.7-1,7.1-1.4c0.9-0.2,1.8-0.3,2.8-0.4
			c0.3,0,0.6-0.1,0.8-0.1c8.5-1.2,16.4-2,23.9-2.4c1.7-0.1,3.4-0.2,5.1-0.2h0c4.1-0.1,8-0.1,11.7,0.1c0.4,0,0.8,0,1.2,0
			c22.3,1,38.5,6.6,48.4,16.2c0.5,0.4,0.9,0.9,1.3,1.3c2.3,2.5,4.2,5.3,5.8,8.3c0.4,0.7,0.7,1.4,1,2.1c0.2,0.3,0.3,0.7,0.4,1.1
			c0.2,0.6,0.5,1.2,0.7,1.8c0.1,0.3,0.2,0.7,0.4,1c1.6,4.6,2.8,9.2,3.5,13.7l0,0.1c0.1,0.8,0.2,1.5,0.3,2.3c0.2,1.6,0.3,3.1,0.4,4.6
			C360.7,123.6,360.7,125.4,360.5,127.2z" class="st2"></path>
		<path d="M247.1,74.4c-0.3,0.3-5.9,5.1-11.8,8.8c-2.1,1.3-4.2,2.4-6.1,3.2c-3.2,1.3-6.1,1.6-7.8,0.1
			c-0.7-0.7-1.4-1.6-2.1-2.7c-0.1-0.1-0.1-0.2-0.2-0.4c-3.2-5.7-5-15.8-4-21.7c0.3-1.6,0.8-2.9,1.5-3.7c0.3-0.3,0.6-0.5,1-0.7
			c5.9-2.3,11.6,0.2,15.7,4.3c2.9,2.8,5.1,6.4,8.3,9c0.2,0.2,2.3,1.8,3.8,2.9l0.4,0.2C246.4,74.2,247,74.5,247.1,74.4z" class="st2"></path>
		<path d="M348.2,87c-0.6,0-40.4-2-42.2-13.8c-0.2-1.1-0.2-2.3-0.2-3.4c0.2-10.9,8.3-22,12.6-22.5l0,0
			c4.8-0.6,8.5,9.5,12.8,17C335.6,71.6,347.9,86.5,348.2,87z" class="st2"></path>
		<path d="M327.8,76.1c-4.6-2.8-9.9-4.4-14.1-5.3c-4.4-0.9-7.7-1.1-7.8-1.1c0.2-10.9,8.3-22,12.6-22.5l0,0
			c1.1,2.3,2.3,5.1,1.7,11.8c-0.1,0.7-0.1,1.3-0.1,1.9C320.1,70,326.6,75.5,327.8,76.1z" class="st5"></path>
		<path d="M234.9,76.5c0,0-6.4,2.6-11.6,4.9c-1.6,0.7-3.1,1.4-4.2,1.9c-3.2-5.7-5-15.8-4-21.7c0.3-1.6,0.8-2.9,1.5-3.7
			c0,0,2.4,0.7,5,5.7c0.9,1.8,1.8,3.6,2.7,5.2C226.4,72.8,229.1,75.7,234.9,76.5z" class="st5"></path>
		<path d="M292.7,161.6c-3.2,3.6-2.8,10.3,1.8,13.2c6.2,3.9,16.6,2,20.8-4.1c3.5-5.2-0.2-13.7-5-14.8
			c-4-0.9-8.1-0.1-11.7,1.7C296.9,158.3,294.4,159.6,292.7,161.6z" class="st8"></path>
		<path d="M231.1,158.1c3.2,3.3,3.6,10.4-0.1,14.3c-5,5.1-14.3,4.8-18.7-1.1c-3.7-5-1.3-14.5,2.7-16.5
			c3.4-1.6,7.1-1.3,10.4-0.1C227.1,155.3,229.3,156.2,231.1,158.1z" class="st8"></path>
		<path d="M280.4,69.3c-4.6,5-7.6,12.2-10,17.6c-1.3,3-2.5,6-3.6,9.1c-0.8,2.3-2.5,4.7-5,5.3c-3.2,0.8-6.3-0.9-8.2-3.4
			c-2.4-3.1-2.9-7-2.8-10.8c0.2-5.4,2-10.7,4.9-15.3c0.3,0,0.5-0.1,0.8-0.1C265,70.5,272.9,69.7,280.4,69.3z" class="st5"></path>
		<path d="M203.9,134.1c-3.4,0.9-7.1,0.2-10.5-1.2c0-0.3,0-0.7,0-1c0-0.3,0-0.7,0-1c0.1-3,0.3-6,0.7-9
			C201.5,127.3,210.3,132.4,203.9,134.1z" class="st5"></path>
		<path d="M203.6,143.2c-2.1,1.6-5.6,2.2-8.9,2.3c-0.2-0.8-0.3-1.5-0.4-2.3c-0.3-1.7-0.5-3.5-0.7-5.4c0-0.1,0-0.1,0-0.2
			C200.5,138.7,207.4,140.4,203.6,143.2z" class="st5"></path>
		<path d="M201.4,118.6c-1.9-0.1-4.1-1-6.1-2.3c0-0.1,0-0.2,0.1-0.4c0.6-2.5,1.4-5,2.3-7.5
			C202.1,113.6,205.9,118.8,201.4,118.6z" class="st5"></path>
		<path d="M297.2,69.2c-1.2,1.5-2.5,3.3-3.4,4.6c-3,4.1-6,9.7-8.5,10.6c-5.3,1.8-8-3.3-5.1-9.1c1.4-2.6,3.4-4.6,5.3-6.1
			l0,0C289.6,69,293.5,69,297.2,69.2z" class="st5"></path>
		<path d="M252.9,72.3c-2.5,3.9-4.9,10.3-7.6,11.5c-4.2,1.9-7.9-1.2-6.3-3.7c1.6-2.5,3.5-4.5,5.2-6.1
			C246.9,73.4,249.8,72.8,252.9,72.3z" class="st5"></path>
		<path d="M317.3,172.5c1.5-0.8,3.1-1.6,4.6-2.4c1.5-0.8,3-1.7,4.5-2.6l0.8-0.5l-0.3,0.9c-0.1,0.5-0.2,1-0.3,1.4
			c0,0.5,0,1,0.2,1.1c0.1,0.1,0.3,0.1,0.4,0.1c0.1,0,0.3-0.1,0.4-0.3c0.3-0.3,0.6-0.7,0.8-1.2c0.5-0.9,0.8-1.8,1.1-2.8
			c0.3-1,0.6-2,0.7-2.9l0.3-1.6l0.7,1.5c0.3,0.7,0.7,1.4,1.2,2c0.5,0.6,1.1,1.2,1.5,1c0.5-0.1,1-0.9,1.3-1.6
			c0.3-0.7,0.5-1.5,0.7-2.3l0.1-0.3l0.3,0c1.8-0.2,3.7-0.7,5.4-1.4c0.9-0.3,1.8-0.7,2.6-1.1c0.8-0.4,1.6-0.9,2.4-1.4
			c-0.7,0.6-1.5,1.2-2.3,1.7c-0.8,0.5-1.7,0.9-2.5,1.3c-1.8,0.7-3.6,1.3-5.5,1.6l0.3-0.3c-0.1,0.9-0.3,1.7-0.6,2.5
			c-0.2,0.4-0.4,0.8-0.6,1.2c-0.3,0.4-0.6,0.7-1.2,0.9c-0.3,0.1-0.6,0.1-0.8,0c-0.3-0.1-0.5-0.2-0.7-0.3c-0.4-0.3-0.7-0.6-1-1
			c-0.5-0.7-0.9-1.4-1.3-2.2l0.9-0.1c-0.2,1.1-0.5,2.1-0.8,3.1c-0.3,1-0.7,2-1.2,2.9c-0.3,0.5-0.5,0.9-1,1.4
			c-0.2,0.2-0.5,0.4-0.9,0.5c-0.4,0-0.7,0-1.1-0.3c-0.6-0.6-0.5-1.3-0.4-1.8c0.1-0.6,0.2-1.1,0.4-1.6l0.5,0.4
			c-1.5,0.9-3.1,1.7-4.6,2.4C320.5,171.2,318.9,171.9,317.3,172.5z" class="st7"></path>
		<path d="M203.6,166.4c1.1,1.5,2.3,2.9,3.4,4.3c0.6,0.7,1.2,1.4,1.8,2c0.6,0.6,1.3,1.3,2,1.7l0.2,0.1l0,0.2
			c0.1,0.8,0.2,1.6,0.4,2.3c0.2,0.7,0.6,1.5,1.1,1.5c0.2,0,0.3,0,0.5-0.3c0.1-0.3,0.2-0.7,0.2-1c0.1-0.8,0-1.6-0.1-2.3l-0.2-2
			l1.1,1.6c0.5,0.7,1,1.4,1.6,2c0.6,0.6,1.2,1.3,1.8,1.7c0.3,0.2,0.7,0.4,1,0.4c0.3,0,0.6-0.1,0.7-0.4c0.2-0.6-0.2-1.5-0.5-2.2
			l-0.5-0.9l0.9,0.4c1.3,0.6,2.7,1.2,4.1,1.7c1.4,0.5,2.8,0.9,4.3,1.1c-1.5,0-3-0.3-4.4-0.7c-1.4-0.4-2.8-0.9-4.2-1.5l0.4-0.5
			c0.2,0.4,0.4,0.8,0.6,1.3c0.1,0.5,0.3,0.9,0.1,1.5c-0.1,0.3-0.3,0.6-0.6,0.7c-0.1,0.1-0.3,0.1-0.4,0.2c-0.1,0-0.3,0.1-0.4,0.1
			c-0.6,0-1.1-0.2-1.5-0.5c-0.8-0.5-1.5-1.2-2.1-1.8c-0.6-0.7-1.1-1.4-1.7-2.1l0.9-0.3c0.1,0.9,0.1,1.7,0.1,2.6
			c-0.1,0.4-0.1,0.9-0.3,1.3c-0.1,0.1-0.1,0.2-0.2,0.3c-0.1,0.1-0.2,0.2-0.3,0.3c-0.3,0.2-0.6,0.2-0.9,0.2c-0.6-0.1-1-0.6-1.2-0.9
			c-0.2-0.4-0.4-0.8-0.5-1.2c-0.2-0.8-0.3-1.7-0.4-2.5l0.2,0.3c-0.9-0.6-1.5-1.2-2.1-1.9c-0.6-0.7-1.2-1.4-1.7-2.2
			C205.6,169.5,204.5,168,203.6,166.4z" class="st7"></path>
		<g>
			<g>
				<path d="M311.3,152.9c-5.3,4.5-14.1,6.8-20.9,5c-1.4-0.4-2.8-1-4.1-1.8c-5.5-3.7-9.1-10.7-9.8-17.2
					c0-0.1,0-0.3-0.1-0.4c-0.6-6.6,2.5-12.9,7.8-16.6c6.3-4.4,16.1-6.7,22.8-2.2c2.7,1.8,4.9,4.5,6.6,7.6l0,0
					C318.2,135.5,318.4,146.8,311.3,152.9z" class="st9"></path>
				<path d="M311.3,152.9c-3,2.6-6.7,4.2-10.5,5.1c-1.9,0.4-3.9,0.7-5.9,0.7c-2,0-4-0.3-5.9-0.9
					c-1.9-0.6-3.6-1.7-5.1-3.1c-1.5-1.3-2.8-2.9-3.9-4.5c-2.2-3.3-3.7-7.2-4.3-11.2l0,0.1c-0.7-4.8,0.6-9.6,3.4-13.5
					c1.4-1.9,3.1-3.6,5.1-4.9c2-1.3,4.1-2.3,6.3-3.1c4.4-1.5,9.3-1.9,13.8-0.2c2.2,0.8,4.2,2.3,5.8,3.9c1.6,1.7,2.9,3.6,3.9,5.6
					l-0.4-0.2l0,0l0.3,0l0.1,0.2c1.1,2.1,1.8,4.3,2.3,6.6c0.5,2.3,0.7,4.6,0.6,6.9c-0.1,2.3-0.6,4.6-1.6,6.8
					C314.5,149.5,313.1,151.4,311.3,152.9z M311.3,152.9c1.8-1.5,3.1-3.5,4-5.6c0.9-2.1,1.3-4.4,1.4-6.7c0.1-2.3-0.2-4.6-0.8-6.8
					c-0.6-2.2-1.4-4.4-2.6-6.4l0.4,0.2l0,0l-0.3,0.1l-0.1-0.3c-1.1-1.9-2.4-3.7-4-5.2c-1.6-1.5-3.4-2.7-5.5-3.4
					c-2-0.7-4.2-0.9-6.4-0.7c-2.2,0.1-4.3,0.6-6.4,1.4c-4.1,1.5-7.9,3.8-10.5,7.3c-0.6,0.9-1.2,1.8-1.7,2.7c-0.4,1-0.9,2-1.1,3
					c-0.3,1-0.5,2.1-0.6,3.2c-0.1,0.5,0,1.1-0.1,1.6c0,0.5,0,1.1,0.1,1.6l0,0.1c0.4,3.8,1.6,7.5,3.6,10.8c1,1.6,2.2,3.2,3.6,4.5
					c1.4,1.3,3,2.5,4.8,3.1c3.6,1.4,7.7,1.4,11.5,0.6C304.6,157.1,308.3,155.4,311.3,152.9z" class="st5"></path>
			</g>
			<path d="M297.7,153c5.2-0.2,10.6-3.3,12.8-8.1c3.6-7.7-0.5-18-8.5-20.9c-4.3-1.5-9.7-1-13.5,1.5
				c-10.2,6.7-6.1,23.5,4.9,27C294.8,152.9,296.3,153,297.7,153z" class="st5"></path>
			<path d="M313.7,127.2c-24.5-6.3-35.8,9.6-37.2,11.7c0-0.1,0-0.3-0.1-0.4c-0.6-6.6,2.5-12.9,7.8-16.6
				c6.3-4.4,16.1-6.7,22.8-2.2C309.8,121.5,312.1,124.1,313.7,127.2z" class="st10"></path>
		</g>
		<g>
			<g>
				<path d="M237,147.9c-1.9,5.7-8,9-13.6,9.9c-0.8,0.1-1.5,0.2-2.3,0.1c-9.2-0.4-16.7-11.3-15-20.3
					c0.2-0.9,0.4-1.8,0.8-2.7c3.3-7.7,14.5-12.5,22.2-9c1.9,0.9,3.3,2.5,4.4,4.2c0.8,1.1,1.5,2.5,2.1,3.9
					C237.5,138.3,238.4,143.6,237,147.9z" class="st9"></path>
				<path d="M237,147.9c-0.3,1-0.8,2-1.4,2.9c-0.6,0.9-1.3,1.7-2.1,2.4c-1.6,1.4-3.4,2.6-5.4,3.4c-1,0.4-2,0.8-3,1
					c-1,0.3-2.1,0.5-3.2,0.6c-2.2,0.1-4.4-0.4-6.4-1.3c-4-1.9-7.1-5.4-8.9-9.4c-0.9-2-1.5-4.2-1.7-6.4l0-1.7c0-0.6,0.1-1.1,0.2-1.7
					c0.1-1.1,0.5-2.2,0.9-3.3c1.9-4.2,5.6-7.2,9.7-8.9c2.1-0.8,4.2-1.3,6.4-1.4c2.2-0.1,4.4,0.2,6.5,1.1c1,0.4,2,1.1,2.8,1.8
					c0.8,0.8,1.5,1.6,2,2.6c1.2,1.8,2,3.8,2.8,5.8c0.7,2,1.2,4.1,1.4,6.2C237.8,143.7,237.7,145.9,237,147.9z M237,147.9
					c1.2-4.1,0.5-8.6-1-12.5c-0.8-2-1.8-3.9-3-5.6c-1.2-1.7-2.7-3.2-4.7-3.8c-3.9-1.4-8.2-0.7-11.9,1c-1.9,0.8-3.6,2-5.1,3.3
					c-1.5,1.4-2.7,3-3.5,4.8c-0.4,0.9-0.7,1.8-0.8,2.8c-0.1,0.5-0.1,1-0.2,1.5l0,1.5c0.1,2,0.6,4,1.3,5.9c1.5,3.8,4.2,7.2,7.9,9.2
					c1.8,1,3.8,1.5,5.9,1.6c1,0,2.1-0.1,3.1-0.4c1-0.2,2.1-0.5,3-0.9c2-0.7,3.9-1.8,5.4-3.2c0.8-0.7,1.5-1.5,2.1-2.4
					C236.2,149.8,236.7,148.9,237,147.9z" class="st5"></path>
			</g>
			<path d="M217,151c0.4,0.2,4.5,3.8,11.5,0.3c7-3.5,4.6-13,3-15.9c-1.7-2.9-6.6-8.7-14.7-5
				C208.7,134.1,210,146.9,217,151z" class="st5"></path>
			<path d="M235.6,133.9c-11-4.1-23.3,0.6-29.5,3.7c0.2-0.9,0.4-1.8,0.8-2.7c3.3-7.7,14.5-12.5,22.2-9
				c1.9,0.9,3.3,2.5,4.4,4.2C234.3,131.2,235,132.5,235.6,133.9z" class="st10"></path>
		</g>
		<path d="M359.9,114.8L359.9,114.8c0,0.5,0.1,0.9,0.1,1.3c-7.2,4.4-16.3,7.7-24.2,5.8c-3-0.7-5.9-3-5.4-5.9
			c0.2-1.2,0.9-2.3,1.9-3.2c2.9-2.7,7.2-3.8,11-5c4.3-1.3,9.2-4.2,12.9-6.8C358,105.7,359.2,110.3,359.9,114.8z" class="st5"></path>
		<path d="M201.1,172.5c3.1-1.7,6.2-3.2,9.5-4.6c3.2-1.4,6.5-2.7,9.8-3.8c-3.1,1.7-6.2,3.2-9.5,4.6
			C207.7,170.1,204.5,171.5,201.1,172.5z" class="st5"></path>
		<path d="M197.9,164.4c3.3-0.9,6.6-1.6,9.9-2.2c3.3-0.6,6.7-1,10.1-1.2c-3.3,0.9-6.6,1.6-9.9,2.2
			C204.6,163.7,201.3,164.2,197.9,164.4z" class="st5"></path>
		<path d="M198.5,153.6c3.4,0.6,6.6,1.5,9.9,2.4c3.2,1,6.5,2,9.6,3.3c-3.4-0.6-6.6-1.5-9.9-2.4
			C204.9,155.9,201.7,154.9,198.5,153.6z" class="st5"></path>
		<path d="M316.1,67.4c0,0-2.4,0.3-3.2-0.1c-0.8-0.4,2.9-1.2,2.9-1.2c-2-0.4-3.9-2.3-3.3-2.5c0.6-0.2,3.1,1,3.1,1
			c-2.9-2.8-2.2-8.1,0.3-8.2c1.1-0.1,2.7,2.1,4.2,4.5c0,9.1,6.5,14.6,7.6,15.2c-4.6-2.8-9.9-4.4-14.1-5.3
			C314,68.9,316.1,67.4,316.1,67.4z" class="st9"></path>
		<path d="M223.3,81.4c0-2.1,1.5-5.2,1.7-5.5c-0.1,0.1-1.7,1.1-2.6,0.9c-0.9-0.3,1.7-2,1.7-2s-2.2,0.6-2.5,0
			c-0.3-0.6,1.9-0.9,1.9-0.9c-1.8-0.6-5.4-4.4-3.7-5.9c1.1-1,3.1,0,4.3,0.9c2.2,3.8,4.9,6.7,10.7,7.6
			C234.9,76.5,228.5,79.1,223.3,81.4z" class="st9"></path>
		<g>
			<path d="M246.7,144.7c-3.1,1.1-5.9,3.4-7.3,6.6c-2.1,4.7-2,10.3,1.8,13.9c2.4,2.2,5.4,3.3,8.5,3.7
				c5.8,0.9,11.6,1.4,17.2-0.8c2-0.8,4-2,5.5-3.7c2.3-2.6,3.5-6.5,3.1-10.2c-0.4-3.7-2.5-7.2-5.4-9.1c-3.5-2.3-8.5-2.6-12.5-2.1
				C254.1,143.5,250,143.6,246.7,144.7z" class="st8"></path>
			<path d="M254.3,139.1c0,0-3.7-3.7-5.3-2.7c-1.6,0.9,4,6.5,6,6.8c1.9,0.4,5.3-6.6,4.2-7.7
				C258,134.3,254.3,139.1,254.3,139.1z" class="st5"></path>
			<path d="M263.4,165c-0.8-1.8-1.6-3.7-2.4-5.5l-2.3-5.6c-0.8-1.9-1.4-3.7-2.1-5.6c-0.7-1.9-1.4-3.8-1.9-5.7l0.9,0
				c-0.6,3.8-1,7.7-1.4,11.5c-0.2,1.9-0.4,3.9-0.5,5.8c-0.2,1.9-0.2,3.9-0.3,5.8c-0.2-1.9-0.2-3.9-0.2-5.8c0-1.9,0.1-3.9,0.3-5.8
				c0.1-1.9,0.3-3.9,0.5-5.8c0.2-1.9,0.4-3.9,0.7-5.8l0.3-2.3l0.6,2.3c0.5,1.9,1.2,3.8,1.8,5.7l2,5.6l2,5.7L263.4,165z" class="st5"></path>
		</g>
		<path d="M312.3,161.7c3.5-0.3,7-0.3,10.5-0.2c3.5,0.1,7,0.3,10.5,0.8c-3.5,0.3-7,0.3-10.5,0.2
			C319.3,162.4,315.8,162.2,312.3,161.7z" class="st5"></path>
		<path d="M332.7,154.1c-3.2,1.1-6.5,1.9-9.8,2.6c-3.3,0.7-6.6,1.3-10,1.7c3.2-1.1,6.5-1.9,9.8-2.6
			C326,155,329.3,154.4,332.7,154.1z" class="st5"></path>
		<path d="M326.7,144.5c-2.4,2.4-5,4.6-7.7,6.7c-2.7,2.1-5.4,4.1-8.3,5.9c2.4-2.4,5-4.6,7.7-6.7
			C321.1,148.3,323.8,146.3,326.7,144.5z" class="st5"></path>
		<path d="M353.8,95.1c-0.3,0.1-0.6,0.2-0.9,0.3c-5.1,1.8-11,2.7-16,0.5c-0.8-0.3-1.5-0.7-2-1.4
			c-0.9-1.3-0.4-3.1,0.7-4.2c1.1-1.1,2.6-1.7,4-2.2c2.4-0.9,4.7-1.6,7.1-2.5c0.5,0.4,0.9,0.9,1.3,1.3
			C350.4,89.3,352.3,92.1,353.8,95.1z" class="st5"></path>
		<path d="M360.5,127.2c-0.2,3.5-0.7,6.9-1.7,10.2c-0.3,1.1-0.7,2.3-1.1,3.4c-3.1,0.6-6.3,0.4-9.3-0.5
			c-1.1-0.3-2.2-0.8-2.8-1.7c-0.4-0.6-0.5-1.2-0.5-1.9c-0.1-2.3,1.7-4.3,3.7-5.3c2-1.1,4.3-1.5,6.5-2.1
			C357.1,128.7,358.9,128,360.5,127.2z" class="st5"></path>
		<path d="M288.3,108.1c-0.1,0-0.2,0.1-0.3,0.1c-0.4,0.1-0.7,0.3-1,0.6c-0.4,0.5-0.4,1.3-0.2,1.9c0.4,1,1.5,2.1,2.5,2.6
			c2.8,1.7,6.2,2.6,9.4,2.7c1,0,2-0.2,2.8-0.9c3.6-3.5-1.4-6.4-4.6-7.1C294.2,107.4,291,107.3,288.3,108.1z" class="st5"></path>
		<path d="M225.1,117.2c0.1-0.1,0.1-0.2,0.2-0.3c0.2-0.3,0.4-0.7,0.4-1.1c0-0.7-0.4-1.3-1-1.6c-1-0.6-2.5-0.7-3.6-0.6
			c-3.2,0.4-6.4,1.7-9.1,3.7c-0.8,0.6-1.5,1.4-1.6,2.4c-0.7,4.9,5.1,4.2,8,2.8C220.8,121.4,223.5,119.5,225.1,117.2z" class="st5"></path>
		<path d="M289.4,162.9c0,0,12.6-8.2,26.7-7.1" class="st8"></path>
		<path d="M233.5,162.7c0,0-5.1-7-24.3-6.7" class="st8"></path>
		<path d="M267.2,216.3c0,0-30.1-35.6-72-6l44.6,13.8C239.8,224.1,245.9,211,267.2,216.3z" class="st6"></path>
		<path d="M124.7,290.7c-1.6,0-3.1-0.9-3.9-2.4c-1.1-2.1-0.3-4.8,1.9-5.9l199-103.8c2.1-1.1,4.8-0.3,5.9,1.9
			c1.1,2.1,0.3,4.8-1.9,5.9l-199,103.8C126.1,290.5,125.4,290.7,124.7,290.7z" class="st11"></path>
		<g>
			<path d="M337.5,250.8C337.5,250.8,337.5,250.8,337.5,250.8c-1.8,1.6-3.5,2.9-5.2,4.2c-3.1,2.2-6.4,3.9-9.7,5.3
				c-1.2,0.5-2.5,1-3.8,1.4c-4.6,1.5-9.3,2.3-13.9,2.7c-1.7,0.1-3.4,0.2-5.1,0.1c-1.7,0-3.3-0.1-5-0.2c-2.3-0.2-4.6-0.5-6.8-0.8
				c-1.5-0.2-3.1-0.6-4.6-0.9c-6.3-1.3-11.9-3.2-16.2-4.9c-2.6-1-4.7-2-6.4-2.7c-0.2-0.1-0.5-0.2-0.7-0.3c-0.3-0.1-0.6-0.3-0.8-0.4
				c-0.6-0.3-1.2-0.6-1.8-0.9c-0.1,0-0.2-0.1-0.2-0.1c0,0,0,0,0,0c0,0-0.1,0.1-0.2,0.1c0,0-0.1,0.1-0.1,0.1
				c-2,1.8-12.9,10.4-22.4,4.8c-10.5-6.2,0.9-34.9,15.3-41.4c0.1,0,0.1-0.1,0.2-0.1c14.1-6.2,32.2,6.3,33.1,6.9c0,0,0,0,0,0l10.5-8
				C293.8,215.6,369.7,221.8,337.5,250.8z" class="st2"></path>
			<path d="M347.7,241.1c-2.8,3.7-6.3,7-10,9.9l0.1-0.2c0,0.2-0.1,0.3-0.2,0.3l-0.1,0c0,0,0,0,0.1,0l0,0
				c-2.9,2-5.7,4.2-8.9,5.9c-3.1,1.8-6.4,3.2-9.7,4.4c-6.7,2.5-13.9,3.6-21,3.7c-3.6,0.1-7.1-0.3-10.7-0.7
				c-3.5-0.6-7.1-1.2-10.5-2.3c-3.4-1-6.8-2.2-10.1-3.5c-3.2-1.5-6.5-2.8-9.7-4.5l0.1,0l-0.3-0.1l1.2-0.2c-0.1,0.1-0.1,0.1-0.2,0.2
				l-0.3,0.2c0.1,0,0.1,0,0.1-0.1l-0.1,0.1c-5.1,4-11.5,6.5-18.1,6c-1.7-0.1-3.2-0.6-4.8-0.9c-1.7-0.4-3.3-1.6-4.3-3.1
				c-1.9-3.1-1.9-6.6-1.6-9.7c0.8-6.4,3.2-12.5,6.6-17.8c1.7-2.7,3.7-5.2,6.1-7.4c2.3-2.2,5.1-4,8.2-5.1l-0.2,0.1
				c0.4-0.2,0.5-0.2,0.7-0.2l0.6-0.1l1.1-0.3c0.7-0.2,1.5-0.3,2.2-0.4c1.5-0.2,3-0.2,4.4-0.1c3,0.1,5.9,0.6,8.7,1.4
				c5.7,1.5,11,4,16,7l0,0c0,0-0.1,0-0.1,0l0.1,0c2.3,1.4,4.5,2.9,6.6,4.6c-2.2-1.6-4.4-2.9-6.8-4.2l0.1,0c-0.1,0-0.1,0-0.2-0.1l0,0
				c-5.1-2.8-10.5-5.1-16.1-6.4c-2.8-0.6-5.7-1.1-8.5-1.1c-1.4,0-2.9,0-4.3,0.2c-0.7,0.1-1.4,0.2-2.1,0.4l-1.9,0.5l-0.2,0.1
				c-5.6,2.2-10,6.9-13.2,12.1c-3.2,5.2-5.5,11-6.2,17.1c-0.2,2.9-0.1,6.1,1.4,8.4c0.8,1.1,1.8,1.9,3.1,2.2c1.5,0.3,2.9,0.8,4.4,0.8
				c5.9,0.4,11.9-1.9,16.7-5.5l-0.1,0.1c0.1-0.1,0.3-0.2,0.4-0.3l-0.3,0.2c0.1-0.1,0.1-0.1,0.2-0.2l0.6-0.5l0.6,0.3l0.1,0.1l0.1,0
				c3.1,1.7,6.3,3,9.5,4.5c3.2,1.3,6.5,2.5,9.9,3.5c3.3,1,6.8,1.7,10.2,2.3c1.7,0.3,3.5,0.4,5.2,0.5c1.7,0.2,3.5,0.3,5.2,0.3
				c7,0,14-0.9,20.6-3.1c3.3-1.1,6.6-2.4,9.7-4.1c3.2-1.5,6-3.6,9-5.5l0,0c0.1-0.1,0.1-0.1,0.1-0.1c0,0,0,0,0,0c0,0-0.1,0.1-0.1,0.2
				l0.1-0.2C341.1,247.8,344.6,244.7,347.7,241.1z" class="st7"></path>
			<path d="M238.3,258.9c-0.7-1.3-1-2.8-1.2-4.2c-0.2-1.5-0.1-2.9,0.2-4.4c0.3-1.5,0.8-2.9,1.5-4.2
				c0.7-1.3,1.7-2.4,2.9-3.3c-0.5,1.4-1,2.7-1.3,4c-0.4,1.3-0.7,2.6-0.9,3.9C239,253.4,238.7,256,238.3,258.9z" class="st5"></path>
		</g>
		<g>
			<path d="M176.2,265.6c-0.3,0.4-0.7,0.8-1.1,1.2c-3.6,3.7-8.2,5.3-12.6,4.5c-11.5-2.1-14.7-20.2-14.7-20.2
				c-7.2-0.1-13.9-2.4-19.3-6.1c-4.7-3.3-8.4-7.6-10.5-12.6c-2.8-6.4-3.1-13.7,0.3-20.8c2.8-6,7.6-11.6,12.9-16.5
				c0.8-0.8,1.7-1.6,2.6-2.3c0,0,0,0,0.1,0c0.1-0.1,0.1-0.1,0.2-0.2h0c4.8-4.2,9.8-7.7,13.9-10.4c5.1-3.3,8.9-5.4,9.3-5.6
				c0,0,0,0,0,0l0.2,33.6v1.4c0,0,5.4,0.3,11.2,5.1c3.3,2.7,6.7,6.8,9.4,13c0.8,1.8,1.5,3.8,2.1,6
				C184,248.9,181.4,259.4,176.2,265.6z" class="st2"></path>
			<path d="M162.5,271.3c0.6-3.3,1.2-6.4,1.7-9.6c0.3-1.6,0.3-3.1,0.5-4.7c0.1-1.6,0.1-3.2,0.1-4.9
				c1.7,3,2.1,6.6,1.6,9.9c-0.3,1.7-0.7,3.3-1.3,4.9C164.4,268.5,163.6,270,162.5,271.3z" class="st5"></path>
			<path d="M175.2,250.9c1.8,2.3,2.7,5.1,3.1,8c0.1,1.4,0.1,3-0.3,4.4c-0.4,1.4-1.3,3-2.8,3.4c0.9-1.2,1-2.5,1.1-3.7
				c0-1.3,0-2.6-0.2-3.9C175.8,256.5,175.3,253.8,175.2,250.9z" class="st5"></path>
			<path d="M133.1,213.3c2.8-1.6,5.8-2.8,8.9-3.7c3.1-0.8,6.4-1.3,9.7-1.3c3.3,0.1,6.6,0.7,9.6,2.1
				c3,1.4,5.5,3.6,7.4,6.2c-2.5-2-5.1-3.6-8-4.7c-2.9-0.9-5.9-1.4-9-1.4c-3.1-0.1-6.2,0.3-9.3,0.7
				C139.2,211.8,136.1,212.4,133.1,213.3z" class="st7"></path>
		</g>
		<g>
			<path d="M206.6,240.4c0,0,28.8-18.3,34.1-33.5c0,0-7.2-0.5-19.8,10.9c0,0,7.8-14.1,3.8-27.6
				C224.7,190.3,207.2,208.2,206.6,240.4z" class="st1"></path>
			<path d="M203.6,241.8c0,0,11.9-3.3,14-15.1c0,0,2.2-31.8-18.2-42.4c0,0-13.4,17.3-1.7,38.5c0,0-10.1-8.3-28.1-0.6
				C169.6,222.3,172.2,240.5,203.6,241.8z" class="st0"></path>
		</g>
		<path d="M15.5,287.3c0-1.6,0.8-3.2,1.9-4.4c1.1-1.3,2.7-2.1,4.2-2.6c1.6-0.5,3.3-0.5,4.8-0.4c0.8,0.1,1.6,0.3,2.3,0.5
			c0.7,0.3,1.5,0.5,2.2,0.9c-0.8,0.1-1.6,0.1-2.3,0.2c-0.8,0.1-1.5,0.1-2.2,0.2c-1.4,0.2-2.9,0.3-4.2,0.8
			C19.6,283.2,17.3,284.7,15.5,287.3z" class="st5"></path>
		<path d="M299.9,264.2c0,0.1,0,0.1,0,0.2c-1.7,0-3.3-0.1-5-0.2c-2.2-0.1-4.5-0.3-6.8-0.6c-1.5-0.2-3-0.5-4.5-0.8
			c0,0,0,0,0,0c0-0.1,0-0.2,0-0.2c-0.8-5.2-1.1-10.6-0.8-15.9c0.2-3,0.6-6.2,2.8-8.2c0.4-0.4,0.9-0.7,1.4-0.9
			c1.3-0.3,2.5,0.7,3.4,1.7C295.9,245.2,301.2,255.6,299.9,264.2z" class="st5"></path>
		<path d="M332.3,255c-3.1,2.2-6.4,3.9-9.7,5.3c-1.2,0.5-2.5,1-3.8,1.4c-0.1-0.1-0.1-0.1-0.2-0.2
			c-0.1-0.1-0.2-0.3-0.3-0.4c-3.3-4.3-5.2-9.5-6.3-14.8c-0.5-2.4-0.7-5.4,1.3-6.9c1.9-1.4,4.6-0.7,6.7,0.5c6,3.3,9,9.1,12.1,14.9
			C332.1,254.7,332.2,254.9,332.3,255z" class="st5"></path>
		<path d="M140.9,233.8c0,2-1.2,3.8-2.6,5.2c-2.2,2.1-4.9,3.5-7.6,4.8c-0.7,0.4-1.5,0.8-2.2,1.2
			c-4.7-3.3-8.4-7.6-10.5-12.6c0,0,0.1-0.1,0.1-0.1c3.8-2.9,8.5-4.6,13.3-4.8c2.1-0.1,4.3,0.2,6.2,1.2
			C139.4,229.7,140.9,231.6,140.9,233.8z" class="st5"></path>
		<path d="M154,189.7c-0.3,1.6-1.6,2.8-3.1,3.5c-2.7,1.3-5.8,1.3-8.8,0.9c-2-0.3-5.2-0.7-8.2-1.6h0
			c4.8-4.2,9.8-7.7,13.9-10.4c0.1,0,0.2,0.1,0.2,0.1c1.3,0.7,2.5,1.5,3.6,2.6C153.1,186.1,154.3,187.9,154,189.7z" class="st5"></path>
		<path d="M183.6,174.9c-6.6,5.2-14.7,1.7-21.4-1.3c6.3-3.5,13.1-6.7,20.1-9c1.6,1.2,2.8,2.7,3.3,4.7
			C186.3,171.7,185.3,173.6,183.6,174.9z" class="st5"></path>
		<path d="M335.7,195.1c0,0,32.8,20.5,35.1,40.4c2.3,19.9-21.3,46.4-3.1,58.1c18.2,11.6,46.3,11.9,78.9-42.1
			c32.7-54.1,6.5-122.4,6.5-122.4s-24.8-25.6-75.3-6.6C327.2,141.4,306.8,174.9,335.7,195.1z" class="st12"></path>
		<path d="M357.1,205c-1.3,0-2.5,0-3.7-0.1c-16.6-0.8-28.3-6.8-32.8-17.1c-4.5-10.2-1.2-22.9,9.4-35.8
			c9.9-12,25.2-23,43.1-30.9c38.5-17,75.6-14.4,84.6,6l0,0c9,20.4-14.1,49.6-52.5,66.6C388.8,201.1,371.9,205,357.1,205z
			 M421.5,118.7c-13.1,0-29,3.5-44.8,10.5c-16.6,7.4-30.8,17.5-39.9,28.4c-8.3,10-11.2,19.7-8.2,26.6c3.1,6.9,12.3,11.3,25.2,11.9
			c14.2,0.7,31.2-3,47.9-10.4c32.8-14.5,54.8-39.8,48.1-55.1l0,0C446.2,122.7,435.5,118.7,421.5,118.7z" class="st11"></path>
		<path d="M80.9,250.1c-0.3,0-0.6-0.1-0.9-0.4c-0.8-1-1.7-2.1-2.7-3.5c-0.4-0.5-0.3-1.2,0.2-1.5
			c0.5-0.4,1.2-0.3,1.5,0.2c1,1.3,1.9,2.5,2.7,3.5c0.4,0.5,0.3,1.2-0.2,1.5C81.4,250,81.2,250.1,80.9,250.1z M75.6,243.1
			c-0.3,0-0.7-0.2-0.9-0.4c-0.8-1.1-1.7-2.3-2.6-3.6c-0.3-0.5-0.2-1.2,0.3-1.5c0.5-0.3,1.2-0.2,1.5,0.3c0.9,1.3,1.7,2.4,2.6,3.5
			c0.4,0.5,0.3,1.2-0.2,1.5C76.1,243,75.8,243.1,75.6,243.1z M70.5,235.9c-0.3,0-0.7-0.2-0.9-0.5c-0.8-1.2-1.6-2.4-2.5-3.7
			c-0.3-0.5-0.2-1.2,0.3-1.5c0.5-0.3,1.2-0.2,1.5,0.3c0.8,1.2,1.6,2.5,2.4,3.6c0.3,0.5,0.2,1.2-0.3,1.5
			C71,235.9,70.8,235.9,70.5,235.9z M65.7,228.6c-0.4,0-0.7-0.2-0.9-0.5c-0.8-1.2-1.5-2.5-2.3-3.8c-0.3-0.5-0.1-1.2,0.4-1.5
			c0.5-0.3,1.2-0.1,1.5,0.4c0.8,1.3,1.5,2.5,2.3,3.7c0.3,0.5,0.2,1.2-0.3,1.5C66.1,228.5,65.9,228.6,65.7,228.6z M61.2,221.1
			c-0.4,0-0.7-0.2-0.9-0.6c-0.7-1.3-1.4-2.6-2.1-3.9c-0.3-0.5-0.1-1.2,0.4-1.5c0.5-0.3,1.2-0.1,1.5,0.4c0.7,1.3,1.4,2.6,2.1,3.8
			c0.3,0.5,0.1,1.2-0.4,1.5C61.6,221,61.4,221.1,61.2,221.1z M186.4,213.4c-0.2,0-0.4-0.1-0.6-0.2c0,0-1.3-0.9-3.6-2.5
			c-0.5-0.3-0.6-1-0.3-1.5c0.3-0.5,1-0.6,1.5-0.3c2.4,1.6,3.7,2.5,3.7,2.5c0.5,0.3,0.6,1,0.3,1.5
			C187.1,213.2,186.7,213.4,186.4,213.4z M57,213.3c-0.4,0-0.8-0.2-1-0.6c-0.7-1.3-1.3-2.6-1.9-4c-0.3-0.5,0-1.2,0.5-1.5
			c0.5-0.3,1.2,0,1.5,0.5c0.6,1.3,1.2,2.6,1.9,3.9c0.3,0.5,0.1,1.2-0.5,1.5C57.4,213.3,57.2,213.3,57,213.3z M179.1,208.4
			c-0.2,0-0.4-0.1-0.6-0.2c-1.1-0.7-2.3-1.6-3.7-2.4c-0.5-0.3-0.6-1-0.3-1.5c0.3-0.5,1-0.6,1.5-0.3c1.3,0.9,2.6,1.7,3.7,2.4
			c0.5,0.3,0.6,1,0.3,1.5C179.8,208.2,179.4,208.4,179.1,208.4z M53.4,205.4c-0.4,0-0.8-0.3-1-0.7c-0.6-1.4-1.1-2.8-1.6-4.1
			c-0.2-0.6,0.1-1.2,0.7-1.4c0.6-0.2,1.2,0.1,1.4,0.7c0.5,1.3,1,2.7,1.6,4c0.2,0.6,0,1.2-0.6,1.4C53.6,205.3,53.5,205.4,53.4,205.4z
			 M171.7,203.6c-0.2,0-0.4-0.1-0.6-0.2c-1.2-0.8-2.4-1.5-3.7-2.4c-0.5-0.3-0.7-1-0.3-1.5c0.3-0.5,1-0.7,1.5-0.3
			c1.3,0.8,2.5,1.6,3.7,2.4c0.5,0.3,0.7,1,0.3,1.5C172.5,203.4,172.1,203.6,171.7,203.6z M164.3,198.9c-0.2,0-0.4-0.1-0.6-0.2
			c-1.2-0.8-2.4-1.5-3.7-2.3c-0.5-0.3-0.7-1-0.4-1.5c0.3-0.5,1-0.7,1.5-0.4c1.3,0.8,2.5,1.6,3.7,2.3c0.5,0.3,0.7,1,0.3,1.5
			C165,198.7,164.7,198.9,164.3,198.9z M50.3,197.1c-0.5,0-0.9-0.3-1-0.8c-0.4-1.4-0.8-2.9-1.2-4.3c-0.1-0.6,0.2-1.2,0.8-1.3
			c0.6-0.1,1.2,0.2,1.3,0.8c0.3,1.4,0.7,2.8,1.1,4.2c0.2,0.6-0.1,1.2-0.7,1.4C50.6,197.1,50.5,197.1,50.3,197.1z M156.8,194.3
			c-0.2,0-0.4-0.1-0.6-0.2c-1.2-0.7-2.5-1.5-3.8-2.2c-0.5-0.3-0.7-1-0.4-1.5c0.3-0.5,1-0.7,1.5-0.4c1.3,0.8,2.5,1.5,3.8,2.3
			c0.5,0.3,0.7,1,0.4,1.5C157.6,194.1,157.2,194.3,156.8,194.3z M149.3,189.8c-0.2,0-0.4,0-0.5-0.1c-1.2-0.7-2.5-1.5-3.8-2.2
			c-0.5-0.3-0.7-1-0.4-1.5c0.3-0.5,1-0.7,1.5-0.4c1.3,0.7,2.6,1.5,3.8,2.2c0.5,0.3,0.7,1,0.4,1.5C150,189.6,149.7,189.8,149.3,189.8
			z M48.3,188.6c-0.5,0-1-0.4-1.1-0.9c-0.2-1.5-0.4-3-0.5-4.5c0-0.6,0.4-1.1,1-1.1c0.6,0,1.1,0.4,1.1,1c0.1,1.3,0.2,2.8,0.4,4.2
			c0.1,0.6-0.3,1.2-0.9,1.2C48.4,188.6,48.4,188.6,48.3,188.6z M141.7,185.5c-0.2,0-0.4,0-0.5-0.1c-1.3-0.7-2.5-1.4-3.8-2.1
			c-0.5-0.3-0.7-1-0.4-1.5c0.3-0.5,1-0.7,1.5-0.4c1.3,0.7,2.6,1.4,3.9,2.1c0.5,0.3,0.7,1,0.4,1.5C142.4,185.3,142,185.5,141.7,185.5
			z M133.9,181.3c-0.2,0-0.3,0-0.5-0.1c-1.3-0.7-2.6-1.3-3.9-2c-0.5-0.3-0.8-0.9-0.5-1.5c0.3-0.5,0.9-0.7,1.5-0.5
			c1.3,0.7,2.6,1.3,3.9,2c0.5,0.3,0.7,0.9,0.5,1.5C134.7,181.1,134.3,181.3,133.9,181.3z M48,179.9C47.9,179.9,47.9,179.9,48,179.9
			c-0.7-0.1-1.1-0.6-1.1-1.2c0.1-1.6,0.4-3.1,0.8-4.5c0.2-0.6,0.7-0.9,1.3-0.8c0.6,0.2,0.9,0.8,0.8,1.3c-0.3,1.3-0.6,2.7-0.7,4.1
			C49,179.4,48.5,179.9,48,179.9z M126.1,177.3c-0.2,0-0.3,0-0.5-0.1c-1.3-0.7-2.6-1.3-3.9-1.9c-0.5-0.3-0.8-0.9-0.5-1.5
			c0.3-0.5,0.9-0.8,1.5-0.5c1.3,0.6,2.7,1.3,4,1.9c0.5,0.3,0.8,0.9,0.5,1.5C126.9,177.1,126.5,177.3,126.1,177.3z M118.2,173.5
			c-0.2,0-0.3,0-0.5-0.1c-1.3-0.6-2.7-1.2-4-1.8c-0.6-0.2-0.8-0.9-0.6-1.4c0.2-0.6,0.9-0.8,1.4-0.6c1.3,0.6,2.7,1.2,4,1.8
			c0.5,0.3,0.8,0.9,0.5,1.5C119,173.3,118.6,173.5,118.2,173.5z M50.2,171.5c-0.2,0-0.3,0-0.5-0.1c-0.5-0.3-0.8-0.9-0.5-1.5
			c0.7-1.4,1.5-2.7,2.5-3.9c0.4-0.5,1.1-0.5,1.5-0.1c0.5,0.4,0.5,1.1,0.1,1.5c-0.9,1.1-1.6,2.2-2.2,3.5
			C51,171.2,50.6,171.5,50.2,171.5z M110.2,170c-0.1,0-0.3,0-0.4-0.1c-1.4-0.6-2.7-1.1-4-1.6c-0.6-0.2-0.8-0.9-0.6-1.4
			c0.2-0.6,0.9-0.8,1.4-0.6c1.4,0.5,2.7,1.1,4.1,1.7c0.6,0.2,0.8,0.9,0.6,1.4C111,169.7,110.6,170,110.2,170z M102,166.7
			c-0.1,0-0.3,0-0.4-0.1c-1.4-0.5-2.8-1-4.1-1.5c-0.6-0.2-0.9-0.8-0.7-1.4c0.2-0.6,0.8-0.9,1.4-0.7c1.4,0.5,2.8,1,4.2,1.5
			c0.6,0.2,0.9,0.8,0.6,1.4C102.9,166.5,102.5,166.7,102,166.7z M55.7,164.7c-0.3,0-0.6-0.1-0.9-0.4c-0.4-0.5-0.3-1.2,0.2-1.5
			c0.3-0.3,0.7-0.5,1-0.8c0.9-0.6,1.9-1.2,2.9-1.7c0.5-0.3,1.2,0,1.5,0.5c0.3,0.5,0,1.2-0.5,1.5c-0.9,0.4-1.8,0.9-2.6,1.5
			c-0.3,0.2-0.6,0.5-0.9,0.7C56.2,164.7,55.9,164.7,55.7,164.7z M93.7,163.9c-0.1,0-0.2,0-0.3,0c-1.4-0.4-2.8-0.8-4.2-1.2
			c-0.6-0.2-0.9-0.8-0.8-1.3c0.2-0.6,0.7-0.9,1.3-0.8c1.4,0.4,2.8,0.8,4.3,1.2c0.6,0.2,0.9,0.8,0.7,1.4
			C94.6,163.6,94.2,163.9,93.7,163.9z M85.2,161.7c-0.1,0-0.2,0-0.2,0c-1.4-0.3-2.9-0.6-4.2-0.8c-0.6-0.1-1-0.7-0.9-1.3
			c0.1-0.6,0.6-1,1.3-0.9c1.4,0.2,2.9,0.5,4.4,0.8c0.6,0.1,1,0.7,0.8,1.3C86.2,161.3,85.7,161.7,85.2,161.7z M63.5,161
			c-0.5,0-0.9-0.3-1.1-0.8c-0.1-0.6,0.2-1.2,0.8-1.3c1.4-0.4,2.9-0.6,4.5-0.8c0.6-0.1,1.1,0.4,1.2,1c0.1,0.6-0.4,1.1-1,1.2
			c-1.5,0.1-2.9,0.4-4.2,0.7C63.7,160.9,63.6,161,63.5,161z M76.6,160.3c0,0-0.1,0-0.1,0c-1.5-0.1-2.9-0.2-4.3-0.2
			c-0.6,0-1.1-0.5-1.1-1.1c0-0.6,0.5-1.1,1.1-1.1c0,0,0,0,0,0c1.4,0,2.9,0.1,4.5,0.3c0.6,0.1,1,0.6,1,1.2
			C77.6,159.9,77.2,160.3,76.6,160.3z" class="st5"></path>
		<g>
			<path d="M128.9,108.4c0-0.6-7.6-13.6,0-26.1c0,0,10.9,9.5,10.7,25.3c0,0,8.8-5.3,15.4,4.8c0,0-5.8,5.7-13.7,4.7
				C133.4,116,128.9,108.4,128.9,108.4z" class="st11"></path>
			<path d="M129.2,107.5c-0.6,0.1-14.6-5-25.2,5c0,0,11.3,9.1,26.4,5.8c0,0-3.4,9.8,7.6,14.4c0,0,3.7-6.4,1.1-14.1
				C136.6,111,129.2,107.5,129.2,107.5z" class="st11"></path>
		</g>
		<path d="M128.5,107.3c0,0,1.9,6.8,9.7,8.9C138.1,116.3,135.1,109.4,128.5,107.3z" class="st5"></path>
		<path d="M176,134.4c-0.6,0-1.1-0.5-1.1-1c0-0.6,0.4-1.1,1-1.1c1.4-0.1,2.8-0.2,4.3-0.4c0.6-0.1,1.2,0.3,1.2,0.9
			c0.1,0.6-0.3,1.2-0.9,1.2C179,134.2,177.5,134.4,176,134.4C176,134.4,176,134.4,176,134.4z M171.6,134.4
			C171.6,134.4,171.6,134.4,171.6,134.4c-1.6-0.1-3.1-0.2-4.5-0.5c-0.6-0.1-1-0.7-0.9-1.3c0.1-0.6,0.7-1,1.3-0.9
			c1.4,0.2,2.8,0.4,4.2,0.5c0.6,0,1.1,0.6,1,1.2C172.7,134,172.2,134.4,171.6,134.4z M184.7,133.2c-0.5,0-0.9-0.3-1.1-0.8
			c-0.1-0.6,0.2-1.2,0.8-1.3c1.4-0.3,2.7-0.7,4.1-1.2c0.6-0.2,1.2,0.1,1.4,0.7c0.2,0.6-0.1,1.2-0.7,1.4c-1.4,0.5-2.9,0.9-4.3,1.2
			C184.8,133.2,184.7,133.2,184.7,133.2z M163,133c-0.1,0-0.2,0-0.3,0c-1.4-0.4-2.9-0.8-4.3-1.4c-0.6-0.2-0.9-0.8-0.6-1.4
			c0.2-0.6,0.8-0.9,1.4-0.6c1.3,0.5,2.7,0.9,4.1,1.3c0.6,0.2,0.9,0.8,0.8,1.3C163.9,132.7,163.5,133,163,133z M154.8,130
			c-0.2,0-0.3,0-0.5-0.1c-1.3-0.7-2.7-1.4-3.9-2.2c-0.5-0.3-0.7-1-0.4-1.5c0.3-0.5,1-0.7,1.5-0.4c1.2,0.7,2.5,1.4,3.7,2.1
			c0.5,0.3,0.8,0.9,0.5,1.5C155.6,129.7,155.2,130,154.8,130z M147.3,125.4c-0.2,0-0.5-0.1-0.7-0.2c-2.2-1.7-3.4-2.9-3.5-3
			c-0.4-0.4-0.4-1.1,0-1.5c0.4-0.4,1.1-0.4,1.5,0c0,0,1.1,1.2,3.2,2.7c0.5,0.4,0.6,1.1,0.2,1.5C148,125.2,147.7,125.4,147.3,125.4z" class="st5"></path>
	</g>
</g>
</svg>
