<svg xml:space="preserve" style="enable-background:new 0 0 500 500;" viewBox="0 0 500 500" y="0px" x="0px"
     xmlns="http://www.w3.org/2000/svg" id="图层_1" version="1.0">
<style type="text/css">
	.st0{fill:#FC903E;}
	.st1{fill:#A0312F;}
	.st2{fill:#5ED5B5;}
	.st3{opacity:0.2;fill:#A0312F;}
	.st4{fill:#FCBC86;}
	.st5{opacity:0.48;fill:#FB5555;}
	.st6{fill:#FFFFFF;}
	.st7{opacity:0.21;fill:#A0312F;}
	.st8{opacity:0.48;fill:#A0312F;}
	.st9{fill:#FB5555;}
	.st10{fill:#90E5DC;}
</style>
<g>
	<path d="M391.7,353.5c-0.1,2.1-0.3,4-0.6,5.7c-0.1,0.4-0.2,0.9-0.3,1.3c-0.1,0.6-0.3,1.2-0.4,1.9
		c-6.1,23.7-31,43.9-59.6,51.6c-1.4,0.4-2.7,0.7-4.1,1c-11.2,2.5-22.8,3.1-33.9,1.1c-42.4-7.5-91.9-36.2-83.8-136.2
		c0.4-5,0.7-9.7,1-14.2c2.1-31.8,1.6-49.9,0.2-60.2c-6.3-1.5-10.1-2.7-10.1-2.7c-7.5-5.4-10.9-13.7-10.9-14
		c-2.2-4.9-4.3-11.6-4.5-19.8c0-0.7,0-1.4,0-2.2c0-1.6,0.1-3.3,0.3-5c0-0.1,0-0.1,0-0.2c0.1-1.3,0.3-2.7,0.6-4.2
		c0-0.3,0.1-0.6,0.2-0.9c0.1-0.3,0.1-0.6,0.2-0.9c0.6-2.7,1.3-5.4,2.1-8c0.2-0.6,0.3-1,0.5-1.6c0.4-1.1,0.8-2.2,1.3-3.3
		c0-0.1,0.1-0.2,0.1-0.3c1-2.2,2-4.3,3.3-6.4c0.3-0.5,0.6-1,0.9-1.5c4.8-7.2,11.9-13.4,22.5-17.5c-0.1-0.1-0.1-0.2-0.1-0.4
		c-2-5.7-2-15.1-0.2-20.2c0.5-1.4,1.1-2.5,1.9-3.1c0.3-0.2,0.6-0.4,1-0.4c5.7-1.1,10.4,2,13.5,6.3c2.1,3,3.6,6.6,6,9.4
		c0.2,0.2,1.8,2,3,3.3l0.3,0.3c0.4,0,0.7,0,1,0c1.8,0,3.7-0.1,5.6-0.1c0.9,0,1.7,0,2.6,0.1c0.2,0,0.5,0,0.7,0c0.3,0,0.6,0,0.9,0
		c0.7,0,1.3,0.1,2,0.1c0.4,0,0.7,0,1,0c6.4,0.3,12.4,0.8,18.1,1.5l0.6,0.1c0.8,0.1,1.5,0.2,2.3,0.3c0.6,0.1,1.2,0.2,1.8,0.2l0,0
		c0.7,0.1,1.4,0.2,2.1,0.3c2.9,0.5,5.7,1,8.5,1.6c0.4,0.1,0.7,0.1,1,0.2c0.5,0.1,0.9,0.2,1.4,0.3c1.8,0.4,3.6,0.9,5.3,1.4
		c0,0,0,0,0,0c1.9-9.8,11-18.5,15-18.3h0c4.4,0.3,6.2,9.9,8.9,17.4c2.7,7.4,11.4,22.7,11.7,23.2h0c2,3.2,3.5,6.6,4.4,10.3
		c0.1,0.4,0.1,0.7,0.2,1c0.1,0.6,0.2,1.1,0.3,1.7c0.1,0.3,0.1,0.7,0.2,1c0.7,4.4,1.1,8.8,1,13v0.1c0,0.7,0,1.4-0.1,2.1
		c-0.1,1.4-0.2,2.8-0.4,4.2c-0.6,4.4-1.8,8.7-3.5,12.6l15.1-0.7c0,0,17.9,51.6,30.3,99.8c1.1,4.3,2.2,8.6,3.2,12.8
		c1.3,5.5,2.5,10.8,3.6,16c0.9,4.1,1.6,8.1,2.3,11.9c0.1,0.9,0.3,1.8,0.4,2.7c1.2,7.4,1.9,14,2.1,19.7
		C391.7,350.4,391.7,352,391.7,353.5z" class="st0"></path>
	<path d="M187.4,296.4c0,0,22.6,21.2,39.3,26.8c16.7,5.6,12.7-60.9,12.7-60.9l-42.8,12L187.4,296.4z" class="st1"></path>
	<path d="M95.1,375.3c0,0,10.2-26.9,23.2-50.4c13-23.5,32.9-51.3,10.4-71.7c-15.4-14-72.3-8.1-106.5,26.8
		c0,0-7.7,13.8,7.4,34.3c0,0,12.4-12,31.9-18.8c0,0-16.9,17.6-27.3,27c0,0,1.1,5.5,9.8,12.9l13.2-11l-9.9,14.3
		C47.3,338.7,56.3,367.2,95.1,375.3z" class="st2"></path>
	<g>
		<g>
			<path d="M222.4,307.4c0,0-63.6,45.3-34.9,100c0,0-30.8,36.7-22.4,46.4c8.4,9.7,14.7-18.7,24.3-24.8
				c9.6-6.1,18.3-8,15.8-24.7c0,0,33.1,7.2,52.2-25.4C276.5,346.3,222.4,307.4,222.4,307.4z" class="st0"></path>
			<path d="M222.4,307.4c0,0-63.6,45.3-34.9,100c0,0-30.8,36.7-22.4,46.4c8.4,9.7,14.7-18.7,24.3-24.8
				c9.6-6.1,18.3-8,15.8-24.7c0,0,33.1,7.2,52.2-25.4C276.5,346.3,222.4,307.4,222.4,307.4z" class="st3"></path>
		</g>
		<path d="M173.6,440.8c0,0-2.6,5.5-0.3,12.7" class="st1"></path>
	</g>
	<path d="M327.7,190.2c0,0,28.8-55.4,62.8-61.7c34.1-6.4,23.2,25.1,23.2,25.1s-28.5,36.7-35.2,56.5
		c-6.7,19.8-52.8,1.5-52.8,1.5L327.7,190.2z" class="st0"></path>
	<path d="M330.8,414.1c-12.4,3.3-25.5,4.3-38,2.1c-42.4-7.5-91.9-36.2-83.8-136.2c0.4-5,0.7-9.7,1-14.2
		c4-6.9,14.6-18.6,40.1-22.8c36.9-6,61.4,27,79.9,80.9C342.5,360.6,344.7,395.1,330.8,414.1z" class="st4"></path>
	<path d="M209,199.3c0,0-64.8,25.2-87,49c-22.3,23.8-12.6,39.3-1,44.2c11.6,4.9,50.7-22.7,68.3-24.3
		c17.6-1.6,38.8-59,38.8-59L209,199.3z" class="st0"></path>
	<path d="M315.8,127.5c-3.7-3.3-8.2-5.5-11.9-7c-3.8-1.5-6.7-2.2-6.9-2.2c1.9-9.8,10.9-18.5,15-18.3l0,0
		c0.6,2.3,1.3,5-0.3,10.9c-0.2,0.6-0.3,1.1-0.4,1.7C309.9,120.8,314.9,126.7,315.8,127.5z" class="st1"></path>
	<path d="M232,113.1c0,0-6.2,1.3-11.2,2.6c-1.6,0.4-3,0.7-4.1,1c-2-5.7-2-15.1-0.2-20.2c0.5-1.4,1.2-2.5,1.9-3.1
		c0,0,2.1,1,3.6,6c0.5,1.8,1,3.5,1.6,5.2C224.9,108.3,226.9,111.4,232,113.1z" class="st1"></path>
	<path d="M280.7,166.5c-2.7,2.1-3.2,6.8-0.4,9.4c3.8,3.5,11.3,3.5,15-0.3c3.1-3.2,1.5-9.6-1.7-10.9
		c-2.7-1.1-5.6-1-8.3-0.3C284.1,164.8,282.2,165.3,280.7,166.5z" class="st5"></path>
	<path d="M218.3,159.4c2.2,2.6,1.7,7.4-1.6,9.4c-4.5,2.7-11.8,1.1-14.6-3.5c-2.3-3.8,0.6-9.8,4-10.5
		c2.9-0.6,5.7,0.1,8.2,1.5C215.4,157,217.1,157.9,218.3,159.4z" class="st5"></path>
	<path d="M274.7,113.9c-1,1.4-1.9,2.8-2.7,4c-1.7,2.5-3.2,5-4.7,7.6c-1.1,1.9-3,3.9-5.4,4c-3,0.2-5.5-1.8-6.9-4.4
		c-1.7-3.1-1.5-6.8-0.8-10.2c0.2-0.9,0.5-1.8,0.8-2.7c0.4,0,0.7,0,1,0c6.4,0.3,12.4,0.8,18.1,1.5
		C274.3,113.9,274.5,113.9,274.7,113.9z" class="st1"></path>
	<path d="M194.8,160.2c-3.2,0.3-6.4-1-9.3-2.7c0.1-0.3,0.1-0.6,0.2-0.9c0.1-0.3,0.1-0.6,0.2-0.9c0.6-2.7,1.2-5.3,2.1-8
		C193.8,153.6,200.8,159.6,194.8,160.2z" class="st1"></path>
	<path d="M193.1,168.3c-2.2,1.1-5.4,1.1-8.4,0.6c0-0.7,0-1.4,0-2.2c0-1.6,0.1-3.3,0.3-5c0-0.1,0-0.1,0-0.2
		C191.1,163.7,197,166.4,193.1,168.3z" class="st1"></path>
	<path d="M195,145.8c-1.7-0.4-3.5-1.5-5.2-3c0-0.1,0.1-0.2,0.1-0.3c0.9-2.2,2-4.3,3.3-6.4
		C196.5,141.3,199,146.6,195,145.8z" class="st1"></path>
	<path d="M291.8,116.9c-2.6,2.8-5.2,5.6-7.1,5.9c-4.7,0.7-6.5-3.6-3.8-8.1c2.9,0.5,5.8,1,8.5,1.6
		c0.4,0.1,0.7,0.2,1.1,0.2C290.9,116.7,291.3,116.8,291.8,116.9z" class="st1"></path>
	<path d="M253,112.3c-1.5,1.9-3,3.5-4.4,3.8c-3.7,1-6.5-1.8-5.4-3.8c1.8-0.1,3.7-0.1,5.6-0.1c0.8,0,1.7,0,2.6,0
		c0.2,0,0.5,0,0.7,0C252.5,112.2,252.8,112.3,253,112.3z" class="st1"></path>
	<g>
		<g>
			<path d="M298.9,161.4c-5.5,3.3-13.8,3.9-19.6,1.2c-1.2-0.6-2.4-1.3-3.4-2.3c-4.4-4.2-6.5-11.1-6.1-17.1
				c0-0.1,0-0.3,0-0.4c0.5-6,4.3-11.2,9.7-13.8c6.4-3,15.6-3.5,21,1.7c2.1,2.1,3.7,4.8,4.7,7.9l0,0
				C307.9,146.7,306.3,157,298.9,161.4z" class="st6"></path>
			<path d="M298.9,161.4c-3.1,1.8-6.7,2.7-10.3,2.9c-1.8,0.1-3.6,0-5.4-0.3c-1.8-0.3-3.5-0.8-5.2-1.7
				c-1.6-0.9-3-2.1-4.2-3.6c-1.2-1.4-2.1-3-2.9-4.7c-1.5-3.4-2.2-7.1-2.1-10.8l0,0.1c0.1-4.5,2.1-8.7,5.2-11.7
				c1.6-1.5,3.4-2.8,5.4-3.6c2-0.9,4.1-1.4,6.2-1.8c4.2-0.6,8.8-0.2,12.6,2.1c1.9,1.1,3.4,2.7,4.6,4.5c1.2,1.8,2,3.7,2.6,5.7
				l-0.4-0.3l0,0l0.3,0l0.1,0.3c0.6,2.1,1,4.2,1,6.3c0.1,2.1-0.1,4.3-0.6,6.4c-0.5,2.1-1.3,4.1-2.5,5.8
				C302.3,158.8,300.8,160.3,298.9,161.4z M298.9,161.4c1.8-1.1,3.4-2.6,4.5-4.4c1.2-1.8,1.9-3.8,2.3-5.9c0.9-4.1,0.4-8.5-1-12.4
				l0.4,0.3l0,0l-0.3,0l-0.1-0.3c-0.7-1.9-1.6-3.7-2.8-5.3c-1.2-1.6-2.7-3-4.4-3.9c-3.5-1.8-7.6-2.1-11.5-1.4
				c-3.9,0.7-7.7,2.2-10.5,4.9c-0.7,0.7-1.3,1.4-1.9,2.2c-0.6,0.8-1.1,1.6-1.5,2.5c-0.4,0.9-0.8,1.8-1,2.7c-0.1,0.5-0.2,1-0.3,1.4
				c-0.1,0.5-0.2,1-0.2,1.4l0,0.1c-0.3,3.4,0.2,7,1.5,10.3c0.6,1.6,1.5,3.2,2.5,4.6c1,1.4,2.3,2.7,3.8,3.6c3,1.8,6.7,2.5,10.3,2.4
				C292.2,164,295.8,163.1,298.9,161.4z" class="st1"></path>
		</g>
		<path d="M286.6,159.2c4.8,0.6,10.1-1.3,12.9-5.3c4.5-6.4,2.4-16.3-4.4-20.2c-3.6-2.1-8.5-2.5-12.4-0.8
			c-10.3,4.5-9.2,20.3,0.2,25.1C284,158.7,285.3,159.1,286.6,159.2z" class="st1"></path>
		<path d="M305.2,138.6c-21.1-9.6-33.9,3-35.4,4.6c0-0.1,0-0.3,0-0.4c0.5-6,4.3-11.2,9.7-13.8c6.4-3,15.6-3.5,21,1.7
			C302.6,132.7,304.2,135.5,305.2,138.6z" class="st7"></path>
	</g>
	<g>
		<g>
			<path d="M230.2,146c-2.6,4.9-8.6,6.8-13.8,6.7c-0.7,0-1.4-0.1-2.1-0.3c-8.3-1.8-13.3-12.9-10.3-20.7
				c0.3-0.8,0.7-1.6,1.2-2.3c4.2-6.4,15-9,21.5-4.6c1.5,1.1,2.6,2.8,3.3,4.5c0.5,1.2,0.9,2.5,1.2,3.8
				C232.2,137.4,232.2,142.4,230.2,146z" class="st6"></path>
			<path d="M230.2,146c-0.9,1.7-2.3,3.2-4,4.2c-1.6,1.1-3.5,1.8-5.4,2.2c-1,0.2-1.9,0.4-2.9,0.5c-1,0.1-2,0.1-3,0
				c-2-0.3-3.9-1-5.6-2.2c-3.3-2.3-5.6-6-6.7-9.9c-0.5-2-0.7-4.1-0.5-6.1l0.3-1.5c0.1-0.5,0.3-1,0.4-1.5c0.3-1,0.8-2,1.4-2.9
				c2.4-3.5,6.3-5.7,10.3-6.5c4-0.8,8.3-0.4,11.8,1.8c1.8,1.1,2.9,3,3.7,4.8c0.8,1.8,1.2,3.8,1.5,5.7c0.3,1.9,0.4,3.9,0.2,5.9
				C231.6,142.3,231.2,144.3,230.2,146z M230.2,146c1.8-3.5,1.8-7.6,1.1-11.4c-0.4-1.9-1-3.8-1.8-5.5c-0.8-1.7-2-3.3-3.6-4.1
				c-3.3-1.8-7.3-1.9-10.8-1c-3.6,0.9-7,2.9-8.9,5.9c-0.5,0.7-0.9,1.5-1.2,2.4c-0.1,0.4-0.3,0.9-0.4,1.3l-0.2,1.3
				c-0.2,1.8-0.1,3.7,0.3,5.5c0.8,3.6,2.6,7.1,5.5,9.5c1.5,1.2,3.2,2,5.1,2.4c0.9,0.2,1.9,0.2,2.9,0.2c1,0,1.9-0.1,2.9-0.3
				c1.9-0.4,3.8-1,5.4-2C227.9,149.1,229.3,147.7,230.2,146z" class="st1"></path>
		</g>
		<path d="M211.7,145.6c0.3,0.3,3.4,4.1,10.3,2.1c6.9-2.1,6.2-11,5.2-13.9c-1-2.9-4.6-8.9-12.5-6.9
			C206.9,129.1,206,140.8,211.7,145.6z" class="st1"></path>
		<path d="M231.1,133.1c-9.2-5.4-21.1-3.2-27.2-1.4c0.3-0.8,0.7-1.6,1.2-2.3c4.2-6.4,15-9,21.5-4.6
			c1.5,1.1,2.6,2.8,3.3,4.5C230.4,130.5,230.8,131.8,231.1,133.1z" class="st7"></path>
	</g>
	<path d="M336.9,150.8c-19.5,11.2-25.9-1.8-17.9-4c5.3-1.5,10.3-4.4,13.5-6.4C334.5,143.6,336,147.1,336.9,150.8z" class="st1"></path>
	<path d="M338.6,167.5L338.6,167.5c0,0.5-0.1,0.8-0.1,1.2c-7.1,2.8-15.9,4.4-22.7,1.4c-2.6-1.1-4.8-3.6-3.9-6.2
		c0.4-1,1.2-1.9,2.2-2.6c3-1.9,7.1-2.3,10.7-2.7c4.1-0.5,9-2.3,12.8-4C338.4,159,338.7,163.3,338.6,167.5z" class="st1"></path>
	<path d="M338.4,173.9c-0.6,4.9-0.8,7.9-2.5,14c-4.9,0.9-11.9-0.3-16.2-2.8c-1.9-1.1-3.6-2.9-3.1-5.2
		c0.6-3.1,4.7-3.5,7.3-3.5C330.7,176.4,335.8,174.9,338.4,173.9z" class="st1"></path>
	<g>
		<path d="M187,167.4c3-1.1,6.1-2,9.2-2.8c3.1-0.7,6.3-1.4,9.5-1.8c-3,1.1-6.1,2-9.2,2.8
			C193.3,166.4,190.2,167.1,187,167.4z" class="st1"></path>
		<path d="M185.3,159.6c3.1-0.4,6.2-0.5,9.3-0.5c3.1,0,6.2,0.1,9.3,0.6c-3.1,0.4-6.2,0.5-9.3,0.5
			C191.5,160.1,188.4,160,185.3,159.6z" class="st1"></path>
		<path d="M187.6,149.9c3,1,5.8,2.3,8.6,3.7c2.8,1.4,5.5,2.9,8.1,4.6c-3-1-5.8-2.3-8.6-3.7
			C192.9,153.1,190.2,151.7,187.6,149.9z" class="st1"></path>
	</g>
	<path d="M306.7,117.8c0,0-2.2-0.1-2.8-0.6c-0.6-0.5,2.8-0.6,2.8-0.6c-1.7-0.7-3.2-2.7-2.6-2.7c0.6-0.1,2.6,1.4,2.6,1.4
		c-2.1-3-0.7-7.7,1.6-7.4c1,0.1,2.1,2.3,3,4.7c-1.5,8.2,3.6,14.2,4.5,14.9c-3.7-3.3-8.2-5.5-11.9-7
		C304.5,118.8,306.7,117.8,306.7,117.8z" class="st6"></path>
	<path d="M220.7,115.7c0.3-1.9,2.2-4.5,2.4-4.7c-0.1,0.1-1.7,0.8-2.5,0.4c-0.8-0.4,1.9-1.5,1.9-1.5s-2,0.2-2.2-0.4
		c-0.2-0.6,1.9-0.5,1.9-0.5c-1.5-0.9-4.2-4.8-2.4-5.9c1.2-0.7,2.8,0.5,3.8,1.5c1.4,3.8,3.3,6.9,8.4,8.5
		C232,113.1,225.8,114.4,220.7,115.7z" class="st6"></path>
	<g>
		<path d="M249,144.1c0,0-2.8-3.9-4.4-3.3c-1.6,0.6,2.6,6.5,4.3,7.1c1.7,0.6,5.9-5.1,5-6.3
			C253.1,140.4,249,144.1,249,144.1z" class="st1"></path>
		<path d="M253.1,169c-0.5-1.8-0.9-3.6-1.3-5.3l-1.2-5.4c-0.4-1.8-0.7-3.6-1.1-5.4c-0.3-1.8-0.6-3.6-0.8-5.5l1,0.1
			c-1.1,3.4-2.1,6.8-3.2,10.2c-0.5,1.7-1,3.4-1.4,5.1c-0.5,1.7-0.8,3.4-1.2,5.2c0.1-1.8,0.4-3.5,0.7-5.3c0.3-1.8,0.7-3.5,1.1-5.2
			c0.8-3.5,1.8-6.9,2.9-10.3l0.8-2.4l0.2,2.5c0.2,1.8,0.5,3.6,0.7,5.4l0.9,5.4l0.9,5.4C252.6,165.3,252.9,167.1,253.1,169z" class="st1"></path>
		<path d="M241.3,148c-2.9,0.5-5.8,2.1-7.7,4.8c-2.7,3.9-3.4,8.9-0.6,12.8c1.8,2.4,4.4,3.8,7,4.7
			c5.1,1.8,10.3,3.2,15.7,2c2-0.4,3.9-1.1,5.6-2.4c2.5-2,4.2-5.3,4.4-8.8c0.2-3.4-1.1-6.9-3.4-9c-2.8-2.7-7.2-3.7-10.9-3.9
			C248.1,148.1,244.5,147.5,241.3,148z" class="st8"></path>
	</g>
	<g>
		<path d="M296.7,175.8c3.2,0.3,6.4,0.8,9.5,1.5c3.1,0.7,6.3,1.4,9.3,2.5c-3.2-0.3-6.4-0.8-9.5-1.5
			C302.8,177.6,299.7,176.9,296.7,175.8z" class="st1"></path>
		<path d="M316.9,171.9c-3.1,0.5-6.2,0.7-9.3,0.9c-3.1,0.1-6.2,0.1-9.3-0.2c3.1-0.5,6.2-0.7,9.3-0.9
			C310.7,171.6,313.8,171.6,316.9,171.9z" class="st1"></path>
		<path d="M314.3,162.3c-2.5,1.8-5.2,3.4-8,4.8c-2.7,1.5-5.5,2.8-8.4,3.9c2.5-1.8,5.2-3.4,8-4.9
			C308.6,164.8,311.4,163.4,314.3,162.3z" class="st1"></path>
	</g>
	<path d="M293.1,222c1.4-0.7,2.9-1.4,4.3-2.1c1.4-0.7,2.8-1.4,4.2-2.2l0.9-0.5l-0.3,1c-0.1,0.4-0.3,0.9-0.3,1.3
		c-0.1,0.4,0,0.9,0.2,1c0,0.1,0.2,0.1,0.3,0.1c0.1,0,0.2-0.1,0.4-0.2c0.3-0.3,0.5-0.6,0.8-1c0.4-0.8,0.8-1.6,1.1-2.5
		c0.3-0.9,0.6-1.8,0.8-2.6l0.3-1.7l0.6,1.6c0.3,0.6,0.6,1.3,1,1.9c0.4,0.6,0.9,1.1,1.3,0.9c0.4-0.1,0.9-0.7,1.2-1.3
		c0.3-0.6,0.5-1.3,0.7-2l0.1-0.3l0.3,0c1.7-0.1,3.4-0.5,5-1c0.8-0.2,1.6-0.5,2.4-0.9c0.8-0.3,1.5-0.8,2.3-1.2
		c-1.4,1.1-2.9,1.9-4.5,2.6c-1.6,0.6-3.3,1.1-5.1,1.3l0.4-0.3c-0.1,0.8-0.3,1.5-0.7,2.3c-0.2,0.4-0.4,0.7-0.6,1.1
		c-0.3,0.3-0.6,0.7-1.2,0.8c-0.3,0.1-0.5,0.1-0.8,0c-0.3-0.1-0.5-0.2-0.7-0.3c-0.4-0.3-0.6-0.6-0.9-0.9c-0.5-0.7-0.8-1.4-1.1-2.1
		l1-0.1c-0.2,1-0.5,1.9-0.9,2.8c-0.4,0.9-0.7,1.8-1.2,2.7c-0.3,0.4-0.5,0.8-1,1.2c-0.2,0.2-0.5,0.4-0.9,0.4c-0.4,0-0.7-0.1-1-0.4
		c-0.5-0.6-0.4-1.2-0.4-1.7c0.1-0.5,0.2-1,0.4-1.5l0.5,0.5c-1.4,0.8-2.9,1.4-4.3,2C296.1,220.9,294.6,221.5,293.1,222z" class="st8"></path>
	<g>
		<g>
			<path d="M450.4,310.4c0.7,16.6-3.2,31.3-17.8,37.4c-31.2,13-55.9-3.3-55.9-3.3l5.9-19c0,0,9.5,7.4,22.2,6.5
				c5.8-0.4,12.2-2.5,18.8-7.8c0.3-0.2,0.5-0.4,0.8-0.7c17.7-15.5-4.5-42.2-9.4-65.8c-0.5-2.2-0.7-4.3-0.9-6.4
				c-0.3-6.8,0.9-14.2,3.3-21.1c4.3-12.5,12.4-23.6,21.5-27.7c4.4-2,9.1-2.3,13.7-0.4c13.2,5.6,1.4,16.9-6.6,31.6
				c-4.3,7.9-7.5,16.7-5.2,26.1c1.9,7.8,4.5,17.2,6.4,27.1c0,0,0,0,0,0C448.8,294.9,450.1,302.8,450.4,310.4z" class="st0"></path>
			<path d="M450.4,310.4c0.7,16.6-3.2,31.3-17.8,37.4c-31.2,13-55.9-3.3-55.9-3.3l5.9-19c0,0,9.5,7.4,22.2,6.5
				c5.8-0.4,12.2-2.5,18.8-7.8c0.3-0.2,0.5-0.4,0.8-0.7c17.7-15.5-4.5-42.2-9.4-65.8c-0.5-2.2-0.7-4.3-0.9-6.4
				c-0.3-6.8,0.9-14.2,3.3-21.1c4.3-12.5,12.4-23.6,21.5-27.7c4.4-2,9.1-2.3,13.7-0.4c13.2,5.6,1.4,16.9-6.6,31.6
				c-4.3,7.9-7.5,16.7-5.2,26.1c1.9,7.8,4.5,17.2,6.4,27.1c0,0,0,0,0,0C448.8,294.9,450.1,302.8,450.4,310.4z" class="st3"></path>
		</g>
		<path d="M446.1,233.9c-8.5-10.1,0.9-21.2,0.9-21.2c-4.5-1.9-6.8-6.6-8-10.1c4.4-2,9.1-2.3,13.7-0.4
			C465.9,207.8,454.1,219.2,446.1,233.9z" class="st1"></path>
		<path d="M415,257.8c-0.5-2.2-0.7-4.3-0.9-6.4c-0.3-6.8,0.9-14.2,3.3-21.1c3.6,3.5,8.3,9.2,8.8,16.2
			C426.8,253.2,420.5,256.3,415,257.8z" class="st1"></path>
		<path d="M450.4,310.4c-4-0.9-8.6-3-9.5-8.2c-1-5.5,2.9-11.2,6.4-15.1C448.8,294.9,450.1,302.8,450.4,310.4z" class="st1"></path>
		<path d="M418.4,335.5c-5.4,0.7-10.1-1.2-13.6-3.4c5.8-0.4,12.2-2.5,18.8-7.8c0.3-0.2,0.5-0.4,0.8-0.7
			C425.6,328.3,425.8,334.6,418.4,335.5z" class="st1"></path>
	</g>
	<path d="M481.6,130c-38.3,27.4-91.9,48.8-105.4,7.5c-13.3-40.7,47-96.6,48.7-98.2c-9.4,12.7-16.4,33-16.4,33l30.7-28.9
		c20.6,5.3,27,28.5,27,28.5l-13.5,17.3l16.1-7.1c4.2,6,7,13.1,8.9,19.9c-5.3,4.2-15.9,12.9-16.8,13.6l17.8-9.3c1,4.2,1.6,8.1,2,11.6
		l-6.2,4.1l6.4-1.7C481.6,126.1,481.6,130,481.6,130z" class="st2"></path>
	<g>
		<g>
			<path d="M391.7,353.5c-0.2,2.5-0.5,4.8-0.9,7c-0.1,0.6-0.2,1.2-0.3,1.9c-7,36.4-37.5,44.5-37.5,44.5
				s8.9,13.1-10.1,23.7c-19,10.6-11.7,28.9-25.8,23.3c-14.3-5.7,11.4-36.8,11.4-36.8c-0.6-0.6-1.2-1.4-1.8-2.1
				c-14.6-18-23.4-56.8-17.3-81.2c2.7-11,10.4-17.3,18.3-21c0.1-0.1,0.2-0.1,0.3-0.1c0.3-0.1,0.6-0.3,0.9-0.4
				c0.6-0.3,1.1-0.5,1.7-0.7c0.3-0.1,0.6-0.2,0.9-0.3c0.3-0.1,0.6-0.2,0.9-0.3c0.3-0.1,0.6-0.2,0.8-0.3c0.4-0.1,0.8-0.2,1.1-0.4
				c7.8-2.5,14.4-2.6,14.4-2.6s20.3-4.4,33,7.5c3,2.8,5.5,6.4,7.3,11.2c0.1,0.9,0.3,1.8,0.4,2.7c1.2,7.4,1.9,14,2.1,19.7
				C391.7,350.4,391.7,352,391.7,353.5z" class="st0"></path>
			<path d="M353,308.2c-5.8-0.1-11.6,0.6-17.1,2.1c-5.5,1.5-10.8,4.1-15.1,7.8c-4.3,3.7-7.6,8.5-9.5,13.8
				c-2,5.3-2.6,11-2.6,16.8c-0.2,11.5,1.1,23,4.1,34.1c1.4,5.6,3.4,11,5.7,16.3c2.3,5.3,5,10.4,8.3,15.2c-7.1-9.1-12-20-15.3-31.1
				c-1.7-5.6-2.8-11.3-3.6-17.1l-0.5-4.3l-0.3-4.4c-0.3-2.9-0.2-5.8-0.2-8.7c0.1-5.8,0.7-11.8,2.9-17.3c2.1-5.5,5.5-10.6,10.1-14.3
				c4.6-3.7,10.1-6.2,15.7-7.6C341.4,308.1,347.2,307.6,353,308.2z" class="st8"></path>
		</g>
		<path d="M319.4,453.6c-0.8-0.3-0.5-11.3,4.3-14.6L319.4,453.6z" class="st1"></path>
	</g>
	<path d="M198.1,200.5c0,0,21.6,24,70.4,20.9c48.7-3.1,74.1-56.7,74.1-56.7s46.4,4.3,63.2,41.5l-37.2,30.9l7.3,32
		c0,0-45.6,26.7-96.4,17.3c-50.8-9.4-102.7-18.3-82.8,18.3l-14.1-12.6l8.9-20.4l-9.6,9.7c0,0-33-24.1-21.5-63.4
		C160.4,217.9,188,202.2,198.1,200.5z" class="st9"></path>
	<path d="M247.3,338.1c1.9-1.1,4.1-1.5,6.3-1.7c2.2-0.1,4.4,0.1,6.5,0.5c2.1,0.4,4.2,1.2,6.2,2c1,0.4,1.9,1,2.9,1.5
		c0.9,0.6,1.8,1.1,2.7,1.8c-1.1-0.3-2.1-0.6-3.1-0.9l-3-0.9c-2-0.6-4-1.2-6.1-1.6c-2-0.4-4.1-0.8-6.2-0.9
		C251.5,337.7,249.4,337.7,247.3,338.1z" class="st8"></path>
	<path d="M251.6,344.3c0.8-1.8,2-3.3,3.3-4.8c1.3-1.5,2.7-2.8,4.3-4c3.1-2.3,7-4,10.9-4c-1.8,0.8-3.5,1.5-5.1,2.4
		c-1.6,0.9-3.2,1.9-4.7,3C257.3,339.2,254.5,341.7,251.6,344.3z" class="st8"></path>
	<path d="M237.9,211.1c1.5,0.8,3,1.6,4.5,2.4c0.7,0.4,1.5,0.7,2.3,1.1c0.8,0.3,1.6,0.6,2.3,0.7l0.2,0l0.1,0.2
		c0.3,0.6,0.7,1.3,1.2,1.8c0.4,0.5,1,1,1.4,0.9c0.2-0.1,0.2-0.1,0.2-0.4c0-0.3-0.1-0.6-0.2-0.9c-0.2-0.7-0.5-1.3-0.9-1.9l-1-1.8
		l1.8,1.1c0.6,0.4,1.3,0.8,2,1.2c0.7,0.3,1.4,0.6,2.1,0.8c0.4,0.1,0.7,0.1,0.9,0c0.3-0.1,0.4-0.3,0.4-0.5c0-0.5-0.6-1.2-1.2-1.7
		l-0.8-0.7l1.1,0.1c1.3,0.1,2.7,0.1,4,0c1.3-0.1,2.7-0.2,4-0.6c-1.3,0.5-2.6,0.8-4,1c-1.4,0.2-2.7,0.3-4.1,0.3l0.2-0.6
		c0.4,0.3,0.7,0.5,1,0.9c0.3,0.3,0.6,0.7,0.7,1.3c0,0.3,0,0.6-0.2,0.9c-0.1,0.1-0.2,0.2-0.3,0.3c-0.1,0.1-0.2,0.2-0.3,0.2
		c-0.5,0.2-1,0.2-1.4,0.1c-0.9-0.1-1.7-0.5-2.4-0.8c-0.8-0.4-1.5-0.8-2.2-1.2l0.7-0.7c0.4,0.7,0.7,1.4,1,2.1
		c0.1,0.4,0.2,0.8,0.2,1.3c0,0.1,0,0.3-0.1,0.4c-0.1,0.1-0.1,0.3-0.2,0.4c-0.2,0.3-0.5,0.4-0.7,0.5c-0.6,0.1-1.1-0.1-1.4-0.4
		c-0.4-0.3-0.6-0.6-0.9-0.9c-0.5-0.6-0.9-1.3-1.2-2l0.3,0.2c-0.9-0.2-1.7-0.5-2.5-0.9c-0.8-0.4-1.5-0.8-2.2-1.2
		C240.6,213,239.2,212.1,237.9,211.1z" class="st8"></path>
	<path d="M182.3,291.7c0.9-2.2,1.8-4.4,2.6-6.6c0.9-2.2,1.7-4.4,2.5-6.6c1.6-4.4,3.2-8.8,4.7-13.3
		c1.5-4.4,2.8-8.9,4-13.5c0.6-2.3,1.2-4.5,1.6-6.8c0.6-2.3,0.9-4.6,1.5-6.9c-0.2,4.7-0.8,9.4-1.7,14.1c-0.9,4.6-2.2,9.2-3.7,13.7
		c-1.5,4.5-3.2,8.9-5.1,13.2C186.8,283.4,184.7,287.7,182.3,291.7z" class="st6"></path>
	<path d="M356,227.6c1.2,0.5,2.4,1.1,3.6,1.6c1.2,0.6,2.3,1.2,3.5,2c1.1,0.7,2.2,1.5,3.3,2.3c1,0.9,2.1,1.8,2.9,3
		l1.4,2.1l-2.5-0.8c-1.5-0.5-3.1-0.8-4.7-1.1c-1.6-0.3-3.2-0.5-4.9-0.6c-1.6-0.1-3.3-0.1-4.9,0.1c-1.6,0.1-3.2,0.5-4.9,0.9
		c1.5-0.8,3.1-1.5,4.7-1.9c1.7-0.4,3.4-0.6,5.1-0.6c1.7,0,3.4,0.1,5.1,0.3c1.7,0.3,3.3,0.6,5,1.2l-1.1,1.3c-0.6-1-1.5-1.9-2.4-2.8
		c-0.9-0.9-1.9-1.7-2.9-2.5C360.3,230.7,358.2,229.2,356,227.6z" class="st6"></path>
	<path d="M255.8,238.7c-1.3,1.2-2.3,2.6-3,4.2c-1.7,3.9-0.9,8.6,1.4,12.1c2.3,3.6,5.9,6.1,9.8,7.7
		c6.8,2.8,15.5,3.7,22.1,0c7.4-4.1,10.4-13.8,7.3-21.5c-3.8-9.5-18.7-9.8-27-8C262.7,234.1,258.6,235.9,255.8,238.7z" class="st0"></path>
	<path d="M265.4,234.2c2.1,1.3,4.3,2.2,6.5,3.1c2.2,0.8,4.5,1.5,6.8,2c1.2,0.2,2.3,0.5,3.5,0.6l1.8,0.3
		c0.6,0,1.2,0.1,1.8,0.2c2.4,0.2,4.8,0.2,7.3,0.3c-1.2,0.3-2.4,0.6-3.6,0.8c-1.2,0.1-2.5,0.4-3.7,0.3c-2.5,0.1-5-0.2-7.4-0.7
		c-2.4-0.5-4.8-1.4-7-2.5C269.1,237.4,267,236,265.4,234.2z" class="st5"></path>
	<path d="M263.5,263c-1.2-2.6-2-5.6-2-8.6c-0.1-3,0.5-6,1.7-8.8c1.2-2.7,2.8-5.3,4.9-7.4c1-1.1,2.2-2,3.3-2.9
		c1.2-0.8,2.4-1.6,3.7-2.3c-1,1.1-2.1,2-3.1,3l-1.4,1.6c-0.5,0.5-1,1-1.4,1.6c-0.4,0.6-0.9,1.1-1.3,1.7c-0.4,0.6-0.7,1.2-1.1,1.8
		c-0.4,0.6-0.7,1.2-1,1.8c-0.3,0.6-0.7,1.2-0.9,1.9c-1.1,2.5-1.7,5.3-1.9,8.1C262.7,257.2,262.9,260.1,263.5,263z" class="st5"></path>
	<path d="M283,233.6c2.3,5.3,3,11.2,2.2,17c-0.4,2.9-1.4,5.7-2.8,8.3c-1.4,2.6-3.6,4.7-5.8,6.4c1.8-2.2,3.5-4.5,4.5-7
		c1.1-2.5,1.9-5.2,2.3-7.9c0.4-2.7,0.5-5.5,0.4-8.3C283.7,239.2,283.5,236.4,283,233.6z" class="st5"></path>
	<path d="M72.7,367.5c2.8-6.8,6.1-13.4,9.5-19.8c3.5-6.5,7.1-12.9,11.2-19c-2.8,6.8-6.1,13.4-9.5,19.8
		C80.4,355,76.8,361.4,72.7,367.5z" class="st10"></path>
	<path d="M20.6,294.8c3.1-2.8,6.5-5.3,10-7.7c3.4-2.4,7.1-4.5,10.7-6.6c3.7-2,7.5-3.8,11.4-5.4c3.9-1.6,7.9-2.9,12-3.7
		c-1.9,0.9-3.9,1.5-5.8,2.5c-1.9,0.8-3.8,1.7-5.7,2.6c-3.7,1.9-7.4,3.7-11.1,5.7c-3.7,2-7.2,4.1-10.8,6.2c-1.8,1-3.6,2.1-5.4,3.2
		C24.2,292.6,22.4,293.8,20.6,294.8z" class="st10"></path>
	<path d="M53.4,281c3.5-1.8,7.1-3.3,10.8-4.8c3.6-1.4,7.4-2.7,11.1-3.8c3.8-1.1,7.6-2.1,11.4-2.8
		c3.9-0.7,7.8-1.3,11.7-1.2c-1.9,0.4-3.8,0.7-5.7,1.2c-1.9,0.4-3.8,0.9-5.7,1.4c-3.8,1-7.5,2.1-11.2,3.2c-3.7,1.1-7.4,2.3-11.2,3.4
		l-5.6,1.7L53.4,281z" class="st10"></path>
	<path d="M381.2,146c0.5-6.2,2.1-12.4,4.3-18.3c2.1-5.9,4.9-11.6,8.1-17c3.3-5.3,6.8-10.6,11-15.3l1.5-1.8l1.6-1.7
		l3.2-3.4c2.2-2.2,4.6-4.3,6.9-6.3c-2,2.4-4.2,4.6-6.2,7l-3,3.6l-1.5,1.8l-1.4,1.9l-2.8,3.7c-0.9,1.3-1.8,2.5-2.7,3.8
		c-1.8,2.5-3.4,5.2-5,7.8c-3.1,5.3-5.9,10.9-8.3,16.6c-0.6,1.4-1.2,2.9-1.7,4.3c-0.6,1.4-1,2.9-1.5,4.4
		C382.6,139.9,381.8,142.9,381.2,146z" class="st10"></path>
	<path d="M456.5,56.1l-5.3,5.1l-5.3,5l-10.7,10l-21.3,20c3-3.9,6.3-7.5,9.7-11c3.4-3.6,6.9-7,10.4-10.3
		c3.6-3.3,7.2-6.6,11-9.7C448.7,62,452.5,59,456.5,56.1z" class="st10"></path>
	<path d="M472.7,90.2c-3.8,2.8-7.7,5.4-11.6,7.9c-3.9,2.6-7.9,5-11.9,7.3c-4,2.4-8.1,4.7-12.2,6.8
		c-4.1,2.2-8.3,4.3-12.6,6.2c1.9-1.3,3.9-2.5,5.9-3.8l6-3.7c4-2.5,8-4.8,12-7.2c4-2.3,8.1-4.7,12.1-7l6.1-3.4
		C468.6,92.4,470.6,91.2,472.7,90.2z" class="st10"></path>
	<path d="M383.3,298.5c-4.3,1.4-9,2-13.4,1c-2.3-0.5-4.8-1.9-5.1-4.2c-0.1-1.3,0.5-2.6,1.4-3.5c0.9-0.9,2.1-1.5,3.3-2.1
		c1.9-0.9,6.2-2.8,10.5-4C381.2,290,382.2,294.3,383.3,298.5z" class="st1"></path>
	<path d="M389.5,329c-1.1,0-2.3,0-3.4-0.1c-4-0.2-8.7-0.4-12.4-1.9c-0.8-0.3-1.6-0.8-2.2-1.4c-1.2-1.4-1-3.5-0.1-5
		c1.6-2.8,4.9-4.2,8-5c0.8-0.2,1.6-0.4,2.3-0.5c1.7-0.3,3.4-0.6,5.1-0.7c0.9,4.1,1.6,8.1,2.3,11.9
		C389.2,327.2,389.4,328.1,389.5,329z" class="st1"></path>
	<path d="M391.7,353.5c-0.1,2.1-0.3,4-0.6,5.7c-0.1,0.4-0.2,0.9-0.3,1.3c-0.1,0.6-0.2,1.2-0.3,1.9h-0.1
		c-1.9-0.1-3.8-0.3-5.7-0.6c-5.3-0.6-10.8-1.3-15.5-3.8c-1.8-0.9-3.6-2.5-3.5-4.5c0.1-1.1,0.7-2.1,1.5-2.8c2.2-2,5.3-2.4,8.3-2.6
		c5.4-0.3,10.8-0.1,16.2,0.5C391.7,350.4,391.7,352,391.7,353.5z" class="st1"></path>
</g>
</svg>
