<svg xml:space="preserve" style="enable-background:new 0 0 500 500;" viewBox="0 0 500 500" y="0px" x="0px"
     xmlns="http://www.w3.org/2000/svg" id="图层_1" version="1.0">
<style type="text/css">
	.st0{fill:#8EE4DB;}
	.st1{fill:#5DD4B4;}
	.st2{fill:#FC903E;}
	.st3{opacity:0.3;fill:#A0312F;}
	.st4{fill:#A0312F;}
	.st5{opacity:0.48;fill:#DC4949;}
	.st6{opacity:0.48;fill:#A0312F;}
	.st7{fill:#FFFFFF;}
	.st8{opacity:0.21;fill:#A0312F;}
	.st9{opacity:0.32;fill:#DC4949;}
</style>
<g>
	<path d="M288.3,178.2c3.6,0.9,7.1,1.9,10.6,2.9c20.4,6.1,38.6,16.3,49.6,35.2c24.8,42.6,3.2,92.8-38.4,114.2
		c-18.9,9.8-40.3,12.4-61.3,9.8c-15.6-1.9-30.7-6.2-46.2-8.3c-34.1-4.6-84.7,7.1-103.1-31.1c-14.2-29.6,23.4-67.9,42.8-84.8
		c20.4-17.8,44.3-32.5,70.5-39.7C237.6,169.5,263.4,171.9,288.3,178.2z" class="st0"></path>
	<g>
		<path d="M332.2,369.3c4.6-6.3,13-18.4,7.9-18.5c-6.8-0.1-14,16.1-14,15.6c0-0.5,8.9-45.8,2.7-45.2
			c-5.5,0.6-7.3,34.8-7.7,43.9c-0.4-0.1-0.8-0.3-1.1-0.4c-1.7-5.1-4.9-15.5-6.6-14c-1.8,1.5-0.1,8.6,0.9,12.2
			c-25.5-7.5-57.5-12-92.3-12c-83.1,0-150.6,25.6-150.6,57.1c0,31.5,67.4,57.1,150.6,57.1c83.1,0,150.6-25.6,150.6-57.1
			C372.5,393.1,357.2,379.5,332.2,369.3z" class="st1"></path>
		<ellipse ry="28.8" rx="75.9" cy="460.9" cx="351.5" class="st1"></ellipse>
		<path d="M275.4,477c0,3.9-8.3,7.1-18.6,7.1c-10.3,0-18.6-3.2-18.6-7.1c0-3.9,8.3-7.1,18.6-7.1
			C267.1,469.9,275.4,473.1,275.4,477z" class="st1"></path>
		<path d="M255.8,453.7c0,1.6-3.3,2.8-7.5,2.8c-4.1,0-7.5-1.3-7.5-2.8s3.3-2.8,7.5-2.8
			C252.4,450.8,255.8,452.1,255.8,453.7z" class="st0"></path>
		<ellipse ry="2.8" rx="7.5" cy="451.9" cx="274.1" class="st0"></ellipse>
		<path d="M278.8,441c0,2.3-4.9,4.1-10.9,4.1c-6,0-10.9-1.8-10.9-4.1c0-2.3,4.9-4.1,10.9-4.1
			C273.9,436.8,278.8,438.7,278.8,441z" class="st0"></path>
	</g>
	<g>
		<path d="M273.3,418.7c-6.9,0.4-14.1-1.6-20.6-4.3c-0.5-0.2-1-0.5-1.6-0.7c-1-0.5-2-0.9-3-1.4c-0.7-0.3-1.4-0.7-2-1
			c-0.7-0.4-1.3-0.7-1.9-1c-0.5-0.3-1-0.5-1.5-0.8c-5.7-3.3-9.5-6.3-9.5-6.3l-0.1,0c0,0,0,0,0,0l-68.8-11.9c0,0,16.1,19,32.4,29
			c16.3,10,21.1,22.2,18.1,28.5c-2.9,6.2-9.7,13.7-46.6-2.3c-0.7-0.3-1.5-0.7-2.3-1c-0.6-0.3-1.3-0.6-1.9-0.9
			c-1.1-0.5-2.3-1.1-3.4-1.7c-0.8-0.4-1.5-0.8-2.2-1.2c-0.6-0.4-1.2-0.7-1.8-1.1c-1.3-0.8-2.6-1.6-3.8-2.4c0,0-0.1,0-0.1-0.1
			c-2.1-1.4-4-2.9-5.9-4.4c-4.4-3.5-8.4-7.3-11.8-11.2c-3.7-4.1-6.9-8.4-9.5-12.3c-5.7-8.7-9.1-16.4-10.5-20.5c0,0.2,0,0.3,0,0.5
			c0,0,0,0,0,0c0.4,6.2,0.1,18-1.8,19.3c-2.1,1.4-18.2,4.6-26.4,1.8c-0.3-0.1-0.5-0.2-0.7-0.3c-0.3-0.1-0.5-0.2-0.7-0.3
			c-0.2-0.1-0.3-0.2-0.5-0.3c-0.8-0.5-1.5-1.1-2-1.8c-4.8-6.9-4.1-48.9,0-119.9c4.1-71,27.3-112,76-114.3
			c15.8-0.7,28.5,1.7,38.8,6.1c2.8,1.2,5.4,2.6,7.8,4c0.4,0.2,0.8,0.5,1.2,0.8c0.8,0.5,1.6,1,2.4,1.6c1.2,0.8,2.3,1.7,3.4,2.5
			c5.4,4.4,9.8,9.4,13.3,14.6c4.1,6.2,7,12.7,9,18.9c1,3.2,1.9,7.4,2.5,12.2c0.7,5,1.2,10.6,1.6,16.5c0.4,6.9,0.7,14.1,0.8,21.2
			c0.1,4.7,0.1,9.3,0.1,13.7c-0.1,17-0.6,30.3-0.6,30.3s8.9,54.3,24.8,63.2C279.7,388.8,291.9,417.6,273.3,418.7z" class="st2"></path>
		<path d="M273.1,418.6c-5.4,0.3-10.9-0.8-16.2-2.6c-0.7-0.2-1.3-0.5-2-0.7c-0.8-0.3-1.5-0.6-2.2-0.9
			c-0.5-0.2-1-0.5-1.6-0.7c-1-0.5-2-0.9-3-1.4c-0.7-0.3-1.4-0.7-2-1c-0.7-0.4-1.3-0.7-1.9-1c-0.5-0.3-1-0.5-1.5-0.8
			c-0.4-0.2-0.7-0.4-1-0.6c-0.4-0.2-0.7-0.4-1-0.6c-0.6-0.4-1.3-0.8-1.9-1.1c-0.1-0.1-0.3-0.2-0.4-0.3c-3-1.9-4.9-3.3-5.3-3.6
			c0,0,0,0,0,0c-0.1-0.1-0.1-0.1-0.1-0.1l-68.9-11.9c0,0,16.1,19,32.3,29c16.3,10,21.1,22.2,18.1,28.5c-2.9,6.2-9.7,13.7-46.4-2.2
			c-0.8-0.3-1.6-0.7-2.5-1.1c-0.6-0.3-1.2-0.5-1.7-0.8c-1.1-0.6-2.3-1.1-3.4-1.7c-0.8-0.4-1.5-0.8-2.2-1.2c-0.6-0.4-1.2-0.7-1.8-1.1
			c-1.3-0.8-2.6-1.6-3.8-2.4c0,0-0.1,0-0.1-0.1c-1-0.7-2.1-1.4-3-2.1c-1-0.7-2-1.5-2.9-2.2c-4.4-3.5-8.4-7.3-11.8-11.2
			c-3.7-4.1-6.9-8.3-9.6-12.3c-5.5-8.3-8.8-15.8-10.3-20c0,0,0,0,0,0c-0.1-0.2-0.2-0.4-0.2-0.6c0.5,6,0.2,18.5-1.8,19.8
			c-2.1,1.4-17.9,4.6-26.2,1.9c-0.3-0.1-0.5-0.2-0.7-0.3c-0.3-0.1-0.5-0.2-0.7-0.3c-0.2-0.1-0.3-0.2-0.5-0.3
			c-0.9-0.5-1.7-1.1-2.2-1.9c-1.9-2.7-2.9-10.9-3.2-24.2c-0.1-3.4-0.1-7.2-0.1-11.3c0-5.8,0.1-12.2,0.3-19.3
			c0.1-3.6,0.2-7.4,0.4-11.3c0.6-15.5,1.5-33.5,2.6-53.8c0.2-4,0.5-7.9,0.9-11.7c0.5-5.4,1.1-10.7,1.9-15.7
			c0.7-4.6,1.5-9.1,2.4-13.4c0.3-1.4,0.6-2.8,0.9-4.2c2.2-9.1,4.9-17.4,8.2-24.9c12.2-27.6,32.3-43.1,61.7-44.5
			c10.7-0.5,19.9,0.4,27.9,2.5c0.7,0.2,1.3,0.3,1.9,0.5c0.6,0.2,1.3,0.4,1.9,0.5c0.6,0.2,1.3,0.4,1.9,0.6c1.2,0.4,2.4,0.8,3.6,1.3
			c0.6,0.2,1.1,0.5,1.7,0.7c2.8,1.2,5.4,2.6,7.8,4c0.4,0.2,0.8,0.5,1.2,0.8c0.8,0.5,1.6,1,2.4,1.6c13.9,9.7,21.5,23.6,25.5,35.9
			c7.4,22.9,4.4,93.9,4.4,93.9s8.9,54.3,24.8,63.2C279.5,388.7,291.8,417.5,273.1,418.6z" class="st3"></path>
	</g>
	<path d="M280.2,365.2c0,0.5,0,0.9,0,1.3c0,0.3,0,0.7-0.1,1c0,0.3,0,0.7-0.1,1c-0.3,3.3-0.9,6.4-1.7,9.1
		c-0.8,2.8-1.7,5.3-2.8,7.4c-0.1,0.2-0.2,0.4-0.3,0.6c-0.2,0.5-0.5,1-0.7,1.5c0,0,0,0.1-0.1,0.1c-0.7,1.3-1.4,2.5-2,3.4
		c-0.1,0.2-0.3,0.4-0.4,0.7c-0.1,0.2-0.3,0.4-0.4,0.5c-0.2,0.2-0.3,0.5-0.5,0.7l-0.7,0.7l-1.4,1.4c0,0,0.2,3.1-0.3,4.2
		c-0.1,0.2-0.3,0.4-0.5,0.3l0,0c-1.3-0.6-1.5-2.1-1.4-3.2c-0.1,0.2-0.2,0.5-0.5,0.8c-0.2,0.3-0.5,0.7-0.8,1.1c0,0,0,0-0.1,0.1
		c-0.8,0.9-1.9,1.8-2.8,1.6c-1.5-0.3-0.5-2.3-0.5-2.3c-0.1,0-0.1,0.1-0.2,0.1c0,0-0.1,0.1-0.2,0.1c-1.7,1.1-9.3,5.4-21.3,8.5
		c-0.1,0-0.1,0-0.2,0c-3,0.8-6.3,1.5-9.8,2c-6.6,1-14.2,1.5-22.6,1.1c-0.9,0-1.7-0.1-2.6-0.2c-9.8-0.8-17.5-0.8-26.7-2.9
		c-14.6-3.3-27.6-11.9-36.5-23.9c-1.3-1.8-2.3-3.3-2.8-4.4c-0.2-0.5-0.4-1-0.6-1.6c-0.4-1-0.7-2.1-1-3.2c-0.1-0.5-0.3-1.1-0.4-1.6
		c-0.4-1.6-0.6-3.3-0.8-5c0-0.6-0.1-1.1-0.1-1.7c-0.1-1.3-0.1-2.6-0.1-4c0-0.7,0-1.3,0-1.9v-0.1c0.2-3.9,0.8-7.9,1.7-12
		c0.1-0.3,0.1-0.6,0.2-0.9c0.1-0.5,0.3-1,0.4-1.6c0.1-0.3,0.2-0.6,0.3-0.9c0.1-0.4,0.3-0.8,0.4-1.3c0.3-0.8,0.6-1.6,0.9-2.4
		c0.2-0.4,0.4-0.8,0.6-1.2c0.2-0.4,0.4-0.8,0.6-1.1c0.2-0.4,0.4-0.8,0.7-1.1c0.2-0.4,0.4-0.7,0.7-1.1c0.2-0.4,0.5-0.7,0.8-1.1
		c0,0,0,0,0-0.1c0,0,0,0,0-0.1c0.4-0.7,2.1-3.2,4-6.5c0.3-0.5,0.6-1,1-1.6c2.6-4.4,5.7-9.5,7.1-12.9c3-6.8,5.1-15.7,9.2-15.7h0
		c1.4,0,3.4,1.2,5.4,3.2c0.2,0.2,0.3,0.3,0.5,0.5c2,2.1,4,5,5.4,8.3c0.2,0.5,0.4,1.1,0.6,1.6c0.2,0.6,0.4,1.1,0.5,1.7
		c0.2,0.9,0.4,1.7,0.5,2.6c0,0,0,0,0,0c2-0.4,4.1-0.8,6.3-1.2c0.3-0.1,0.7-0.1,1-0.2c2.4-0.4,4.9-0.7,7.4-0.9
		c0.8-0.1,1.7-0.2,2.6-0.2h0c1.4-0.1,2.9-0.2,4.3-0.3c0,0,0,0,0,0c6.4-0.4,13.2-0.5,20.6-0.3c0.2,0,0.5,0,0.7,0c0.8,0,1.6,0,2.4,0.1
		c0.7,0,1.3,0.1,2,0.1c0.7,0,1.3,0.1,1.9,0.1h0c0.2,0,0.3,0,0.5,0c0.6,0,1.2,0.1,1.8,0.2l0.3-0.2c1.2-1.1,2.8-2.7,3-2.9
		c2.4-2.5,4-5.8,6.2-8.4c2.5-3.1,6-5.5,10-5.5c1,0,1.9,0.1,3,0.3c0.3,0.1,0.6,0.2,0.9,0.5c0,0,0,0,0,0c0.1,0.1,0.2,0.1,0.3,0.2
		c0.6,0.6,1,1.6,1.4,2.7c0.1,0.3,0.2,0.6,0.2,0.9c0.1,0.4,0.2,0.8,0.2,1.3c0,0.1,0,0.2,0,0.2c0.1,0.5,0.1,1,0.2,1.5c0,0,0,0.1,0,0.1
		c0.4,4.8-0.3,10.9-2,14.8c0,0.1-0.1,0.2-0.1,0.3c4.9,2.2,8.9,4.8,12.2,7.8c3.3,3,5.9,6.3,7.9,9.8c0.3,0.5,0.5,1,0.8,1.5
		c0.8,1.5,1.5,3,2.1,4.6c0.2,0.5,0.4,1,0.6,1.6c0,0.1,0.1,0.2,0.1,0.3v0c0.4,1.1,0.7,2.1,1,3.2c0.1,0.5,0.3,1,0.4,1.5
		c0.7,2.5,1.1,5.1,1.5,7.6c0,0.3,0.1,0.6,0.1,0.8c0,0.3,0.1,0.6,0.1,0.9c0.2,1.4,0.3,2.6,0.3,3.9c0,0,0,0,0,0.1c0,0,0,0.1,0,0.1
		C280.3,363,280.3,364.1,280.2,365.2z" class="st2"></path>
	<path d="M159.9,322.4c3.7-2.9,8-4.7,11.5-5.9c3.7-1.2,6.4-1.6,6.6-1.7c-1.2-9.3-9.2-17.9-13-17.9l0,0
		c-0.7,2.1-1.5,4.6-0.3,10.2c0.1,0.6,0.2,1.1,0.3,1.6C165.8,316.5,160.8,321.8,159.9,322.4z" class="st4"></path>
	<path d="M239,313.7c0,0,5.7,1.6,10.4,3c1.4,0.4,2.8,0.9,3.8,1.2c2.2-5.2,2.7-14,1.3-18.8c-0.4-1.4-0.9-2.4-1.6-3
		c0,0-2,0.8-3.7,5.4c-0.6,1.7-1.2,3.3-1.8,4.7C245.9,309.7,243.9,312.4,239,313.7z" class="st4"></path>
	<path d="M196.8,393.1c3.5,2.5,4.1,7.5,0,10c-5.5,3.4-15.8,2.7-20.6-1.7c-4.1-3.7-1.5-10.3,2.9-11.4
		c3.8-1,7.8-0.6,11.5,0.4C192.3,391,194.8,391.7,196.8,393.1z" class="st5"></path>
	<path d="M247.3,387.8c-2.8,2.4-2.9,6.7,0.8,8.5c4.9,2.4,13.6,1.1,17.4-3c3.2-3.4,0.5-8.9-3.4-9.5
		c-3.3-0.5-6.7,0.1-9.7,1.3C251,385.6,248.9,386.5,247.3,387.8z" class="st5"></path>
	<path d="M199.6,312c4.4,3.8,7.6,9.6,10.2,14c1.4,2.4,2.7,4.9,4,7.4c0.9,1.9,2.6,3.8,4.8,4.1c2.8,0.4,5.3-1.4,6.7-3.7
		c1.8-2.9,1.8-6.2,1.3-9.5c-0.7-4.6-2.8-8.9-5.7-12.6c-0.2,0-0.5,0-0.7,0C212.8,311.5,205.9,311.6,199.6,312z" class="st4"></path>
	<path d="M271.1,359.8c3,0.5,6.1-0.5,8.8-2c0-0.3-0.1-0.6-0.1-0.9c0-0.3-0.1-0.6-0.1-0.8c-0.4-2.5-0.9-5.1-1.5-7.6
		C272.4,353.7,265.5,358.9,271.1,359.8z" class="st4"></path>
	<path d="M272.2,367.5c2,1.2,5,1.3,7.8,1.1c0.1-0.7,0.1-1.3,0.2-2c0.1-1.5,0.1-3.1,0-4.7c0-0.1,0-0.1,0-0.2
		C274.4,363.3,268.7,365.4,272.2,367.5z" class="st4"></path>
	<path d="M271.7,346.3c1.7-0.2,3.4-1.2,5-2.5c0-0.1-0.1-0.2-0.1-0.3c-0.8-2.1-1.7-4.1-2.7-6.1
		C270.6,342.1,267.9,346.9,271.7,346.3z" class="st4"></path>
	<path d="M185.2,313.6c1.2,1.2,2.4,2.5,3.4,3.6c2.9,3.2,6,7.7,8.3,8.2c4.7,1,6.5-3.6,3.4-8.3c-1.4-2.1-3.4-3.6-5.1-4.6
		l0,0C191.7,312.7,188.4,313.1,185.2,313.6z" class="st4"></path>
	<path d="M234.7,320.8c-0.1,0-0.2,0.1-0.4,0.2c-0.9,0.4-2.1,0.4-3.4,0c-1.6-0.5-3.4-3-5.1-5.5c-0.9-1.3-1.7-2.5-2.5-3.5
		c0.7,0,1.3,0.1,2,0.1c0.7,0,1.3,0.1,1.9,0.1h0c0.2,0,0.3,0,0.5,0c0.6,0,1.2,0.1,1.8,0.2c0.3,0,0.7,0.1,1,0.1c0.1,0,0.2,0,0.4,0
		c1.6,1.1,3.4,2.7,5,4.7C236.9,318.4,236.2,320,234.7,320.8z" class="st4"></path>
	<path d="M274.5,387.2c-0.8,1.4-1.6,2.7-2.5,4c-0.4,0.7-0.9,1.3-1.4,1.9c-0.5,0.6-1,1.2-1.6,1.6l-0.1,0.1l0,0.2
		c0,0.7,0,1.4-0.1,2c-0.1,0.6-0.4,1.3-0.7,1.4c-0.2,0-0.3,0-0.4-0.2c-0.1-0.2-0.2-0.5-0.3-0.9c-0.1-0.6-0.2-1.3-0.2-2l0-1.7
		l-0.8,1.5c-0.3,0.6-0.7,1.3-1.1,1.9c-0.4,0.6-0.9,1.2-1.4,1.6c-0.3,0.2-0.6,0.4-0.8,0.4c-0.3,0-0.5,0-0.6-0.2
		c-0.2-0.5,0-1.3,0.2-1.9l0.3-0.8l-0.7,0.5c-1,0.7-2.2,1.3-3.3,1.8c-1.1,0.6-2.3,1-3.5,1.4c1.3-0.2,2.5-0.6,3.7-1
		c1.2-0.5,2.3-1,3.4-1.7l-0.4-0.4c-0.2,0.4-0.3,0.7-0.4,1.1c-0.1,0.4-0.1,0.8,0.1,1.3c0.1,0.2,0.3,0.5,0.6,0.6
		c0.1,0.1,0.2,0.1,0.4,0.1c0.1,0,0.2,0,0.4,0c0.5,0,0.9-0.3,1.2-0.5c0.7-0.5,1.1-1.1,1.6-1.8c0.4-0.6,0.8-1.3,1.2-2l-0.8-0.2
		c0,0.7,0,1.4,0.2,2.2c0.1,0.4,0.2,0.7,0.4,1.1c0.1,0.1,0.1,0.2,0.2,0.3c0.1,0.1,0.2,0.2,0.3,0.2c0.3,0.1,0.6,0.1,0.8,0.1
		c0.5-0.1,0.8-0.6,1-0.9c0.2-0.4,0.2-0.7,0.3-1.1c0.1-0.7,0.1-1.4,0.1-2.2l-0.1,0.3c0.7-0.6,1.1-1.2,1.6-1.9c0.5-0.7,0.9-1.3,1.3-2
		C273.1,390.1,273.8,388.7,274.5,387.2z" class="st6"></path>
	<g>
		<g>
			<path d="M177.6,390c5,3.3,12.7,4.4,18.3,2.2c1.2-0.5,2.3-1.1,3.3-1.9c4.3-3.6,6.7-10,6.7-15.6c0-0.1,0-0.3,0-0.4
				c-0.1-5.6-3.4-10.7-8.3-13.4c-5.8-3.1-14.4-4.2-19.7,0.4c-2.1,1.8-3.7,4.3-4.8,7.1l0,0C170.1,375.8,171,385.5,177.6,390z" class="st7"></path>
			<path d="M202.4,363.5c-1.4-1.5-3-2.8-4.8-3.7c-1.8-0.9-3.7-1.6-5.7-2c-3.9-0.8-8.1-0.7-11.8,1.2
				c-1.8,0.9-3.3,2.3-4.5,3.9c-1.2,1.5-2,3.2-2.7,5c0,0.1-0.1,0.1-0.1,0.2c-0.7,1.9-1.1,3.9-1.3,5.8c-0.2,2-0.1,4,0.2,6
				c0.3,1.7,0.9,3.5,1.7,5c0.1,0.2,0.2,0.4,0.3,0.6c0.5,0.9,1.1,1.7,1.8,2.4c0,0,0,0,0.1,0.1l0.4,0.4c0,0-0.1-0.1-0.1-0.1
				c-0.3-0.3-0.6-0.6-0.9-1c0,0,0,0,0,0c-0.3-0.4-0.6-0.8-0.8-1.2c-0.1-0.2-0.3-0.4-0.4-0.6c-1-1.7-1.6-3.6-1.8-5.6
				c-0.3-2-0.3-4,0-5.9c0.3-1.9,0.8-3.7,1.5-5.4l-0.2,0l0.3-0.2c0,0.1-0.1,0.2-0.1,0.2h0l0.1-0.2c0-0.1,0.1-0.2,0.1-0.3
				c0.7-1.6,1.6-3.2,2.8-4.6c1.2-1.5,2.6-2.7,4.3-3.4c1.7-0.8,3.5-1.2,5.4-1.3c1.9-0.1,3.7,0.1,5.6,0.5c3.6,0.8,7.1,2.5,9.6,5.2
				c0.6,0.7,1.2,1.4,1.7,2.2c0.5,0.8,0.9,1.6,1.3,2.5c0.3,0.8,0.6,1.7,0.8,2.6c0.1,0.4,0.1,0.9,0.2,1.4l0,0.6c0,0.3,0,0.5,0,0.7v0
				c0,3.3-0.6,6.6-2,9.6c-0.7,1.5-1.6,2.9-2.6,4.2c-1,1.3-2.3,2.4-3.8,3.2c-1.9,1-4.1,1.5-6.2,1.7c-1.2,0.1-2.4,0.1-3.5,0
				c-1.4-0.1-2.8-0.4-4.2-0.8c-0.7-0.2-1.3-0.4-1.9-0.6c-0.4-0.2-0.8-0.3-1.1-0.5c0.1,0.1,0.3,0.1,0.4,0.2c0.5,0.2,0.9,0.4,1.4,0.6
				c0.4,0.1,0.7,0.3,1.1,0.4c1.4,0.4,2.9,0.7,4.3,0.9c1.4,0.2,2.8,0.2,4.2,0.1c0.3,0,0.6,0,0.8-0.1c1.7-0.2,3.4-0.6,4.9-1.3
				c1.6-0.7,2.9-1.8,4.1-3.1c1.2-1.3,2.1-2.7,2.9-4.2c1.6-3.1,2.5-6.5,2.5-10C206.7,370.5,205.1,366.5,202.4,363.5z M177.6,390
				c0.4,0.2,0.7,0.5,1.1,0.7c0.1,0,0.2,0.1,0.3,0.1c0.3,0.1,0.6,0.3,0.8,0.4c-0.4-0.2-0.8-0.4-1.1-0.6
				C178.3,390.4,178,390.2,177.6,390z M176.8,389.4C176.8,389.4,176.8,389.4,176.8,389.4c0.3,0.3,0.6,0.4,0.8,0.6
				c-0.2-0.1-0.4-0.3-0.6-0.4C176.9,389.5,176.9,389.4,176.8,389.4z M176.2,388.8c0.1,0.1,0.2,0.2,0.2,0.2c0.1,0.1,0.2,0.2,0.3,0.3
				l-0.3-0.3C176.4,389,176.3,388.9,176.2,388.8z" class="st4"></path>
		</g>
		<path d="M189.2,388.7c-4.5,0.3-9.3-1.8-11.7-5.7c-3.8-6.2-1.3-15.4,5.2-18.6c3.5-1.7,8.1-1.8,11.6,0
			c9.4,4.7,7.5,19.5-1.6,23.5C191.7,388.3,190.5,388.6,189.2,388.7z" class="st4"></path>
		<path d="M173.1,368.3c20.3-7.8,31.5,4.7,32.8,6.3c0-0.1,0-0.3,0-0.4c-0.1-5.6-3.4-10.7-8.3-13.4
			c-5.8-3.1-14.4-4.2-19.7,0.4C175.8,363,174.2,365.5,173.1,368.3z" class="st8"></path>
	</g>
	<g>
		<g>
			<path d="M242.6,382.1c3.4,4.5,9.9,5.5,15.1,4.5c0.7-0.1,1.4-0.3,2.1-0.6c8.1-3.2,11.3-15.2,7-22.7
				c-0.4-0.8-1-1.5-1.6-2.2c-5.3-5.8-16.7-6.6-22.5-1.1c-1.4,1.3-2.1,3.3-2.6,5.1c-0.3,1.3-0.5,2.6-0.6,4.1
				C239.2,373.8,240.1,378.8,242.6,382.1z" class="st7"></path>
			<path d="M247.7,385.8c0,0-0.1,0-0.1-0.1l0,0.1C247.6,385.9,247.7,385.9,247.7,385.8c1.6,0.7,3.3,1,5.1,1.1
				c0,0,0.1-0.1,0.1-0.1C251.2,386.8,249.4,386.5,247.7,385.8z M269,366.1l-0.5-1.5c-0.2-0.5-0.5-0.9-0.7-1.4
				c-0.5-0.9-1.1-1.8-1.8-2.6c-2.8-3-6.8-4.5-10.8-4.8H255c-0.1,0-0.3,0-0.4,0c-2.1-0.1-4.2,0.1-6.2,0.7c-2,0.6-3.9,1.6-5.4,3
				c-0.8,0.6-1.5,1.6-1.9,2.5c-0.5,0.9-0.8,1.9-1,2.9c-0.5,2-0.6,4-0.6,6c0,2,0.2,4,0.7,6c0.4,1.5,0.9,2.9,1.7,4.3
				c-0.3-0.6-0.7-1.3-0.9-1.9c-0.2-0.4-0.3-0.8-0.4-1.3c-0.7-2.3-0.9-4.7-0.8-7c0-0.6,0.1-1.1,0.1-1.6c0.1-1.4,0.4-2.8,0.8-4.2
				c0.6-1.9,1.4-3.7,3-4.8c3-2.4,7.1-3.2,10.9-2.9c0,0,0.1,0,0.1,0c0,0,0.1,0,0.1,0c1.8,0.2,3.6,0.6,5.2,1.3
				c1.7,0.7,3.3,1.8,4.6,3.2c0.4,0.5,0.8,1,1.2,1.5c0.2,0.2,0.3,0.5,0.4,0.8c0.2,0.4,0.4,0.8,0.6,1.3l0.5,1.3
				c0.5,1.8,0.8,3.7,0.6,5.7c-0.1,2.2-0.6,4.4-1.5,6.5c-0.6,1.5-1.5,2.9-2.6,4.1c-1.3,1.4-2.9,2.5-4.8,3.3c-0.9,0.3-1.9,0.5-2.9,0.6
				c-1,0.1-2,0.2-3,0.2c-0.1,0-0.2,0-0.2,0c-1.8,0-3.5-0.4-5.2-1c0,0-0.1,0-0.1-0.1c-0.1,0-0.2,0-0.2-0.1c-0.9-0.4-1.8-0.9-2.6-1.5
				c-0.2-0.1-0.4-0.3-0.6-0.5c-0.2-0.2-0.4-0.4-0.6-0.6c0.1,0.1,0.2,0.2,0.3,0.3c0.2,0.2,0.3,0.3,0.5,0.4c0.1,0.1,0.3,0.3,0.5,0.4
				c0.3,0.2,0.6,0.4,0.9,0.6c0.4,0.3,0.8,0.5,1.3,0.7c0.1,0.1,0.2,0.1,0.4,0.2c0.1,0,0.2,0.1,0.2,0.1c0,0,0.1,0,0.1,0
				c1.6,0.7,3.3,1,5,1.2c0.2,0,0.3,0,0.5,0c1,0,2,0,3,0c1-0.1,2-0.2,3-0.5c1.9-0.6,3.8-1.7,5.2-3.2c1.5-1.4,2.6-3.2,3.4-5
				c0.8-1.9,1.4-4,1.6-6.1C269.6,370.3,269.5,368.1,269,366.1z M243.5,383.2c-0.3-0.3-0.6-0.7-0.9-1
				C242.9,382.5,243.2,382.8,243.5,383.2z" class="st4"></path>
		</g>
		<path d="M261.4,378.7c-0.3,0.3-2.8,4.8-10.1,3.8c-7.3-0.9-8.1-10.1-7.6-13.2s3.2-9.8,11.5-9
			C263.5,361.1,266.3,372.8,261.4,378.7z" class="st4"></path>
		<path d="M239.6,369.2c8.5-7,20.8-6.7,27.3-5.9c-0.4-0.8-1-1.5-1.6-2.2c-5.3-5.8-16.7-6.6-22.5-1.1
			c-1.4,1.3-2.1,3.3-2.6,5.1C239.9,366.4,239.7,367.8,239.6,369.2z" class="st8"></path>
	</g>
	<path d="M138.9,343.1c17.6,11.6,24.3-0.3,17-2.8c-4.9-1.7-9.3-4.7-12.3-6.7C141.5,336.5,139.9,339.6,138.9,343.1z" class="st4"></path>
	<path d="M136.3,358.5L136.3,358.5c0,0.4,0,0.8,0,1.1c6.5,3,14.6,5,21.2,2.6c2.5-0.9,4.7-3.1,4-5.6
		c-0.3-1-1-1.9-1.9-2.5c-2.7-2-6.5-2.5-9.9-3.1c-3.8-0.7-8.2-2.7-11.7-4.5C137,350.6,136.4,354.6,136.3,358.5z" class="st4"></path>
	<path d="M136.4,364.5c0.3,4.6,1.3,9,3,13.2c4.5,1.1,9.5,0.4,13.6-1.7c1.8-0.9,3.5-2.5,3.2-4.7
		c-0.4-2.9-4.2-3.5-6.6-3.7C143.2,367.3,138.7,365.7,136.4,364.5z" class="st4"></path>
	<g>
		<path d="M278.1,392.9c-2.8-1.2-5.6-2.1-8.5-3c-2.9-0.9-5.8-1.7-8.7-2.2c2.8,1.2,5.6,2.1,8.5,3
			C272.3,391.5,275.2,392.4,278.1,392.9z" class="st4"></path>
		<path d="M280.1,385.7c-2.9-0.5-5.8-0.7-8.7-0.9c-2.9-0.1-5.8-0.2-8.7-0.1c2.9,0.5,5.8,0.7,8.7,0.9
			C274.3,385.8,277.2,385.9,280.1,385.7z" class="st4"></path>
		<path d="M278.5,376.5c-2.8,0.8-5.5,1.9-8.2,3c-2.7,1.1-5.3,2.3-7.9,3.8c2.8-0.8,5.5-1.9,8.2-3
			C273.3,379.1,276,377.9,278.5,376.5z" class="st4"></path>
	</g>
	<path d="M168.9,313.9c0,0,2.1,0,2.7-0.4c0.6-0.4-2.6-0.8-2.6-0.8c1.7-0.6,3.1-2.4,2.6-2.4c-0.6-0.1-2.5,1.2-2.5,1.2
		c2.2-2.7,1.1-7.1-1.1-7c-0.9,0-2.1,2-3.1,4.3c0.9,7.8-4.1,13-5,13.7c3.7-2.9,8-4.7,11.5-5.9C170.9,315,168.9,313.9,168.9,313.9z" class="st7"></path>
	<path d="M249.4,316.7c-0.2-1.8-1.8-4.3-2-4.5c0.1,0.1,1.6,0.8,2.3,0.5c0.8-0.4-1.6-1.5-1.6-1.5s1.9,0.3,2.1-0.3
		c0.2-0.5-1.7-0.5-1.7-0.5c1.4-0.7,4.2-4.2,2.6-5.4c-1.1-0.7-2.6,0.3-3.6,1.2c-1.5,3.5-3.5,6.2-8.3,7.5
		C239,313.7,244.7,315.3,249.4,316.7z" class="st7"></path>
	<path d="M155.9,395.1c-0.2,1.2-0.4,2.3-0.6,3.5c-0.1,1.1-0.1,2.4,0.2,3.3c0.3,0.9,1.4,0.6,2-0.2
		c0.7-0.8,1.1-1.9,1.5-2.9l1.4-4.5l0,4.8c0,1,0.1,2,0.2,3c0.2,0.9,0.5,1.9,0.9,2.3c0.1,0.1,0.2,0.1,0.3,0.1c0.1,0,0.2,0,0.3-0.1
		c0.2-0.1,0.4-0.3,0.5-0.7c0.3-0.8,0.3-1.8,0.3-2.7l-0.1-1.6l1.4,0.7c3.4,1.8,7.1,3.3,10.7,4.5c1.9,0.6,3.7,1.1,5.7,1.5
		c1.9,0.4,3.9,0.6,5.8,0.8c-2,0.2-4,0.2-6,0c-2-0.2-4-0.6-5.9-1.1c-3.9-1-7.6-2.4-11.2-4.3l1.3-0.8c0.1,1.2,0,2.3-0.4,3.5
		c-0.2,0.6-0.6,1.3-1.4,1.7c-0.4,0.2-0.8,0.2-1.2,0.2c-0.4,0-0.8-0.2-1.2-0.5c-1.1-1.1-1.2-2.3-1.4-3.4c-0.1-1.1-0.2-2.2-0.1-3.3
		l1.5,0.3c-0.5,1.2-1,2.3-2,3.3c-0.5,0.5-1.1,0.9-1.9,1c-0.4,0-0.8,0-1.2-0.3c-0.4-0.2-0.6-0.6-0.7-1c-0.4-1.4-0.1-2.5,0.2-3.7
		C155,397.4,155.4,396.2,155.9,395.1z" class="st6"></path>
	<path d="M254.2,348.4c-0.2,0.2-0.4,0.5-0.3,0.8c0,0.3,0.2,0.6,0.4,0.8c1.6,1.8,3.7,3.1,5.8,4.2c1,0.5,2.1,1,3.2,0.7
		c0.7-0.2,1.3-0.6,1.8-1.2c1.7-2.1,0.9-5.9-1.8-6.8C260.9,346.2,255.8,346.5,254.2,348.4z" class="st4"></path>
	<path d="M174.9,354.4c0.1,0.8,0.4,1.5,0.9,2.1c0.6,0.6,1.5,0.8,2.3,0.8s1.6-0.3,2.4-0.7c2.4-1.1,4.6-2.8,6.4-4.9
		c0.3-0.3,0.5-0.6,0.6-1c0.2-0.6-0.1-1.3-0.5-1.8c-0.4-0.5-1.1-0.8-1.7-1c-2.4-0.8-5.9-0.6-8.3,0.3
		C174.5,349.1,174.5,352.1,174.9,354.4z" class="st4"></path>
	<g>
		<path d="M231.4,376.6c2.7,0.6,5.3,2.3,6.9,4.9c2.3,3.8,2.7,8.5-0.2,12c-1.8,2.1-4.3,3.3-6.8,4
			c-4.9,1.4-9.8,2.4-14.7,1c-1.8-0.5-3.6-1.3-5.1-2.6c-2.3-2-3.6-5.2-3.6-8.4c0-3.2,1.4-6.4,3.7-8.3c2.8-2.3,7-3.1,10.4-3
			C225,376.3,228.4,375.9,231.4,376.6z" class="st5"></path>
		<path d="M224.5,373c0,0,2.8-3.5,4.3-2.8c1.4,0.6-2.8,5.9-4.4,6.4c-1.6,0.5-5.2-5.1-4.3-6.2
			C220.9,369.3,224.5,373,224.5,373z" class="st4"></path>
		<path d="M221.3,394.3c0.3-6,1.2-12,2.2-17.9l0.5-3l1.2,2.8c2.3,5.5,4.5,11.1,6.2,16.9c-3-5.3-5.5-10.7-7.9-16.2
			l1.7-0.2C224.2,382.7,223,388.5,221.3,394.3z" class="st4"></path>
	</g>
	<g>
		<g>
			<path d="M178.7,144.4c-1.4,14.4-8.5,28.3-15.5,40.6c-0.5,0.8-0.9,1.6-1.4,2.4l-12.4-10c0,0,0.8-1.1,1.8-3.2
				c2.2-4.3,5.5-12.8,5.8-24.3c0.1-5.1-0.3-10.7-1.8-16.9c-3-13.3-8-22.6-13.4-32.1c-4.1-7-8.4-14.2-12.5-23.1
				c-1.5-3.2-2.9-6.7-4.3-10.5c-5.1-14-1.4-29.3,5.5-40.4c7-11.2,17.1-18.3,24.7-15.9c12.3,3.9-0.6,20.5-5.5,35.5v0
				c-1.1,3.4-1.8,6.6-1.7,9.7c0.4,11,6.6,22.1,11.5,31.7c2.8,5.5,5.8,11,8.8,16.4c0.1,0.2,0.2,0.4,0.4,0.6c4,7.4,7.4,15.3,9,23.6
				C178.8,133.8,179.2,139.1,178.7,144.4z" class="st2"></path>
			<path d="M178.7,144.4c-1.4,14.4-8.5,28.3-15.5,40.6c-0.5,0.8-0.9,1.6-1.4,2.4l-12.4-10c0,0,0.8-1.1,1.8-3.2
				c2.2-4.3,5.5-12.8,5.8-24.3c0.1-5.1-0.3-10.7-1.8-16.9c-3-13.3-8-22.6-13.4-32.1c-4.1-7-8.4-14.2-12.5-23.1
				c-1.5-3.2-2.9-6.7-4.3-10.5c-5.1-14-1.4-29.3,5.5-40.4c7-11.2,17.1-18.3,24.7-15.9c12.3,3.9-0.6,20.5-5.5,35.5v0
				c-1.1,3.4-1.8,6.6-1.7,9.7c0.4,11,6.6,22.1,11.5,31.7c2.8,5.5,5.8,11,8.8,16.4c0.1,0.2,0.2,0.4,0.4,0.6c4,7.4,7.4,15.3,9,23.6
				C178.8,133.8,179.2,139.1,178.7,144.4z" class="st3"></path>
		</g>
		<path d="M149.7,46.7c-2.9-7.8,2.9-19,3.2-19.5c-7.8,5.9-16.7,3-22.4,0c7-11.2,17.1-18.3,24.7-15.9
			C167.6,15.1,154.6,31.7,149.7,46.7z" class="st4"></path>
		<path d="M141.8,101.1c-4.1-7-8.4-14.2-12.5-23.1c5.2,1.3,12,4,15.3,9.7C147.7,93,144.9,97.8,141.8,101.1z" class="st4"></path>
		<path d="M177.8,128.7c-3.9-1.1-10.5-3.8-12-9.5c-1.4-5.1,0.8-10.9,2.6-14.7c0.1,0.2,0.2,0.4,0.4,0.6
			C172.7,112.6,176.1,120.5,177.8,128.7z" class="st4"></path>
		<path d="M161.8,167.2c-1.7,6.1-6.7,7.3-10.6,7.2c2.2-4.3,5.5-12.8,5.8-24.3C160.1,154.3,163.6,160.9,161.8,167.2z" class="st4"></path>
	</g>
	<path d="M114,386.3c-1.3-0.1-2.5-0.3-3.8-0.5c-1.3-0.2-2.5-0.5-3.7-1.1c-0.3-0.2-0.6-0.3-0.8-0.7
		c-0.3-0.3-0.2-0.9,0.1-1.2c0.6-0.5,1.3-0.6,1.9-0.8c1.3-0.2,2.6-0.3,3.9-0.3l-0.3,0.8c-1.7-1.2-3.4-2.4-5-4
		c-0.4-0.4-0.8-0.8-1.1-1.5c-0.1-0.1-0.1-0.6,0-0.8c0.1-0.2,0.3-0.4,0.5-0.6c0.4-0.2,0.7-0.3,1-0.3c1.2-0.1,2.3,0.2,3.3,0.5
		l-0.8,0.9c-2.7-7-4.4-14.3-5.9-21.6c-1.5-7.3-2.5-14.7-3.2-22.1c-0.6-7.4-1-14.9-0.8-22.3c0.1-7.4,0.7-14.9,1.6-22.3
		c-0.1,3.7-0.4,7.4-0.4,11.1c0,3.7-0.2,7.4,0,11.1l0.1,5.6l0.3,5.5c0.1,1.9,0.2,3.7,0.4,5.5c0.2,1.8,0.3,3.7,0.5,5.5
		c0.7,7.4,1.9,14.7,3.2,22c1.4,7.3,3.2,14.5,5.5,21.4l0.4,1.3l-1.3-0.4c-0.9-0.3-2-0.6-2.8-0.6c-0.5,0-0.6,0.2-0.5,0.1
		c0.1,0.3,0.4,0.7,0.7,1.1c1.4,1.5,3.1,2.8,4.7,4l1.2,0.9l-1.4-0.1c-1.2-0.1-2.5,0-3.7,0.1c-0.6,0.1-1.2,0.2-1.6,0.5
		c-0.4,0.3,0,0.7,0.5,1c1.1,0.6,2.3,0.9,3.5,1.2C111.5,385.8,112.7,386.1,114,386.3z" class="st6"></path>
	<path d="M115,401.1c-1.9-0.8-3.9-1.1-5.9-1.4c-2-0.2-4-0.3-6-0.3c-2,0-4,0.1-6,0.2c-1,0.1-2,0.2-3,0.2
		c-1,0.1-2,0.2-3.1,0.2c1-0.4,1.9-0.7,2.9-1.1c1-0.3,2-0.5,3-0.8c2-0.4,4.1-0.6,6.2-0.6c2.1,0,4.2,0.2,6.2,0.7
		C111.4,398.9,113.4,399.7,115,401.1z" class="st6"></path>
	<path d="M199.8,455.8c0.7-1.5,1.3-2.9,1.6-4.4c0.3-1.5,0.5-2.9,0.2-4.4c-0.2-1.4-0.6-2.9-1.2-4.2
		c-0.3-0.7-0.7-1.3-1-2.1c-0.4-0.7-0.8-1.3-1.2-2.1c0.7,0.5,1.3,1,1.9,1.5c0.5,0.6,1.2,1.2,1.6,1.9c1,1.4,1.5,3,1.8,4.7
		c0.2,1.7-0.1,3.5-0.7,5C202.1,453.4,201.1,454.8,199.8,455.8z" class="st4"></path>
	<path d="M207.8,435.9c1.2,0.5,2.3,1.2,3.2,2.1c1,0.8,1.8,1.8,2.5,3c0.7,1.1,1.3,2.3,1.5,3.7c0.2,1.3,0.1,2.8-0.6,3.9
		c-0.1-1.3-0.4-2.4-0.8-3.5c-0.4-1.1-1-2.1-1.6-3.1C210.9,439.9,209.3,438,207.8,435.9z" class="st4"></path>
	<path d="M270.5,418.7c0.9-2.4,1.7-4.6,1.9-6.9c0.1-1.1,0.1-2.3-0.1-3.5c-0.1-1.2-0.6-2.3-0.9-3.6
		c1,0.9,1.8,1.9,2.2,3.2c0.5,1.2,0.7,2.6,0.5,4c-0.1,1.3-0.5,2.6-1.2,3.8C272.4,416.8,271.5,417.9,270.5,418.7z" class="st4"></path>
	<path d="M107.8,398.8c0.9,0.7,1.5,1.6,2,2.6c0.4,1,0.7,2.1,0.7,3.2c0,2.2-0.6,4.5-2.1,6.1c0-1.1,0.2-2.1,0.3-3.1
		c0.1-1,0.1-2,0.1-2.9c0-1-0.1-1.9-0.3-2.9C108.3,400.8,108.1,399.8,107.8,398.8z" class="st4"></path>
	<path d="M92.4,412.1c1.2-2.1,2.3-4.1,2.7-6.2c0.2-1,0.2-2.1,0.1-3.2c-0.1-1.1-0.5-2.2-0.8-3.4c0.9,0.8,1.8,1.8,2.1,3
		c0.5,1.2,0.5,2.6,0.3,3.9c-0.3,1.3-0.8,2.5-1.6,3.5C94.5,410.7,93.5,411.6,92.4,412.1z" class="st4"></path>
	<path d="M239.6,286.5c-0.1,0-0.1,0-0.2,0c-2.4-0.5-4.7-1.1-7-1.6c-10.2-2-20.8-1.4-31.2-0.3
		c-5.9,0.6-11.8,1.4-17.7,1.8c-1.9,0.1-3.9,0.2-5.6-0.5c-1.8-0.7-3.3-2.3-3.4-4.2c0-2.3,2.1-4,4.1-5.2c5.9-3.4,12.7-4.9,19.4-5.9
		c5.3-0.7,10.7-1.1,16-1.1c8.6,0,16.9,1.2,25.3,3c0.1,0,0.1,0,0.2,0.1C239.6,277.4,239.6,282.1,239.6,286.5z" class="st4"></path>
	<path d="M238.8,251.5c-0.1,0-0.1,0-0.2,0c-6.8-0.7-13.5-1.8-20.3-1.9c-10.9-0.2-21.7,2-32.7,2c-1.8,0-3.7-0.1-5.4-0.9
		c-1-0.5-2-1.3-2.3-2.4c-0.1-0.5-0.1-1.1,0.1-1.6c0.9-4.3,5.2-6.9,9.2-8.5c8.5-3.4,17.7-4.6,26.8-4.7c7.7-0.1,15.3,0.7,23,1.6
		c0.1,0,0.1,0,0.2,0C237.9,240,238.4,245.6,238.8,251.5z" class="st4"></path>
	<path d="M225.7,204c0,0-0.1,0-0.1,0c-9.6-1.4-19.4-1.5-29-0.5c-5.5,0.6-11,1.5-16.4,1.1c-1.8-0.1-4-0.7-4.6-2.5
		c-0.4-1.1,0.1-2.4,0.7-3.4c2.4-3.9,7-5.7,11.5-6.8c3.8-0.9,7.6-1.5,11.5-1.9c4.4-0.5,8.8-0.6,13.3-0.6c0,0,0.1,0,0.1,0
		C217.8,193.7,222.2,198.7,225.7,204z" class="st4"></path>
	<path d="M187.7,428.1c-0.2,1.7-1.4,3-2.7,4.1c-3.6,3.2-7.8,5.6-11.5,8.7c-2,1.6-3.9,3.4-5.4,5.4c0,0,0,0,0,0
		c-0.7-0.3-1.5-0.7-2.3-1c-0.6-0.3-1.3-0.6-1.9-0.9c-1.1-0.5-2.3-1.1-3.4-1.7c-0.8-0.4-1.5-0.8-2.2-1.2c-0.6-0.4-1.2-0.7-1.8-1.1
		c-1.3-0.8-2.6-1.6-3.8-2.4c0,0-0.1,0-0.1-0.1c-2.1-1.4-4.1-2.8-6-4.3c0,0,0,0,0,0c2.8-2.1,5.8-3.8,8.9-5.4c7.8-4,16.6-6.9,25.3-5.7
		c1.6,0.2,3.3,0.6,4.6,1.5C186.9,424.9,187.9,426.5,187.7,428.1z" class="st4"></path>
	<path d="M148.3,416.1c-3,2.2-6.8,3-10.2,4.5c-1.1,0.5-2.2,1.1-3.3,1.8c0,0,0,0-0.1,0c-3.7-4.1-6.9-8.3-9.6-12.3
		c0,0,0.1,0,0.1,0c3.8-1.5,7.9-2.4,11.9-2.9c3.2-0.4,6.6-0.6,9.7,0.5c1.8,0.6,3.6,1.8,3.9,3.7C151.2,413.2,149.8,415,148.3,416.1z" class="st4"></path>
	<path d="M95.3,380.3c-0.6,2-3,2.7-5.1,3c-3.6,0.5-7.1,0.8-10.7,0.8c-0.1,0-0.1,0-0.2,0c-0.1-3.4-0.1-7.2-0.1-11.3
		c0.1,0,0.1,0,0.2,0c1.8,0.2,3.6,0.5,5.3,0.6c3,0.3,6.2,0.6,8.6,2.4C94.7,377,95.8,378.7,95.3,380.3z" class="st4"></path>
	<path d="M89.9,352.8c-3.2,1.2-6.8,1.2-10.2,0.9c-0.1,0-0.1,0-0.2,0c0.1-3.6,0.2-7.4,0.4-11.3c0.1,0,0.1,0,0.2,0
		c1.4,0.1,2.7,0.2,4,0.4c2.5,0.4,5.1,1.1,7.2,2.6C94.7,347.7,93.4,351.5,89.9,352.8z" class="st4"></path>
	<path d="M152.4,225.7c-0.9,2.4-3.7,3.4-6.2,4.1c-12,3.2-31.3,6.1-57.3,13.8c-0.1,0-0.1,0-0.2,0.1
		c2.2-9.1,4.9-17.4,8.2-24.9c0.1,0,0.1-0.1,0.2-0.1h0c6.6-1.8,13.5-2.8,20.3-3.5c9.6-0.9,19.6-1.1,28.6,2.2c1.8,0.7,3.6,1.5,4.9,2.9
		C152.3,221.8,153.1,223.9,152.4,225.7z" class="st4"></path>
	<path d="M119,261.9c-0.1,2.5-2.8,4-5.2,4.8c-6.6,2.3-13.3,3.9-19.8,6.3c-3.4,1.2-6.8,2.7-10.3,3.8
		c-0.1,0-0.1,0-0.2,0.1c0.5-5.4,1.1-10.7,1.9-15.7c0.1,0,0.1-0.1,0.2-0.1c4.3-1.5,9.1-2.3,13.2-3c4.3-0.7,8.7-1,13.1-0.8
		c1.6,0.1,3.2,0.2,4.6,0.9C117.8,258.9,119,260.3,119,261.9z" class="st4"></path>
	<polygon points="275.7,278.1 288.8,274.9 281.3,293.6 290.8,293.6 273.3,318.9 278.5,300 271.9,300.2" class="st2"></polygon>
	<polygon points="310,296.4 321.1,304 302.2,310.9 308.5,318 278,321.9 295.6,313.1 291,308.4" class="st2"></polygon>
	<g>
		<path d="M419,429.4c-1.3-12.8-8.7-23.2-22.2-24.6c-7.4-0.7-15.6,1.1-21.8,5.3c-8.6,5.8-11.3,17.3-15,26.3
			c-0.3,0.7-0.5,1.3-0.8,2c-0.9,2.1-1.9,4-3.2,5.8c-1,1.5-2.2,2.9-3.7,4.2c0,0-0.1-0.1-0.1-0.1c-0.9-1-1.8-2.1-2.4-3.3
			c-0.3-0.5-0.5-0.9-0.7-1.4c-1.1-2.7-1.4-5.8-0.5-9.2c4.6-18.6,18.4-22.6,13.8-34.4c-4.6-11.7-15.8-17.6-10.7-30.7
			c0,0-5.7-1.4-11.5,9c-5.9,10.3,10.1,16,10.1,24.3c0,8.3-20.4,23.2-16.2,38.4c0.6,2.3,1.4,4.6,2.5,7c0.8,1.9,1.7,3.8,2.8,5.7
			c0,0,0,0,0,0c-0.3,0-0.5,0.1-0.8,0.1c-0.6,0.1-1.3,0.1-1.9,0.1c-0.3,0-0.7,0-1,0c-18.4-0.2-19.6-28.9-18.8-40.7
			c0.8-11.7-3.4-25.4-17-28.6c-13.6-3.1-18.4,8.4-14,14.6c4.5,6.2,10.9,7.8,11.9,9.3c0.6,0.9-0.7,11.8-0.4,24.9
			c0.2,9.3,1.1,19.7,4.1,28.2c6.7,19.2,31.9,22.4,48.5,14.8c0,0,0,0,0,0c0.5-0.2,1-0.5,1.5-0.7c2.6-1.3,4.9-3,7.1-4.9c0,0,0,0,0,0
			c0.1,0,0.2,0.1,0.3,0.1c2.7,1.1,5.8,1.9,9.1,2.4c3.9,0.6,8.1,0.7,12.9,0.3C411.5,470.9,421.6,455.9,419,429.4z M378.7,436.4
			c1.4-2.7,2.7-5.2,4-7.2c5.1-5.8,12.4-5.4,16.8-1.1c6.3,6.1,6.9,27.1-10.5,29.9c-2.8,0.5-5.9,0.6-9.1,0.5c-1.7-0.1-3.5-0.2-5.3-0.4
			c-1.5-0.2-3-0.4-4.5-0.8c0,0,0,0-0.1,0c0.6-0.9,1.1-1.8,1.7-2.7c0,0,0,0,0-0.1c0.3-0.4,0.5-0.8,0.8-1.3c0-0.1,0.1-0.1,0.1-0.2
			c0,0,0,0,0,0c2.3-4.1,4.1-8.4,5-12.9C378,438.8,378.3,437.5,378.7,436.4C378.7,436.4,378.7,436.4,378.7,436.4z M378.7,436.4
			c1.4-2.7,2.7-5.2,4-7.2C381.2,430.9,379.8,433.3,378.7,436.4z" class="st2"></path>
		<path d="M298.4,396.5c0,1-0.8,1.8-1.8,1.8c-1,0-1.8-0.8-1.8-1.8c0-1,0.8-1.8,1.8-1.8
			C297.6,394.7,298.4,395.5,298.4,396.5z" class="st4"></path>
		<path d="M374.6,458c-1.1,4-3.1,10-6.7,15.2c-3.4-0.5-6.5-1.3-9.3-2.5c0,0,7.5-7.5,11.6-13.5
			C371.6,457.6,373.1,457.8,374.6,458z" class="st5"></path>
		<path d="M372.6,453.3c-0.3,0.4-0.5,0.9-0.8,1.3c0.3-0.6,0.6-1.1,0.9-1.5C372.6,453.1,372.6,453.2,372.6,453.3z" class="st0"></path>
		<path d="M352.1,448.3c-4.6,3.8-10.7,5.1-12.8,5.4c-1.1-1.9-2-3.8-2.8-5.7c4.5-0.8,10-2.2,13.3-3.1
			C350.4,446.1,351.2,447.2,352.1,448.3z" class="st5"></path>
		<path d="M407.1,452c-12.1,19-38.8,8-38.8,8s-3.6,4.4-9.5,10.8c-0.1,0-0.2-0.1-0.3-0.1c0,0,0,0,0,0
			c-2.1,1.9-4.5,3.6-7.1,4.9c-0.5,0.3-1,0.5-1.5,0.7c0,0,0,0,0,0c-16.6,7.6-41.8,4.4-48.5-14.8c-2.9-8.5-3.9-18.9-4.1-28.2
			c1.5,17.6,7.6,38.8,28.2,42.3c31.3,5.3,44-21.9,53.2-39.3c-0.4,1.1-0.7,2.4-1,3.8c-0.9,4.5-2.7,8.8-5,12.9c0,0,0,0,0,0
			c-0.1,0.1-0.1,0.1-0.1,0.2c-0.3,0.4-0.5,0.9-0.8,1.3c0,0,0,0,0,0.1c-0.5,0.9-1.1,1.8-1.7,2.7c0,0,0,0,0.1,0c1.5,0.3,3,0.6,4.5,0.8
			c1.8,0.2,3.5,0.4,5.3,0.4c3.2,0.1,6.3-0.1,9.1-0.5c17.4-2.8,16.8-23.9,10.5-29.9c-4.4-4.2-11.6-4.6-16.8,1.1c0,0,0-0.1,0-0.1
			C392.4,413.7,419.2,433.1,407.1,452z" class="st9"></path>
	</g>
</g>
</svg>
