<svg xml:space="preserve" style="enable-background:new 0 0 500 500;" viewBox="0 0 500 500" y="0px" x="0px"
     xmlns="http://www.w3.org/2000/svg" id="图层_1" version="1.0">
<style type="text/css">
	.st0{fill:#F29443;}
	.st1{opacity:0.2;fill:#A3332F;}
	.st2{fill:#A3332F;}
	.st3{fill:#F8BF8E;}
	.st4{fill:#FFFFFF;}
	.st5{fill:#EA5554;}
	.st6{opacity:0.42;fill:#FFFFFF;}
	.st7{opacity:0.48;fill:#DA4A47;}
	.st8{opacity:0.48;fill:#A3332F;}
	.st9{opacity:0.21;fill:#A3332F;}
	.st10{opacity:0.48;}
</style>
<g>
	<g>
		<path d="M90,366.4c-43.1,0.9-44-72.5-44-72.5S31.6,297.3,30,286l-0.1-0.7c-0.3-3.1,0.3-7.1,2.3-12.4
			c7.8-21.5-10.3-58.6-12.1-74.8c-0.4-3.8,0.1-6.4,2-7.5c10.1-5.6,22.5,16.6,27,32.7s2.8,43.2,2.8,43.2
			c26.6-26.9,74.7-20.8,74.7-20.8S133.1,365.5,90,366.4z" class="st0"></path>
		<path d="M90,366.4c-43.1,0.9-44-72.5-44-72.5S31.6,297.3,30,286l-0.1-0.7c-0.3-3.1,0.3-7.1,2.3-12.4
			c7.8-21.5-10.3-58.6-12.1-74.8c-0.4-3.8,0.1-6.4,2-7.5c10.1-5.6,22.5,16.6,27,32.7s2.8,43.2,2.8,43.2
			c26.6-26.9,74.7-20.8,74.7-20.8S133.1,365.5,90,366.4z" class="st1"></path>
	</g>
	<g>
		<g>
			<path d="M449.6,305.9c-2.4,1.1-4.6,2.3-6.3,3.8c-4.7,4.1-10,14.8-15.8,27.7c-3.7,8.3-7.6,17.4-11.8,26.1
				c-4.3,9.2-8.8,17.9-13.6,25c-16.5,24.6-44.2,39.1-87,15.2c0,0-16.1-7.7,8.4-20.7c0,0,20,21.4,44.9,9.1c0.2-0.1,0.4-0.2,0.7-0.4
				c7.8-4,13.5-10.8,18.3-19.3c7.7-13.7,13-31.8,21.1-49.7c2.5-5.6,5.3-11.1,8.5-16.5c2.8-4.7,5.8-8.6,9.2-11.9
				c17-17,39.3-16.4,48.4-9.8c1.9,1.3,3.2,2.9,3.8,4.7C481.9,299.4,462.3,300.2,449.6,305.9z" class="st0"></path>
			<path d="M449.6,305.9c-2.4,1.1-4.6,2.3-6.3,3.8c-4.7,4.1-10,14.8-15.8,27.7c-3.7,8.3-7.6,17.4-11.8,26.1
				c-4.3,9.2-8.8,17.9-13.6,25c-16.5,24.6-44.2,39.1-87,15.2c0,0-16.1-7.7,8.4-20.7c0,0,20,21.4,44.9,9.1c0.2-0.1,0.4-0.2,0.7-0.4
				c7.8-4,13.5-10.8,18.3-19.3c7.7-13.7,13-31.8,21.1-49.7c2.5-5.6,5.3-11.1,8.5-16.5c2.8-4.7,5.8-8.6,9.2-11.9
				c17-17,39.3-16.4,48.4-9.8c1.9,1.3,3.2,2.9,3.8,4.7C481.9,299.4,462.3,300.2,449.6,305.9z" class="st1"></path>
		</g>
		<path d="M449.6,305.9c2.5-5.2,8.5-12.4,22.8-16.2c0,0,0-2.6,2.2-5c1.9,1.3,3.2,2.9,3.8,4.7
			C481.9,299.4,462.3,300.2,449.6,305.9z" class="st2"></path>
		<path d="M427.4,317.6c-3.3,7.1-12.6,6.6-19,5.2c2.5-5.6,5.3-11.1,8.5-16.5c2.8-4.7,5.8-8.6,9.2-11.9
			C428.4,299.2,431.5,309,427.4,317.6z" class="st2"></path>
		<path d="M427.5,337.4c-3.7,8.3-7.6,17.4-11.8,26.1c-2.2-5.6-3.9-13.2-0.1-19.6C419.1,338.1,423.8,337,427.5,337.4z" class="st2"></path>
		<path d="M384.9,392.3c-5.4,3.2-11.4,1.7-15.8-0.5c7.8-4,13.5-10.8,18.3-19.3C389.5,378.1,392,388.1,384.9,392.3z" class="st2"></path>
	</g>
	<path d="M380.9,277.3c-2.2,7.1-5.5,14.2-10,21.1c-1.1,1.6-2.2,3.3-3.4,4.9c0,0,0,0.5-0.1,1.6
		c-0.2,4.2-1.2,16.9-5.3,33.2c-1.8,7.4-4.4,15.6-7.7,24c-2.7,6.9-6.1,14-10.1,21.1c-4,7-8.7,14-14.2,20.7
		c-6.1,7.4-13.2,14.5-21.4,20.9c-6.9,5.4-14.6,10.3-23.2,14.5c-6.3,3.1-13.2,5.9-20.5,8.2c-3,0.9-5.9,1.8-8.9,2.5
		c-12.1,3-23.9,4.5-35.3,4.8c-11.6,0.3-22.7-0.6-33-2.2c-10.9-1.7-21-4.2-29.9-7.1c-26.2-8.3-42.9-19-42.9-19s-27.7,17.4-47.6,7.2
		c-20-10.3-15.2-55.1-24.2-70.5c-3.8-6.5-8.1-14.7-7.4-22.6c0.2-2.5,1.5-5.5,3.5-7.1c4.7-4,10.6,3.3,13.4,6.5
		c10.3,11.6,18.3,25.7,21,41.1c0.5,3.1,0.8,6.2,0.7,9.3c0,0,2.1-7.6,7.1-16.7c2-3.6,4.4-7.3,7.3-10.9c0,0-21.3-84.2,42.8-116.3
		c26.6-13.4,42.9-27.5,52.9-39.4c14-16.8,15.4-29.4,15.4-29.4l157-8.1c0,0,6.4,8.5,13.1,22.2c2.7,5.4,5.3,11.5,7.7,18.2
		c1.8,5.2,3.5,10.8,4.7,16.6c1.5,7,2.5,14.3,2.7,21.9C385,257.9,383.9,267.7,380.9,277.3z" class="st0"></path>
	<path d="M249.5,293.5c1.1,2.7,3.3,5.5,6.3,8.4v0c-5.1,10.9-12.8,21.7-24.4,29.8c-11.8-10-38.7-26.2-80.8-14.7
		c-30.6,8.4-50.2,28.4-62,45.7c0,0-21.3-84.2,42.8-116.3c26.6-13.4,42.9-27.5,52.9-39.4c9.2-3.4,27.8-7.4,51.3,2.9
		c33.9,14.8,30.3,46.2,30.3,46.2C242.2,264.7,243,277.9,249.5,293.5z" class="st3"></path>
	<path d="M293.9,385.2c0,13.1-14.4,10.5-13.4,10.5c0-0.8-54.4-78.6-107-153.8c-4.6-6.6-9.2-13.2-13.8-19.7
		c-44.1-63-83.3-118.9-83.3-118.9l9.7-5.8l81.5,112.8l17.6,24.3L293.9,385.2z" class="st4"></path>
	<path d="M185.2,234.8c-3.2,3.4-7.9,5.7-11.7,7.1c-4.6-6.6-9.2-13.2-13.8-19.7l7.9-11.8L185.2,234.8z" class="st1"></path>
	<path d="M201.2,168.8c0,38.7-27.7,71-64.3,78.1c-4.9,1-10,1.5-15.3,1.5c-44,0-79.6-35.6-79.6-79.6
		c0-30.4,17.1-56.9,42.2-70.3c11.1-5.9,23.9-9.3,37.4-9.3C165.6,89.2,201.2,124.8,201.2,168.8z" class="st5"></path>
	<path d="M81.3,373.7c2-3.6,4.4-7.3,7.3-10.9c-2.6,3.8-4.8,7.4-6.6,10.8C81.7,373.6,81.5,373.7,81.3,373.7z" class="st3"></path>
	<path d="M51.6,206.8c13.9-2.1,27.3-5.5,40.4-9.8c6.5-2.2,13-4.6,19.2-7.5c6.3-2.8,12.5-5.8,18.3-9.3
		c11.9-6.8,22.9-15,32.8-24.5c9.9-9.5,18.5-20.4,26.3-32.1c-5.3,13-12.9,25.2-22.5,35.7l-3.6,3.9c-1.3,1.3-2.6,2.5-3.9,3.7
		c-1.3,1.3-2.6,2.4-4,3.6c-1.4,1.1-2.7,2.4-4.1,3.5c-5.6,4.4-11.6,8.4-17.7,12c-12.4,7.1-25.7,12.4-39.4,15.9
		C79.8,205.5,65.7,207.5,51.6,206.8z" class="st6"></path>
	<path d="M201.2,168.8c0,38.7-27.7,71-64.3,78.1c25.2-13.4,42.3-39.8,42.3-70.3c0-44-35.6-79.6-79.6-79.6
		c-5.2,0-10.4,0.5-15.3,1.5c11.1-5.9,23.9-9.3,37.4-9.3C165.6,89.2,201.2,124.8,201.2,168.8z" class="st1"></path>
	<path d="M368.3,139.8c-0.2,4.1-0.9,8.2-2,12.1c-0.4,1.3-0.8,2.7-1.3,4c-5.8,15.9-19.3,29.8-42.9,40.2
		c-46.7,20.6-129.1,4.6-129.1,4.6s-3.7-5.8-5.9-8.4c-4.5-5.2-12-15.7-15.2-30.8c-0.2-0.9-0.4-1.8-0.5-2.8c-0.4-2-0.6-4.2-0.8-6.4
		c0-0.1,0-0.2,0-0.2c-0.2-1.8-0.2-3.6-0.2-5.5c0-0.4,0-0.8,0-1.2c0-0.4,0-0.8,0-1.2c0.1-3.5,0.4-7.1,0.9-10.6
		c0.1-0.7,0.2-1.4,0.3-2.1c0.3-1.5,0.6-3,0.9-4.5c0-0.1,0-0.3,0.1-0.4c0.7-3,1.6-5.9,2.8-8.8c0.3-0.7,0.6-1.4,0.9-2.2
		c4.5-10.3,12.2-19.8,24.8-27.3c7.8-4.7,17.5-8.5,29.5-11.4c0.1,0,0.3-0.1,0.4-0.1c0.5-0.1,1-0.2,1.5-0.3c2.7-0.6,5.5-1.1,8.5-1.6
		c1.1-0.2,2.2-0.4,3.3-0.5c0.3,0,0.7-0.1,1-0.2c10-1.4,19.5-2.4,28.3-2.9c2-0.1,4-0.2,6-0.2h0c4.8-0.1,9.4-0.1,13.9,0.1
		c0.5,0,0.9,0,1.4,0c26.4,1.2,45.6,7.8,57.3,19.2c0.5,0.5,1.1,1,1.6,1.6c2.7,3,5,6.2,6.8,9.8c0.4,0.8,0.8,1.7,1.2,2.5
		c0.2,0.4,0.3,0.8,0.5,1.3c0.3,0.7,0.5,1.4,0.8,2.1c0.2,0.4,0.3,0.8,0.4,1.2c1.9,5.5,3.3,10.9,4.2,16.2l0,0.1
		c0.1,0.9,0.3,1.8,0.4,2.7c0.2,1.8,0.4,3.7,0.4,5.5C368.5,135.5,368.5,137.7,368.3,139.8z" class="st0"></path>
	<path d="M234,77.3c-0.4,0.4-6.9,6-14,10.4c-2.4,1.5-4.9,2.8-7.3,3.7c-3.8,1.5-7.2,1.9-9.2,0.1
		c-0.9-0.8-1.7-1.9-2.5-3.2c-0.1-0.1-0.2-0.3-0.2-0.4c-3.8-6.8-5.9-18.7-4.7-25.6c0.3-1.9,0.9-3.5,1.8-4.4c0.3-0.4,0.7-0.6,1.2-0.8
		c6.9-2.7,13.7,0.2,18.6,5c3.4,3.3,6.1,7.6,9.8,10.6c0.3,0.2,2.7,2.2,4.5,3.5l0.4,0.3C233.2,77,233.8,77.4,234,77.3z" class="st0"></path>
	<path d="M353.7,92.2c-0.7,0-47.9-2.3-50-16.3c-0.2-1.3-0.3-2.7-0.2-4.1c0.2-13,9.8-26,15-26.7l0,0
		c5.7-0.7,10,11.2,15.2,20.1C338.7,74,353.3,91.6,353.7,92.2z" class="st0"></path>
	<path d="M329.5,79.3c-5.5-3.3-11.7-5.2-16.7-6.3c-5.2-1.1-9.1-1.2-9.3-1.3c0.2-13,9.8-26,15-26.7l0,0
		c1.3,2.8,2.8,6.1,2,13.9c-0.1,0.8-0.1,1.5-0.1,2.2C320.4,72.1,328.1,78.6,329.5,79.3z" class="st2"></path>
	<path d="M219.5,79.8c0,0-7.6,3.1-13.7,5.8c-1.9,0.8-3.7,1.6-5,2.3c-3.8-6.8-5.9-18.7-4.7-25.6c0.3-1.9,0.9-3.5,1.8-4.4
		c0,0,2.8,0.8,5.9,6.8c1.1,2.2,2.1,4.3,3.2,6.2C209.5,75.3,212.7,78.8,219.5,79.8z" class="st2"></path>
	<path d="M284.7,164.8c-3.8,4.3-3.4,12.2,2.1,15.7c7.3,4.6,19.7,2.4,24.6-4.9c4.2-6.2-0.3-16.2-6-17.6
		c-4.8-1.1-9.6-0.1-13.8,2C289.7,160.9,286.8,162.4,284.7,164.8z" class="st7"></path>
	<path d="M211.8,160.6c3.8,3.9,4.3,12.4-0.1,16.9c-5.9,6.1-17,5.7-22.1-1.3c-4.3-5.9-1.6-17.2,3.2-19.5
		c4.1-1.9,8.4-1.6,12.3-0.1C207,157.3,209.7,158.4,211.8,160.6z" class="st7"></path>
	<path d="M273.4,71.3c-5.4,5.9-9,14.4-11.8,20.8c-1.6,3.5-3,7.1-4.3,10.8c-1,2.7-2.9,5.6-5.9,6.3c-3.8,1-7.5-1.1-9.7-4
		c-2.9-3.6-3.5-8.3-3.3-12.8c0.3-6.4,2.4-12.6,5.8-18.1c0.3,0,0.6-0.1,1-0.1C255.1,72.7,264.5,71.8,273.4,71.3z" class="st2"></path>
	<path d="M262.2,243.8c-0.1,0-0.1,0.2,0,0.1C262.3,243.9,262.2,243.8,262.2,243.8z" class="st4"></path>
	<path d="M182.8,148.1c-4,1.1-8.4,0.2-12.4-1.4c0-0.4,0-0.8,0-1.2c0-0.4,0-0.8,0-1.2c0.1-3.5,0.4-7.1,0.9-10.6
		C179.9,139.9,190.3,145.9,182.8,148.1z" class="st2"></path>
	<path d="M182.4,158.8c-2.5,1.9-6.6,2.6-10.5,2.7c-0.2-0.9-0.4-1.8-0.5-2.8c-0.3-2.1-0.6-4.2-0.8-6.4c0-0.1,0-0.2,0-0.3
		C178.8,153.5,186.9,155.5,182.4,158.8z" class="st2"></path>
	<path d="M179.8,129.7c-2.3-0.1-4.8-1.2-7.3-2.7c0-0.1,0.1-0.3,0.1-0.4c0.7-3,1.6-5.9,2.8-8.8
		C180.7,123.7,185.1,129.9,179.8,129.7z" class="st2"></path>
	<path d="M293.3,71.1c-1.4,1.8-3,3.9-4.1,5.4c-3.5,4.9-7.1,11.5-10.1,12.5c-6.3,2.1-9.5-3.9-6-10.8
		c1.6-3.1,4.1-5.5,6.2-7.2l0,0C284.2,70.9,288.9,70.9,293.3,71.1z" class="st2"></path>
	<path d="M240.8,74.8c-2.9,4.6-5.8,12.2-9.1,13.7c-4.9,2.2-9.3-1.4-7.4-4.4c1.9-3,4.1-5.4,6.1-7.2
		C233.7,76.1,237.2,75.4,240.8,74.8z" class="st2"></path>
	<path d="M317.1,193.5c1.8-0.9,3.7-1.9,5.4-2.9c1.8-1,3.6-2,5.3-3.1l0.9-0.6l-0.3,1.1c-0.2,0.5-0.3,1.1-0.3,1.7
		c0,0.6,0,1.2,0.3,1.3c0.1,0.1,0.3,0.1,0.5,0.1c0.1,0,0.3-0.1,0.5-0.3c0.4-0.4,0.7-0.9,0.9-1.4c0.5-1,1-2.2,1.3-3.3
		c0.4-1.1,0.7-2.3,0.9-3.5l0.3-1.9l0.8,1.7c0.4,0.8,0.8,1.7,1.4,2.4c0.5,0.7,1.3,1.4,1.8,1.2c0.6-0.2,1.2-1,1.5-1.8
		c0.3-0.8,0.6-1.8,0.8-2.7l0.1-0.3l0.3,0c2.2-0.3,4.4-0.8,6.4-1.6c1.1-0.4,2.1-0.8,3.1-1.3c1-0.5,2-1.1,2.9-1.7
		c-0.9,0.7-1.8,1.4-2.7,2c-1,0.6-2,1.1-3,1.6c-2.1,0.9-4.3,1.6-6.5,2l0.4-0.4c-0.1,1-0.4,2-0.7,2.9c-0.2,0.5-0.4,0.9-0.7,1.4
		c-0.3,0.4-0.8,0.9-1.4,1.1c-0.3,0.1-0.7,0.1-1,0c-0.3-0.1-0.6-0.2-0.8-0.4c-0.5-0.3-0.8-0.7-1.1-1.1c-0.6-0.8-1.1-1.7-1.6-2.6
		l1.1-0.2c-0.2,1.3-0.6,2.5-1,3.7c-0.4,1.2-0.9,2.4-1.5,3.5c-0.3,0.6-0.6,1.1-1.2,1.6c-0.3,0.2-0.6,0.5-1.1,0.6
		c-0.4,0-0.9,0-1.3-0.4c-0.7-0.7-0.6-1.5-0.5-2.1c0.1-0.7,0.2-1.3,0.4-1.9l0.6,0.5c-1.8,1.1-3.6,2-5.5,2.9
		C320.9,192,319,192.8,317.1,193.5z" class="st8"></path>
	<path d="M182.4,186.3c1.3,1.7,2.7,3.4,4.1,5.1c0.7,0.8,1.4,1.6,2.2,2.4c0.7,0.8,1.5,1.5,2.4,2l0.2,0.1l0,0.3
		c0.1,0.9,0.2,1.9,0.5,2.7c0.2,0.8,0.7,1.8,1.2,1.8c0.3,0,0.4,0,0.6-0.4c0.2-0.3,0.2-0.8,0.3-1.2c0.1-0.9,0-1.9-0.1-2.8l-0.3-2.3
		l1.3,1.9c0.6,0.8,1.2,1.7,1.8,2.4c0.7,0.8,1.4,1.5,2.2,2c0.4,0.3,0.8,0.5,1.2,0.4c0.4,0,0.7-0.1,0.8-0.4c0.2-0.7-0.2-1.8-0.6-2.6
		l-0.6-1.1l1.1,0.5c1.5,0.8,3.2,1.4,4.8,2c1.6,0.6,3.3,1.1,5.1,1.3c-1.8,0-3.5-0.4-5.2-0.8c-1.7-0.5-3.4-1.1-5-1.8l0.5-0.6
		c0.3,0.5,0.5,1,0.7,1.5c0.2,0.5,0.3,1.1,0.1,1.8c-0.1,0.3-0.4,0.7-0.7,0.9c-0.2,0.1-0.3,0.2-0.5,0.2c-0.2,0-0.3,0.1-0.5,0.1
		c-0.7,0-1.3-0.3-1.7-0.6c-1-0.6-1.7-1.4-2.5-2.2c-0.7-0.8-1.4-1.6-2-2.5l1-0.4c0.1,1,0.2,2,0.1,3c-0.1,0.5-0.1,1-0.4,1.6
		c-0.1,0.1-0.2,0.3-0.2,0.4c-0.1,0.1-0.2,0.3-0.4,0.4c-0.3,0.2-0.7,0.3-1.1,0.2c-0.7-0.1-1.2-0.7-1.5-1.1c-0.3-0.5-0.4-1-0.6-1.5
		c-0.3-1-0.4-2-0.4-3l0.2,0.4c-1-0.7-1.8-1.5-2.5-2.3c-0.7-0.8-1.4-1.7-2.1-2.6C184.8,190,183.5,188.2,182.4,186.3z" class="st8"></path>
	<g>
		<g>
			<path d="M306.4,151.9c-6.3,5.4-16.7,8.1-24.7,5.9c-1.7-0.5-3.3-1.2-4.8-2.2c-6.5-4.3-10.8-12.7-11.7-20.4
				c0-0.2-0.1-0.4-0.1-0.5c-0.7-7.8,2.9-15.3,9.3-19.7c7.4-5.2,19.1-8,27.1-2.6c3.2,2.1,5.8,5.3,7.8,9l0,0
				C314.5,131.2,314.8,144.7,306.4,151.9z" class="st4"></path>
			<path d="M306.4,151.9c-3.5,3-7.9,5-12.4,6c-2.3,0.5-4.6,0.8-6.9,0.8c-2.3,0-4.7-0.3-7-1.1c-2.3-0.8-4.3-2.1-6.1-3.6
				c-1.8-1.6-3.3-3.4-4.7-5.4c-2.6-4-4.4-8.5-5.1-13.3l0,0.1c-0.8-5.7,0.7-11.4,4-16c1.7-2.3,3.7-4.3,6.1-5.8
				c2.3-1.5,4.8-2.7,7.4-3.6c5.2-1.7,11.1-2.2,16.4-0.2c2.6,1,4.9,2.7,6.8,4.7c1.9,2,3.4,4.3,4.7,6.7l-0.5-0.2l0,0l0.3-0.1l0.1,0.3
				c1.3,2.5,2.2,5.1,2.8,7.8c0.6,2.7,0.8,5.5,0.7,8.2c-0.2,2.7-0.8,5.5-1.8,8C310.2,147.8,308.5,150.1,306.4,151.9z M306.4,151.9
				c2.1-1.8,3.7-4.1,4.8-6.6c1.1-2.5,1.6-5.3,1.7-8c0.1-2.7-0.2-5.5-0.9-8.1c-0.7-2.6-1.7-5.2-3-7.5l0.5,0.2l0,0L309,122l-0.2-0.3
				c-1.3-2.3-2.9-4.4-4.8-6.2c-1.9-1.8-4.1-3.2-6.5-4c-2.4-0.8-5-1-7.6-0.9c-2.6,0.2-5.1,0.7-7.5,1.6c-4.9,1.7-9.4,4.6-12.4,8.7
				c-0.8,1-1.4,2.1-2,3.3c-0.5,1.2-1,2.3-1.3,3.6c-0.3,1.2-0.6,2.5-0.7,3.7c-0.1,0.6-0.1,1.3-0.1,1.9c0,0.6,0,1.3,0.1,1.8l0,0.1
				c0.4,4.5,1.9,8.9,4.3,12.8c1.2,1.9,2.6,3.8,4.2,5.3c1.6,1.6,3.5,2.9,5.7,3.7c4.3,1.6,9.1,1.7,13.6,0.7
				C298.5,156.8,302.8,154.9,306.4,151.9z" class="st2"></path>
		</g>
		<path d="M290.3,151.9c6.2-0.3,12.5-3.9,15.2-9.6c4.2-9.2-0.6-21.3-10.1-24.7c-5.1-1.8-11.4-1.2-16,1.8
			c-12.1,8-7.2,27.9,5.8,31.9C286.9,151.8,288.6,152,290.3,151.9z" class="st2"></path>
		<path d="M309.3,121.5c-29-7.5-42.5,11.4-44,13.8c0-0.2-0.1-0.4-0.1-0.5c-0.7-7.8,2.9-15.3,9.3-19.7
			c7.4-5.2,19.1-8,27.1-2.6C304.7,114.6,307.3,117.8,309.3,121.5z" class="st9"></path>
	</g>
	<g>
		<g>
			<path d="M217.8,145.2c-2.2,6.8-9.5,10.6-16.1,11.7c-0.9,0.1-1.8,0.2-2.7,0.1c-10.9-0.4-19.8-13.4-17.8-24.1
				c0.2-1.1,0.5-2.2,0.9-3.2c3.9-9.1,17.1-14.8,26.3-10.7c2.2,1,3.9,3,5.2,5c0.9,1.4,1.7,2.9,2.4,4.6
				C218.3,133.9,219.4,140.2,217.8,145.2z" class="st4"></path>
			<path d="M217.8,145.2c-0.4,1.2-0.9,2.3-1.6,3.4c-0.7,1-1.5,2-2.5,2.9c-1.9,1.7-4,3.1-6.4,4c-1.2,0.5-2.4,0.9-3.6,1.2
				c-1.2,0.3-2.5,0.6-3.8,0.7c-2.6,0.1-5.2-0.4-7.5-1.6c-4.7-2.2-8.4-6.4-10.6-11.1c-1.1-2.4-1.8-5-2-7.6l0-2c0-0.7,0.1-1.3,0.2-2
				c0.2-1.3,0.6-2.7,1.1-3.9c2.3-5,6.7-8.5,11.5-10.5c2.4-1,5-1.6,7.6-1.7c2.6-0.1,5.3,0.3,7.7,1.3c1.2,0.4,2.4,1.3,3.3,2.2
				c0.9,0.9,1.7,1.9,2.4,3c1.4,2.1,2.4,4.5,3.3,6.9c0.8,2.4,1.4,4.9,1.6,7.4C218.7,140.2,218.5,142.8,217.8,145.2z M217.8,145.2
				c1.5-4.9,0.6-10.1-1.2-14.8c-0.9-2.3-2.1-4.6-3.6-6.6c-1.5-2-3.2-3.8-5.5-4.5c-4.6-1.6-9.8-0.8-14.1,1.1c-2.2,1-4.3,2.3-6,3.9
				c-1.8,1.6-3.2,3.5-4.2,5.7c-0.5,1.1-0.8,2.2-1,3.3c-0.1,0.6-0.2,1.2-0.2,1.8l0,1.8c0.1,2.4,0.7,4.7,1.6,7c1.8,4.4,5,8.5,9.3,10.9
				c2.1,1.2,4.6,1.8,7,1.9c1.2,0,2.5-0.2,3.7-0.4c1.2-0.2,2.4-0.6,3.6-1c2.3-0.9,4.6-2.1,6.5-3.8c0.9-0.8,1.8-1.8,2.5-2.8
				C216.8,147.6,217.3,146.4,217.8,145.2z" class="st2"></path>
		</g>
		<path d="M194.1,148.9c0.5,0.3,5.3,4.5,13.6,0.3c8.3-4.2,5.5-15.3,3.5-18.8c-2-3.5-7.9-10.4-17.4-5.9
			C184.2,128.9,185.7,144,194.1,148.9z" class="st2"></path>
		<path d="M216,128.6c-13-4.8-27.6,0.7-34.9,4.3c0.2-1.1,0.5-2.2,0.9-3.2c3.9-9.1,17.1-14.8,26.3-10.7
			c2.2,1,3.9,3,5.2,5C214.5,125.4,215.3,127,216,128.6z" class="st9"></path>
	</g>
	<path d="M367.5,125.1l0,0.1c0,0.5,0.1,1,0.1,1.4c-8.5,5.2-19.2,9.1-28.6,6.9c-3.5-0.8-6.9-3.5-6.4-7
		c0.2-1.4,1.1-2.7,2.2-3.8c3.4-3.1,8.6-4.5,13.1-5.9c5.1-1.5,10.9-4.9,15.3-8C365.3,114.4,366.7,119.8,367.5,125.1z" class="st2"></path>
	<path d="M176.3,177.7c3.6-2.1,7.4-3.8,11.2-5.5c3.8-1.6,7.7-3.2,11.7-4.4c-3.6,2.1-7.4,3.8-11.2,5.5
		C184.1,174.9,180.3,176.5,176.3,177.7z" class="st2"></path>
	<path d="M172.5,168.1c3.9-1.1,7.8-1.9,11.8-2.6c4-0.7,7.9-1.2,12-1.5c-3.9,1.1-7.8,1.9-11.8,2.6
		C180.5,167.3,176.5,167.9,172.5,168.1z" class="st2"></path>
	<path d="M173.2,155.2c4,0.7,7.8,1.7,11.7,2.9c3.8,1.1,7.7,2.4,11.4,3.9c-4-0.7-7.8-1.7-11.7-2.9
		C180.7,158,176.9,156.8,173.2,155.2z" class="st2"></path>
	<path d="M315.7,69c0,0-2.9,0.4-3.8-0.2c-0.9-0.5,3.5-1.5,3.5-1.5c-2.4-0.5-4.6-2.7-3.9-2.9c0.7-0.2,3.7,1.2,3.7,1.2
		c-3.4-3.4-2.6-9.6,0.4-9.8c1.3-0.1,3.2,2.5,4.9,5.4c0,10.8,7.7,17.2,9,18c-5.5-3.3-11.7-5.2-16.7-6.3C313.1,70.8,315.7,69,315.7,69
		z" class="st4"></path>
	<path d="M205.8,85.6c0-2.4,1.8-6.2,2-6.5c-0.2,0.1-2,1.4-3.1,1c-1.1-0.4,2-2.3,2-2.3s-2.6,0.7-2.9,0
		c-0.4-0.7,2.3-1,2.3-1c-2.1-0.8-6.4-5.2-4.4-6.9c1.3-1.2,3.7,0.1,5.1,1c2.6,4.5,5.8,8,12.6,9C219.5,79.8,211.9,82.9,205.8,85.6z" class="st4"></path>
	<g>
		<path d="M230.2,144.8c-3.6,1.3-6.9,4-8.7,7.8c-2.5,5.6-2.4,12.2,2.1,16.4c2.8,2.7,6.4,3.9,10,4.4
			c6.9,1.1,13.8,1.7,20.4-0.9c2.4-1,4.7-2.3,6.5-4.3c2.8-3.1,4.2-7.7,3.6-12.1c-0.5-4.4-3-8.5-6.4-10.7c-4.2-2.7-10.1-3.1-14.8-2.5
			C239,143.3,234.2,143.4,230.2,144.8z" class="st5"></path>
		<path d="M239.3,138.1c0,0-4.4-4.3-6.3-3.2c-1.9,1.1,4.8,7.7,7.1,8.1c2.3,0.4,6.3-7.8,5-9.2
			C243.6,132.5,239.3,138.1,239.3,138.1z" class="st2"></path>
		<path d="M250.1,168.8c-1-2.2-1.9-4.3-2.8-6.5l-2.7-6.6c-0.9-2.2-1.7-4.4-2.5-6.7c-0.8-2.2-1.6-4.5-2.3-6.8l1.1-0.1
			c-0.7,4.5-1.2,9.1-1.7,13.7c-0.2,2.3-0.5,4.6-0.6,6.9c-0.2,2.3-0.3,4.6-0.3,6.9c-0.2-2.3-0.2-4.6-0.2-6.9c0-2.3,0.2-4.6,0.3-6.9
			c0.1-2.3,0.4-4.6,0.6-6.9c0.3-2.3,0.5-4.6,0.8-6.9l0.4-2.7l0.7,2.7c0.6,2.2,1.4,4.5,2.2,6.7l2.4,6.7l2.4,6.7L250.1,168.8z" class="st2"></path>
	</g>
	<path d="M307.9,164.9c4.2-0.3,8.3-0.3,12.5-0.2c4.2,0.1,8.3,0.4,12.4,0.9c-4.2,0.3-8.3,0.3-12.5,0.2
		C316.2,165.7,312.1,165.5,307.9,164.9z" class="st2"></path>
	<path d="M332.2,155.8c-3.8,1.3-7.7,2.2-11.6,3.1c-3.9,0.8-7.9,1.6-11.9,2c3.8-1.3,7.7-2.2,11.6-3.1
		C324.2,157,328.1,156.2,332.2,155.8z" class="st2"></path>
	<path d="M325,144.5c-2.9,2.8-6,5.4-9.1,7.9c-3.2,2.5-6.4,4.9-9.8,7c2.9-2.8,6-5.4,9.1-7.9
		C318.4,149.1,321.6,146.7,325,144.5z" class="st2"></path>
	<g class="st10">
		<path d="M385.6,256.2c-0.9,7.3-2.5,14.5-4.6,21.5c-2.2,7-5,13.9-8.7,20.2c-3.7,6.3-8.3,12.2-14.1,16.9
			c-5.7,4.7-12.6,8-19.9,9.3c-7.2,1.5-14.6,1.9-22,1.6c-3.7-0.2-7.4-0.6-11-1.1c-3.6-0.6-7.2-1.4-10.8-2.3c-3.6-1-7.1-2.1-10.5-3.3
			c-3.5-1.3-6.8-2.8-10.1-4.4c-3.3-1.6-6.5-3.5-9.6-5.5c-3.1-2-6-4.3-8.7-6.8l-0.1-0.1l0-0.2l0,0l0.1,0.3c-1.8-1.7-3.5-3.6-4.9-5.7
			c-0.7-1-1.3-2.2-1.7-3.4c-0.4-1.2-0.9-2.3-1.3-3.5l-0.6-1.8l-0.5-1.8c-0.4-1.2-0.6-2.4-0.8-3.6c-0.1-0.6-0.2-1.2-0.2-1.9l-0.1-0.9
			l0-0.9c0-0.6,0-1.3,0-1.9l0.2-1.9c0-0.6,0.2-1.2,0.4-1.8c0.1-0.6,0.3-1.2,0.5-1.8c0.2-0.6,0.4-1.2,0.7-1.7l0.9-1.6
			c0.3-0.6,0.7-1,1.1-1.5c0.4-0.5,0.7-1,1.2-1.4c0.9-0.8,1.7-1.8,2.8-2.5c4-3.1,8.5-5.1,13.2-6.8c4.7-1.6,9.7-2.2,14.7-2.2
			c5,0,9.9,0.6,14.7,1.6c9.7,2,19.1,5.3,28,9.5c-8.9-4.1-18.4-7.3-28-9.1c-2.4-0.5-4.8-0.8-7.3-1.1c-2.4-0.3-4.9-0.4-7.4-0.4
			c-4.9,0-9.8,0.6-14.5,2.2c-4.6,1.7-9.1,3.7-13,6.7c-1,0.7-1.8,1.6-2.7,2.4c-0.4,0.4-0.8,0.9-1.2,1.4c-0.4,0.5-0.8,0.9-1,1.5
			l-0.9,1.6c-0.2,0.5-0.4,1.1-0.7,1.7c-0.3,0.6-0.4,1.1-0.5,1.7c-0.1,0.6-0.3,1.2-0.3,1.8l-0.2,1.8c0,0.6,0,1.2,0,1.8l0,0.9l0.1,0.9
			c0.1,0.6,0.1,1.2,0.2,1.8c0.3,1.2,0.5,2.4,0.8,3.6l0.5,1.8l0.6,1.7c0.4,1.2,0.9,2.3,1.3,3.4c0.4,1.1,1,2.2,1.7,3.2
			c1.3,2,3,3.8,4.8,5.5l0.1,0.1l0,0.2l0,0l-0.1-0.3c2.6,2.5,5.6,4.7,8.6,6.7c3,2,6.2,3.8,9.5,5.4c3.3,1.6,6.6,3.1,10.1,4.4
			c3.4,1.3,6.9,2.4,10.4,3.4c3.5,0.9,7.1,1.7,10.7,2.3c3.6,0.6,7.2,1,10.9,1.2c7.3,0.4,14.7,0,21.8-1.5c3.6-0.6,7.1-1.7,10.4-3.3
			c3.3-1.5,6.4-3.5,9.2-5.8c5.7-4.6,10.3-10.4,14-16.7c3.7-6.3,6.6-13.1,8.9-20.1C382.9,270.7,384.6,263.5,385.6,256.2z" class="st2"></path>
	</g>
	<g>
		<path d="M249.5,293.5c2.3-1.5,4.8-2.5,7.4-3.3c2.6-0.8,5.4-1.1,8.1-1.2c1.4-0.1,2.7,0.1,4.1,0.2
			c1.3,0.3,2.7,0.4,4,0.9c0.6,0.2,1.3,0.4,1.9,0.6l1.9,0.8c0.6,0.2,1.2,0.6,1.8,0.9c0.6,0.3,1.2,0.7,1.8,1c-2.5-1-5-2.1-7.6-2.6
			c-1.3-0.3-2.6-0.5-3.9-0.7c-1.3-0.1-2.6-0.2-4-0.2c-2.7,0-5.3,0.3-7.9,0.9l-1.9,0.5c-0.6,0.2-1.3,0.4-1.9,0.6
			C251.9,292.4,250.7,292.9,249.5,293.5z" class="st2"></path>
	</g>
	<g>
		<path d="M245.8,274.8c2.3-2.3,5.3-3.8,8.4-4.9c3.1-1.1,6.4-1.6,9.6-1.7c3.3-0.2,6.5,0.2,9.8,0.7
			c1.6,0.3,3.2,0.7,4.8,1.1c1.5,0.5,3.1,1,4.6,1.5c-1.6-0.3-3.2-0.7-4.7-1c-1.6-0.3-3.2-0.6-4.8-0.8l-2.4-0.2l-1.2-0.1l-1.2,0
			l-2.4-0.1l-2.4,0.1c-3.2,0.1-6.4,0.6-9.4,1.4c-1.5,0.5-3,1-4.5,1.7C248.5,272.9,247.1,273.8,245.8,274.8z" class="st2"></path>
	</g>
	<g class="st10">
		<path d="M314.3,260.3c0.3-2.1,0.7-4.3,1.2-6.4c0.4-2.1,0.9-4.2,1.4-6.3c0.5-2.1,1-4.2,1.6-6.3l0.9-3.1
			c0.3-1,0.6-2.1,1-3.1c-0.1,1.1-0.4,2.1-0.5,3.2l-0.6,3.2c-0.4,2.1-0.9,4.2-1.4,6.3c-0.5,2.1-1,4.2-1.6,6.3
			C315.6,256.2,315,258.2,314.3,260.3z" class="st2"></path>
	</g>
	<g class="st10">
		<path d="M73.5,392.3c5.6-16.3,14.7-31.5,26.3-44.3c11.6-12.8,26.3-23,42.7-28.8c2-0.8,4.1-1.4,6.2-2l1.6-0.5
			c0.5-0.1,1.1-0.3,1.6-0.4l3.2-0.7l3.2-0.7l3.2-0.5c2.1-0.3,4.3-0.8,6.4-0.9c8.6-1,17.4-0.8,25.9,0.7c8.5,1.5,16.9,4.3,24.5,8.5
			c3.8,2.1,7.4,4.4,10.8,7.1c3.4,2.7,6.6,5.6,9.3,9c-2.8-3.3-6.1-6.2-9.5-8.8c-3.4-2.6-7.1-4.9-10.9-6.9c-7.6-4.1-15.9-6.7-24.4-8.2
			c-8.5-1.4-17.2-1.5-25.7-0.5c-2.1,0.2-4.3,0.6-6.4,0.9l-3.2,0.5l-3.1,0.8l-3.1,0.8c-0.5,0.1-1,0.2-1.6,0.4l-1.5,0.5
			c-2.1,0.6-4.1,1.2-6.1,2c-8.1,2.9-15.8,6.8-22.9,11.6c-1.8,1.2-3.5,2.4-5.2,3.8c-1.7,1.3-3.4,2.7-5,4.1c-3.2,2.8-6.4,5.8-9.3,9
			c-2.9,3.1-5.7,6.4-8.3,9.9c-2.6,3.4-5,7-7.3,10.7C80.4,376.4,76.4,384.1,73.5,392.3z" class="st2"></path>
	</g>
	<path d="M65.1,129.2c-1,1.5-1.8,3.2-1.9,5c-0.1,1.8,0.6,3.7,1.9,4.9c2.3,2,5.7,1.6,8.6,0.8c3.3-0.9,6.8-2.2,8.9-5
		s2.5-7.1,0-9.4C77.5,120.8,68.7,124.2,65.1,129.2z" class="st4"></path>
	<path d="M66.1,157c1.5,2.3,4.4,3.5,7.1,3.4c1.1,0,2.2-0.3,3.2-0.9c1.3-0.8,2.1-2.1,2.9-3.4c0.5-0.8,1-1.6,1.1-2.5
		c0.6-4.2-5.8-7.5-9.3-6.5C66.6,148.3,63.2,152.6,66.1,157z" class="st4"></path>
	<path d="M360.4,101.8c-0.3,0.1-0.7,0.3-1,0.4c-6.1,2.2-13,3.1-18.9,0.6c-0.9-0.4-1.8-0.9-2.3-1.7c-1-1.5-0.4-3.7,0.8-5
		c1.3-1.3,3-2,4.7-2.6c2.8-1,5.6-1.9,8.4-3c0.5,0.5,1.1,1,1.6,1.6C356.3,94.9,358.6,98.2,360.4,101.8z" class="st2"></path>
	<path d="M368.3,139.8c-0.2,4.1-0.9,8.2-2,12.1c-0.4,1.3-0.8,2.7-1.3,4c-3.6,0.7-7.4,0.5-11-0.6
		c-1.3-0.4-2.6-0.9-3.3-2.1c-0.4-0.7-0.6-1.4-0.6-2.2c-0.1-2.7,2-5,4.4-6.3c2.4-1.3,5.1-1.7,7.7-2.5
		C364.3,141.6,366.4,140.8,368.3,139.8z" class="st2"></path>
	<path d="M377.5,210c-7.9,4.2-17,6.5-25.7,4.8c-2.2-0.4-4.5-1.2-6.2-2.8c-1.7-1.5-2.7-4-2.1-6.2c0.7-2.3,3-3.8,5.2-4.8
		c6.8-3.2,14.3-4.9,20.8-8.9c0.1-0.1,0.2-0.2,0.3-0.2C372.4,197.1,375.1,203.3,377.5,210z" class="st2"></path>
	<path d="M384.9,248.5c-2.9,0.7-5.8,1-8.7,1.1c-6.7,0.2-13.6-0.6-19.5-3.7c-2.7-1.4-5.4-3.6-5.6-6.6
		c-0.2-2.9,2-5.5,4.5-6.9c4.6-2.6,10.2-2.4,15.4-3c2.9-0.3,5.7-0.9,8.5-1.7c0.9-0.2,1.8-0.7,2.7-1.1
		C383.7,233.6,384.7,240.9,384.9,248.5z" class="st2"></path>
	<path d="M380.9,277.3c-2.1,6.7-5.1,14.3-9.4,21.4c-0.2-0.1-0.4-0.2-0.7-0.3c-3.9-1.6-7.6-4-11-6.5
		c-3.1-2.4-6.3-5.3-6.6-9.2c-0.4-4.9,4.4-8.9,9.2-9.6c5.6-0.8,10.8,1.7,15.9,3.5C379.2,276.9,380,277.1,380.9,277.3
		C380.9,277.3,380.9,277.3,380.9,277.3z" class="st2"></path>
	<path d="M339.3,312.5c-0.7,3.3-2.2,6.3-4,9.1c-0.7,1.1-1.4,2.1-2.1,3.1c-10.7,1.5-21.5,0.8-31.6-1.1
		c1.8-1.2,3.4-2.5,4.5-4.1c2.7-3.8,4-8.3,5.6-12.7c1.5-4.4,3.3-8.8,6.6-12.1c3.2-3.3,8.3-5.3,12.6-3.7c4.5,1.6,6.9,6.4,8,11.1
		C339.8,305.4,340.1,309,339.3,312.5z" class="st2"></path>
	<path d="M187.8,452.6c-10.9-1.7-21-4.2-29.9-7.1c1.3-9.9,4.5-19.8,7.1-23.6c2-2.9,4.8-5.7,8.3-5.8
		c2.9-0.1,5.6,1.6,7.4,3.9c1.8,2.3,2.7,5.1,3.5,7.9c1.9,6.9,3.1,14,3.6,21.2C187.7,450.2,187.8,451.4,187.8,452.6z" class="st2"></path>
	<path d="M362,338.1c-1.8,7.4-4.4,15.6-7.7,24c-2.5-0.1-5-0.5-7.5-0.9c-7.6-1.3-15.3-2.8-21.7-7
		c-3.7-2.4-7.1-6.8-5.5-10.9c0.9-2.4,3.3-3.9,5.8-4.5c2.5-0.6,5.1-0.3,7.6-0.1c7.2,0.5,14.4,0.6,21.5,0.2
		C356.9,338.7,359.4,338.3,362,338.1z" class="st2"></path>
	<path d="M256.1,450c-12.1,3-23.9,4.5-35.3,4.8c-0.2-1.6-0.3-3.1-0.5-4.5c-1.3-11.1-2.7-22.2-4-33.3
		c-0.5-4.2-0.9-8.9,1.4-12.4c1.7-2.5,4.7-4.1,7.8-4c5.9,0.2,10,5.8,13.1,10.9c1.5,2.5,3.1,5,4.6,7.5c5.8,9.4,11.7,19.2,12.8,30.2
		C256,449.4,256,449.7,256.1,450z" class="st2"></path>
	<path d="M308.6,424.8c-6.9,5.4-14.6,10.3-23.2,14.5c-2.8-5.3-4.8-11.7-6.9-16.2c-1-2.1-2.1-4.3-2.3-6.7
		c-0.4-3.6,1.3-7.3,4.3-9.3c2.9-2,7-2.4,10.2-0.9c2.5,1.2,4.4,3.3,6.2,5.3c2.8,3.1,5.5,6.2,8.3,9.4
		C306.4,422.1,307.5,423.4,308.6,424.8z" class="st2"></path>
	<path d="M344.2,383.2c-4,7-8.7,14-14.2,20.7c-3.3-2.5-6.3-5.4-8.9-8.7c-3.2-3.8-5.9-8.4-6-13.4
		c-0.1-2.3,0.6-4.9,2.5-6.2c1.6-1.1,3.8-1,5.8-0.7C329.8,376,337.6,379.2,344.2,383.2z" class="st2"></path>
	<g class="st10">
		<path d="M129.3,273c1.8-1.2,3.9-2.1,5.9-2.8c2.1-0.7,4.2-1.2,6.4-1.6c2.2-0.3,4.4-0.5,6.6-0.5c1.1,0,2.2,0.1,3.3,0.1
			c1.1,0.1,2.2,0.2,3.3,0.4c-2.2,0.1-4.4,0.1-6.5,0.3c-2.2,0.1-4.3,0.4-6.5,0.7c-2.1,0.3-4.3,0.8-6.3,1.3c-1.1,0.3-2.1,0.6-3.1,0.9
			C131.3,272.1,130.3,272.5,129.3,273z" class="st2"></path>
	</g>
	<g class="st10">
		<path d="M134.6,262.1c1.7,0.8,3.3,1.8,4.7,3c1.5,1.1,2.9,2.4,4.2,3.8c0.7,0.7,1.3,1.4,1.9,2.1
			c0.6,0.7,1.2,1.5,1.7,2.3c1.1,1.5,2,3.2,2.7,4.9c-1.1-1.5-2.2-3-3.3-4.4c-1.2-1.4-2.4-2.8-3.6-4.1c-1.3-1.3-2.6-2.6-3.9-3.9
			C137.4,264.4,136,263.2,134.6,262.1z" class="st2"></path>
	</g>
	<g>
		<path d="M35.6,346.4c2.2-1.6,5-2.3,7.8-2c0.7,0.1,1.4,0.3,2,0.4c0.6,0.3,1.3,0.5,1.9,0.9c1.2,0.7,2.2,1.7,3.1,2.7
			c-1.1-0.8-2.2-1.5-3.4-2c-1.2-0.5-2.4-0.9-3.7-1c-1.3-0.2-2.6-0.1-3.9,0.1C38.2,345.6,36.9,345.9,35.6,346.4z" class="st2"></path>
	</g>
	<path d="M43,266.9C42.1,291,30,286,30,286l-0.1-0.7c-0.3-3.1,0.3-7.1,2.3-12.4c7.8-21.5-10.3-58.6-12.1-74.8
		c1.7-1.1,4.4-1.8,8.4,0.2C36.6,202.4,43.9,242.9,43,266.9z" class="st1"></path>
	<g>
		<path d="M34.1,206.9c1.3-1.1,3.3-1.4,5-0.9c0.8,0.3,1.7,0.7,2.3,1.2c0.4,0.3,0.6,0.6,0.9,0.9c0.3,0.3,0.5,0.7,0.7,1.1
			c-0.4-0.2-0.7-0.5-1-0.7c-0.4-0.2-0.7-0.4-1-0.6c-0.7-0.4-1.4-0.7-2.2-0.9c-0.7-0.2-1.5-0.3-2.3-0.3
			C35.8,206.6,35,206.7,34.1,206.9z" class="st2"></path>
	</g>
	<g class="st10">
		<path d="M205.2,350.1c-1-1.5-1.9-2.9-3.1-4.2c-0.6-0.7-1.1-1.3-1.8-1.9c-0.6-0.5-1.3-1.1-2.1-1.2
			c-0.7-0.1-1.3,0.5-1.3,1.2c0,0.7,0.4,1.4,0.9,2.1c1,1.3,2.3,2.5,3.6,3.6l1.3,1l-1.6-0.2c-1.3-0.1-2.6-0.2-4-0.2
			c-0.7,0-1.3,0.1-1.9,0.2c-0.6,0.1-1.2,0.3-1.5,0.7c-0.3,0.3-0.2,0.8,0.2,1.2c0.4,0.4,1,0.7,1.6,1c1.2,0.6,2.4,1,3.7,1.4l0.6,0.2
			l-0.4,0.4c-0.5,0.4-0.9,1-1.3,1.6c-0.3,0.6-0.5,1.3-0.5,1.9c0,0.7,0.1,1.4,0.4,2c0.1,0.3,0.3,0.6,0.5,0.9c0.2,0.3,0.4,0.6,0.6,0.9
			c-0.2-0.3-0.5-0.5-0.7-0.8c-0.2-0.3-0.4-0.6-0.6-0.9c-0.4-0.6-0.6-1.4-0.6-2.1c0-0.7,0.1-1.5,0.4-2.2c0.3-0.7,0.8-1.3,1.3-1.8
			l0.1,0.6c-1.3-0.3-2.6-0.7-3.9-1.3c-0.6-0.3-1.3-0.6-1.8-1.2c-0.3-0.3-0.5-0.6-0.6-1.1c-0.1-0.5,0-1,0.3-1.3
			c0.6-0.7,1.4-0.9,2-1.1c0.7-0.2,1.4-0.2,2.1-0.2c1.4-0.1,2.7,0,4.1,0.2l-0.4,0.9c-1.4-1.1-2.6-2.4-3.7-3.8c-0.5-0.7-1-1.6-1-2.6
			c0-1.1,1.1-2.1,2.2-1.8c1,0.2,1.7,0.8,2.4,1.4c0.6,0.6,1.2,1.3,1.7,2C203.5,347,204.4,348.5,205.2,350.1z" class="st2"></path>
	</g>
</g>
</svg>
