<svg xml:space="preserve" style="enable-background:new 0 0 500 500;" viewBox="0 0 500 500" y="0px" x="0px"
     xmlns="http://www.w3.org/2000/svg" id="图层_1" version="1.0">
<style type="text/css">
	.st0{fill:#FD913E;}
	.st1{opacity:0.2;fill:#A1312F;}
	.st2{fill:#A1312F;}
	.st3{fill:#FB5555;}
	.st4{fill:#FDBD87;}
	.st5{opacity:0.48;fill:#A1312F;}
	.st6{fill:#FFFFFF;}
	.st7{opacity:0.21;fill:#A1312F;}
	.st8{fill:#C75325;}
	.st9{opacity:0.48;fill:#FB5555;}
	.st10{fill:#5ED6B6;}
	.st11{fill:#91E6DD;}
</style>
<g>
	<g>
		<g>
			<path d="M470,303.1c4,11.6,1.7,27.3-9,37.8c-1,1-2.2,2-3.4,3c-0.6,0.4-1.2,0.9-1.8,1.3c-1.1,0.7-2.2,1.4-3.4,2
				c-0.6,0.3-1.1,0.6-1.7,0.9c-0.6,0.3-1.3,0.6-2,0.9c-7.2,2.9-16.2,4.2-27.1,3c0,0,2.3-12.4,2.3-13.6c0,0,0-0.1,0-0.1
				s0.6,0,1.5-0.1c1.6-0.1,4.3-0.4,7.5-1.1c0.5-0.1,1.1-0.2,1.6-0.4c0.5-0.1,1.1-0.3,1.7-0.5c0.7-0.2,1.3-0.4,2-0.6
				c0.1,0,0.1,0,0.2-0.1c0.8-0.3,1.5-0.6,2.3-0.9c0,0,0,0,0,0c1.2-0.5,2.4-1.1,3.5-1.8c0.8-0.5,1.7-1.1,2.5-1.7
				c0.3-0.2,0.6-0.5,0.9-0.7c0.2-0.1,0.4-0.3,0.6-0.5c2.7-2.4,4.7-5.5,5.5-9.6c0.5-2.8,0.5-6-0.4-9.7c-3.7-15.8-12.6-30.2-16.8-44.2
				c-2.2-7.2-3.1-14.2-1.3-21.3c0.6-2.5,1.6-5,2.9-7.6c3.3-6.3,7.1-10.9,10.8-14.1c0.2-0.2,0.5-0.4,0.7-0.6c0.6-0.5,1.1-0.9,1.7-1.3
				c1.4-1,2.8-1.8,4.2-2.5l0,0c0.4-0.2,0.8-0.3,1.1-0.5c7.4-3,13.9-1.4,16.5,2.2c3.4,4.7-5.7,11.1-11.9,18.2
				c-2.5,2.8-4.6,5.8-5.2,8.8c-1.3,6,1.5,17.7,5.3,29.8c1.9,5.9,4,12,5.9,17.5C468.1,297.9,469.1,300.6,470,303.1z" class="st0"></path>
			<path d="M469.8,303.2c4,11.6,1.7,27.2-8.8,37.7c-1,1-2.2,2-3.4,3c-0.6,0.4-1.2,0.9-1.8,1.3c-1.1,0.7-2.2,1.4-3.4,2
				c-0.6,0.3-1.1,0.6-1.7,0.9c-0.6,0.3-1.3,0.6-2,0.9c-7.2,2.9-16.2,4.2-27.3,3c0,0,2.5-13.5,2.3-13.6c0,0,0,0,0.1,0
				c0.2,0,0.7,0,1.4-0.1c1.6-0.1,4.4-0.4,7.6-1.2c0.5-0.1,1.1-0.2,1.6-0.4c0.5-0.1,1.1-0.3,1.7-0.5c0.7-0.2,1.3-0.4,2-0.6
				c0.1,0,0.1,0,0.2-0.1c0.8-0.3,1.5-0.6,2.3-0.9c0,0,0,0,0,0c1.2-0.5,2.4-1.1,3.5-1.8c0.8-0.5,1.7-1.1,2.5-1.7
				c0.3-0.2,0.6-0.5,0.9-0.7c0.2-0.2,0.4-0.4,0.6-0.5c0.4-0.4,0.8-0.7,1.1-1.1c0.2-0.2,0.5-0.5,0.7-0.8c0.7-0.9,1.4-1.8,1.9-2.9
				c0.3-0.6,0.6-1.2,0.8-1.8c0.1-0.2,0.2-0.4,0.2-0.7c0.1-0.3,0.2-0.5,0.2-0.8c0-0.1,0.1-0.2,0.1-0.3c0.1-0.4,0.2-0.9,0.3-1.4
				c0.5-2.7,0.4-5.8-0.4-9.4c-3.7-15.9-12.6-30.2-16.8-44.2c-2.2-7.2-3.1-14.3-1.3-21.4c0.6-2.5,1.6-4.9,2.9-7.4
				c3.4-6.4,7.2-11,11-14.2c0.2-0.2,0.5-0.4,0.7-0.6c0.6-0.5,1.1-0.9,1.7-1.3c1.4-1,2.8-1.8,4.2-2.5l0,0c0.4-0.2,0.8-0.3,1.1-0.5
				c7.4-2.9,13.8-1.3,16.3,2.3c3.3,4.7-5.6,11-11.8,18c-2.6,2.9-4.7,5.8-5.4,8.9c-1.4,6,1.5,17.7,5.3,29.8c0,0,0,0,0,0
				c1.9,5.9,3.9,11.9,5.9,17.4C468,297.9,468.9,300.7,469.8,303.2z" class="st1"></path>
		</g>
		<path d="M461.1,238.9C461.1,238.9,461.1,238.9,461.1,238.9c-2.5-4.8-6.1-13.1-5.7-19.9l0,0c0.4-0.2,0.8-0.3,1.1-0.5
			c7.4-3,13.9-1.4,16.5,2.2C476.4,225.5,467.4,231.8,461.1,238.9z" class="st2"></path>
		<path d="M436.3,266.4c-0.1,0-0.1,0.1-0.2,0.1c-2.2-7.2-3.1-14.3-1.3-21.4c0,0,0.1,0.1,0.1,0.1c3.5,2.2,8,6,9.1,11.1
			C445,260.9,440.6,264.3,436.3,266.4z" class="st2"></path>
		<path d="M467.1,295h-0.2c-4.1,0.2-8.5-0.4-9.8-3.8c-1.6-4.2,1.3-10,3.9-13.6c0,0,0,0,0,0c0-0.1,0.1-0.1,0.1-0.1
			C463.1,283.4,465.2,289.5,467.1,295z" class="st2"></path>
		<path d="M453.8,336.2c-4.7,2.8-9.7,0.7-13.1-1.5c1.2-0.5,2.4-1.1,3.5-1.8c4.5-2.7,8.3-6.8,9.3-12.8
			c0,0.1,0.1,0.1,0.1,0.2C456.2,325,459.3,332.9,453.8,336.2z" class="st2"></path>
	</g>
	<g>
		<path d="M180.8,374.3c0,8.2-14.7,14.9-32.8,14.9s-32.8-6.7-32.8-14.9c0-8.2,14.7-14.9,32.8-14.9
			S180.8,366.1,180.8,374.3z" class="st3"></path>
		<path d="M135.7,389.5c0.1,4.5-7.8,8.2-17.6,8.4c-9.8,0.2-17.9-3.2-18-7.7c-0.1-4.5,7.8-8.2,17.6-8.4
			C127.6,381.6,135.7,385,135.7,389.5z" class="st3"></path>
		<path d="M104.9,380.9c0,1.1-2,2-4.4,2c-2.5,0-4.4-0.9-4.4-2c0-1.1,2-2,4.4-2C102.9,378.9,104.9,379.8,104.9,380.9z" class="st3"></path>
	</g>
	<g>
		<path d="M186.8,212.3c0,0,2,67.1-2.8,93.4c0,0-107.5,8.9-150.7,4.8c0,0-10.7-84.3-8.5-95.4
			C25.2,213.1,143.6,205.4,186.8,212.3z" class="st4"></path>
		<path d="M86.8,305.9c0,0-0.2,8.7,0.2,12.4c0.4,3.7,54.6,0.7,54.6,0.7s0.7-15.9,0-16.1S86.8,305.9,86.8,305.9z" class="st2"></path>
		<path d="M104.8,317c-0.7,0.2-14.1,51.1-13.7,54.1c0.4,3,15,1.7,15,1.7l14.1-55.6L104.8,317z" class="st2"></path>
		<path d="M125.2,317c0.7,0.2,14.1,51.1,13.7,54.1c-0.4,3-15,1.7-15,1.7l-14.1-55.6L125.2,317z" class="st2"></path>
		<path d="M77.1,250.1c-9.7,8.6-10,31.7,12.5,33.5c22.4,1.8,34.3-16.7,34.3-16.7s9,9.8,14.4,7.2
			c5.4-2.6,1-14.1-7.9-14.9c0,0,10.7-7.9,5.1-13.6c-5.5-5.7-12.9,9.3-12.9,9.3S92.1,236.8,77.1,250.1z" class="st3"></path>
	</g>
	<g>
		<g>
			<path d="M220.2,211.9c0,0-22.8,42.8-26.5,48.5c0,0-24.7-33.5-36.9-25.9c0,0-17.3-11.1-22.2,7.4c0,0-8.2,0.7-6.2,14.3
				c2,13.5,35.9,58.8,64.4,56c28.4-2.7,34.9-57.6,34.9-57.6L220.2,211.9z" class="st0"></path>
			<path d="M220.2,211.9c0,0-22.8,42.8-26.5,48.5c0,0-24.7-33.5-36.9-25.9c0,0-17.3-11.1-22.2,7.4c0,0-8.2,0.7-6.2,14.3
				c2,13.5,35.9,58.8,64.4,56c28.4-2.7,34.9-57.6,34.9-57.6L220.2,211.9z" class="st1"></path>
		</g>
		<g>
			<path d="M143.2,251.2c-2.7,3.1-4.1,7.7-2.7,11.6c1.4,3.9,6.1,6.6,10,5.2c3.2-1.2,5-4.5,6.5-7.5
				c2.3,0.2,4.6,0.5,6.8-0.1c2.2-0.6,4.3-2.1,4.9-4.3c1.4-5.2-5.2-9.5-9.7-10C153.2,245.4,147.3,246.6,143.2,251.2z" class="st4"></path>
			<path d="M159.5,242c0.7,0.5,1.6,0.9,2.5,1c4,0.4,4.6-5,1.2-6.4C159.6,235.2,155.7,239.4,159.5,242z" class="st4"></path>
			<path d="M140.6,239.8c-0.1,0.3-0.1,0.7,0,1c0.1,0.2,0.3,0.4,0.5,0.6c0.8,0.8,1.8,1.5,2.8,2c0.7,0.3,1.4,0.6,2.1,0.6
				c3.5,0,4.9-5.2,2.2-7.3C145.8,234.9,141.3,237,140.6,239.8z" class="st4"></path>
			<path d="M133.6,252.5c0.8,1,1.9,1.9,3.2,2.2c4.8,1.1,5.2-5.8,1.9-7.8C135,244.7,130.9,249,133.6,252.5z" class="st4"></path>
		</g>
	</g>
	<g>
		<path d="M173.7,197.4c-3.1,6.8-9.6,12.9-20.8,17.2c0,0-22.8-7.9-15.4-26.8c4.3-10.7,9.5-13.4,13-17.4
			c2.7-3,4.3-6.7,3.9-15.1C153.6,140,185.2,172.8,173.7,197.4z" class="st0"></path>
		<path d="M173.7,197.4c-17,0.6-8.5-20.2-8.5-20.2c-8.6,2.5-12.7-2.2-14.7-6.8c2.7-3,4.3-6.7,3.9-15.1
			C153.6,140,185.2,172.8,173.7,197.4z" class="st3"></path>
		<path d="M150.9,211.6c-3.8-3.4-6.4-8.2-7.3-13.3c-0.3-1.3-0.3-2.6-0.4-3.9c0.1-1.3,0.1-2.6,0.4-3.9
			c0.4-2.6,1.5-4.9,2.7-7.1c-0.6,2.5-1.2,4.9-1.3,7.3c-0.2,2.4-0.1,4.9,0.3,7.2c0.4,2.4,1.1,4.7,2,7
			C148.4,207.3,149.5,209.5,150.9,211.6z" class="st4"></path>
		<path d="M151.8,209.6c-0.8-1.3-1.2-2.7-1.6-4.1c-0.4-1.4-0.6-2.9-0.7-4.3c-0.2-2.9,0.1-5.9,1.1-8.7
			c0.2,1.5,0.3,2.9,0.4,4.3l0.3,4.2C151.5,203.9,151.7,206.6,151.8,209.6z" class="st4"></path>
		<path d="M153.7,209.6c1.8-1.7,3.3-3.5,4.5-5.4c0.6-1,1.1-2,1.6-3.1c0.5-1.1,0.8-2.2,1.3-3.4c0.3,1.2,0.3,2.5,0.1,3.8
			c-0.2,1.3-0.7,2.5-1.4,3.6c-0.7,1.1-1.6,2.1-2.6,2.9C156.2,208.7,155,209.4,153.7,209.6z" class="st4"></path>
		<path d="M158.2,210c0,0-6.6-4.4-10.8,0c-4.3,4.4-1.8,115.8,3.2,116.9C155.5,328,160.6,217.7,158.2,210z" class="st2"></path>
	</g>
	<g>
		<path d="M421.2,293.2c-1.6-6.2-3.6-11.8-5.9-16.8c-4.5-9.7-9.9-17.4-15.4-23.3c-4.4-4.7-8.7-8.4-12.4-11.1
			c-7-5.1-12.2-7.1-12.2-7.1c-2.2-5.8-4.7-10.8-7.4-15.2c-4.3-7-9-12.4-13.6-16.5c-1.8-1.6-3.6-3.1-5.4-4.3c0.7-1.1,1.3-2.3,1.9-3.5
			c1.2-2.5,2.1-5.1,2.8-7.9c0.4-1.6,0.7-3.3,0.9-5c0.2-1.2,0.3-2.5,0.3-3.8c0.2-3.6,0-7.2-0.6-10.8c-0.3-1.6-0.6-3.2-1-4.8
			c-0.5-1.8-1.1-3.6-1.8-5.4c-2.4-6.2-6-11.8-10.9-16.5c-9.1-8.7-20.9-14.3-33.2-17.3c-2.6-0.7-5.3-1.2-7.9-1.6
			c-0.8-0.1-1.6-0.3-2.4-0.4c-1.2-0.2-2.3-0.3-3.5-0.5c-0.6-0.1-1.1-0.2-1.7-0.2c-7.3-1-14.1-1.5-21.3-1.1c-0.5,0-1,0-1.5,0.1
			c-1.1,0.1-2.3,0.1-3.4,0.2c-2.7,0.2-5.4,0.6-8.4,1c-1.9,0.3-3.9,0.7-5.9,1.1c-13,2.8-27.1,8.2-36.3,17.6c-2.3,2.3-4.2,4.8-5.9,7.6
			c-1.4,2.3-2.7,4.7-3.7,7.3c-0.7,1.8-1.4,3.6-1.9,5.5c-1,3.5-1.6,7.1-1.9,10.7c-0.1,0.8-0.1,1.7-0.1,2.5c0,1.4,0,2.8,0.1,4.2
			c0.2,2.8,0.6,5.5,1.2,8.2c1.3,5.6,3.7,11.1,7,15.8c2.6,3.7,5.9,7.1,9.8,10.1c-1,1.9-2,3.8-3,5.8c-5.5,10.9-9.7,21.4-12.8,31.3
			C175.1,341,239.2,390,239.2,390c-9.1,2.4-11.8,12.7-7.5,16.1c4.3,3.5,27.7-0.3,42-0.6c14.4-0.4,17.8-8.9,17.8-8.9
			c3.6,1.8,7.2,3.4,10.8,4.9c54.4,21.6,109.9,0.1,120.8-55.1c1.2-6.1,1.9-12.7,1.9-19.6v-0.2C425.2,313.8,423.7,302.8,421.2,293.2z" class="st0"></path>
		<path d="M281.7,171.4c-3.9,0.2-7.4,1.6-11.1,3.7c-4.5,2.5-8.6,6.4-9.3,11.8c-0.3,2.4,0.1,4.9,0.8,7.2
			c6.1,18.4,30.2,13.2,35.4,3.7c2.9-5.3,4.4-12.4,1.5-18.1C296,173.6,288.1,171.2,281.7,171.4z" class="st5"></path>
		<g>
			<g>
				<path d="M324.5,184.4c-5.2,3-13.1,3.5-18.6,0.9c-1.2-0.6-2.2-1.3-3.2-2.2c-4.1-4-6-10.6-5.6-16.2c0-0.1,0-0.3,0-0.4
					c0.5-5.7,4.2-10.6,9.3-12.9c6-2.7,14.8-3.1,19.8,1.8c2,2,3.5,4.6,4.4,7.5l0,0C333.1,170.6,331.5,180.3,324.5,184.4z" class="st6"></path>
				<path d="M324.5,184.4c-3,1.7-6.4,2.5-9.8,2.7c-1.7,0.1-3.4,0-5.1-0.4c-1.7-0.3-3.3-0.9-4.9-1.7
					c-1.5-0.8-2.8-2.1-3.9-3.4c-1.1-1.4-1.9-2.9-2.6-4.5c-1.4-3.2-2-6.7-1.9-10.2l0,0.1c0.2-4.2,2.1-8.1,5.1-11
					c1.5-1.4,3.2-2.6,5.1-3.3c1.9-0.8,3.8-1.3,5.8-1.6c4-0.5,8.3-0.1,11.8,2.1c1.8,1.1,3.2,2.6,4.3,4.3c1.1,1.7,1.9,3.5,2.4,5.4
					l-0.3-0.2l0,0l0.3,0l0.1,0.2c0.6,2,0.9,4,0.9,6c0,2-0.2,4-0.6,6c-0.5,2-1.3,3.8-2.4,5.5C327.7,182,326.2,183.4,324.5,184.4z
					 M324.5,184.4c1.7-1,3.2-2.4,4.3-4.1c1.1-1.7,1.8-3.6,2.3-5.5c0.4-1.9,0.6-4,0.4-5.9c-0.1-2-0.5-3.9-1.2-5.8l0.3,0.2h0l-0.2,0
					l-0.1-0.3c-0.6-1.8-1.5-3.6-2.6-5.1c-1.1-1.5-2.5-2.9-4.1-3.8c-1.6-0.9-3.4-1.4-5.3-1.6c-1.9-0.2-3.8-0.2-5.6,0.1
					c-3.7,0.6-7.4,2-10.1,4.5c-0.7,0.6-1.3,1.3-1.9,2.1c-0.5,0.8-1,1.5-1.4,2.4c-0.4,0.8-0.8,1.7-1,2.6c-0.1,0.4-0.2,0.9-0.3,1.4
					c-0.1,0.4-0.2,1-0.2,1.3l0,0.1c-0.3,3.3,0.2,6.6,1.3,9.7c0.6,1.6,1.3,3,2.3,4.4c1,1.4,2.1,2.6,3.5,3.4c2.8,1.8,6.3,2.4,9.7,2.4
					C318.1,186.8,321.5,186,324.5,184.4z" class="st2"></path>
			</g>
			<path d="M312.9,182.2c4.5,0.6,9.5-1.1,12.2-4.9c4.3-6,2.4-15.4-3.9-19.1c-3.4-2-8.1-2.4-11.7-0.9
				c-9.8,4.1-9,19-0.1,23.7C310.4,181.7,311.6,182.1,312.9,182.2z" class="st2"></path>
			<path d="M330.6,162.9c-19.8-9.3-32,2.4-33.5,4c0-0.1,0-0.3,0-0.4c0.5-5.7,4.2-10.6,9.3-12.9c6-2.7,14.8-3.1,19.8,1.8
				C328.2,157.4,329.7,160,330.6,162.9z" class="st7"></path>
		</g>
		<g>
			<g>
				<path d="M250,190.7c-5.2,3-13.1,3.5-18.6,0.9c-1.2-0.6-2.2-1.3-3.2-2.2c-4.1-4-6-10.6-5.6-16.2c0-0.1,0-0.3,0-0.4
					c0.5-5.7,4.2-10.6,9.3-12.9c6-2.7,14.8-3.1,19.8,1.8c2,2,3.5,4.6,4.4,7.5h0C258.6,177,257,186.7,250,190.7z" class="st6"></path>
				<path d="M250,190.7c-3,1.7-6.4,2.5-9.8,2.7c-1.7,0.1-3.4,0-5.1-0.4c-1.7-0.3-3.3-0.9-4.9-1.7
					c-1.5-0.8-2.8-2.1-3.9-3.4c-1.1-1.4-1.9-2.9-2.6-4.5c-1.4-3.2-2-6.7-1.9-10.2l0,0.1c0.2-4.2,2.1-8.1,5.1-11
					c1.5-1.4,3.2-2.6,5.1-3.3c1.9-0.8,3.8-1.3,5.8-1.6c4-0.5,8.3-0.1,11.8,2.1c1.8,1.1,3.2,2.6,4.3,4.3c1.1,1.7,1.9,3.5,2.4,5.4
					l-0.3-0.2l0,0l0.3,0l0.1,0.2c0.6,2,0.9,4,0.9,6c0,2-0.2,4-0.6,6c-0.5,2-1.3,3.8-2.4,5.5C253.2,188.3,251.7,189.7,250,190.7z
					 M250,190.7c1.7-1,3.2-2.4,4.3-4.1c1.1-1.7,1.8-3.6,2.3-5.5c0.4-1.9,0.6-4,0.4-5.9c-0.1-2-0.5-3.9-1.2-5.8l0.3,0.2l0,0l-0.3,0
					l-0.1-0.3c-0.6-1.8-1.5-3.6-2.6-5.1c-1.1-1.5-2.5-2.9-4.1-3.8c-1.6-0.9-3.4-1.4-5.3-1.6c-1.9-0.2-3.8-0.2-5.6,0.1
					c-3.7,0.6-7.4,2-10.1,4.5c-0.7,0.6-1.3,1.3-1.9,2.1c-0.5,0.8-1,1.5-1.4,2.4c-0.4,0.8-0.8,1.7-1,2.6c-0.1,0.4-0.2,0.9-0.3,1.4
					c-0.1,0.4-0.2,1-0.2,1.3l0,0.1c-0.3,3.3,0.2,6.6,1.3,9.7c0.6,1.6,1.3,3,2.3,4.4c1,1.4,2.1,2.6,3.5,3.4c2.8,1.8,6.3,2.4,9.7,2.4
					C243.6,193.2,247,192.3,250,190.7z" class="st2"></path>
			</g>
			<path d="M238.4,188.6c4.5,0.6,9.5-1.1,12.2-4.9c4.3-6,2.4-15.4-3.9-19.1c-3.4-2-8.1-2.4-11.7-0.9
				c-9.8,4.1-9,19-0.1,23.7C235.9,188,237.2,188.4,238.4,188.6z" class="st2"></path>
			<path d="M256.2,169.2c-19.8-9.3-32,2.4-33.5,4c0-0.1,0-0.3,0-0.4c0.5-5.7,4.2-10.6,9.3-12.9c6-2.7,14.8-3.1,19.8,1.8
				C253.8,163.7,255.2,166.3,256.2,169.2z" class="st7"></path>
		</g>
		<path d="M278.9,169.2c0,0-3.8-3.7-5.7-2.8c-1.9,1,2,5.3,6,6c0,0,6.2-3.9,4.3-6.6C281.6,163.2,278.9,169.2,278.9,169.2
			z" class="st2"></path>
		<g>
			<path d="M336.5,132.6C336.5,132.6,336.5,132.6,336.5,132.6c-0.4,1.2-1,2.4-1.6,3.5c0,0,0,0,0,0
				c-1.2,2.3-2.9,4.4-4.9,6.3c-14.1,12.8-29.5-13.4-29.5-13.4s10.3-3.1,15-11c4.3-7.2,9.6-12.5,14.5-13c0.5,0,1,0,1.5,0
				C335.7,105.5,341,120.1,336.5,132.6z" class="st0"></path>
			<path d="M336.5,132.6C336.5,132.6,336.5,132.6,336.5,132.6c-0.1,0.2-0.5,1.8-1.6,3.5c0,0,0,0,0,0
				c-0.6,0.9-1.7,2-3,2.8c-2.4,1.5-5.6,2.4-8.4,1.3c-7-2.7,5.1-14.8,7.9-25.5c0.9-3.5,0.8-6.9-1.3-9.7c0.5,0,1,0,1.5,0
				C335.7,105.5,341,120.1,336.5,132.6z" class="st2"></path>
			<path d="M330.3,131.3c0,0,2.5,3.7,1.6,7.7c-2.4,1.5-5.6,2.4-8.4,1.3c-7-2.7,5.1-14.8,7.9-25.5
				c0.7,2.8,1.1,7.1-0.8,11.5c0,0,3.4-2.3,4.2-1.7c0.7,0.6-3.1,4-3.4,4.2c0.2-0.1,2.3-1.1,2.8-0.2
				C334.8,129.4,330.3,131.3,330.3,131.3z" class="st6"></path>
		</g>
		<g>
			<path d="M226.7,143c-0.2-0.1-0.4-0.3-0.7-0.4c-15.6-9.9-10.7-33.4-5.7-35c0.1,0,0.2-0.1,0.3-0.1
				c5.1-1.4,11.9,2.9,18,9.6c6.2,6.8,16.9,7.7,16.9,7.7S243.1,152.7,226.7,143z" class="st0"></path>
			<path d="M226,142.6c-15.6-10-10.7-33.4-5.7-35c0.1,0,0.2-0.1,0.3-0.1c-0.2,1.5-0.2,3.6,0.6,6.4
				c0.9,2.8,2.6,6.1,5.9,9.9c6.1,6.9,4.3,13.1,1.5,16.5C227.8,141.4,226.9,142.1,226,142.6z" class="st2"></path>
			<path d="M228.7,140.3c-10.5-3.7-6.2-13.5-6.2-13.5s-2.1,1.3-2.8-0.1c-0.7-1.3,1.9-1.9,2.1-2c-0.1,0-2.5-0.9-2.8-1.8
				c-0.3-1,2.4-0.5,2.4-0.5c-1.9-3.5-0.7-6.9,0-8.5c0.9,2.8,2.6,6.1,5.9,9.9C233.3,130.8,231.5,136.9,228.7,140.3z" class="st6"></path>
		</g>
		<path d="M291.1,222.7c1.4,0,2.8-0.1,4.1-0.1c1.4-0.1,2.7-0.2,4.1-0.3l0.6-0.1l-0.4,0.5c-0.5,0.6-0.9,1.3-0.9,2.1
			c0,0.4,0.1,0.7,0.3,0.9c0.1,0.1,0.2,0.2,0.3,0.2c0.1,0,0.2,0,0.4-0.1c0.6-0.4,1-1.1,1.5-1.8c0.4-0.7,0.8-1.4,1.2-2.1l0.4-0.9
			l0.3,1c0.2,0.7,0.4,1.3,0.7,1.9c0.3,0.6,0.7,1.2,1.1,1.5c0.1,0.1,0.1,0,0.1,0c0,0,0.1-0.1,0.1-0.2c0.1-0.3,0.2-0.6,0.2-0.9
			c0.1-0.7,0-1.4,0-2.1l0-0.5l0.5,0c2.1-0.1,4.3-0.3,6.3-0.8c2.1-0.5,4.1-1.2,5.8-2.4l0.8-0.6l-0.4,0.9c-0.3,0.8-0.6,1.8-0.5,2.6
			c0,0.1,0,0.2,0.1,0.3c0,0.1,0,0,0,0c0,0,0,0,0,0c0.1,0,0.4-0.1,0.6-0.2c0.4-0.2,0.8-0.4,1.2-0.7c1.6-1,3-2.2,4.5-3.4
			c-1.4,1.3-2.8,2.5-4.3,3.7c-0.4,0.3-0.8,0.6-1.2,0.8c-0.2,0.1-0.4,0.2-0.8,0.2c-0.1,0-0.2,0-0.3-0.1c-0.1-0.1-0.2-0.2-0.2-0.2
			c-0.1-0.1-0.1-0.3-0.1-0.4c-0.2-1,0.1-2,0.4-2.9l0.5,0.4c-0.9,0.7-1.9,1.2-2.9,1.6c-1,0.4-2.1,0.8-3.1,1c-2.1,0.5-4.3,0.8-6.5,0.9
			l0.4-0.5c0.1,0.7,0.1,1.5,0,2.2c0,0.4-0.1,0.8-0.3,1.2c-0.1,0.2-0.2,0.4-0.5,0.6c-0.3,0.2-0.7,0.1-0.9,0c-0.8-0.5-1.1-1.2-1.5-1.9
			c-0.3-0.7-0.6-1.4-0.8-2.1l0.7,0.1c-0.4,0.8-0.8,1.5-1.2,2.2c-0.5,0.7-0.9,1.4-1.7,1.9c-0.2,0.1-0.5,0.2-0.8,0.2
			c-0.3,0-0.6-0.3-0.7-0.4c-0.3-0.4-0.4-0.9-0.4-1.4c0.1-0.9,0.6-1.7,1.1-2.3l0.2,0.4c-1.4,0.1-2.8,0.1-4.2,0.1
			C293.9,222.9,292.5,222.8,291.1,222.7z" class="st8"></path>
		<path d="M220.4,212.1c0.1,0.9,0.2,1.9,0.4,2.8c0.2,0.9,0.5,1.8,0.9,2.6c0.2,0.4,0.6,0.7,1,0.7c0.4,0.1,0.7-0.2,1-0.5
			c0.6-0.6,0.9-1.5,1.2-2.4l0.3-1.1l0.3,1.1c0.3,1,0.6,1.9,1,2.9c0.4,0.9,0.9,1.8,1.6,2.5c0.3,0.3,0.7,0.6,1.1,0.7
			c0.4,0.1,0.8,0.1,1.2-0.2c0.7-0.5,1-1.5,1.1-2.4l0.1-0.6l0.6,0.3c1.7,0.9,3.5,1.7,5.3,2.4c1.8,0.7,3.7,1.2,5.6,1.6
			c1.9,0.4,3.8,0.7,5.8,0.8c1.9,0.2,3.9,0,5.8-0.2c-1.9,0.4-3.9,0.7-5.9,0.6c-2,0-4-0.2-5.9-0.6c-1.9-0.3-3.9-0.9-5.7-1.5
			c-1.9-0.7-3.7-1.4-5.5-2.4l0.7-0.3c-0.1,0.6-0.2,1.1-0.5,1.6c-0.2,0.5-0.6,1-1.1,1.4c-0.5,0.4-1.3,0.4-1.8,0.3
			c-0.6-0.2-1.1-0.5-1.5-0.9c-0.8-0.8-1.3-1.8-1.7-2.7c-0.4-1-0.7-2-1-3l0.6,0c-0.3,0.9-0.7,1.8-1.4,2.6c-0.4,0.4-0.9,0.7-1.5,0.6
			c-0.6-0.1-1-0.5-1.2-1c-0.5-0.9-0.7-1.8-0.8-2.8C220.4,214,220.4,213.1,220.4,212.1z" class="st8"></path>
		<path d="M249.1,210c0.9-0.6,1.7-1.3,2.3-2.2c1.9-2.9,0.8-7-1.8-9.3c-2.6-2.3-6.3-3-9.7-2.7c-1.2,0.1-2.5,0.3-3.6,0.8
			c-1.3,0.6-2.3,1.6-3.2,2.7c-1.3,1.6-2.3,3.6-2.5,5.6c-0.1,1,0,2,0.2,3C232.6,216.3,244,213.5,249.1,210z" class="st9"></path>
		<path d="M313.3,191.1c-0.8,0.7-1.6,1.5-2.1,2.4c-1.6,3.1-0.1,7.1,2.7,9.1c2.8,2,6.5,2.3,9.9,1.7
			c1.2-0.2,2.4-0.5,3.5-1.1c1.2-0.7,2.1-1.8,2.9-3c1.1-1.7,1.9-3.8,2-5.8c0-1-0.2-2-0.5-3C329.1,183.1,318,187.1,313.3,191.1z" class="st9"></path>
		<path d="M291.9,121.3c-2,7.6-4.9,17.5-6.8,20.5c-1.2,1.9-2.9,4-5.2,4.1c-1.6,0-3-0.9-4-2.2c-0.9-1.3-1.4-2.8-1.9-4.3
			c-1.2-3.8-2.4-12.1-3.5-19.2C277.8,119.8,284.6,120.3,291.9,121.3z" class="st2"></path>
		<path d="M307.3,124c-0.8,1.2-1.6,2.4-2.4,3.6c-1,1.3-2,2.6-3.4,3.3c-0.8,0.4-1.8,0.6-2.7,0.4
			c-1.4-0.4-2.3-1.8-2.5-3.2c-0.2-1.6,0-4,0.7-6.1c0.8,0.1,1.6,0.3,2.4,0.4C302.1,122.8,304.7,123.3,307.3,124z" class="st2"></path>
		<path d="M265.6,120.5c-0.1,1.3-0.3,2.7-0.7,4c-0.3,1.3-0.7,2.7-1.5,3.8c-0.8,1.1-1.9,2.1-3.3,2.3
			c-2.2,0.3-4.2-1.4-5.6-3.1c-0.9-1.1-2.4-3-3.2-4.8c2-0.4,4-0.8,5.9-1.1C260.2,121,262.9,120.7,265.6,120.5z" class="st2"></path>
		<path d="M216.9,170c-0.4,0.7-1,1.1-1.7,1.5c-3.3,1.9-8.9,2.9-13.7,2.1c0-0.8,0-1.7,0.1-2.5c0.2-3.6,0.9-7.2,1.9-10.7
			c0.4,0.2,0.8,0.4,1.2,0.5c2.8,1.3,5.7,2.6,8.5,3.8c1.1,0.5,2.2,1,3,1.9C217,167.6,217.5,168.9,216.9,170z" class="st2"></path>
		<path d="M212.2,155.3c-2.2,0.7-4.5,0.3-6.7-0.3c1-2.5,2.3-5,3.7-7.3c1.3,0.9,2.4,2,3.5,3.1
			C213.9,152.3,214.6,154.6,212.2,155.3z" class="st2"></path>
		<path d="M211.8,180.7c0.4,0.6,0.2,1.4-0.2,1.9c-0.4,0.5-1,0.9-1.6,1.2c-2.2,1.2-4.6,1.9-7.1,2.3
			c-0.6-2.7-1-5.4-1.2-8.2c0.2,0,0.4,0,0.6,0.1c2.8,0.4,5.7,0.9,8.4,1.9C211.1,180.1,211.5,180.3,211.8,180.7z" class="st2"></path>
		<path d="M354.1,167.9c0.6,3.6,0.8,7.2,0.6,10.8c-0.1,1.3-0.2,2.5-0.3,3.8c-7.8-1.1-15.5-4-13.8-8.5
			c0.3-0.7,0.9-1.4,1.6-1.9c2.2-1.7,4.7-2.8,7.3-3.4C351,168.3,352.6,168.1,354.1,167.9z" class="st2"></path>
		<path d="M351.4,157.7c0.7,1.8,1.3,3.6,1.8,5.4c-1.3,0.1-2.5,0.1-3.8,0.2c-0.8,0-1.6,0-2.4-0.2
			c-0.3-0.1-0.6-0.3-0.8-0.6c-0.5-0.7,0.1-1.6,0.7-2.2C348.1,159.1,349.7,158.3,351.4,157.7z" class="st2"></path>
		<g>
			<path d="M280.4,172.7c0,0-7-2.7-14.1,1.3c-7,3.9-1.9,20.1-6.2,21.7c-4.3,1.6-8.1-1.7-6.9-5.3c0,0-3.7,8.9,7.3,10.4
				C271.6,202.2,279.2,200.2,280.4,172.7z" class="st2"></path>
			<path d="M278.9,172.6c0,0,7-2.7,14.1,1.3c7,3.9,1.9,20,6.2,21.7c4.3,1.6,8.1-1.7,6.9-5.3c0,0,3.7,8.9-7.3,10.4
				C287.7,202.1,280.2,200.1,278.9,172.6z" class="st2"></path>
		</g>
		<g>
			<path d="M318.9,191.9c2.9,0.5,5.7,1.2,8.5,2c2.8,0.8,5.6,1.7,8.3,2.9c-2.9-0.5-5.7-1.2-8.5-2
				C324.3,193.9,321.6,193,318.9,191.9z" class="st2"></path>
			<path d="M337.5,189.7c-2.8,0.2-5.6,0.2-8.5,0.1c-2.8-0.1-5.6-0.3-8.4-0.8c2.8-0.2,5.6-0.2,8.5-0.1
				C331.9,189.1,334.7,189.3,337.5,189.7z" class="st2"></path>
			<path d="M335.8,180.8c-2.4,1.5-5,2.7-7.6,3.8c-2.6,1.1-5.2,2.2-7.9,3c2.4-1.5,5-2.7,7.6-3.8
				C330.5,182.7,333.1,181.7,335.8,180.8z" class="st2"></path>
		</g>
		<g>
			<path d="M235.3,203.8c-2.9,0.8-5.9,1.4-8.8,1.9c-3,0.5-6,0.9-9,1c2.9-0.8,5.9-1.4,8.8-1.9
				C229.2,204.3,232.2,203.9,235.3,203.8z" class="st2"></path>
			<path d="M216.5,199.2c2.9-0.1,5.8,0.1,8.7,0.3c2.9,0.3,5.8,0.6,8.6,1.2c-2.9,0.1-5.8,0-8.7-0.3
				C222.2,200.1,219.3,199.8,216.5,199.2z" class="st2"></path>
			<path d="M219.3,190.3c2.7,1.2,5.2,2.6,7.7,4.1c2.5,1.5,4.9,3.1,7.2,4.9c-2.7-1.2-5.2-2.6-7.7-4.1
				C224.1,193.7,221.6,192.1,219.3,190.3z" class="st2"></path>
		</g>
	</g>
	<path d="M233.1,122.7c0,0-9.2-21.5,12.5-32.7c21.7-11.2,53.7,10.2,53.7,10.2S323.7,90,326,118.7
		c2.2,28.7-91.9,3.2-91.9,3.2" class="st10"></path>
	<g>
		<g>
			<path d="M228.8,306.4c-0.9,0-57.4,23.8-31.4,72.3c0,0-33.9,15.6-26.2,22.9c7.6,7.3,11.3-5.2,28.1-4.3
				c16.8,0.9,18.6-5.8,18.9-12.2c0,0,38.5,12.2,49.4-14C278.6,344.9,228.8,306.4,228.8,306.4z" class="st0"></path>
			<path d="M228.8,306.6c-0.9,0-57.4,23.8-31.4,72.3c0,0-33.9,15.6-26.2,22.9c7.6,7.3,11.3-5.2,28.1-4.3
				c16.8,0.9,18.6-5.8,18.9-12.2c0,0,38.5,12.2,49.4-14C278.6,345.1,228.8,306.6,228.8,306.6z" class="st1"></path>
		</g>
		<path d="M176.8,403.3c0,0-0.6-5.1,4.3-8.1" class="st2"></path>
	</g>
	<path d="M281.3,352.8c-1.2,6-2.1,12.9-2.4,20.7c0,0-2.9,9.5-19.5,12c-11.2,1.7-22.1,3.8-27,8.8
		c1.6-1.9,3.8-3.5,6.8-4.3c0,0-64.1-49-35.3-140.9c3.3-0.3,7-0.2,10.9,0.6c20.6,4.2,21.2,48.2,21.2,48.2S248.8,329.5,281.3,352.8z" class="st4"></path>
	<g>
		<path d="M283.8,297.5C283.8,297.5,283.8,297.5,283.8,297.5c-0.2,0.9-0.3,1.4-0.3,1.4s-0.4,1.1-1.3,2.9c0,0,0,0,0,0.1
			c-2.4,4.8-8.1,14.6-17,21.5c-3.4,2.6-7.3,4.9-11.6,6.3c-2.9,0.9-6,1.5-9.3,1.6H244c-4,0.1-7.5,0-10.7-0.1c-6.6-0.3-11.7-1-16-1.6
			c0,0,0,0,0,0c-3.7-0.5-6.9-0.9-9.9-1c-2.8-0.1-5.5,0.2-8.5,1.1c-0.2,0-0.3,0.1-0.5,0.2c-4.1,1.3-7.4,1.8-10.2,1.4
			c-0.4,0-0.8-0.1-1.2-0.2c-4.6-0.9-7.4-4.1-8.8-8.9c-1.3-4.3,0-11.3,5.3-17.6c4.4-5.2,11.6-10,22.4-12.3
			c16.9-3.6,24.6-0.3,26.4,0.7c0,0,0,0,0.1,0c0.2,0.1,0.3,0.2,0.4,0.2c0,0,0,0,0,0c0,0,0.1-0.2,0.4-1.6c0.1-0.5,0.1-1.1,0.3-1.9
			c1.2-2.9,2-6.3,2.4-14.8c0-0.1,0.1-0.3,0.1-0.5c0-0.1,0-0.3,0.1-0.4c0,0,19.9-10,37.1-6.5C287.8,270.7,284.9,291.8,283.8,297.5z" class="st0"></path>
		<path d="M285.4,292.3l-1.5,5.2l0,0c0,0.1,0,0.1,0,0.2l0,0l-1.5,4.2l0-0.1c0,0.1,0,0.1-0.1,0.2l0-0.1
			c-2.4,6-5.8,11.7-10.4,16.4c-4.5,4.7-10.1,8.4-16.2,10.7c-6.1,2.4-12.6,3.5-19.2,3.7c-6.5,0.1-13.1-0.5-19.4-2.3l0.2,0l0,0l-0.1,0
			l-0.1,0l-0.2-0.1l0.1,0.1c-4.5-1.3-9.3-1.1-14-0.4c-2.4,0.4-4.7,0.8-7.1,1.3c-2.4,0.4-4.8,0.9-7.3,0.9c-1.3,0-2.6-0.1-3.8-0.5
			c-0.6-0.2-1.2-0.5-1.8-0.8c-0.5-0.4-1.1-0.7-1.6-1.2c-1.9-1.8-3.2-4.1-3.9-6.5c-1.4-4.9-0.3-10.3,2.2-14.6
			c1.3-2.1,2.9-4.1,4.7-5.8c1.8-1.7,3.8-3.2,5.8-4.5c4.2-2.6,8.7-4.5,13.5-5.7c4.7-1.2,9.6-2,14.5-2c4.9,0.1,10.1,0.4,14.5,2
			l0.2-0.2c0,0-0.4,0.4-0.3,0.4l-0.3,0.2c0.7-1.3,1.3-2.7,1.7-4.2c0.4-1.5,0.8-3,1-4.5c0.5-3,0.8-6.1,0.9-9.2l0,0
			c0.1-0.6,0-1.3,0-1.9l0-1.9l0.1,1.9c0,0.7,0.1,1.3,0,2l0,0c0,3.1-0.1,6.2-0.6,9.3c-0.2,1.5-0.5,3.1-0.9,4.6c-0.4,1.5-1,3-1.7,4.4
			l-0.1,0.2l-0.2,0c0,0-0.1,0-0.1,0l-0.1,0c-9.3-2.2-19.2-2.2-28.4,0.3c-4.6,1.3-9,3.2-13,5.8c-2,1.3-3.9,2.7-5.6,4.4
			c-1.7,1.6-3.1,3.5-4.3,5.5c-2.3,4-3.2,8.9-1.9,13.3c0.6,2.2,1.8,4.2,3.4,5.7c1.6,1.6,3.8,2,6.1,2c4.6-0.2,9.4-1.5,14.2-2.1
			c4.8-0.7,9.9-0.9,14.7,0.5l0.1,0.1l0,0l-0.3,0l0,0l0.1,0l0.1,0c6.1,1.7,12.6,2.4,18.9,2.3c6.4-0.1,12.8-1.1,18.8-3.3
			c6-2.2,11.5-5.6,16-10.2c4.6-4.5,8.1-10,10.7-15.9l0-0.1c0,0,0,0,0,0.1l0-0.1l1.7-4.2l0,0c0,0,0,0,0,0l0,0L285.4,292.3z" class="st8"></path>
		<path d="M231.2,293.2c0.8,0.1,0.3-0.9,1.1-0.7c3,0.5,7,2,9.8,2.9c3.5,1.3,7.1,2.7,10.2,5c-3.7-0.9-7-2.5-10.5-3.7
			C238.2,295.4,234.5,294.1,231.2,293.2z" class="st8"></path>
		<path d="M188.1,331.5c-0.2-1.9,0.1-3.7,0.5-5.5c0.5-1.8,1.3-3.6,2.3-5.2c1-1.6,2.4-3,4-4.1c1.5-1.1,3.4-1.7,5.2-2.1
			c-1.6,1-3.1,1.9-4.3,3.2c-1.3,1.2-2.4,2.5-3.4,4C190.5,324.7,189.2,327.9,188.1,331.5z" class="st2"></path>
	</g>
	<path d="M230.1,403.7c-0.3-1-0.4-2-0.4-3.1l0,0c-0.1-2.5,1.1-5,2.9-6.8c1.8-1.8,4.1-3,6.4-4c4.6-2,9.6-3,14.5-3.9
		c4.9-0.9,9.9-1.4,14.3-3.4c2.2-0.9,4.4-2.1,6.2-3.7c1.8-1.5,3.4-3.5,4.2-5.5l0,0.2c0.3-9,1.3-18.1,3.7-26.8
		c1.2-4.4,2.8-8.7,4.7-12.8c2-4.1,4.5-7.9,7.5-11.4c6-6.9,14.5-11.5,23.4-13.1c4.5-0.8,9-1,13.5-0.6c4.5,0.4,9,1.2,13.2,2.7
		c-8.7-2.4-17.8-2.8-26.6-1c-4.4,0.9-8.5,2.5-12.4,4.7c-3.8,2.2-7.2,5.1-10.1,8.4c-2.9,3.3-5.3,7.1-7.2,11.1
		c-1.9,4-3.4,8.2-4.5,12.5c-2.3,8.6-3.4,17.5-3.8,26.4l0,0.1l0,0.1c-1,2.6-2.8,4.6-4.7,6.3c-2,1.7-4.2,2.9-6.6,3.9
		c-4.8,2-9.9,2.3-14.7,3.2c-4.9,0.8-9.8,1.8-14.4,3.5c-2.3,0.9-4.5,2-6.3,3.7c-1.8,1.6-3,3.9-3.1,6.4l0,0
		C229.7,401.6,229.8,402.6,230.1,403.7z" class="st8"></path>
	<path d="M238.4,407.6c-0.3-1.3-0.2-2.6,0-3.8c0.3-1.3,0.8-2.5,1.6-3.6c0.8-1.1,1.8-2,2.9-2.6c1.1-0.7,2.5-0.9,3.7-1
		c-1.1,0.7-2.1,1.3-2.9,2.1c-0.9,0.8-1.6,1.6-2.3,2.5C240.1,403.1,239.3,405.2,238.4,407.6z" class="st2"></path>
	<path d="M356.4,193.9l-0.5,0.1C356.1,193.8,356.3,193.8,356.4,193.9z" class="st2"></path>
	<path d="M367.8,219.7c-1.2,1.2-2.4,2.4-3.7,3.4c-5.8,5-12.9,9.4-20.6,9c-1.9-0.1-3.7-0.5-5.3-1.6
		c-1.6-1-2.7-2.8-2.6-4.7c0.1-2.7,2.4-4.8,4.6-6.5c5.6-4.5,10.9-9.8,14.1-16.1C358.8,207.3,363.6,212.7,367.8,219.7z" class="st2"></path>
	<path d="M399.9,253.1c-0.2,0.3-0.3,0.5-0.5,0.7c-5.8,8.2-16.4,15.7-26.5,16.9c-4.1,0.5-11.7-0.6-11.6-6.2
		c0-2.5,2-4.6,4-5.9c4.8-3.1,10-5.7,14.6-9.1c2.9-2.1,5.5-4.6,7.6-7.5C391.2,244.7,395.5,248.4,399.9,253.1z" class="st2"></path>
	<path d="M421.2,293.2c-2.1,1.5-4.4,2.8-6.8,3.8c-5.5,2.5-11.6,4-17.6,4.2c-4.3,0.2-8.9,0.6-13-1
		c-4.4-1.7-6.6-6.4-2.7-10c4.7-4.3,11.8-4.3,18-5.6c6-1.3,11.6-4.2,16.2-8.2C417.6,281.4,419.6,287,421.2,293.2z" class="st2"></path>
	<path d="M425.1,326.5v0.2c-0.1,6.9-0.7,13.5-1.9,19.6c-8.1,2.3-17,2-25.1-0.4c-3.5-1-7-2.5-9.3-5.3
		c-2.3-2.8-3.2-7.1-1.1-10c2.1-3,6.2-3.6,9.9-3.7c6.7-0.1,13.5,0.9,20.2,0.6C420.2,327.4,422.7,327.1,425.1,326.5z" class="st2"></path>
	<path d="M254,325.2c0.1,1.3-0.1,2.6-0.3,3.8c-0.1,0.2-0.1,0.4-0.2,0.6c-2.9,0.9-6,1.5-9.3,1.6H244
		c-3.8,0.5-7.5,0.7-10.9,0.6c0.1-0.2,0.2-0.4,0.2-0.7c0.1-0.5,0.2-0.9,0.3-1.4c0.4-4.9-1.9-9.7-1.9-14.7c0-1.1,0.1-2.2,0.7-3.2
		c0.7-1.2,1.9-2,3.2-2.4c3.5-1.1,7.4,0,10.4,2C250.6,314.6,253.7,319.7,254,325.2z" class="st2"></path>
	<path d="M280.6,305.1c-2.7,5.5-6,9.9-9.6,13.4c-0.1-0.1-0.2-0.2-0.3-0.3c-0.5-0.6-1-1.2-1.5-1.8
		c-1.7-2.1-3.3-4.4-3.9-7.1c-0.6-2.7-0.1-5.7,1.9-7.6c2.1-1.8,5.2-2,7.8-1c2.1,0.8,3.9,2.4,5.4,4.1
		C280.5,305,280.5,305.1,280.6,305.1z" class="st2"></path>
	<path d="M309.4,124.2c0,0-31.2-14.7-61-1.1c0,0-12.1,15.3,1.1,18.3C262.6,144.4,300.5,134.9,309.4,124.2z" class="st11"></path>
	<path d="M301.6,99c0,2-1.7,3.7-3.7,3.7c-2,0-3.7-1.7-3.7-3.7c0-2,1.7-3.7,3.7-3.7C299.9,95.3,301.6,97,301.6,99z" class="st11"></path>
</g>
</svg>
