<svg xml:space="preserve" style="enable-background:new 0 0 500 500;" viewBox="0 0 500 500" y="0px" x="0px"
     xmlns="http://www.w3.org/2000/svg" id="图层_1" version="1.0">
<style type="text/css">
	.st0{fill:#5ED5B5;}
	.st1{fill:#FB5555;}
	.st2{fill:#FC903E;}
	.st3{opacity:0.2;fill:#A0312F;}
	.st4{fill:#A0312F;}
	.st5{opacity:0.48;fill:#FB5555;}
	.st6{opacity:0.48;fill:#A0312F;}
	.st7{fill:#FFFFFF;}
	.st8{opacity:0.21;fill:#A0312F;}
	.st9{opacity:0.48;}
</style>
<g>
	<g>
		<path d="M416.6,401.8c0,7.2-1.2,14.1-3.4,20.5c-4.7,13.6-13.9,25.1-25.9,32.6c-9.7,6.1-21.1,9.7-33.4,9.7
			c-1.5,0-2.9-0.1-4.3-0.2c-16.2-1.1-30.8-8.4-41.3-19.5c-3.6-3.8-6.7-8.1-9.3-12.7c-1.7-3.1-3.2-6.4-4.4-9.8
			c-0.1-0.3-0.2-0.6-0.3-0.9c-2-6.2-3.2-12.8-3.2-19.7c0-10.2,2.4-19.8,6.8-28.3c5.7-11.3,14.7-20.6,25.8-26.7
			c9-4.9,19.3-7.7,30.2-7.7c2.8,0,5.5,0.2,8.2,0.5c9.9,1.3,19.2,4.9,27.1,10.3c13.1,8.9,22.6,22.6,26,38.6
			C416.1,392.8,416.6,397.2,416.6,401.8z" class="st0"></path>
		<path d="M362.1,339.6l-25,8l-0.5,0.2l-1.4-0.1l-11.5-0.9c9-4.9,19.3-7.7,30.2-7.7C356.6,339,359.4,339.2,362.1,339.6z" class="st1"></path>
		<path d="M371.3,379.1c0,0-29.6-13.5-31.9-13.3c-2.3,0.2-19.5,23.7-19.5,25.2c0,1.5,16.3,24.1,17.8,24.5
			c1.5,0.4,27.3-6.3,28.8-7.2C367.9,407.5,371.3,379.1,371.3,379.1z" class="st1"></path>
		<path d="M415.1,388.5c-0.7,0.1-1.3,0.1-1.8,0.2c-0.2,0-0.5,0-0.6,0c-0.2,0-0.6-0.3-1.2-0.7
			c-4.3-2.9-17.5-14.2-19.6-16.5c-0.2-0.2-0.3-0.3-0.3-0.4c-0.1-0.2-0.2-0.7-0.2-1.4c-0.6-4.2-1.9-16.4-2.2-19.7
			C402.2,358.8,411.7,372.5,415.1,388.5z" class="st1"></path>
		<path d="M413.1,422.2c-4.7,13.6-13.9,25.1-25.9,32.6c-3.6-2.7-7.9-5.8-10.2-7.8c-0.8-0.7-1.4-1.2-1.5-1.5
			c0,0,0-0.1-0.1-0.1c-0.6-1.4,5-20,7.1-22.6c0.1-0.1,0.2-0.2,0.3-0.3c0.2-0.1,0.8-0.4,1.6-0.6c5-1.7,19.1-5.5,22.8-6.2
			c0.5-0.1,0.8-0.2,0.9-0.1c0.1,0,0.4,0.3,0.8,0.9C410,417.7,411.6,419.9,413.1,422.2z" class="st1"></path>
		<path d="M349.5,464.4c-16.2-1.1-30.8-8.4-41.3-19.5c0-0.5,0.1-0.9,0.1-1.3v0c0.1-0.7,0.3-1.2,0.5-1.4
			c0.1-0.1,0.3-0.2,0.6-0.2c3.2-1.2,17.4-4.4,21.5-5c0.5-0.1,0.8-0.1,1-0.1c0.2,0,0.5,0.2,0.9,0.4c3.3,1.9,13.6,9.9,17.5,13.4
			c0.9,0.8,1.5,1.4,1.5,1.6c0,0,0,0.1,0,0.2C351.9,453.7,350.6,459.8,349.5,464.4z" class="st1"></path>
		<path d="M301.7,394.8c0,0.2-0.1,0.7-0.3,1.6c-1.2,5.3-6.1,21.6-7.1,25.1c-2-6.2-3.2-12.8-3.2-19.7
			c0-10.2,2.4-19.8,6.8-28.3c1.3,4.4,3.4,18.4,3.8,21C301.6,394.6,301.6,394.7,301.7,394.8z" class="st1"></path>
		<polygon points="300.6,396.5 300.2,394.7 322.6,390.2 323,392.1" class="st1"></polygon>
		
			<rect height="19.5" width="1.9" class="st1" transform="matrix(0.9849 -0.1732 0.1732 0.9849 -56.5865 63.8644)" y="346.4" x="336.7"></rect>
		
			<rect height="1.9" width="29.9" class="st1" transform="matrix(0.9271 -0.3747 0.3747 0.9271 -112.6693 170.1214)" y="373.8" x="366.2"></rect>
		<path d="M407.6,420l-1.6-1c4.1-6.7,5.6-32.1,5.6-32.4l1.9,0.1C413.4,387.8,411.9,412.9,407.6,420z" class="st1"></path>
		
			<rect height="1.9" width="32.6" class="st1" transform="matrix(0.2599 -0.9656 0.9656 0.2599 -161.5498 637.7784)" y="423.3" x="319"></rect>
		
			<rect height="27.6" width="1.9" class="st1" transform="matrix(0.6219 -0.7831 0.7831 0.6219 -183.9014 451.5906)" y="402.5" x="374.8"></rect>
		<path d="M347,452.8l-0.1-1.9c0.2,0,23.4-0.9,37-9.2l1,1.6C370.9,451.9,347.9,452.8,347,452.8z" class="st1"></path>
		<path d="M312.6,444.5l-1.1,1.6c-1-0.7-2-1.5-3.1-2.6v0c-3.1-3-6.5-7.3-9.4-11.3c-1.7-3.1-3.2-6.4-4.4-9.8
			c2.7,4.1,9.3,14.1,14.9,19.5C310.5,443,311.6,443.9,312.6,444.5z" class="st1"></path>
	</g>
	<g>
		<path d="M247.4,73.4c-0.2,0.5-0.3,1-0.5,1.5c-0.2,0.6-0.4,1.3-0.7,1.9c-0.2,0.5-0.4,1.1-0.6,1.6
			c-0.3,0.8-0.6,1.6-1,2.4c-0.3,0.6-0.5,1.2-0.8,1.8c-0.4,0.9-0.9,1.8-1.3,2.6c-0.5,1-1.1,2-1.7,2.9c-0.2,0.4-0.5,0.7-0.7,1.1
			c-0.4,0.7-0.9,1.3-1.3,1.9c-3.3,4.5-7.1,7.8-11.1,8.8c-0.6,0.2-1.2,0.3-1.8,0.4c-19.1,4.1-38.2-4.9-51,4.8c-0.7,0.5-1.3,1.1-2,1.7
			c-1.2,1.2-2.2,2.6-3.1,4.1c-0.3,0.5-0.5,0.9-0.7,1.4c-0.3,0.5-0.5,1.1-0.8,1.7c-0.3,0.7-0.5,1.3-0.7,2c-0.1,0.2-0.1,0.3-0.2,0.5
			c0,0.1-0.1,0.2-0.1,0.3c-0.9,2.7-1.4,5.6-1.8,8.5v0c-1.8,14.3,0.8,30.5,1.1,32.4c0,0.1,0,0.2,0,0.2l-21.5,2.7
			c0,0-0.9-4.3-1.7-10.8c-0.6-4.6-1.1-10.3-1.1-16.4c-0.1-5.6,0.3-11.5,1.3-17.1c0,0,0,0,0-0.1c0.2-0.9,0.3-1.7,0.5-2.6
			c0.2-0.9,0.4-1.7,0.6-2.5c0.2-1,0.5-1.9,0.8-2.9c0.2-0.8,0.5-1.6,0.8-2.4c0.2-0.5,0.4-1,0.6-1.5c0.3-0.7,0.6-1.4,1-2.1
			c2.4-4.9,5.7-9,10.3-11.9c8.4-5.3,17.1-6.1,25.2-5.7c6.6,0.4,12.9,1.6,18.4,1.8c7.8,0.4,14.1-1,17.9-9.2c0-0.1,0.1-0.1,0.1-0.2
			c0.8-1.8,1.5-3.6,1.9-5.3c1-3.6,1.5-7.2,1.8-10.7c0.6-7.7,0.2-14.9,1.8-20c0.3-0.9,0.6-1.8,1-2.6c2-3.6,5.6-5.7,12.5-5.7
			c5.4,0,8.8,3.4,10.6,8.7C252,49.6,250.9,62,247.4,73.4z" class="st2"></path>
		<path d="M247.4,73.4c-0.2,0.5-0.3,1-0.5,1.5c-0.2,0.6-0.4,1.3-0.7,1.9c-0.2,0.5-0.4,1.1-0.6,1.6
			c-0.3,0.8-0.6,1.6-1,2.4c-0.3,0.6-0.5,1.2-0.8,1.8c-0.4,0.9-0.9,1.8-1.3,2.6c-0.5,1-1.1,2-1.7,2.9c-0.2,0.4-0.5,0.7-0.7,1.1
			c-0.4,0.7-0.9,1.3-1.3,1.9c-3.3,4.4-7,7.6-11.1,8.7c-0.6,0.2-1.3,0.3-1.9,0.5c-19.2,4.1-38.4-5-51.1,4.9c-0.6,0.5-1.2,1-1.8,1.5
			c-1.2,1.2-2.3,2.7-3.2,4.3c-0.3,0.5-0.5,0.9-0.7,1.4c-0.3,0.5-0.5,1.1-0.8,1.7c-0.3,0.7-0.5,1.3-0.7,2c-0.1,0.2-0.1,0.3-0.2,0.5
			c0,0.1-0.1,0.2-0.1,0.3c-0.3,0.9-0.5,1.8-0.7,2.7c-0.1,0.2-0.1,0.5-0.2,0.7c-0.1,0.4-0.2,0.9-0.3,1.3c-0.1,0.4-0.2,0.9-0.2,1.3
			c-0.2,0.9-0.3,1.8-0.4,2.6c-1.9,15.2,1.2,32.3,1.2,32.3l-0.1,0l-21.4,2.7c0,0-0.9-4.2-1.7-10.7c-0.5-4.5-1-10.2-1.1-16.2
			c-0.1-5.6,0.2-11.5,1.2-17.2c0,0,0,0,0-0.1c0.2-0.9,0.3-1.7,0.5-2.6c0.2-0.9,0.4-1.7,0.6-2.5c0.2-1,0.5-1.9,0.8-2.9
			c0.2-0.8,0.5-1.6,0.8-2.4c0.2-0.5,0.4-1,0.6-1.5c0.3-0.7,0.6-1.4,1-2.1c2.4-5,5.7-9.2,10.3-12.1c8.4-5.3,16.9-6.1,25-5.7h0
			c6.7,0.3,13,1.6,18.6,1.8c7.8,0.4,14.1-1,17.8-9.2c0.8-1.8,1.5-3.6,1.9-5.3c1.1-3.6,1.6-7.2,1.9-10.7c0.7-7.7,0.2-14.8,1.7-20
			c0.3-0.9,0.6-1.8,1-2.6c1.9-3.7,5.5-5.9,12.6-5.9c5.5,0,8.9,3.5,10.6,8.9C252.1,49.6,251,62,247.4,73.4z" class="st3"></path>
		<path d="M249.5,41.5c0,0-0.1,0.1-0.1,0.1c-4.3,3.1-10-0.3-10-0.3c-0.5,12.1-12.2,18.2-15.9,19.8c0,0-0.1,0-0.1,0
			c0.6-7.7,0.2-14.9,1.8-20c0.3-0.9,0.6-1.8,1-2.6c1.9-3.7,5.5-5.9,12.6-5.9C244.3,32.6,247.7,36.1,249.5,41.5z" class="st4"></path>
		<path d="M243.8,82.6c-0.4,0.9-0.9,1.8-1.3,2.6c-0.5,1-1.1,2-1.7,2.9c-0.2,0.4-0.5,0.7-0.7,1.1
			c-3.6,5.5-7.8,9.6-12.5,10.8c-0.6,0.2-1.2,0.3-1.8,0.4v-0.2c0.2-5.2,1.8-11.9,7.4-15.5C237.6,82,241.1,81.9,243.8,82.6z" class="st4"></path>
		<path d="M201.8,86.4c0,0.1-0.1,0.1-0.1,0.2c-1.7,3.3-4.5,7-8.9,6.3c-4.7-0.7-7.7-4.8-9.4-8.1c0-0.1-0.1-0.1-0.1-0.2
			C189.9,84.9,196.2,86.1,201.8,86.4z" class="st4"></path>
		<path d="M174.8,105.3c-0.7,0.5-1.3,1.1-2,1.7c-1.2,1.2-2.2,2.6-3.1,4.1c-0.3,0.5-0.5,0.9-0.7,1.4
			c-0.3,0.5-0.5,1.1-0.8,1.7c-1.4,3.4-2.2,7.3-2.7,11.4c0,0,0-0.1-0.1-0.1v0c-5.6-5.2-6.6-16.8-1.3-20.2c3.5-2.2,7.6-1.3,10.6-0.1
			C174.7,105.2,174.8,105.2,174.8,105.3z" class="st4"></path>
		<path d="M143.4,149.9C143.4,149.9,143.3,149.9,143.4,149.9c-0.6-4.5-1.1-10.2-1.2-16.3c0,0,0.1,0.1,0.1,0.1
			C146.4,137.1,150.2,142.9,143.4,149.9z" class="st4"></path>
	</g>
	<path d="M362.9,306.1c-5.3-4-11.5-7.8-18.8-11.1h0c-8-3.6-17.2-6.7-27.5-8.9c-7.1-1.5-14.7-2.6-22.9-3.1
		c-0.8-0.1-1.7-0.1-2.6-0.2c0,0,17.8-26.5-2.2-36.4c0,0,2.7-62.9-41.4-89c-6.4-3.8-13.8-6.8-22.3-8.7c-6.4-1.5-13.4-2.3-21.2-2.4
		c-0.8,0-1.5,0-2.3,0c-7,0-13.8,0.6-20.4,1.7c-5.9,1-11.5,2.4-16.9,4.1c-7.7,2.5-14.9,5.7-21.6,9.5c-5,2.8-9.6,6-14,9.4
		c-4.9,3.8-9.4,7.9-13.6,12.3c-3.9,4.1-7.5,8.5-10.7,13c-0.3,0.4-0.6,0.8-0.9,1.2c-0.3,0.5-0.6,0.9-1,1.4
		c-7.8,11.5-13.5,24.1-16.9,37.1c-2,7.8-3.2,15.6-3.5,23.5c-0.3,7.5,0.2,14.9,1.6,22.1c1.4,7.5,3.8,14.9,7.2,21.8
		c0.3,0.6,0.6,1.2,0.9,1.9c0,0-3.6,14.5-0.2,30.9c1.4,7,4.1,14.3,8.9,21c5.8,8.1,14.7,15.3,28.2,19.7c0,0,11.1,41.6,39.7,67.1
		c4.7,4.2,10,8,15.7,11.1c7.1,3.8,14.9,6.6,23.6,7.7c1.6,0.2,3.3,0.4,4.9,0.6c8.2,1,15.5,1.7,22.1,2c36.9,2,49.3-5.5,50.7-14.8
		c1.5-9.6-9.8-17.5-26.2-20.7c-2.8-0.5-5.7-0.9-8.7-1.2c-4.5-0.4-8.6-1.4-12.3-2.7c-13.6-4.9-21.7-14.4-21.7-14.4l57.2-76.8
		c0,0,7.4-1.8,17.5-2.5c6.5-0.5,14-0.4,21.4,0.8c3.9,0.6,7.7,1.6,11.3,3c21.2,8.2,25.1,24.3,36,16.5c0,0,13.5,6.5,21.3-11.3
		C385.3,332.4,378.9,318.3,362.9,306.1z M272.5,284.9l-17.3,2.1l-1.8-7c14.9,0.9,20.9-3.6,20.9-3.6L272.5,284.9z" class="st2"></path>
	<path d="M283.2,377.6c-0.6,1.4-1.3,2.8-2.2,4.1c-5.3,7.9-13.7,14-21.5,19.3c-11.1,7.7-23.4,13.5-36.3,17.3
		c-6.7,2-12.6,3.4-17.8,4.4c-13.1,1.4-24.6,0.9-24.6,0.9c-2.5,7.8-3.8,0-3.8,0c-6.1,5.4-4-1.8-4-1.8c-20.3-3.7-33.2-26.9-36.4-42.5
		c-3.2-15.6,4.3-37.1,5.1-44.4c0.9-7.3,5.8-18.9,5.8-18.9c12.1,0.4,18.6,13.6,18.6,13.6c7.3-5.1,22.4-10.4,22.4-10.4
		c5.6-2.1,11.6-4.1,18.1-6c0.2-0.1,0.5-0.1,0.7-0.2c0.8-0.2,1.6-0.5,2.4-0.7c2.2-0.6,4.3-1.1,6.3-1.5l0.2-0.3c0.9-1.5,1.9-3.6,2-3.8
		c1.6-3.2,2.1-7,3.4-10.4c1.9-4.8,5.6-8.9,11.2-9.3c0.3,0,0.7,0,1,0.2c0.9,0.3,1.8,1.2,2.6,2.4c3,4.4,5.2,13.3,4.7,19.1
		c0,0.1,0,0.2,0,0.4c5.5,0.6,10.3,2,14.5,3.9c4.2,1.9,7.8,4.4,11,7.2c0.5,0.4,0.9,0.8,1.3,1.2c0.1,0.1,0.2,0.2,0.3,0.3
		c1.6,1.5,3,3.2,4.4,4.9c0.1,0.1,0.1,0.2,0.2,0.2c0.1,0.1,0.1,0.2,0.2,0.2c0.6,0.9,1.3,1.7,1.9,2.6c0.3,0.5,0.6,0.9,0.9,1.3
		c0.1,0.1,0.1,0.2,0.2,0.3c1.4,2.2,2.6,4.4,3.7,6.7c0.1,0.3,0.3,0.6,0.4,0.8c0.1,0.2,0.2,0.5,0.4,0.8c0,0.1,0.1,0.2,0.1,0.2
		c0.5,1.2,1,2.4,1.4,3.6c0,0,0.1,0.1,0.1,0.2c0.6,1.6,1,3.1,1.5,4.6c0.2,0.7,0.4,1.4,0.5,2.1C285.9,359.3,286.8,369.2,283.2,377.6z" class="st2"></path>
	<path d="M150.6,342.9c2.7-4,6.4-7.2,9.5-9.5c3.3-2.4,5.8-3.7,6-3.8c-4.2-8.8-14.8-14.8-18.6-13.6l0,0
		c0,2.3,0,5,2.9,10.2c0.3,0.5,0.5,1,0.8,1.5C154.6,335.1,151.3,342,150.6,342.9z" class="st4"></path>
	<path d="M226.2,309c0,0,6.2-0.2,11.2-0.3c1.6,0,3,0,4.2,0c0.5-5.8-1.8-14.7-4.7-19.1c-0.8-1.2-1.7-2.1-2.6-2.5
		c0,0-1.7,1.4-1.9,6.5c-0.1,1.8-0.1,3.6-0.3,5.3C231.7,302.8,230.6,306.2,226.2,309z" class="st4"></path>
	<path d="M213.2,406.7c3.8,1.2,5.6,5.4,2.8,8.7c-3.8,4.5-13,6.7-18.4,4.3c-4.6-2-4.2-8.5-0.6-10.8
		c3-1.9,6.6-2.7,10.1-2.8C208.7,406.1,211.1,406.1,213.2,406.7z" class="st5"></path>
	<path d="M262.7,377.9c-1.7,2.8-0.6,6.4,3,6.9c4.8,0.7,11.7-2.8,13.8-7.2c1.7-3.7-2-7.6-5.4-7.1
		c-2.9,0.4-5.6,1.9-7.8,3.7C265.2,375.1,263.6,376.4,262.7,377.9z" class="st5"></path>
	<path d="M186.6,319.9c5.5,2.4,10.6,7.1,14.6,10.6c2.2,1.9,4.3,4,6.3,6.1c1.5,1.6,3.7,2.9,6,2.5
		c2.9-0.5,4.8-3.1,5.4-5.8c0.8-3.4-0.2-6.8-1.7-9.8c-2.2-4.3-5.6-7.9-9.6-10.6c-0.2,0.1-0.5,0.1-0.7,0.2
		C199.6,315.2,192.8,317.5,186.6,319.9z" class="st4"></path>
	<path d="M280.5,339.9c-2.2,2.2-4.8,4-7.8,4.5c-5.7,0.9-0.8-6.2,3.2-13.1c1.4,2.2,2.6,4.4,3.7,6.7
		c0.1,0.3,0.3,0.6,0.4,0.8c0.1,0.2,0.2,0.5,0.4,0.8C280.4,339.8,280.5,339.8,280.5,339.9z" class="st4"></path>
	<path d="M284,350.4c-2.6,1.1-5.5,1.8-7.7,1.3c-4-0.9,0.6-4.6,5.7-8c0,0,0,0,0,0c0.6,1.6,1,3.1,1.5,4.6
		C283.6,349,283.8,349.7,284,350.4C283.9,350.4,283.9,350.4,284,350.4z" class="st4"></path>
	<path d="M273,327.1c-1.1,1.6-2.4,3.1-3.9,3.8c-3.5,1.7-2.6-3.6-0.8-9.2c1.6,1.5,3,3.2,4.4,4.9c0.1,0.1,0.1,0.2,0.2,0.2
		C272.8,326.9,272.9,327,273,327.1z" class="st4"></path>
	<path d="M172.9,326c1.5,0.8,3.2,1.7,4.5,2.4c3.9,2.2,8.4,5.7,10.8,5.4c5-0.5,5.3-5.7,0.8-9.3c-2.1-1.6-4.5-2.5-6.5-3
		l0,0C179,323,175.9,324.5,172.9,326z" class="st4"></path>
	<path d="M210.1,312.2c3.4,2.3,7.8,6.6,10.5,6.6c4.1,0,6-3.8,3.7-5.3c-2.2-1.5-4.5-2.4-6.4-3
		C215.3,310.9,212.7,311.5,210.1,312.2z" class="st4"></path>
	<path d="M283.4,368.4c-0.4,1.6-0.8,3.2-1.2,4.8c-0.2,0.8-0.5,1.6-0.7,2.3c-0.3,0.8-0.6,1.5-1,2.1l-0.1,0.1l0.1,0.2
		c0.2,0.7,0.4,1.3,0.5,2c0.1,0.7,0,1.4-0.3,1.6c-0.2,0.1-0.3,0.1-0.5-0.1c-0.2-0.2-0.4-0.5-0.6-0.8c-0.3-0.6-0.6-1.3-0.8-1.9
		l-0.5-1.7l-0.3,1.7c-0.1,0.7-0.3,1.5-0.5,2.2c-0.2,0.7-0.5,1.5-0.9,2.1c-0.2,0.3-0.4,0.6-0.7,0.7c-0.3,0.1-0.5,0.1-0.7-0.1
		c-0.4-0.4-0.4-1.3-0.4-2l0-0.9l-0.6,0.7c-0.8,1-1.7,2-2.7,2.9c-0.9,0.9-1.9,1.8-3.1,2.5c1.2-0.6,2.3-1.4,3.3-2.2
		c1-0.8,2-1.8,2.9-2.8l-0.5-0.2c0,0.4,0,0.8,0,1.3c0.1,0.4,0.1,0.9,0.5,1.3c0.2,0.2,0.5,0.4,0.7,0.4c0.1,0,0.3,0,0.4,0
		c0.1,0,0.2,0,0.4-0.1c0.5-0.2,0.8-0.6,1-0.9c0.5-0.7,0.8-1.5,1-2.3c0.2-0.8,0.4-1.5,0.6-2.4l-0.8,0.1c0.2,0.7,0.5,1.4,0.9,2.1
		c0.2,0.3,0.4,0.7,0.8,1c0.1,0.1,0.2,0.1,0.3,0.2c0.1,0,0.2,0.1,0.4,0.1c0.3,0,0.6,0,0.8-0.2c0.5-0.3,0.6-0.8,0.7-1.2
		c0-0.4,0-0.8-0.1-1.2c-0.1-0.8-0.3-1.5-0.6-2.2l0,0.3c0.5-0.8,0.7-1.6,1-2.4c0.2-0.8,0.4-1.6,0.6-2.4
		C283,371.7,283.2,370,283.4,368.4z" class="st6"></path>
	<path d="M189.7,403.1c6,1.7,14,0.3,18.8-3.6c1-0.8,1.9-1.8,2.6-3c3.1-5,3.5-12.1,1.7-17.6c0-0.1-0.1-0.3-0.1-0.4
		c-1.9-5.6-6.8-9.6-12.5-10.6c-6.7-1.3-15.6,0.5-19.4,6.7c-1.5,2.5-2.3,5.4-2.5,8.6l0,0C177.7,391.5,181.7,400.8,189.7,403.1z" class="st7"></path>
	<path d="M184.3,400.1c-1.5-1.4-2.8-3.1-3.8-4.9c-1-1.8-1.7-3.8-2.1-5.9c-0.4-2-0.6-4.1-0.5-6.2l0-0.2l0.3-0.1l0,0
		l-0.3,0.3c0.1-2,0.4-4.1,1.1-6c0.7-1.9,1.7-3.8,3.2-5.3c3-3,7.2-4.5,11.3-5c2.1-0.2,4.2-0.1,6.2,0.2c2.1,0.3,4.1,1,6,2.1
		c3.7,2.1,6.5,5.6,7.7,9.7l0-0.1c1,3.5,1.2,7.1,0.6,10.7c-0.3,1.8-0.8,3.5-1.5,5.1c-0.7,1.6-1.7,3.2-3,4.4c-1.3,1.2-2.8,2.2-4.4,2.9
		c-1.6,0.7-3.3,1.3-5,1.6c-3.4,0.7-7,0.7-10.4-0.3C187.7,402.6,185.9,401.5,184.3,400.1z M200.1,403.3c3.4-0.8,6.7-2.3,9.1-4.7
		c1.2-1.2,2.1-2.7,2.7-4.3c0.6-1.6,1-3.3,1.2-5c0.4-3.4,0-6.9-1-10.1l0-0.1c-0.1-0.4-0.3-0.9-0.5-1.3c-0.2-0.4-0.4-0.9-0.7-1.3
		c-0.5-0.8-1-1.6-1.6-2.4c-0.6-0.7-1.3-1.4-2-2c-0.7-0.6-1.5-1.1-2.4-1.6c-3.3-1.9-7.3-2.4-11.2-2.1c-1.9,0.1-3.9,0.6-5.7,1.2
		c-1.8,0.7-3.5,1.6-4.9,3c-1.4,1.3-2.5,3-3.2,4.8c-0.7,1.8-1.2,3.8-1.3,5.7l0,0.3l-0.2,0.1l0,0l0.3-0.3c-0.2,2-0.1,4.1,0.3,6.1
		c0.3,2,1,4,1.9,5.8c0.9,1.8,2.1,3.6,3.6,5c1.5,1.4,3.3,2.5,5.3,3.1C193.1,404.1,196.7,404.1,200.1,403.3z" class="st4"></path>
	<path d="M200.8,398.2c-4.4,1.7-9.8,1.2-13.4-1.9c-5.8-5-6.2-14.8-0.7-20.1c2.9-2.8,7.5-4.4,11.5-3.8
		c10.8,1.7,13.6,16.9,5.9,23.8C203.1,397,202,397.7,200.8,398.2z" class="st4"></path>
	<path d="M178.3,383.1c17.6-14.2,32.7-5.4,34.5-4.2c0-0.1-0.1-0.3-0.1-0.4c-1.9-5.6-6.8-9.6-12.5-10.6
		c-6.7-1.3-15.6,0.5-19.4,6.7C179.3,377,178.5,380,178.3,383.1z" class="st8"></path>
	<g>
		<path d="M249.7,371c3.6,4,9.8,4.4,14.7,3c0.7-0.2,1.3-0.4,1.9-0.8c7.4-3.7,9.4-15.4,4.7-22.1c-0.5-0.7-1-1.3-1.7-1.9
			c-5.5-5-16.4-4.8-21.4,0.9c-1.2,1.4-1.7,3.3-2,5c-0.2,1.2-0.3,2.5-0.3,3.9C245.8,363.4,247,368.1,249.7,371z" class="st7"></path>
		<path d="M246.9,366.1c-0.6-1.8-1-3.7-1.2-5.6c-0.2-1.9-0.2-3.8,0.1-5.7c0.1-1,0.4-1.9,0.7-2.8
			c0.4-0.9,0.9-1.8,1.6-2.5c1.3-1.5,3-2.5,4.9-3.3c1.8-0.7,3.8-1.1,5.8-1.2c3.9-0.2,8.1,0.9,11.2,3.6c0.8,0.7,1.4,1.5,2,2.3
			c0.3,0.4,0.5,0.9,0.8,1.3l0.6,1.4c0.7,1.9,1,3.9,1,5.9c0,3.9-1.3,7.9-3.8,10.9c-1.3,1.5-2.9,2.7-4.7,3.4c-0.9,0.4-1.9,0.6-2.8,0.7
			c-0.9,0.2-1.9,0.3-2.9,0.3c-1.9,0.1-3.8-0.2-5.6-0.8c-0.9-0.3-1.8-0.7-2.6-1.2c-0.8-0.5-1.5-1.1-2.2-1.8
			C248.4,369.6,247.5,367.9,246.9,366.1z M251.9,372.8c0.8,0.5,1.7,0.9,2.6,1.2c1.8,0.6,3.7,0.7,5.6,0.6c0.9-0.1,1.9-0.2,2.8-0.4
			c0.9-0.2,1.8-0.5,2.7-0.9c1.7-0.8,3.1-2,4.2-3.5c2.2-2.9,3.1-6.7,3-10.4c-0.1-1.8-0.4-3.6-1.1-5.3l-0.6-1.2
			c-0.2-0.4-0.5-0.8-0.7-1.1c-0.5-0.8-1.1-1.4-1.7-2c-1.3-1.2-2.9-2-4.6-2.6c-1.7-0.6-3.5-0.8-5.4-0.8c-3.6,0-7.4,1.1-10.1,3.6
			c-1.4,1.2-2,3-2.4,4.8c-0.4,1.8-0.5,3.7-0.4,5.6c0.2,3.7,1.2,7.6,3.8,10.5C250.4,371.7,251.1,372.3,251.9,372.8z" class="st4"></path>
		<path d="M267.1,366.2c-0.2,0.3-2.2,4.7-9.3,4.5c-7-0.3-8.5-8.8-8.3-11.8c0.3-3,2.2-9.6,10.1-9.5
			C267.7,349.4,271.4,360.2,267.1,366.2z" class="st4"></path>
		<path d="M245.7,359.1c7.4-7.4,19.1-8.1,25.3-7.9c-0.5-0.7-1-1.3-1.7-1.9c-5.5-5-16.4-4.8-21.4,0.9
			c-1.2,1.4-1.7,3.3-2,5C245.8,356.4,245.7,357.7,245.7,359.1z" class="st8"></path>
	</g>
	<path d="M135.9,370c21.2,5.9,24-8,16-8.2c-5.4-0.1-10.8-1.7-14.3-2.8C136.4,362.7,135.8,366.3,135.9,370z" class="st4"></path>
	<path d="M138.3,386.2L138.3,386.2c0.1,0.4,0.3,0.8,0.4,1.1c7.4,0.9,16.1,0.3,21.8-4.2c2.2-1.7,3.7-4.6,2.2-6.8
		c-0.6-0.9-1.6-1.5-2.7-1.9c-3.3-1.1-7.3-0.4-10.8,0c-4,0.5-9,0-13-0.7C136.5,378.1,137.2,382.3,138.3,386.2z" class="st4"></path>
	<path d="M140.3,392.1c1.8,4.5,4.2,8.5,7.2,12.1c4.8-0.4,9.6-2.7,13-6c1.5-1.5,2.7-3.6,1.7-5.7
		c-1.3-2.8-5.3-2.2-7.7-1.5C147.9,392.7,143,392.5,140.3,392.1z" class="st4"></path>
	<path d="M291.1,373.9c-3.1,0.1-6.3,0.4-9.4,0.7c-3.1,0.4-6.2,0.9-9.3,1.6c3.1-0.1,6.3-0.4,9.4-0.7
		C284.9,375.1,288,374.7,291.1,373.9z" class="st4"></path>
	<path d="M289.9,366.2c-2.9,0.8-5.8,1.8-8.6,2.9c-2.8,1.1-5.6,2.3-8.3,3.7c2.9-0.8,5.8-1.8,8.6-2.9
		C284.4,368.8,287.2,367.6,289.9,366.2z" class="st4"></path>
	<path d="M284.4,358.2c-2.3,2-4.4,4.1-6.5,6.4c-2,2.2-4,4.5-5.9,6.9c2.3-2,4.4-4.1,6.5-6.4
		C280.6,362.9,282.6,360.6,284.4,358.2z" class="st4"></path>
	<path d="M156.9,331.5c0,0,2.1-0.7,2.5-1.3c0.5-0.6-2.8,0.1-2.8,0.1c1.5-1.1,2.3-3.3,1.8-3.2c-0.6,0.1-2.1,2-2.1,2
		c1.3-3.4-1.2-7.4-3.3-6.6c-0.9,0.3-1.4,2.7-1.7,5.2c3.4,7.4,0.1,14.2-0.6,15.2c2.7-4,6.4-7.2,9.5-9.5
		C159.2,332,156.9,331.5,156.9,331.5z" class="st7"></path>
	<path d="M237.5,308.7c-0.7-1.7-3.2-3.7-3.4-3.8c0.2,0,1.8,0.3,2.4-0.3c0.6-0.6-2.1-1-2.1-1s2-0.3,2-0.9
		c0-0.6-1.9,0-1.9,0c1.2-1.2,2.8-5.5,0.8-6.1c-1.3-0.4-2.5,1.2-3.2,2.3c-0.4,3.9-1.5,7.3-5.9,10.1
		C226.2,309,232.4,308.8,237.5,308.7z" class="st7"></path>
	<g>
		<path d="M230.1,370.5c0,0,1.7-4.4,3.3-4.2c1.6,0.2-0.9,6.8-2.3,7.8c-1.5,1-6.8-3.4-6.3-4.8
			C225.3,368,230.1,370.5,230.1,370.5z" class="st4"></path>
		<path d="M232.2,394.9c0-1.8,0-3.6-0.1-5.4l-0.2-5.4c-0.1-1.8-0.2-3.6-0.3-5.4c-0.1-1.8-0.3-3.6-0.6-5.4l-0.8,0.3
			c1.9,2.9,3.7,5.9,5.4,8.8c0.9,1.5,1.7,3,2.6,4.5c0.8,1.5,1.6,3.1,2.4,4.6c-0.6-1.6-1.3-3.2-2-4.8c-0.7-1.6-1.5-3.1-2.4-4.6
			c-0.8-1.5-1.7-3-2.6-4.5c-0.9-1.5-1.8-3-2.7-4.5l-1.1-1.8l0.3,2.1c0.3,1.7,0.4,3.5,0.6,5.3l0.5,5.3l0.5,5.3L232.2,394.9z" class="st4"></path>
		<path d="M238.4,372.3c2.9-0.2,6,0.6,8.4,2.7c3.5,3,5.4,7.6,3.7,11.9c-1.1,2.7-3.2,4.7-5.5,6.2
			c-4.4,2.9-8.9,5.5-14.3,5.7c-1.9,0.1-4-0.1-5.8-0.9c-2.9-1.3-5.3-4-6.3-7.2c-1-3.2-0.6-6.8,1-9.4c2-3.2,5.9-5.3,9.3-6.3
			C231.9,374,235.2,372.6,238.4,372.3z" class="st6"></path>
	</g>
	<path d="M174.5,410.8c3-0.3,6-0.9,9-1.5c3-0.7,5.9-1.4,8.8-2.3c-3,0.3-6,0.9-9,1.5
		C180.3,409.2,177.3,409.9,174.5,410.8z" class="st4"></path>
	<path d="M170.7,398.8c2.9,1,5.8,1.8,8.7,2.6c2.9,0.7,5.9,1.4,8.9,1.7c-2.9-1.1-5.8-1.8-8.7-2.6
		C176.7,399.9,173.8,399.2,170.7,398.8z" class="st4"></path>
	<path d="M204,359c0.5,0.6,0.7,1.4,0.3,2.1c-0.2,0.4-0.7,0.6-1.1,0.8c-1.5,0.7-3.2,1.1-4.8,1.2c-1,0.1-2.1,0-2.8-0.7
		c-1.7-1.5-2-5.8,0.8-6.3C198.4,355.8,202.6,357.5,204,359z" class="st4"></path>
	<path d="M244.6,348.2c-0.7,0.2-1.6,0-2-0.6c-0.2-0.4-0.2-0.9-0.2-1.4c0.1-1.7,0.5-3.3,1.2-4.8c0.4-0.9,1-1.8,1.9-2.2
		c2.1-0.9,6.1,0.9,5.2,3.5C250,344.6,246.5,347.7,244.6,348.2z" class="st4"></path>
	<g class="st9">
		<path d="M206.7,425.5c-1.8,0.3-3.7,0.6-5.5,0.8c-1.8,0.2-3.7,0.4-5.5,0.5c-1.9,0.1-3.7,0.2-5.6,0.1
			c-1.9-0.1-3.7-0.2-5.6-0.6l0.5-0.4c0,0.8,0,1.5-0.3,2.3c-0.1,0.4-0.3,0.8-0.6,1.1c-0.3,0.4-0.8,0.6-1.4,0.5c-0.6-0.2-0.9-0.7-1-1
			c-0.2-0.4-0.2-0.8-0.3-1.2c-0.1-0.8-0.1-1.5-0.1-2.3l0.8,0.3c-0.6,0.7-1.3,1.3-2.1,1.9c-0.8,0.5-1.6,1.1-2.7,1.2
			c-0.6,0-1.2-0.2-1.6-0.6c-0.5-0.5-0.6-1.1-0.5-1.6c0.1-1.1,0.6-1.9,1.1-2.7l0.3,0.7c-2.4-0.5-4.7-1.3-6.9-2.3
			c-2.2-0.9-4.3-2.1-6.3-3.4c-2-1.3-3.9-2.8-5.6-4.5c-1.7-1.7-3.2-3.6-4.5-5.5c1.5,1.9,3,3.7,4.8,5.3c0.4,0.4,0.9,0.8,1.4,1.2
			l1.4,1.1c1,0.7,1.9,1.4,2.9,2c2,1.2,4.1,2.3,6.3,3.2c2.2,0.9,4.5,1.7,6.7,2.1l0.7,0.1l-0.4,0.6c-0.4,0.7-0.8,1.5-0.9,2.3
			c0,0.4,0,0.7,0.2,0.9c0.2,0.2,0.5,0.3,0.8,0.3c0.7-0.1,1.5-0.5,2.2-1c0.7-0.5,1.4-1.1,1.9-1.7l0.9-0.9l-0.1,1.3
			c0,0.7,0,1.4,0.1,2.1c0,0.3,0.1,0.7,0.2,0.9c0.1,0.3,0.3,0.5,0.4,0.5c0.1,0,0.4,0,0.5-0.2c0.2-0.2,0.3-0.5,0.4-0.8
			c0.2-0.6,0.2-1.3,0.2-2l0-0.6l0.5,0.1c1.8,0.4,3.6,0.6,5.4,0.7c1.8,0.1,3.7,0.1,5.5,0.1C199.3,426.1,203,425.9,206.7,425.5z" class="st4"></path>
	</g>
	<g class="st9">
		<path d="M221.4,252c1,2.7,2.3,5.2,3.7,7.6c1.4,2.4,3.1,4.7,4.9,6.9c3.6,4.3,8.1,7.9,13.2,10.2c2.5,1.2,5.3,2,8,2.4
			c1.4,0.3,2.8,0.3,4.2,0.5c0.7,0,1.4,0,2.1,0l1.1,0l1.1-0.1l2.1-0.1l2.1-0.3c1.4-0.1,2.8-0.5,4.1-0.8c1.4-0.3,2.7-0.7,4.1-1.1
			l4-1.4l-4,1.5c-1.4,0.4-2.7,0.9-4.1,1.3c-1.4,0.3-2.7,0.7-4.2,0.9l-2.1,0.3l-2.1,0.2l-1.1,0.1l-1.1,0c-0.7,0-1.4,0-2.1,0
			c-1.4-0.1-2.9-0.2-4.3-0.4c-2.8-0.5-5.6-1.2-8.2-2.4c-5.2-2.4-9.8-6.1-13.4-10.5C226,262.4,223.2,257.4,221.4,252z" class="st4"></path>
	</g>
	<g>
		<path d="M358.8,352.8c0.5-1.4,0.9-2.7,1.2-4.1c0.3-1.4,0.5-2.8,0.5-4.2c0-1.4-0.2-2.8-0.5-4.1l-0.3-1l-0.4-1
			c-0.2-0.7-0.7-1.2-1-1.9c1,1,2,2.2,2.5,3.6c0.5,1.4,0.8,2.9,0.8,4.4C361.4,347.5,360.5,350.4,358.8,352.8z" class="st4"></path>
	</g>
	<g>
		<path d="M375.6,348.9c0.4-1.6,0.7-3.2,0.9-4.7c0.2-1.6,0.3-3.2,0.1-4.7c-0.1-1.6-0.5-3.1-1.2-4.5
			c-0.7-1.4-1.7-2.6-2.8-3.8c1.4,0.8,2.7,1.9,3.5,3.4c0.8,1.5,1.3,3.1,1.5,4.8c0.1,1.7,0,3.3-0.3,4.9
			C376.9,345.9,376.4,347.4,375.6,348.9z" class="st4"></path>
	</g>
	<g>
		<path d="M266.9,463.1c-0.2-1.5-0.7-3-1.2-4.4c-0.6-1.4-1.3-2.7-2.2-3.9c-0.9-1.2-2-2.2-3.3-3.1
			c-1.2-0.9-2.7-1.5-4.1-2.1c1.5,0.2,3.1,0.6,4.5,1.4c0.4,0.2,0.7,0.4,1,0.6c0.3,0.2,0.7,0.5,1,0.7l0.9,0.8c0.3,0.3,0.5,0.6,0.8,0.9
			C266.1,456.7,267.1,459.9,266.9,463.1z" class="st4"></path>
	</g>
	<g>
		<path d="M279.6,459.6c0-1.6-0.1-3.2-0.3-4.7c-0.2-1.5-0.5-3.1-1.1-4.5c-0.5-1.4-1.3-2.7-2.3-3.9
			c-1.1-1.1-2.4-1.9-3.8-2.6c1.6,0.3,3.1,0.9,4.4,2c1.2,1.1,2.1,2.5,2.7,4.1c0.6,1.5,0.9,3.2,0.9,4.8
			C280.2,456.4,280,458,279.6,459.6z" class="st4"></path>
	</g>
	<path d="M362.9,306.1c-3.4,0-6.8,0.4-10,1.7c-3.2,1.4-6,3.7-9.2,5.1c-3.2,1.4-7.4,1.7-9.8-0.8
		c-2.1-2.2-2.2-5.7-0.9-8.5c1.3-2.7,3.8-4.7,6.4-6.2c1.5-0.9,3-1.7,4.6-2.4h0C351.4,298.4,357.7,302.1,362.9,306.1z" class="st4"></path>
	<path d="M317.2,315.6c-0.2,4.3-2.2,8.3-3.4,12.4c-0.5,1.8-0.9,3.6-1.1,5.3c-7.4-1.2-15-1.2-21.4-0.8
		c0-2.3,0.6-4.6,1.2-6.8c2.1-6.8,5.6-13.7,11.9-17.1c3.6-1.9,8.5-2.2,11.1,0.8C316.9,311.1,317.3,313.4,317.2,315.6z" class="st4"></path>
	<path d="M316.5,286.2c-0.7,0.8-1.5,1.4-2.4,2c-2.1,1.3-4.4,2.1-6.4,3.3c-1.6,1-3.1,2.2-4.8,3.1
		c-2.8,1.4-6.2,1.5-9.1,0.4c-0.7-0.3-1.4-0.6-1.9-1.2c-0.8-0.9-1-2.1-0.9-3.2c0.1-2.9,1.1-5.4,2.7-7.5
		C301.8,283.6,309.5,284.7,316.5,286.2z" class="st4"></path>
	<path d="M259.3,430c-1.6,0.4-3.2,0.6-4.8,1.1c-6.7,2.1-11.8,9-18.9,9c-2,0-4.3-0.8-5.2-2.6c-0.7-1.5-0.5-3.2,0.3-4.7
		c0.8-1.4,2-2.6,3.2-3.6c1.4-1.1,2.8-2.2,4.4-3.2c3.7,1.3,7.8,2.3,12.3,2.7C253.6,429.1,256.5,429.5,259.3,430z" class="st4"></path>
	<path d="M193.4,446.8c-2.2,3-5.5,4.9-8.2,7.4c-0.3,0.3-0.6,0.6-0.9,1c-5.7-3.1-11-6.8-15.7-11.1c0,0,0,0,0,0
		c6.7-4.4,14.9-7.1,22.7-5.1c0.9,0.2,1.8,0.5,2.5,1.2C195.6,441.8,194.8,444.8,193.4,446.8z" class="st4"></path>
	<path d="M234.8,465.5c-6.6-0.4-13.9-1-22.1-2c0.9-1.5,2-2.9,3.2-4.1c2.5-2.6,5.6-4.6,9.2-5.5c2.7-0.7,5.9-0.5,8,1.4
		c1,0.9,1.6,2.1,2,3.4C235.7,460.9,235.5,463.3,234.8,465.5z" class="st4"></path>
	<path d="M132,294.1c-6.3,5.7-14.6,15.2-15.3,24.1c-1.3,15.3,18.8,4.2,24,0.1c8.9-7,18-13.6,28.1-18.9
		c9.6-5.1,19.8-6.1,30.2-8.8c3.2-0.8,6.6-2.3,9.3-4.3c7-5-2.4-9.9-7-10.7c-10.9-1.9-21.4-2-32.3,0.3
		C155.4,278.7,142.3,284.9,132,294.1z" class="st4"></path>
	<path d="M247.5,157.5c-0.1,1.8-0.5,3.5-1.3,5.2c-2.5,5.1-9.3,7.9-14.3,5.3c-3.2-1.7-5.3-5.1-6.1-8.6
		c-0.8-3.4-0.7-7-0.5-10.5C233.7,150.7,241.1,153.7,247.5,157.5z" class="st4"></path>
	<path d="M205.2,157.9c-0.9,0.9-2.1,1.4-3.3,1.6c-5.2,1-10.2-2.4-14.2-5.9c-1.9-1.6-4.1-3.5-6.3-5.6
		c6.5-1.1,13.3-1.7,20.4-1.7c0.8,0,1.5,0,2.3,0c0.4,1,0.8,2,1.2,3.1C206.3,152.2,207.2,155.7,205.2,157.9z" class="st4"></path>
	<path d="M155.5,239.9c-11.1,1.9-21.9,5.5-31.8,10.9c-8.6,4.6-18.6,10.3-20.3,20.9c-0.8,4.6,2.4,10,7.6,9.4
		c2.3-0.3,4.5-1.4,6.5-2.6c18-9.7,37.6-15.5,57.4-20.6c5-1.3,15.2-3.3,13.9-10.6c-1.4-8.6-11.6-9.4-18.6-9.1
		C165.3,238.5,160.4,239,155.5,239.9z" class="st4"></path>
	<path d="M98.6,223.7c-4.6,3.5-7.4,7.5-4.4,11.1c1.1,1.3,2.8,2.1,4.4,2.3c2.8,0.5,5.8,0,8.5-0.9
		c15.6-5.2,30.5-13.6,47.4-13.8c4.3,0,8.7,0.1,13,0c3.9-0.1,8.5,0.2,12-1.8c4.7-2.7,2.8-7.4-1-9.8c-4.4-2.8-9.8-3.5-14.8-4.4
		c-7-1.2-14.1-1.2-21.1-0.3c-9.3,1.2-18.3,4-26.7,8C113.1,215.4,104.5,219.2,98.6,223.7z" class="st4"></path>
	<path d="M185,178.3c-0.5,2.8-3.8,4.1-6.6,4.7c-11.5,2.2-27,0-38.6,1.9c-11.5,1.8-23.8,7.9-35.3,11.6
		c3.2-4.6,6.8-8.9,10.7-13c4.2-4.4,8.7-8.5,13.6-12.3c5.8-1.7,11.8-2.8,17.8-3.7c6.1-1,12.3-1.8,18.5-1.3s12.4,2.5,17,6.5
		C183.8,174,185.4,176.1,185,178.3z" class="st4"></path>
	<g class="st9">
		<path d="M242.2,290.4c4.6-1.3,9.3-2.3,14.1-3.3c4.7-0.9,9.5-1.7,14.3-2.4c4.8-0.6,9.6-1.1,14.4-1.4
			c4.8-0.2,9.7-0.2,14.5,0.2c-4.8-0.1-9.6,0-14.4,0.4c-4.8,0.4-9.6,0.9-14.3,1.5c-4.8,0.6-9.5,1.4-14.3,2.2
			C251.6,288.5,246.9,289.4,242.2,290.4z" class="st4"></path>
	</g>
</g>
</svg>
