<svg xml:space="preserve" style="enable-background:new 0 0 500 500;" viewBox="0 0 500 500" y="0px" x="0px"
     xmlns="http://www.w3.org/2000/svg" id="图层_1" version="1.0">
<style type="text/css">
	.st0{fill:#FD913E;}
	.st1{opacity:0.2;fill:#A1312F;}
	.st2{fill:#A1312F;}
	.st3{fill:#FB5555;}
	.st4{fill:#FFFFFF;}
	.st5{opacity:0.62;fill:#91E6DD;}
	.st6{fill:#5ED6B6;}
	.st7{opacity:0.48;fill:#FB5555;}
	.st8{opacity:0.21;fill:#A1312F;}
	.st9{opacity:0.48;fill:#A1312F;}
	.st10{fill:#C75325;}
</style>
<g>
	<g>
		<g>
			<path d="M159.4,293.2c-5.6,3.1-11.1,4.9-16.2,5.4c-0.3,0-0.7,0.1-1,0.1c-1.3,0.1-2.6,0.1-3.8,0.1
				c-0.4,0-0.8-0.1-1.2-0.1c-0.8-0.1-1.6-0.2-2.4-0.3c-0.4-0.1-0.8-0.1-1.2-0.2c-0.9-0.2-1.7-0.4-2.5-0.7c0,0,0,0,0,0
				c-12.4-3.8-21.2-15.9-21.9-32.8c-0.1-1.9-0.1-3.9,0.1-5.9c0.3-4.4,0.6-8.6,0.8-12.6c1.1-17.8,1.3-32.2-4.4-41.5
				c-2.4-3.9-5.8-7-10.7-9.1c-1.3-0.5-2.5-1.1-3.7-1.7c-5.2-2.5-9.7-5.2-13-8c-7.3-6-9.4-12.2-3.4-16.9c1.2-0.9,2.7-1.5,4.6-1.6
				c0.3,0,0.6-0.1,0.9-0.1c0,0,0,0,0,0h0c0.7,0,1.4,0,2.1,0c12.9,0.9,34.8,13.9,42.1,35.3c0.6,1.8,1.1,3.6,1.5,5.5
				c1.2,5.8,1.7,11.1,1.8,15.9c0.3,20.3-7.4,33-3,47.4c1.3,4.1,3.7,6.6,6.6,7.9c1.3,0.6,2.7,1,4.2,1.2c0.4,0.1,0.7,0.1,1.1,0.1
				c0.4,0,0.7,0.1,1.1,0.1c0.6,0,1.3,0,1.9,0c0.2,0,0.5,0,0.7,0c0.3,0,0.5,0,0.8-0.1c0.4,0,0.8-0.1,1.2-0.1c0.4-0.1,0.8-0.1,1.1-0.2
				h0c7-1.1,13.2-4.1,13.2-4.1v0.1L159.4,293.2z" class="st0"></path>
			<path d="M159.5,293.2c-5.6,3.2-11.2,4.9-16.4,5.4c-0.3,0-0.7,0.1-1,0.1c-1.3,0.1-2.6,0.1-3.8,0.1
				c-0.4,0-0.8-0.1-1.2-0.1c-0.8-0.1-1.6-0.2-2.4-0.3c-0.4-0.1-0.8-0.1-1.2-0.2c-0.9-0.2-1.7-0.4-2.5-0.7c0,0,0,0,0,0
				c-12.4-3.9-21.1-16-21.7-32.9c-0.1-1.9-0.1-3.8,0.1-5.8c0.3-4.4,0.6-8.5,0.8-12.5c1.1-17.9,1.3-32.4-4.5-41.8
				c-2.4-3.9-5.8-6.9-10.6-8.9c-1.3-0.6-2.5-1.1-3.7-1.7c-5.3-2.5-9.7-5.3-13-8c-7.2-6-9.3-12.2-3.3-16.8c1.1-0.9,2.6-1.4,4.4-1.6
				c0.3,0,0.6-0.1,0.9-0.1c0,0,0,0,0,0h0c0.7,0,1.4,0,2.1,0c12.9,0.7,34.8,13.8,42.2,35.1c0.6,1.8,1.2,3.7,1.6,5.6
				c1.2,5.8,1.8,11.1,1.8,15.9c0.3,20.3-7.4,33-3,47.4c1.3,4,3.6,6.5,6.5,7.9c1.3,0.7,2.8,1.1,4.3,1.3c0.4,0.1,0.7,0.1,1.1,0.1
				c0.4,0,0.7,0.1,1.1,0.1c0.6,0,1.3,0,1.9,0c0.2,0,0.5,0,0.7,0c0.3,0,0.5,0,0.8-0.1c0.4,0,0.8-0.1,1.2-0.1c0.4,0,0.8-0.1,1.1-0.2
				c6.5-1,12.3-3.6,13.2-4c0.1-0.1,0.1-0.1,0.1-0.1L159.5,293.2z" class="st1"></path>
		</g>
		<path d="M78.3,185.8C78.3,185.9,78.3,185.9,78.3,185.8c-7.3-5.9-9.4-12.1-3.5-16.8c1.2-0.9,2.7-1.5,4.6-1.6
			c0.3,0,0.6-0.1,0.9-0.1c0,0,0,0,0,0h0C81.7,174.8,79.5,182.3,78.3,185.8z" class="st2"></path>
		<path d="M105.6,204.5c0,0.1,0,0.1-0.1,0.2c-2.4-3.9-5.8-7-10.7-9.1c-1.3-0.5-2.5-1.1-3.7-1.7c0,0,0,0,0.1,0
			c3.6-2.4,8.5-4.3,12.4-0.5C107.2,196.7,106.9,201,105.6,204.5z" class="st2"></path>
		<path d="M128.1,224c-0.1,0-0.1,0-0.1,0c-3.1-0.2-6.3-1.6-7.5-5.9c-1.8-6.5,1.7-12.3,4.1-15.5c0-0.1,0.1-0.1,0.1-0.1
			c0.6,1.8,1.2,3.7,1.6,5.6C127.5,213.9,128,219.2,128.1,224z" class="st2"></path>
		<path d="M109.3,264.6c-0.1,0-0.1,0.1-0.1,0.1c-0.1-1.9-0.1-3.9,0.1-5.9c0.3-4.4,0.6-8.6,0.8-12.6c0.1,0,0.1,0,0.1,0.1
			c2.8,1.2,6.4,3.6,7.2,7.5C118,257.7,113.2,261.9,109.3,264.6z" class="st2"></path>
		<path d="M143.8,280.4C143.8,280.4,143.8,280.4,143.8,280.4c-1.8,3.2-4.8,6.7-8.3,5.1c-2.6-1.2-3.6-3.7-3.9-6.2
			c0,0,0-0.1,0-0.1c1.3,0.7,2.8,1.1,4.3,1.3c0.4,0.1,0.7,0.1,1.1,0.1c0.4,0,0.7,0.1,1.1,0.1c0.6,0,1.3,0,1.9,0c0.2,0,0.5,0,0.7,0
			c0.3,0,0.5,0,0.8-0.1c0.4,0,0.8-0.1,1.2-0.1C143.1,280.5,143.4,280.5,143.8,280.4z" class="st2"></path>
	</g>
	<path d="M421.2,386.7c-3.5,3-6.9,6-10.4,9c-1.6,1.4-3.3,2.8-4.9,4.2c0,0,0,0,0,0c-0.3,0.3-0.7,0.5-1,0.8
		c-0.1,0.1-0.2,0.1-0.3,0.2c0,0,0,0,0,0c-2.3,1.9-4.6,3.9-7,5.8c-10.7,9-46.9,35.5-70.8,51.8c-1,0.7-2,1.3-3,2
		c-10.1,6.8-17.5,11.4-18.7,11.2c-22.3-3-88-29-108.6-36.4c-16-5.8-32.3-11.3-47.8-18.5c-2-0.9-6.7-2.3-7.8-4.5
		c-3.6-7.1,45.2-35,45.2-35L391,344.2c0,0,23.9-0.9,31.9,12.9C430.9,370.8,421.2,386.7,421.2,386.7z" class="st3"></path>
	<path d="M416,376.6c0.1,7.4-2.6,14.3-5.2,19.1c-1.6,1.4-3.3,2.8-4.9,4.2c2.6-3.1,9.6-14.4,8.1-26.2
		c-1.4-11.1-9.7-19.7-24.9-25.3l0.7-1.7C411.2,354.7,415.9,367.4,416,376.6z" class="st0"></path>
	<path d="M326.8,458.6c-1,0.7-2,1.3-3,2c2.7-5.4,3.7-10.8,3-16c-2.5-18.2-24.7-29.3-24.9-29.5l0.8-1.7
		c1,0.5,23.3,11.7,25.9,30.9C329.3,449,328.7,453.8,326.8,458.6z" class="st0"></path>
	<path d="M303.6,464.8c-1.3,0.1-3.9-0.4-7.5-1.4c-27.5-7.5-114.3-43-139.5-53.4c-4.4-1.8-6.9-2.9-6.9-2.9l-2.7-30.6
		l3.5-0.3l12-1c0,0,63.1,26.2,105.3,43.6c16.1,6.6,29.2,12,34.4,14.1C321.4,440.4,317,463.9,303.6,464.8z" class="st4"></path>
	<path d="M169.7,393.3l-15.7-4.4l8.7,4.2l-8.3-2.1l1.3,9.5l11.6,4.1l-11.2-2.1l0.6,7.5c-4.4-1.8-6.9-2.9-6.9-2.9
		l-2.7-30.6l3.5-0.3l26.5,12.1l-23.3-2.8L169.7,393.3z" class="st5"></path>
	<path d="M303.6,464.8c-1.3,0.1-3.9-0.4-7.5-1.4l0.3-9.5l-8.2-3.6l8.4,0.8l-13.8-5.4l14,2.9l-0.2-5l-15.9-6.5l16.1,3.8
		l-29.9-9.4l-13.8-11.7l14.8-1c16.1,6.6,29.2,12,34.4,14.1C321.4,440.4,317,463.9,303.6,464.8z" class="st5"></path>
	<path d="M421.7,301.1c1.3-3.1-145.4-76.7-145.4-76.7S178,300.8,149.6,325.2c-1.9,1.4-3.8,2.9-5.6,4.4
		c-11.8,9.6-17.6,18-17.3,25.8c0.3,8,3.5,14.4,9.3,18.9c11.1,8.7,143.7,60.7,149.9,60.7c6.2,0,132.3-93.6,132.3-93.6l-12.3-5
		l-40.8,3.9C394.8,320.3,421.2,302.5,421.7,301.1z" class="st6"></path>
	<path d="M410,309.8L410,309.8l-2.9,32.1c0,0-1.4,1-3.9,2.8c-16.2,11.6-78.5,55.9-106.9,74.3c-7.4,4.8-12.4,7.8-13.8,8
		c-1.1,0.2-4.7-0.8-10-2.6c-26.6-9-97-38.9-121.9-50.3c-3.8-1.7-6.5-3-7.9-3.8c-4.6-2.5-8.3-7-8.7-12.4c-0.3-5.1,2.4-10,6.7-12.7
		c4.3-2.6,9.7-2.9,14.5-1.5c3.3,1,8.6,2.8,15.2,5.3c23.9,8.8,64.7,25.3,88,34.7c10.7,4.4,17.8,7.2,17.8,7.2l9.5-6l87.1-52.8l36.3-22
		L410,309.8z" class="st4"></path>
	<path d="M418.8,276.3c-0.1-0.5-0.3-1-0.6-1.5c-3.1-5.5-17.1-6.8-29.1-3.9c0,0,9.4-18.4-28.3-34.2
		C323,221,355,164.8,355,164.8s-4.6-10-12.5-21.1c0.8-1,1.4-1.8,1.8-2.2c3.7-4.3,9.6-12.8,12-24.9c0.1-0.7,0.3-1.5,0.4-2.2
		c0.3-1.7,0.5-3.3,0.6-5.1c0-0.1,0-0.1,0-0.2c0.1-1.4,0.1-2.9,0.1-4.3c0-0.3,0-0.6,0-1c0-0.3,0-0.6,0-0.9c-0.1-2.8-0.4-5.6-0.8-8.4
		c-0.1-0.6-0.2-1.1-0.3-1.7c-0.2-1.2-0.5-2.4-0.8-3.6c0-0.1,0-0.2-0.1-0.3c-0.6-2.3-1.4-4.7-2.3-7c-0.3-0.6-0.5-1.1-0.8-1.7
		c-3.8-8.1-10.1-15.5-20.4-21.1c0.1-0.1,0.2-0.2,0.2-0.3c3-5.5,4.6-15,3.6-20.5c-0.3-1.5-0.8-2.7-1.5-3.4c-0.3-0.3-0.6-0.5-0.9-0.6
		c-5.7-2-11.2,0.5-15.1,4.5c-2.7,2.7-4.9,6.2-7.9,8.7c-0.2,0.2-2.2,1.8-3.7,2.9l-0.4,0.2c-2.2-0.4-4.5-0.8-6.9-1.1
		c-0.9-0.1-1.8-0.2-2.7-0.3c-0.3,0-0.5-0.1-0.8-0.1c-8.2-0.9-15.9-1.4-23.1-1.6c-1.7,0-3.3,0-4.9,0l0,0c-3.9,0-7.7,0.1-11.3,0.4
		c-0.4,0-0.8,0-1.1,0.1c-2.5,0.2-4.9,0.4-7.2,0.7c0-0.7-0.1-1.4-0.2-2.1c-1.2-9.6-8.3-18.4-12.3-18.7c-4.7-0.4-8,9.1-12.1,16.3
		c-2,3.6-5.9,8.9-9.4,13.5c-3.5,4.5-6.5,8.2-6.6,8.4c-2.6,2.9-4.7,6.2-6.2,9.8c-0.2,0.3-0.3,0.7-0.4,1c-0.2,0.6-0.4,1.1-0.6,1.7
		c-0.1,0.3-0.2,0.6-0.3,1c-1.5,4.4-2.6,8.7-3.3,13l0,0.1c-0.1,0.7-0.2,1.4-0.3,2.1c-0.2,1.5-0.3,2.9-0.3,4.4
		c-0.2,5.1,0.4,10,1.9,14.7c0.2,0.5,0.4,1,0.5,1.5c-1.6,1.3-3.5,3.2-5.6,5.7c-1.1,1.3-2.1,2.7-3.2,4.3c-3,4.4-6,10-8.4,17
		c-0.2,0.7-0.5,1.4-0.7,2.2c-1.4,4.2-2.5,9-3.2,14.1c0,0-4.5,4.6-10.2,12.7c-3.5,4.9-7.4,11.1-11.1,18.3c-3.4,6.7-6.6,14.3-8.9,22.6
		c-1.9,6.6-3.3,13.7-3.9,21.2c-0.7,9-0.3,18.6,1.8,28.6c0.3,1.6,0.7,3.2,1.1,4.8c0,0.1,0,0.1,0,0.2c1.4,5.4,3.2,10.7,5.4,15.7
		c0.4,0.9,0.8,1.8,1.2,2.7c2.6,5.6,5.7,10.9,9.2,15.8c3.2,4.5,6.7,8.6,10.4,12.4c24.6,24.5,61,32.4,94.9,7.3l32.8-65.6l36.7,31.3
		l2.9,2.4c0,0,0,8.1,27,6.3C393.6,293.4,420.1,283.1,418.8,276.3z" class="st0"></path>
	<path d="M410,309.9l-2.9,32c0,0-1.4,1-3.9,2.8l0.3-10.3L395,339l8.5-6v-5.1l-17.7,10.8l17-11.6l-29.9,5.2l36.3-22
		L410,309.9z" class="st5"></path>
	<path d="M366.6,295.2c-27,1.8-27-6.3-27-6.3l-2.9-2.4c3.5-5.2,12.8,0.1,41.3-8c26.5-7.6,36.6-5.3,40.1-3.6
		c0.3,0.5,0.5,1,0.6,1.5C420.1,283.1,393.6,293.4,366.6,295.2z" class="st1"></path>
	<path d="M384.7,159.5l-3,7l-20.2,46.7l-54.4,19.7l-59.7-47.2c-0.7,0.4,3.2-9,3.2-9s11.1-2.9,41.1,5.4
		c0,0-7.9-8.6-22.2-9.3c0,0,31.5-5.4,52.9,23.3c0,0-2.9-22.7,32.3-44c1.8-1.1,3.6-2.1,5.6-3.2l5.7,2.5l7.1-3.6L384.7,159.5z" class="st4"></path>
	<path d="M227.2,55.1c4.4-2.8,9.5-4.4,13.5-5.4c4.2-1,7.4-1.2,7.5-1.2c-0.3-10.3-8.2-20.4-12.5-20.8l0,0
		c-1,2.2-2.2,4.9-1.5,11.1c0.1,0.6,0.1,1.2,0.1,1.8C234.4,49.2,228.2,54.5,227.2,55.1z" class="st2"></path>
	<path d="M316.6,52.9c0,0,6.2,2.3,11.2,4.3c1.5,0.6,3,1.2,4.1,1.7c3-5.5,4.6-15,3.6-20.5c-0.3-1.5-0.8-2.7-1.5-3.4
		c0,0-2.3,0.7-4.7,5.5c-0.9,1.8-1.7,3.5-2.5,5C324.8,49.1,322.2,51.9,316.6,52.9z" class="st2"></path>
	<path d="M248.3,123.2c2.5,2.1,2.5,5.8-0.8,7.4c-4.4,2.2-12.2,1-15.5-2.5c-2.8-3-0.4-7.7,3.1-8.3c2.9-0.5,5.9,0,8.7,1
		C245,121.4,246.9,122.1,248.3,123.2z" class="st7"></path>
	<path d="M324.4,125.1c-2.7,1.9-3.2,5.6-0.1,7.5c4.2,2.5,12,1.9,15.7-1.3c3.1-2.8,1.2-7.7-2.2-8.5
		c-2.9-0.7-5.9-0.4-8.7,0.4C327.9,123.4,326,124,324.4,125.1z" class="st7"></path>
	<path d="M272.7,47.4c4.4,4.6,7.4,11.2,9.9,16.3c1.3,2.8,2.5,5.6,3.6,8.5c0.8,2.1,2.4,4.4,4.9,4.9
		c3.1,0.7,6.1-1.1,7.9-3.4c2.3-3,2.7-6.7,2.5-10.2c-0.3-5.1-2.1-10-4.9-14.3c-0.3,0-0.5-0.1-0.8-0.1
		C287.6,48.1,279.9,47.6,272.7,47.4z" class="st2"></path>
	<path d="M347.3,106.2c3.3,0.8,6.9,0,10.1-1.4c0-0.3,0-0.6,0-1c0-0.3,0-0.6,0-0.9c-0.1-2.8-0.4-5.6-0.8-8.4
		C349.5,99.7,341.1,104.7,347.3,106.2z" class="st2"></path>
	<path d="M347.7,114.8c2.1,1.4,5.4,1.9,8.6,1.9c0.1-0.7,0.3-1.5,0.4-2.2c0.3-1.6,0.5-3.3,0.6-5.1c0-0.1,0-0.1,0-0.2
		C350.6,110.4,344,112.2,347.7,114.8z" class="st2"></path>
	<path d="M349.5,91.6c1.9-0.1,3.9-1.1,5.9-2.3c0-0.1,0-0.2-0.1-0.3c-0.6-2.3-1.4-4.7-2.3-7
		C348.7,86.8,345.2,91.8,349.5,91.6z" class="st2"></path>
	<path d="M256.5,47.7c1.2,1.4,2.4,3,3.4,4.2c2.9,3.8,5.9,9,8.3,9.7c5.1,1.5,7.7-3.4,4.8-8.7c-1.3-2.4-3.4-4.3-5.2-5.6
		l0,0C263.9,47.4,260.1,47.5,256.5,47.7z" class="st2"></path>
	<path d="M299.2,49.4c2.4,3.6,4.8,9.5,7.5,10.6c4,1.6,7.6-1.3,6-3.7c-1.5-2.3-3.4-4.2-5-5.5
		C305,50.3,302.2,49.8,299.2,49.4z" class="st2"></path>
	<g>
		<g>
			<path d="M238.7,119.2c5.2,4.1,13.7,6,20.2,4.1c1.4-0.4,2.7-1,3.9-1.8c5.2-3.6,8.6-10.3,9.3-16.5c0-0.1,0-0.3,0.1-0.4
				c0.5-6.2-2.6-12.1-7.8-15.5c-6.1-4-15.6-5.9-22-1.4c-2.5,1.8-4.7,4.4-6.2,7.3l0,0C231.9,102.9,231.8,113.6,238.7,119.2z" class="st4"></path>
			<path d="M234.7,114c-0.9-2-1.4-4.2-1.6-6.3c-0.2-2.2,0-4.4,0.4-6.6c0.4-2.2,1.2-4.3,2.1-6.3l0.1-0.3l0.3,0l0,0
				l-0.4,0.2c1-2,2.2-3.8,3.7-5.4c1.5-1.6,3.3-3,5.4-3.9c4.2-1.8,8.9-1.6,13.2-0.4c2.1,0.6,4.2,1.5,6.1,2.7c2,1.1,3.7,2.7,5.1,4.4
				c2.8,3.6,4.2,8.2,3.6,12.9l0-0.1c-0.5,3.9-1.9,7.6-4.1,10.8c-1.1,1.6-2.3,3.1-3.8,4.4c-1.4,1.3-3.1,2.3-4.9,3
				c-1.8,0.6-3.7,0.9-5.6,1c-1.9,0.1-3.8-0.1-5.6-0.5c-3.7-0.8-7.3-2.2-10.2-4.5C237,117.8,235.6,116,234.7,114z M249,123.5
				c3.7,0.6,7.6,0.5,11-0.9c1.7-0.7,3.2-1.8,4.5-3.1c1.3-1.3,2.4-2.8,3.4-4.3c1.9-3.1,3-6.7,3.3-10.3l0,0l0-0.1c0.1-0.4,0-1,0.1-1.5
				c0-0.5,0-1-0.1-1.5c-0.1-1-0.3-2-0.6-3c-0.6-1.9-1.6-3.7-2.8-5.3c-2.5-3.2-6.3-5.2-10.2-6.5c-3.9-1.2-8.3-1.5-12.1-0.1
				c-1.9,0.7-3.7,1.9-5.2,3.3c-1.5,1.5-2.8,3.2-3.8,5l-0.1,0.3l-0.3-0.1l0,0l0.4-0.2c-2.1,3.8-3.3,8.1-3.1,12.4
				c0.1,2.2,0.5,4.3,1.4,6.3c0.9,2,2.2,3.8,3.9,5.2C241.7,121.5,245.3,122.9,249,123.5z" class="st2"></path>
		</g>
		<path d="M251.8,118.8c-5.1-0.1-10.2-2.8-12.5-7.3c-3.6-7.2,0.3-16.9,8-19.9c4.1-1.6,9.3-1.2,13,1
			c10,6.1,6.2,22-4.4,25.5C254.6,118.6,253.3,118.8,251.8,118.8z" class="st2"></path>
		<path d="M236.1,95c23.6-6.7,34.7,8,36,9.9c0-0.1,0-0.3,0.1-0.4c0.5-6.2-2.6-12.1-7.8-15.5c-6.1-4-15.6-5.9-22-1.4
			C239.8,89.5,237.6,92.1,236.1,95z" class="st8"></path>
	</g>
	<g>
		<g>
			<path d="M309.6,110.2c2,5.8,8.4,8.9,14.3,9.6c0.8,0.1,1.6,0.1,2.4,0.1c9.6-0.7,17.2-12,15.3-21.1
				c-0.2-0.9-0.5-1.9-0.9-2.7c-3.5-7.7-15.2-12.2-23.2-8.5c-1.9,0.9-3.4,2.7-4.5,4.4c-0.8,1.2-1.5,2.5-2.1,4
				C309,100.5,308.1,105.9,309.6,110.2z" class="st4"></path>
			<path d="M308.9,103.7c0.2-2.2,0.6-4.3,1.3-6.4c0.7-2.1,1.6-4.1,2.8-6c1.2-1.8,2.8-3.7,4.9-4.5
				c4.2-1.8,9.1-1.6,13.4-0.1c4.3,1.5,8.3,4.5,10.4,8.8c0.5,1.1,0.9,2.2,1,3.4c0.1,0.6,0.2,1.2,0.2,1.7c0,0.6,0,1.2,0,1.8
				c-0.1,2.3-0.8,4.6-1.7,6.7c-1.9,4.1-5.1,7.7-9.2,9.7c-2,1-4.3,1.5-6.5,1.5c-1.1,0-2.2-0.2-3.3-0.5c-1.1-0.2-2.1-0.6-3.2-1
				c-2.1-0.8-4-1.9-5.7-3.3c-0.8-0.7-1.6-1.5-2.2-2.4c-0.6-0.9-1.1-1.9-1.5-2.9C308.8,108.1,308.7,105.9,308.9,103.7z M311.1,113.1
				c0.7,0.9,1.4,1.7,2.2,2.4c1.7,1.4,3.7,2.4,5.7,3c1,0.3,2.1,0.6,3.2,0.8c1.1,0.2,2.1,0.3,3.2,0.2c2.1-0.1,4.2-0.7,6-1.8
				c3.7-2.1,6.4-5.6,8-9.5c1.6-3.8,1.9-8.3,0.2-11.9c-0.8-1.8-2.1-3.4-3.7-4.7c-1.6-1.3-3.4-2.4-5.3-3.2c-3.8-1.6-8.3-2.1-12.2-0.6
				c-2,0.6-3.5,2.2-4.8,3.9c-1.3,1.7-2.3,3.7-3.1,5.7c-1.5,4-2.3,8.6-0.9,12.8C310,111.2,310.5,112.2,311.1,113.1z" class="st2"></path>
		</g>
		<path d="M330.4,112.8c-0.4,0.3-4.6,4-12,0.6c-7.4-3.4-5-13-3.3-16c1.7-3,6.8-9.1,15.2-5.5
			C338.8,95.3,337.7,108.3,330.4,112.8z" class="st2"></path>
		<path d="M310.9,95.9c11.3-4.5,24.2-0.1,30.7,2.8c-0.2-0.9-0.5-1.9-0.9-2.7c-3.5-7.7-15.2-12.2-23.2-8.5
			c-1.9,0.9-3.4,2.7-4.5,4.4C312.2,93.1,311.5,94.5,310.9,95.9z" class="st8"></path>
	</g>
	<path d="M201.3,75.8c18.4,14.3,27.2,1.9,19.3-1.5c-5.3-2.3-9.9-6-12.9-8.5C205,68.8,202.9,72.1,201.3,75.8z" class="st2"></path>
	<path d="M196.7,92.5L196.7,92.5c0,0.5-0.1,0.9-0.1,1.2c7,3.9,15.8,6.8,23.4,4.8c2.9-0.8,5.6-3,5.1-5.7
		c-0.2-1.1-0.9-2.1-1.9-2.9c-2.8-2.4-7-3.4-10.7-4.4c-4.2-1.1-8.9-3.7-12.6-6C198.4,83.8,197.3,88.2,196.7,92.5z" class="st2"></path>
	<path d="M196.1,99c-0.2,5.1,0.4,10,1.8,14.7c4.9,1.6,10.6,1.3,15.4-0.6c2.2-0.8,4.2-2.4,4.1-4.9
		c-0.1-3.3-4.3-4.3-7-4.6C203.4,102.7,198.6,100.5,196.1,99z" class="st2"></path>
	<path d="M238.3,46.6c0,0,2.3,0.2,3.1-0.2c0.7-0.4-2.8-1.1-2.8-1.1c1.9-0.5,3.7-2.3,3.1-2.4c-0.6-0.1-3,1-3,1
		c2.7-2.8,2-7.7-0.4-7.8c-1.1,0-2.6,2-4,4.4c0.1,8.6-6.1,13.9-7.2,14.5c4.4-2.8,9.5-4.4,13.5-5.4C240.4,48,238.3,46.6,238.3,46.6z" class="st4"></path>
	<path d="M327.9,57.1c0-1.9-1.5-4.9-1.7-5.1c0.1,0.1,1.7,1,2.5,0.7c0.9-0.3-1.7-1.8-1.7-1.8s2.1,0.5,2.4-0.1
		c0.3-0.6-1.9-0.8-1.9-0.8c1.7-0.7,5.2-4.3,3.5-5.6c-1.1-0.9-3,0.1-4.2,1c-2.1,3.7-4.6,6.5-10.2,7.4
		C316.6,52.9,322.8,55.1,327.9,57.1z" class="st4"></path>
	<g>
		<path d="M292.6,103.8c0,0,3.5-3.6,5.1-2.7c1.5,0.8-3.8,6.2-5.7,6.6c-1.9,0.4-5.2-6.1-4.1-7.2S292.6,103.8,292.6,103.8
			z" class="st2"></path>
		<path d="M300,108.9c3,0.9,5.7,3,7.1,6c2.1,4.4,2.1,9.6-1.6,13.1c-2.2,2.2-5.2,3.2-8.1,3.8c-5.6,1-11.2,1.7-16.6-0.3
			c-2-0.7-3.9-1.7-5.4-3.3c-2.3-2.4-3.5-6-3.1-9.6c0.4-3.5,2.3-6.8,5.1-8.7c3.4-2.3,8.2-2.7,12-2.4C292.9,108,296.7,107.9,300,108.9
			z" class="st9"></path>
		<path d="M284.1,128.5c0.8-1.7,1.5-3.5,2.3-5.2l2.1-5.3c0.7-1.8,1.4-3.6,2-5.3c0.6-1.8,1.3-3.6,1.8-5.5l-1,0
			c0.6,3.6,1.1,7.2,1.6,10.8c0.2,1.8,0.4,3.6,0.6,5.4c0.2,1.8,0.3,3.6,0.3,5.5c0.2-1.8,0.2-3.7,0.1-5.5c0-1.8-0.2-3.7-0.3-5.5
			c-0.3-3.7-0.8-7.3-1.3-10.9l-0.4-2.4l-0.6,2.4c-0.5,1.8-1.1,3.6-1.7,5.4l-1.8,5.4l-1.8,5.4C285.3,124.9,284.7,126.7,284.1,128.5z" class="st2"></path>
	</g>
	<g>
		<path d="M350.3,134.1c-3-1.6-6-2.9-9.2-4.2c-3.1-1.2-6.3-2.3-9.5-3.2c3,1.6,6,2.9,9.2,4.2
			C343.9,132.1,347.1,133.2,350.3,134.1z" class="st2"></path>
		<path d="M353.7,125.9c-3.2-0.8-6.4-1.4-9.6-1.8c-3.2-0.4-6.5-0.8-9.7-0.8c3.2,0.8,6.4,1.4,9.6,1.8
			C347.2,125.6,350.4,125.9,353.7,125.9z" class="st2"></path>
		<path d="M352.9,115.8c-3.2,0.6-6.4,1.5-9.5,2.5c-3.1,1-6.2,2.1-9.2,3.5c3.2-0.6,6.4-1.5,9.5-2.5
			C346.8,118.2,349.9,117.1,352.9,115.8z" class="st2"></path>
		<path d="M237.9,125.1c-3.4-0.2-6.8-0.1-10.2,0.1c-3.4,0.2-6.7,0.5-10.1,1.1c3.4,0.2,6.8,0.1,10.2-0.1
			C231.2,126,234.6,125.7,237.9,125.1z" class="st2"></path>
		<path d="M217.5,118.1c3.1,1,6.3,1.6,9.5,2.2c3.2,0.6,6.4,1,9.7,1.2c-3.1-1-6.3-1.6-9.5-2.2
			C224,118.8,220.8,118.3,217.5,118.1z" class="st2"></path>
		<path d="M221.8,108.7c2.4,2.2,4.9,4.2,7.5,6.1c2.6,1.9,5.2,3.7,8.1,5.3c-2.3-2.2-4.9-4.2-7.5-6.1
			C227.3,112.1,224.7,110.3,221.8,108.7z" class="st2"></path>
	</g>
	<path d="M346.8,138c-1.1,1.4-2.2,2.8-3.3,4.1c-0.6,0.7-1.1,1.3-1.7,2c-0.6,0.6-1.2,1.2-1.9,1.6l-0.2,0.1l0,0.2
		c-0.1,0.7-0.2,1.5-0.4,2.2c-0.2,0.7-0.6,1.4-1,1.4c-0.2,0-0.3,0-0.4-0.2c-0.1-0.2-0.2-0.6-0.2-0.9c-0.1-0.7,0-1.5,0-2.2l0.2-2.1
		l-1.2,1.8c-0.4,0.7-0.9,1.3-1.5,2c-0.5,0.6-1.1,1.2-1.7,1.6c-0.3,0.2-0.6,0.4-0.9,0.4c-0.1,0-0.3,0-0.4-0.1c-0.1,0-0.2-0.1-0.2-0.2
		c-0.2-0.5,0.1-1.4,0.4-2.1l0.5-1l-1,0.5c-1.2,0.6-2.6,1.2-3.9,1.7c-1.3,0.5-2.7,0.9-4.1,1.2c1.4-0.1,2.8-0.4,4.2-0.8
		c1.4-0.4,2.7-0.9,4.1-1.5l-0.5-0.5c-0.2,0.4-0.4,0.8-0.6,1.2c-0.1,0.4-0.3,0.9-0.1,1.5c0.1,0.3,0.3,0.6,0.6,0.7
		c0.1,0.1,0.3,0.1,0.4,0.1c0.1,0,0.3,0,0.4,0c0.6,0,1-0.3,1.4-0.5c0.8-0.5,1.4-1.1,2-1.8c0.6-0.7,1.1-1.3,1.6-2.1l-0.9-0.3
		c-0.1,0.8-0.1,1.6,0,2.4c0.1,0.4,0.1,0.8,0.4,1.3c0.1,0.2,0.3,0.5,0.6,0.6c0.3,0.2,0.6,0.2,0.9,0.1c0.6-0.1,1-0.6,1.2-0.9
		c0.2-0.4,0.4-0.8,0.5-1.2c0.2-0.8,0.3-1.6,0.3-2.4l-0.2,0.4c0.8-0.6,1.4-1.2,2-1.9c0.6-0.7,1.1-1.4,1.6-2.1
		C345,141,345.9,139.5,346.8,138z" class="st10"></path>
	<path d="M233.7,143.2c-1.4-0.8-2.9-1.6-4.3-2.5c-1.4-0.9-2.8-1.7-4.1-2.7l-0.8-0.6l0.2,1c0.1,0.4,0.2,0.9,0.2,1.4
		c0,0.4-0.1,0.9-0.3,1c-0.1,0.1-0.2,0.1-0.4,0.1c-0.1,0-0.2-0.1-0.4-0.2c-0.3-0.3-0.5-0.7-0.7-1.1c-0.4-0.8-0.7-1.8-0.9-2.7
		c-0.2-0.9-0.5-1.9-0.5-2.8l-0.2-1.7l-0.8,1.5c-0.3,0.6-0.8,1.3-1.2,1.8c-0.5,0.5-1.1,1-1.5,0.9c-0.5-0.1-0.9-0.8-1.1-1.4
		c-0.2-0.7-0.4-1.4-0.5-2.2l0-0.3l-0.3,0c-1.7-0.3-3.5-0.8-5.1-1.5c-0.8-0.3-1.7-0.7-2.4-1.1c-0.8-0.4-1.5-0.9-2.3-1.5
		c1.3,1.3,2.9,2.3,4.5,3.1c1.7,0.8,3.4,1.4,5.2,1.8l-0.3-0.4c0.1,0.8,0.2,1.6,0.5,2.4c0.1,0.4,0.3,0.8,0.6,1.2
		c0.2,0.4,0.6,0.8,1.2,0.9c0.3,0.1,0.6,0.1,0.8,0c0.3-0.1,0.5-0.2,0.7-0.3c0.4-0.3,0.7-0.6,1-0.9c0.6-0.6,1-1.3,1.4-2l-1-0.2
		c0.1,1.1,0.3,2,0.6,3c0.3,1,0.6,1.9,1,2.8c0.2,0.5,0.5,0.9,0.9,1.3c0.2,0.2,0.5,0.4,0.9,0.5c0.4,0,0.7,0,1-0.3
		c0.6-0.6,0.6-1.2,0.6-1.7c0-0.5-0.1-1-0.3-1.5l-0.6,0.4c1.4,0.9,2.9,1.7,4.3,2.5C230.7,141.8,232.2,142.5,233.7,143.2z" class="st10"></path>
	<path d="M399.3,269.8c0,0,4.1,1.3,3.9,3.9" class="st2"></path>
	<path d="M206.2,153.6c-1,1.4-3,1.8-4.7,1.9c-8.1,0.2-15.2-5.3-20.9-11l-0.1-0.1c0.2-0.7,0.5-1.5,0.7-2.2
		c2.4-7,5.4-12.6,8.4-17c4.8,7.5,12,13.8,16.1,21.9C206.8,149.2,207.6,151.8,206.2,153.6z" class="st2"></path>
	<path d="M196.4,196.2c-1.1,1.2-2.6,1.6-4.2,2c-8.8,1.9-17.9-0.5-26.2-3.9c-3.4-1.4-6.7-2.9-9.9-4.7
		c3.7-7.3,7.6-13.4,11.1-18.3c8.5,5.5,19.4,7.8,26.8,14.8c1.4,1.3,2.7,2.8,3.3,4.7C197.9,192.5,197.7,194.7,196.4,196.2z" class="st2"></path>
	<path d="M181.7,230.2c0,1.1-0.5,2.2-1.2,3.1c-1.9,2.4-4.7,3.9-7.7,4.5c-3,0.6-6.1,0.5-9.1,0.2
		c-7-0.7-13.8-2.3-20.5-4.6c0.6-7.5,2-14.6,3.9-21.2c7,3.1,14.7,4.7,22,7.4c4.5,1.6,9.1,3.9,11.6,8
		C181.2,228.3,181.7,229.2,181.7,230.2z" class="st2"></path>
	<path d="M173.1,271.2c-1.2,1.5-2.9,2.6-4.6,3.6c-5.4,3.1-11.1,5.7-16.9,7.8c-2.2-5-4-10.3-5.4-15.7c0-0.1,0-0.1,0-0.2
		c5.6-1.8,11.3-3.2,17-4.4c2.1-0.4,4.3-0.8,6.5-0.4c2.1,0.4,4.2,1.8,4.9,3.8C175,267.6,174.4,269.7,173.1,271.2z" class="st2"></path>
	<path d="M183.1,303.1c-0.9,1.8-2.3,3.2-3.7,4.5c-2.2,2.1-4.6,4-7,5.9c-3.8-3.7-7.3-7.9-10.4-12.4
		c3.1-1.6,6.2-3.2,9.4-4.6c2-0.9,4-1.8,6.2-1.8c2.2-0.1,4.5,0.8,5.6,2.7C184.2,299.1,184,301.3,183.1,303.1z" class="st2"></path>
	<path d="M320.2,202.8c0,0-9.7-12.7-21.9-16.9c0,0,19.2,13.8,15.2,12.4c-0.7-0.2-21.7-13.4-41.3-6.7
		c-19.7,6.7,43.6,17.7,43.6,17.7l26.1,3L320.2,202.8z" class="st5"></path>
	<path d="M158.5,368.9l-15.1-6.2l0.3,6.7l6.9,4.9c-3.8-1.7-6.5-3-7.9-3.8c-4.6-2.5-8.3-7-8.7-12.4
		c-0.3-5.1,2.4-10,6.7-12.7c4.3-2.6,9.7-2.9,14.5-1.5c3.3,1,8.6,2.8,15.2,5.3c-10-1.9-23.9-4.5-24.1-4.5c0,0.2,25,11.7,27.4,12.8
		l-30.6-11.5l0.4,9.9l4.3,3l-4.1-1.3l-0.1,2.8L158.5,368.9z" class="st5"></path>
	<polygon points="256.1,399.2 281,411.8 307.5,393.8 280.4,406.8" class="st5"></polygon>
	<path d="M404.7,400.7l0.1,0.1c-0.1,0.1-0.2,0.1-0.3,0.2C404.6,400.9,404.6,400.8,404.7,400.7z" class="st0"></path>
	<path d="M384.7,159.5l-3,7c-0.4-0.4-0.7-0.9-1-1.4c-6.1-10.2-18.4-7.8-18.4-7.8c-7.6,4.2-17,14.8-17.6,15.4
		c5.3-8.4,14.5-17.2,14.5-17.2s-2.5-2-4.3-3.5c1.8-1.1,3.6-2.1,5.6-3.2l5.7,2.5l7.1-3.6L384.7,159.5z" class="st5"></path>
	<path d="M377.5,260.7L329,297.9c0,0-10.7,1.5-11.6,1.5c0,0-0.1,0-0.2,0c-3.8-0.8-70-19.2-70.9-18.9
		c-0.9,0.3-7.9-98.8-7.9-98.8l79.7,20.8l0.8,0.2l11.3-1.8c0,0,0.1-0.1,0.1-0.1c2.9-2.8,52.2-43.6,57.8-48.7
		C389.9,165.1,377.5,260.7,377.5,260.7z" class="st3"></path>
	<g>
		<path d="M239.1,202.3c0,0-19.7-14.6-32.9-5.9c-13.2,8.7-3.5,36.5,3,43.6c6.5,7.1,15.5,18.7,40.8,14.1
			c25.2-4.5,34-18.2,30.2-26.1c0,0,3.5-11.1-6.8-11.9c0,0-3.2-9.4-14.4-6.8c-9.9,2.2-13.4,3.7-13.4,3.7L239.1,202.3z" class="st0"></path>
		<path d="M239.4,215.4c2.8-1.4,5.8-2.5,8.7-3.6c3-1,6-1.9,9.1-2.5c3.1-0.6,6.3-0.9,9.6-0.3c1.6,0.4,3.2,1,4.5,2.3
			c1.2,1.2,1.9,2.9,2.1,4.6l-0.6-0.6c1.4,0.1,2.7,0.5,4,1.2c1.2,0.6,2.4,1.6,3.2,2.8c0.8,1.2,1.2,2.6,1.3,4c0.1,0.7,0,1.4,0,2.1
			l-0.3,2l-0.1-0.6c2,4.4,0.5,9.1-2.1,12.5c-2.6,3.5-6.1,6-9.7,8.2c-7.3,4.2-15.3,7-23.7,8c-8.3,0.8-17-0.7-24.3-4.9
			c-7.3-4.2-12.9-10.7-17.1-17.8l3.7,5c1.2,1.6,2.8,3,4.1,4.6c0.7,0.8,1.5,1.4,2.3,2.1l2.4,1.9c0.8,0.7,1.7,1.1,2.5,1.7l2.6,1.6
			c7.2,3.9,15.6,5,23.6,4.2c8.1-1,15.9-3.8,22.9-7.9c3.5-2.1,6.8-4.5,9.2-7.6c1.2-1.6,2.1-3.3,2.5-5.2c0.4-1.8,0.3-3.9-0.4-5.5
			l-0.1-0.3l0.1-0.3l0.3-1.8c0-0.6,0.1-1.2,0-1.8c0-1.2-0.4-2.3-1-3.3c-0.6-1-1.5-1.8-2.6-2.3c-1-0.6-2.3-1-3.4-1.1l-0.6-0.1
			L272,216c-0.2-1.5-0.7-2.8-1.6-3.9c-1-1-2.3-1.7-3.8-2c-2.9-0.7-6.1-0.4-9.2,0c-3.1,0.5-6.1,1.2-9.1,2.1
			C245.3,213.2,242.3,214.2,239.4,215.4z" class="st10"></path>
		<path d="M245.6,213.2c-1.9-1.9-3.4-4-4.7-6.2c-1.3-2.2-2.4-4.6-3.1-7.2c1.9,1.9,3.4,4,4.7,6.2
			C243.8,208.3,245,210.7,245.6,213.2z" class="st10"></path>
		<path d="M262.1,219.4c1.9-0.7,3.5-1.3,5.2-2c0.9-0.3,1.7-0.6,2.6-0.9c0.9-0.3,1.8-0.5,2.8-0.6c-1.3,1.6-3,2.6-4.8,3.3
			c-0.9,0.3-1.9,0.6-2.9,0.6C264.1,220,263,219.9,262.1,219.4z" class="st2"></path>
		<path d="M267.1,231.6c1.2-0.4,2.4-0.8,3.6-1.2c1.2-0.4,2.3-0.7,3.4-1.2c1.1-0.4,2.2-0.9,3.3-1.4c1-0.6,2-1.2,3.1-2
			c-0.4,1.3-1.2,2.4-2.2,3.2c-1,0.9-2.2,1.5-3.4,2c-1.2,0.4-2.5,0.7-3.8,0.8C269.7,232,268.4,232,267.1,231.6z" class="st2"></path>
	</g>
	<g>
		<path d="M385.1,195.3c0,0-9.5,11-18.7,17.8c-9.2,6.8-9,26.4,2.6,29.1c11.7,2.6,22.2-5.5,26.2-19.2
			C399.1,209.4,385.1,195.3,385.1,195.3z" class="st0"></path>
		<path d="M363,236.2c3.5-0.3,6.8-0.7,10.1-1.6c1.6-0.4,3.2-1,4.7-1.7c1.6-0.6,3-1.5,4.6-2.3c-1.1,1.4-2.4,2.7-3.9,3.6
			c-1.5,1-3.2,1.7-4.9,2.2c-1.7,0.5-3.5,0.7-5.3,0.7C366.4,237.1,364.6,236.8,363,236.2z" class="st2"></path>
		<path d="M360.6,225.5c2.9-0.3,5.7-0.5,8.4-0.9c1.3-0.2,2.7-0.5,4-0.9c1.3-0.4,2.5-0.9,3.9-1.6c-0.8,1.2-2,2.2-3.3,3
			c-1.3,0.7-2.8,1.1-4.2,1.4c-1.5,0.2-2.9,0.3-4.4,0.1C363.4,226.4,361.9,226.1,360.6,225.5z" class="st2"></path>
	</g>
	<path d="M291.8,299.6c-0.6,10.9,0.3,28-6.6,33.1c-1.7,1.3-4.2,1.7-6.9,1.6c-3.4-0.1-7.1-3.1-7.3-5.4
		c-13.7,4.8-38.1,11.7-61,5.6c-35.8-9.5-10.3-44-11.2-44.2c-0.4-0.1,2.2-5.8,5.2-12.3l-1-22.8c0,0,49.5-10.6,73.5,39
		c0,0,10.3-29.1,22.2-26.7c2.1,0.4,3.3,1.3,3.7,2.5C304.7,275.7,292.4,288.6,291.8,299.6z" class="st0"></path>
	<path d="M193.4,257.8c7.7-3.2,16.1-4.5,24.4-4.6c4.2,0,8.4,0.4,12.5,1.1c1,0.2,2,0.4,3.1,0.7c1,0.2,2,0.4,3,0.8l3,1
		c1,0.4,1.9,0.9,2.9,1.3c7.7,3.6,14,9.3,19.8,15.3c5.7,6.1,10.8,12.8,15.2,19.9l-1.6,0.1c1.7-4.5,3.7-8.9,6.1-13.1
		c2.4-4.2,5.1-8.3,8.9-11.6c1.9-1.5,4.4-2.9,7.2-2.6c1.4,0.2,2.5,0.5,3.8,1.3c0.6,0.4,1.2,1,1.5,1.7c0.3,0.7,0.4,1.5,0.3,2.2
		c-0.3,2.7-1.6,4.8-2.7,7c-1.1,2.1-2.2,4.2-3.3,6.4c-2.1,4.3-3.8,8.7-4.6,13.4c-0.4,2.3-0.6,4.7-0.8,7.1l-0.5,7.2
		c-0.4,4.8-0.8,9.6-2.1,14.3c-0.7,2.3-1.7,4.6-3.7,6.2c-2,1.5-4.5,1.8-6.9,1.6c2.4,0.1,4.9-0.3,6.7-1.9c1.8-1.5,2.8-3.8,3.4-6.1
		c1.2-4.6,1.4-9.4,1.7-14.2l0.4-7.2c0.2-2.4,0.2-4.8,0.6-7.2c0.8-4.8,2.4-9.4,4.5-13.8c1-2.2,2.1-4.3,3.2-6.4c1-2.1,2.2-4.3,2.4-6.4
		c0.1-1-0.3-1.8-1.1-2.3c-0.8-0.5-2-0.9-3-1c-2.1-0.2-4.2,0.9-5.9,2.3c-3.5,2.9-6.1,7-8.4,11.1c-2.3,4.1-4.3,8.5-6,12.9l-0.7,1.7
		l-1-1.6c-4.2-7-9.3-13.6-14.8-19.7c-2.8-3-5.8-5.9-9-8.4c-1.5-1.4-3.3-2.5-4.9-3.7c-1.8-1-3.4-2.3-5.3-3.1
		c-0.9-0.4-1.8-0.9-2.8-1.3l-2.9-1c-0.9-0.4-2-0.6-3-0.8c-1-0.2-2-0.5-3-0.7c-4-0.8-8.1-1.2-12.3-1.4
		C209.6,253.9,201.3,255.1,193.4,257.8z" class="st10"></path>
	<path d="M291.8,299.6c-0.6,10.9,0.7,27.4-6.6,33.1c-15.9-14.2,0.4-50.2,8.6-58.2c3.1-3.1,6.1-4.2,8.7-4.4
		C304.7,275.7,292.4,288.6,291.8,299.6z" class="st1"></path>
	<path d="M286.5,275.2c0,0,2.9-1.8,6.1,0.8" class="st10"></path>
	<path d="M330.4,200.8l-1.4,97.1c0,0-10.7,1.5-11.6,1.5c0,0-0.1,0-0.2,0l0.9-96.9l0.8,0.2l11.3-1.8
		C330.3,201,330.3,200.9,330.4,200.8z" class="st2"></path>
	<path d="M318.2,203.5c-0.1,0-0.2,0-0.2,0l-79.7-20.8c-0.5-0.1-0.8-0.6-0.7-1.1c0.1-0.5,0.6-0.8,1.1-0.7l79.2,20.7
		c1.5-1.2,6.6-4.9,12.3-1.7l57.4-48.4c0.4-0.3,1-0.3,1.3,0.1c0.3,0.4,0.3,1-0.1,1.3l-57.9,48.8c-0.3,0.3-0.8,0.3-1.1,0.1
		c-5.7-3.6-10.9,1.4-11,1.5C318.6,203.4,318.4,203.5,318.2,203.5z" class="st2"></path>
	<path d="M318.3,203.4l12.2-1.7C330.4,201.7,323.7,196.6,318.3,203.4z" class="st2"></path>
	
		<rect height="1.9" width="12.2" class="st0" transform="matrix(0.9986 -5.266515e-02 5.266515e-02 0.9986 -10.8946 17.365)" y="214.5" x="317.9"></rect>
	
		<rect height="1.9" width="12.2" class="st0" transform="matrix(0.9986 -5.287734e-02 5.287734e-02 0.9986 -14.0754 17.4836)" y="273.8" x="317.3"></rect>
</g>
</svg>
