<svg xml:space="preserve" style="enable-background:new 0 0 500 500;" viewBox="0 0 500 500" y="0px" x="0px"
     xmlns="http://www.w3.org/2000/svg" id="图层_1" version="1.0">
<style type="text/css">
	.st0{fill:#8EE4DB;}
	.st1{fill:#5DD4B4;}
	.st2{fill:#FC903E;}
	.st3{opacity:0.2;fill:#A0312F;}
	.st4{fill:#A0312F;}
	.st5{opacity:0.48;fill:#DC4949;}
	.st6{fill:#FCBB85;}
	.st7{opacity:0.48;fill:#A0312F;}
	.st8{fill:#FFFFFF;}
	.st9{opacity:0.21;fill:#A0312F;}
	.st10{fill:#DC4949;}
	.st11{opacity:0.38;fill:#F25555;}
</style>
<g>
	<path d="M306,255.9c-12.9,4.2-26.9,7.1-38.8,12.6c-16.9,7.8-28.9,20.6-43.8,30.7c-14.8,10-34.7,17.5-55.9,12.5
		c-15.9-3.7-29.9-13.9-40.2-25.4c-18.7-20.9-26.7-46.2-26.1-69.6c0.5-23.3,9-44.9,20-64.9c12-21.7,27.4-42.2,49.3-57.1
		c12.3-8.3,26.4-14.9,41.1-20.4c26.5-10,56.9-17.1,88.6-10.5c32.1,6.6,65,29.4,81.6,58.9c1.3,2.3,2.4,4.5,3.5,6.7
		c4.2,8.9,6.4,17.7,7,26.2C396,202.6,351.1,241.3,306,255.9z" class="st0"></path>
	<g>
		<path d="M257.3,314.4c-49.9,0-94.4,7.5-123.1,19.2c-2.2-5.8-7.8-20-9.2-18.4c-1.3,1.5,3.5,13.6,6.1,19.7
			c-4.1,1.8-7.8,3.7-11.2,5.6c-0.2-4.3-1.1-20.4-3.3-19.8c-2.3,0.7-0.5,18-0.1,21.8c0,0-0.1,0-0.1,0.1c-1.1-4.5-7.7-30.1-11-28.9
			c-3.1,1.2,6.3,24.4,8.8,30.4c-8.8,6.3-13.7,13.3-13.7,20.6c0,13.1,15.6,25.1,41.3,34c-4.6-0.3-9.4-0.4-14.2-0.4
			c-49.3,0-89.2,14.6-89.2,32.7c0,18,39.9,32.7,89.2,32.7c49.3,0,89.2-14.6,89.2-32.7c0-7.3-6.6-14.1-17.7-19.6
			c18,2.3,37.6,3.6,58.2,3.6c86.6,0,156.7-22.5,156.7-50.3C414,337,343.9,314.4,257.3,314.4z" class="st1"></path>
		<ellipse ry="3.9" rx="12.1" cy="422.8" cx="233.3" class="st1"></ellipse>
		<ellipse ry="2.3" rx="7" cy="404.5" cx="213.3" class="st0"></ellipse>
		<path d="M212.1,392.3c0,1.9-4.9,3.5-10.9,3.5c-6,0-10.9-1.6-10.9-3.5s4.9-3.5,10.9-3.5
			C207.2,388.8,212.1,390.4,212.1,392.3z" class="st0"></path>
		<path d="M244.4,396.2c0,1.9-4.9,3.5-10.9,3.5c-6,0-10.9-1.6-10.9-3.5c0-1.9,4.9-3.5,10.9-3.5
			C239.6,392.7,244.4,394.2,244.4,396.2z" class="st0"></path>
	</g>
	<g>
		<g>
			<path d="M346.5,355.5c0,0,12.4,1.4,24.6,5.4c12.2,4,10.2,12.8-5,9.7c-15.2-3.1-46.1-7.5-46.1-7.5L346.5,355.5z" class="st2"></path>
			<path d="M346.5,355.5c0,0,12.4,1.4,24.6,5.4c12.2,4,10.2,12.8-5,9.7c-15.2-3.1-46.1-7.5-46.1-7.5L346.5,355.5z" class="st3"></path>
		</g>
		<g>
			<path d="M161.8,247.7c0,0-36.8,1.1-34,39.2c2.8,38.2,21.7,60.9,21.7,60.9s-23.1,5.6-19.6,13
				c3.5,7.3,16.5-3.8,25.1-3.5c8.6,0.3,20-4.8,20-4.8L161.8,247.7z" class="st2"></path>
			<path d="M161.8,247.7c0,0-36.8,1.1-34,39.2c2.8,38.2,21.7,60.9,21.7,60.9s-23.1,5.6-19.6,13
				c3.5,7.3,16.5-3.8,25.1-3.5c8.6,0.3,20-4.8,20-4.8L161.8,247.7z" class="st3"></path>
		</g>
		<g>
			<g>
				<path d="M460.1,380c0.3,7.5-1.6,15-6.3,22c-5.6,8.3-14.7,14-24.4,16.2c-6.4,1.4-15.8,2.7-25.3,3.2
					c-15.6,0.7-31.2-1-32.8-8.4c-1.8-8.7,7.1-10.8,13.8-11.8c1.7-0.2,3.4-0.4,5.1-0.6c8.2-0.9,16.5-1.4,24.7-2.8
					c1.2-0.2,2.4-0.4,3.5-0.7c4.1-0.8,8.8-1.9,12.9-3.9c3.8-1.8,7-4.3,8.8-8.1c3.9-8.3-1.2-16.6-7.6-22.2c-2-1.8-4.2-3.3-6.3-4.5
					c-5.2-2.9-10.8-4.9-16.7-6.4c-4-1-8-1.6-12-2.1c-32.9-3.8-35.3-11.5-35.3-11.5l5.5-18.8c0,1.4,9,4.7,16,7.1
					c3.8,1.3,7,2.3,7.8,2.5c5.1,1.5,10.3,2.7,15.5,3.9c9.9,2.4,19.8,4.8,28.7,9.5C449.8,350.1,459.5,364.7,460.1,380z" class="st2"></path>
				<path d="M460.1,380c0.3,7.5-1.6,15-6.3,22c-5.6,8.3-14.7,14-24.4,16.2c-6.4,1.4-15.8,2.7-25.3,3.2
					c-15.6,0.7-31.2-1-32.8-8.4c-1.8-8.7,7.1-10.8,13.8-11.8c1.7-0.2,3.4-0.4,5.1-0.6c8.2-0.9,16.5-1.4,24.7-2.8
					c1.2-0.2,2.4-0.4,3.5-0.7c4.1-0.8,8.8-1.9,12.9-3.9c3.8-1.8,7-4.3,8.8-8.1c3.9-8.3-1.2-16.6-7.6-22.2c-2-1.8-4.2-3.3-6.3-4.5
					c-5.2-2.9-10.8-4.9-16.7-6.4c-4-1-8-1.6-12-2.1c-32.9-3.8-35.3-11.5-35.3-11.5l5.5-18.8c0,1.4,9,4.7,16,7.1
					c3.8,1.3,7,2.3,7.8,2.5c5.1,1.5,10.3,2.7,15.5,3.9c9.9,2.4,19.8,4.8,28.7,9.5C449.8,350.1,459.5,364.7,460.1,380z" class="st3"></path>
			</g>
			<path d="M404.1,421.3c-15.6,0.7-31.2-1-32.8-8.4c-1.8-8.7,7.1-10.8,13.8-11.8c1.7-0.2,3.4-0.4,5.1-0.6
				C399.2,405.8,402.6,415.8,404.1,421.3z" class="st4"></path>
			<path d="M427.8,404.5c-5.1,1.5-10.3-3.6-12.9-6.7c1.2-0.2,2.4-0.4,3.5-0.7c4.1-0.8,8.8-1.9,12.9-3.9
				C432.2,397,432.7,403,427.8,404.5z" class="st4"></path>
			<path d="M460.1,380c0.3,7.5-1.6,15-6.3,22c0,0-6.4-6.6-4.2-13.7C451.2,382.9,457.1,380.8,460.1,380z" class="st4"></path>
			<path d="M432.5,363c-2-1.8-4.2-3.3-6.3-4.5c-5.2-2.9-10.8-4.9-16.7-6.4c3.6-1.8,9.5-3.8,16.8-2.2
				C433.2,351.5,433.5,357.9,432.5,363z" class="st4"></path>
			<path d="M407,333.2c-3.2,2.5-8.9,5.7-14.8,3.3c-4.7-1.9-7.2-6.2-8.5-9.8c3.8,1.3,7,2.3,7.8,2.5
				C396.6,330.8,401.8,332,407,333.2z" class="st4"></path>
		</g>
		<path d="M373.1,294.4c-0.3-4.7-1.1-9.4-2.2-14.1c-0.2-0.8-0.4-1.7-0.6-2.5c-1.1-4.1-2.5-7.9-3.9-11.5
			c-2-4.7-4.2-8.8-6.5-12.6c-3.5-5.6-7.3-10.2-11.2-14c-3.7-3.7-7.4-6.6-10.8-8.9c-8.5-5.8-15.1-7.7-15.1-7.7
			c0.5-6-0.6-11.3-2.5-15.9c-2.1-5-5.1-9.2-8.2-12.5c-4.1-4.4-8.1-7.2-9.6-8.2c0.1-0.1,0.1-0.2,0.2-0.3c2-4.1,3.3-8.4,4-13
			c0.2-1.3,0.3-2.6,0.4-4c0-0.6,0.1-1.3,0.1-1.9v-0.1c0.1-3.9-0.1-8-0.8-12.2c0-0.3-0.1-0.6-0.1-0.9c-0.1-0.5-0.2-1.1-0.3-1.6
			c-0.1-0.3-0.1-0.7-0.2-1c-0.7-3.5-2.1-6.7-3.9-9.7c0,0,0,0,0,0c-0.2-0.5-8.3-15.1-10.7-22.1c-2.4-7.1-3.9-16.2-8.1-16.5h0
			c-3.8-0.3-12.5,7.8-14.4,17v0c-2-0.6-4.1-1.1-6.3-1.7c-0.3-0.1-0.7-0.2-1-0.2c-3.2-0.7-6.5-1.4-10-2h0c-1.4-0.2-2.9-0.4-4.4-0.7
			c-6.4-0.9-13.3-1.5-20.7-1.8c-0.2,0-0.5,0-0.7,0c-0.8,0-1.7-0.1-2.4-0.1c-2.2-0.1-4.3,0-6.3,0c0,0,0,0,0,0l-0.3-0.3
			c-1.1-1.2-2.6-2.9-2.8-3.1c-2.2-2.6-3.6-6.1-5.5-9c-2.9-4.1-7.3-7.2-12.7-6.2c-0.3,0.1-0.6,0.2-0.9,0.4c-0.7,0.6-1.4,1.6-1.9,2.9
			c-1.8,4.8-1.9,13.7-0.1,19.1c0,0.1,0.1,0.2,0.1,0.3c-5,1.8-9.3,4.2-12.8,6.9c-3.5,2.7-6.4,5.9-8.7,9.2c-0.3,0.5-0.6,1-0.9,1.4
			c-1.2,1.9-2.3,3.9-3.2,6c0,0.1-0.1,0.2-0.1,0.3c-0.5,1-0.9,2.1-1.3,3.1c-0.2,0.5-0.4,1-0.5,1.5c-0.8,2.5-1.5,5-2.1,7.5
			c0,0.3-0.1,0.6-0.2,0.8c-0.1,0.3-0.1,0.6-0.2,0.9c-0.3,1.3-0.5,2.7-0.6,4c0,0,0,0.1,0,0.2c-0.2,1.6-0.3,3.2-0.3,4.7
			c0,0.7,0,1.4,0,2.1c0.2,11.1,4,19.5,6.5,23.9c0,0,0.7,1.3,2.5,3.2c-2,5.1-4.2,11-6.1,16.5v0c-1.4,3.9-2.6,7.6-3.5,10.6
			c-0.6,2.1-1.2,4.1-1.6,6.1c-2.6,10.1-3.9,18.8-4.5,26.7c-0.4,5.5-0.4,10.5-0.3,15.5c0.2,6.8,0.8,13.4,1.4,20.4
			c0.9,10.8,2.6,20.5,4.5,28.9c1.3,5.6,2.6,10.7,4,15c3.8,12.5,7.3,19.5,7.3,19.5c-17.1,6.1-6.5,15.2-6.5,15.2
			c-0.3,10.1,15.7,7.2,15.7,7.2c6.2,3.9,10.9,3.7,14.4,2.1c1.8-0.9,3.3-2.1,4.5-3.5c2.4-2.8,3.5-5.8,3.5-5.8
			c30.8,14.4,51.6,7.1,51.6,7.1c0,6.5,2.2,8.9,4.7,9.7c2.8,0.9,5.9-0.6,5.9-0.6c0,0,0,0,0,0c2.1,8.6,16.2,1.4,16.2,1.4
			c8.8,3.7,16-2.4,20.8-9.1c1.5-2,2.7-4.1,3.7-5.9c2.2-4,3.4-7.2,3.4-7.2c28.9,4.2,49.4-11.8,58.4-34.8c1.7-4.3,3-8.9,3.8-13.6
			C373.3,308.3,373.6,301.4,373.1,294.4z" class="st2"></path>
		<path d="M286.1,129c-3.5-3.1-7.7-5.4-11.1-6.8c-3.6-1.5-6.3-2.1-6.5-2.2c1.9-9.3,10.6-17.3,14.4-17.1h0
			c0.5,2.2,1.2,4.7-0.5,10.3c-0.2,0.5-0.3,1.1-0.4,1.6C280.6,122.6,285.3,128.3,286.1,129z" class="st4"></path>
		<path d="M207.2,114.2c0,0-5.9,1.2-10.6,2.3c-1.5,0.3-2.9,0.7-3.9,0.9c-1.8-5.4-1.7-14.3,0.1-19.1
			c0.5-1.3,1.1-2.4,1.9-2.9c0,0,1.9,1,3.3,5.7c0.5,1.7,0.9,3.4,1.4,4.9C200.6,109.6,202.4,112.5,207.2,114.2z" class="st4"></path>
		<path d="M248.5,196.8c-3.4,2-4.3,6.6-0.7,9.2c4.8,3.5,14.4,3.6,19.1-0.1c4-3.1,2.1-9.4-1.9-10.8
			c-3.4-1.2-7.1-1.1-10.6-0.4C252.8,195.1,250.4,195.6,248.5,196.8z" class="st5"></path>
		<path d="M190.9,188.3c2.6,2.6,2.3,6.8-1.4,8.3c-5,2-13.5,0-17-4.3c-2.9-3.6,0.2-8.8,4.1-9.1c3.3-0.3,6.6,0.6,9.5,2
			C187.4,185.9,189.4,186.9,190.9,188.3z" class="st5"></path>
		<path d="M247,115.5c-4.7,3.5-8.4,9.1-11.4,13.3c-1.6,2.3-3.1,4.7-4.5,7.1c-1.1,1.8-2.9,3.6-5.1,3.7
			c-2.8,0.2-5.2-1.8-6.4-4.2c-1.5-3-1.3-6.4-0.6-9.6c1.1-4.5,3.5-8.7,6.6-12.2c0.2,0,0.5,0,0.7,0C233.7,114,240.6,114.6,247,115.5z" class="st4"></path>
		<path d="M255.5,379.3c-0.3-1.2-0.4-2.6-0.4-4.3c0,0-20.8,7.2-51.6-7.1c4.1-17.8,6.2-40.9,7.3-59.8
			c0.3-5.2,0.6-10.1,0.7-14.5c0.1-2.3,0.2-4.5,0.2-6.5c5.4-3.1,12.4-6,20.9-6.9c8.4-0.8,15.8,4.4,21.7,11.1c0.8,8,2,19.8,3.2,31.4
			c0.4,4.2,0.9,8.4,1.3,12.3c1.1,9.9,2,18.6,2.6,23.1C261.6,358.2,254.5,372.4,255.5,379.3z" class="st6"></path>
		<path d="M171.4,158.1c-3,0.3-6.1-1-8.7-2.7c0.1-0.3,0.1-0.6,0.2-0.9c0.1-0.3,0.1-0.6,0.2-0.8c0.6-2.5,1.3-5,2.1-7.5
			C170.5,151.8,177.1,157.6,171.4,158.1z" class="st4"></path>
		<path d="M169.7,165.8c-2.1,1-5.1,0.9-7.9,0.5c0-0.7,0-1.4,0-2.1c0-1.5,0.1-3.1,0.3-4.7c0-0.1,0-0.1,0-0.2
			C167.8,161.4,173.3,164,169.7,165.8z" class="st4"></path>
		<path d="M171.8,144.5c-1.6-0.4-3.3-1.5-4.8-2.9c0-0.1,0.1-0.2,0.1-0.3c0.9-2,2-4,3.2-6
			C173.2,140.3,175.6,145.3,171.8,144.5z" class="st4"></path>
		<path d="M261.3,118.1c-1.3,1.1-2.7,2.4-3.7,3.3c-3.2,3-6.7,7.3-8.9,7.6c-4.8,0.6-6.3-4.1-2.8-8.6
			c1.6-2,3.7-3.4,5.5-4.3h0C254.9,116.7,258.2,117.4,261.3,118.1z" class="st4"></path>
		<path d="M223.1,113.5c-2.7,2.9-5.8,7.9-8.4,8.6c-3.9,0.9-6.5-2.3-4.7-4.2c1.7-1.9,3.7-3.3,5.4-4.3
			C217.9,113.5,220.5,113.5,223.1,113.5z" class="st4"></path>
		<path d="M165.9,185.5c0.7,1.4,1.4,2.8,2.2,4.2c0.4,0.7,0.8,1.4,1.2,2c0.4,0.6,0.9,1.3,1.4,1.8l0.1,0.1l0,0.2
			c-0.1,0.7-0.1,1.4,0,2c0.1,0.6,0.3,1.4,0.6,1.5c0.2,0.1,0.3,0,0.5-0.2c0.2-0.2,0.3-0.5,0.4-0.8c0.2-0.6,0.3-1.3,0.3-2l0.1-1.7
			l0.7,1.6c0.3,0.7,0.6,1.4,1,2c0.4,0.6,0.8,1.3,1.3,1.7c0.2,0.2,0.5,0.4,0.8,0.5c0.3,0,0.5,0,0.6-0.2c0.2-0.5,0.1-1.3-0.1-2
			l-0.2-0.9l0.7,0.5c1,0.8,2.1,1.4,3.2,2.1c1.1,0.6,2.2,1.2,3.4,1.6c-1.3-0.3-2.5-0.8-3.6-1.3c-1.2-0.6-2.3-1.2-3.3-1.9l0.4-0.3
			c0.1,0.4,0.2,0.8,0.3,1.2c0,0.4,0.1,0.8-0.2,1.3c-0.1,0.2-0.4,0.4-0.6,0.5c-0.1,0-0.3,0.1-0.4,0.1c-0.1,0-0.2,0-0.4,0
			c-0.5-0.1-0.9-0.4-1.2-0.6c-0.6-0.6-1.1-1.2-1.5-1.9c-0.4-0.7-0.7-1.4-1.1-2.1l0.8-0.1c0,0.7-0.2,1.5-0.4,2.2
			c-0.1,0.4-0.2,0.7-0.5,1.1c-0.1,0.1-0.1,0.2-0.2,0.3c-0.1,0.1-0.2,0.2-0.3,0.2c-0.3,0.1-0.6,0.1-0.8,0c-0.5-0.2-0.8-0.6-0.9-1
			c-0.1-0.4-0.2-0.8-0.2-1.1c0-0.7,0-1.5,0.1-2.2l0.1,0.3c-0.6-0.6-1.1-1.3-1.5-2c-0.4-0.7-0.8-1.4-1.1-2.1
			C167.1,188.4,166.4,187,165.9,185.5z" class="st7"></path>
		<g>
			<g>
				<path d="M267.6,195.2c-5.2,3-13.1,3.5-18.6,0.8c-1.2-0.6-2.2-1.3-3.2-2.2c-4.1-4-6-10.6-5.6-16.2c0-0.1,0-0.3,0-0.4
					c0.5-5.7,4.2-10.5,9.4-12.9c6.1-2.7,14.8-3.1,19.8,1.9c2,2,3.4,4.6,4.3,7.5h0C276.2,181.5,274.6,191.2,267.6,195.2z" class="st8"></path>
				<path d="M267.6,195.2c-3,1.7-6.4,2.5-9.8,2.6c-1.7,0.1-3.4-0.1-5.1-0.4c-1.7-0.3-3.3-0.9-4.8-1.7
					c-1.5-0.8-2.8-2.1-3.9-3.4c-1.1-1.4-1.9-2.9-2.6-4.5c-1.3-3.2-2-6.7-1.8-10.2l0,0.1c0.2-4.2,2.1-8.1,5.1-10.9
					c1.5-1.4,3.2-2.6,5.1-3.3c1.9-0.8,3.8-1.3,5.8-1.6c4-0.5,8.2-0.1,11.8,2.1c1.8,1.1,3.2,2.6,4.3,4.3c1.1,1.7,1.9,3.5,2.4,5.4
					l-0.3-0.2l0,0l0.3,0l0.1,0.2c0.6,2,0.9,4,0.9,6c0,2-0.2,4-0.7,6c-0.5,2-1.3,3.8-2.4,5.5C270.8,192.8,269.3,194.2,267.6,195.2z
					 M267.6,195.2c1.7-1,3.2-2.4,4.3-4.1c1.1-1.7,1.9-3.6,2.3-5.5c0.4-1.9,0.6-4,0.4-5.9c-0.1-2-0.5-3.9-1.1-5.8l0.3,0.2l0,0l-0.2,0
					l-0.1-0.2c-0.6-1.8-1.5-3.6-2.6-5.1c-1.1-1.6-2.5-2.9-4.1-3.8c-1.6-0.9-3.4-1.4-5.3-1.7c-1.9-0.2-3.8-0.2-5.6,0.1
					c-3.7,0.6-7.4,2-10.1,4.5c-0.7,0.6-1.3,1.3-1.9,2.1c-0.5,0.8-1,1.5-1.5,2.4c-0.4,0.8-0.8,1.7-1,2.6c-0.1,0.4-0.2,0.9-0.3,1.4
					c-0.1,0.4-0.2,1-0.2,1.3l0,0.1c-0.3,3.3,0.1,6.6,1.3,9.8c0.6,1.6,1.3,3,2.3,4.4c1,1.4,2.1,2.6,3.5,3.5c2.8,1.8,6.3,2.4,9.7,2.4
					C261.2,197.7,264.6,196.9,267.6,195.2z" class="st4"></path>
			</g>
			<path d="M256,193c4.5,0.7,9.5-1.1,12.2-4.8c4.3-6,2.5-15.4-3.9-19.1c-3.4-2-8-2.4-11.7-0.9c-9.8,4.1-9,19-0.2,23.7
				C253.6,192.5,254.8,192.9,256,193z" class="st4"></path>
			<path d="M273.8,173.8c-19.8-9.4-32,2.3-33.5,3.9c0-0.1,0-0.3,0-0.4c0.5-5.7,4.2-10.5,9.4-12.9
				c6.1-2.7,14.8-3.1,19.8,1.9C271.4,168.2,272.9,170.9,273.8,173.8z" class="st9"></path>
		</g>
		<g>
			<g>
				<path d="M200.4,181.6c-2.5,4.6-8.3,6.3-13.2,6.2c-0.7,0-1.3-0.1-2-0.3c-7.8-1.8-12.3-12.3-9.5-19.7
					c0.3-0.8,0.7-1.5,1.1-2.2c4-6,14.3-8.3,20.3-4c1.4,1,2.4,2.7,3,4.3c0.5,1.1,0.8,2.3,1.1,3.6
					C202.3,173.5,202.3,178.2,200.4,181.6z" class="st8"></path>
				<path d="M200.4,181.6c-0.5,0.8-1,1.6-1.6,2.2c-0.7,0.6-1.4,1.2-2.2,1.7c-1.6,1-3.3,1.6-5.1,2
					c-0.9,0.2-1.8,0.3-2.8,0.4c-0.9,0.1-1.9,0.1-2.8-0.1c-1.9-0.3-3.7-1-5.2-2.2c-3.1-2.3-5.1-5.7-6.1-9.4c-0.4-1.9-0.6-3.8-0.4-5.8
					l0.3-1.4c0.1-0.5,0.3-0.9,0.4-1.4c0.3-0.9,0.8-1.8,1.3-2.6c2.3-3.3,6-5.2,9.7-5.9c1.9-0.4,3.8-0.4,5.7-0.2
					c1.9,0.3,3.7,0.9,5.3,2c0.8,0.5,1.5,1.2,2.1,2c0.5,0.8,1,1.6,1.3,2.5c0.7,1.7,1.1,3.6,1.4,5.4c0.3,1.8,0.3,3.7,0.1,5.5
					C201.7,178.2,201.3,180,200.4,181.6z M200.4,181.6c1.7-3.3,1.8-7.2,1.2-10.8c-0.3-1.8-0.9-3.6-1.6-5.2c-0.8-1.6-1.8-3.2-3.4-4
					c-3.1-1.8-6.9-2-10.3-1.1c-1.7,0.4-3.4,1.1-4.9,2c-1.5,0.9-2.8,2.1-3.8,3.5c-0.5,0.7-0.9,1.4-1.2,2.3c-0.1,0.4-0.3,0.8-0.4,1.2
					l-0.3,1.3c-0.2,1.7-0.2,3.5,0.2,5.2c0.7,3.4,2.4,6.8,5.2,9.1c1.4,1.1,3,1.9,4.8,2.3c0.9,0.2,1.8,0.2,2.7,0.2
					c0.9,0,1.8-0.1,2.7-0.2c1.8-0.3,3.6-0.9,5.2-1.8c0.8-0.5,1.5-1,2.2-1.7C199.4,183.1,199.9,182.4,200.4,181.6z" class="st4"></path>
			</g>
			<path d="M182.9,181c0.3,0.3,3.2,4,9.7,2.1c6.6-1.8,6.1-10.3,5.1-13c-0.9-2.8-4.2-8.5-11.7-6.7
				C178.6,165.3,177.5,176.3,182.9,181z" class="st4"></path>
			<path d="M201.4,169.5c-8.7-5.3-19.9-3.3-25.6-1.7c0.3-0.8,0.7-1.5,1.1-2.2c4-6,14.3-8.3,20.3-4c1.4,1,2.4,2.7,3,4.3
				C200.8,166.9,201.1,168.2,201.4,169.5z" class="st9"></path>
		</g>
		<path d="M305.7,151.3c-18.6,10.3-24.4-2.1-16.9-4.1c5.1-1.3,9.8-4,12.8-5.8C303.6,144.5,304.9,147.8,305.7,151.3z" class="st4"></path>
		<path d="M307.1,167.1L307.1,167.1c0,0.4-0.1,0.8-0.1,1.1c-6.8,2.5-15.1,3.9-21.5,1c-2.4-1.1-4.5-3.5-3.6-5.9
			c0.4-1,1.2-1.8,2.1-2.4c2.9-1.8,6.8-2.1,10.2-2.4c3.9-0.4,8.5-2,12.1-3.6C307,159.1,307.3,163.1,307.1,167.1z" class="st4"></path>
		<path d="M306.6,173.1c-0.7,4.6-2,9-4,13c-4.6,0.8-9.6-0.3-13.6-2.7c-1.8-1.1-3.3-2.8-2.9-5c0.6-2.9,4.5-3.2,6.9-3.2
			C299.5,175.4,304.1,174.1,306.6,173.1z" class="st4"></path>
		<g>
			<path d="M160.4,189.2c3-0.4,6.1-0.6,9.1-0.7c3-0.1,6.1-0.1,9.1,0.2c-3,0.4-6.1,0.6-9.1,0.7
				C166.4,189.4,163.4,189.4,160.4,189.2z" class="st4"></path>
			<path d="M160.4,181.6c2.9,0.3,5.8,0.8,8.7,1.5c2.9,0.6,5.7,1.3,8.5,2.3c-2.9-0.3-5.8-0.8-8.7-1.5
				C166,183.3,163.2,182.6,160.4,181.6z" class="st4"></path>
			<path d="M164.4,173.1c2.5,1.6,4.8,3.3,7.2,5.1c2.3,1.8,4.5,3.7,6.6,5.8c-2.5-1.6-4.8-3.3-7.2-5.1
				C168.7,177.1,166.5,175.2,164.4,173.1z" class="st4"></path>
		</g>
		<path d="M277.6,119.7c0,0-2.1-0.1-2.7-0.6c-0.6-0.5,2.7-0.6,2.7-0.6c-1.6-0.7-3-2.6-2.4-2.6c0.6,0,2.5,1.4,2.5,1.4
			c-2-2.9-0.6-7.2,1.6-7c0.9,0.1,1.9,2.2,2.8,4.5c-1.5,7.7,3.2,13.4,4,14.2c-3.5-3.1-7.7-5.4-11.1-6.8
			C275.6,120.6,277.6,119.7,277.6,119.7z" class="st8"></path>
		<path d="M196.5,116.4c0.3-1.8,2.1-4.2,2.3-4.4c-0.1,0.1-1.6,0.7-2.3,0.3c-0.7-0.4,1.8-1.4,1.8-1.4s-1.9,0.2-2.1-0.4
			c-0.2-0.6,1.8-0.4,1.8-0.4c-1.4-0.8-3.9-4.6-2.2-5.6c1.1-0.6,2.6,0.5,3.5,1.5c1.2,3.6,3.1,6.5,7.8,8.2
			C207.2,114.2,201.3,115.3,196.5,116.4z" class="st8"></path>
		<path d="M212.3,177.9c-2.8,0.4-5.5,1.9-7.3,4.4c-2.6,3.6-3.4,8.4-0.7,12.1c1.6,2.3,4.1,3.7,6.6,4.6
			c4.8,1.7,9.7,3.1,14.8,2.1c1.9-0.4,3.7-1,5.3-2.2c2.4-1.8,4.1-5,4.3-8.2c0.2-3.2-0.9-6.5-3.1-8.6c-2.6-2.5-6.8-3.6-10.2-3.8
			C218.7,178.1,215.3,177.5,212.3,177.9z" class="st5"></path>
		<g>
			<path d="M282.8,200.3c-2.9,0.4-5.8,0.5-8.8,0.6c-2.9,0.1-5.9,0-8.8-0.2c2.9-0.4,5.8-0.5,8.8-0.6
				C276.9,200,279.8,200,282.8,200.3z" class="st4"></path>
			<path d="M280.5,191.2c-2.5,1.6-5,3-7.6,4.4c-2.6,1.3-5.2,2.6-8,3.7c2.5-1.6,5-3,7.6-4.4
				C275.1,193.5,277.7,192.2,280.5,191.2z" class="st4"></path>
		</g>
		<path d="M215.8,209.5c4.4,0,8.7,0.3,13.1,0.3c2.2,0.1,4.3,0,6.5,0c2.2-0.1,4.3-0.2,6.5-0.4c-4.1,1.9-8.6,2.3-13,2.3
			c-2.2-0.1-4.4-0.3-6.6-0.6C220,210.8,217.9,210.3,215.8,209.5z" class="st7"></path>
		<path d="M210.7,197.1c1.3-3.3,2.7-6.5,4.1-9.7c1.4-3.2,2.8-6.4,3.8-9.7l1.1-3.5l0.7,3.6c1.3,6.8,2.5,13.5,3.2,20.4
			c-2.1-6.6-3.6-13.3-5-20.1l1.8,0.1c-1.1,3.4-2.6,6.7-4.3,9.8c-0.8,1.6-1.7,3.1-2.6,4.6C212.6,194.2,211.7,195.7,210.7,197.1z" class="st4"></path>
		<path d="M253.4,281.6c0.9,6.4,1.8,12.7,2.6,19.1l1.2,9.6l1.1,9.6l2.1,19.1c0.7,6.4,1.4,12.7,2,19.1l0,0.2l-0.1,0.2
			c-1.7,3.2-3.2,6.6-4.4,10.1c-0.7,1.7-1.2,3.5-1.7,5.2c-0.4,1.8-0.8,3.6-0.6,5.4l0,0l0,0.1l0,0c0.1,0.6,0.2,1.3,0.5,1.9
			c-0.3-0.6-0.6-1.2-0.7-1.9l0,0l0-0.1l0,0c-0.3-1.9-0.1-3.7,0.2-5.6c0.3-1.8,0.8-3.7,1.3-5.4c1.1-3.6,2.5-7,4.1-10.4l-0.1,0.4
			c-0.9-6.4-1.6-12.8-2.4-19.1c-0.8-6.4-1.4-12.8-2-19.2l-0.9-9.6l-0.8-9.6C254.2,294.4,253.8,288,253.4,281.6z" class="st7"></path>
		<path d="M261.6,358.2c2.6-1,5.5-1.4,8.3-1.5c2.8-0.1,5.7,0.2,8.4,0.7c2.7,0.6,5.5,1.4,8,2.6c1.3,0.5,2.5,1.3,3.7,1.9
			c1.2,0.7,2.4,1.5,3.5,2.4c-2.6-1-5.2-2-7.8-2.9c-0.7-0.2-1.3-0.4-1.9-0.6l-2-0.5c-1.3-0.4-2.6-0.7-4-1c-2.7-0.6-5.4-0.9-8.1-1.1
			C267.1,358,264.4,357.9,261.6,358.2z" class="st7"></path>
		<path d="M313.8,266.7c3.3,3.7,6.3,7.6,8.9,11.8c0.6,1.1,1.2,2.2,1.7,3.4c0.5,1.1,0.8,2.5,0.6,3.9
			c-0.1,0.7-0.3,1.4-0.8,2c-0.5,0.6-1.2,1-1.9,1.1c-1.4,0.3-2.7,0-4-0.5l0.6-1.2c1.1,0.7,2.1,1.6,3,2.5c0.9,0.9,1.7,2,2.3,3.3
			c0.6,1.3,0.7,2.9,0.1,4.2c-0.5,1.4-1.7,2.3-2.7,3.2l0.4-0.7c0.1,7.6-0.3,15.2-1,22.8c-0.9,7.6-2.1,15.1-4,22.5
			c-1.9,7.4-4.4,14.6-7.9,21.4c-3.5,6.8-8.1,13.1-14,17.8c2.8-2.6,5.2-5.5,7.4-8.6c2.1-3.1,4-6.4,5.6-9.8c3.3-6.8,5.5-14,7.3-21.3
			c1.8-7.3,3-14.8,3.8-22.3c0.8-7.5,1.3-15,1.3-22.6l0-0.4l0.4-0.3c0.9-0.7,1.8-1.4,2.1-2.4c0.4-0.9,0.3-2,0-3
			c-0.8-2.1-2.7-3.9-4.5-5.3l-4.3-3.2l4.9,2c1,0.4,2.2,0.7,3.2,0.5c1-0.2,1.7-1,1.8-2.1c0.2-1.1,0-2.2-0.5-3.3
			c-0.4-1.1-0.9-2.2-1.5-3.3c-1.1-2.2-2.4-4.2-3.8-6.3C316.8,270.7,315.4,268.7,313.8,266.7z" class="st7"></path>
		<path d="M212.1,272.6c0.1,4,0.1,8,0.2,12c0,4-0.1,8-0.2,12c-0.2,8-0.6,16-1.2,24c-0.7,8-1.5,15.9-2.7,23.9
			c-1.2,7.9-2.6,15.8-4.8,23.5c0.7-3.9,1.3-7.9,1.8-11.8c0.6-3.9,1.1-7.9,1.5-11.9c0.9-7.9,1.7-15.9,2.2-23.8c0.3-4,0.6-8,0.9-11.9
			c0.3-4,0.4-8,0.8-11.9C211.2,288.5,211.5,280.6,212.1,272.6z" class="st7"></path>
		<path d="M155.2,250.5c0.1,8.7,0.3,17.4,0.8,26.1c0.6,8.7,1.3,17.3,2.6,25.9c1.3,8.6,2.8,17.1,5,25.5
			c1.1,4.2,2.3,8.3,3.7,12.4c0.7,2,1.4,4.1,2.3,6.1c0.4,1,0.8,2,1.3,3c0.2,0.5,0.5,1,0.7,1.4l0.4,0.7c0.1,0.1,0.1,0.2,0.2,0.3
			l0.1,0.1c0,0.1-0.1-0.1-0.1,0l-0.2,0c3.5-0.1,6.9,0.4,10.1,1.3c1.6,0.4,3.2,1,4.8,1.7c1.6,0.6,3,1.5,4.5,2.4
			c-3-1.5-6.2-2.7-9.4-3.4c-1.6-0.4-3.3-0.6-4.9-0.7c-1.7-0.1-3.3-0.2-5-0.1l-0.1,0l-0.1,0c-0.1-0.1-0.4-0.3-0.4-0.3l-0.1-0.2
			c-0.1-0.1-0.2-0.2-0.2-0.4l-0.4-0.7c-0.3-0.5-0.5-1-0.8-1.5c-0.5-1-1-2-1.4-3c-0.9-2-1.7-4-2.5-6.1c-1.5-4.1-2.8-8.3-3.9-12.5
			c-2.3-8.5-4-17.1-5.1-25.7c-1.2-8.7-1.9-17.4-2.1-26.1C154.4,267.9,154.6,259.2,155.2,250.5z" class="st7"></path>
		<path d="M182.2,372.7c-0.2-1.1-0.1-2.1,0.1-3.1c0.2-1,0.6-2,1.1-3c0.5-0.9,1.2-1.8,2.1-2.5c0.9-0.7,2-1.1,3.1-1
			c-0.9,0.7-1.5,1.3-2,2.1c-0.5,0.7-1,1.5-1.5,2.4C184.2,369.2,183.4,370.9,182.2,372.7z" class="st4"></path>
		<path d="M167.8,366.8c-0.1-1.1,0.2-2.1,0.7-3.1c0.5-1,1.2-1.8,2.1-2.4c0.9-0.6,1.9-1.1,3-1.3c1-0.2,2.1-0.2,3.1,0.1
			c-1,0.5-1.8,0.8-2.7,1.3c-0.8,0.4-1.6,0.9-2.3,1.4c-0.7,0.5-1.4,1.1-2,1.8C169.1,365.2,168.5,365.9,167.8,366.8z" class="st4"></path>
		<path d="M283.7,387.4c-1-0.6-1.7-1.6-2.1-2.6c-0.5-1-0.7-2.2-0.8-3.3c-0.1-1.1,0.1-2.2,0.3-3.3c0.3-1.1,0.7-2.1,1.4-3
			c0.1,1.1,0.1,2.2,0.1,3.2c0,1,0,2,0.1,3C282.8,383.4,283,385.3,283.7,387.4z" class="st4"></path>
		<path d="M267.1,386.6c-0.9-0.8-1.4-1.9-1.8-3c-0.4-1.1-0.6-2.3-0.6-3.5c0.1-2.4,0.9-4.8,2.5-6.5
			c-0.1,1.2-0.3,2.3-0.4,3.3c-0.1,1.1-0.2,2.1-0.2,3.2c0,1,0,2.1,0.1,3.2C266.8,384.3,266.9,385.4,267.1,386.6z" class="st4"></path>
		<path d="M320.2,207.2c-0.5,0.4-1,0.8-1.6,1.2c-5.4,3.5-12.2,4.5-18.6,4c-1.2-0.1-2.5-0.3-3.6-0.8
			c-1.1-0.6-2-1.6-2.1-2.9c-0.2-2.2,2.1-3.7,4.1-4.8c4.4-2.4,8.4-5.2,12.4-8.2c0.4-0.3,0.9-0.7,1.3-1
			C315.1,198,318.1,202.2,320.2,207.2z" class="st4"></path>
		<path d="M293.5,234.6c1.9-0.4,3.8-1,5.5-1.8c1.8-0.8,3.4-1.7,4.8-2.9l1.5-1.3l-0.4,2c-0.2,1-0.2,2.3,0.2,2.8
			c0.1,0.1,0.2,0.2,0.3,0.2c0.2,0,0.3,0,0.3,0c0.2-0.1,0.5-0.5,0.8-0.9c1.1-1.9,1.7-4.3,2.2-6.5l1.8-7.8l0,8c0,1,0.1,2.2,0.3,3.2
			c0.2,1,0.7,1.9,1,1.8c0.6,0,1.2-0.7,1.4-1.7c0.2-1,0.2-2.1,0-3.1l-0.1-0.8l0.8,0.1c0.6,0.1,1.4,0,2.1-0.1c0.7-0.1,1.5-0.3,2.2-0.6
			c1.4-0.5,2.8-1.2,4.2-2c-0.6,0.5-1.2,1-1.8,1.5c-0.7,0.4-1.3,0.9-2,1.2c-0.7,0.4-1.4,0.7-2.2,0.9c-0.8,0.2-1.6,0.4-2.5,0.3
			l0.7-0.7c0.3,1.2,0.4,2.4,0.3,3.7c-0.1,0.6-0.3,1.3-0.7,1.9c-0.5,0.6-1.1,1.1-2,1.2c-0.4,0.1-1-0.1-1.3-0.3
			c-0.4-0.2-0.7-0.6-0.9-0.9c-0.4-0.6-0.6-1.2-0.7-1.8c-0.3-1.2-0.4-2.4-0.4-3.6l1.9,0.2c-0.2,1.2-0.6,2.4-1,3.6
			c-0.4,1.2-0.8,2.4-1.5,3.5c-0.4,0.6-0.8,1.2-1.7,1.6c-0.2,0.1-0.5,0.1-0.8,0.1c-0.3,0-0.4-0.1-0.7-0.1c-0.4-0.1-0.9-0.4-1.1-0.8
			c-0.6-0.7-0.6-1.5-0.6-2.2c0-0.7,0.1-1.3,0.3-2l1.1,0.7c-1.7,1.1-3.5,2-5.4,2.6C297.4,234.2,295.5,234.6,293.5,234.6z" class="st7"></path>
		<path d="M348.6,239.7c-5.6,6.9-15,10.9-23.6,8.7c-1.2-0.3-2.4-0.8-3.3-1.6c-0.9-0.9-1.5-2.2-1.1-3.4
			c0.3-0.9,1-1.6,1.8-2.2c4-3.2,8.7-5.4,12.9-8.2c0.9-0.6,1.8-1.3,2.6-2C341.2,233.1,344.9,236,348.6,239.7z" class="st4"></path>
		<path d="M366.4,266.3c-4.7,2.5-10.4,3.3-15.7,3.1c-1.6-0.1-3.3-0.2-4.8-1c-1.4-0.8-2.5-2.5-2.2-4.1
			c0.5-2.4,3.4-3.2,5.7-3.9c2.6-0.7,5.1-1.8,7.2-3.4c1.3-0.9,2.2-2.1,3.2-3.3C362.2,257.4,364.4,261.6,366.4,266.3z" class="st4"></path>
		<path d="M373.1,294.4H373c-6.3,0.4-12.8-0.1-18.6-2.6c-1.4-0.6-2.9-1.5-3.1-3c-0.2-1.4,0.8-2.7,2-3.4
			c1.2-0.7,2.7-0.8,4-1c4.6-0.7,9.1-2.9,13.7-4.1C372.1,284.9,372.8,289.7,373.1,294.4z" class="st4"></path>
		<path d="M372.1,314.9c-0.8,4.7-2.1,9.3-3.8,13.6c-2.4-0.3-4.8-1-7-2.2c-4.5-2.3-8.1-6.2-10.1-10.8
			c-0.5-1.3-1-2.7-0.5-4c0.5-1.6,2.2-2.5,3.9-2.6c1.6-0.1,3.3,0.4,4.8,1.1C363.7,311.8,367.7,313.9,372.1,314.9z" class="st4"></path>
		<g>
			<path d="M171.2,133.9c0,0,24.8-13.9,61.5-7.2c36.7,6.7,51.5,31.3,51.5,31.3s-16.1-35.6-55.4-40
				c-37.5-4.3-43.1,4.7-43.1,4.7L171.2,133.9z" class="st10"></path>
			<g>
				<path d="M326.9,115.6c-8.8,13.8-24.5,23.1-40.8,24.5c-1.5,0.1-2.9,0.2-4.4,0.2c-2.9,0-5.9-0.2-8.8-0.7
					c-28.4-5-27.5-34.5-27.5-34.5c0.3-8.4,0.1-16.1,2.8-24.2c5.2-16,18.7-27.9,35.3-31c0.3-0.1,0.5-0.1,0.8-0.1
					c2.8-0.5,5.7-0.7,8.5-0.6c10.8,0.3,22.3,4.5,29,13.2C332.9,76.8,337.2,99.6,326.9,115.6z" class="st10"></path>
				<path d="M326.9,115.6c-8.8,13.8-24.5,23.1-40.8,24.5c-4.8-0.5-9.2-1.9-12.8-4.5c-0.9-0.6-17.1-8.1-18.5-26.9
					c-1.2-14.8,0.9-46.8,28.8-58.7c0.3-0.1,0.5-0.1,0.8-0.1c2.8-0.5,5.7-0.7,8.5-0.6c10.8,0.3,22.3,4.5,29,13.2
					C332.9,76.8,337.2,99.6,326.9,115.6z" class="st4"></path>
				<path d="M260.7,124.7c0,0-0.8-22.7,16.7-36.1c0,0-24.9,7.6-23.9,30.9C254.4,143,260.7,124.7,260.7,124.7z" class="st10"></path>
			</g>
			<g>
				<path d="M212.2,116.4c-10.3,10.6-24.2,14.3-37.1,13.4c-13.5-0.9-26-6.8-32.6-15.2c-13-16.3-23.6-59.2,11.5-73.9
					c12.4-5.2,23.7-5.6,33.2-3c17.4,4.8,29.1,19.9,31.5,34.5C222.4,94.8,212.2,116.4,212.2,116.4z" class="st10"></path>
				<path d="M208.9,101.3c-5.5,23.3-31.1,28.1-33.7,28.6c-13.5-0.9-26-6.8-32.6-15.2c-13-16.3-23.6-59.2,11.5-73.9
					c12.4-5.2,23.7-5.6,33.2-3C209.9,52.6,213.7,81.1,208.9,101.3z" class="st4"></path>
				<path d="M197.5,121.7c0,0,12-19.3,3.3-39.6c0,0,17.9,18.9,5.5,38.7C197.2,131.1,197.5,121.7,197.5,121.7z" class="st10"></path>
			</g>
		</g>
		<path d="M219.5,179.4c0,0-6.3-8.4-3.2-11.4c3.1-3,4.1,5.8,4.1,5.8s0.9-5.8,4.7-5S219.5,179.4,219.5,179.4z" class="st4"></path>
		<path d="M321.2,303.2c0,3.3-0.2,8.9-0.8,15.6c-3.7-0.4-7.5-1.4-11.2-1.7c-2.9-0.3-5.8-0.1-8.6-0.8
			c-1.2-0.3-2.4-0.8-3.2-1.8c-1.3-1.5-1.3-3.9-0.3-5.6c0.9-1.8,2.7-3,4.5-3.8c4.2-2,9-2.1,13.6-1.9
			C316.8,303.2,319,303.1,321.2,303.2z" class="st4"></path>
		<path d="M287.2,331.3c-1.1,1.5-3.2,1.8-5.1,2c-4.4,0.4-8.7,0.8-13.1,1.2c-3.3,0.3-6.7,0.6-10.1,0.7
			c-0.4-4-0.9-8.1-1.3-12.3c7.6-1,15.1-1,22.7,0.4c2.1,0.4,4.3,0.9,5.9,2.3C287.8,327,288.5,329.5,287.2,331.3z" class="st4"></path>
		<path d="M315,349.1c-1.3,4.7-2.9,9.3-4.9,13.7c-5.4-0.8-10.7-2.8-15.3-5.8c-1-0.6-1.9-1.3-2.5-2.3
			c-1.1-2-0.2-4.8,1.6-6.2c1.8-1.5,4.2-1.9,6.6-2C305.2,346.2,310.3,347.3,315,349.1z" class="st4"></path>
		<path d="M164.6,333.1c-1.3-4.4-2.7-9.4-4-15c9.9-1,21.4-0.9,23.5,4C186.3,327.5,174.5,331.1,164.6,333.1z" class="st4"></path>
		<path d="M211.5,293.6c-0.2,4.4-0.4,9.3-0.7,14.5c-8.9-1.8-26.5-6.2-24-11.8C189.1,291,202.8,292.4,211.5,293.6z" class="st4"></path>
		<path d="M179.6,228.9c-3.6,3.1-14-0.1-20.1-2.3c0.5-2,1-4,1.6-6.1c0.9-3,2.1-6.6,3.5-10.6
			C171.3,215.3,183.3,225.6,179.6,228.9z" class="st4"></path>
		<path d="M173.6,261.5c0.6,4.1-11.4,6.3-18.9,7.2c-0.2-5-0.1-10.1,0.3-15.5C161.2,254.4,173,257.1,173.6,261.5z" class="st4"></path>
		<path d="M237.4,307.1c-0.9-0.9-1.7-1.8-2.7-2.6c-0.5-0.4-1-0.7-1.5-1c-0.6-0.2-0.7-0.1-0.7,0.1c0,0.2,0.1,0.8,0.4,1.2
			c0.3,0.5,0.7,1,1,1.4c0.7,0.9,1.6,1.8,2.5,2.7l2,2l-2.8-0.4c-1-0.1-2-0.3-2.9-0.3c-0.5,0-1,0-1.4,0c-0.4,0-0.9,0.2-0.8,0.2
			c0.1-0.4-0.1-0.2,0.2,0c0.3,0.2,0.7,0.4,1.1,0.6c0.9,0.3,1.9,0.6,2.8,0.7l1.4,0.3l-0.9,1c-0.5,0.5-0.9,1.1-1.3,1.8
			c-0.4,0.6-0.7,1.3-0.9,2c-0.2,0.7-0.3,1.4-0.2,2.2c0.1,0.7,0.4,1.4,0.8,2.1c-0.6-0.5-1.1-1.2-1.3-2c-0.2-0.8-0.3-1.7-0.2-2.5
			c0.1-0.8,0.4-1.6,0.7-2.4c0.4-0.8,0.8-1.5,1.3-2.2l0.5,1.3c-1.1-0.1-2.1-0.3-3.2-0.6c-0.5-0.2-1.1-0.4-1.6-0.8
			c-0.3-0.2-0.6-0.5-0.8-0.9c-0.1-0.2-0.1-0.5-0.1-0.8c0-0.3,0.1-0.7,0.3-0.9c0.8-0.8,1.5-0.8,2-0.9c0.6-0.1,1.1-0.1,1.7,0
			c1.1,0.1,2.1,0.2,3.2,0.4l-0.8,1.6c-0.9-0.9-1.7-1.9-2.5-3c-0.4-0.5-0.7-1.1-1-1.7c-0.3-0.6-0.6-1.3-0.4-2.4
			c0.2-0.5,0.7-0.9,1.2-1c0.5-0.1,0.9,0.2,1.2,0.3c0.6,0.4,1.1,0.9,1.5,1.4C236.1,304.9,236.8,306,237.4,307.1z" class="st7"></path>
		<path d="M366.1,370.6c0,0,2-7.1-4.8-10.4" class="st4"></path>
	</g>
	<g>
		<path d="M176.8,452.3c-5.4,1.3-24.6,0.1-43-1.8c-2.8-0.3-5.5-0.6-8.2-0.9c-15.6-1.8-28.9-3.9-30.4-5.3
			c-3.5-3.2-2.6-39.9-2.6-39.9l89.5,3.7C182.1,408.1,187.7,449.7,176.8,452.3z" class="st6"></path>
		<path d="M182.4,409.7c-12.9,2.5-89.3-2.5-89.8-5.3c-0.3-1.9,24.1-18.3,39.6-28.5c3-2,5.7-3.8,7.8-5.1
			c2.9-1.9,4.7-3.1,4.7-3.1C177.6,371.5,182.4,409.7,182.4,409.7z" class="st2"></path>
		<path d="M137.8,399.6c0,0.4-0.2,0.8-0.5,1.1c-1.3,1.6-5.5,2.8-10.4,2.8c-4.9,0-9-1.2-10.4-2.8
			c-0.3-0.4-0.5-0.7-0.5-1.1c0-2.2,4.9-3.9,10.8-3.9C132.9,395.6,137.8,397.4,137.8,399.6z" class="st11"></path>
		<path d="M137.3,400.7c-0.6,0.7-1.7,1.3-3.1,1.8c-1.4,0.4-3.1,0.8-5,0.9c-0.7,0.1-1.5,0.1-2.2,0.1
			c-4.9,0-9-1.2-10.4-2.8c1.2-1.7,5.4-2.9,10.4-2.9c0.3,0,0.6,0,0.9,0c1.7,0.1,3.4,0.3,4.8,0.6C134.9,398.9,136.6,399.7,137.3,400.7
			z" class="st4"></path>
		<path d="M157.4,393.9c0,0.1-0.1,0.3-0.2,0.4c-0.4,0.5-1.8,0.9-3.4,0.9c-1.5,0-2.9-0.4-3.3-0.9c0,0,0,0,0,0
			c-0.1-0.1-0.2-0.3-0.2-0.4c0-0.7,1.6-1.3,3.5-1.3C155.8,392.6,157.4,393.1,157.4,393.9z" class="st11"></path>
		<path d="M162.3,399c0,0.1-0.1,0.2-0.1,0.4c-0.4,0.5-1.8,0.9-3.4,0.9c-1.6,0-2.9-0.4-3.4-0.9
			c-0.1-0.1-0.1-0.2-0.1-0.4c0-0.7,1.6-1.3,3.5-1.3C160.7,397.8,162.3,398.3,162.3,399z" class="st11"></path>
		<path d="M162.1,399.4c-0.4,0.5-1.8,0.9-3.4,0.9c-1.6,0-2.9-0.4-3.4-0.9c0.4-0.5,1.8-0.9,3.4-0.9
			C160.4,398.5,161.7,398.9,162.1,399.4z" class="st4"></path>
		<path d="M157.2,394.3c-0.4,0.5-1.8,0.9-3.4,0.9c-1.5,0-2.9-0.4-3.3-0.9c0.5-0.5,1.8-0.9,3.3-0.9
			C155.4,393.4,156.8,393.7,157.2,394.3z" class="st4"></path>
		<path d="M145.7,373.6c0,0.4-0.2,0.8-0.7,1.2c0,0,0,0,0,0c-1.3,1.1-4.2,1.8-7.5,1.8c-2,0-3.9-0.3-5.3-0.7
			c2.5-1.6,4.7-3.1,6.6-4.3c0.4-0.3,0.8-0.5,1.2-0.8C143.3,371.1,145.7,372.2,145.7,373.6z" class="st11"></path>
		<path d="M178.8,396.4c-0.2-0.4-0.3-0.8-0.5-1.2c2-2.9,4.9-9-2-13.4c-6-3.8-13-0.4-18.6,5.4c-5.2,5.5-6.9,9.5-10,9.4
			c-5.1-0.2-9.7-7.2-13.6-6.4c-3.1,0.6-2.6,4.7-1.5,8.1c0.5,1.7,1.2,3.3,1.6,4.2c-1.4,0.4-3.1,0.8-5,0.9c-0.3-1-1-3.2-1.3-5.6
			c-0.6-4.2-0.1-9.3,5.1-10.3c12-2.4,11.9,11.6,18,3.8c6.1-7.8,15.6-17.3,25.9-11.3C187.1,386.1,181.7,393.5,178.8,396.4z" class="st6"></path>
		<path d="M145.1,374.4c0,0.1,0,0.2,0,0.3c0,0,0,0,0,0c-1.3,1.1-4.2,1.8-7.5,1.8c-2,0-3.9-0.3-5.3-0.7
			c2.5-1.6,4.7-3.1,6.6-4.3C142.4,371.8,145.1,373,145.1,374.4z" class="st4"></path>
		<path d="M113.1,415c-0.1,0.6-0.3,1.2-0.5,1.7c-0.4,0.9-1,1.7-1.9,2.2c-1.2,0.7-2.8,0.5-4.2,0.2
			c-0.8-0.2-1.6-0.5-2.4-1c-0.3-0.2-0.6-0.4-0.9-0.7c0,0-0.1-0.1-0.1-0.1c-2.7-2.6-0.7-6.9,2.9-7.3c2.3-0.3,5.6,1,6.7,3.3
			c0,0,0,0.1,0.1,0.1C113.1,413.8,113.2,414.4,113.1,415z" class="st2"></path>
		<path d="M113.1,415c-0.1,0.6-0.3,1.2-0.5,1.7c-0.4,0.9-1,1.7-1.9,2.2c-1.2,0.7-2.8,0.5-4.2,0.2
			c-0.8-0.2-1.6-0.5-2.4-1c-1-2.5,0.9-5.6,3.9-5.9c1.5-0.2,3.3,0.3,4.8,1.3C113.1,413.8,113.2,414.4,113.1,415z" class="st4"></path>
		<path d="M103.8,424.7c-0.1,0.4-0.4,0.9-0.7,1.1c-0.4,0.2-0.9,0.2-1.3,0.2c-0.8,0-1.7-0.1-2.5-0.5c0,0,0,0,0,0
			c-0.3-0.2-0.6-0.4-0.7-0.8c-0.1-0.2,0-0.4,0-0.7c0.6-2.6,4.7-3.1,5.2-0.8C104,423.7,104,424.1,103.8,424.7z" class="st2"></path>
		<path d="M103.8,424.7c-0.1,0.4-0.4,0.9-0.7,1.1c-0.4,0.2-0.9,0.2-1.3,0.2c-0.8,0-1.7-0.1-2.5-0.5c0,0,0,0,0,0
			c0-0.1,0-0.2,0.1-0.4c0.4-2.1,3.1-2.8,4.5-1.8C104,423.7,104,424.1,103.8,424.7z" class="st4"></path>
		<path d="M175.2,422.4c-0.1,0-0.1,0-0.1,0.1c-0.9,0.4-2,0.4-3,0.4c-0.9-0.1-1.9-0.2-2.7-0.6c-1.1-0.6-2-1.6-2.4-2.9
			c-0.4-1.4,0-2.6,0.8-3.6c0.4-0.5,0.9-1,1.5-1.3c2.4-1.4,5.1-2.5,7.3-0.1C178.9,416.8,178.5,421,175.2,422.4z" class="st2"></path>
		<path d="M175,422.5c-0.9,0.4-2,0.4-3,0.4c-0.9-0.1-1.9-0.2-2.7-0.6c-1.1-0.6-2-1.6-2.4-2.9c-0.4-1.4,0-2.6,0.8-3.6
			c2.3-1.3,4.7-2,6.7,0.2C176.2,417.8,176.4,420.6,175,422.5z" class="st4"></path>
		<path d="M163.6,429.6c-0.1,0-0.1,0.1-0.2,0.1c-1,0.5-2.1,0.6-3.1,0.4c-1-0.3-2-1-2.4-2c-0.3-0.7-0.3-1.3-0.1-1.9
			c0.5-1.7,2.7-2.8,4.5-2.1C164.5,424.9,165.9,428.3,163.6,429.6z" class="st2"></path>
		<path d="M163.6,429.6c-0.1,0-0.1,0.1-0.2,0.1c-1,0.5-2.1,0.6-3.1,0.4c-1-0.3-2-1-2.4-2c-0.3-0.7-0.3-1.3-0.1-1.9
			c0.9-0.7,2.3-1,3.4-0.6C162.8,426.2,163.9,428.1,163.6,429.6z" class="st4"></path>
		<path d="M136.4,421.5c-0.1,0.3-0.3,0.5-0.7,0.7c-0.5,0.3-1.2,0.4-1.8,0.2c-0.6-0.1-1.1-0.5-1.4-1.1c0,0,0,0,0,0
			c-0.6-1.5,1.2-2.8,2.5-2.3C136.1,419.3,136.8,420.6,136.4,421.5z" class="st2"></path>
		<path d="M136.4,421.5c-0.1,0.3-0.3,0.5-0.7,0.7c-0.5,0.3-1.2,0.4-1.8,0.2c-0.6-0.1-1.1-0.5-1.4-1.1c0,0,0,0,0,0
			c0.4-0.9,1.6-1.5,2.5-1.1C135.7,420.4,136.2,420.9,136.4,421.5z" class="st4"></path>
		<path d="M126.2,443.1c-1.2,0.6-2.5,0.8-3.8,0.5c-0.7-0.2-1.3-0.5-1.8-0.9c-0.5-0.4-0.9-0.9-1.1-1.5
			c-1.4-3.2,2.5-6,5.4-4.9c1.2,0.4,2.1,1.5,2.6,2.6C128.2,440.4,128,442.2,126.2,443.1z" class="st2"></path>
		<path d="M126.2,443.1c-1.2,0.6-2.5,0.8-3.8,0.5c-0.7-0.2-1.3-0.5-1.8-0.9c-1.1-3.1,2.6-5.7,5.5-4.7
			c0.5,0.2,1,0.5,1.4,0.9C128.2,440.4,128,442.2,126.2,443.1z" class="st4"></path>
		<path d="M134,449.9c-0.1,0.2-0.1,0.4-0.2,0.6c-2.8-0.3-5.5-0.6-8.2-0.9c0-0.1-0.1-0.2-0.1-0.4
			c-0.7-2.9,2.9-5.3,5.6-4.3C133,445.6,134.4,448,134,449.9z" class="st2"></path>
		<path d="M134,449.9c-0.1,0.2-0.1,0.4-0.2,0.6c-2.8-0.3-5.5-0.6-8.2-0.9c0-0.1-0.1-0.2-0.1-0.4
			c0.5-2.2,3.3-3.7,5.6-2.9C132.5,446.8,133.7,448.4,134,449.9z" class="st4"></path>
		<path d="M179.4,443.9c-0.1,0.1-0.3,0.2-0.4,0.2c-1.2,0.5-2.5,0.8-3.8,0.4c-1.3-0.3-2.4-1.2-2.9-2.4
			c-0.4-1-0.4-1.9,0-2.7c0.8-1.8,3.3-3,5.4-2.2C180.2,438.2,181.9,442.2,179.4,443.9z" class="st2"></path>
		<path d="M179.4,443.9c-0.1,0.1-0.3,0.2-0.4,0.2c-1.2,0.5-2.5,0.8-3.8,0.4c-1.3-0.3-2.4-1.2-2.9-2.4
			c-0.4-1-0.4-1.9,0-2.7c1.2-1,2.8-1.4,4.3-0.9C178.5,439.3,180,442,179.4,443.9z" class="st4"></path>
	</g>
	<path d="M392.4,155.8h-74c21.1,0,19.9-8.2,28-13.8c8.1-5.6,18.8,2.3,18.8,2.3s-0.3-16.5,14.2-16
		c2.3,0.1,4.2,0.5,5.9,1.3C389.5,138.5,391.7,147.3,392.4,155.8z" class="st8"></path>
</g>
</svg>
