<svg xml:space="preserve" style="enable-background:new 0 0 500 500;" viewBox="0 0 500 500" y="0px" x="0px"
     xmlns="http://www.w3.org/2000/svg" id="图层_1" version="1.0">
<style type="text/css">
	.st0{fill:#5DD4B4;}
	.st1{fill:#FFFFFF;}
	.st2{fill:#8EE4DB;}
	.st3{fill:#A0312F;}
	.st4{fill:#FC903E;}
	.st5{opacity:0.2;fill:#A0312F;}
	.st6{fill:#FCBB85;}
	.st7{opacity:0.48;fill:#DC4949;}
	.st8{opacity:0.48;fill:#A0312F;}
	.st9{opacity:0.21;fill:#A0312F;}
	.st10{fill:#DC4949;}
</style>
<g>
	<g>
		<path d="M434.3,334.5c-17.2,19.5-38,36.3-61.2,49.9c-6.9,4.1-14.1,7.9-21.5,11.4c-68.7,32.8-152.5,39.8-220.6,13.3
			c-31.9-12.4-64.2-35.4-82.9-65.6c-4.7-7.6-8.6-15.8-11.3-24.3c-14.3-44.1,9.4-87.4,49.3-107.7c13.4-6.8,27-13.1,39.7-21.1
			C187.7,151.6,241.1,93.8,314.7,77c53.5-12.2,109.2,4.9,142.1,49.8c6.1,8.3,11.2,17.4,15.2,26.9
			C498.4,216.4,477.6,285.2,434.3,334.5z" class="st0"></path>
		<path d="M373.1,384.4c-6.9,4.1-14.1,7.9-21.5,11.4H267c23.4,0,22.1-9.1,31-15.2c9-6.1,20.8,2.5,20.8,2.5
			s-0.3-18.2,15.8-17.7c15.8,0.5,15.9,17.8,15.9,18.4c0.1-0.4,1.2-6.6,9.6-7C366.1,376.3,369.7,380.3,373.1,384.4z" class="st1"></path>
	</g>
	<path d="M382.5,321.8c2.8,0,5.5,1.1,7.9,2.6c1.1,0.9,2.3,1.8,3.2,2.9c1,1.1,1.8,2.3,2.5,3.5l-3.7,1.3
		c-0.5-2.2-0.6-4.2-0.6-6.3c0-2.1,0.4-4.2,1.1-6.3c0.7-2,1.8-4,3.4-5.5c1.6-1.5,3.7-2.4,5.7-2.5c-1.7,1.2-3,2.5-3.9,4
		c-0.9,1.5-1.5,3.2-1.8,5c-0.3,1.7-0.4,3.6-0.4,5.4c0,1.8,0.2,3.7,0.4,5.4L398,343l-5.4-10.3c-0.6-1.1-1.1-2.2-1.8-3.2
		c-0.7-1-1.4-2-2.3-2.9c-0.8-0.9-1.8-1.8-2.7-2.6C384.8,323.2,383.7,322.4,382.5,321.8z" class="st2"></path>
	<path d="M407.1,319.6c1.8-0.3,3.8,0,5.5,0.9c0.9,0.4,1.7,1.1,2.3,1.9c0.7,0.8,1,1.8,1.3,2.8l-2,0.2
		c0-1.2,0.2-2.2,0.4-3.2c0.3-1,0.7-2.1,1.3-3c0.6-0.9,1.5-1.7,2.4-2.2c1-0.5,2.1-0.7,3.1-0.7c-0.9,0.5-1.8,0.9-2.5,1.5
		c-0.7,0.6-1.2,1.4-1.6,2.2c-0.4,0.8-0.7,1.7-0.8,2.6c-0.2,0.9-0.3,1.9-0.3,2.7l-0.2,8.2l-1.8-8c-0.3-1.5-1.1-2.8-2.4-3.9
		C410.5,320.8,408.9,320.1,407.1,319.6z" class="st2"></path>
	<path d="M63.2,255.3c1.8,0.2,3.6,1.1,5,2.5c0.7,0.7,1.3,1.6,1.6,2.5c0.4,1,0.4,2,0.4,3l-2-0.3c0.3-1.1,0.8-2,1.3-3
		c0.6-0.9,1.3-1.8,2.1-2.5c0.9-0.7,1.9-1.2,3-1.4c1.1-0.2,2.2-0.1,3.1,0.2c-1,0.2-2,0.3-2.8,0.8c-0.8,0.4-1.6,1-2.2,1.6
		c-0.6,0.7-1.1,1.4-1.6,2.2c-0.5,0.8-0.8,1.7-1.1,2.5l-2.6,7.8l0.6-8.2c0.1-1.6-0.3-3.1-1.2-4.4C66,257.5,64.7,256.3,63.2,255.3z" class="st2"></path>
	<g>
		<path d="M394,263.8c0,0-6.5,22.4-1.4,29c5.1,6.6,9.5,2,7.2-8.1C397.6,274.6,394,263.8,394,263.8z" class="st1"></path>
		<path d="M396.8,264.2c0,0,10.7,34.5,24.6,29.1C435.4,287.8,399.2,269.8,396.8,264.2z" class="st1"></path>
		<path d="M263.1,195.6c0,0-0.8-52.5,4.6-54.6c5.4-2.1,4.7,5.6,4.7,5.6s4-20.6,8.6-20.6c4.6,0,3.4,8.1,3.4,8.1
			s6.7-2.9,13.6,12.5C304.9,162,263.1,195.6,263.1,195.6z" class="st1"></path>
		<path d="M265.6,196.8c-0.3,0.3-4.8-4.2-5-4.5c-4.7-4.9-8.6-10.7-12.1-16.6c-2.8-4.9-5.1-9.9-7.4-15.1
			c-1.1-2.6-6.5-13.5-10.6-9.1c-1.1,1.2-0.8,3.2-0.5,4.6c0.6,3.4,2,7.2,3.9,10.2c0,0-19.9-30.7-24.8-28.7c-3.1,1.3,3.3,17,3.3,17
			s-9.3-4.3-10.9-1.5c-1.6,2.8,8.3,8.6,8.3,8.6s-9.1-2.4-9.7,1c-0.6,3.5,7.5,5.9,7.5,5.9s-11.5,11.7,12.9,29.7
			C244.9,216.4,265.6,196.8,265.6,196.8z" class="st1"></path>
		<path d="M170.9,405.6c1.6-1.2,2.9-2.2,3.8-3.4c0.5-0.6,0.8-1.3,1.1-2c0.3-0.8,0.5-1.6,0.8-2.6
			c0.6,0.8,0.9,1.8,0.8,2.9c0,1.1-0.4,2.1-1,3c-0.7,0.9-1.5,1.5-2.5,1.9C173,405.8,171.9,405.9,170.9,405.6z" class="st3"></path>
		<g>
			<g>
				<path d="M418.4,228.7c0,0,15-13.3,33.4-9.4c18.3,3.9,20,39.1,6.9,48c-13,8.9-24.1-5.8-24.7-13c0,0-7,28.3-38.7,20.3
					C363.5,266.5,418.4,228.7,418.4,228.7z" class="st4"></path>
				<path d="M418.4,228.7c0,0,15-13.3,33.4-9.4c18.3,3.9,20,39.1,6.9,48c-13,8.9-24.1-5.8-24.7-13c0,0-7,28.3-38.7,20.3
					C363.5,266.5,418.4,228.7,418.4,228.7z" class="st5"></path>
			</g>
			<path d="M441.6,266.8c1.2-1.5,2-3,2.8-4.6c0.7-1.6,1.4-3.3,1.9-5c0.6-1.7,0.9-3.4,1.3-5.2c0.2-0.9,0.4-1.8,0.6-2.7
				c0.2-0.9,0.3-1.8,0.6-2.7c0.2,0.9,0.3,1.9,0.4,2.8c0,0.9,0.1,1.9,0,2.8c-0.1,1.9-0.4,3.8-1,5.6c-0.6,1.8-1.4,3.6-2.5,5.2
				C444.8,264.6,443.4,266,441.6,266.8z" class="st3"></path>
			<path d="M458.7,267.3c0.7-3.5,1.5-6.7,2.1-10c0.3-1.6,0.5-3.3,0.7-4.9c0.1-1.7,0.2-3.3,0.1-5.1
				c0.9,1.5,1.4,3.3,1.5,5.1c0.2,1.8,0,3.6-0.3,5.3c-0.3,1.7-0.8,3.5-1.5,5.1C460.7,264.4,459.8,265.9,458.7,267.3z" class="st3"></path>
		</g>
		<g>
			<path d="M90.8,281.4c0,0-11.8,46.7,42.5,74.9c0,0-8.4,8.8,2.5,16.4c10.9,7.6,25.7,20.2,32,28.6
				c6.3,8.4,6.7,11.8,12.6,10.5c5.9-1.3,4.2-17.7-14.3-31.1c0,0,61.3,26.1,86.6-16C278,322.6,90.8,281.4,90.8,281.4z" class="st4"></path>
			<path d="M90.8,281.4c0,0-11.8,46.7,42.5,74.9c0,0-8.4,8.8,2.5,16.4c10.9,7.6,25.7,20.2,32,28.6
				c6.3,8.4,6.7,11.8,12.6,10.5c5.9-1.3,4.2-17.7-14.3-31.1c0,0,61.3,26.1,86.6-16C278,322.6,90.8,281.4,90.8,281.4z" class="st5"></path>
		</g>
		<path d="M433.3,183.2c0,0.1,0,0.1,0,0.2c0,1.7-0.2,3.4-0.4,5.1c-0.1,0.7-0.2,1.5-0.3,2.2c-0.7,4.6-1.8,9.1-3.1,13.2
			c-2.6,9.5-6.4,18.2-10.8,27.4c-6.8,14.2-14.9,27.9-23.6,40.9c-23.7,35.2-56.8,75.2-98.6,88.7c-16.4,5.3-34.3,9.6-51.6,9.8
			c-21.5,0.2-42.5-5.8-62.6-13c-53.6-19.2-47.7-56.6-47.7-56.6s-0.6,0.4-4.7,0.2c-2.7-0.1-6.9-0.5-13.5-1.4
			c-28.3-9.3-33.9-24.9-23.3-49.4c6.2-14.5,22-29.4,40.5-40.6c5.2-3.1,10.6-6,16.1-8.4c7.6-3.4,15.2-6,22.6-7.6
			c0.6-0.1,1.1-0.2,1.6-0.3c6.1-1.2,13-1.8,20.3-2.1c5.9-0.3,12.1-0.3,18.2-0.1c4.7,0.1,9.4,0.4,13.9,0.6c5.7,0.3,11.1,0.8,15.9,1.3
			c5,0.5,9.4,1,12.8,1.4c5.1,0.6,8.1,1.1,8.1,1.1c1,0.2,7-13.5,7.7-14.9c0.2-0.3,0.3-0.7,0.5-1c0,0,0,0,0-0.1
			c1.9-4.1,3.7-8.2,5.4-12.3c0.1-0.3,0.3-0.6,0.4-0.9c1.3-3,2.5-6,3.9-9c1.5-3.3,3-6.5,4.6-9.7v0c1.3-2.6,2.7-5.1,4.2-7.6
			c0.5-0.9,1.1-1.7,1.6-2.6c1-1.6,2.1-3.2,3.2-4.7c2.5-3.5,5-7.1,6.9-11c3.7-7.2,6.6-16.7,11.1-16.4c4.1,0.3,12.1,10.1,12.9,20.3
			c1.8-0.2,3.6-0.5,5.5-0.7c0.5,0,0.9-0.1,1.4-0.1c0.3-0.1,0.7-0.1,1.1-0.1c2.8-0.2,5.7-0.4,8.7-0.5c0.7,0,1.4-0.1,2.1-0.1
			c0.6,0,1.3,0,1.9,0c0.8,0,1.5,0,2.3,0h0.6c5.8,0,11.9,0.2,18.4,0.7c0.3,0,0.7,0.1,1,0.1c0.7,0.1,1.3,0.1,2,0.2
			c0.3,0,0.6,0,0.9,0.1c0.2,0,0.5,0.1,0.7,0.1c0.9,0.1,1.8,0.2,2.6,0.3c2,0.2,3.9,0.5,5.7,0.8c0.3,0.1,0.7,0.1,1,0.2l0.3-0.2
			c1.4-1.1,3.2-2.7,3.4-2.9c2.8-2.5,4.7-6,7.2-8.7c3.7-4,8.9-6.6,14.4-4.7c0.3,0.1,0.7,0.3,0.9,0.6c0.7,0.7,1.3,1.8,1.6,3.3
			c1.2,5.4,0,14.8-2.7,20.3c0,0.1-0.1,0.2-0.2,0.3c10.2,5.4,16.6,12.5,20.6,20.4c0.3,0.5,0.5,1.1,0.8,1.6c1,2.2,1.9,4.5,2.6,6.8
			c0,0.1,0.1,0.2,0.1,0.3c0.3,1.2,0.6,2.4,0.9,3.5c0.1,0.6,0.2,1.1,0.3,1.6c0.5,2.8,0.9,5.5,1.2,8.3c0,0.3,0,0.6,0.1,0.9
			c0,0.3,0,0.6,0,0.9C433.3,180.4,433.3,181.8,433.3,183.2z" class="st4"></path>
		<path d="M418.7,231.2c-6.8,14.2-14.9,27.9-23.6,40.9c-23.7,35.2-56.8,75.2-98.6,88.7c-16.4,5.3-34.3,9.6-51.6,9.8
			c-21.5,0.2-42.5-5.8-62.6-13c-52.5-18.8-47.9-55.1-47.7-56.5c6.5-0.7,13.7-2.8,21.2-7c0,0-3.2,13.8,9.2,14.6c0.6,0,1.2,0,1.9,0
			c14.7-0.5,36.6-18.7,61.1-16.7c15,1.2,23-0.5,27-3.2c2.5-1.7,3.6-3.8,3.8-5.9c0,0,0-0.1,0-0.1c29.7,0,57.3-4.2,71.5-20.2
			C353.9,236.2,391.4,212.2,418.7,231.2z" class="st6"></path>
		<path d="M305.5,132.7c4.2-2.8,9-4.6,12.8-5.6c4.1-1.1,7.1-1.4,7.2-1.4c-0.7-10.2-8.8-20-12.8-20.3l0,0
			c-0.9,2.2-1.9,4.9-1,11c0.1,0.6,0.1,1.2,0.2,1.8C312.3,126.6,306.5,132,305.5,132.7z" class="st3"></path>
		<path d="M391.8,128.5c0,0,6.1,2.1,11,4c1.5,0.6,2.9,1.1,4,1.6c2.7-5.5,3.9-14.9,2.6-20.3c-0.3-1.5-0.9-2.7-1.6-3.4
			c0,0-2.2,0.7-4.3,5.6c-0.8,1.8-1.5,3.5-2.2,5C399.5,124.6,397.1,127.4,391.8,128.5z" class="st3"></path>
		<path d="M337.5,175.7c4,2.2,5.3,7.7,1.6,11.1c-5.1,4.6-15.7,5.5-21.3,1.4c-4.7-3.4-3.2-11.2,1.2-13.2
			c3.7-1.7,7.8-1.9,11.8-1.3C332.5,174.1,335.2,174.5,337.5,175.7z" class="st7"></path>
		<path d="M398.7,177.5c-3,2.9-3.1,8.6,0.6,11.5c5,3.8,14,3,18-2c3.4-4.2,0.8-11.8-3.2-13.1c-3.4-1.1-6.9-0.7-10,0.6
			C402.5,175,400.3,175.9,398.7,177.5z" class="st7"></path>
		<path d="M348.6,124c0.8,1.5,1.6,3,2.3,4.4c1.4,2.7,2.6,5.5,3.8,8.3c0.9,2.1,2.5,4.3,4.9,4.7c3,0.6,5.8-1.2,7.5-3.6
			c2.1-3,2.4-6.6,2-10.2c-0.1-1-0.2-1.9-0.4-2.8c-0.4,0-0.7-0.1-1.1-0.1c-6.5-0.5-12.6-0.7-18.4-0.7C349,124,348.8,124,348.6,124z" class="st3"></path>
		<path d="M423.5,180.5c3.2,0.7,6.6-0.2,9.7-1.6c0-0.3,0-0.6-0.1-0.9c0-0.3,0-0.6-0.1-0.9c-0.2-2.8-0.6-5.5-1.1-8.3
			C425.4,174,417.5,179.2,423.5,180.5z" class="st3"></path>
		<path d="M424.2,189c2.1,1.4,5.3,1.7,8.4,1.7c0.1-0.7,0.2-1.4,0.3-2.2c0.2-1.6,0.3-3.3,0.4-5.1c0-0.1,0-0.1,0-0.2
			C426.8,184.6,420.6,186.5,424.2,189z" class="st3"></path>
		<path d="M425.1,166c1.8-0.2,3.7-1.1,5.6-2.4c0-0.1-0.1-0.2-0.1-0.3c-0.7-2.3-1.5-4.6-2.5-6.8
			C424.1,161.3,420.9,166.3,425.1,166z" class="st3"></path>
		<path d="M331,125c2.3,3.1,4.6,6.3,6.5,6.8c4.7,1.3,7-2.9,4.8-7.7c-3,0.1-5.9,0.3-8.7,0.6c-0.4,0-0.7,0.1-1.1,0.1
			C331.9,124.9,331.5,124.9,331,125z" class="st3"></path>
		<path d="M370.7,125c1.3,2.1,2.6,3.9,4,4.4c3.7,1.4,6.7-1,5.9-3.2c-1.8-0.3-3.7-0.6-5.7-0.8c-0.9-0.1-1.7-0.2-2.6-0.3
			c-0.2,0-0.5,0-0.8-0.1C371.2,125.1,370.9,125.1,370.7,125z" class="st3"></path>
		<path d="M429.3,202.5c-1.4,1-2.8,2-4.3,2.9c-0.7,0.5-1.4,0.9-2.2,1.3c-0.7,0.4-1.5,0.8-2.3,0.9l-0.2,0l-0.1,0.2
			c-0.3,0.7-0.6,1.3-1,1.9c-0.4,0.6-0.9,1.1-1.3,1c-0.2,0-0.2-0.1-0.3-0.4c0-0.3,0-0.6,0.1-1c0.1-0.7,0.4-1.4,0.7-2l0.9-2l-1.7,1.3
			c-0.6,0.5-1.3,1-1.9,1.4c-0.7,0.4-1.4,0.8-2.1,1c-0.3,0.1-0.7,0.1-0.9,0.1c-0.3-0.1-0.5-0.2-0.4-0.4c0-0.5,0.5-1.3,1-1.8l0.8-0.8
			l-1.1,0.2c-1.3,0.2-2.7,0.3-4.1,0.4c-1.4,0.1-2.7,0-4.1-0.1c1.3,0.4,2.7,0.5,4.1,0.6c1.4,0.1,2.8,0,4.2-0.1l-0.3-0.6
			c-0.3,0.3-0.6,0.6-0.9,1c-0.2,0.4-0.5,0.8-0.5,1.4c0,0.3,0.1,0.6,0.3,0.9c0.1,0.1,0.2,0.2,0.3,0.3c0.1,0.1,0.2,0.1,0.4,0.2
			c0.5,0.2,1,0.1,1.5,0c0.9-0.2,1.6-0.6,2.4-1.1c0.7-0.4,1.4-0.9,2.1-1.5l-0.8-0.6c-0.3,0.7-0.6,1.5-0.8,2.3
			c-0.1,0.4-0.1,0.8-0.1,1.3c0,0.1,0.1,0.3,0.1,0.4c0.1,0.1,0.1,0.3,0.2,0.4c0.2,0.3,0.5,0.4,0.8,0.4c0.6,0.1,1.1-0.2,1.4-0.5
			c0.3-0.3,0.6-0.6,0.8-1c0.4-0.7,0.8-1.4,1-2.2l-0.3,0.3c0.9-0.3,1.7-0.7,2.4-1.2c0.7-0.5,1.4-1,2.1-1.5
			C426.7,204.7,428.1,203.6,429.3,202.5z" class="st8"></path>
		<g>
			<g>
				<path d="M390.9,166.8c3.4,4.9,10.2,6.1,15.7,5.3c0.8-0.1,1.5-0.3,2.2-0.6c8.6-3,12.5-15.6,8.3-23.6
					c-0.4-0.8-0.9-1.6-1.5-2.3c-5.3-6.3-17.3-7.6-23.6-2c-1.5,1.4-2.4,3.3-2.9,5.2c-0.4,1.3-0.7,2.7-0.8,4.3
					C387.7,157.8,388.4,163.1,390.9,166.8z" class="st1"></path>
				<path d="M388.5,161c-0.5-2.1-0.6-4.2-0.6-6.3c0.1-2.1,0.3-4.2,0.9-6.3c0.6-2,1.5-4.2,3.3-5.6
					c3.4-2.9,8-3.9,12.4-3.5c4.4,0.4,8.8,2.1,11.9,5.6c0.7,0.9,1.4,1.8,1.9,2.9c0.2,0.5,0.5,1,0.7,1.6l0.5,1.6
					c0.5,2.2,0.6,4.4,0.3,6.6c-0.6,4.3-2.5,8.6-5.8,11.5c-1.6,1.5-3.6,2.5-5.7,3.1c-1.1,0.3-2.1,0.4-3.2,0.4c-1.1,0-2.1,0-3.2-0.1
					c-2.1-0.2-4.2-0.7-6.1-1.6c-1.9-0.9-3.6-2.3-4.8-4C389.7,165,389,163,388.5,161z M395.8,170.7c1.9,0.9,4,1.3,6.1,1.4
					c1,0.1,2.1,0,3.1-0.1c1-0.1,2.1-0.3,3-0.6c1.9-0.7,3.7-1.8,5.1-3.2c2.8-2.9,4.3-6.9,4.6-10.9c0.2-2,0-4-0.5-5.9l-0.4-1.4
					c-0.2-0.5-0.4-0.9-0.6-1.3c-0.4-0.9-0.9-1.7-1.6-2.4c-2.5-2.9-6.4-4.6-10.4-5.1c-3.9-0.5-8.2,0.1-11.5,2.5
					c-1.7,1.1-2.6,3-3.3,4.9c-0.7,2-1.1,4-1.2,6.1c-0.3,4.1,0.3,8.5,2.7,12.1C392.2,168.5,393.9,169.8,395.8,170.7z" class="st3"></path>
			</g>
			<path d="M410.7,163.9c-0.3,0.3-3.1,4.9-10.8,3.6c-7.7-1.3-8.2-10.9-7.5-14.1c0.7-3.3,3.7-10.2,12.4-9
				C413.6,145.5,416.2,157.9,410.7,163.9z" class="st3"></path>
			<path d="M388.2,153.1c9.2-7.1,22.1-6.2,28.9-5.2c-0.4-0.8-0.9-1.6-1.5-2.3c-5.3-6.3-17.3-7.6-23.6-2
				c-1.5,1.4-2.4,3.3-2.9,5.2C388.7,150.2,388.4,151.6,388.2,153.1z" class="st9"></path>
		</g>
		<g>
			<path d="M430.5,188.8c-2.9-1.5-5.9-2.8-9-3.9c-3.1-1.1-6.2-2.2-9.4-2.9c2.9,1.5,5.9,2.8,9,3.9
				C424.2,187,427.3,188.1,430.5,188.8z" class="st3"></path>
			<path d="M433.2,181.1c-3.1-0.8-6.2-1.2-9.3-1.6c-3.1-0.3-6.3-0.6-9.5-0.6c3.1,0.8,6.2,1.2,9.3,1.6
				C426.8,180.9,430,181.2,433.2,181.1z" class="st3"></path>
			<path d="M432,171.1c-3.1,0.7-6.1,1.6-9.1,2.7c-3,1.1-5.9,2.2-8.7,3.6c3.1-0.7,6.1-1.6,9.1-2.7
				C426.3,173.7,429.2,172.5,432,171.1z" class="st3"></path>
		</g>
		<path d="M315.9,124c0,0,2.3,0.2,2.9-0.3c0.7-0.4-2.8-1-2.8-1c1.8-0.5,3.5-2.3,2.9-2.5c-0.6-0.1-2.8,1.1-2.8,1.1
			c2.5-2.8,1.7-7.6-0.7-7.7c-1,0-2.4,2.1-3.6,4.4c0.5,8.5-5.3,13.9-6.3,14.5c4.2-2.8,9-4.6,12.8-5.6
			C317.9,125.3,315.9,124,315.9,124z" class="st1"></path>
		<path d="M402.8,132.4c-0.1-1.9-1.7-4.8-1.8-5c0.1,0.1,1.6,1,2.5,0.7c0.8-0.3-1.7-1.8-1.7-1.8s2,0.4,2.3-0.1
			c0.3-0.6-1.9-0.7-1.9-0.7c1.6-0.7,4.8-4.3,3.1-5.6c-1.1-0.8-2.9,0.2-4,1c-1.9,3.7-4.2,6.5-9.5,7.6
			C391.8,128.5,397.9,130.6,402.8,132.4z" class="st1"></path>
		<g>
			<path d="M315.5,178.2c-3.3-0.1-6.5,0-9.8,0.3c-3.3,0.3-6.5,0.7-9.7,1.3c3.3,0.1,6.5,0,9.8-0.3
				C309,179.2,312.2,178.9,315.5,178.2z" class="st3"></path>
			<path d="M295.5,171.7c3,0.9,6.1,1.5,9.3,2c3.1,0.5,6.2,0.9,9.4,1c-3-0.9-6.1-1.5-9.3-2
				C301.8,172.2,298.7,171.8,295.5,171.7z" class="st3"></path>
			<path d="M299.3,162.3c2.3,2.2,4.9,4,7.4,5.9c2.6,1.8,5.2,3.5,8,5c-2.3-2.2-4.9-4-7.4-5.9
				C304.7,165.5,302.1,163.8,299.3,162.3z" class="st3"></path>
		</g>
		<path d="M158.3,232.8c3.8-1.5,7.6-2.8,11.5-4.2c1.9-0.8,3.9-1.3,5.9-1.8l5.9-1.6l3-0.8l3-0.6l6.1-1.1
			c2-0.4,4.1-0.5,6.1-0.7c2.1-0.1,4.1-0.4,6.2-0.4c8.2-0.1,16.6,1.1,24.2,4.6c3.8,1.7,7.2,4.3,10,7.4c2.8,3.1,4.9,6.8,5.9,10.9
			l-0.2-0.3c0.9,0.7,1.7,1.3,2.5,2.1c0.8,0.7,1.6,1.5,2.2,2.4c0.1,0.2,0.3,0.5,0.4,0.8c0.1,0.1,0,0.4-0.1,0.6
			c-0.1,0.1-0.3,0.3-0.4,0.3c-0.6,0.2-1.1,0.2-1.7,0.1c-1.1-0.2-2.1-0.6-3-1.2c1,0.4,2,0.8,3,0.9c0.5,0,1,0,1.5-0.2
			c0.5-0.1,0.1-0.6-0.2-1c-1.3-1.5-3.2-2.8-4.9-3.9l-0.1-0.1l-0.1-0.2c-1.1-3.7-3.3-7.3-6.1-10.1c-2.8-2.8-6.1-5.1-9.7-6.7
			c-7.2-3.3-15.4-4.2-23.4-4.3c-2,0-4,0.2-6,0.3c-2,0.1-4,0.2-6,0.6l-6,0.9l-3,0.4l-3,0.7l-5.9,1.3c-2,0.4-4,0.9-5.9,1.5
			C166.1,230.6,162.2,231.8,158.3,232.8z" class="st8"></path>
		<path d="M245.7,249.2L245.7,249.2L245.7,249.2c0.4,1,0.8,1.9,1.1,2.9c0.3,1,0.6,2,0.8,3.1c0.1,0.5,0.1,1.1,0.1,1.7
			c0,0.2-0.1,0.3-0.1,0.5c-0.1,0.2-0.2,0.4-0.5,0.6c-0.7,0.4-0.8,0.3-1.2,0.3c-1.4-0.1-2.4-1-3.1-2l1.6-0.2c-0.8,2.7-2.2,5.1-4,7.1
			c-1.7,2.1-3.8,3.9-5.9,5.4c-4.3,3.2-9,5.6-14,7.2c2.2-1.4,4.4-2.8,6.6-4.2c2.1-1.5,4.2-3,6.2-4.6c2-1.6,3.9-3.3,5.5-5.2
			c1.6-1.9,3-4,3.9-6.3l0.7-1.9l1,1.7c0.4,0.7,1.1,1.4,1.7,1.4c0.1,0.1,0.5,0,0.3,0.1c0,0.1,0,0,0,0c0,0,0-0.1,0.1-0.2
			c0.1-0.4,0.1-0.9,0.1-1.3C246.5,253.3,246.1,251.3,245.7,249.2L245.7,249.2L245.7,249.2z" class="st8"></path>
		<path d="M255,288.7c-4,2.7-12,4.4-27,3.2c-0.6,0-1.2-0.1-1.7-0.1c-18.7-0.8-35.9,9.7-49.4,14.5c-3.6,1.3-7,2.2-10,2.3
			c-0.7,0-1.3,0-1.9,0c-1-2.8-0.7-7.4,6.9-12.9C184.4,286.8,234.8,272.6,255,288.7z" class="st5"></path>
		<path d="M241.9,274.4c0.9,0.2,1.7,0.8,2.2,1.5c0.6,0.7,1,1.6,1.2,2.5c0.4,1.8-0.2,3.8-1.6,4.9
			c-0.1-0.9-0.1-1.7-0.2-2.4c-0.1-0.7-0.2-1.4-0.3-2.1C243,277.4,242.5,276.1,241.9,274.4z" class="st3"></path>
		<path d="M226.3,291.8c-18.7-0.8-35.9,9.7-49.4,14.5c-0.6-1.3-0.2-2.9,0.6-4.4c2.3-3.9,6.8-6.1,10.9-7.6
			c5.4-2,11.2-3.5,16.9-4.5C211.2,288.8,221.7,286.7,226.3,291.8z" class="st6"></path>
		<path d="M236.2,286c-0.9,0.2-2,0.6-2.3,1.5c-0.1,0.2-0.1,0.5,0,0.7c0.1,0.3,0.5,0.5,0.9,0.6c1.7,0.6,3.5,0.7,5.3,0.5
			c0.9-0.2,2-0.5,2.3-1.4C243.5,284.3,237.7,285.6,236.2,286z" class="st6"></path>
		<path d="M96.6,289.3c2.6,2.2,5.5,3.9,8.5,5.5c3,1.5,6.1,2.8,9.3,3.8c3.2,0.9,6.5,1.6,9.8,1.9c3.3,0.3,6.7,0.2,10-0.1
			l-0.2,0.1c0.1,0,0.2-0.1,0.3-0.1c0.1,0,0.1,0,0.1,0c0,0,0,0,0,0l0.1,0c7.4-0.9,14.4-3.5,20.9-7.2l1.7-1l-0.3,1.9
			c-0.4,2.3-0.5,4.8,0.1,7.1c0.2,1.1,0.8,2.2,1.4,3.1c0.7,0.9,1.5,1.7,2.5,2.1c2,1,4.4,1.3,6.8,1.1c1.2-0.1,2.4-0.2,3.6-0.6
			c1.2-0.2,2.4-0.6,3.6-1c4.7-1.5,9.3-3.6,13.9-5.6c4.6-2,9.3-4,14.1-5.6c4.8-1.6,9.8-3,14.9-3.5c5.1-0.7,10.3-0.3,15.2,0
			c5,0.2,10,0.2,14.8-0.6c2.4-0.5,4.8-1.1,6.8-2.4c2-1.2,3.5-3.2,3.8-5.5l0,0.1c0-0.1,0-0.2,0-0.2c0,0.1,0,0.3,0.1,0.4l-0.1-0.4
			c0.1-1.3-1.2-2.5-2.5-3.4c-1.4-0.9-3-1.6-4.6-2.1c-3.2-1.1-6.6-1.7-10-2.1c-6.8-0.7-13.8-0.3-20.6,0.8l0,0l-0.1,0l0.1,0l0,0
			c6.7-1.5,13.7-2.1,20.6-1.6c3.5,0.3,6.9,0.8,10.3,1.8c1.7,0.5,3.3,1.2,4.9,2.1c0.8,0.5,1.5,1,2.1,1.7c0.6,0.7,1.2,1.7,1.1,2.8
			l-0.1-0.4c0.1,0.1,0.1,0.4,0.1,0.5c0,0.1,0,0,0-0.1l0,0.1c-0.3,2.7-2.1,5.2-4.3,6.6c-2.2,1.5-4.8,2.2-7.3,2.8
			c-5.1,1.1-10.2,1.1-15.3,0.9c-5.1-0.3-10-0.6-14.9,0.1c-4.9,0.6-9.7,1.9-14.4,3.6c-4.7,1.6-9.3,3.6-13.9,5.6
			c-4.6,2-9.2,4.1-14.1,5.6c-1.2,0.4-2.5,0.8-3.7,1c-1.3,0.3-2.6,0.5-3.9,0.6c-2.6,0.2-5.4-0.1-7.9-1.4c-1.3-0.6-2.3-1.6-3.2-2.7
			c-0.8-1.2-1.4-2.4-1.7-3.7c-0.7-2.6-0.6-5.3,0-7.9l1.3,1c-6.7,3.6-14,6.2-21.6,6.9l0.1,0c-0.1,0-0.2,0-0.3,0c0,0-0.1,0,0,0
			c0.1,0,0.1,0,0.2-0.1l-0.2,0.1c-3.4,0.3-6.8,0.2-10.2-0.1c-3.4-0.4-6.7-1.2-10-2.2C107.8,297.2,101.7,293.9,96.6,289.3z" class="st8"></path>
		<g>
			<g>
				<path d="M93.5,312.8c-16.4,6.7-35.3,10.7-52.8,5.7c-16.2-4.7-27.2-18.1-30.8-34.4c-0.1-0.6-0.2-1.2-0.4-1.7
					C8.1,274.9,8,266.8,9.2,259h0c0.8-5.3,2.2-10.5,4.3-15.2c5.7-12.7,13.6-23.4,15.8-36.7c0.5-3,0.7-6.1,0.6-9.5
					c-0.4-8.7-3.5-24,6.8-28.4c5.5-2.4,12.6,1.1,15.5,6c0.9,1.6,1.6,3.3,2,5c0.9,3.7,0.8,7.8,0.5,11.5c-1,10.9-4.5,22.9-10.5,32.2
					c-0.4,0.6-0.7,1.2-1.1,1.8c-3.1,4.8-6.4,10.2-9.2,15.9c-7.6,15.1-11.8,32.3,1.3,46.8c1.8,2,3.9,3.9,6.4,5.8c2.7,2,5.4,3.6,8,4.8
					c24.7,11.3,45.3-11.4,45.3-11.4C110.4,311.2,93.5,312.8,93.5,312.8z" class="st4"></path>
				<path d="M93.5,312.8c-16.4,6.7-35.3,10.7-52.8,5.7c-16.2-4.7-27.2-18.1-30.8-34.4c-0.1-0.6-0.2-1.2-0.4-1.7
					C8.1,274.9,8,266.8,9.2,259h0c0.8-5.3,2.2-10.5,4.3-15.2c5.7-12.7,13.6-23.4,15.8-36.7c0.5-3,0.7-6.1,0.6-9.5
					c-0.4-8.7-3.5-24,6.8-28.4c5.5-2.4,12.6,1.1,15.5,6c0.9,1.6,1.6,3.3,2,5c0.9,3.7,0.8,7.8,0.5,11.5c-1,10.9-4.5,22.9-10.5,32.2
					c-0.4,0.6-0.7,1.2-1.1,1.8c-3.1,4.8-6.4,10.2-9.2,15.9c-7.6,15.1-11.8,32.3,1.3,46.8c1.8,2,3.9,3.9,6.4,5.8c2.7,2,5.4,3.6,8,4.8
					c24.7,11.3,45.3-11.4,45.3-11.4C110.4,311.2,93.5,312.8,93.5,312.8z" class="st5"></path>
			</g>
			<path d="M54.2,180.4c-2.6,3.7-8.4,5.8-8.4,5.8c-0.2,13.9-10.2,19.1-16.4,21c0.5-3,0.7-6.1,0.6-9.5
				c-0.4-8.7-3.5-24,6.8-28.4c5.5-2.4,12.6,1.1,15.5,6C53.1,176.9,53.8,178.6,54.2,180.4z" class="st3"></path>
			<path d="M43.1,225.9c-3.1,4.8-6.4,10.2-9.2,15.9c-2.1-3.7-4.3-8.9-1.4-11.8C35,227.4,39.6,226.3,43.1,225.9z" class="st3"></path>
			<path d="M9.5,282.4C8.1,274.9,8,266.8,9.2,259h0c2.7,1.9,5.7,4.5,7.3,7C19.1,270,12.3,279,9.5,282.4z" class="st3"></path>
			<path d="M49.6,299.1c-1.8,2.1-4.6,4.1-8.1,3.1c-5.7-1.6-6.3-10.7-6.3-13.7c1.8,2,3.9,3.9,6.4,5.8
				C44.3,296.3,47,297.9,49.6,299.1z" class="st3"></path>
		</g>
		<path d="M255,330.5c2.4-0.1,4.8-0.4,7.1-0.9c2.3-0.5,4.6-1.2,6.7-2.1l1.8-0.7l-0.7,1.9c-0.4,1.1-0.6,2.6-0.2,3.1
			c0.1,0.1,0.2,0.2,0.4,0.3c0.1,0,0.2,0.1,0.3,0.1c0.1,0,0.2,0,0.2,0c0.4-0.1,0.9-0.4,1.3-0.7c1.9-1.7,3.4-4.1,4.7-6.5l2.5-4.4
			l-0.5,5c-0.1,1-0.1,2.2,0.1,3.2c0.2,1,0.7,1.7,1.2,1.7c0.3,0.1,1.1-0.9,1.5-1.8c0.4-1,0.7-2.1,1-3.2l0.1-0.7l0.6,0
			c0.9,0,1.9-0.1,2.8-0.2c1-0.2,1.9-0.4,2.9-0.7c1.9-0.6,3.7-1.5,5.5-2.5c-0.8,0.6-1.6,1.3-2.4,1.8c-0.9,0.6-1.8,1-2.7,1.5
			c-0.9,0.4-1.9,0.8-2.9,1.1c-1,0.3-2,0.5-3.2,0.5l0.8-0.6c-0.1,1.3-0.4,2.4-0.8,3.7c-0.2,0.6-0.5,1.2-0.9,1.8
			c-0.4,0.6-1.1,1.3-2.2,1.3c-1,0-1.8-0.5-2.3-1.1c-0.5-0.7-0.8-1.3-0.9-2c-0.3-1.4-0.3-2.6-0.2-3.9l2,0.6c-0.7,1.3-1.4,2.5-2.3,3.7
			c-0.9,1.2-1.8,2.3-3,3.4c-0.6,0.5-1.4,1-2.4,1.1c-0.3,0-0.6,0-0.8,0c-0.2,0-0.5-0.1-0.7-0.2c-0.5-0.2-0.9-0.5-1.2-1
			c-0.6-0.9-0.6-1.9-0.5-2.7c0.1-0.8,0.4-1.5,0.7-2.3l1,1.1c-2.3,0.7-4.7,1.3-7.1,1.6C259.9,330.8,257.4,330.9,255,330.5z" class="st8"></path>
		<path d="M195.2,208c-1.4,1.9-3.9,2.7-6.3,2.5c-4.2-0.2-8-2.8-10.6-6.1c-2-2.5-3.5-5.3-4.7-8.2
			c-0.3-0.7-0.8-1.6-1.2-2.4c0.6-0.1,1.1-0.2,1.6-0.3c6.1-1.2,13-1.8,20.3-2.1c0.9,3.5,1.7,7.1,2,10.7
			C196.4,204.1,196.3,206.3,195.2,208z" class="st3"></path>
		<path d="M226.3,191.9c0,0.5,0,1-0.1,1.5c-0.2,2.5-0.1,6.9-2.6,8.4c-0.7,0.5-1.5,0.7-2.2,0.7c-2.7,0-5.4-2.4-6.7-4.4
			c-1.3-2-2-4.4-2.3-6.7C217.1,191.4,221.8,191.6,226.3,191.9z" class="st3"></path>
		<path d="M255,194.5c-0.2,4-0.9,7.9-2.1,11.8c-0.7,2-1.8,4.3-4.3,4.7c-2.2,0.4-4.3-1-5.2-2.7c-0.9-1.7-0.8-3.6-0.7-5.4
			c0.1-3.2-0.3-6.5-0.5-9.8C247.2,193.6,251.6,194.1,255,194.5z" class="st3"></path>
		<path d="M287.5,179c0,1.5-1.1,3-2.5,3.7c-1.4,0.7-3.1,0.7-4.6,0.6c-3.3-0.4-6.3-1.8-9.2-3.5c0,0,0,0,0-0.1
			c1.9-4.1,3.7-8.2,5.4-12.3c2.8,2.3,5.5,4.8,8.1,7.3C286.1,175.8,287.5,177.2,287.5,179z" class="st3"></path>
		<path d="M298,158.3c-0.3,1.6-2.2,2.2-3.8,2.3c-3.7,0.3-9-0.9-13.2-3.2c1.5-3.3,3-6.5,4.6-9.7c1,0.6,2,1.2,2.9,1.8
			c2.4,1.6,4.7,3.3,7.1,5C296.9,155.4,298.3,156.7,298,158.3z" class="st3"></path>
		<path d="M300.9,137.2c0.2,1.1-0.6,2.2-1.6,2.7c-1,0.5-2.2,0.5-3.3,0.5c-1.6,0-4,0.1-6.1-0.4c0.5-0.9,1.1-1.7,1.6-2.6
			c1-1.6,2.1-3.2,3.2-4.7c1.5,0.5,2.9,1.2,4.2,2.1C299.8,135.4,300.8,136.2,300.9,137.2z" class="st3"></path>
		<path d="M154.9,217.6c-1,2.1-3.7,2.8-6,2.2c-3-0.8-10.5-5.8-15.3-10.1c5.2-3.1,10.6-6,16.1-8.4
			c2.7,3.9,4.6,8.9,5.3,11.4C155.3,214.4,155.6,216.1,154.9,217.6z" class="st3"></path>
		<g>
			<path d="M396.2,176.4c0,0.3-0.2,0.7-0.5,1.1c-3.4,3.8-23.4,8.8-35.9,6.8c-0.5-0.1-5.2-23.2,13.6-26.8
				c0,0,21.9,14.9,22.9,18.7C396.2,176.3,396.2,176.3,396.2,176.4z" class="st10"></path>
			<path d="M371.1,163.8c1-0.3,1.5-0.1,1.9,0.2c0.4,0.4,0.7,0.9,0.5,1.9c-1,0.3-1.5,0.1-1.9-0.2
				C371.2,165.3,370.9,164.8,371.1,163.8z" class="st3"></path>
			<path d="M396.2,176.4c0,0.3-0.2,0.7-0.5,1.1c-4.4,0.6-8.8,0.9-13.3,1.2c-6.2,0.3-12.4,0.4-18.6-0.1
				c6.2-1.1,12.4-1.6,18.5-1.9C387,176.4,391.6,176.2,396.2,176.4z" class="st3"></path>
		</g>
		<path d="M271.9,273.3c0,0-12.7,33.1,0,41.8c12.7,8.7,3-19.7,4.2-36.7L271.9,273.3z" class="st1"></path>
		<path d="M282.6,281.9c0,0,0.2,33.1,15,33.5c14.8,0.4-6.2-20.5-7.1-27.4C290.5,288,285.9,284.9,282.6,281.9z" class="st1"></path>
		<path d="M448.5,185.3c2.7-1.1,15.9-3.9,23.9,3.2c-2.5,3.7-21.1-6.6-34.4,5.6c0,0,6.1-11.4,17.4-14
			c1.9-0.4,3.6-0.6,5.3-0.6l-3.4,1.7l5.7-1.6c1.7,0.2,3.2,0.6,4.5,1.2l-1.6,0.9l2.6-0.4c3,1.6,4.6,4,4.2,6.3
			C470.4,186,462.9,179.5,448.5,185.3z" class="st1"></path>
		<g>
			<path d="M380,293c-0.1,0.5-0.2,0.9-0.3,1.4c-2.1,9.7-6.9,18.6-15.4,18.6c-0.2,0-0.4,0-0.6,0c-1.7-0.1-3.3-0.4-4.8-1
				c-10-3.8-13.8-17.5-14.5-20.1c0-0.2-0.1-0.3-0.1-0.4c0,0,0-0.1,0-0.1l0,0c-0.4,0.4-7.8,7.1-27.3,7.1c-1.7,0-3.5-0.1-5.3-0.2
				c-1,0-2.1-0.1-3-0.2c-0.1,0-0.2,0-0.3,0c-4.6-0.4-8.8-1.4-12.7-2.8c-4.9-1.7-9.2-4.1-12.8-6.7c-4.3-3-7.8-6.3-10.3-9
				c-0.2-0.2-0.3-0.4-0.5-0.6c-2.8-3.1-4.3-5.4-4.5-5.8c0,0,0-0.1,0-0.1s0,0,0,0.1c0,0,0,0.1,0,0.2c0,0,0,0.1,0,0.2
				c0.2,0.8,0.6,2.6,0,3.5c0,0,0,0,0,0c-0.3,0.5-0.9,0.7-1.9,0.4c-0.2-0.1-0.4-0.2-0.5-0.3c-0.2-0.2-0.5-0.5-0.6-0.9
				c-0.1-0.2-0.1-0.3-0.2-0.5c-0.1-0.2-0.1-0.4-0.2-0.7c-1.4-5.1-0.4-16.5-0.4-16.5s21.7-30.1,28.5-24.6c2.1,1.7,4.9,3.6,8.5,5.4
				c1,0.6,2.1,1.1,3.3,1.6c0.2,0.1,0.4,0.2,0.7,0.3c0.1,0,0.2,0.1,0.3,0.1c0.1,0,0.2,0.1,0.3,0.1c0,0,0.1,0,0.1,0
				c4,1.7,8.7,3.3,14.2,4.8c0.6,0.1,1.1,0.3,1.7,0.4c1.4,0.4,2.8,0.7,4.3,1c0.6,0.1,1.3,0.3,1.9,0.4c0.2,0.1,0.5,0.1,0.8,0.1
				c1.1,0.2,2.2,0.4,3.2,0.6l4.3,0.7c1.4,0.2,2.8,0.5,4.1,0.7c0.1,0,0.3,0,0.4,0.1c16.3,3,29.2,9.1,35.7,16.3c0,0,0.1,0.1,0.1,0.1
				c1.7,1.9,2.9,3.9,3.6,5.9c0,0,0,0.1,0.1,0.1c0,0.1,0.1,0.2,0.1,0.3C381.1,277.8,381.4,285.6,380,293z" class="st4"></path>
			<path d="M267.4,273.3c4.2,5.9,9.5,10.9,15.4,14.9c5.9,4,12.6,6.9,19.6,8.4c7,1.5,14.2,1.4,21.3,0.6
				c7-1,14-3,20.1-6.5l1.1-0.6l0.3,1.2c0.8,3.1,1.9,6.3,3.3,9.2c1.4,2.9,3.2,5.7,5.5,7.9c2.3,2.2,5.2,3.5,8.3,3.6
				c3.1,0.1,6.2-0.9,8.6-2.9l0.3-0.2h0.4h0l-0.7,0.2c2.3-2,4.1-4.7,5.4-7.6c1.3-2.9,2.2-6,2.8-9.2c0.6-3.2,0.9-6.4,1-9.7
				c0-1.6,0.1-3.2-0.2-4.8c-0.2-1.5-0.6-3.1-1.2-4.5l0,0.1l-0.1-0.1l0,0l0,0c-0.8-2-2-3.9-3.4-5.7l0.1,0.1c-0.1-0.1-0.2-0.2-0.3-0.4
				l0.1,0.2c-4.2-5-9.9-8.5-15.9-11.2c-6.1-2.6-12.6-4-19.2-5.1l-0.1,0l-6.3-1.1c-1.1-0.2-2.1-0.3-3.2-0.6l-3.2-0.6l0,0
				c-1.3-0.3-2.7-0.6-4-0.9c-1.3-0.3-2.6-0.6-3.9-1l0.1,0l0,0l-0.1,0l0,0c-2.4-0.8-4.8-1.5-7.2-2.3c-2.4-0.8-4.7-1.7-7.1-2.7l-0.1,0
				c0.1,0.1,0,0,0,0l0,0l-0.3-0.1l0,0l0,0l-0.3-0.2l0,0c-0.8-0.3-1.5-0.7-2.3-1.1c-0.7-0.4-1.5-0.7-2.2-1.2
				c-1.4-0.9-2.8-1.8-4.1-2.8c1.3,1,2.8,1.9,4.2,2.6c0.7,0.4,1.5,0.7,2.3,1.1c0.8,0.3,1.5,0.7,2.3,1l0,0l0,0l0.3,0.2l0,0l0.3,0.1
				l0,0v0c0,0,0,0,0.2,0.1l-0.1,0c2.3,0.9,4.7,1.7,7.1,2.5c2.4,0.7,4.8,1.4,7.2,2.1l-0.1,0l0,0l0.1,0l0.1,0c1.3,0.4,2.6,0.6,3.9,0.9
				c1.3,0.3,2.6,0.6,3.9,0.8l0,0l3.2,0.6c1.1,0.2,2.1,0.3,3.2,0.5l3.2,0.5c1.1,0.2,2.1,0.3,3.3,0.5l-0.1,0c6.6,1,13.3,2.3,19.6,4.9
				c6.3,2.6,12.2,6.2,16.7,11.5l0.1,0.2c0,0,0-0.1-0.1-0.1l0.1,0.1c1.5,1.8,2.8,3.9,3.7,6.1l0-0.1l0.1,0.1l0,0l0,0
				c0.7,1.6,1.1,3.3,1.4,5c0.3,1.7,0.2,3.4,0.2,5.1c-0.1,3.3-0.4,6.7-1,10c-0.6,3.3-1.5,6.6-2.9,9.7c-1.4,3.1-3.3,6.1-6,8.4L372,311
				h-0.4h0l0.7-0.2c-2.7,2.3-6.4,3.5-10,3.3c-3.6,0-7.2-1.7-9.6-4.2c-2.5-2.5-4.4-5.4-5.9-8.5c-1.5-3.1-2.6-6.3-3.4-9.6l1.4,0.6
				c-6.5,3.7-13.6,5.6-20.9,6.5c-7.2,0.7-14.6,0.7-21.7-1c-7.1-1.6-13.8-4.8-19.7-9C276.5,284.6,271.3,279.4,267.4,273.3z" class="st8"></path>
			<path d="M267.4,273.3L267.4,273.3L267.4,273.3L267.4,273.3L267.4,273.3c0.4,0.5,0.6,1.2,0.8,1.9
				c0.2,0.7,0.3,1.4,0,2.3l0.1-0.3l0,0l0,0.2l-0.1,0.2c-1.4,2.4-4.3,0.6-4.7-0.8c-0.7-1.5-0.8-2.9-0.8-4.3c0-2.8,0.5-5.5,1.5-8
				c0.3,2.7,0.4,5.4,0.6,7.9c0.1,1.2,0.3,2.6,0.6,3.5c0.1,0.2,0.2,0.5,0.3,0.6c0.1,0.1,0.2,0.2,0.4,0.3c0.2,0.1,0.4,0.2,0.5,0.2
				c0.1,0,0.1,0,0.3-0.1l-0.1,0.3l0,0l0-0.3l0-0.1c0.3-0.3,0.4-1,0.5-1.6C267.3,274.6,267.3,273.9,267.4,273.3l0-0.2L267.4,273.3
				L267.4,273.3L267.4,273.3L267.4,273.3z" class="st8"></path>
			<path d="M358.6,312.4c0.8-3.4,1.7-6.6,2.3-9.8c0.3-1.6,0.5-3.2,0.6-4.9c0.2-1.7,0.1-3.3,0.1-5.1
				c0.8,1.5,1.4,3.3,1.5,5c0.2,1.8,0.1,3.6-0.2,5.3c-0.3,1.7-0.8,3.4-1.6,5C360.7,309.6,359.8,311.1,358.6,312.4z" class="st3"></path>
			<path d="M371.6,309.9c0.2-3.1,0.7-5.9,1.1-8.7c0.5-2.9,0.9-5.6,1.1-8.6c0.8,1.3,1.1,2.9,1.2,4.4
				c0.1,1.5,0,3.1-0.2,4.5c-0.3,1.5-0.6,2.9-1.2,4.4C373.1,307.3,372.5,308.7,371.6,309.9z" class="st3"></path>
		</g>
		<path d="M325,277.5c-1.2,3.1-3.1,5.9-4.8,8.8c-2.4,4-4,8-3.4,12.2c0,0.1,0,0.1,0,0.2c-1.7,0-3.5-0.1-5.3-0.2
			c-1,0-2.1-0.1-3-0.2c-0.1,0-0.2,0-0.3,0c-4.6-0.4-8.8-1.4-12.7-2.8c0,0,0-0.1,0-0.1c0-0.2,0-0.4,0.1-0.6c1-7.6,6.5-13.8,12.4-18.6
			c2.2-1.7,4.5-3.4,7.1-4.3c2.6-1,5.5-1.2,8.1-0.2c0.6,0.2,1.2,0.6,1.6,1C325.9,273.8,325.6,275.8,325,277.5z" class="st3"></path>
		<path d="M287.2,276.2c-0.7,3.1-2.4,5.7-3.5,8.7c-0.4,1.2-0.7,2.4-1,3.7c0,0,0,0.1,0,0.1c-4.3-3-7.8-6.3-10.3-9
			c0,0,0,0,0,0c1.7-2.6,3.9-4.8,6.3-6.7c1.2-0.9,2.5-1.7,4-2c1.5-0.2,3.1,0.2,4,1.4C287.5,273.5,287.5,274.9,287.2,276.2z" class="st3"></path>
		<path d="M319.5,246.5C319.5,246.5,319.5,246.5,319.5,246.5c-2.5,1.1-5.1,2-7.3,3.4c-1.8,1.1-3.4,2.5-5.2,3.5
			c-1.8,1-4,1.7-6.1,1.2c-2-0.5-3.8-2.4-3.5-4.5c0.1-1.2,0.9-2.2,1.6-3.1c1.5-1.8,3.4-3.8,5.4-5.5l0,0c0.1,0.1,0.2,0.1,0.3,0.2
			c0.1,0,0.2,0.1,0.3,0.1c0,0,0.1,0,0.1,0c4.4,1.8,9,3.2,13.3,4.5C318.9,246.3,319.2,246.4,319.5,246.5z" class="st3"></path>
		<g>
			<g>
				<path d="M318.3,168.9c5.1,4,13.5,5.6,19.7,3.6c1.3-0.4,2.6-1.1,3.7-1.9c4.9-3.7,7.9-10.4,8.3-16.5
					c0-0.1,0-0.3,0-0.4c0.3-6.1-2.9-11.9-8.1-15.1c-6.1-3.8-15.3-5.5-21.3-0.9c-2.4,1.8-4.3,4.4-5.7,7.4l0,0
					C311.1,153.1,311.4,163.6,318.3,168.9z" class="st1"></path>
				<path d="M314.3,164c-1-1.9-1.5-4-1.8-6.2c-0.2-2.2-0.2-4.3,0.2-6.5c0.3-2.2,0.9-4.3,1.8-6.3l0.1-0.3l0.3,0l0,0
					l-0.4,0.2c0.9-2,2-3.8,3.4-5.5c1.4-1.6,3.1-3.1,5.2-4c4.1-1.8,8.7-1.7,12.9-0.6c2.1,0.6,4.1,1.4,6,2.5c1.9,1.1,3.6,2.6,5,4.3
					c2.8,3.5,4.2,7.9,3.8,12.5l0-0.1c-0.4,3.8-1.6,7.4-3.5,10.7c-1,1.6-2.1,3.1-3.5,4.4c-1.3,1.3-2.9,2.4-4.7,3.1
					c-1.7,0.7-3.6,1-5.4,1.1c-1.8,0.1-3.7,0-5.5-0.4c-3.6-0.7-7.1-2-10-4.2C316.6,167.6,315.2,165.9,314.3,164z M328.4,173
					c3.6,0.5,7.4,0.3,10.6-1.2c1.6-0.7,3-1.9,4.3-3.2c1.2-1.3,2.2-2.8,3.1-4.4c1.7-3.1,2.6-6.7,2.8-10.2l0-0.1c0-0.4,0-1,0-1.4
					c0-0.5-0.1-1-0.1-1.5c-0.1-1-0.4-1.9-0.7-2.9c-0.3-0.9-0.7-1.8-1.2-2.7c-0.5-0.9-1-1.7-1.7-2.4c-2.5-3.1-6.2-5.1-10-6.2
					c-3.8-1.2-8.1-1.4-11.8,0c-1.9,0.7-3.5,1.9-4.9,3.4c-1.4,1.5-2.6,3.2-3.5,5l-0.1,0.3l-0.3,0l0,0l0.4-0.2
					c-1.9,3.8-2.9,8.1-2.5,12.4c0.2,2.1,0.7,4.3,1.6,6.2c0.9,1.9,2.3,3.7,4,5C321.3,171.1,324.8,172.5,328.4,173z" class="st3"></path>
			</g>
			<path d="M331,168.3c-4.9,0-10-2.5-12.3-6.9c-3.7-7-0.4-16.7,6.9-19.8c3.9-1.6,8.9-1.4,12.6,0.7
				c9.9,5.8,6.8,21.6-3.3,25.3C333.7,168.1,332.3,168.3,331,168.3z" class="st3"></path>
			<path d="M314.8,145.2c22.5-7.1,33.8,7.2,35.1,9c0-0.1,0-0.3,0-0.4c0.3-6.1-2.9-11.9-8.1-15.1
				c-6.1-3.8-15.3-5.5-21.3-0.9C318.2,139.6,316.2,142.2,314.8,145.2z" class="st9"></path>
		</g>
	</g>
</g>
</svg>
