<svg xml:space="preserve" style="enable-background:new 0 0 500 500;" viewBox="0 0 500 500" y="0px" x="0px"
     xmlns="http://www.w3.org/2000/svg" id="图层_1" version="1.0">
<style type="text/css">
	.st0{fill:#9DD5D2;}
	.st1{fill:#EA5554;}
	.st2{fill:#F29443;}
	.st3{opacity:0.2;fill:#A3332F;}
	.st4{fill:#A3332F;}
	.st5{fill:#73C4AE;}
	.st6{fill:#FFFFFF;}
	.st7{fill:none;stroke:#FFFFFF;stroke-width:2;stroke-miterlimit:10;}
	.st8{opacity:0.48;fill:#A3332F;}
	.st9{opacity:0.48;fill:#DA4A47;}
	.st10{opacity:0.1;fill:#A3332F;}
	.st11{opacity:0.48;}
</style>
<g>
	<path d="M43.3,243.1c0.2,1.6-10,5-16,6.9c-1.4-5.4-2.6-10.9-3.5-16.5C27.4,234.9,43.1,241.1,43.3,243.1z" class="st0"></path>
	<g>
		<path d="M315.4,425.9c25.4-7.3,41.2-17.5,41.2-28.7c0-22.2-61.9-40.3-138.3-40.3S80.1,375,80.1,397.3
			c0,22.2,61.9,40.3,138.3,40.3c5.4,0,10.7-0.1,15.9-0.3c-3.4,2.4-5.3,5-5.3,7.7c0,10.9,30.4,19.8,67.9,19.8s67.9-8.8,67.9-19.8
			C364.6,435.9,343.8,428.3,315.4,425.9z" class="st1"></path>
		<path d="M364.6,420c-7,0-12.6,1.6-12.6,3.7s5.6,3.7,12.6,3.7c7,0,12.6-1.6,12.6-3.7S371.6,420,364.6,420z" class="st1"></path>
	</g>
	<path d="M94.3,169.9c-1.1,1.9-9.2,41.5-9.2,41.5l36.3,7.3l18.3-13.9l-3.7-38.4L94.3,169.9z" class="st2"></path>
	<g>
		<path d="M471.5,377.7c-7,13.3-20.5,25.7-41.8,24.2c-8.5-0.6-15.6-3.1-21.5-7.1c-7.5-4.9-13-12.1-16.8-20.4
			c-7.7-17-8.1-38.6-2.8-55.3c9.8-31.3,46.3-90.4,46.3-90.4s6.4,39.4-6.4,67.8c-1.8,4-3.7,8.2-5.6,12.4
			c-4.7,10.7-9.3,21.8-11.6,31.9c0,0,0,0,0,0c-3.2,14.2-2,26.3,9.7,32.1c3.4,1.7,6.4,2.8,9.2,3.3h0c14,2.8,19.3-8.3,23.1-17.1
			c0.5-1.1,0.9-2.1,1.3-3.1c3.7-8.2,9.1-12.5,15.1-10.5h0c1.7,0.5,3.4,1.5,5.1,3C478.8,352,478,365.2,471.5,377.7z" class="st2"></path>
		<path d="M471.5,377.7c-7,13.3-20.5,25.7-41.8,24.2c-8.5-0.6-15.6-3.1-21.5-7.1c-7.5-4.9-13-12.1-16.8-20.4
			c-7.7-17-8.1-38.6-2.8-55.3c9.8-31.3,46.3-90.4,46.3-90.4s6.4,39.4-6.4,67.8c-1.8,4-3.7,8.2-5.6,12.4
			c-4.7,10.7-9.3,21.8-11.6,31.9c0,0,0,0,0,0c-3.2,14.2-2,26.3,9.7,32.1c3.4,1.7,6.4,2.8,9.2,3.3h0c14,2.8,19.3-8.3,23.1-17.1
			c0.5-1.1,0.9-2.1,1.3-3.1c3.7-8.2,9.1-12.5,15.1-10.5h0c1.7,0.5,3.4,1.5,5.1,3C478.8,352,478,365.2,471.5,377.7z" class="st3"></path>
		<path d="M471.5,377.7c-11.9-16.7-6.3-27.2-1.7-32h0c1.7,0.5,3.4,1.5,5.1,3C478.8,352,478,365.2,471.5,377.7z" class="st4"></path>
		<path d="M445.2,385c-8.7-0.2-13-4.7-15-8.7c14,2.8,19.3-8.3,23.1-17.1C455,368.8,456.3,385.2,445.2,385z" class="st4"></path>
		<path d="M408.2,394.9c-7.5-4.9-13-12.1-16.8-20.4C406.5,374.4,408.3,387.9,408.2,394.9z" class="st4"></path>
		<path d="M423,309c-4.7,10.7-9.3,21.8-11.6,31.9c-2.8-5.2-6.4-14.4-3.2-24C411.2,308,418.1,307.8,423,309z" class="st4"></path>
	</g>
	<path d="M454.6,196.9c0,14-1.3,27.7-3.9,41c-3,16.1-7.9,31.5-14.3,46.1c-3.9,8.8-8.3,17.3-13.3,25.5
		c-3.6,6-7.5,11.7-11.7,17.2c-6.2,8.4-13,16.2-20.4,23.6c-7.9,7.8-16.3,15.1-25.3,21.7c-6.9,5.1-14.2,9.8-21.7,14
		c-5.5,3.1-11.2,6-17,8.6c-6,2.7-12.1,5.2-18.4,7.3c-9.6,3.3-19.4,6-29.6,7.9c-12.6,2.4-25.5,3.8-38.7,3.9c-0.9,0-1.7,0-2.6,0
		c-2.9,0-5.8-0.1-8.7-0.2c-13.8-0.5-27.4-2.4-40.4-5.4c-11.6-2.7-22.9-6.3-33.8-10.8c-9-3.7-17.7-8-26-12.8
		c-5.4-3.2-10.7-6.5-15.8-10.2c-14.8-10.4-28.2-22.6-39.9-36.3c-5.2-6.1-10.1-12.4-14.6-19c-5.2-7.6-9.9-15.4-14-23.6
		c0,0,0,0-0.1-0.1c-5.6-11-10.3-22.5-14-34.4c-1.1-3.6-2.1-7.3-3-11c-1.4-5.4-2.6-10.9-3.5-16.5c-2-11.9-3.1-24.1-3.1-36.6H454.6z" class="st5"></path>
	<path d="M240.2,413.7c-0.9,0-1.7,0-2.6,0c-2.9,0-5.8-0.1-8.7-0.2c1.6-8.1,5.1-24.5,7.3-25.1
		C238.5,387.8,239.8,405.3,240.2,413.7z" class="st0"></path>
	<path d="M188.5,408.2c-11.6-2.7-22.9-6.3-33.8-10.8l25-38.7c0,0,13,3.7,13.4,5.3C193.5,365.1,190.2,393.4,188.5,408.2z" class="st0"></path>
	<path d="M128.7,384.5c-5.4-3.2-10.7-6.5-15.8-10.2c6.8-5.1,18.8-13.5,22-10.8C137.7,366,132.8,376.8,128.7,384.5z" class="st0"></path>
	<path d="M99.2,315.8c0,0-16,13.7-26.2,22.3c-5.2-6.1-10.1-12.4-14.6-19L90.6,309L99.2,315.8z" class="st0"></path>
	<path d="M75.6,275.2c0,0.3-31.2,20.3-31.2,20.3s0,0-0.1-0.1c-5.6-11-10.3-22.5-14-34.4c15.6,1.5,40,4.1,40,4.1
		S75.5,274.9,75.6,275.2z" class="st0"></path>
	<path d="M308.5,401.9c-9.6,3.3-19.4,6-29.6,7.9l4.3-33.1l16.3-9.3L308.5,401.9z" class="st0"></path>
	<path d="M343.9,385.9c-5.5,3.1-11.2,6-17,8.6c0.7-9.8,2.5-24.5,5.8-27.2C335.8,364.9,340.8,377,343.9,385.9z" class="st0"></path>
	<path d="M391,350.3c-7.9,7.8-16.3,15.1-25.3,21.7l-11.4-33.7l10.4-6.7L391,350.3z" class="st0"></path>
	<path d="M423.1,309.5c-3.6,6-7.5,11.7-11.7,17.2c-2.5-6.1-8.8-22-7-24.3C406.2,300.2,418.3,306.8,423.1,309.5z" class="st0"></path>
	<path d="M450.7,237.9c-3,16.1-7.9,31.5-14.3,46.1c-6.5-9.1-19.2-26.6-19.2-26.6c0.2,0,7.8-17.5,7.8-17.5L450.7,237.9z" class="st0"></path>
	<g>
		<path d="M429.4,196.9c-3.6,102.8-88.1,185-191.7,185S49.6,299.6,46,196.9" class="st1"></path>
		<path d="M237.7,382.2c-50.1,0-97.6-19.2-133.6-54c-35.9-34.8-56.7-81.4-58.4-131.2l0.6,0
			c3.6,103.6,87.7,184.7,191.4,184.7c103.7,0,187.7-81.1,191.4-184.7l0.6,0c-1.8,49.9-22.5,96.5-58.4,131.2
			C335.2,363,287.8,382.2,237.7,382.2z" class="st6"></path>
	</g>
	<path d="M429.4,196.9c-3.6,102.8-88.1,185-191.7,185S49.6,299.6,46,196.9" class="st7"></path>
	<path d="M436.5,155.8C436.5,155.8,436.5,155.8,436.5,155.8c0,0.1,0,0-0.1-0.2C436.5,155.6,436.5,155.7,436.5,155.8z" class="st2"></path>
	<g>
		<g>
			<path d="M69.3,166.9c0,0-24.7,12.8-28,31.9c-3.3,19.1,15,24.9,25.3,23.8c10.4-1.1,40.5-37.4,40.5-37.4L69.3,166.9z" class="st2"></path>
			<path d="M69.3,166.7c0,0-24.7,12.8-28,31.9c-3.3,19.1,15,24.9,25.3,23.8s40.5-37.4,40.5-37.4L69.3,166.7z" class="st3"></path>
		</g>
		<g>
			<path d="M56.6,221.6c-0.2-1.1-0.2-2.2-0.2-3.3c0.1-1.1,0.2-2.2,0.4-3.3c0.4-2.2,1.2-4.3,2.2-6.3
				c1.1-2,2.3-3.8,3.8-5.5c0.4-0.4,0.7-0.8,1.2-1.2l1.2-1.1c0.9-0.7,1.7-1.4,2.6-2c-0.7,0.8-1.6,1.6-2.3,2.4l-1.1,1.2
				c-0.4,0.4-0.7,0.8-1,1.3c-0.3,0.4-0.6,0.9-1,1.3c-0.3,0.4-0.6,0.9-0.9,1.3c-0.6,0.9-1.1,1.8-1.6,2.8c-1,1.9-1.8,3.9-2.3,6
				C57,217.2,56.6,219.4,56.6,221.6z" class="st4"></path>
		</g>
		<g>
			<path d="M43.3,212.3c0.6-3.6,1.9-7,3.7-10.1c0.9-1.5,2-3,3.3-4.3c1.3-1.3,2.7-2.4,4.3-3.2c-1.4,1.1-2.6,2.4-3.8,3.7
				c-1.1,1.4-2.1,2.8-3,4.3c-0.9,1.5-1.7,3.1-2.5,4.7C44.7,209,44,210.7,43.3,212.3z" class="st4"></path>
		</g>
	</g>
	<g>
		<path d="M429.4,146c-0.6-3.9-1.4-7.7-2.5-11.4c-0.9-3.2-2-6.2-3.3-9.2c0,0,0-0.1-0.1-0.1c-0.9-1.8-1.9-3.6-2.9-5.3
			c-2-3.6-4.1-7.1-6.4-10.5c-1.2-1.8-2.5-3.7-3.8-5.5c-5.4-7.6-11.5-14.9-18.3-21.7c-6.3-6.3-13.3-12.1-20.9-17.5
			c-8.8-6.2-18.4-11.7-29-16.3c-6.2-2.7-12.8-5.2-19.7-7.3c-0.4-0.1-0.7-0.2-1.1-0.3c-7.4-2.2-14.7-3.8-21.8-4.8
			c-8.7-1.2-17.1-1.6-25.2-1.4c-8.6,0.3-16.8,1.2-24.5,2.7c-8.8,1.6-17,3.9-24.5,6.5c-24,8.3-47.2,22.6-55.8,28.1
			c-2.1-0.8-4.1-1.5-6.2-2.2h0c-0.6-0.2-1.1-0.3-1.6-0.5c-1.3-0.4-2.5-0.8-3.8-1.2c-0.1,0-0.2-0.1-0.4-0.1c-0.2-0.1-0.3-0.1-0.5-0.1
			c-1.9-0.6-3.8-1-5.7-1.5c-0.3-0.1-0.7-0.2-1-0.2c-0.4-0.1-0.7-0.2-1-0.2c-0.2,0-0.4-0.1-0.6-0.1c-0.8-0.2-1.6-0.3-2.4-0.5
			c-0.8-0.1-1.6-0.3-2.4-0.5h-0.2c-1.1-0.2-2.1-0.4-3.2-0.5c-0.3-0.1-0.7-0.1-1-0.2c-0.3,0-0.5-0.1-0.8-0.1c-0.3,0-0.5-0.1-0.8-0.1
			c-0.6,0-1.2-0.1-1.7-0.2c-1.7-0.2-3.4-0.3-5-0.4c-6.7-0.3-13,0.1-18.9,1.5c0,0,0,0,0,0C109,55,104.2,47.4,98.8,46.6
			c-0.1,0-0.2,0-0.3,0C93.6,46,82.5,63.8,85.7,81.3c0,0,0,0,0,0c-1.5,1.6-3,3.4-4.4,5.1c-0.9,1.1-1.7,2.2-2.5,3.5
			c-0.5,0.6-0.9,1.3-1.4,2c0,0,0,0,0,0.1c0,0,0,0.1,0,0.1c-1.8,2.7-3.4,5.5-4.8,8.5c-0.2,0.3-0.3,0.6-0.4,0.9c0,0.1-0.1,0.1-0.1,0.2
			c-0.1,0.1-0.1,0.3-0.2,0.4c-0.1,0.1-0.2,0.3-0.2,0.4c-0.4,1-0.8,1.9-1.2,2.9c-0.2,0.5-0.4,1-0.6,1.6c-0.2,0.6-0.4,1.1-0.6,1.7
			c0,0.1,0,0.2-0.1,0.2l-0.4,1.2c-1.5,4.5-2.6,9-3.2,13.6c0,0.1-0.1,0.2-0.1,0.3v0l-0.1,0.3c0,0.2,0,0.3,0,0.5
			c-0.1,0.4-0.1,0.8-0.1,1.3c-0.1,0.9-0.2,1.7-0.2,2.6c0,0.1,0,0.2,0,0.2v0.1c0,0,0,0,0,0l0,0c0,0-2.8,23.5,3.1,35.6
			c4.5,9.2,14.2,19.1,34.6,25.6c0.5,0.2,1.1,0.3,1.6,0.5c0,0,0,0,0,0l0,0c2.8,1.5,5.6,2.9,8.5,4.1c7.6,3.3,15.3,5.7,22.8,7.4
			c3.2,0.8,6.3,1.4,9.3,1.9c7.9,1.4,15.4,2.1,21.8,2.4c1.7,0.1,3.4,0.2,5,0.2l33.1,15l83.5-9l106.7-11.5l33.1-3.6
			c0.1-0.3,0.1-0.6,0.1-0.9c1.4-8.5,2.5-18.8,2.7-29.5C430.8,160.3,430.5,153,429.4,146z" class="st2"></path>
		<g>
			<path d="M220.7,135.2c-0.1,0-0.3-0.1-0.4-0.1c0,0-9.4-3.6-15.3-10.7c1-0.1,2.2-0.2,3.5-0.2c11.6,0,17.5-10.5,21-20.8
				c3.4-10,4.5-19.9,6.4-20.1c0.7-0.1,1.3,0.3,1.8,1C243.1,95.7,239.1,139.6,220.7,135.2z" class="st4"></path>
			<path d="M227.3,122c0,0,2.2,3.5,1.5,4.2c-0.7,0.6-2.9-2.2-2.9-2.2s-0.4,8-5.2,11.2c-0.1,0-0.3-0.1-0.4-0.1
				c0,0-9.4-3.6-15.3-10.7c1-0.1,2.2-0.2,3.5-0.2c11.6,0,17.5-10.5,21-20.8c1,3,3.4,11.9-1.7,16.3c0,0,4.5,0.4,4.7,1.4
				C232.7,122.1,227.3,122,227.3,122z" class="st6"></path>
		</g>
		<g>
			<path d="M89.5,91.6c-11.7-19.9,3.1-45.7,9-45c0.1,0,0.2,0,0.3,0c-0.8,1.7-1.8,4.3-2.1,8c-0.3,3.8,0.1,8.7,1.8,14.9
				c3.3,11.5-1.1,18-5.4,20.6C91.8,91,90.6,91.5,89.5,91.6z" class="st4"></path>
			<path d="M93.1,90.2c-9.1-9.8-0.7-19.4-0.7-19.4s-2.7,0.5-2.8-1.5c-0.1-1.9,2.7-1.3,2.9-1.3c-0.1-0.1-2.2-2.3-2.1-3.6
				c0.1-1.3,2.6,0.6,2.6,0.6c-0.5-5.2,2.2-8.7,3.6-10.3c-0.3,3.8,0.1,8.7,1.8,14.9C101.8,81,97.4,87.5,93.1,90.2z" class="st6"></path>
		</g>
		<path d="M234,158.2c-0.2,0.8-0.4,1.7-0.7,2.5c-1.1,3.8-2.4,7.6-4.1,11.3c-0.1,0.3-0.3,0.6-0.4,0.9
			c0,0.1-0.1,0.1-0.1,0.2c-0.8-0.3-1.5-0.6-2.3-1c-3.8-1.7-8-4-10-7.8c-0.7-1.3-1.1-2.8-0.9-4c0.3-2.7,2.7-4.3,5.3-4.4
			c2.6-0.2,5.4,0.7,8.1,1.4C230.6,157.6,232.3,158,234,158.2z" class="st4"></path>
		<path d="M236,143c0,1.9-0.1,3.8-0.3,5.7c-0.1,0.5-0.1,1-0.2,1.4c-0.1,0.5-0.2,1-0.2,1.5c0,0.2-0.1,0.4-0.1,0.6
			c-3.4-1.9-7.4-4.7-7.1-7.9c0.1-1,0.7-1.7,1.5-2.2c1.7-1.1,4-1.1,6.4-1C236,141.7,236,142.4,236,143z" class="st4"></path>
		<path d="M128.5,170.6c0,0-2.3-5.4-4.7-5.3c-2.4,0.1-0.2,6.2,3.6,8.7c0,0,7.9-1.4,7.2-4.9
			C133.8,165.6,128.5,170.6,128.5,170.6z" class="st4"></path>
		<path d="M145.7,191.2c-1.2,4.2-4,8-7.3,9.9c-0.9,0.6-1.9,1-2.9,1.2c-7.5-1.7-15.2-4.2-22.8-7.4
			c-1.5-1.4-2.8-3.2-3.6-5.3c-2-5.4,0.3-11.6,4.4-15.8c2.8-3,6.3-4.4,9.7-4.3c3,0,6.1,1.1,9.1,2c0.1,0,0.3,0.1,0.5,0.1c0,0,0,0,0,0
			c0.4,0.1,0.8,0.3,1.3,0.4c3.9,1,8.4,3.3,10.7,7.3C146.5,182.3,146.9,186.9,145.7,191.2z" class="st8"></path>
		<path d="M186.7,206.4c-0.1,0-0.3,0-0.4,0c-2.4,0.2-9.7,0.6-19.7,0.1c-6.3-0.3-13.8-1-21.8-2.4c1-3.2,3.7-5.8,7.4-6.9
			c4-1.2,8.5-1.1,11.5-0.9c6.6,0.3,13.3,1.8,19,5.4C184.5,202.9,185.8,204.5,186.7,206.4z" class="st9"></path>
		<path d="M82.6,121.9c0.1,2.2-1.8,4-3.8,4.5c-2.1,0.5-4.3,0.1-6.4-0.4c-2.4-0.6-4.7-1.4-7-2.3v0
			c0.6-4.8,1.7-9.5,3.2-14c0.1-0.4,0.3-0.8,0.4-1.2c3.2,3.3,7,5.8,10.5,8.7C81,118.5,82.5,120,82.6,121.9z" class="st4"></path>
		<path d="M71.6,138.7c-1.7,1.4-5,2.4-7.3,2.8c-0.4-2.6,0.4-9.3,0.4-10c0-0.9,0.2-1.6,0.2-2.5V129
			c0.4,0.1,0.8,0.2,1.2,0.3c1.6,0.3,3.2,0.5,4.7,1.2c1.5,0.6,2.8,1.7,3.2,3.2C74.5,135.5,73.2,137.4,71.6,138.7z" class="st4"></path>
		<path d="M78.6,103.2c-0.6,0.9-1.9,1.2-2.9,0.9c-1.1-0.3-1.9-1-2.7-1.7c-0.3-0.3-0.7-0.7-1-1.1
			c0.2-0.4,0.3-0.7,0.5-1.1c1.4-3,3.1-5.8,4.8-8.5c0,0,0.1-0.1,0.1-0.1c0.2,2.7,0.6,5.4,1.3,8C79,100.8,79.3,102.2,78.6,103.2z" class="st4"></path>
		<g>
			<path d="M174.2,198.3c2.8,2.2,5.4,4.7,8,7.2c2.5,2.5,5,5.1,7.2,8c-2.8-2.2-5.4-4.7-8-7.2
				C178.9,203.7,176.4,201.1,174.2,198.3z" class="st4"></path>
			<path d="M195.6,208.6c-3.2-1.4-6.2-3.2-9.2-4.9c-3-1.8-5.9-3.7-8.6-5.8c3.2,1.4,6.2,3.2,9.2,4.9
				C189.9,204.6,192.8,206.4,195.6,208.6z" class="st4"></path>
			<path d="M199.2,196.7c-3.5,0.1-6.9-0.1-10.4-0.4c-3.4-0.3-6.9-0.7-10.3-1.4c3.5-0.1,6.9,0.1,10.4,0.4
				C192.3,195.6,195.8,196,199.2,196.7z" class="st4"></path>
		</g>
		<g>
			<path d="M149.4,163.5C149.1,163.7,149.4,163.5,149.4,163.5L149.4,163.5z" class="st10"></path>
		</g>
		<path d="M185,78.6c-2.8,8.1-7,15.7-10.9,23.2c-2,3.8-4.3,7.4-6.8,10.8c-0.8,1.1-1.7,2.2-2.8,2.8
			c-2,1.2-4.5,0.6-6.3-0.8c-3.3-2.4-5-6.8-5.1-11.2c-0.2-4.4,0.9-8.8,2.2-13c1.9-6,4.4-14,8.2-20.6h0c5.2,1.7,10.4,3.7,15.4,5.9
			c0.5,0.2,0.9,0.4,1.4,0.6c1.1,0.5,2.1,0.9,3.1,1.4c0.3,0.1,0.5,0.2,0.8,0.4C184.5,78.4,184.7,78.5,185,78.6z" class="st4"></path>
		<path d="M211.5,94.5c-0.4,0.4-0.7,0.9-1.1,1.3c-2.4,2.8-4.5,5.9-7.2,8.4c-2.6,2.5-5.9,4.3-9.1,4.1
			c-1.9-0.2-3.9-1.2-4.6-3.3c-0.5-1.5-0.3-3.3,0.2-4.9c1.4-5.3,4.2-10.3,7.2-15.2c0.6,0.4,1.3,0.7,1.9,1.1c0.9,0.5,1.8,1.1,2.7,1.6
			c2.3,1.5,4.5,2.9,6.6,4.4c0.6,0.4,1.1,0.7,1.6,1.1c0.3,0.3,0.7,0.5,1.1,0.8C211,94.1,211.2,94.3,211.5,94.5z" class="st4"></path>
		<path d="M150.4,66.4c-2.4,6-5.5,11.7-8.7,17.4c-1,1.8-2.5,3.8-4.2,3.4c-1.5-0.3-2.1-2.3-2.3-4
			c-0.9-6.4,0.7-12.8,2.8-18.9c0.5,0.1,1.1,0.1,1.6,0.2c1.4,0.2,2.8,0.4,4.2,0.6c0.1,0,0.1,0,0.2,0c1.6,0.3,3.2,0.6,4.8,0.9
			C149.3,66.1,149.8,66.2,150.4,66.4z" class="st4"></path>
		<path d="M156,177.7c0,0,17-5.7,27.3,0.9l5.5-6.4C188.8,172.1,170.2,166,156,177.7z" class="st4"></path>
		<path d="M102.6,164.6c0,0-8.4-15.9-20.4-18.2l0.5-8.4C82.7,137.9,100.4,146.3,102.6,164.6z" class="st4"></path>
		<path d="M102.7,189.9c0,0.1,0,0.3,0,0.4c-20.4-6.4-30.1-16.3-34.6-25.6c1.4-0.9,2.9-1.8,4.6-2.6
			c5.8-2.7,13.2-4.4,19.7-0.1C102.9,169.1,102.9,184.9,102.7,189.9z" class="st9"></path>
		<g>
			<path d="M65.7,181.5c3.1-1.8,6.4-3.2,9.7-4.6c3.3-1.4,6.7-2.7,10.1-3.7c-3.1,1.8-6.4,3.2-9.7,4.6
				C72.5,179.2,69.1,180.5,65.7,181.5z" class="st4"></path>
			<path d="M62.4,173.1c3.4-0.9,6.8-1.6,10.2-2.1c3.4-0.5,6.9-1,10.3-1.1c-3.4,0.9-6.8,1.6-10.2,2.1
				C69.3,172.6,65.9,173,62.4,173.1z" class="st4"></path>
			<path d="M63.2,162.1c3.4,0.6,6.8,1.6,10.1,2.6c3.3,1,6.6,2.1,9.8,3.6c-3.4-0.6-6.8-1.6-10.1-2.6
				C69.7,164.6,66.4,163.5,63.2,162.1z" class="st4"></path>
		</g>
	</g>
	<g>
		<path d="M111.7,194.1c1.4-1.7,2.6-3.4,3.9-5.2l3.9-5.2c1.3-1.7,2.6-3.4,3.9-5.2l4-5.2l0.9-1.1l0,1.4l0.2,8.2
			c0,2.7,0.1,5.4,0.2,8.2l0.1,8.2c0,2.7,0,5.4,0,8.2c-0.2-2.7-0.3-5.4-0.5-8.1l-0.4-8.2c-0.1-2.7-0.2-5.4-0.3-8.2l-0.3-8.2l0.9,0.3
			l-4,5.1c-1.3,1.7-2.7,3.4-4.1,5.1l-4.1,5l-2.1,2.5C113.2,192.5,112.5,193.3,111.7,194.1z" class="st4"></path>
	</g>
	<path d="M130,246.5c0,0-9.5,21.8,0,21.8C139.5,268.3,130,246.5,130,246.5z" class="st4"></path>
	<path d="M295.3,246.1c0,0-9.7,22.2,0,22.2S295.3,246.1,295.3,246.1z" class="st4"></path>
	<path d="M322.3,291.3c0,0-9.8,22.3,0,22.3C332.1,313.6,322.3,291.3,322.3,291.3z" class="st4"></path>
	<path d="M215.4,257.2c0,0-10.2,23.4,0,23.4C225.7,280.6,215.4,257.2,215.4,257.2z" class="st4"></path>
	<path d="M271,329.1c0,0-9.2,21.1,0,21.1C280.2,350.2,271,329.1,271,329.1z" class="st4"></path>
	<path d="M182.7,309c0,0-10.8,24.8,0,24.8S182.7,309,182.7,309z" class="st4"></path>
	<path d="M363.3,237.8c0,0-7.3,16.6,0,16.6C370.5,254.3,363.3,237.8,363.3,237.8z" class="st4"></path>
	<path d="M258.5,64.5c-2.5,1.8-6,1-8.7-0.5c-5.5-3.1-9-8.6-13.5-13c-2.5-2.5-7.1-4.6-10.9-7c7.5-2.6,15.7-4.9,24.5-6.5
		c3.2,4.1,5.7,8.6,8.2,13.2c1.2,2.2,2.4,4.5,2.8,7C261.3,60.2,260.6,63,258.5,64.5z" class="st4"></path>
	<path d="M297.6,57.4c-0.5,1.7-1.1,3.4-2.4,4.5c-1.9,1.7-5,1.5-7.2,0.2c-2.2-1.4-3.6-3.7-4.7-6
		c-2.3-4.9-3.4-10.2-5.4-15.2c-0.9-2.1-2-4.2-3.4-6.1c8.1-0.3,16.5,0.2,25.2,1.4C300.9,43.2,299.6,50.5,297.6,57.4z" class="st4"></path>
	<path d="M342.3,48.6c-1.4,8.1-4.9,15.8-10,22.3c-1.1,1.4-2.3,2.8-3.9,3.6c-1.6,0.8-3.7,1-5.1,0
		c-2.5-1.7-2.2-5.5-1.8-8.5c0.9-6,1.2-12.1,1-18.2c-0.1-2-0.6-4.4-0.9-6.8c0.4,0.1,0.7,0.2,1.1,0.3
		C329.5,43.4,336.1,45.9,342.3,48.6z" class="st4"></path>
	<path d="M392.2,82.4c-6.2,4.1-13.2,7.2-20,9.9c-2.7,1.1-5.5,2.1-8.4,1.9c-2.9-0.2-5.9-2.1-6.4-5c-0.4-2.5,1-4.9,2.4-7
		c3.9-5.8,7.7-11.6,11.6-17.3C378.9,70.3,385.9,76.1,392.2,82.4z" class="st4"></path>
	<g class="st11">
		<path d="M361.6,118.4c-0.6-2-1.4-4-2.2-5.9c-0.4-1-0.9-1.9-1.5-2.8c-0.6-0.8-1.3-1.7-2.2-2c-0.5-0.1-0.9,0-1.3,0.3
			c-0.4,0.3-0.6,0.7-0.8,1.2c-0.3,1-0.3,2-0.2,3c0.2,2.1,0.8,4.1,1.5,6l1,2.7l-1.6-2.5c-1.2-1.8-2.4-3.6-3.8-5.4
			c-1.4-1.7-2.8-3.4-4.6-4.6c-0.9-0.6-1.9-1-2.7-0.6c-0.4,0.2-0.7,0.5-0.8,0.9c-0.1,0.4,0,0.9,0.1,1.4c0.3,1,0.9,1.9,1.5,2.7
			c0.6,0.9,1.4,1.7,2.1,2.5l0.7,0.7l-1,0.1c-3.4,0.3-6.9,1-10.3,2c-3.4,1-6.7,2.2-9.8,3.6c-6.4,2.9-12.3,6.8-17.4,11.6
			c-1.3,1.2-2.5,2.5-3.7,3.7c-1.1,1.3-2.3,2.6-3.3,4.1c-1.1,1.4-2,2.8-3,4.3c-0.5,0.7-0.9,1.5-1.4,2.2c-0.4,0.8-0.9,1.5-1.3,2.3
			c-3.3,6.2-5.8,12.8-7.5,19.7c1.4-6.9,3.7-13.7,7-20c0.4-0.8,0.8-1.6,1.3-2.3c0.4-0.8,0.9-1.5,1.3-2.3c1-1.5,1.9-3,3-4.4
			c1-1.5,2.2-2.8,3.3-4.2c1.2-1.3,2.4-2.6,3.7-3.8c5.1-4.9,11.1-8.9,17.6-11.9c3.2-1.5,6.6-2.7,10-3.7c3.4-0.9,6.9-1.7,10.5-2
			l-0.3,0.8c-0.8-0.8-1.5-1.7-2.2-2.6c-0.7-0.9-1.3-1.9-1.7-3c-0.2-0.6-0.3-1.2-0.1-1.9c0.1-0.7,0.7-1.2,1.3-1.5
			c0.6-0.3,1.3-0.3,1.9-0.1c0.6,0.2,1.1,0.5,1.6,0.8c1.9,1.3,3.3,3.1,4.7,4.8c1.4,1.8,2.6,3.6,3.8,5.5l-0.6,0.3
			c-0.7-2-1.2-4.1-1.4-6.2c-0.1-1.1-0.1-2.2,0.3-3.2c0.2-0.5,0.5-1,1-1.4c0.4-0.4,1.1-0.6,1.7-0.4c0.6,0.2,1,0.6,1.4,0.9
			c0.4,0.4,0.7,0.8,1,1.3c0.6,0.9,1,1.9,1.4,2.8C360.4,114.4,361.1,116.4,361.6,118.4z" class="st4"></path>
	</g>
	<g class="st11">
		<path d="M261.1,181.9l-5.6-0.6l0,0l-0.1,0l0,0l0,0c-12.3-1.2-24.7-1.8-37.1-1.8c-6.2,0-12.4,0.2-18.6,0.4
			c-6.2,0.3-12.4,0.7-18.5,1.2c-6.2,0.5-12.3,1.1-18.5,1.9c-6.1,0.7-12.3,1.6-18.4,2.5c-6.1,0.9-12.2,2-18.3,3.2
			c-6.1,1.1-12.1,2.4-18.2,3.9c12-3.2,24.1-5.7,36.3-7.8c12.2-2.1,24.5-3.6,36.9-4.6c6.2-0.5,12.4-0.9,18.6-1.1
			c6.2-0.2,12.4-0.3,18.6-0.3c12.4,0.1,24.8,0.9,37.1,2.5l0,0l0.1,0l0,0l0,0L261.1,181.9z" class="st4"></path>
	</g>
	<path d="M297.4,184.3c0,0-7.2,18.5-26.4,33.7h0c-5.5,4.3-11.9,8.5-19.4,11.8c-13.3,5.8-29.9,9.3-50.5,7.5
		c-4.9-0.4-9.6-1-14.1-1.7c-7.6-1.2-14.5-2.7-20.8-4.5c-44.9-12.8-58.3-38.6-58.3-38.6c0.1,0,0.1,0,0.2-0.1c0.6-0.2,1.2-0.3,1.8-0.5
		c0.6-0.2,1.2-0.3,1.9-0.5c2.8-0.7,5.6-1.3,8.5-1.9c0.8-0.2,1.5-0.3,2.3-0.5c0.5-0.1,0.9-0.2,1.4-0.3c29.7-6,61.8-8.1,90.3-8.4
		c8.1-0.1,15.9,0,23.3,0.2c6.3,0.1,12.2,0.3,17.8,0.6h0.1C280.6,182.3,297.4,184.3,297.4,184.3z" class="st2"></path>
	<path d="M193.6,209.6c0.2,5.1-1.3,10-2.8,14.9c-1.2,3.8-2.4,7.5-3.8,11.2c-7.6-1.2-14.5-2.7-20.8-4.5
		c0.6-1.1,1.1-2.1,1.6-3c4.2-8.2,9.5-16,17-21.5c2.2-1.6,5.4-2.9,7.3-1.1C193.3,206.5,193.5,208.1,193.6,209.6z" class="st4"></path>
	<path d="M237.7,184.7c-0.2,4.4-1.4,8.8-2.6,13c-1,3.7-2.1,7.4-4.5,10.4c-2.4,2.9-6.6,4.7-10.1,3.3
		c-2.7-1.1-4.5-3.9-5.2-6.7c-0.7-2.9-0.5-5.9-0.4-8.8c0.2-5.1,0-10.3-0.6-15.4c0-0.5-0.1-0.9-0.1-1.4c7.6-0.1,15.4,0.1,23.2,0.6
		c0.1,0.3,0.1,0.7,0.2,1C237.7,182,237.7,183.4,237.7,184.7z" class="st4"></path>
	<path d="M251.6,229.8c2-8.5,0.4-17.5,0.1-26.3c-0.1-2.5,0-5.2,1.6-7c2.2-2.5,6.4-2.2,9.1-0.2c2.7,2,4,5.3,5.1,8.4
		c1.5,4.3,2.7,8.8,3.5,13.3C265.5,222.3,259.1,226.4,251.6,229.8z" class="st4"></path>
	<path d="M431.2,167.4c0,0.7,0,1.4,0,2c-0.2,9.1-0.9,18.4-2.6,27.6c0,0.3-0.1,0.5-0.1,0.8c-1.2,6.6-2.9,13.1-5.1,19.3
		c-1.7,4.9-12.4,27-22.4,40.7c0,0,8.1,3.2-1.4,15.9c-9.4,12.6-21.7,26.9-32.8,26.9c-11.1-7.8,15.8-30.8,15.8-30.8
		c-67.1,2.4-88.2-30.5-94.3-57c-4.1-17.5-1.6-32.3-1.6-32.3l63.5,2.7l32-25.2l9.4-7.4l32.1-25.3c0,0,0,0.1,0.1,0.1
		c2.9,5.2,5.1,16.5,5.4,17.5s0.4,2,0.6,3c0.4,2,0.6,4,0.9,6C431,157.2,431.2,162.3,431.2,167.4z" class="st2"></path>
	<g class="st11">
		<path d="M284.8,144.3c1.8,8.2,2.6,16.5,2.7,24.9c0.1,8.4-0.7,16.8-2.8,24.9c-2.1,8.1-5.8,16-11.3,22.3
			c-2.8,3.1-6.1,5.9-9.6,8.1l-2.8,1.5c-0.9,0.5-1.9,0.9-2.9,1.3l-1.4,0.6c-0.5,0.2-1,0.3-1.5,0.5l-3,1c3.9-1.4,7.8-3,11.3-5.3
			c3.5-2.3,6.6-5,9.3-8.2c5.3-6.4,8.9-14.1,10.9-22.1c1.1-4,1.8-8.1,2.3-12.2c0.5-4.1,0.7-8.3,0.7-12.5c0.1-4.2-0.1-8.3-0.4-12.5
			C286,152.5,285.5,148.4,284.8,144.3z" class="st4"></path>
	</g>
	<path d="M436.5,155.8C436.5,155.8,436.5,155.8,436.5,155.8c0,0.1,0,0-0.1-0.2C436.5,155.6,436.5,155.7,436.5,155.8z" class="st2"></path>
	<g>
		<path d="M372.5,299.5c-0.4-0.9-0.5-2-0.4-3c0.1-1,0.4-2,0.8-3c0.5-0.9,1.1-1.8,1.8-2.5c0.7-0.7,1.6-1.3,2.5-1.7
			c-0.7,0.8-1.4,1.4-2,2.2c-0.6,0.7-1.1,1.6-1.5,2.4c-0.4,0.8-0.7,1.7-0.9,2.7C372.7,297.5,372.5,298.5,372.5,299.5z" class="st4"></path>
	</g>
	<path d="M420.7,120c-4.4,1.7-8.9,3.1-13.4,4.5c-5,1.6-10.1,3.2-15.1,4.8c-1.9,0.6-4,1.2-6,0.9c-2-0.3-4-1.9-4.1-3.9
		c-0.1-1.5,0.9-2.9,1.9-4c6.1-7.2,14.3-12.3,22.7-16.3c1-0.5,2.3-1.2,3.8-2c1.3,1.8,2.6,3.6,3.8,5.5
		C416.5,113,418.7,116.5,420.7,120z" class="st4"></path>
	<path d="M431.2,167.4c-0.1,0-0.3,0-0.4,0c-14.5-0.2-29-1.6-43.2-4.3c-3-0.6-5.7-2.4-5.5-5.1c0-0.7,0.3-1.5,0.8-2.3
		c1.5-2.6,4.8-4.1,8.6-5c0.8-0.2,1.7-0.4,2.6-0.6c4.4-0.8,9.1-1.1,12.1-1.5c7.7-1.2,15.5-2,23.3-2.5h0.1c0.4,2,0.6,4,0.9,6
		C431,157.2,431.2,162.3,431.2,167.4z" class="st4"></path>
	<path d="M428.6,197.1c0,0.3-0.1,0.5-0.1,0.8c-1.2,6.6-2.9,13.1-5.1,19.3c-10.3-3.9-20.8-8.1-28.4-15.8
		c-0.4-0.4-0.9-0.9-1.3-1.3c-0.6-0.7-1.3-1.5-1.4-2.4c-0.3-1.5,0.9-3.1,2.3-3.8c1.4-0.7,3.1-0.7,4.6-0.7c9.7,0.1,19.5,1.4,29,3.7
		C428.2,197,428.4,197,428.6,197.1z" class="st4"></path>
	<g class="st11">
		<path d="M318.7,183.2c-1.1,1.2-2.1,2.4-2.9,3.7c-0.4,0.7-0.7,1.4-0.9,2.1c-0.2,0.7,0,1.5,0.5,1.9
			c0.5,0.3,1.3,0.1,2-0.2c0.7-0.3,1.4-0.7,2-1.1c1.3-0.9,2.5-1.9,3.7-2.9l1.1-1l-0.4,1.5c-0.5,1.7-0.8,3.5-0.6,5.2
			c0.1,0.8,0.3,1.7,0.7,2.4c0.4,0.7,1.1,1.2,1.8,1.5c1.5,0.5,3.5,0.5,4.4-0.9c0.9-1.3,0.8-3.3,0.5-4.9l-0.1-0.6l0.6,0.1
			c2.8,0.3,5.8,0.3,8.6-0.2c1.4-0.2,2.8-0.6,4.2-1c1.4-0.4,2.7-1.1,4-1.8c-1.2,0.8-2.5,1.5-3.9,2.1c-1.4,0.5-2.8,1-4.2,1.3
			c-1.4,0.3-2.9,0.5-4.4,0.6c-1.5,0.1-2.9,0.1-4.4-0.1l0.5-0.5c0.2,0.9,0.3,1.9,0.2,2.8c-0.1,0.9-0.3,1.9-0.8,2.8
			c-0.6,0.9-1.6,1.4-2.6,1.5c-1,0.2-2,0-2.9-0.3c-0.9-0.4-1.8-1-2.3-1.9c-0.5-0.9-0.7-1.9-0.8-2.8c-0.1-1.9,0.2-3.7,0.7-5.5l0.7,0.5
			c-1.2,1.1-2.5,2.1-3.8,2.9c-0.7,0.4-1.4,0.8-2.2,1.1c-0.4,0.1-0.8,0.3-1.2,0.3c-0.4,0-0.9,0-1.3-0.3c-0.8-0.6-0.9-1.7-0.7-2.4
			c0.2-0.8,0.6-1.5,1.1-2.2C316.5,185.4,317.5,184.2,318.7,183.2z" class="st4"></path>
	</g>
</g>
</svg>
