<svg xml:space="preserve" style="enable-background:new 0 0 500 500;" viewBox="0 0 500 500" y="0px" x="0px"
     xmlns="http://www.w3.org/2000/svg" id="图层_1" version="1.0">
<style type="text/css">
	.st0{fill:#A9312F;}
	.st1{fill:#FB5555;}
	.st2{fill:#FF983D;}
	.st3{opacity:0.4;fill:#A9312F;}
	.st4{fill:#67DCBC;}
	.st5{opacity:0.2;fill:#A9312F;}
	.st6{fill:#FFFFFF;}
	.st7{opacity:0.21;fill:#A9312F;}
	.st8{opacity:0.48;fill:#A9312F;}
	.st9{opacity:0.48;fill:#E54949;}
	.st10{opacity:0.48;}
	.st11{opacity:0.4;fill:#AC312F;}
</style>
<g>
	<g>
		<path d="M353,460.3c26.5-5,43.6-12.9,43.6-21.7c0-15.1-49.9-27.4-111.4-27.4c-61.5,0-111.4,12.3-111.4,27.4
			c0,15.1,49.9,27.4,111.4,27.4c8.8,0,17.3-0.3,25.6-0.7c-1.2,1.1-1.8,2.3-1.8,3.5c0,5.6,12.8,10.1,28.6,10.1
			c15.8,0,28.6-4.5,28.6-10.1C366,465.2,360.8,462.1,353,460.3z" class="st0"></path>
		<path d="M389.6,460c-5.8,0-10.4,1.6-10.4,3.7s4.7,3.7,10.4,3.7c5.8,0,10.4-1.7,10.4-3.7S395.4,460,389.6,460z" class="st0"></path>
	</g>
	<path d="M360.3,420.1c-23.1,22.5-49.6,21.2-67.1,16.4c-11.9-3.2-19.7-8-19.7-8s-24.6,18.2-75.9-1.7
		c-43.7-17-51.4-47.4-52.7-56.1v0c-0.2-1.5-0.3-2.3-0.3-2.3c-4.5-2.4-8.3-4.9-11.7-7.5c-39.3-30.7-11.6-79.1-11.6-79.1
		s22-45,61.5-57.1c39.4-12.1,87.4,1.7,87.4,1.7l101.2,71.1C371.4,297.5,399,382.3,360.3,420.1z" class="st1"></path>
	<g>
		<g>
			<path d="M378.7,319c0,0,12.9,33.5,10.7,45.7c-2.3,12.2-11.4,21.7-23.6,9.5c-12.2-12.2,0-55.2,0-55.2H378.7z" class="st2"></path>
			<path d="M378.7,319c0,0,12.9,33.5,10.7,45.7c-2.3,12.2-11.4,21.7-23.6,9.5c-12.2-12.2,0-55.2,0-55.2H378.7z" class="st3"></path>
		</g>
		<g>
			<path d="M384.5,375.8c-1.7-2-2.9-4.4-3.8-6.9c-0.4-1.3-0.7-2.6-0.8-3.9c-0.1-1.3,0-2.7,0.5-3.9
				c0,1.3,0.1,2.6,0.3,3.8c0.2,1.2,0.6,2.5,1,3.7c0.4,1.2,0.9,2.4,1.3,3.6C383.5,373.4,384,374.6,384.5,375.8z" class="st0"></path>
		</g>
		<g>
			<path d="M371.1,378.3c-0.1-2.6-0.1-5.1-0.1-7.6c0-1.3-0.1-2.5-0.2-3.8c-0.1-1.2-0.2-2.5-0.6-3.7
				c0.7,1.1,1.1,2.4,1.3,3.6c0.3,1.3,0.4,2.6,0.4,3.8C372,373.3,371.7,375.8,371.1,378.3z" class="st0"></path>
		</g>
	</g>
	<path d="M219.4,233.1c0,0-34.4,8.9-38.6,21.1c-4.2,12.2,37.5,10.9,37.5,10.9s-19.7,21.6-11.1,31.1
		c8.6,9.5,37.5-12.2,37.5-12.2s-4.2,32.6,11.1,35c15.3,2.3,17.4-29.5,19-29.2c1.6,0.3,14,36,29.8,32.1c15.8-3.9,5.5-32.9,5.5-32.9
		s27.6,25.6,38.9,13.7c11.3-12-11.1-58.3-13.9-57.7c-2.7,0.6-86.7-18.4-86.7-18.4L219.4,233.1z" class="st4"></path>
	<path d="M324.8,266.3c0,0,16.2,59.2,46,59.5c29.8,0.3,34.7-86.5,9.4-110.8C354.9,190.7,324.8,266.3,324.8,266.3z" class="st2"></path>
	<g>
		<g>
			<path d="M189.7,110.5c-2.5,5.4-3.8,11.2-2.5,17.4c0.1,0.5,0.2,1,0.4,1.5c4.6,17,25.7,28.7,26.6,28.7l-20.7,13
				c-0.1-0.1-0.2-0.1-0.3-0.2c-5.6-3.7-10.4-8.4-14.3-13.7c-3.7-5-6.6-10.6-8.6-16.4c-4-11.6-4.4-24.4-0.4-36.3
				c3.8-11.2,11.2-19.4,19.1-27.6c1.6-1.7,3.3-3.4,4.9-5.1c2-2.1,3.4-4.4,4.2-6.7c1.4-4.4,0.9-9.1-1.2-14c-1.6-3.8-3.9-7.3-6.3-10.6
				c-2.4-3.3-5.9-6.2-6.2-10.5c-0.2-2.8,1-5.8,3.2-7.5c0.2-0.1,0.3-0.2,0.5-0.3c2.5-1.6,5.6-1.7,8.6-1.3c8.7,1.4,15.4,7.3,18.7,15.2
				c0.2,0.5,0.4,1,0.6,1.5c1.3,3.5,2,7.1,2.4,10.8c0.3,3.1,0.3,6.3,0,9.5c-1.4,14.5-9.3,25.5-18,36.6
				C196.4,99.4,192.4,104.7,189.7,110.5z" class="st2"></path>
			<path d="M189.7,110.5c-2.5,5.4-3.8,11.2-2.5,17.4c0.1,0.5,0.2,1,0.4,1.5c4.6,17,25.7,28.7,26.6,28.7l-20.7,13
				c-0.1-0.1-0.2-0.1-0.3-0.2c-5.6-3.7-10.4-8.4-14.3-13.7c-3.7-5-6.6-10.6-8.6-16.4c-4-11.6-4.4-24.4-0.4-36.3
				c3.8-11.2,11.2-19.4,19.1-27.6c1.6-1.7,3.3-3.4,4.9-5.1c2-2.1,3.4-4.4,4.2-6.7c1.4-4.4,0.9-9.1-1.2-14c-1.6-3.8-3.9-7.3-6.3-10.6
				c-2.4-3.3-5.9-6.2-6.2-10.5c-0.2-2.8,1-5.8,3.2-7.5c0.2-0.1,0.3-0.2,0.5-0.3c2.5-1.6,5.6-1.7,8.6-1.3c8.7,1.4,15.4,7.3,18.7,15.2
				c0.2,0.5,0.4,1,0.6,1.5c1.3,3.5,2,7.1,2.4,10.8c0.3,3.1,0.3,6.3,0,9.5c-1.4,14.5-9.3,25.5-18,36.6
				C196.4,99.4,192.4,104.7,189.7,110.5z" class="st3"></path>
		</g>
		<path d="M179,157.2c-3.7-5-6.6-10.6-8.6-16.4c4.3-0.4,10.5-0.2,11.9,4.2C183.9,149.5,181.2,154.4,179,157.2z" class="st0"></path>
		<path d="M187.2,127.9c0.1,0.5,0.2,1,0.4,1.5c-3.8-1.3-10.9-4.6-9.8-11.4c0.9-5.9,7.4-7.2,12-7.4
			C187.2,115.9,185.9,121.7,187.2,127.9z" class="st0"></path>
		<path d="M200,78.3c-3.8,3.1-8.5,0.4-11-1.5c1.6-1.7,3.3-3.4,4.9-5.1c2-2.1,3.4-4.4,4.2-6.7
			C200.3,68.2,204.1,75.1,200,78.3z" class="st0"></path>
		<path d="M215.4,36.1c-13.5,7.7-24.3-8.8-27.3-14c2.5-1.6,5.6-1.7,8.6-1.3C205.4,22.3,212.1,28.2,215.4,36.1z" class="st0"></path>
	</g>
	<g>
		<g>
			<path d="M150.2,258.8l-15.6-12.1c0,0-28.1,19.7-35.3,33c-2.6,4.8-0.9,9.7,1.9,11.1c4.8,2.5,14.4-1.5,21.7-4.6
				C134.2,281.2,150.2,258.8,150.2,258.8z" class="st2"></path>
			<path d="M150.2,258.8l-15.6-12.1c0,0-28.1,19.7-35.3,33c-2.6,4.8-0.9,9.7,1.9,11.1c4.8,2.5,14.4-1.5,21.7-4.6
				C134.2,281.2,150.2,258.8,150.2,258.8z" class="st3"></path>
		</g>
		<g>
			<path d="M107.3,291.3c0.7-2.6,2.2-5,4-7c0.9-1,2-1.9,3.1-2.6c1.1-0.8,2.4-1.3,3.7-1.7c-1.1,0.7-2.2,1.4-3.2,2.3
				c-1,0.8-2,1.7-2.8,2.7c-0.9,0.9-1.7,2-2.5,3C108.7,289.1,108,290.2,107.3,291.3z" class="st0"></path>
		</g>
		<g>
			<path d="M98.3,284c1.4-2.2,3.3-4,5.4-5.5c1-0.8,2.1-1.5,3.3-2.1c1.1-0.6,2.3-1.1,3.5-1.6c-2.1,1.6-4.2,3-6.2,4.5
				c-1,0.7-2,1.5-3,2.3C100.2,282.4,99.2,283.2,98.3,284z" class="st0"></path>
		</g>
	</g>
	<path d="M225.1,146.6c0,0-34.5,6-63.8,36.6s-34.9,57.5-24.2,71.1c10.7,13.6,44.1-6.6,58.2-20.4c0,0,12.6,5.4,23.1,0
		c10.6-5.4-8.3-28.2-8.3-28.2L225.1,146.6z" class="st2"></path>
	<path d="M396.6,270.8c0,4.8-0.3,9.6-0.8,14.2c-0.6,5.3-1.5,10.3-2.7,14.9c-4,15.3-11.5,26.3-22.2,26.2
		c-29.8-0.3-46-59.5-46-59.5s30-75.5,55.4-51.3c8,7.7,13,21.7,15.1,37.2C396.2,258.5,396.6,264.7,396.6,270.8z" class="st5"></path>
	<path d="M210,205.9c0,0,18.9,22.9,8.3,28.2s-23.1,0-23.1,0c-14.2,13.9-47.5,34-58.2,20.4c-6.1-7.8-6.9-19.9-0.9-34.6
		c2-4.9,4.7-10.1,8.2-15.4c2.3-3.5,5-7.2,8-10.9c2.7-3.3,5.7-6.7,9-10.1c2.5-2.6,5-5,7.5-7.3c27.4-24.4,56.5-30.3,56.5-30.3
		L210,205.9z" class="st5"></path>
	<path d="M370.3,177.4c-1.2-2.1-2.5-4.1-3.9-6c-0.7-2.4-1.6-4.7-2.8-7c0.8-0.5,1.5-1,2.2-1.5
		c9.2-7.2,12.1-20.6,9.3-22.9c-0.3-0.3-0.7-0.5-1.1-0.7c-3.9-2-10.3-0.5-16.9,2.9c-5.1,2.6-11.1,2.1-14.2,1.5
		c-1.9-1.2-4-2.4-6.1-3.6c-2.6-1.4-5.3-2.8-8.1-4.2c-1.1-0.6-2.3-1.1-3.4-1.6c-5.2-2.4-10.7-4.5-16.3-6.3c-1.4-0.4-2.8-0.9-4.3-1.3
		c-3.7-1.1-7.4-2-11-2.7c-3.3-0.6-6.6-1.1-9.8-1.4c-3-0.7-6.6-2.1-9.5-4.7c-5.9-5.4-12.2-8.6-16.5-7c-0.1,0-0.2,0.1-0.2,0.1
		c-2.7,1.1-4.6,9.7-2.3,17.7c-14.7,4.9-49,23.7-59.6,50.3c-11.4,28.6,10.7,52.9,10.7,52.9s4.5,7.9,7.3,14.6
		c2.9,6.7,3.4,17.3,18,16.7c14.6-0.6,14.7-21.6,14.7-21.6c23.4,2.1,47.2,13.8,47.2,13.8c-12.9,8.2-13.5,22.4-4,28.9
		c5.3,3.6,16.5-3.1,26.7-8.8c8.1-4.5,15.9-7.9,15.9-7.9c31.7-3.5,31.5-5.4,37.5-9.9C377.9,251.5,394.9,220.5,370.3,177.4z" class="st2"></path>
	<g>
		<g>
			<path d="M337.1,194.5c-5.2,0.9-11.9-1-15.6-4.8c-0.8-0.8-1.5-1.7-2-2.8c-2.2-4.5-1.8-10.6,0.2-15.1
				c0-0.1,0.1-0.2,0.1-0.3c2.1-4.5,6.6-7.5,11.6-7.9c5.8-0.4,13.2,1.8,15.8,7.5c1,2.2,1.5,4.8,1.3,7.5l0,0
				C348.4,185.7,344.1,193.3,337.1,194.5z" class="st6"></path>
			<path d="M337.1,194.5c-3,0.5-6,0.1-8.9-0.7c-1.4-0.5-2.8-1.1-4.1-1.8c-1.3-0.8-2.5-1.7-3.5-2.9c-1-1.2-1.7-2.6-2.2-4
				c-0.5-1.5-0.7-3-0.8-4.5c-0.2-3.1,0.4-6.1,1.5-9l0,0c1.4-3.4,4.2-6.1,7.5-7.5c1.7-0.7,3.5-1.2,5.3-1.2c1.8-0.1,3.6,0.1,5.3,0.4
				c3.5,0.8,6.9,2.4,9.1,5.3c1.1,1.4,1.9,3.1,2.2,4.8c0.4,1.7,0.5,3.5,0.4,5.2l-0.2-0.3l0,0l0.2,0.1l0,0.2c-0.1,1.8-0.5,3.5-1.1,5.2
				c-0.6,1.7-1.4,3.3-2.3,4.8c-1,1.5-2.2,2.8-3.6,3.8C340.5,193.5,338.9,194.2,337.1,194.5z M337.1,194.5c1.7-0.3,3.4-1.1,4.8-2.1
				c1.4-1,2.6-2.4,3.5-3.9c0.9-1.5,1.7-3.1,2.1-4.8c0.5-1.7,0.8-3.4,0.8-5.2l0.2,0.3l0,0l-0.2-0.1l0-0.2c0-1.7-0.1-3.4-0.6-5
				c-0.5-1.6-1.2-3.1-2.3-4.3c-1.1-1.2-2.4-2.2-3.9-3c-1.5-0.8-3.1-1.3-4.7-1.6c-3.3-0.6-6.7-0.6-9.7,0.7c-0.7,0.3-1.5,0.7-2.2,1.1
				c-0.7,0.5-1.3,1-1.9,1.5c-0.6,0.6-1.1,1.2-1.6,1.8c-0.3,0.3-0.4,0.7-0.7,1c-0.2,0.3-0.4,0.7-0.5,1l0,0c-1.2,2.6-1.9,5.5-1.8,8.5
				c0,1.5,0.2,2.9,0.6,4.3c0.4,1.4,1,2.8,1.9,3.9c1.8,2.3,4.5,3.9,7.3,4.9C331.1,194.6,334.2,195,337.1,194.5z" class="st0"></path>
		</g>
		<path d="M328.2,189.3c3.5,1.9,8.2,2,11.6-0.3c5.4-3.7,6.6-12,2.5-17c-2.2-2.7-5.9-4.4-9.4-4.3
			c-9.3,0.4-13.2,13-7.3,19.6C326.3,188.1,327.2,188.7,328.2,189.3z" class="st0"></path>
		<path d="M348.7,178.6c-13.6-13.7-27.2-7.6-28.9-6.8c0-0.1,0.1-0.2,0.1-0.3c2.1-4.5,6.6-7.5,11.6-7.9
			c5.8-0.4,13.2,1.8,15.8,7.5C348.4,173.3,348.8,175.9,348.7,178.6z" class="st7"></path>
	</g>
	<g>
		<g>
			<path d="M277.7,178.2c-5.2,0.9-11.9-1-15.6-4.8c-0.8-0.8-1.5-1.7-2-2.8c-2.2-4.5-1.8-10.6,0.2-15.1
				c0-0.1,0.1-0.2,0.1-0.3c2.1-4.5,6.6-7.5,11.6-7.9c5.8-0.4,13.2,1.8,15.8,7.5c1,2.2,1.5,4.8,1.3,7.5l0,0
				C288.9,169.4,284.7,177,277.7,178.2z" class="st6"></path>
			<path d="M277.7,178.2c-3,0.5-6,0.1-8.9-0.7c-1.4-0.5-2.8-1.1-4.1-1.8c-1.3-0.8-2.5-1.7-3.5-2.9c-1-1.2-1.7-2.6-2.2-4
				c-0.5-1.5-0.7-3-0.8-4.5c-0.2-3.1,0.4-6.1,1.5-9l0,0c1.4-3.4,4.1-6.1,7.5-7.5c1.7-0.7,3.5-1.1,5.3-1.2c1.8-0.1,3.6,0.1,5.3,0.4
				c3.5,0.8,6.9,2.4,9.1,5.3c1.1,1.4,1.9,3.1,2.2,4.8c0.4,1.7,0.5,3.5,0.4,5.2l-0.2-0.3l0,0l0.2,0.1l0,0.2c-0.1,1.8-0.5,3.6-1.1,5.2
				c-0.6,1.7-1.4,3.3-2.3,4.8c-1,1.5-2.2,2.8-3.6,3.8C281.1,177.2,279.4,177.9,277.7,178.2z M277.7,178.2c1.7-0.3,3.4-1.1,4.8-2.1
				c1.4-1,2.6-2.4,3.5-3.9c0.9-1.5,1.7-3.1,2.1-4.8c0.5-1.7,0.8-3.4,0.8-5.2l0.2,0.3l0,0l-0.2-0.1l0-0.2c0-1.7-0.1-3.4-0.6-5
				c-0.5-1.6-1.2-3.1-2.3-4.3c-1.1-1.2-2.4-2.2-3.9-3c-1.5-0.8-3.1-1.3-4.7-1.6c-3.3-0.6-6.7-0.6-9.7,0.7c-0.7,0.3-1.5,0.7-2.2,1.1
				c-0.7,0.5-1.3,1-1.9,1.5c-0.6,0.6-1.1,1.2-1.6,1.8c-0.3,0.3-0.4,0.7-0.7,1c-0.2,0.3-0.4,0.7-0.5,1l0,0c-1.2,2.6-1.9,5.5-1.8,8.5
				c0,1.5,0.2,2.9,0.6,4.3c0.4,1.4,1,2.8,1.9,3.9c1.8,2.3,4.5,3.9,7.3,4.9C271.7,178.3,274.7,178.7,277.7,178.2z" class="st0"></path>
		</g>
		<path d="M268.7,172.9c3.5,1.9,8.2,2,11.6-0.3c5.4-3.7,6.6-12,2.5-17c-2.2-2.7-5.9-4.4-9.4-4.3
			c-9.3,0.4-13.2,13-7.3,19.6C266.9,171.7,267.8,172.4,268.7,172.9z" class="st0"></path>
		<path d="M289.2,162.3c-13.6-13.7-27.2-7.6-28.9-6.8c0-0.1,0.1-0.2,0.1-0.3c2.1-4.5,6.6-7.5,11.6-7.9
			c5.8-0.4,13.2,1.8,15.8,7.5C288.9,157,289.4,159.6,289.2,162.3z" class="st7"></path>
	</g>
	<path d="M306.8,168.6c0,0-2.3-4.1-4.2-3.7c-1.9,0.3,0.4,5,3.6,6.5c0,0,6.2-1.8,5.3-4.5
		C310.6,164.2,306.8,168.6,306.8,168.6z" class="st0"></path>
	<path d="M365.8,162.9C365.8,162.9,365.8,162.9,365.8,162.9c-0.1,0.1-1.2,1.1-2.8,1.9c0,0,0,0,0,0
		c-0.9,0.4-2.2,0.7-3.6,0.7c-2.5,0-5.3-0.8-6.9-3c-3.9-5.3,10.7-8.6,17.8-15.3c2.3-2.2,3.8-4.7,3.6-7.9c0.4,0.2,0.8,0.4,1.1,0.7
		C377.9,142.4,375,155.7,365.8,162.9z" class="st0"></path>
	<path d="M265.3,141.4c-14.5-7.5-12-28.4-7.7-30.2c0.1,0,0.2-0.1,0.2-0.1c-0.1,1.3,0.1,3.2,1,5.6c1,2.4,2.8,5.2,6,8.2
		c5.9,5.6,4.8,11.1,2.6,14.3C266.8,140.1,266,140.9,265.3,141.4z" class="st0"></path>
	<path d="M361.8,159c0,0,0.1,3.9-2.4,6.5c-2.5,0-5.3-0.8-6.9-3c-3.9-5.3,10.7-8.6,17.8-15.3c-0.8,2.4-2.5,5.8-6,8.2
		c0,0,3.6-0.1,3.9,0.7c0.3,0.8-4.2,1.5-4.5,1.5c0.2,0,2.2,0.2,2.2,1.2C366,159.7,361.8,159,361.8,159z" class="st6"></path>
	<path d="M267.4,139.2c-9.5-2.4-6.5-11.3-6.5-11.3s-1.8,1.3-2.5,0.1c-0.7-1.1,1.5-1.8,1.7-1.9c-0.1,0-2.3-0.6-2.6-1.4
		c-0.4-0.8,2-0.7,2-0.7c-1.9-2.9-1.2-6-0.6-7.5c1,2.4,2.8,5.2,6,8.2C270.7,130.4,269.6,136,267.4,139.2z" class="st6"></path>
	<path d="M318.1,153.2c-1.3,1-3.1,1.6-4.7,0.9c-2.1-0.9-2.7-3.4-3-5.7c-0.4-3.9-0.1-7.8-0.2-11.7
		c-0.1-2.7-0.4-5.5-1.2-8.1c0-0.2-0.1-0.3-0.1-0.5c5.6,1.8,11,4,16.3,6.3c-0.5,5.1-2,10.1-4.2,14.7
		C320.2,150.6,319.4,152.1,318.1,153.2z" class="st0"></path>
	<path d="M331.6,146.3c-1.2,0.4-2.7,0.2-3.4-0.8c-0.7-1-0.5-2.4-0.2-3.7c0.4-1.8,0.6-3.6,0.6-5.4c0-0.1,0-0.3,0-0.4
		c2.8,1.3,5.5,2.7,8.1,4.2c-0.6,1.3-1.4,2.6-2.3,3.8C333.6,144.9,332.7,145.9,331.6,146.3z" class="st0"></path>
	<path d="M301.3,135.3c-0.8,0.7-2.2,1-3.1,0.4c-0.4-0.3-0.7-0.8-1-1.3c-1.5-2.8-3.3-6.7-3.6-10.2
		c3.6,0.7,7.4,1.6,11,2.7c-0.4,1.9-1,3.8-1.7,5.7C302.6,133.5,302.1,134.5,301.3,135.3z" class="st0"></path>
	<path d="M299.3,172.1c-2.2,0.2-4.6,1.5-6.2,3.7c-2.4,3.2-3.5,7.5-1.8,11c1.1,2.2,2.9,3.6,4.7,4.5
		c3.6,1.8,7.3,3.4,11.4,2.7c1.5-0.2,3-0.7,4.4-1.7c2.1-1.6,3.7-4.3,4.2-7.3c0.5-3-0.1-6-1.6-8c-1.8-2.5-5-3.7-7.7-4
		C304.4,172.6,301.7,171.9,299.3,172.1z" class="st8"></path>
	<path d="M327.8,195.8c-2.6,0.7-4,3.6-2,6c2.6,3.1,8.9,4.8,12.6,3.2c3.2-1.4,3-5.8,0.6-7.4c-2.1-1.4-4.5-2-6.9-2.1
		C330.9,195.4,329.3,195.4,327.8,195.8z" class="st9"></path>
	<path d="M260,173.8c-2.6-0.2-4.9,1.9-3.9,4.7c1.3,3.7,6.4,7.5,10.4,7.3c3.4-0.1,4.8-4.2,3.1-6.5
		c-1.4-1.9-3.4-3.3-5.6-4.3C262.9,174.6,261.4,173.9,260,173.8z" class="st9"></path>
	<path d="M315.8,219.9c1.2,0.2,2.4,0.3,3.6,0.4c1.2,0.1,2.4,0.2,3.6,0.3l0.5,0l-0.4,0.4c-0.5,0.5-0.9,1.1-1.1,1.7
		c-0.1,0.3,0,0.6,0.1,0.8c0.1,0.1,0.1,0.2,0.2,0.2c0.1,0,0.2,0,0.3-0.1c0.5-0.3,1-0.8,1.5-1.3c0.5-0.5,0.9-1.1,1.3-1.7l0.5-0.8
		l0.1,0.9c0.1,0.6,0.2,1.2,0.4,1.8c0.2,0.6,0.4,1.2,0.8,1.4c0.1,0.1,0.1,0,0.1,0c0,0,0.1-0.1,0.1-0.2c0.1-0.2,0.2-0.5,0.3-0.8
		c0.1-0.6,0.2-1.2,0.3-1.8l0-0.4l0.4,0.1c1.8,0.2,3.7,0.3,5.6,0.2c1.9-0.2,3.7-0.5,5.4-1.3l0.8-0.4l-0.4,0.8
		c-0.4,0.7-0.8,1.4-0.8,2.2c0,0.1,0,0.2,0,0.3c0,0.1,0,0,0,0c0,0,0,0,0,0c0.1,0,0.3,0,0.5-0.1c0.4-0.1,0.8-0.3,1.1-0.4
		c1.5-0.7,2.9-1.5,4.4-2.3c-1.4,0.9-2.8,1.8-4.2,2.6c-0.4,0.2-0.8,0.4-1.2,0.5c-0.2,0.1-0.4,0.1-0.7,0.1c-0.1,0-0.2-0.1-0.2-0.1
		c-0.1-0.1-0.1-0.2-0.1-0.2c0-0.1,0-0.2-0.1-0.4c0-0.9,0.4-1.7,0.8-2.5l0.4,0.4c-0.9,0.4-1.8,0.8-2.7,1c-0.9,0.2-1.9,0.4-2.9,0.5
		c-1.9,0.2-3.8,0.1-5.8-0.1l0.4-0.3c-0.1,0.7-0.1,1.3-0.3,1.9c-0.1,0.3-0.2,0.6-0.4,1c-0.1,0.2-0.2,0.4-0.5,0.5
		c-0.3,0.1-0.6,0-0.8-0.1c-0.6-0.5-0.8-1.2-1-1.8c-0.2-0.6-0.3-1.3-0.4-1.9l0.6,0.2c-0.4,0.6-0.9,1.2-1.4,1.7
		c-0.5,0.5-1,1.1-1.8,1.4c-0.2,0.1-0.4,0.1-0.7,0.1c-0.3-0.1-0.5-0.3-0.6-0.5c-0.2-0.4-0.3-0.9-0.1-1.3c0.2-0.8,0.8-1.4,1.3-1.9
		l0.1,0.4c-1.2-0.1-2.4-0.3-3.6-0.5C318.1,220.4,317,220.2,315.8,219.9z" class="st8"></path>
	<path d="M225.9,178.5c-0.3,0.8-0.6,1.6-0.8,2.4c-0.2,0.8-0.4,1.6-0.3,2.4c0,0.4,0.2,0.7,0.5,0.9c0.3,0.2,0.6,0.2,1,0.1
		c0.7-0.3,1.4-0.8,1.9-1.4l0.7-0.7l-0.2,1c-0.2,0.9-0.3,1.8-0.3,2.7c0,0.9,0,1.8,0.3,2.6c0.1,0.4,0.3,0.7,0.6,1
		c0.3,0.3,0.6,0.4,1,0.3c0.7-0.1,1.4-0.8,1.9-1.4l0.3-0.5l0.3,0.5c0.9,1.4,2,2.7,3.2,4c1.2,1.3,2.4,2.4,3.7,3.5
		c1.3,1.1,2.7,2.1,4.2,2.9c1.5,0.9,3.1,1.6,4.7,2.2c-1.7-0.5-3.3-1-4.8-1.9c-1.5-0.8-3-1.7-4.4-2.8c-1.4-1.1-2.7-2.2-3.9-3.5
		c-1.2-1.3-2.3-2.6-3.3-4.1l0.6,0c-0.3,0.4-0.6,0.8-1,1.1c-0.4,0.3-0.9,0.6-1.4,0.6c-0.6,0.1-1.2-0.2-1.5-0.5
		c-0.4-0.4-0.7-0.8-0.8-1.3c-0.3-0.9-0.3-1.9-0.3-2.8c0.1-0.9,0.2-1.8,0.4-2.8l0.5,0.3c-0.6,0.6-1.3,1.2-2.2,1.4
		c-0.4,0.1-1,0.2-1.4-0.2c-0.4-0.3-0.6-0.8-0.6-1.2c0-0.9,0.2-1.7,0.5-2.5C225.2,180,225.5,179.3,225.9,178.5z" class="st8"></path>
	<path d="M293.8,193.2c1-2,2-3.9,3-5.8l3.1-5.8l3.2-5.7c1.1-1.9,2.1-3.8,3.2-5.7l0.5-0.9l0.2,1c0.4,2.1,0.7,4.1,1,6.2
		c0.3,2.1,0.5,4.2,0.7,6.2c0.1,2.1,0.2,4.2,0.2,6.3c0,2.1-0.1,4.2-0.4,6.3c0.1-2.1,0.1-4.2,0-6.3c-0.1-2.1-0.2-4.2-0.4-6.2
		c-0.4-4.1-1-8.3-1.8-12.4l0.7,0.1c-1.1,1.9-2.2,3.8-3.2,5.7l-3.3,5.7l-3.3,5.7C296,189.5,294.9,191.4,293.8,193.2z" class="st0"></path>
	<g>
		<path d="M335.2,199.2c2.2,1.3,4.4,2.7,6.4,4.2c2.1,1.5,4.1,3.1,6,4.9c-2.3-1.3-4.4-2.7-6.4-4.2
			C339.1,202.5,337.1,200.9,335.2,199.2z" class="st0"></path>
		<path d="M351.2,203c-2.4-0.7-4.7-1.5-7-2.5c-2.3-1-4.6-2-6.7-3.2c2.4,0.7,4.7,1.5,7,2.5
			C346.8,200.8,349,201.8,351.2,203z" class="st0"></path>
		<path d="M352.5,195.2c-2.5,0.5-4.9,0.7-7.4,0.9c-2.5,0.2-4.9,0.2-7.4,0.1c2.5-0.5,4.9-0.7,7.4-0.9
			C347.5,195.1,350,195,352.5,195.2z" class="st0"></path>
	</g>
	<g>
		<path d="M258.5,178.9c-2.6-0.2-5.1-0.6-7.6-1.1c-2.5-0.5-5-1.1-7.5-1.8c2.6,0.2,5.1,0.6,7.6,1.1
			C253.5,177.6,256,178.1,258.5,178.9z" class="st0"></path>
		<path d="M244.7,169.7c2.4,0.8,4.7,1.7,6.9,2.8c2.2,1,4.5,2.2,6.6,3.5c-2.4-0.8-4.7-1.7-6.9-2.8
			C249.1,172.2,246.9,171.1,244.7,169.7z" class="st0"></path>
		<path d="M249.6,163.5c1.8,1.7,3.4,3.6,5,5.5c1.6,1.9,3.1,3.9,4.4,6c-1.8-1.7-3.4-3.6-5-5.5
			C252.4,167.5,250.9,165.6,249.6,163.5z" class="st0"></path>
	</g>
	<path d="M334.1,154.8c-1.8,2,2.9,6.1,4.5,6.8c2.7,1.2,6.3-2.9,3.6-5C341,155.7,335.4,153.3,334.1,154.8z" class="st0"></path>
	<path d="M283.5,140.6c0.8,2.5-5.1,4.4-6.9,4.4c-2.9,0-4.6-5.2-1.3-6C276.8,138.6,282.9,138.7,283.5,140.6z" class="st0"></path>
	<g class="st10">
		<path d="M377.4,246.6c-1.4,3-3,5.9-5.1,8.5c-2.1,2.6-4.6,4.8-7.6,6.5c-2.9,1.6-6.2,2.6-9.4,3.3
			c-3.3,0.6-6.6,1-9.9,1.3c-3.3,0.4-6.6,0.7-9.8,1.4c-1.6,0.4-3.2,0.8-4.7,1.4c-1.5,0.5-3,1.3-4.6,1.9c-6,2.7-11.7,6.1-17.4,9.6
			c-2.9,1.7-5.7,3.4-8.9,4.6c-1.6,0.6-3.2,1.1-5,1.2c-1.7,0.1-3.5-0.3-5-1.1c-1.6-0.8-2.9-1.9-4-3.2c-1.1-1.3-1.9-2.9-2.4-4.5
			c-1-3.3-0.8-6.8,0.4-10c1.1-3.2,3.1-6,5.4-8.5c2.2-2.5,4.8-4.7,7.5-6.6c5.4-3.8,11.6-6.7,18.1-8.1c-6.4,1.6-12.5,4.6-17.8,8.5
			c-2.7,2-5.1,4.2-7.3,6.6c-2.2,2.5-4,5.2-5.1,8.3c-1.1,3.1-1.2,6.4-0.3,9.5c0.5,1.5,1.3,3,2.3,4.2c1,1.2,2.3,2.3,3.7,3
			c1.4,0.7,3,1,4.6,0.9c1.6-0.1,3.1-0.6,4.7-1.2c3-1.2,5.9-2.9,8.7-4.6c5.7-3.4,11.4-6.8,17.5-9.5c1.5-0.6,3-1.4,4.6-1.9
			c1.6-0.6,3.2-1,4.8-1.4c3.3-0.7,6.6-1.1,9.9-1.4c3.3-0.3,6.6-0.6,9.8-1.2c3.2-0.6,6.4-1.5,9.3-3.1c2.9-1.5,5.5-3.7,7.6-6.2
			C374.3,252.5,376,249.6,377.4,246.6z" class="st0"></path>
	</g>
	<g class="st10">
		<path d="M243.3,219.2c1.2,4.1,2.1,8.4,2.7,12.7c0.6,4.3,0.9,8.6,0.5,13c-0.2,2.2-0.5,4.3-1.1,6.4
			c-0.6,2.1-1.5,4.2-2.8,5.9c-1.4,1.8-3.2,3.1-5.1,4.2c-1.9,1.1-4,1.9-6.2,2.2c-2.2,0.3-4.5,0.2-6.6-0.5c-2.1-0.6-4.1-1.9-5.7-3.4
			c-1.6-1.6-2.7-3.6-3.5-5.6c-0.8-2.1-1.3-4.2-1.9-6.2c-0.6-2.1-1.3-4-2.3-6c-0.9-1.9-1.9-3.8-3-5.7c-2.2-3.7-4.5-7.4-6.6-11.1l0,0
			c-2.9-4.9-5.5-10-7.2-15.4c-0.9-2.7-1.5-5.5-1.9-8.3c-0.2-1.4-0.2-2.8-0.2-4.2c0-1.4,0.2-2.8,0.3-4.2c-0.2,2.8-0.2,5.7,0.2,8.4
			c0.4,2.8,1.1,5.5,2.1,8.2c1.8,5.3,4.5,10.3,7.4,15.1l0,0c2.3,3.7,4.6,7.3,6.8,11.1c1.1,1.9,2.1,3.8,3.1,5.7c1,1.9,1.7,4,2.3,6.1
			c0.6,2.1,1.2,4.2,2,6.1c0.8,2,1.8,3.8,3.3,5.3c1.5,1.4,3.3,2.6,5.3,3.2c2,0.6,4.1,0.8,6.2,0.5c2.1-0.3,4.1-1,5.9-2
			c1.8-1,3.6-2.3,4.8-4c2.6-3.4,3.5-7.7,4-11.9c0.4-4.3,0.2-8.6-0.3-12.9C245.1,227.7,244.4,223.4,243.3,219.2z" class="st0"></path>
	</g>
	<g>
		<path d="M222.8,261.8c0.9-1.2,1.6-2.6,2.2-4c0.6-1.4,1-2.9,1.3-4.3c0.1-0.7,0.3-1.5,0.4-2.2c0.1-0.7,0.2-1.5,0.2-2.3
			c0.1-0.8,0.1-1.5,0.1-2.3c0-0.8,0-1.5,0-2.3c0.2,0.8,0.3,1.5,0.5,2.3c0.1,0.8,0.2,1.6,0.2,2.3c0,1.6-0.1,3.1-0.4,4.7
			c-0.3,1.5-0.8,3.1-1.6,4.5C224.9,259.5,224,260.9,222.8,261.8z" class="st0"></path>
	</g>
	<g>
		<path d="M235.9,261.8c0.3-2.6,0.7-5.1,0.9-7.6c0.1-1.3,0.2-2.5,0.3-3.8c0.1-1.3,0.1-2.5,0.2-3.8
			c0.3,1.2,0.6,2.5,0.6,3.8c0.1,1.3,0,2.6-0.1,3.9C237.6,256.9,237,259.5,235.9,261.8z" class="st0"></path>
	</g>
	<g>
		<path d="M293.6,285.8c-0.2-1.9,0-3.7,0.5-5.6c0.5-1.8,1.2-3.6,2.2-5.2c1-1.6,2.2-3.1,3.6-4.3c0.7-0.7,1.5-1.2,2.2-1.7
			c0.8-0.5,1.6-0.9,2.5-1.3c-1.5,1.1-2.9,2.3-4.2,3.6c-1.3,1.3-2.4,2.7-3.3,4.3c-1,1.5-1.7,3.2-2.3,4.9
			C294.2,282.2,293.8,284,293.6,285.8z" class="st0"></path>
	</g>
	<g>
		<path d="M284.4,278c0-1.4,0.3-2.8,0.7-4.1c0.5-1.3,1.1-2.6,2-3.7c0.9-1.1,1.8-2.2,3-3c0.5-0.5,1.2-0.8,1.8-1.2
			c0.6-0.3,1.3-0.6,1.9-0.9c-1.1,0.8-2.2,1.7-3.2,2.6c-1,0.9-1.9,1.9-2.7,3c-0.8,1.1-1.5,2.2-2.1,3.4
			C285.3,275.4,284.8,276.6,284.4,278z" class="st0"></path>
	</g>
	<g class="st10">
		<path d="M363.7,164.3c2.1,4,3.9,8.2,5.2,12.6c1.3,4.4,2.1,8.9,2.2,13.5c0,4.6-0.7,9.2-2.3,13.5
			c-1.7,4.2-4.2,8.3-7.7,11.1c1.6-1.6,3-3.4,4.2-5.3c1.2-1.9,2.1-4,2.8-6.1c1.5-4.2,2.1-8.7,2-13.2c0-4.5-0.8-8.9-1.9-13.3
			c-0.6-2.2-1.2-4.3-2-6.5C365.5,168.5,364.6,166.4,363.7,164.3z" class="st0"></path>
	</g>
	<g class="st10">
		<path d="M218.4,168.6c-0.2-2.4-0.1-4.8,0.4-7.2c0.5-2.4,1.4-4.7,2.5-6.8c1.1-2.2,2.5-4.2,4.1-6c1.6-1.9,3.2-3.6,5-5.2
			c1.8-1.6,3.7-3.1,5.7-4.5c1-0.7,2-1.3,3-2c1-0.6,2-1.3,3.1-1.9c2.1-1.2,4.2-2.3,6.4-3.3c2.2-1,4.4-1.9,6.6-2.8
			c-4.3,2.2-8.6,4.3-12.7,6.8c-2,1.3-4,2.6-6,3.9c-1.9,1.4-3.8,2.9-5.6,4.5c-3.6,3.1-6.8,6.7-9.1,10.9
			C219.6,159,218.3,163.8,218.4,168.6z" class="st0"></path>
	</g>
	<path d="M308.8,379.9c0,0,0,30.8-15.6,56.6c-11.9-3.2-19.7-8-19.7-8S299.3,405.8,308.8,379.9z" class="st11"></path>
	<path d="M144.9,370.8c-0.2-1.5-0.3-2.3-0.3-2.3c-4.5-2.4-8.3-4.9-11.7-7.5c8-27.4,22.9-47.9,23.6-48.8
		C144.3,347.4,144.9,370.8,144.9,370.8z" class="st11"></path>
	<path d="M155.7,364.7c0.6,1,1.9,2,3,2.5c1.2,0.6,2.6,0.8,3.9,0.5c6.9-1.4,6.8-12.8-0.4-13.6
		C157.4,353.6,153.5,360.6,155.7,364.7z" class="st6"></path>
	<path d="M166.1,375.3c-0.1,0.8,0.4,1.5,0.9,2.1c0.8,0.9,2,1.5,3.2,1.6c1.2,0.1,2.5-0.5,3.1-1.6c1-1.9,0.5-4.8-2-5.1
		C169.6,372.2,166.3,373.2,166.1,375.3z" class="st6"></path>
	<path d="M219.9,229.6c-1.7,0.8-3.6,1.1-5.4,1.5c-2.6,0.6-4.8,1.6-6.9,2.7c-1.7-2.8-3.5-5.6-5.2-8.4
		c-0.1-0.2-0.2-0.4-0.3-0.5c5.5-2.6,11.9-3.4,17.9-2.6c0.7,0.1,1.5,0.2,2.1,0.6C225.5,224.7,222.1,228.6,219.9,229.6z" class="st0"></path>
	<path d="M219.8,200.9c-0.4,0.9-1.2,1.5-2.1,1.9c-2.4,1.2-5.1,1.4-7.7,1.9c-3.5,0.6-6.9,1.8-10.1,3.3
		c-1.6,0.8-3.2,1.7-4.7,2.7c-0.1,0-0.1,0.1-0.2,0.1c-1.8-4.9-2.8-10-2.6-15.2c2.1-0.8,4.3-1.2,6.5-1.5c5.4-0.7,11-0.6,16.3,1.1
		c1.3,0.4,2.7,0.9,3.6,1.9C219.8,198.1,220.4,199.6,219.8,200.9z" class="st0"></path>
	<path d="M341.4,266.2c-3.7,0.5-7.4,1.1-11,2.5c0-1.2-0.1-2.5-0.5-3.7c-0.4-1.4-1.2-2.6-1.5-4c-0.4-1.4-0.3-3,0.6-4.1
		c1-1.1,2.7-1.4,4.2-0.9c1.4,0.5,2.6,1.5,3.6,2.6c2,2.2,3.5,4.6,4.6,7.3C341.3,266.1,341.3,266.2,341.4,266.2z" class="st0"></path>
	<path d="M367.6,259.5c-3.3,2.5-6.9,3.9-10.7,4.7c-0.6-1.1-1.4-2-2-2.9c-2.6-3.9-5.8-7.3-7.5-11.8
		c-0.5-1.4-0.9-3.1,0-4.2c0.9-1.1,2.5-1.2,3.9-0.9c2,0.4,3.9,1.5,5.6,2.7c2.8,1.9,5.5,4.2,7.6,6.9
		C365.6,255.3,366.9,257.4,367.6,259.5z" class="st0"></path>
	<path d="M396.6,270.8c-0.8,0.4-1.6,0.8-2.5,1.2c-3.9,1.7-8.3,3-12.4,1.8c-1.8-0.5-3.6-1.8-3.9-3.7
		c-0.3-2.1,1.4-3.9,3-5.2c4.9-4.1,10.4-7.5,14.5-12.4C396.2,258.5,396.6,264.7,396.6,270.8z" class="st0"></path>
	<path d="M395.7,285c-0.6,5.3-1.5,10.3-2.7,14.9c-2.1,0.8-4.4,1.2-6.7,1.5c-1.6,0.2-3.3,0.3-4.8-0.2
		c-1.5-0.5-2.9-1.8-3-3.5c-0.1-1.7,1-3.2,2.4-4.1c1.4-0.9,3.1-1.3,4.6-1.8c3.6-1.3,6.7-3.6,9.5-6.1
		C395.2,285.5,395.5,285.3,395.7,285z" class="st0"></path>
	<path d="M166.8,208.1c-1.9,1.2-4.4,0.9-6.4-0.1c-3.2-1.6-5.4-4.6-6.7-7.9c-0.8-2.1-1.2-4.3-1.4-6.6
		c2.7-3.3,5.7-6.7,9-10.1c2.5-2.6,5-5,7.5-7.3c-0.9,7.5,0.2,15.3,0.7,22.9C169.8,202.4,169.6,206.4,166.8,208.1z" class="st0"></path>
	<path d="M147.1,226.3c-0.3,1.2-1.2,2.3-2.5,2.6c-1.7,0.4-3.3-0.9-4.4-2.1c-1.8-2-3.2-4.4-4.1-6.9
		c2-4.9,4.7-10.1,8.2-15.4c-0.1,1.5-0.2,2.9-0.1,4c0.6,4.8,2.2,9.4,2.9,14.1C147.3,223.9,147.4,225.1,147.1,226.3z" class="st0"></path>
	<path d="M242.9,151.7c-0.5,1.3-2,1.9-3.3,2c-3.6,0.3-6.8-2.1-9.6-4.4c-0.7-0.6-1.7-1.3-2.7-2.2
		c2.9-3.1,6.2-5.8,9.5-8.1c0.7,1,1.1,2.1,1.6,3.2c0.8,1.7,1.7,3.3,2.8,4.8C242.2,148.4,243.5,150.1,242.9,151.7z" class="st0"></path>
	<path d="M252,138.2c0,0.8-0.2,1.7-0.8,2.3c-0.4,0.4-1.1,0.7-1.7,0.7c-1.7,0.1-3.2-1.1-4.5-2.3
		c-0.8-0.8-2.1-1.9-3.1-3.2c2.8-1.7,5.4-3,7.6-4.1c0.5,0.6,1,1.2,1.3,1.8C251.5,134.9,252,136.5,252,138.2z" class="st0"></path>
	<path d="M370,198.2c-3.9-0.2-7.7-1.1-11-3c-2.2-1.3-2.7-3.8-0.5-5.4c2-1.5,4.9-1.4,7.3-1.1c0.2,0,0.5,0.1,0.7,0.1
		c1.4,0.2,2.8,0.4,4.2,0.5C370.7,192.6,370.5,195.6,370,198.2z" class="st0"></path>
	<path d="M369.9,183c-1.6,0.1-3.3,0.1-4.9,0.2c-1.1,0.1-2.2,0.1-3.2-0.2c-1-0.3-2-1.1-2.2-2.1c-0.3-1,0.2-2.2,1-2.9
		c1.5-1.4,4.7-2.3,7.5-2.7C368.9,178,369.5,180.6,369.9,183z" class="st0"></path>
</g>
</svg>
