<svg xml:space="preserve" style="enable-background:new 0 0 500 500;" viewBox="0 0 500 500" y="0px" x="0px"
     xmlns="http://www.w3.org/2000/svg" id="图层_1" version="1.0">
<style type="text/css">
	.st0{fill:#F19342;}
	.st1{fill:#F7BE8D;}
	.st2{opacity:0.2;fill:#A2322E;}
	.st3{fill:#A2322E;}
	.st4{fill:#E95454;}
	.st5{opacity:0.21;fill:#A2322E;}
	.st6{fill:#72C3AD;}
	.st7{opacity:0.48;fill:#D84947;}
	.st8{opacity:0.48;fill:#A2322E;}
	.st9{fill:#FFFFFF;}
	.st10{opacity:0.48;}
	.st11{fill:#9CD4D1;}
</style>
<g>
	<path d="M420.8,257.3c-0.5,5.9-1.3,11.6-2.6,17.2c-1.7,7.5-4.1,14.7-7.1,21.5c-2.8,6.4-6.2,12.3-10.1,17.8
		c-18.9,26.8-49.2,42.4-83.3,38.6c0,0-63.7-15.9-82-47.7c-18.2-31.8-50.1-100.1-50.1-100.1l53.4-79.7l72.8-17.9
		c0,0,9.1-0.5,22.3,3.7c6,1.9,12.9,4.9,20.2,9.4c5.3,3.3,10.9,7.4,16.5,12.5c5.6,5.1,11.2,11.2,16.7,18.6c4.5,6.1,9,13.1,13.2,21
		c3,5.6,5.9,11.8,8.7,18.4c0.1,0.3,0.3,0.6,0.4,0.9c3.1,7.6,5.6,15.2,7.4,22.6c1.2,5.1,2.2,10.2,2.9,15.2
		C421.4,239,421.6,248.3,420.8,257.3z" class="st0"></path>
	<path d="M255.7,210.7c-1.9-0.3-3.9-0.9-6.1-1.6c0-5.1,0-8.1,0-8.1s9.3-4,22.4-4.7c-1.8,6.6-5.4,14.5-12.6,14.7
		C258.3,211,257,210.9,255.7,210.7z" class="st1"></path>
	<path d="M333.8,237.5c-10.9,0.5-26.5,4.6-41.1,20.9c-12.8,14.3-15.8,36.7-15.6,56c-4.5,1.1-8.3,1.1-10.9-0.2
		c-9.3-4.6-13.4-34.7-15.2-62.7c2.7,1.1,5.5,1.9,8.4,2.5c3.6,0.8,7,1.1,10.2,1c24.5-0.4,39-21.8,45.5-45c4.6,3.8,8.9,8.7,13,14.8
		C330.8,229,332.7,233.2,333.8,237.5z" class="st1"></path>
	<g>
		<g>
			<path d="M208,305.1c0,0-40.3,9.4-25.4,67.7c0,0-11.2-14.7-29.2-11.4c-17.9,3.3-15.6,15.8-8.2,17.5
				c10.3,2.4,23.5-3.7,34.8,8.6s20.5,5.7,21.8,0c0,0,16.7,6.5,31.4-4.9c14.8-11.4,8.2-64,8.2-64L208,305.1z" class="st0"></path>
			<path d="M208,305.1c0,0-40.3,9.4-25.4,67.7c0,0-11.2-14.7-29.2-11.4c-17.9,3.3-15.6,15.8-8.2,17.5
				c10.3,2.4,23.5-3.7,34.8,8.6s20.5,5.7,21.8,0c0,0,16.7,6.5,31.4-4.9c14.8-11.4,8.2-64,8.2-64L208,305.1z" class="st2"></path>
		</g>
		<g>
			<path d="M151.3,379.5c-0.2-1.5,0-3,0.6-4.4c0.6-1.4,1.6-2.7,2.9-3.5c1.4-0.8,2.9-1.1,4.4-1.2c0.7,0,1.5,0.1,2.2,0.1
				c0.7,0.2,1.4,0.3,2.1,0.5c-0.7,0-1.5,0-2.2,0c-0.7,0-1.4,0.1-2.1,0.1c-1.4,0.2-2.7,0.6-3.9,1.3c-1.2,0.7-2.1,1.7-2.8,3
				C151.9,376.6,151.5,378,151.3,379.5z" class="st3"></path>
		</g>
	</g>
	<path d="M250.6,416.1c-5.7,9.7-11.7,18.2-17.2,25.4l-0.1,0.1c-3.4,4.4-6.6,8.3-9.6,11.5c-4.1,4.6-7.6,8-10,9.8
		c-15.3,11.5-30.8,16.2-40.3,9.4c-9.5-6.8,43.5-51.3,40-96.8c-2-25.4-9.2-50.2-21.1-72.7c-17.9-33.7-47.8-58.5-66.8-91.4
		c-4.6-8-8.6-16.3-11.5-25c-2.9-8.6-4.7-17.5-4.9-26.6c-0.1-5.9,0.5-11.9,1.8-17.8c6.8-29.1,21.5-47.4,47.6-53.7
		c26.2-6.3,53.6,12.7,79.3,79.3c0,0,8.4,16.8,17.8,43c-12.6-2.2-31-14.6-40-5.6c-4,4-2.6,11.7,2.5,19.8
		c7.6,12.1,23.2,25.2,41.2,29.1c3.6,0.8,7,1.1,10.2,1c4.1,15.7,7.6,32.6,9.9,50C284.7,345.3,268.6,386,250.6,416.1z" class="st4"></path>
	<path d="M164.3,126.8c0,0,12.4,24.5,13.1,25.8c-1-0.8-24.2-8.2-24.2-8.2v34.3c-16-2.7-24.3-15.9-24.3-15.9
		c-1.3,8.5-9.7,18.3-15,23.7c-2.9-8.6-4.7-17.5-4.9-26.6l18.5-19.4l16-15.7L164.3,126.8z" class="st5"></path>
	<path d="M132.7,100c0,0-35.7,22-35.5,46c0.3,24,5.5,35.3,5.5,35.3s19.4-11.1,26.9-27.5
		C137.1,137.5,132.7,100,132.7,100z" class="st6"></path>
	<path d="M130.2,102.3c0,0-16.6,31.9-2.2,51.1c14.3,19.3,25.2,25.3,25.2,25.3s9.2-20.3,5.6-38
		C155.2,123.1,130.2,102.3,130.2,102.3z" class="st6"></path>
	<path d="M134.9,100.9c0,0,9.7,34.6,33.3,38.9c23.6,4.3,35.7,1.2,35.7,1.2s-7.2-21.1-21.9-31.6
		C167.3,99,134.9,100.9,134.9,100.9z" class="st6"></path>
	<path d="M127.6,105.1c0,0,30.9,18.3,50.9,5s26.7-23.8,26.7-23.8s-19.8-10.3-37.6-7.7
		C149.8,81.3,127.6,105.1,127.6,105.1z" class="st6"></path>
	<path d="M140.9,100.7l-9.3,7.8c-4.3-38.8-52.5-50.6-52.5-50.6C75.8,45.2,94,41.8,94,41.8
		C126.7,48.5,140.9,100.7,140.9,100.7z" class="st6"></path>
	<path d="M304,82.9L304,82.9c0.5,0.7,0.9,1.2,1.4,1.8c0.9,1.2,1.7,2.5,2.5,3.7c2.7,4.4,4.7,9.1,5.8,14
		c1.4,5.8,1.5,12,0.4,18.5c0.2,0.1,0.4,0.2,0.6,0.3c-4.6,11.4-15.4,35.2-43.1,55.5c-47.3,34.8-68,25-68,25c-0.3,0-0.5,0-0.8,0.1
		c0-0.1,0-0.1,0-0.2c-0.3-0.1-0.6-0.2-0.9-0.3c-5.3-1.9-14.7-6.5-22.8-16c-0.5-0.6-1-1.2-1.5-1.8c-1.1-1.3-2.1-2.7-3.1-4.2
		c0-0.1-0.1-0.1-0.1-0.2c-0.8-1.2-1.6-2.5-2.3-3.8c-0.2-0.3-0.3-0.6-0.5-0.9c-0.2-0.3-0.3-0.5-0.5-0.8c-1.3-2.6-2.5-5.2-3.5-7.9
		c-0.2-0.5-0.4-1.1-0.6-1.6c-0.4-1.2-0.8-2.4-1.1-3.6c0-0.1-0.1-0.2-0.1-0.3c-0.7-2.4-1.2-4.9-1.5-7.4c-0.1-0.6-0.2-1.3-0.2-1.9
		c-0.4-4.5-0.2-9.2,0.9-14.1c1.1-4.9,3-9.9,6-15c-0.1,0-0.2-0.1-0.3-0.2c-5.3-3.4-11.5-11-13.4-16.4c-0.5-1.5-0.7-2.8-0.5-3.8
		c0.1-0.4,0.3-0.7,0.5-1c3.9-4.6,9.9-5.2,15.2-3.7c3.7,1,7.3,3.1,11.1,3.7c0.3,0.1,2.8,0.5,4.6,0.7l0.4,0c0,0,0,0,0,0
		c1.7-1.5,3.5-3,5.4-4.5c0.7-0.6,1.4-1.1,2.1-1.7c0.2-0.1,0.4-0.3,0.6-0.5c6.6-5,12.9-9.3,19-13.1c1.4-0.9,2.8-1.7,4.2-2.5l0,0
		c3.4-2,6.7-3.8,9.9-5.4c0.3-0.2,0.7-0.4,1-0.5c2.2-1.1,4.4-2.1,6.6-3l0,0c-4.9-9.3-3.2-22.3,0.2-24.8l0,0
		c3.8-2.7,11.5,4.1,18.7,8.4c7,4.3,24.3,11.1,24.8,11.3c0,0,0,0,0,0c3.8,1.3,7.2,3.1,10.3,5.6c0.3,0.2,0.6,0.5,0.9,0.7
		c0.5,0.4,0.9,0.8,1.4,1.2c0.2,0.2,0.5,0.5,0.8,0.7C298.2,76.1,301.3,79.4,304,82.9z" class="st0"></path>
	<path d="M259,65.1c-5.2-0.2-10.4,0.8-14.3,2.1c-4.1,1.3-6.9,2.7-7.1,2.7c-4.9-9.3-3.2-22.3,0.2-24.8l0,0
		c2,1.5,4.3,3.2,6.9,9.1c0.2,0.6,0.5,1.1,0.8,1.6C249.7,63.5,257.8,65.1,259,65.1z" class="st3"></path>
	<path d="M180.9,108.4c0,0-4.2,5.2-7.5,9.5c-1,1.3-2,2.6-2.7,3.6c-5.3-3.4-11.5-11-13.4-16.4c-0.5-1.5-0.7-2.8-0.4-3.8
		c0,0,2.3-0.5,6.8,2.5c1.6,1.1,3.2,2.2,4.7,3.2C172,109.2,175.6,110.4,180.9,108.4z" class="st3"></path>
	<path d="M276.1,150.8c-1.1,3.1,0.8,6.4,4.4,6.2c4.9-0.3,11-5.3,12.1-10.1c0.9-4.1-3.6-7-6.9-5.8
		c-2.8,1.1-5.1,3-6.9,5.3C278,147.5,276.7,149.1,276.1,150.8z" class="st7"></path>
	<path d="M222.2,184.8c3.3,0.3,5.5,3.4,3.8,6.6c-2.3,4.3-9.4,7.8-14.2,6.8c-4.1-0.9-4.9-6.2-2.4-8.7
		c2.1-2.1,4.9-3.4,7.7-4.1C218.4,185.1,220.4,184.6,222.2,184.8z" class="st7"></path>
	<path d="M215.9,81.3c-1.5,6.3-0.8,13.8-0.3,19.5c0.2,3.1,0.7,6.2,1.2,9.3c0.4,2.3,0.1,5.1-1.8,6.8
		c-2.3,2.1-5.7,2.1-8.5,0.9c-3.5-1.5-5.7-4.6-7.3-7.8c-2.3-4.6-3.2-9.9-3-15.2c0.2-0.2,0.4-0.3,0.6-0.5
		C203.5,89.5,209.8,85.1,215.9,81.3z" class="st3"></path>
	<path d="M181.4,171.4c-2.4,2.4-5.9,3.5-9.4,3.9c-0.2-0.3-0.3-0.6-0.5-0.9c-0.1-0.3-0.3-0.6-0.4-0.8
		c-1.3-2.6-2.5-5.2-3.5-7.9C176.2,166.7,185.9,166.9,181.4,171.4z" class="st3"></path>
	<path d="M185.4,179.2c-1.1,2.3-3.7,4.4-6.4,6c-0.5-0.6-1-1.2-1.5-1.8c-1.1-1.3-2.1-2.7-3.1-4.3c0-0.1-0.1-0.1-0.1-0.2
		C180.7,176.8,187.2,175.1,185.4,179.2z" class="st3"></path>
	<path d="M172.1,159.5c-1.7,0.8-3.9,1.1-6.2,0.9c0-0.1-0.1-0.2-0.1-0.3c-0.7-2.4-1.2-4.9-1.5-7.4
		C170.4,154.9,175.9,157.5,172.1,159.5z" class="st3"></path>
	<path d="M230,73.4c-0.3,1.8-0.6,3.9-0.8,5.4c-0.6,4.8-0.5,11-2.3,12.8c-3.7,3.9-8.3,0.9-8.5-5.3
		c-0.1-2.9,0.7-5.5,1.6-7.5l0,0C223.5,76.8,226.8,75,230,73.4z" class="st3"></path>
	<path d="M194.1,96.6c-0.3,4.4,0.6,10.9-1.1,13.3c-2.7,3.5-7.2,2.7-7-0.3c0.2-2.8,0.8-5.4,1.5-7.5
		C189.6,100.3,191.8,98.4,194.1,96.6z" class="st3"></path>
	<path d="M196.1,198.8c1.6,0.7,3.2,1.4,4.9,2c0.8,0.3,1.6,0.6,2.5,0.9c0.8,0.3,1.7,0.5,2.5,0.5l0.2,0l0.1,0.2
		c0.4,0.6,0.9,1.2,1.4,1.8c0.5,0.5,1.2,1,1.6,0.8c0.2-0.1,0.3-0.2,0.2-0.5c0-0.3-0.1-0.6-0.3-1c-0.3-0.7-0.7-1.3-1.1-1.9l-1.1-1.6
		l1.7,0.9c0.7,0.4,1.5,0.7,2.3,1c0.8,0.3,1.6,0.5,2.3,0.6c0.4,0,0.8,0,1-0.1c0.3-0.2,0.4-0.4,0.4-0.6c-0.1-0.6-0.8-1.2-1.5-1.6
		l-0.8-0.6l1,0c1.4-0.1,2.8-0.2,4.2-0.4c1.4-0.2,2.8-0.5,4.1-1c-1.3,0.7-2.6,1.1-4,1.4c-1.4,0.3-2.8,0.6-4.2,0.7l0.1-0.6
		c0.4,0.2,0.7,0.5,1.1,0.8c0.3,0.3,0.7,0.7,0.8,1.2c0.1,0.3,0,0.6-0.2,0.9c-0.1,0.1-0.2,0.2-0.3,0.3c-0.1,0.1-0.2,0.2-0.3,0.2
		c-0.5,0.3-1,0.3-1.5,0.3c-0.9,0-1.8-0.3-2.6-0.6c-0.8-0.3-1.6-0.6-2.4-1l0.6-0.7c0.5,0.7,0.9,1.3,1.2,2.1c0.2,0.4,0.3,0.8,0.3,1.3
		c0,0.1,0,0.3,0,0.4c0,0.1-0.1,0.3-0.1,0.4c-0.2,0.3-0.4,0.5-0.7,0.6c-0.6,0.2-1.1,0-1.5-0.2c-0.4-0.2-0.7-0.5-1-0.8
		c-0.6-0.6-1-1.2-1.5-2l0.3,0.2c-1-0.1-1.8-0.4-2.7-0.7c-0.8-0.3-1.7-0.7-2.5-1C199.2,200.5,197.6,199.7,196.1,198.8z" class="st8"></path>
	<g>
		<g>
			<path d="M285.7,137.8c-2.4,6.3-8.7,12.3-15.3,13.9c-1.4,0.3-2.8,0.5-4.3,0.4c-6.3-0.5-12.6-4.8-16.3-10
				c-0.1-0.1-0.2-0.2-0.3-0.4c-3.6-5.2-3.9-12-1.1-17.7c3.3-6.6,10.5-13.1,18.3-12.4c3.1,0.3,6.2,1.5,9,3.4l0,0
				C283.4,119.9,288.8,129.4,285.7,137.8z" class="st9"></path>
			<path d="M285.7,137.8c-1.3,3.5-3.7,6.6-6.5,9.2c-1.4,1.3-3,2.4-4.6,3.3c-1.7,0.9-3.5,1.6-5.4,2
				c-1.9,0.3-3.9,0.2-5.8-0.2c-1.9-0.4-3.7-1.1-5.4-2c-3.4-1.8-6.4-4.3-8.8-7.5l0,0c-2.8-3.7-4-8.4-3.4-13c0.3-2.3,1-4.5,2.1-6.5
				c1.1-2,2.4-3.8,3.9-5.5c3-3.3,7-5.9,11.6-6.5c2.3-0.3,4.6,0,6.7,0.6c2.1,0.7,4.1,1.7,5.9,2.9l-0.4,0l0,0l0.2-0.2l0.2,0.1
				c1.9,1.3,3.6,2.8,5,4.5c1.5,1.7,2.7,3.6,3.7,5.6c1,2,1.6,4.2,1.8,6.4C286.7,133.4,286.5,135.7,285.7,137.8z M285.7,137.8
				c0.8-2.1,1-4.4,0.8-6.6c-0.2-2.2-0.9-4.4-1.9-6.3c-1-2-2.3-3.8-3.8-5.4c-1.5-1.6-3.2-3-5.1-4.2l0.4,0l0,0l-0.2,0.2l-0.2-0.1
				c-1.8-1.1-3.8-2-5.8-2.6c-2-0.5-4.2-0.7-6.2-0.3c-2,0.4-4,1.2-5.7,2.3c-1.8,1.1-3.4,2.5-4.7,4.1c-2.8,3.1-4.9,6.9-5.4,11
				c-0.1,1-0.2,2.1-0.1,3.1c0.1,1,0.2,2.1,0.4,3.1c0.2,1,0.5,2,1,2.9c0.2,0.5,0.5,0.9,0.7,1.4c0.3,0.4,0.5,0.9,0.8,1.3l0,0
				c2.1,3,4.8,5.6,8,7.4c1.6,0.9,3.3,1.7,5.1,2.1c1.8,0.5,3.6,0.7,5.5,0.4c3.7-0.5,7.1-2.4,10-4.8
				C281.9,144.4,284.3,141.3,285.7,137.8z" class="st3"></path>
		</g>
		<path d="M274.2,144.1c4.3-2.6,7.4-7.7,7.1-12.8c-0.6-8.2-8.8-14.9-16.9-13.6c-4.3,0.7-8.6,3.6-10.7,7.5
			c-5.5,10.4,5.7,22.7,16.6,20.5C271.7,145.4,273,144.9,274.2,144.1z" class="st3"></path>
		<path d="M275.8,115c-23.6,6-25.8,24.7-26,27.1c-0.1-0.1-0.2-0.2-0.3-0.4c-3.6-5.2-3.9-12-1.1-17.7
			c3.3-6.6,10.5-13.1,18.3-12.4C269.8,111.9,273,113.2,275.8,115z" class="st5"></path>
	</g>
	<g>
		<g>
			<path d="M221.4,169.2c1.1,5.7-2.6,11.3-6.9,14.6c-0.6,0.5-1.2,0.8-1.9,1.2c-7.9,4-19.3-1.8-22.1-10.2
				c-0.3-0.9-0.5-1.7-0.6-2.7c-0.8-8,6.4-17.2,14.6-17.9c2-0.1,3.9,0.6,5.7,1.5c1.2,0.6,2.4,1.4,3.5,2.3
				C217.3,160.9,220.6,164.9,221.4,169.2z" class="st9"></path>
			<path d="M221.4,169.2c0.2,1,0.3,2,0.2,3.1c-0.1,1-0.3,2-0.6,3c-0.7,1.9-1.7,3.8-3,5.4c-0.6,0.8-1.3,1.6-2.1,2.3
				c-0.7,0.7-1.5,1.4-2.4,1.9c-1.8,1.1-3.9,1.7-6,1.8c-4.2,0.3-8.5-1.3-11.9-3.8c-1.7-1.3-3.2-2.8-4.4-4.7l-0.8-1.4
				c-0.2-0.5-0.4-1-0.6-1.5c-0.4-1-0.6-2.1-0.7-3.2c-0.3-4.4,1.4-8.7,4.1-12c1.3-1.7,3-3.1,4.8-4.2c1.8-1.1,3.9-1.9,6-2.1
				c1.1-0.2,2.2,0,3.2,0.2c1,0.3,2,0.7,2.9,1.2c1.8,1,3.5,2.3,5,3.6c1.5,1.4,2.9,2.9,4,4.6C220.1,165.3,221,167.2,221.4,169.2z
				 M221.4,169.2c-0.9-4-3.5-7.4-6.6-10.1c-1.6-1.3-3.3-2.4-5.1-3.3c-1.8-0.8-3.8-1.5-5.7-1.1c-3.9,0.6-7.3,3.2-9.6,6.3
				c-1.2,1.6-2.1,3.3-2.8,5.2c-0.6,1.8-0.9,3.8-0.8,5.7c0.1,0.9,0.3,1.9,0.6,2.8c0.2,0.4,0.3,0.9,0.5,1.3l0.7,1.3
				c1,1.6,2.3,3.1,3.9,4.3c3,2.5,6.9,4.1,10.9,4.1c2,0,3.9-0.5,5.7-1.4c0.9-0.5,1.7-1.1,2.5-1.7c0.8-0.7,1.5-1.4,2.2-2.1
				c1.3-1.5,2.4-3.3,3.1-5.2c0.3-1,0.5-2,0.7-3C221.6,171.2,221.6,170.2,221.4,169.2z" class="st3"></path>
		</g>
		<path d="M206,181.1c0.5,0,5.5,1.1,9.8-5.1c4.3-6.2-2.1-13.1-4.8-14.8c-2.8-1.7-9.6-4.3-14.7,2.6
			C191.1,170.7,198.1,180.8,206,181.1z" class="st3"></path>
		<path d="M213.7,158c-11.1,1.6-19.3,11.3-23.2,16.7c-0.3-0.9-0.5-1.7-0.6-2.7c-0.8-8,6.4-17.2,14.6-17.9
			c2-0.1,3.9,0.6,5.7,1.5C211.3,156.4,212.5,157.1,213.7,158z" class="st5"></path>
	</g>
	<path d="M291.6,70.4c-8.6,22-22.4,15.5-17.4,8.5c3.4-4.7,5.5-10.4,6.9-14.1C284.9,66,288.4,67.9,291.6,70.4z" class="st3"></path>
	<path d="M304,82.9L304,82.9c0.3,0.4,0.5,0.7,0.7,1c-4,7-10.1,14-17.7,16.1c-2.9,0.8-6.3,0.2-7.3-2.5
		c-0.4-1.1-0.3-2.4,0.1-3.6c1.2-3.6,4.3-6.6,7-9.3c3-3.1,5.8-7.8,7.8-11.7C298.2,76.1,301.3,79.4,304,82.9z" class="st3"></path>
	<path d="M307.8,88.4c2.7,4.4,4.6,9.1,5.8,14c-3.4,3.9-8.5,6.5-13.6,7.3c-2.3,0.3-4.8,0-6-2.2c-1.6-2.9,1.6-6,3.7-7.6
		C303.3,95.4,306.4,91,307.8,88.4z" class="st3"></path>
	<g>
		<path d="M196.4,206.3c1.8-2.9,3.8-5.6,5.8-8.3c2.1-2.7,4.2-5.3,6.6-7.7c-1.8,2.9-3.8,5.6-5.8,8.3
			C200.9,201.2,198.8,203.9,196.4,206.3z" class="st3"></path>
		<path d="M189.9,201c2.3-2.3,4.8-4.4,7.4-6.4c2.6-2,5.2-4,7.9-5.7c-2.3,2.3-4.8,4.4-7.4,6.4
			C195.3,197.3,192.7,199.2,189.9,201z" class="st3"></path>
		<path d="M185.5,191.5c3.1-1,6.3-1.8,9.4-2.5c3.2-0.7,6.4-1.3,9.6-1.6c-3.1,1.1-6.3,1.8-9.4,2.5
			C191.9,190.6,188.7,191.2,185.5,191.5z" class="st3"></path>
	</g>
	<path d="M245.2,63.2c0,0-1.9,1.4-2.7,1.4c-0.8,0,1.9-2.4,1.9-2.4c-1.9,0.6-4.4-0.1-3.9-0.6c0.5-0.4,3.1-0.6,3.1-0.6
		c-3.7-1.1-5.6-5.8-3.5-7.1c0.9-0.6,3.2,0.5,5.6,1.9c4.2,7.7,12.2,9.3,13.5,9.3c-5.2-0.2-10.4,0.8-14.3,2.1
		C244,65.4,245.2,63.2,245.2,63.2z" class="st9"></path>
	<path d="M173.4,117.9c-1-1.7-1.1-5.1-1.1-5.4c-0.1,0.1-0.9,1.8-1.8,1.9c-0.9,0.2,0.5-2.5,0.5-2.5s-1.5,1.5-2.1,1.1
		c-0.5-0.4,1.2-1.6,1.2-1.6c-1.8,0.3-6.6-1.2-5.8-3.2c0.5-1.3,2.6-1.4,4.1-1.3c3.6,2.2,7.2,3.4,12.5,1.5
		C180.9,108.4,176.7,113.6,173.4,117.9z" class="st9"></path>
	<path d="M234.7,153.7c0,0-4.8-1.4-5.8,0.2c-0.9,1.5,7.2,5,9,4.4c1.8-0.6,0.6-9.5-0.9-9.9
		C235.6,148,234.7,153.7,234.7,153.7z" class="st3"></path>
	<path d="M228.3,160.8c-2.1,2.3-3.4,5.6-3.1,9c0.4,4.9,3.1,9.6,7.9,10.9c3,0.8,6.1,0.2,8.9-0.8
		c5.3-1.9,10.5-4.2,14.2-8.6c1.3-1.6,2.5-3.5,3-5.6c0.8-3.3,0-7.1-2.1-10.1c-2.1-2.9-5.4-4.9-8.7-5.2c-4.1-0.3-8.4,1.7-11.5,4
		C233.9,156.3,230.6,158.2,228.3,160.8z" class="st8"></path>
	<path d="M250.6,416.1c29-58.5,11.8-143.5,11.8-143.5c-34-6.5-41.2-31.8-44.1-47.7c7.6,12.1,23.2,25.2,41.2,29.1
		c3.6,0.8,7,1.1,10.2,1c4.1,15.7,7.6,32.6,9.9,50C284.7,345.3,268.6,386,250.6,416.1z" class="st5"></path>
	<g>
		<path d="M302.6,124.8c-2.2,2.4-4.6,4.6-7.1,6.7c-2.5,2.1-5,4.2-7.7,6c2.2-2.4,4.6-4.6,7.1-6.7
			C297.4,128.7,299.9,126.7,302.6,124.8z" class="st3"></path>
		<path d="M294.2,118.7c-0.9,3.1-2.1,6.2-3.4,9.2c-1.3,3-2.6,6-4.3,8.8c0.9-3.1,2.1-6.2,3.4-9.2
			C291.3,124.5,292.6,121.5,294.2,118.7z" class="st3"></path>
	</g>
	<g class="st10">
		<path d="M249.1,190.5c1.1-0.6,2.2-1.1,3.2-1.7c1.1-0.6,2.1-1.1,3.2-1.7c2.1-1.2,4.2-2.4,6.3-3.7c2.1-1.3,4.1-2.6,6-4
			c1-0.7,1.9-1.4,2.9-2.2c1-0.7,1.8-1.6,2.7-2.4c-1.5,1.9-3.3,3.7-5.1,5.2c-1.9,1.6-3.9,3-6,4.3c-2.1,1.3-4.2,2.5-6.4,3.5
			C253.6,188.8,251.4,189.8,249.1,190.5z" class="st3"></path>
	</g>
	<g class="st10">
		<path d="M273.6,187.6c-0.2,2.7-0.7,5.4-1.4,8.1c-0.7,2.7-1.5,5.3-2.8,7.7c-1.2,2.4-2.9,4.8-5.3,6.3
			c-1.2,0.7-2.5,1.2-3.9,1.4c-1.4,0.2-2.8,0.1-4.2-0.2c-2.7-0.4-5.4-1.2-8-2.1c-2.6-0.9-5.2-1.9-7.7-2.8c-2.6-0.9-5.2-1.8-7.8-2.6
			c-2.6-0.7-5.3-1.3-8-1.3c-2.7,0-5.4,0.6-7.5,2.2c-1.1,0.8-2,1.8-2.5,3c-0.6,1.2-0.8,2.5-0.8,3.8c-0.1,2.7,0.8,5.3,1.8,7.8
			c1,2.5,2.4,4.9,3.9,7.1c3.1,4.5,6.8,8.5,10.9,12.1c4.1,3.6,8.6,6.7,13.4,9.3c4.8,2.6,9.9,4.6,15.2,5.9c2.6,0.7,5.3,1,8,1.2
			c1.4,0.1,2.7,0.1,4.1,0c1.4,0,2.7-0.2,4-0.4c5.4-0.8,10.5-2.8,15.1-5.7c4.5-3,8.5-6.8,11.8-11.2c6.6-8.7,10.9-19,13.6-29.5
			c2.8-10.6,4.2-21.5,3.6-32.5c0.7,10.9-0.5,22-3.1,32.6c-2.7,10.6-7,21-13.6,29.8c-3.3,4.4-7.3,8.3-11.9,11.4
			c-4.6,3.1-9.9,5.1-15.4,5.9c-1.4,0.2-2.7,0.4-4.1,0.4c-1.4,0.1-2.8,0.1-4.1,0c-2.8-0.1-5.5-0.5-8.2-1.2
			c-5.4-1.2-10.6-3.3-15.4-5.9c-4.8-2.6-9.4-5.8-13.5-9.5c-4.1-3.7-7.9-7.8-10.9-12.3c-1.5-2.3-2.9-4.7-4-7.3
			c-1-2.6-1.9-5.3-1.8-8.1c0-1.4,0.3-2.8,0.9-4.1c0.6-1.3,1.6-2.4,2.8-3.2c2.3-1.7,5.2-2.3,8-2.3c2.8,0,5.5,0.6,8.2,1.4
			c2.7,0.7,5.2,1.7,7.8,2.6c2.6,0.9,5.1,1.9,7.7,2.8c2.6,0.9,5.2,1.7,7.9,2.2c1.3,0.2,2.7,0.3,4,0.2c1.3-0.1,2.6-0.6,3.8-1.3
			c2.3-1.4,4-3.7,5.3-6.1c1.3-2.4,2.2-5,2.9-7.7C272.8,193,273.3,190.4,273.6,187.6z" class="st3"></path>
	</g>
	<g>
		<path d="M216.6,222.2c0.3-0.4,0.8-0.5,1.2-0.7c0.4-0.2,0.9-0.3,1.4-0.4c0.9-0.2,1.9-0.3,2.8-0.3
			c1.9,0,3.8,0.4,5.6,1.1c3.6,1.3,6.7,3.7,9.1,6.6c-2.9-2.3-6-4.4-9.4-5.7c-1.7-0.6-3.5-1.1-5.3-1.2c-0.9-0.1-1.8-0.1-2.7,0
			c-0.5,0-0.9,0.1-1.4,0.2C217.5,221.9,217,221.9,216.6,222.2z" class="st3"></path>
	</g>
	<g>
		<path d="M213.7,208.8c2.2-0.5,4.5-0.7,6.8-0.6c2.3,0,4.6,0.3,6.8,0.8c2.2,0.5,4.4,1.3,6.4,2.5c2,1.2,3.8,2.7,5.2,4.5
			c-0.9-0.7-1.7-1.5-2.6-2.1c-0.9-0.7-1.9-1.2-2.9-1.7c-2-0.9-4.1-1.7-6.3-2.2c-2.2-0.5-4.4-0.8-6.6-1c-1.1-0.1-2.2-0.1-3.4-0.1
			C215.9,208.7,214.8,208.8,213.7,208.8z" class="st3"></path>
	</g>
	<g>
		<path d="M371.7,386.8c-3.9,6.3-9.7,11.6-18.2,14.8c-1.4,0.5-2.9,1-4.4,1.4c-9.2,2.4-17.1,3.1-24.1,2.3
			c-8.2-0.9-15.1-3.7-21.7-7.7c-9.4-5.7-17.9-13.8-27.8-22.4c-15-13.1-32.5-17.3-43.3-21.4c-5.7-2.1-9.6-4.2-10.4-7.5
			c-2.3-9.7,7.7-13.6,22.7-11.4c3,0.4,6.1,1.4,9.2,2.8c12.6,5.7,25.8,18.3,35.7,30.1c12.4,14.7,31.8,26.1,54.3,20
			c9.2-2.5,14.7-10.4,17.9-18.9c2.4-6.5,3.6-13.2,4.1-18.2v0c0.3-3.2,0.4-5.6,0.4-6.7c3.7-1.8,8-4.1,11.8-6.8c0,0.1,0,0.1,0,0.2
			C379.2,348.1,381.6,370.7,371.7,386.8z" class="st0"></path>
		<path d="M371.7,386.8c-3.9,6.3-9.7,11.6-18.2,14.8c-1.4,0.5-2.9,1-4.4,1.4c-9.2,2.4-17.1,3.1-24.1,2.3
			c-8.2-0.9-15.1-3.7-21.7-7.7c-9.4-5.7-17.9-13.8-27.8-22.4c-15-13.1-32.5-17.3-43.3-21.4c-5.7-2.1-9.6-4.2-10.4-7.5
			c-2.3-9.7,7.7-13.6,22.7-11.4c3,0.4,6.1,1.4,9.2,2.8c12.6,5.7,25.8,18.3,35.7,30.1c12.4,14.7,31.8,26.1,54.3,20
			c9.2-2.5,14.7-10.4,17.9-18.9c2.4-6.5,3.6-13.2,4.1-18.2v0c0.3-3.2,0.4-5.6,0.4-6.7c3.7-1.8,8-4.1,11.8-6.8c0,0.1,0,0.1,0,0.2
			C379.2,348.1,381.6,370.7,371.7,386.8z" class="st2"></path>
	</g>
	<path d="M279.8,285.6c0,0-6.2,41.9,1.5,65.6c0,0-20.6,6.2-38.7,23.9c-18.2,17.8-13.2,29-6.9,30.5
		c6.4,1.5,26.9-27.5,48.4-32c17.2-3.6,20.8-6.1,23.3-14.8c0,0,26.5,2.9,49.8-11c15.8-9.4-32-52.3-32-52.3L279.8,285.6z" class="st0"></path>
	<g class="st10">
		<path d="M235.7,383.1c2.5-4,5.7-7.5,9.2-10.6l2.7-2.3l2.8-2.2c0.9-0.7,1.9-1.4,2.9-2.1c1-0.7,1.9-1.4,2.9-2
			c3.9-2.6,8-4.9,12.2-7.1c4.2-2.1,8.4-4.2,12.8-5.9l-0.2,0.4c-1.4-6.5-2.4-13-3.1-19.6c-0.7-6.6-1.1-13.2-1.1-19.8
			c0-6.6,0.4-13.3,1.4-19.8c0.5-3.3,1.1-6.5,2-9.8c0.4-1.6,0.9-3.2,1.4-4.8c0.2-0.8,0.6-1.6,0.8-2.3c0.3-0.8,0.6-1.6,0.9-2.3
			c1.3-3.1,2.9-6,4.6-8.9c1.9-2.8,3.9-5.4,6.3-7.8c4.6-4.8,9.8-9,15.7-12.2c5.8-3.2,12.2-5.4,18.8-6.3c3.3-0.5,6.6-0.6,10-0.4
			c3.3,0.2,6.6,0.6,9.8,1.6l-0.3,0.5c-0.7-0.7-1.3-1.5-1.9-2.4c-0.5-0.9-1.1-1.8-1-2.9c0-0.6,0.3-1.1,0.8-1.5c0.4-0.4,1-0.5,1.5-0.7
			c0.5-0.1,1-0.2,1.6-0.1l0.8,0.1l0.7,0.2c1.9,0.7,3.6,1.8,5.3,3c1.6,1.2,3.2,2.4,4.8,3.7c3.1,2.5,6,5.2,8.9,8
			c2.9,2.7,5.7,5.5,8.5,8.4c-2.8-2.8-5.7-5.6-8.6-8.3c-2.9-2.7-5.9-5.3-9.1-7.8c-1.6-1.2-3.1-2.5-4.8-3.6c-1.6-1.1-3.3-2.2-5.2-2.9
			l-0.7-0.2l-0.7-0.1c-0.4,0-0.9,0-1.4,0.1c-0.9,0.2-1.8,0.7-1.8,1.7c0,0.9,0.4,1.8,0.9,2.6c0.5,0.8,1.2,1.6,1.8,2.3l0.8,0.8
			l-1.1-0.3c-3.1-0.9-6.4-1.4-9.7-1.5c-3.3-0.2-6.6,0-9.8,0.5c-6.5,1-12.8,3.1-18.5,6.3c-5.7,3.2-10.9,7.4-15.4,12.2
			c-2.3,2.3-4.3,5-6.1,7.7c-1.7,2.8-3.3,5.7-4.5,8.7c-2.5,6.1-4.1,12.5-5.2,19c-1,6.5-1.5,13.1-1.5,19.7c0,6.6,0.3,13.2,1,19.8
			c0.7,6.6,1.6,13.1,3,19.5l0.1,0.3l-0.2,0.1c-4.4,1.7-8.6,3.7-12.8,5.8c-4.2,2.1-8.3,4.4-12.2,6.9c-1,0.6-2,1.3-2.9,1.9
			c-1,0.7-2,1.3-2.9,2l-2.8,2.1l-2.7,2.3C241.5,375.7,238.2,379.1,235.7,383.1z" class="st3"></path>
	</g>
	<path d="M239.5,161.1c0,0-1.7-6.4-7.6-3.8c-10.9,4.9,0.2,19.1-1.6,23.3c-1.8,4.2-6,2-7.8-0.2c0,0,1.6,7.1,9.2,5.8
		C239.3,185,244.3,178.3,239.5,161.1z" class="st3"></path>
	<path d="M239.3,161c0,0-4-5,1.6-8.3c11.4-6.8,15.1,11.7,19.6,12.8c4.4,1.1,5.2-3.6,4.6-6.4c0,0,4.7,5.6-1,10.9
		C258.4,175.3,250.1,175.2,239.3,161z" class="st3"></path>
	<path d="M274.4,217.3c-0.5,2-2.5,3.7-4.5,3.4c-1.5-0.3-2.7-1.6-3.4-3c-0.7-1.4-1-2.9-1.7-4.3c-0.6-1.2-1.4-2.2-2.4-3
		c2.7-1,4.7-3.1,6.3-5.7c0.4,0.3,0.8,0.6,1.2,0.9c1.7,1.5,2.9,3.6,3.7,5.7C274.3,213.1,274.9,215.3,274.4,217.3z" class="st3"></path>
	<path d="M275.2,237.3c0.1,6-0.5,12.3-2.9,17.6c-0.9,0.1-1.8,0.1-2.7,0.1c-3.2,0.1-6.6-0.3-10.2-1
		c-1.4-0.3-2.8-0.7-4.1-1.1c4.1-3.1,7.3-7.3,9.2-12c0.6-1.6,1.1-3.2,1.9-4.8c0.8-1.5,2-2.9,3.6-3.5c1.6-0.6,3.6-0.2,4.6,1.2
		C275.2,234.9,275.2,236.1,275.2,237.3z" class="st3"></path>
	<path d="M305.3,232.9c-3.9,6.2-8.7,11.6-14.4,15.5c0.7-2.5,0.9-5.1,0.6-8.2c-0.4-5.1-1.7-10.1-2.3-15.2
		c-0.3-2.6-0.3-5.6,1.8-7.2c1.5-1.2,3.7-1,5.4-0.2c1.7,0.9,3,2.4,4,4C302.7,225,304.3,228.9,305.3,232.9z" class="st3"></path>
	<g>
		<path d="M249.1,396.6c-1.3-1-2.3-2.4-2.9-4c-0.6-1.6-0.9-3.3-0.6-5c0.3-1.7,1-3.3,2-4.6c0.5-0.7,1.1-1.3,1.6-1.9
			c0.6-0.5,1.3-1.1,1.9-1.6c-0.5,0.7-1,1.3-1.5,1.9c-0.4,0.7-0.9,1.3-1.3,2c-0.4,0.7-0.8,1.4-1,2.1c-0.3,0.7-0.5,1.5-0.6,2.2
			C246,390.8,247.1,394,249.1,396.6z" class="st3"></path>
	</g>
	<path d="M371.7,386.8c-3.9,6.3-9.7,11.6-18.2,14.8c-0.6-3.5-0.2-8.9,4.8-13.6C362.7,384,367.7,384.9,371.7,386.8z" class="st3"></path>
	<path d="M374.1,361.4c-1,5.8-8,7.1-12.5,7.4c2.4-6.5,3.6-13.2,4.1-18.2C369.3,352.1,375.1,355.5,374.1,361.4z" class="st3"></path>
	<path d="M325,405.3c-8.2-0.9-15.1-3.7-21.7-7.7c3.4-1.7,9.3-4,16-3.3C324.4,394.9,325.3,400.2,325,405.3z" class="st3"></path>
	<path d="M253.7,337.6c-3.8,8-13.7,13.3-21.5,16.2c-5.7-2.1-9.6-4.2-10.4-7.5c-2.3-9.7,7.7-13.6,22.7-11.4
		C247.4,335.2,250.5,336.2,253.7,337.6z" class="st3"></path>
	<path d="M354.3,120.1c-1.6,8.6-4.6,17-8.8,24.6c-2.7,5-6.9,10.2-12.6,10.3c-1.8,0-3.8-0.7-4.6-2.3
		c-0.6-1-0.6-2.3-0.5-3.5c0.5-4.6,2.5-8.8,4-13.1c1.9-5.5,2.9-11.2,3-17c0.1-2.8-0.4-5.7-0.7-8.5C340.1,112.6,347,115.6,354.3,120.1
		z" class="st3"></path>
	<path d="M387.5,151.1c-1.8,2.6-3.9,5-5.9,7.3c-2.7,3.1-5.6,6.3-9.5,7.7c-3.8,1.4-8.9,0.6-10.9-3
		c-1.2-2.2-1.1-4.9-0.3-7.3c2-6.3,5.8-12.3,8.1-18.7c0.5-1.5,1.2-3.1,1.9-4.7C376.4,137.7,382.1,143.8,387.5,151.1z" class="st3"></path>
	<path d="M409.5,190.6c-1.2,1-2.5,1.9-3.8,2.8c-4.8,3.3-10.1,6.6-15.9,6.1c-1.4-0.1-3-0.5-4-1.5c-1.5-1.4-1.6-3.8-1-5.7
		c0.7-1.9,2.1-3.5,3.5-5c4.3-4.6,9.2-8.9,12.3-14.5c0.1-0.2,0.2-0.3,0.3-0.5C403.8,177.8,406.7,183.9,409.5,190.6z" class="st3"></path>
	<path d="M420.1,229.4c-6.3,1.3-12.8,1.4-18.6-1.1c-1.6-0.7-3.3-1.8-3.4-3.5c0-0.9,0.5-1.7,1-2.4
		c3.8-4.6,11.5-4.9,16.7-7.4c0.5-0.3,1-0.5,1.4-0.8C418.5,219.3,419.4,224.4,420.1,229.4z" class="st3"></path>
	<path d="M420.8,257.3c-0.5,5.9-1.3,11.6-2.6,17.2c-3.2-0.8-6.2-2.1-9.1-3.5c-2.6-1.3-5.2-2.7-7.5-4.5
		c-2.7-2.1-5.3-5.5-3.9-8.6c0.9-2,3.2-3.1,5.4-3.2s4.3,0.5,6.5,1C413.2,256.6,417,257.2,420.8,257.3z" class="st3"></path>
	<path d="M411.2,295.9c-2.8,6.4-6.2,12.3-10.1,17.8c-6.7-3.6-12.2-9.5-14.8-16.7c-1.1-2.9-1.4-6.8,1.2-8.5
		c1.3-0.8,2.9-0.8,4.4-0.7C398.8,288.7,404.7,293.1,411.2,295.9z" class="st3"></path>
	<path d="M79.1,57.9C75.8,45.2,94,41.8,94,41.8C95.4,57.1,79.1,57.9,79.1,57.9z" class="st11"></path>
	<path d="M128.4,194.6c0,0.9,0,1.8,0.4,2.7c0.4,1.1,1.2,2,2.1,2.7c1.9,1.6,4.3,2.7,6.8,2.7c2.5,0,5-1.3,6.2-3.5
		c2.4-4.4-1.3-10.4-5.6-12.1C133.2,185.1,128.6,189.8,128.4,194.6z" class="st9"></path>
	<path d="M144.5,209.9c0.5,0.6,1.1,1,1.9,1.1c0.4,0.1,0.8,0.1,1.2,0c0.4-0.1,0.9-0.3,1.2-0.5c0.7-0.5,1-1.4,0.8-2.2
		C148.7,204.6,142.1,206.7,144.5,209.9z" class="st9"></path>
	<path d="M241.1,117.6c0.1,0.2,0.1,0.4,0.2,0.5c0.3,0.7,0.8,1.3,1.5,1.6c3.6,1.5,8-6.2,7.1-9.1c-1-3.2-9-5.7-9.4-1.1
		C240.2,112,240.2,115.1,241.1,117.6z" class="st3"></path>
	<path d="M208.9,147.1c0.1,0.2,0.2,0.4,0.2,0.5c0.3,0.7,0.3,1.5,0,2.2c-1.5,3.5-10.1,1.1-11.5-1.6
		c-1.6-3,2.5-10.4,6-7.4C205.7,142.5,207.9,144.7,208.9,147.1z" class="st3"></path>
	<g class="st10">
		<path d="M353.2,282.3c-1.2-0.4-2.4-0.7-3.6-0.9c-0.6-0.1-1.2-0.1-1.8,0c-0.6,0.1-1.1,0.4-1.1,0.9
			c-0.1,0.5,0.2,1,0.6,1.3c0.5,0.3,1,0.6,1.6,0.8c1.1,0.4,2.4,0.6,3.6,0.8l1.2,0.2l-1,0.6c-0.9,0.6-1.9,1.2-2.7,1.9
			c-0.4,0.4-0.8,0.7-1.2,1.1c-0.3,0.4-0.7,0.8-0.7,1.2c0,0.2,0,0.3,0.1,0.5c0.1,0.1,0.1,0.1,0.2,0.2l0.2,0.2
			c0.4,0.2,0.9,0.3,1.4,0.3c1-0.1,2.1-0.4,3.1-0.8l1.1-0.5l-0.5,1.1c-0.6,1.2-0.9,2.7-0.9,4.1c0,1.4,0.4,2.8,1.1,4.1
			c0.7,1.3,1.7,2.3,2.8,3.3c0.6,0.5,1.2,0.9,1.8,1.3l1.9,1.1l-2-0.9c-0.6-0.4-1.3-0.7-1.9-1.2c-1.2-0.9-2.3-1.9-3.1-3.2
			c-0.8-1.3-1.3-2.8-1.4-4.4c-0.1-1.6,0.2-3.1,0.9-4.5l0.6,0.6c-1.1,0.5-2.2,0.8-3.5,0.9c-0.6,0-1.3,0-1.9-0.4
			c-0.1-0.1-0.3-0.2-0.4-0.3c-0.1-0.1-0.2-0.3-0.4-0.4c-0.2-0.3-0.3-0.8-0.2-1.2c0.2-0.7,0.6-1.2,1-1.7c0.4-0.5,0.8-0.8,1.3-1.2
			c0.9-0.7,1.9-1.4,2.9-2l0.2,0.8c-1.3-0.2-2.5-0.5-3.7-0.9c-0.6-0.2-1.2-0.5-1.7-1c-0.3-0.2-0.5-0.5-0.7-0.8
			c-0.1-0.2-0.1-0.4-0.2-0.6c0-0.2,0-0.4,0.1-0.6c0.1-0.2,0.1-0.3,0.2-0.5c0.1-0.1,0.3-0.3,0.4-0.4c0.2-0.1,0.3-0.2,0.5-0.2
			c0.2,0,0.3-0.1,0.5-0.1c0.7-0.1,1.3,0,1.9,0.1C350.9,281.3,352.1,281.8,353.2,282.3z" class="st3"></path>
	</g>
	<g>
		<path d="M192.7,72.8c-10,1-20.7-3.9-19.6-15.4c0.5-5.7,4.4-12.3,3.4-18c0,0,6.1,6.5,4.8,12.4c0,0-2.7-8.7,4.4-19.2
			C192.7,22,199.5,22,199.5,22s-7.7,17.7-4.4,21.2c3.3,3.6,4.4-6.1,4.4-6.1c-0.1,0.6,2.3,3.1,2.7,3.8c1.1,1.7,2.1,3.4,3,5.2
			c2.8,5.6,5.1,13.1,1.7,18.9C204.1,70,198.1,72.3,192.7,72.8z" class="st4"></path>
		<path d="M191.8,64.4c1.6,0.4,3.4,0.2,4.8-0.6c1.7-1,3.4-3.5,1.8-5.3c-1.3-1.5-3.5-1.6-4.8-3c-1.2-1.2-0.9-2.6-0.6-4.1
			c0-0.1,0-0.2,0-0.3c-0.1-0.2-0.3-0.3-0.5-0.4c-0.7-0.2-1.4-0.1-2.1,0.1c-4.1,1.3-6.3,7.1-3.6,10.6
			C187.9,62.7,189.8,63.9,191.8,64.4z" class="st0"></path>
	</g>
	<g class="st10">
		<path d="M299.9,149.6c0.7,1,1.5,2,2.5,2.7c0.5,0.3,1.1,0.5,1.6,0.3c0.5-0.2,0.8-0.8,1-1.3c0.5-1.1,0.7-2.3,0.7-3.5
			c0.1-1.2,0-2.4-0.2-3.6l-0.1-0.9l0.8,0.6c1,0.8,2.2,1.6,3.4,1.9c0.6,0.2,1.2,0.2,1.6-0.1c0.4-0.2,0.7-0.8,0.7-1.4
			c0.1-1.1-0.8-2.2-1.8-3c-1-0.8-2.2-1.5-3.3-2l-0.6-0.3l0.4-0.5c1.1-1.3,2.2-2.8,3.1-4.4c0.9-1.6,1.7-3.2,2.3-4.9
			c0.6-1.7,1.1-3.4,1.4-5.2c0.3-1.8,0.4-3.6,0.3-5.4c0.3,1.8,0.3,3.6,0.1,5.5c-0.2,1.8-0.6,3.6-1.2,5.4c-0.6,1.8-1.3,3.4-2.2,5
			c-0.9,1.6-1.9,3.1-3.1,4.6l-0.2-0.8c1.3,0.6,2.5,1.2,3.6,2.2c0.5,0.5,1.1,1,1.5,1.6c0.4,0.6,0.7,1.4,0.6,2.2
			c-0.1,0.8-0.4,1.6-1.2,2c-0.8,0.5-1.6,0.4-2.3,0.2c-1.4-0.5-2.6-1.2-3.6-2.2l0.6-0.3c0.1,1.3,0.1,2.5,0,3.7
			c-0.1,1.2-0.3,2.5-0.9,3.6c-0.3,0.5-0.6,1.2-1.3,1.4c-0.7,0.3-1.4-0.1-1.9-0.4C301.2,151.7,300.5,150.6,299.9,149.6z" class="st3"></path>
	</g>
</g>
</svg>
