<?xml version="1.0" encoding="UTF-8"?>
<!--
  -     Copyright (c) 2024. ForteScarlet.
  -
  -     Project    https://github.com/simple-robot/simpler-robot
  -     Email      ForteScarlet@163.com
  -
  -     This file is part of the Simple Robot Library (Alias: simple-robot, simbot, etc.).
  -
  -     This program is free software: you can redistribute it and/or modify
  -     it under the terms of the GNU Lesser General Public License as published by
  -     the Free Software Foundation, either version 3 of the License, or
  -     (at your option) any later version.
  -
  -     This program is distributed in the hope that it will be useful,
  -     but WITHOUT ANY WARRANTY; without even the implied warranty of
  -     MERCHANTABILITY or FITNESS FOR A PARTICULAR PURPOSE.  See the
  -     Lesser GNU General Public License for more details.
  -
  -     You should have received a copy of the Lesser GNU General Public License
  -     along with this program.  If not, see <https://www.gnu.org/licenses/>.
  -
  -->

<svg id="simbot-logo-dark" xmlns="http://www.w3.org/2000/svg" viewBox="0 0 1440 1440">
  <defs>
    <style>
      .cls-1, .cls-2, .cls-3 {
        stroke-width: 0px;
      }

      .cls-2 {
        fill: none;
      }

      .cls-3 {
        fill: #fff;
      }

      .cls-4 {
        clip-path: url(#clippath);
      }

      .cls-5 {
        mask: url(#mask);
      }

      .cls-6 {
        filter: url(#luminosity-invert-noclip);
      }
    </style>
    <filter id="luminosity-invert-noclip" x="147.6616" y="106.5925" width="1136.5747" height="1279.0862" color-interpolation-filters="sRGB" filterUnits="userSpaceOnUse">
      <feColorMatrix result="cm" values="-1 0 0 0 1 0 -1 0 0 1 0 0 -1 0 1 0 0 0 1 0"/>
      <feFlood flood-color="#fff" result="bg"/>
      <feBlend in="cm" in2="bg"/>
    </filter>
    <mask id="mask" x="147.6616" y="106.5925" width="1136.5747" height="1279.0862" maskUnits="userSpaceOnUse">
      <g class="cls-6">
        <path class="cls-3" d="M1148.9922,607.9043c-9.3965-18.0298-22.9512-23.6226-34.9111-28.5566l-.001-.0005c-10.7949-4.4536-20.9912-8.6606-32.0762-23.2876-12.5605-16.5728-17.8682-35.3696-28.4463-72.8247-4.0527-14.3491-5.3594-21.6328-6.3164-26.9678-1.2139-6.7754-2.0908-11.6704-6.2422-21.7212-15.7559-38.144-41.2646-60.9282-54.9678-73.1685-12.8184-11.4497-27.3467-24.4272-49.8311-34.5957-23.709-10.7222-45.9668-13.6753-62.2197-15.8315-6.8877-.9136-15.9473-2.1152-19.9717-3.6543.3223-2.6543.8604-6.4009,1.3877-10.0684,1.1514-8.0161,2.5322-13.6304,6.6309-30.2949l1.8379-7.4844c1.1035-4.5,2.3359-9.5303,3.7158-15.2017,8.5049-34.9355,10.8828-45.9038,12.6719-62.2236l.0557-.5088c2.5264-23.0435,3.918-35.7368-1.9131-48.501-2.8086-6.1475-11.1543-20.917-27.9414-25.2754-15.0088-3.8955-27.9443,3.1802-32.8145,5.8438-15.3848,8.4165-24.3213,18.3857-33.7832,28.9399-5.6143,6.2637-11.4209,12.7402-19.415,19.9712-6.3945,5.7847-11.6621,10.4878-16.3086,14.6367-11.3428,10.1284-18.8359,16.8193-28.7041,26.7295-17.5698,17.6436-26.5361,25.8564-35.208,33.7993-9.6006,8.7944-18.6685,17.1016-37.6348,36.6831-8.5107,8.7866-10.5864,11.1465-15.6045,16.8516-5.2915,6.0156-14.147,16.084-38.4648,42.6367-3.1528,3.4424-6.0576,6.6074-8.7314,9.5215-11.6143,12.6548-18.8696,20.5605-23.5522,26.2651-11.2866,10.2471-22.4819,20.8579-33.2915,31.5537-15.6011,15.436-30.9258,31.5669-45.5479,47.9448l-.3657.4253c-20.8228,25.1572-40.0728,51.5-57.2158,78.2974-12.9272,20.208-21.4556,35.6353-30.4839,51.9683-8.7852,15.8916-18.7422,33.9038-34.5029,59.416-15.3975,24.9243-26.478,42.6094-39.6792,60.624-3.7754,5.1528-7.5229,10.3101-11.271,15.4668-33.8975,46.6436-65.915,90.6992-117.4888,131.8027-10.9912,8.7588-22.4629,17.1064-34.0967,24.8125l-8.6279,5.7148,2.2798,10.0957c11.1104,49.1943,29.3896,96.2432,54.3291,139.8389,36.2842,63.4258,77.3633,102.708,97.105,121.5859,68.4077,65.415,137.959,100.2695,173.3296,115.2236,55.8203,23.5996,115.022,37.9355,175.9604,42.6113l17.5942,1.3496-1.501-17.582c-1.5259-17.8662-2.6182-36.0547-3.2471-54.0605-.0806-2.3086-.7856-36.8877-.2485-67.3643,1.2329-69.958,6.0234-95.2695,15.0142-119.9121,23.8252-65.3105,68.6689-104.7676,83.4053-117.7334,47.8457-42.1006,95.7598-58.292,118.7881-66.0732,16.2832-5.5039,50.168-16.958,96.3594-20.498,22.1807-1.7012,37.7949-.749,50.3418.0166,19.5693,1.1924,35.0273,2.1357,52.7812-9.957,14.3311-9.7598,22.7568-21.7861,48.7822-102.75,29.5488-91.9233,28.9473-107.855,20.2568-124.5293ZM1100.1748,723.2529c-23.585,73.3691-30.5078,82.6396-37.1094,87.1348-8.8545,6.0322-15.2344,5.958-34.0684,4.8076-13.4658-.8203-30.2197-1.8418-54.46.0166-49.9414,3.8271-86.2324,16.0947-103.6719,21.9893-24.876,8.4062-76.6387,25.8975-129,71.9707-16.1572,14.2168-65.3242,57.4775-91.771,129.9756-10.1338,27.7754-15.5181,55.4561-16.8262,129.6641-.5479,31.0771.1792,66.5674.2622,68.9414.4375,12.5361,1.0942,25.1592,1.9595,37.708-51.542-5.6396-101.6226-18.6328-149.1025-38.707-33.4766-14.1523-99.333-47.1689-164.2783-109.2725-18.7207-17.9023-57.6753-55.1523-91.7983-114.8008-21.7773-38.0684-38.1572-78.9424-48.7559-121.6357,9.3755-6.4951,18.6016-13.3545,27.5283-20.4688,54.7544-43.6377,89.479-91.4189,123.0601-137.627,3.7251-5.125,7.4497-10.251,11.2017-15.3711,13.853-18.9048,25.229-37.0557,41.0029-62.5889,16.1426-26.1304,26.2861-44.4805,35.2358-60.6699,9.1709-16.5903,17.0913-30.918,29.5-50.3154,16.4365-25.6934,34.8975-50.9648,54.8745-75.1172,14.1558-15.8472,28.9858-31.4536,44.0835-46.3911,10.7686-10.6553,21.9326-21.2251,33.1816-31.4155l.8745-.7925.7402-.9194c4.0356-5.0146,11.6001-13.2563,23.0508-25.7334,2.6797-2.9194,5.5913-6.0923,8.752-9.5435,24.521-26.7749,33.5015-36.9849,38.8691-43.0879,4.9487-5.6255,6.6157-7.5205,14.625-15.79,18.3428-18.938,27.0898-26.9507,36.3496-35.4331,8.9214-8.1714,18.1455-16.6206,36.2021-34.7534,9.248-9.2866,16.0908-15.397,27.4277-25.52,4.6807-4.1792,9.9854-8.9165,16.4521-14.7656,9.1592-8.2847,15.7842-15.6743,21.6289-22.1943,8.6895-9.6934,14.9678-16.6968,25.8428-22.647,3.6465-1.9946,7.7881-3.9268,10.876-3.125,3.7773.9805,6.9277,5.9331,8.1943,8.7046,2.3955,5.2451,1.3242,15.0195-.6211,32.7646l-.0566.5103c-1.6006,14.6128-3.8613,24.9727-11.999,58.3984-1.375,5.6538-2.6035,10.6665-3.7031,15.1519l-1.834,7.4639c-4.2432,17.2563-5.8311,23.7134-7.1934,33.1914-2.0752,14.4424-2.7744,19.3071-.8887,24.5767,6.4424,18.0083,25.2793,20.5073,45.2227,23.1533,15.2041,2.0171,34.125,4.5269,53.8037,13.4268,18.292,8.2725,29.9082,18.6489,42.207,29.6348,11.9141,10.6421,34.0908,30.4502,47.2246,62.2471,2.9189,7.0674,3.3965,9.729,4.4453,15.5815,1.0635,5.9282,2.5195,14.0474,6.9727,29.8159,10.8662,38.4736,17.4238,61.6958,33.4053,82.7837,16.0127,21.1279,32.5039,27.9321,44.5449,32.8999l.001.0005c10.6826,4.4077,15.582,6.6934,19.749,14.6895,3.3926,6.5088,4.2461,19.1685-22.2139,101.4834Z"/>
      </g>
    </mask>
    <clipPath id="clippath">
      <circle class="cls-2" cx="720" cy="720" r="564.2363"/>
    </clipPath>
  </defs>
  <g class="cls-5">
    <g>
      <g>
        <g class="cls-4">
          <path class="cls-1" d="M747.4746,1385.6787c-11.3604,0-22.623-4.9395-30.3306-14.4551-13.5562-16.7383-10.9766-41.2969,5.7622-54.8535,65.9609-53.4209,112.209-104.0146,137.458-150.375,18.3037-33.6074,25.3242-63.9814,21.4639-92.8594-13.6318-101.9561-166.5332-170.3018-314.4009-236.3984-76.9844-34.4121-156.5894-69.9951-217.416-111.2988-75.3096-51.1377-114.1514-106.4409-118.7456-169.0693-3.3208-45.2749,11.7427-91.4141,44.7729-137.1362,23.7891-32.9302,56.1929-65.1665,99.064-98.5518,16.9951-13.2339,41.4995-10.1846,54.7324,6.8086,13.2339,16.9937,10.1855,41.4985-6.8086,54.7324-36.4468,28.3823-64.6279,56.2021-83.7607,82.687-21.9868,30.4351-32.1504,59.2866-30.209,85.7539,6.4575,88.0322,150.7036,152.5098,290.2007,214.8643,79.8804,35.7061,162.48,72.6279,227.7622,116.9893,79.9482,54.3271,123.165,113.2979,132.1211,180.2832,6.0479,45.2393-4.1387,92.5107-30.2764,140.502-30.1562,55.3701-82.9346,113.8057-156.8682,173.6836-7.2217,5.8486-15.8994,8.6934-24.5215,8.6934Z"/>
        </g>
        <circle class="cls-2" cx="720" cy="720" r="564.2363"/>
      </g>
      <path class="cls-1" d="M952.1382,214.4531c-8.7352-6.9704-28.9592,3.3893-69.2641,24.0343-6.6623,3.4122-10.0757,5.3721-14.398,7.853-4.859,2.7884-10.9053,6.2593-24.0477,13.1486-4.1825,2.1925-8.9711,4.6722-14.313,7.4388-8.7223,4.518-18.609,9.6385-29.8357,15.5624-.0939.0486-9.1947,4.7829-22.1683,12.2519-7.5478,4.3458-9.2685,5.4565-13.8669,8.4249-4.9473,3.1937-13.2263,8.5378-35.7892,22.4293l-8.0778,4.9652c-20.2212,12.4185-26.3369,16.1745-26.4621,18.7203.0045,0,.0475.4299.1705.905,1.1024,4.244,19.4682,13.2559,130.0883,25.9249l.2298.0783c47.632,28.692,77.85,37.8509,89.8141,27.2274,4.4062-3.9114,4.8903-9.2847,5.8551-19.9892.6138-6.8004,1.4534-16.1136,3.6593-28.5981,2.1824-12.3553,3.9791-18.1193,6.9541-27.669,2.1198-6.8015,4.7572-15.2667,8.5552-29.3047,13.8781-51.3002,20.8434-77.0523,12.8965-83.4033Z"/>
      <path class="cls-1" d="M1108.3605,593.2139c-11.6063-4.7885-24.7632-10.2165-38.3115-28.0944-14.2717-18.8315-20.186-39.7745-30.9269-77.8076-4.2565-15.0722-5.6371-22.7748-6.6456-28.3991-1.127-6.2884-1.8079-10.084-5.3419-18.6404-14.4439-34.9697-38.287-56.2665-51.0963-67.7084-13.6462-12.1895-26.2443-23.172-46.0184-32.1148-45.3138-20.4932-84.6358-9.9424-91.0844-27.9655-.6317-1.7657.1167-6.9738,1.6135-17.3902,1.4258-9.9218,3.1335-16.3136,8.7484-39.2176,1.1013-4.4922,2.3311-9.5139,3.7096-15.1772,8.3193-34.1748,10.6392-44.838,12.3353-60.3104,2.3437-21.3798,3.5561-32.0652-.5903-41.1418-1.3445-2.9432-6.9701-14.1089-18.0688-16.9905-8.454-2.1949-16.2347,1.4158-21.8443,4.4848-21.3172,11.6624-28.004,26.677-50.3348,46.8762-22.03,19.927-30.948,27.2705-44.4467,40.826-17.8046,17.8795-26.9042,26.215-35.7043,34.276-9.4305,8.6391-18.3384,16.799-36.9927,36.0581-8.26,8.5283-10.126,10.6498-15.1135,16.3199-5.328,6.0575-14.2454,16.1958-38.6682,42.8636-3.1567,3.4469-6.0648,6.6154-8.7413,9.5318-11.9495,13.0204-19.344,21.0776-23.6848,26.471-11.0536,10.0131-22.2994,20.6277-33.6616,31.8695-16.1957,16.0241-31.1415,31.8517-44.9081,47.2717-25.5227,30.8353-43.942,57.7561-56.1352,76.8165-25.2284,39.4371-32.8213,59.3206-64.8615,111.1844-15.4919,25.077-26.7787,43.0987-40.3405,61.6065-37.571,51.2736-72.4284,103.0462-131.5116,150.1335-14.4303,11.5004-26.9079,20.1217-35.1615,25.5885,7.763,34.3705,22.6043,83.0548,52.7176,135.6946,34.4992,60.3065,72.8987,97.5837,94.4516,118.1937,73.2132,70.0104,146.0959,102.6476,168.8042,112.248,66.1777,27.9783,126.6411,38.0476,171.267,41.4716-1.223-14.324-2.5294-32.9716-3.2922-54.812-.097-2.7759-.7946-37.5612-.2552-68.1536,1.2707-72.0837,6.3583-98.5801,15.9197-124.7877,25.1355-68.9019,72.1414-110.2634,87.5881-123.8553,50.1-44.0828,99.9412-60.9271,123.8939-69.0215,16.8632-5.6997,51.9515-17.5598,100.0167-21.2437,23.2047-1.7787,39.3926-.7927,52.3997,0,18.6555,1.1382,29.9095,1.8246,43.4265-7.3823,9.8633-6.7171,17.2144-14.8966,42.9446-94.943,29.0923-90.5023,27.0228-101.9017,21.236-113.0059-6.8691-13.1805-16.3501-17.0925-27.3302-21.6227Z"/>
    </g>
  </g>
</svg>
