<?xml version="1.0" encoding="UTF-8"?>
<!--
  -     Copyright (c) 2024. ForteScarlet.
  -
  -     Project    https://github.com/simple-robot/simpler-robot
  -     Email      ForteScarlet@163.com
  -
  -     This file is part of the Simple Robot Library (Alias: simple-robot, simbot, etc.).
  -
  -     This program is free software: you can redistribute it and/or modify
  -     it under the terms of the GNU Lesser General Public License as published by
  -     the Free Software Foundation, either version 3 of the License, or
  -     (at your option) any later version.
  -
  -     This program is distributed in the hope that it will be useful,
  -     but WITHOUT ANY WARRANTY; without even the implied warranty of
  -     MERCHANTABILITY or FITNESS FOR A PARTICULAR PURPOSE.  See the
  -     Lesser GNU General Public License for more details.
  -
  -     You should have received a copy of the Lesser GNU General Public License
  -     along with this program.  If not, see <https://www.gnu.org/licenses/>.
  -
  -->

<svg id="_图层_1" data-name="图层 1" xmlns="http://www.w3.org/2000/svg" viewBox="0 0 1440 1440">
  <defs>
    <style>
      .cls-1 {
        fill: none;
      }

      .cls-1, .cls-2 {
        stroke-width: 0px;
      }

      .cls-2 {
        fill: #fff;
      }

      .cls-3 {
        clip-path: url(#clippath);
      }

      .cls-4 {
        mask: url(#mask);
      }

      .cls-5 {
        filter: url(#luminosity-invert-noclip);
      }
    </style>
    <filter id="luminosity-invert-noclip" x="147.66" y="106.59" width="1136.57" height="1279.09" color-interpolation-filters="sRGB" filterUnits="userSpaceOnUse">
      <feColorMatrix result="cm" values="-1 0 0 0 1 0 -1 0 0 1 0 0 -1 0 1 0 0 0 1 0"/>
      <feFlood flood-color="#fff" result="bg"/>
      <feBlend in="cm" in2="bg"/>
    </filter>
    <mask id="mask" x="147.66" y="106.59" width="1136.57" height="1279.09" maskUnits="userSpaceOnUse">
      <g class="cls-5">
        <path class="cls-2" d="M1148.99,607.9c-9.4-18.03-22.95-23.62-34.91-28.56h0c-10.79-4.45-20.99-8.66-32.08-23.29-12.56-16.57-17.87-35.37-28.45-72.82-4.05-14.35-5.36-21.63-6.32-26.97-1.21-6.78-2.09-11.67-6.24-21.72-15.76-38.14-41.26-60.93-54.97-73.17-12.82-11.45-27.35-24.43-49.83-34.6-23.71-10.72-45.97-13.68-62.22-15.83-6.89-.91-15.95-2.12-19.97-3.65.32-2.65.86-6.4,1.39-10.07,1.15-8.02,2.53-13.63,6.63-30.29l1.84-7.48c1.1-4.5,2.34-9.53,3.72-15.2,8.5-34.94,10.88-45.9,12.67-62.22l.06-.51c2.53-23.04,3.92-35.74-1.91-48.5-2.81-6.15-11.15-20.92-27.94-25.28-15.01-3.9-27.94,3.18-32.81,5.84-15.38,8.42-24.32,18.39-33.78,28.94-5.61,6.26-11.42,12.74-19.42,19.97-6.39,5.78-11.66,10.49-16.31,14.64-11.34,10.13-18.84,16.82-28.7,26.73-17.57,17.64-26.54,25.86-35.21,33.8-9.6,8.79-18.67,17.1-37.63,36.68-8.51,8.79-10.59,11.15-15.6,16.85-5.29,6.02-14.15,16.08-38.46,42.64-3.15,3.44-6.06,6.61-8.73,9.52-11.61,12.65-18.87,20.56-23.55,26.27-11.29,10.25-22.48,20.86-33.29,31.55-15.6,15.44-30.93,31.57-45.55,47.94l-.37.43c-20.82,25.16-40.07,51.5-57.22,78.3-12.93,20.21-21.46,35.64-30.48,51.97-8.79,15.89-18.74,33.9-34.5,59.42-15.4,24.92-26.48,42.61-39.68,60.62-3.78,5.15-7.52,10.31-11.27,15.47-33.9,46.64-65.92,90.7-117.49,131.8-10.99,8.76-22.46,17.11-34.1,24.81l-8.63,5.71,2.28,10.1c11.11,49.19,29.39,96.24,54.33,139.84,36.28,63.43,77.36,102.71,97.1,121.59,68.41,65.42,137.96,100.27,173.33,115.22,55.82,23.6,115.02,37.94,175.96,42.61l17.59,1.35-1.5-17.58c-1.53-17.87-2.62-36.05-3.25-54.06-.08-2.31-.79-36.89-.25-67.36,1.23-69.96,6.02-95.27,15.01-119.91,23.83-65.31,68.67-104.77,83.41-117.73,47.85-42.1,95.76-58.29,118.79-66.07,16.28-5.5,50.17-16.96,96.36-20.5,22.18-1.7,37.79-.75,50.34.02,19.57,1.19,35.03,2.14,52.78-9.96,14.33-9.76,22.76-21.79,48.78-102.75,29.55-91.92,28.95-107.85,20.26-124.53ZM1100.17,723.25c-23.58,73.37-30.51,82.64-37.11,87.13-8.85,6.03-15.23,5.96-34.07,4.81-13.47-.82-30.22-1.84-54.46.02-49.94,3.83-86.23,16.09-103.67,21.99-24.88,8.41-76.64,25.9-129,71.97-16.16,14.22-65.32,57.48-91.77,129.98-10.13,27.78-15.52,55.46-16.83,129.66-.55,31.08.18,66.57.26,68.94.44,12.54,1.09,25.16,1.96,37.71-51.54-5.64-101.62-18.63-149.1-38.71-33.48-14.15-99.33-47.17-164.28-109.27-18.72-17.9-57.68-55.15-91.8-114.8-21.78-38.07-38.16-78.94-48.76-121.64,9.38-6.5,18.6-13.35,27.53-20.47,54.75-43.64,89.48-91.42,123.06-137.63,3.73-5.12,7.45-10.25,11.2-15.37,13.85-18.9,25.23-37.06,41-62.59,16.14-26.13,26.29-44.48,35.24-60.67,9.17-16.59,17.09-30.92,29.5-50.32,16.44-25.69,34.9-50.96,54.87-75.12,14.16-15.85,28.99-31.45,44.08-46.39,10.77-10.66,21.93-21.23,33.18-31.42l.87-.79.74-.92c4.04-5.01,11.6-13.26,23.05-25.73,2.68-2.92,5.59-6.09,8.75-9.54,24.52-26.77,33.5-36.98,38.87-43.09,4.95-5.63,6.62-7.52,14.62-15.79,18.34-18.94,27.09-26.95,36.35-35.43,8.92-8.17,18.15-16.62,36.2-34.75,9.25-9.29,16.09-15.4,27.43-25.52,4.68-4.18,9.99-8.92,16.45-14.77,9.16-8.28,15.78-15.67,21.63-22.19,8.69-9.69,14.97-16.7,25.84-22.65,3.65-1.99,7.79-3.93,10.88-3.12,3.78.98,6.93,5.93,8.19,8.7,2.4,5.25,1.32,15.02-.62,32.76l-.06.51c-1.6,14.61-3.86,24.97-12,58.4-1.38,5.65-2.6,10.67-3.7,15.15l-1.83,7.46c-4.24,17.26-5.83,23.71-7.19,33.19-2.08,14.44-2.77,19.31-.89,24.58,6.44,18.01,25.28,20.51,45.22,23.15,15.2,2.02,34.12,4.53,53.8,13.43,18.29,8.27,29.91,18.65,42.21,29.63,11.91,10.64,34.09,30.45,47.22,62.25,2.92,7.07,3.4,9.73,4.45,15.58,1.06,5.93,2.52,14.05,6.97,29.82,10.87,38.47,17.42,61.7,33.41,82.78,16.01,21.13,32.5,27.93,44.54,32.9h0c10.68,4.41,15.58,6.69,19.75,14.69,3.39,6.51,4.25,19.17-22.21,101.48Z"/>
      </g>
    </mask>
    <clipPath id="clippath">
      <circle class="cls-1" cx="720" cy="720" r="564.24"/>
    </clipPath>
  </defs>
  <g class="cls-4">
    <g>
      <g>
        <g class="cls-3">
          <path class="cls-2" d="M747.47,1385.68c-11.36,0-22.62-4.94-30.33-14.46-13.56-16.74-10.98-41.3,5.76-54.85,65.96-53.42,112.21-104.01,137.46-150.38,18.3-33.61,25.32-63.98,21.46-92.86-13.63-101.96-166.53-170.3-314.4-236.4-76.98-34.41-156.59-70-217.42-111.3-75.31-51.14-114.15-106.44-118.75-169.07-3.32-45.27,11.74-91.41,44.77-137.14,23.79-32.93,56.19-65.17,99.06-98.55,17-13.23,41.5-10.18,54.73,6.81,13.23,16.99,10.19,41.5-6.81,54.73-36.45,28.38-64.63,56.2-83.76,82.69-21.99,30.44-32.15,59.29-30.21,85.75,6.46,88.03,150.7,152.51,290.2,214.86,79.88,35.71,162.48,72.63,227.76,116.99,79.95,54.33,123.17,113.3,132.12,180.28,6.05,45.24-4.14,92.51-30.28,140.5-30.16,55.37-82.93,113.81-156.87,173.68-7.22,5.85-15.9,8.69-24.52,8.69Z"/>
        </g>
        <circle class="cls-1" cx="720" cy="720" r="564.24"/>
      </g>
      <path class="cls-2" d="M952.14,214.45c-8.74-6.97-28.96,3.39-69.26,24.03-6.66,3.41-10.08,5.37-14.4,7.85-4.86,2.79-10.91,6.26-24.05,13.15-4.18,2.19-8.97,4.67-14.31,7.44-8.72,4.52-18.61,9.64-29.84,15.56-.09.05-9.19,4.78-22.17,12.25-7.55,4.35-9.27,5.46-13.87,8.42-4.95,3.19-13.23,8.54-35.79,22.43l-8.08,4.97c-20.22,12.42-26.34,16.17-26.46,18.72,0,0,.05.43.17.91,1.1,4.24,19.47,13.26,130.09,25.92l.23.08c47.63,28.69,77.85,37.85,89.81,27.23,4.41-3.91,4.89-9.28,5.86-19.99.61-6.8,1.45-16.11,3.66-28.6,2.18-12.36,3.98-18.12,6.95-27.67,2.12-6.8,4.76-15.27,8.56-29.3,13.88-51.3,20.84-77.05,12.9-83.4Z"/>
      <path class="cls-2" d="M1108.36,593.21c-11.61-4.79-24.76-10.22-38.31-28.09-14.27-18.83-20.19-39.77-30.93-77.81-4.26-15.07-5.64-22.77-6.65-28.4-1.13-6.29-1.81-10.08-5.34-18.64-14.44-34.97-38.29-56.27-51.1-67.71-13.65-12.19-26.24-23.17-46.02-32.11-45.31-20.49-84.64-9.94-91.08-27.97-.63-1.77.12-6.97,1.61-17.39,1.43-9.92,3.13-16.31,8.75-39.22,1.1-4.49,2.33-9.51,3.71-15.18,8.32-34.17,10.64-44.84,12.34-60.31,2.34-21.38,3.56-32.07-.59-41.14-1.34-2.94-6.97-14.11-18.07-16.99-8.45-2.19-16.23,1.42-21.84,4.48-21.32,11.66-28,26.68-50.33,46.88-22.03,19.93-30.95,27.27-44.45,40.83-17.8,17.88-26.9,26.21-35.7,34.28-9.43,8.64-18.34,16.8-36.99,36.06-8.26,8.53-10.13,10.65-15.11,16.32-5.33,6.06-14.25,16.2-38.67,42.86-3.16,3.45-6.06,6.62-8.74,9.53-11.95,13.02-19.34,21.08-23.68,26.47-11.05,10.01-22.3,20.63-33.66,31.87-16.2,16.02-31.14,31.85-44.91,47.27-25.52,30.84-43.94,57.76-56.14,76.82-25.23,39.44-32.82,59.32-64.86,111.18-15.49,25.08-26.78,43.1-40.34,61.61-37.57,51.27-72.43,103.05-131.51,150.13-14.43,11.5-26.91,20.12-35.16,25.59,7.76,34.37,22.6,83.05,52.72,135.69,34.5,60.31,72.9,97.58,94.45,118.19,73.21,70.01,146.1,102.65,168.8,112.25,66.18,27.98,126.64,38.05,171.27,41.47-1.22-14.32-2.53-32.97-3.29-54.81-.1-2.78-.79-37.56-.26-68.15,1.27-72.08,6.36-98.58,15.92-124.79,25.14-68.9,72.14-110.26,87.59-123.86,50.1-44.08,99.94-60.93,123.89-69.02,16.86-5.7,51.95-17.56,100.02-21.24,23.2-1.78,39.39-.79,52.4,0,18.66,1.14,29.91,1.82,43.43-7.38,9.86-6.72,17.21-14.9,42.94-94.94,29.09-90.5,27.02-101.9,21.24-113.01-6.87-13.18-16.35-17.09-27.33-21.62Z"/>
    </g>
  </g>
</svg>
